%TF.GenerationSoftware,KiCad,Pcbnew,5.1.6-c6e7f7d~87~ubuntu18.04.1*%
%TF.CreationDate,2020-10-23T09:17:53+08:00*%
%TF.ProjectId,filter_dev_board_v1.0,66696c74-6572-45f6-9465-765f626f6172,rev?*%
%TF.SameCoordinates,Original*%
%TF.FileFunction,Paste,Top*%
%TF.FilePolarity,Positive*%
%FSLAX46Y46*%
G04 Gerber Fmt 4.6, Leading zero omitted, Abs format (unit mm)*
G04 Created by KiCad (PCBNEW 5.1.6-c6e7f7d~87~ubuntu18.04.1) date 2020-10-23 09:17:53*
%MOMM*%
%LPD*%
G01*
G04 APERTURE LIST*
G04 APERTURE END LIST*
%TO.C,C1*%
G36*
G01*
X30638000Y-138935750D02*
X30638000Y-139448250D01*
G75*
G02*
X30419250Y-139667000I-218750J0D01*
G01*
X29981750Y-139667000D01*
G75*
G02*
X29763000Y-139448250I0J218750D01*
G01*
X29763000Y-138935750D01*
G75*
G02*
X29981750Y-138717000I218750J0D01*
G01*
X30419250Y-138717000D01*
G75*
G02*
X30638000Y-138935750I0J-218750D01*
G01*
G37*
G36*
G01*
X32213000Y-138935750D02*
X32213000Y-139448250D01*
G75*
G02*
X31994250Y-139667000I-218750J0D01*
G01*
X31556750Y-139667000D01*
G75*
G02*
X31338000Y-139448250I0J218750D01*
G01*
X31338000Y-138935750D01*
G75*
G02*
X31556750Y-138717000I218750J0D01*
G01*
X31994250Y-138717000D01*
G75*
G02*
X32213000Y-138935750I0J-218750D01*
G01*
G37*
%TD*%
%TO.C,C2*%
G36*
G01*
X45511000Y-138178250D02*
X45511000Y-137665750D01*
G75*
G02*
X45729750Y-137447000I218750J0D01*
G01*
X46167250Y-137447000D01*
G75*
G02*
X46386000Y-137665750I0J-218750D01*
G01*
X46386000Y-138178250D01*
G75*
G02*
X46167250Y-138397000I-218750J0D01*
G01*
X45729750Y-138397000D01*
G75*
G02*
X45511000Y-138178250I0J218750D01*
G01*
G37*
G36*
G01*
X47086000Y-138178250D02*
X47086000Y-137665750D01*
G75*
G02*
X47304750Y-137447000I218750J0D01*
G01*
X47742250Y-137447000D01*
G75*
G02*
X47961000Y-137665750I0J-218750D01*
G01*
X47961000Y-138178250D01*
G75*
G02*
X47742250Y-138397000I-218750J0D01*
G01*
X47304750Y-138397000D01*
G75*
G02*
X47086000Y-138178250I0J218750D01*
G01*
G37*
%TD*%
%TO.C,C3*%
G36*
G01*
X44495000Y-79504250D02*
X44495000Y-78991750D01*
G75*
G02*
X44713750Y-78773000I218750J0D01*
G01*
X45151250Y-78773000D01*
G75*
G02*
X45370000Y-78991750I0J-218750D01*
G01*
X45370000Y-79504250D01*
G75*
G02*
X45151250Y-79723000I-218750J0D01*
G01*
X44713750Y-79723000D01*
G75*
G02*
X44495000Y-79504250I0J218750D01*
G01*
G37*
G36*
G01*
X46070000Y-79504250D02*
X46070000Y-78991750D01*
G75*
G02*
X46288750Y-78773000I218750J0D01*
G01*
X46726250Y-78773000D01*
G75*
G02*
X46945000Y-78991750I0J-218750D01*
G01*
X46945000Y-79504250D01*
G75*
G02*
X46726250Y-79723000I-218750J0D01*
G01*
X46288750Y-79723000D01*
G75*
G02*
X46070000Y-79504250I0J218750D01*
G01*
G37*
%TD*%
%TO.C,C4*%
G36*
G01*
X32238500Y-136141750D02*
X32238500Y-136654250D01*
G75*
G02*
X32019750Y-136873000I-218750J0D01*
G01*
X31582250Y-136873000D01*
G75*
G02*
X31363500Y-136654250I0J218750D01*
G01*
X31363500Y-136141750D01*
G75*
G02*
X31582250Y-135923000I218750J0D01*
G01*
X32019750Y-135923000D01*
G75*
G02*
X32238500Y-136141750I0J-218750D01*
G01*
G37*
G36*
G01*
X30663500Y-136141750D02*
X30663500Y-136654250D01*
G75*
G02*
X30444750Y-136873000I-218750J0D01*
G01*
X30007250Y-136873000D01*
G75*
G02*
X29788500Y-136654250I0J218750D01*
G01*
X29788500Y-136141750D01*
G75*
G02*
X30007250Y-135923000I218750J0D01*
G01*
X30444750Y-135923000D01*
G75*
G02*
X30663500Y-136141750I0J-218750D01*
G01*
G37*
%TD*%
%TO.C,C5*%
G36*
G01*
X43530000Y-138178250D02*
X43530000Y-137665750D01*
G75*
G02*
X43748750Y-137447000I218750J0D01*
G01*
X44186250Y-137447000D01*
G75*
G02*
X44405000Y-137665750I0J-218750D01*
G01*
X44405000Y-138178250D01*
G75*
G02*
X44186250Y-138397000I-218750J0D01*
G01*
X43748750Y-138397000D01*
G75*
G02*
X43530000Y-138178250I0J218750D01*
G01*
G37*
G36*
G01*
X41955000Y-138178250D02*
X41955000Y-137665750D01*
G75*
G02*
X42173750Y-137447000I218750J0D01*
G01*
X42611250Y-137447000D01*
G75*
G02*
X42830000Y-137665750I0J-218750D01*
G01*
X42830000Y-138178250D01*
G75*
G02*
X42611250Y-138397000I-218750J0D01*
G01*
X42173750Y-138397000D01*
G75*
G02*
X41955000Y-138178250I0J218750D01*
G01*
G37*
%TD*%
%TO.C,C6*%
G36*
G01*
X31146000Y-79245750D02*
X31146000Y-79758250D01*
G75*
G02*
X30927250Y-79977000I-218750J0D01*
G01*
X30489750Y-79977000D01*
G75*
G02*
X30271000Y-79758250I0J218750D01*
G01*
X30271000Y-79245750D01*
G75*
G02*
X30489750Y-79027000I218750J0D01*
G01*
X30927250Y-79027000D01*
G75*
G02*
X31146000Y-79245750I0J-218750D01*
G01*
G37*
G36*
G01*
X32721000Y-79245750D02*
X32721000Y-79758250D01*
G75*
G02*
X32502250Y-79977000I-218750J0D01*
G01*
X32064750Y-79977000D01*
G75*
G02*
X31846000Y-79758250I0J218750D01*
G01*
X31846000Y-79245750D01*
G75*
G02*
X32064750Y-79027000I218750J0D01*
G01*
X32502250Y-79027000D01*
G75*
G02*
X32721000Y-79245750I0J-218750D01*
G01*
G37*
%TD*%
%TO.C,C7*%
G36*
G01*
X29876000Y-100581750D02*
X29876000Y-101094250D01*
G75*
G02*
X29657250Y-101313000I-218750J0D01*
G01*
X29219750Y-101313000D01*
G75*
G02*
X29001000Y-101094250I0J218750D01*
G01*
X29001000Y-100581750D01*
G75*
G02*
X29219750Y-100363000I218750J0D01*
G01*
X29657250Y-100363000D01*
G75*
G02*
X29876000Y-100581750I0J-218750D01*
G01*
G37*
G36*
G01*
X31451000Y-100581750D02*
X31451000Y-101094250D01*
G75*
G02*
X31232250Y-101313000I-218750J0D01*
G01*
X30794750Y-101313000D01*
G75*
G02*
X30576000Y-101094250I0J218750D01*
G01*
X30576000Y-100581750D01*
G75*
G02*
X30794750Y-100363000I218750J0D01*
G01*
X31232250Y-100363000D01*
G75*
G02*
X31451000Y-100581750I0J-218750D01*
G01*
G37*
%TD*%
%TO.C,C8*%
G36*
G01*
X46578000Y-100586250D02*
X46578000Y-100073750D01*
G75*
G02*
X46796750Y-99855000I218750J0D01*
G01*
X47234250Y-99855000D01*
G75*
G02*
X47453000Y-100073750I0J-218750D01*
G01*
X47453000Y-100586250D01*
G75*
G02*
X47234250Y-100805000I-218750J0D01*
G01*
X46796750Y-100805000D01*
G75*
G02*
X46578000Y-100586250I0J218750D01*
G01*
G37*
G36*
G01*
X45003000Y-100586250D02*
X45003000Y-100073750D01*
G75*
G02*
X45221750Y-99855000I218750J0D01*
G01*
X45659250Y-99855000D01*
G75*
G02*
X45878000Y-100073750I0J-218750D01*
G01*
X45878000Y-100586250D01*
G75*
G02*
X45659250Y-100805000I-218750J0D01*
G01*
X45221750Y-100805000D01*
G75*
G02*
X45003000Y-100586250I0J218750D01*
G01*
G37*
%TD*%
%TO.C,C9*%
G36*
G01*
X29001000Y-119636250D02*
X29001000Y-119123750D01*
G75*
G02*
X29219750Y-118905000I218750J0D01*
G01*
X29657250Y-118905000D01*
G75*
G02*
X29876000Y-119123750I0J-218750D01*
G01*
X29876000Y-119636250D01*
G75*
G02*
X29657250Y-119855000I-218750J0D01*
G01*
X29219750Y-119855000D01*
G75*
G02*
X29001000Y-119636250I0J218750D01*
G01*
G37*
G36*
G01*
X30576000Y-119636250D02*
X30576000Y-119123750D01*
G75*
G02*
X30794750Y-118905000I218750J0D01*
G01*
X31232250Y-118905000D01*
G75*
G02*
X31451000Y-119123750I0J-218750D01*
G01*
X31451000Y-119636250D01*
G75*
G02*
X31232250Y-119855000I-218750J0D01*
G01*
X30794750Y-119855000D01*
G75*
G02*
X30576000Y-119636250I0J218750D01*
G01*
G37*
%TD*%
%TO.C,C10*%
G36*
G01*
X44151000Y-117853750D02*
X44151000Y-118366250D01*
G75*
G02*
X43932250Y-118585000I-218750J0D01*
G01*
X43494750Y-118585000D01*
G75*
G02*
X43276000Y-118366250I0J218750D01*
G01*
X43276000Y-117853750D01*
G75*
G02*
X43494750Y-117635000I218750J0D01*
G01*
X43932250Y-117635000D01*
G75*
G02*
X44151000Y-117853750I0J-218750D01*
G01*
G37*
G36*
G01*
X42576000Y-117853750D02*
X42576000Y-118366250D01*
G75*
G02*
X42357250Y-118585000I-218750J0D01*
G01*
X41919750Y-118585000D01*
G75*
G02*
X41701000Y-118366250I0J218750D01*
G01*
X41701000Y-117853750D01*
G75*
G02*
X41919750Y-117635000I218750J0D01*
G01*
X42357250Y-117635000D01*
G75*
G02*
X42576000Y-117853750I0J-218750D01*
G01*
G37*
%TD*%
%TO.C,C11*%
G36*
G01*
X31451000Y-91945750D02*
X31451000Y-92458250D01*
G75*
G02*
X31232250Y-92677000I-218750J0D01*
G01*
X30794750Y-92677000D01*
G75*
G02*
X30576000Y-92458250I0J218750D01*
G01*
X30576000Y-91945750D01*
G75*
G02*
X30794750Y-91727000I218750J0D01*
G01*
X31232250Y-91727000D01*
G75*
G02*
X31451000Y-91945750I0J-218750D01*
G01*
G37*
G36*
G01*
X29876000Y-91945750D02*
X29876000Y-92458250D01*
G75*
G02*
X29657250Y-92677000I-218750J0D01*
G01*
X29219750Y-92677000D01*
G75*
G02*
X29001000Y-92458250I0J218750D01*
G01*
X29001000Y-91945750D01*
G75*
G02*
X29219750Y-91727000I218750J0D01*
G01*
X29657250Y-91727000D01*
G75*
G02*
X29876000Y-91945750I0J-218750D01*
G01*
G37*
%TD*%
%TO.C,C12*%
G36*
G01*
X41447000Y-97538250D02*
X41447000Y-97025750D01*
G75*
G02*
X41665750Y-96807000I218750J0D01*
G01*
X42103250Y-96807000D01*
G75*
G02*
X42322000Y-97025750I0J-218750D01*
G01*
X42322000Y-97538250D01*
G75*
G02*
X42103250Y-97757000I-218750J0D01*
G01*
X41665750Y-97757000D01*
G75*
G02*
X41447000Y-97538250I0J218750D01*
G01*
G37*
G36*
G01*
X43022000Y-97538250D02*
X43022000Y-97025750D01*
G75*
G02*
X43240750Y-96807000I218750J0D01*
G01*
X43678250Y-96807000D01*
G75*
G02*
X43897000Y-97025750I0J-218750D01*
G01*
X43897000Y-97538250D01*
G75*
G02*
X43678250Y-97757000I-218750J0D01*
G01*
X43240750Y-97757000D01*
G75*
G02*
X43022000Y-97538250I0J218750D01*
G01*
G37*
%TD*%
%TO.C,C13*%
G36*
G01*
X29876000Y-113535750D02*
X29876000Y-114048250D01*
G75*
G02*
X29657250Y-114267000I-218750J0D01*
G01*
X29219750Y-114267000D01*
G75*
G02*
X29001000Y-114048250I0J218750D01*
G01*
X29001000Y-113535750D01*
G75*
G02*
X29219750Y-113317000I218750J0D01*
G01*
X29657250Y-113317000D01*
G75*
G02*
X29876000Y-113535750I0J-218750D01*
G01*
G37*
G36*
G01*
X31451000Y-113535750D02*
X31451000Y-114048250D01*
G75*
G02*
X31232250Y-114267000I-218750J0D01*
G01*
X30794750Y-114267000D01*
G75*
G02*
X30576000Y-114048250I0J218750D01*
G01*
X30576000Y-113535750D01*
G75*
G02*
X30794750Y-113317000I218750J0D01*
G01*
X31232250Y-113317000D01*
G75*
G02*
X31451000Y-113535750I0J-218750D01*
G01*
G37*
%TD*%
%TO.C,C14*%
G36*
G01*
X45878000Y-114805750D02*
X45878000Y-115318250D01*
G75*
G02*
X45659250Y-115537000I-218750J0D01*
G01*
X45221750Y-115537000D01*
G75*
G02*
X45003000Y-115318250I0J218750D01*
G01*
X45003000Y-114805750D01*
G75*
G02*
X45221750Y-114587000I218750J0D01*
G01*
X45659250Y-114587000D01*
G75*
G02*
X45878000Y-114805750I0J-218750D01*
G01*
G37*
G36*
G01*
X47453000Y-114805750D02*
X47453000Y-115318250D01*
G75*
G02*
X47234250Y-115537000I-218750J0D01*
G01*
X46796750Y-115537000D01*
G75*
G02*
X46578000Y-115318250I0J218750D01*
G01*
X46578000Y-114805750D01*
G75*
G02*
X46796750Y-114587000I218750J0D01*
G01*
X47234250Y-114587000D01*
G75*
G02*
X47453000Y-114805750I0J-218750D01*
G01*
G37*
%TD*%
%TO.C,C15*%
G36*
G01*
X82849000Y-137924250D02*
X82849000Y-137411750D01*
G75*
G02*
X83067750Y-137193000I218750J0D01*
G01*
X83505250Y-137193000D01*
G75*
G02*
X83724000Y-137411750I0J-218750D01*
G01*
X83724000Y-137924250D01*
G75*
G02*
X83505250Y-138143000I-218750J0D01*
G01*
X83067750Y-138143000D01*
G75*
G02*
X82849000Y-137924250I0J218750D01*
G01*
G37*
G36*
G01*
X84424000Y-137924250D02*
X84424000Y-137411750D01*
G75*
G02*
X84642750Y-137193000I218750J0D01*
G01*
X85080250Y-137193000D01*
G75*
G02*
X85299000Y-137411750I0J-218750D01*
G01*
X85299000Y-137924250D01*
G75*
G02*
X85080250Y-138143000I-218750J0D01*
G01*
X84642750Y-138143000D01*
G75*
G02*
X84424000Y-137924250I0J218750D01*
G01*
G37*
%TD*%
%TO.C,C16*%
G36*
G01*
X86659000Y-134876250D02*
X86659000Y-134363750D01*
G75*
G02*
X86877750Y-134145000I218750J0D01*
G01*
X87315250Y-134145000D01*
G75*
G02*
X87534000Y-134363750I0J-218750D01*
G01*
X87534000Y-134876250D01*
G75*
G02*
X87315250Y-135095000I-218750J0D01*
G01*
X86877750Y-135095000D01*
G75*
G02*
X86659000Y-134876250I0J218750D01*
G01*
G37*
G36*
G01*
X88234000Y-134876250D02*
X88234000Y-134363750D01*
G75*
G02*
X88452750Y-134145000I218750J0D01*
G01*
X88890250Y-134145000D01*
G75*
G02*
X89109000Y-134363750I0J-218750D01*
G01*
X89109000Y-134876250D01*
G75*
G02*
X88890250Y-135095000I-218750J0D01*
G01*
X88452750Y-135095000D01*
G75*
G02*
X88234000Y-134876250I0J218750D01*
G01*
G37*
%TD*%
%TO.C,C17*%
G36*
G01*
X73502000Y-118366250D02*
X73502000Y-117853750D01*
G75*
G02*
X73720750Y-117635000I218750J0D01*
G01*
X74158250Y-117635000D01*
G75*
G02*
X74377000Y-117853750I0J-218750D01*
G01*
X74377000Y-118366250D01*
G75*
G02*
X74158250Y-118585000I-218750J0D01*
G01*
X73720750Y-118585000D01*
G75*
G02*
X73502000Y-118366250I0J218750D01*
G01*
G37*
G36*
G01*
X71927000Y-118366250D02*
X71927000Y-117853750D01*
G75*
G02*
X72145750Y-117635000I218750J0D01*
G01*
X72583250Y-117635000D01*
G75*
G02*
X72802000Y-117853750I0J-218750D01*
G01*
X72802000Y-118366250D01*
G75*
G02*
X72583250Y-118585000I-218750J0D01*
G01*
X72145750Y-118585000D01*
G75*
G02*
X71927000Y-118366250I0J218750D01*
G01*
G37*
%TD*%
%TO.C,C18*%
G36*
G01*
X71724000Y-99316250D02*
X71724000Y-98803750D01*
G75*
G02*
X71942750Y-98585000I218750J0D01*
G01*
X72380250Y-98585000D01*
G75*
G02*
X72599000Y-98803750I0J-218750D01*
G01*
X72599000Y-99316250D01*
G75*
G02*
X72380250Y-99535000I-218750J0D01*
G01*
X71942750Y-99535000D01*
G75*
G02*
X71724000Y-99316250I0J218750D01*
G01*
G37*
G36*
G01*
X70149000Y-99316250D02*
X70149000Y-98803750D01*
G75*
G02*
X70367750Y-98585000I218750J0D01*
G01*
X70805250Y-98585000D01*
G75*
G02*
X71024000Y-98803750I0J-218750D01*
G01*
X71024000Y-99316250D01*
G75*
G02*
X70805250Y-99535000I-218750J0D01*
G01*
X70367750Y-99535000D01*
G75*
G02*
X70149000Y-99316250I0J218750D01*
G01*
G37*
%TD*%
%TO.C,C19*%
G36*
G01*
X83154000Y-101094250D02*
X83154000Y-100581750D01*
G75*
G02*
X83372750Y-100363000I218750J0D01*
G01*
X83810250Y-100363000D01*
G75*
G02*
X84029000Y-100581750I0J-218750D01*
G01*
X84029000Y-101094250D01*
G75*
G02*
X83810250Y-101313000I-218750J0D01*
G01*
X83372750Y-101313000D01*
G75*
G02*
X83154000Y-101094250I0J218750D01*
G01*
G37*
G36*
G01*
X81579000Y-101094250D02*
X81579000Y-100581750D01*
G75*
G02*
X81797750Y-100363000I218750J0D01*
G01*
X82235250Y-100363000D01*
G75*
G02*
X82454000Y-100581750I0J-218750D01*
G01*
X82454000Y-101094250D01*
G75*
G02*
X82235250Y-101313000I-218750J0D01*
G01*
X81797750Y-101313000D01*
G75*
G02*
X81579000Y-101094250I0J218750D01*
G01*
G37*
%TD*%
%TO.C,C20*%
G36*
G01*
X69692000Y-77218250D02*
X69692000Y-76705750D01*
G75*
G02*
X69910750Y-76487000I218750J0D01*
G01*
X70348250Y-76487000D01*
G75*
G02*
X70567000Y-76705750I0J-218750D01*
G01*
X70567000Y-77218250D01*
G75*
G02*
X70348250Y-77437000I-218750J0D01*
G01*
X69910750Y-77437000D01*
G75*
G02*
X69692000Y-77218250I0J218750D01*
G01*
G37*
G36*
G01*
X68117000Y-77218250D02*
X68117000Y-76705750D01*
G75*
G02*
X68335750Y-76487000I218750J0D01*
G01*
X68773250Y-76487000D01*
G75*
G02*
X68992000Y-76705750I0J-218750D01*
G01*
X68992000Y-77218250D01*
G75*
G02*
X68773250Y-77437000I-218750J0D01*
G01*
X68335750Y-77437000D01*
G75*
G02*
X68117000Y-77218250I0J218750D01*
G01*
G37*
%TD*%
%TO.C,C21*%
G36*
G01*
X82849000Y-134876250D02*
X82849000Y-134363750D01*
G75*
G02*
X83067750Y-134145000I218750J0D01*
G01*
X83505250Y-134145000D01*
G75*
G02*
X83724000Y-134363750I0J-218750D01*
G01*
X83724000Y-134876250D01*
G75*
G02*
X83505250Y-135095000I-218750J0D01*
G01*
X83067750Y-135095000D01*
G75*
G02*
X82849000Y-134876250I0J218750D01*
G01*
G37*
G36*
G01*
X84424000Y-134876250D02*
X84424000Y-134363750D01*
G75*
G02*
X84642750Y-134145000I218750J0D01*
G01*
X85080250Y-134145000D01*
G75*
G02*
X85299000Y-134363750I0J-218750D01*
G01*
X85299000Y-134876250D01*
G75*
G02*
X85080250Y-135095000I-218750J0D01*
G01*
X84642750Y-135095000D01*
G75*
G02*
X84424000Y-134876250I0J218750D01*
G01*
G37*
%TD*%
%TO.C,C22*%
G36*
G01*
X69271500Y-92961750D02*
X69271500Y-93474250D01*
G75*
G02*
X69052750Y-93693000I-218750J0D01*
G01*
X68615250Y-93693000D01*
G75*
G02*
X68396500Y-93474250I0J218750D01*
G01*
X68396500Y-92961750D01*
G75*
G02*
X68615250Y-92743000I218750J0D01*
G01*
X69052750Y-92743000D01*
G75*
G02*
X69271500Y-92961750I0J-218750D01*
G01*
G37*
G36*
G01*
X67696500Y-92961750D02*
X67696500Y-93474250D01*
G75*
G02*
X67477750Y-93693000I-218750J0D01*
G01*
X67040250Y-93693000D01*
G75*
G02*
X66821500Y-93474250I0J218750D01*
G01*
X66821500Y-92961750D01*
G75*
G02*
X67040250Y-92743000I218750J0D01*
G01*
X67477750Y-92743000D01*
G75*
G02*
X67696500Y-92961750I0J-218750D01*
G01*
G37*
%TD*%
%TO.C,C23*%
G36*
G01*
X85135000Y-92204250D02*
X85135000Y-91691750D01*
G75*
G02*
X85353750Y-91473000I218750J0D01*
G01*
X85791250Y-91473000D01*
G75*
G02*
X86010000Y-91691750I0J-218750D01*
G01*
X86010000Y-92204250D01*
G75*
G02*
X85791250Y-92423000I-218750J0D01*
G01*
X85353750Y-92423000D01*
G75*
G02*
X85135000Y-92204250I0J218750D01*
G01*
G37*
G36*
G01*
X86710000Y-92204250D02*
X86710000Y-91691750D01*
G75*
G02*
X86928750Y-91473000I218750J0D01*
G01*
X87366250Y-91473000D01*
G75*
G02*
X87585000Y-91691750I0J-218750D01*
G01*
X87585000Y-92204250D01*
G75*
G02*
X87366250Y-92423000I-218750J0D01*
G01*
X86928750Y-92423000D01*
G75*
G02*
X86710000Y-92204250I0J218750D01*
G01*
G37*
%TD*%
%TO.C,C24*%
G36*
G01*
X85135000Y-95252250D02*
X85135000Y-94739750D01*
G75*
G02*
X85353750Y-94521000I218750J0D01*
G01*
X85791250Y-94521000D01*
G75*
G02*
X86010000Y-94739750I0J-218750D01*
G01*
X86010000Y-95252250D01*
G75*
G02*
X85791250Y-95471000I-218750J0D01*
G01*
X85353750Y-95471000D01*
G75*
G02*
X85135000Y-95252250I0J218750D01*
G01*
G37*
G36*
G01*
X86710000Y-95252250D02*
X86710000Y-94739750D01*
G75*
G02*
X86928750Y-94521000I218750J0D01*
G01*
X87366250Y-94521000D01*
G75*
G02*
X87585000Y-94739750I0J-218750D01*
G01*
X87585000Y-95252250D01*
G75*
G02*
X87366250Y-95471000I-218750J0D01*
G01*
X86928750Y-95471000D01*
G75*
G02*
X86710000Y-95252250I0J218750D01*
G01*
G37*
%TD*%
%TO.C,C25*%
G36*
G01*
X81531750Y-74975000D02*
X82044250Y-74975000D01*
G75*
G02*
X82263000Y-75193750I0J-218750D01*
G01*
X82263000Y-75631250D01*
G75*
G02*
X82044250Y-75850000I-218750J0D01*
G01*
X81531750Y-75850000D01*
G75*
G02*
X81313000Y-75631250I0J218750D01*
G01*
X81313000Y-75193750D01*
G75*
G02*
X81531750Y-74975000I218750J0D01*
G01*
G37*
G36*
G01*
X81531750Y-76550000D02*
X82044250Y-76550000D01*
G75*
G02*
X82263000Y-76768750I0J-218750D01*
G01*
X82263000Y-77206250D01*
G75*
G02*
X82044250Y-77425000I-218750J0D01*
G01*
X81531750Y-77425000D01*
G75*
G02*
X81313000Y-77206250I0J218750D01*
G01*
X81313000Y-76768750D01*
G75*
G02*
X81531750Y-76550000I218750J0D01*
G01*
G37*
%TD*%
%TO.C,C26*%
G36*
G01*
X71927000Y-112524250D02*
X71927000Y-112011750D01*
G75*
G02*
X72145750Y-111793000I218750J0D01*
G01*
X72583250Y-111793000D01*
G75*
G02*
X72802000Y-112011750I0J-218750D01*
G01*
X72802000Y-112524250D01*
G75*
G02*
X72583250Y-112743000I-218750J0D01*
G01*
X72145750Y-112743000D01*
G75*
G02*
X71927000Y-112524250I0J218750D01*
G01*
G37*
G36*
G01*
X73502000Y-112524250D02*
X73502000Y-112011750D01*
G75*
G02*
X73720750Y-111793000I218750J0D01*
G01*
X74158250Y-111793000D01*
G75*
G02*
X74377000Y-112011750I0J-218750D01*
G01*
X74377000Y-112524250D01*
G75*
G02*
X74158250Y-112743000I-218750J0D01*
G01*
X73720750Y-112743000D01*
G75*
G02*
X73502000Y-112524250I0J218750D01*
G01*
G37*
%TD*%
%TO.C,C27*%
G36*
G01*
X103536000Y-137411750D02*
X103536000Y-137924250D01*
G75*
G02*
X103317250Y-138143000I-218750J0D01*
G01*
X102879750Y-138143000D01*
G75*
G02*
X102661000Y-137924250I0J218750D01*
G01*
X102661000Y-137411750D01*
G75*
G02*
X102879750Y-137193000I218750J0D01*
G01*
X103317250Y-137193000D01*
G75*
G02*
X103536000Y-137411750I0J-218750D01*
G01*
G37*
G36*
G01*
X105111000Y-137411750D02*
X105111000Y-137924250D01*
G75*
G02*
X104892250Y-138143000I-218750J0D01*
G01*
X104454750Y-138143000D01*
G75*
G02*
X104236000Y-137924250I0J218750D01*
G01*
X104236000Y-137411750D01*
G75*
G02*
X104454750Y-137193000I218750J0D01*
G01*
X104892250Y-137193000D01*
G75*
G02*
X105111000Y-137411750I0J-218750D01*
G01*
G37*
%TD*%
%TO.C,C28*%
G36*
G01*
X122473000Y-99062250D02*
X122473000Y-98549750D01*
G75*
G02*
X122691750Y-98331000I218750J0D01*
G01*
X123129250Y-98331000D01*
G75*
G02*
X123348000Y-98549750I0J-218750D01*
G01*
X123348000Y-99062250D01*
G75*
G02*
X123129250Y-99281000I-218750J0D01*
G01*
X122691750Y-99281000D01*
G75*
G02*
X122473000Y-99062250I0J218750D01*
G01*
G37*
G36*
G01*
X124048000Y-99062250D02*
X124048000Y-98549750D01*
G75*
G02*
X124266750Y-98331000I218750J0D01*
G01*
X124704250Y-98331000D01*
G75*
G02*
X124923000Y-98549750I0J-218750D01*
G01*
X124923000Y-99062250D01*
G75*
G02*
X124704250Y-99281000I-218750J0D01*
G01*
X124266750Y-99281000D01*
G75*
G02*
X124048000Y-99062250I0J218750D01*
G01*
G37*
%TD*%
%TO.C,C29*%
G36*
G01*
X101047000Y-134617750D02*
X101047000Y-135130250D01*
G75*
G02*
X100828250Y-135349000I-218750J0D01*
G01*
X100390750Y-135349000D01*
G75*
G02*
X100172000Y-135130250I0J218750D01*
G01*
X100172000Y-134617750D01*
G75*
G02*
X100390750Y-134399000I218750J0D01*
G01*
X100828250Y-134399000D01*
G75*
G02*
X101047000Y-134617750I0J-218750D01*
G01*
G37*
G36*
G01*
X99472000Y-134617750D02*
X99472000Y-135130250D01*
G75*
G02*
X99253250Y-135349000I-218750J0D01*
G01*
X98815750Y-135349000D01*
G75*
G02*
X98597000Y-135130250I0J218750D01*
G01*
X98597000Y-134617750D01*
G75*
G02*
X98815750Y-134399000I218750J0D01*
G01*
X99253250Y-134399000D01*
G75*
G02*
X99472000Y-134617750I0J-218750D01*
G01*
G37*
%TD*%
%TO.C,C30*%
G36*
G01*
X112084500Y-100078250D02*
X112084500Y-99565750D01*
G75*
G02*
X112303250Y-99347000I218750J0D01*
G01*
X112740750Y-99347000D01*
G75*
G02*
X112959500Y-99565750I0J-218750D01*
G01*
X112959500Y-100078250D01*
G75*
G02*
X112740750Y-100297000I-218750J0D01*
G01*
X112303250Y-100297000D01*
G75*
G02*
X112084500Y-100078250I0J218750D01*
G01*
G37*
G36*
G01*
X110509500Y-100078250D02*
X110509500Y-99565750D01*
G75*
G02*
X110728250Y-99347000I218750J0D01*
G01*
X111165750Y-99347000D01*
G75*
G02*
X111384500Y-99565750I0J-218750D01*
G01*
X111384500Y-100078250D01*
G75*
G02*
X111165750Y-100297000I-218750J0D01*
G01*
X110728250Y-100297000D01*
G75*
G02*
X110509500Y-100078250I0J218750D01*
G01*
G37*
%TD*%
%TO.C,C31*%
G36*
G01*
X84740000Y-117599750D02*
X84740000Y-118112250D01*
G75*
G02*
X84521250Y-118331000I-218750J0D01*
G01*
X84083750Y-118331000D01*
G75*
G02*
X83865000Y-118112250I0J218750D01*
G01*
X83865000Y-117599750D01*
G75*
G02*
X84083750Y-117381000I218750J0D01*
G01*
X84521250Y-117381000D01*
G75*
G02*
X84740000Y-117599750I0J-218750D01*
G01*
G37*
G36*
G01*
X86315000Y-117599750D02*
X86315000Y-118112250D01*
G75*
G02*
X86096250Y-118331000I-218750J0D01*
G01*
X85658750Y-118331000D01*
G75*
G02*
X85440000Y-118112250I0J218750D01*
G01*
X85440000Y-117599750D01*
G75*
G02*
X85658750Y-117381000I218750J0D01*
G01*
X86096250Y-117381000D01*
G75*
G02*
X86315000Y-117599750I0J-218750D01*
G01*
G37*
%TD*%
%TO.C,C32*%
G36*
G01*
X121113000Y-79245750D02*
X121113000Y-79758250D01*
G75*
G02*
X120894250Y-79977000I-218750J0D01*
G01*
X120456750Y-79977000D01*
G75*
G02*
X120238000Y-79758250I0J218750D01*
G01*
X120238000Y-79245750D01*
G75*
G02*
X120456750Y-79027000I218750J0D01*
G01*
X120894250Y-79027000D01*
G75*
G02*
X121113000Y-79245750I0J-218750D01*
G01*
G37*
G36*
G01*
X119538000Y-79245750D02*
X119538000Y-79758250D01*
G75*
G02*
X119319250Y-79977000I-218750J0D01*
G01*
X118881750Y-79977000D01*
G75*
G02*
X118663000Y-79758250I0J218750D01*
G01*
X118663000Y-79245750D01*
G75*
G02*
X118881750Y-79027000I218750J0D01*
G01*
X119319250Y-79027000D01*
G75*
G02*
X119538000Y-79245750I0J-218750D01*
G01*
G37*
%TD*%
%TO.C,C33*%
G36*
G01*
X123348000Y-95755750D02*
X123348000Y-96268250D01*
G75*
G02*
X123129250Y-96487000I-218750J0D01*
G01*
X122691750Y-96487000D01*
G75*
G02*
X122473000Y-96268250I0J218750D01*
G01*
X122473000Y-95755750D01*
G75*
G02*
X122691750Y-95537000I218750J0D01*
G01*
X123129250Y-95537000D01*
G75*
G02*
X123348000Y-95755750I0J-218750D01*
G01*
G37*
G36*
G01*
X124923000Y-95755750D02*
X124923000Y-96268250D01*
G75*
G02*
X124704250Y-96487000I-218750J0D01*
G01*
X124266750Y-96487000D01*
G75*
G02*
X124048000Y-96268250I0J218750D01*
G01*
X124048000Y-95755750D01*
G75*
G02*
X124266750Y-95537000I218750J0D01*
G01*
X124704250Y-95537000D01*
G75*
G02*
X124923000Y-95755750I0J-218750D01*
G01*
G37*
%TD*%
%TO.C,C34*%
G36*
G01*
X104236000Y-135130250D02*
X104236000Y-134617750D01*
G75*
G02*
X104454750Y-134399000I218750J0D01*
G01*
X104892250Y-134399000D01*
G75*
G02*
X105111000Y-134617750I0J-218750D01*
G01*
X105111000Y-135130250D01*
G75*
G02*
X104892250Y-135349000I-218750J0D01*
G01*
X104454750Y-135349000D01*
G75*
G02*
X104236000Y-135130250I0J218750D01*
G01*
G37*
G36*
G01*
X102661000Y-135130250D02*
X102661000Y-134617750D01*
G75*
G02*
X102879750Y-134399000I218750J0D01*
G01*
X103317250Y-134399000D01*
G75*
G02*
X103536000Y-134617750I0J-218750D01*
G01*
X103536000Y-135130250D01*
G75*
G02*
X103317250Y-135349000I-218750J0D01*
G01*
X102879750Y-135349000D01*
G75*
G02*
X102661000Y-135130250I0J218750D01*
G01*
G37*
%TD*%
%TO.C,C35*%
G36*
G01*
X106838000Y-81277750D02*
X106838000Y-81790250D01*
G75*
G02*
X106619250Y-82009000I-218750J0D01*
G01*
X106181750Y-82009000D01*
G75*
G02*
X105963000Y-81790250I0J218750D01*
G01*
X105963000Y-81277750D01*
G75*
G02*
X106181750Y-81059000I218750J0D01*
G01*
X106619250Y-81059000D01*
G75*
G02*
X106838000Y-81277750I0J-218750D01*
G01*
G37*
G36*
G01*
X108413000Y-81277750D02*
X108413000Y-81790250D01*
G75*
G02*
X108194250Y-82009000I-218750J0D01*
G01*
X107756750Y-82009000D01*
G75*
G02*
X107538000Y-81790250I0J218750D01*
G01*
X107538000Y-81277750D01*
G75*
G02*
X107756750Y-81059000I218750J0D01*
G01*
X108194250Y-81059000D01*
G75*
G02*
X108413000Y-81277750I0J-218750D01*
G01*
G37*
%TD*%
%TO.C,C36*%
G36*
G01*
X110535000Y-94236250D02*
X110535000Y-93723750D01*
G75*
G02*
X110753750Y-93505000I218750J0D01*
G01*
X111191250Y-93505000D01*
G75*
G02*
X111410000Y-93723750I0J-218750D01*
G01*
X111410000Y-94236250D01*
G75*
G02*
X111191250Y-94455000I-218750J0D01*
G01*
X110753750Y-94455000D01*
G75*
G02*
X110535000Y-94236250I0J218750D01*
G01*
G37*
G36*
G01*
X112110000Y-94236250D02*
X112110000Y-93723750D01*
G75*
G02*
X112328750Y-93505000I218750J0D01*
G01*
X112766250Y-93505000D01*
G75*
G02*
X112985000Y-93723750I0J-218750D01*
G01*
X112985000Y-94236250D01*
G75*
G02*
X112766250Y-94455000I-218750J0D01*
G01*
X112328750Y-94455000D01*
G75*
G02*
X112110000Y-94236250I0J218750D01*
G01*
G37*
%TD*%
%TO.C,C37*%
G36*
G01*
X125775000Y-93474250D02*
X125775000Y-92961750D01*
G75*
G02*
X125993750Y-92743000I218750J0D01*
G01*
X126431250Y-92743000D01*
G75*
G02*
X126650000Y-92961750I0J-218750D01*
G01*
X126650000Y-93474250D01*
G75*
G02*
X126431250Y-93693000I-218750J0D01*
G01*
X125993750Y-93693000D01*
G75*
G02*
X125775000Y-93474250I0J218750D01*
G01*
G37*
G36*
G01*
X127350000Y-93474250D02*
X127350000Y-92961750D01*
G75*
G02*
X127568750Y-92743000I218750J0D01*
G01*
X128006250Y-92743000D01*
G75*
G02*
X128225000Y-92961750I0J-218750D01*
G01*
X128225000Y-93474250D01*
G75*
G02*
X128006250Y-93693000I-218750J0D01*
G01*
X127568750Y-93693000D01*
G75*
G02*
X127350000Y-93474250I0J218750D01*
G01*
G37*
%TD*%
%TO.C,C38*%
G36*
G01*
X86315000Y-112011750D02*
X86315000Y-112524250D01*
G75*
G02*
X86096250Y-112743000I-218750J0D01*
G01*
X85658750Y-112743000D01*
G75*
G02*
X85440000Y-112524250I0J218750D01*
G01*
X85440000Y-112011750D01*
G75*
G02*
X85658750Y-111793000I218750J0D01*
G01*
X86096250Y-111793000D01*
G75*
G02*
X86315000Y-112011750I0J-218750D01*
G01*
G37*
G36*
G01*
X84740000Y-112011750D02*
X84740000Y-112524250D01*
G75*
G02*
X84521250Y-112743000I-218750J0D01*
G01*
X84083750Y-112743000D01*
G75*
G02*
X83865000Y-112524250I0J218750D01*
G01*
X83865000Y-112011750D01*
G75*
G02*
X84083750Y-111793000I218750J0D01*
G01*
X84521250Y-111793000D01*
G75*
G02*
X84740000Y-112011750I0J-218750D01*
G01*
G37*
%TD*%
%TO.C,C39*%
G36*
G01*
X129077000Y-118874250D02*
X129077000Y-118361750D01*
G75*
G02*
X129295750Y-118143000I218750J0D01*
G01*
X129733250Y-118143000D01*
G75*
G02*
X129952000Y-118361750I0J-218750D01*
G01*
X129952000Y-118874250D01*
G75*
G02*
X129733250Y-119093000I-218750J0D01*
G01*
X129295750Y-119093000D01*
G75*
G02*
X129077000Y-118874250I0J218750D01*
G01*
G37*
G36*
G01*
X130652000Y-118874250D02*
X130652000Y-118361750D01*
G75*
G02*
X130870750Y-118143000I218750J0D01*
G01*
X131308250Y-118143000D01*
G75*
G02*
X131527000Y-118361750I0J-218750D01*
G01*
X131527000Y-118874250D01*
G75*
G02*
X131308250Y-119093000I-218750J0D01*
G01*
X130870750Y-119093000D01*
G75*
G02*
X130652000Y-118874250I0J218750D01*
G01*
G37*
%TD*%
%TO.C,C40*%
G36*
G01*
X149561000Y-94485750D02*
X149561000Y-94998250D01*
G75*
G02*
X149342250Y-95217000I-218750J0D01*
G01*
X148904750Y-95217000D01*
G75*
G02*
X148686000Y-94998250I0J218750D01*
G01*
X148686000Y-94485750D01*
G75*
G02*
X148904750Y-94267000I218750J0D01*
G01*
X149342250Y-94267000D01*
G75*
G02*
X149561000Y-94485750I0J-218750D01*
G01*
G37*
G36*
G01*
X147986000Y-94485750D02*
X147986000Y-94998250D01*
G75*
G02*
X147767250Y-95217000I-218750J0D01*
G01*
X147329750Y-95217000D01*
G75*
G02*
X147111000Y-94998250I0J218750D01*
G01*
X147111000Y-94485750D01*
G75*
G02*
X147329750Y-94267000I218750J0D01*
G01*
X147767250Y-94267000D01*
G75*
G02*
X147986000Y-94485750I0J-218750D01*
G01*
G37*
%TD*%
%TO.C,C41*%
G36*
G01*
X163926000Y-99570250D02*
X163926000Y-99057750D01*
G75*
G02*
X164144750Y-98839000I218750J0D01*
G01*
X164582250Y-98839000D01*
G75*
G02*
X164801000Y-99057750I0J-218750D01*
G01*
X164801000Y-99570250D01*
G75*
G02*
X164582250Y-99789000I-218750J0D01*
G01*
X164144750Y-99789000D01*
G75*
G02*
X163926000Y-99570250I0J218750D01*
G01*
G37*
G36*
G01*
X162351000Y-99570250D02*
X162351000Y-99057750D01*
G75*
G02*
X162569750Y-98839000I218750J0D01*
G01*
X163007250Y-98839000D01*
G75*
G02*
X163226000Y-99057750I0J-218750D01*
G01*
X163226000Y-99570250D01*
G75*
G02*
X163007250Y-99789000I-218750J0D01*
G01*
X162569750Y-99789000D01*
G75*
G02*
X162351000Y-99570250I0J218750D01*
G01*
G37*
%TD*%
%TO.C,C42*%
G36*
G01*
X141523000Y-81536250D02*
X141523000Y-81023750D01*
G75*
G02*
X141741750Y-80805000I218750J0D01*
G01*
X142179250Y-80805000D01*
G75*
G02*
X142398000Y-81023750I0J-218750D01*
G01*
X142398000Y-81536250D01*
G75*
G02*
X142179250Y-81755000I-218750J0D01*
G01*
X141741750Y-81755000D01*
G75*
G02*
X141523000Y-81536250I0J218750D01*
G01*
G37*
G36*
G01*
X143098000Y-81536250D02*
X143098000Y-81023750D01*
G75*
G02*
X143316750Y-80805000I218750J0D01*
G01*
X143754250Y-80805000D01*
G75*
G02*
X143973000Y-81023750I0J-218750D01*
G01*
X143973000Y-81536250D01*
G75*
G02*
X143754250Y-81755000I-218750J0D01*
G01*
X143316750Y-81755000D01*
G75*
G02*
X143098000Y-81536250I0J218750D01*
G01*
G37*
%TD*%
%TO.C,C43*%
G36*
G01*
X163785000Y-80769750D02*
X163785000Y-81282250D01*
G75*
G02*
X163566250Y-81501000I-218750J0D01*
G01*
X163128750Y-81501000D01*
G75*
G02*
X162910000Y-81282250I0J218750D01*
G01*
X162910000Y-80769750D01*
G75*
G02*
X163128750Y-80551000I218750J0D01*
G01*
X163566250Y-80551000D01*
G75*
G02*
X163785000Y-80769750I0J-218750D01*
G01*
G37*
G36*
G01*
X162210000Y-80769750D02*
X162210000Y-81282250D01*
G75*
G02*
X161991250Y-81501000I-218750J0D01*
G01*
X161553750Y-81501000D01*
G75*
G02*
X161335000Y-81282250I0J218750D01*
G01*
X161335000Y-80769750D01*
G75*
G02*
X161553750Y-80551000I218750J0D01*
G01*
X161991250Y-80551000D01*
G75*
G02*
X162210000Y-80769750I0J-218750D01*
G01*
G37*
%TD*%
%TO.C,C44*%
G36*
G01*
X145954000Y-77975750D02*
X145954000Y-78488250D01*
G75*
G02*
X145735250Y-78707000I-218750J0D01*
G01*
X145297750Y-78707000D01*
G75*
G02*
X145079000Y-78488250I0J218750D01*
G01*
X145079000Y-77975750D01*
G75*
G02*
X145297750Y-77757000I218750J0D01*
G01*
X145735250Y-77757000D01*
G75*
G02*
X145954000Y-77975750I0J-218750D01*
G01*
G37*
G36*
G01*
X147529000Y-77975750D02*
X147529000Y-78488250D01*
G75*
G02*
X147310250Y-78707000I-218750J0D01*
G01*
X146872750Y-78707000D01*
G75*
G02*
X146654000Y-78488250I0J218750D01*
G01*
X146654000Y-77975750D01*
G75*
G02*
X146872750Y-77757000I218750J0D01*
G01*
X147310250Y-77757000D01*
G75*
G02*
X147529000Y-77975750I0J-218750D01*
G01*
G37*
%TD*%
%TO.C,C45*%
G36*
G01*
X159354000Y-78234250D02*
X159354000Y-77721750D01*
G75*
G02*
X159572750Y-77503000I218750J0D01*
G01*
X160010250Y-77503000D01*
G75*
G02*
X160229000Y-77721750I0J-218750D01*
G01*
X160229000Y-78234250D01*
G75*
G02*
X160010250Y-78453000I-218750J0D01*
G01*
X159572750Y-78453000D01*
G75*
G02*
X159354000Y-78234250I0J218750D01*
G01*
G37*
G36*
G01*
X157779000Y-78234250D02*
X157779000Y-77721750D01*
G75*
G02*
X157997750Y-77503000I218750J0D01*
G01*
X158435250Y-77503000D01*
G75*
G02*
X158654000Y-77721750I0J-218750D01*
G01*
X158654000Y-78234250D01*
G75*
G02*
X158435250Y-78453000I-218750J0D01*
G01*
X157997750Y-78453000D01*
G75*
G02*
X157779000Y-78234250I0J218750D01*
G01*
G37*
%TD*%
%TO.C,C46*%
G36*
G01*
X127070500Y-118874250D02*
X127070500Y-118361750D01*
G75*
G02*
X127289250Y-118143000I218750J0D01*
G01*
X127726750Y-118143000D01*
G75*
G02*
X127945500Y-118361750I0J-218750D01*
G01*
X127945500Y-118874250D01*
G75*
G02*
X127726750Y-119093000I-218750J0D01*
G01*
X127289250Y-119093000D01*
G75*
G02*
X127070500Y-118874250I0J218750D01*
G01*
G37*
G36*
G01*
X125495500Y-118874250D02*
X125495500Y-118361750D01*
G75*
G02*
X125714250Y-118143000I218750J0D01*
G01*
X126151750Y-118143000D01*
G75*
G02*
X126370500Y-118361750I0J-218750D01*
G01*
X126370500Y-118874250D01*
G75*
G02*
X126151750Y-119093000I-218750J0D01*
G01*
X125714250Y-119093000D01*
G75*
G02*
X125495500Y-118874250I0J218750D01*
G01*
G37*
%TD*%
%TO.C,C47*%
G36*
G01*
X148686000Y-97792250D02*
X148686000Y-97279750D01*
G75*
G02*
X148904750Y-97061000I218750J0D01*
G01*
X149342250Y-97061000D01*
G75*
G02*
X149561000Y-97279750I0J-218750D01*
G01*
X149561000Y-97792250D01*
G75*
G02*
X149342250Y-98011000I-218750J0D01*
G01*
X148904750Y-98011000D01*
G75*
G02*
X148686000Y-97792250I0J218750D01*
G01*
G37*
G36*
G01*
X147111000Y-97792250D02*
X147111000Y-97279750D01*
G75*
G02*
X147329750Y-97061000I218750J0D01*
G01*
X147767250Y-97061000D01*
G75*
G02*
X147986000Y-97279750I0J-218750D01*
G01*
X147986000Y-97792250D01*
G75*
G02*
X147767250Y-98011000I-218750J0D01*
G01*
X147329750Y-98011000D01*
G75*
G02*
X147111000Y-97792250I0J218750D01*
G01*
G37*
%TD*%
%TO.C,C48*%
G36*
G01*
X162351000Y-96522250D02*
X162351000Y-96009750D01*
G75*
G02*
X162569750Y-95791000I218750J0D01*
G01*
X163007250Y-95791000D01*
G75*
G02*
X163226000Y-96009750I0J-218750D01*
G01*
X163226000Y-96522250D01*
G75*
G02*
X163007250Y-96741000I-218750J0D01*
G01*
X162569750Y-96741000D01*
G75*
G02*
X162351000Y-96522250I0J218750D01*
G01*
G37*
G36*
G01*
X163926000Y-96522250D02*
X163926000Y-96009750D01*
G75*
G02*
X164144750Y-95791000I218750J0D01*
G01*
X164582250Y-95791000D01*
G75*
G02*
X164801000Y-96009750I0J-218750D01*
G01*
X164801000Y-96522250D01*
G75*
G02*
X164582250Y-96741000I-218750J0D01*
G01*
X164144750Y-96741000D01*
G75*
G02*
X163926000Y-96522250I0J218750D01*
G01*
G37*
%TD*%
%TO.C,C49*%
G36*
G01*
X113950000Y-120647750D02*
X113950000Y-121160250D01*
G75*
G02*
X113731250Y-121379000I-218750J0D01*
G01*
X113293750Y-121379000D01*
G75*
G02*
X113075000Y-121160250I0J218750D01*
G01*
X113075000Y-120647750D01*
G75*
G02*
X113293750Y-120429000I218750J0D01*
G01*
X113731250Y-120429000D01*
G75*
G02*
X113950000Y-120647750I0J-218750D01*
G01*
G37*
G36*
G01*
X115525000Y-120647750D02*
X115525000Y-121160250D01*
G75*
G02*
X115306250Y-121379000I-218750J0D01*
G01*
X114868750Y-121379000D01*
G75*
G02*
X114650000Y-121160250I0J218750D01*
G01*
X114650000Y-120647750D01*
G75*
G02*
X114868750Y-120429000I218750J0D01*
G01*
X115306250Y-120429000D01*
G75*
G02*
X115525000Y-120647750I0J-218750D01*
G01*
G37*
%TD*%
%TO.C,C50*%
G36*
G01*
X111969000Y-114805750D02*
X111969000Y-115318250D01*
G75*
G02*
X111750250Y-115537000I-218750J0D01*
G01*
X111312750Y-115537000D01*
G75*
G02*
X111094000Y-115318250I0J218750D01*
G01*
X111094000Y-114805750D01*
G75*
G02*
X111312750Y-114587000I218750J0D01*
G01*
X111750250Y-114587000D01*
G75*
G02*
X111969000Y-114805750I0J-218750D01*
G01*
G37*
G36*
G01*
X110394000Y-114805750D02*
X110394000Y-115318250D01*
G75*
G02*
X110175250Y-115537000I-218750J0D01*
G01*
X109737750Y-115537000D01*
G75*
G02*
X109519000Y-115318250I0J218750D01*
G01*
X109519000Y-114805750D01*
G75*
G02*
X109737750Y-114587000I218750J0D01*
G01*
X110175250Y-114587000D01*
G75*
G02*
X110394000Y-114805750I0J-218750D01*
G01*
G37*
%TD*%
%TO.C,C51*%
G36*
G01*
X185349500Y-96517750D02*
X185349500Y-97030250D01*
G75*
G02*
X185130750Y-97249000I-218750J0D01*
G01*
X184693250Y-97249000D01*
G75*
G02*
X184474500Y-97030250I0J218750D01*
G01*
X184474500Y-96517750D01*
G75*
G02*
X184693250Y-96299000I218750J0D01*
G01*
X185130750Y-96299000D01*
G75*
G02*
X185349500Y-96517750I0J-218750D01*
G01*
G37*
G36*
G01*
X186924500Y-96517750D02*
X186924500Y-97030250D01*
G75*
G02*
X186705750Y-97249000I-218750J0D01*
G01*
X186268250Y-97249000D01*
G75*
G02*
X186049500Y-97030250I0J218750D01*
G01*
X186049500Y-96517750D01*
G75*
G02*
X186268250Y-96299000I218750J0D01*
G01*
X186705750Y-96299000D01*
G75*
G02*
X186924500Y-96517750I0J-218750D01*
G01*
G37*
%TD*%
%TO.C,C52*%
G36*
G01*
X204820000Y-96268250D02*
X204820000Y-95755750D01*
G75*
G02*
X205038750Y-95537000I218750J0D01*
G01*
X205476250Y-95537000D01*
G75*
G02*
X205695000Y-95755750I0J-218750D01*
G01*
X205695000Y-96268250D01*
G75*
G02*
X205476250Y-96487000I-218750J0D01*
G01*
X205038750Y-96487000D01*
G75*
G02*
X204820000Y-96268250I0J218750D01*
G01*
G37*
G36*
G01*
X203245000Y-96268250D02*
X203245000Y-95755750D01*
G75*
G02*
X203463750Y-95537000I218750J0D01*
G01*
X203901250Y-95537000D01*
G75*
G02*
X204120000Y-95755750I0J-218750D01*
G01*
X204120000Y-96268250D01*
G75*
G02*
X203901250Y-96487000I-218750J0D01*
G01*
X203463750Y-96487000D01*
G75*
G02*
X203245000Y-96268250I0J218750D01*
G01*
G37*
%TD*%
%TO.C,C53*%
G36*
G01*
X187864000Y-76705750D02*
X187864000Y-77218250D01*
G75*
G02*
X187645250Y-77437000I-218750J0D01*
G01*
X187207750Y-77437000D01*
G75*
G02*
X186989000Y-77218250I0J218750D01*
G01*
X186989000Y-76705750D01*
G75*
G02*
X187207750Y-76487000I218750J0D01*
G01*
X187645250Y-76487000D01*
G75*
G02*
X187864000Y-76705750I0J-218750D01*
G01*
G37*
G36*
G01*
X189439000Y-76705750D02*
X189439000Y-77218250D01*
G75*
G02*
X189220250Y-77437000I-218750J0D01*
G01*
X188782750Y-77437000D01*
G75*
G02*
X188564000Y-77218250I0J218750D01*
G01*
X188564000Y-76705750D01*
G75*
G02*
X188782750Y-76487000I218750J0D01*
G01*
X189220250Y-76487000D01*
G75*
G02*
X189439000Y-76705750I0J-218750D01*
G01*
G37*
%TD*%
%TO.C,C54*%
G36*
G01*
X200502000Y-78742250D02*
X200502000Y-78229750D01*
G75*
G02*
X200720750Y-78011000I218750J0D01*
G01*
X201158250Y-78011000D01*
G75*
G02*
X201377000Y-78229750I0J-218750D01*
G01*
X201377000Y-78742250D01*
G75*
G02*
X201158250Y-78961000I-218750J0D01*
G01*
X200720750Y-78961000D01*
G75*
G02*
X200502000Y-78742250I0J218750D01*
G01*
G37*
G36*
G01*
X198927000Y-78742250D02*
X198927000Y-78229750D01*
G75*
G02*
X199145750Y-78011000I218750J0D01*
G01*
X199583250Y-78011000D01*
G75*
G02*
X199802000Y-78229750I0J-218750D01*
G01*
X199802000Y-78742250D01*
G75*
G02*
X199583250Y-78961000I-218750J0D01*
G01*
X199145750Y-78961000D01*
G75*
G02*
X198927000Y-78742250I0J218750D01*
G01*
G37*
%TD*%
%TO.C,C55*%
G36*
G01*
X188880000Y-96517750D02*
X188880000Y-97030250D01*
G75*
G02*
X188661250Y-97249000I-218750J0D01*
G01*
X188223750Y-97249000D01*
G75*
G02*
X188005000Y-97030250I0J218750D01*
G01*
X188005000Y-96517750D01*
G75*
G02*
X188223750Y-96299000I218750J0D01*
G01*
X188661250Y-96299000D01*
G75*
G02*
X188880000Y-96517750I0J-218750D01*
G01*
G37*
G36*
G01*
X190455000Y-96517750D02*
X190455000Y-97030250D01*
G75*
G02*
X190236250Y-97249000I-218750J0D01*
G01*
X189798750Y-97249000D01*
G75*
G02*
X189580000Y-97030250I0J218750D01*
G01*
X189580000Y-96517750D01*
G75*
G02*
X189798750Y-96299000I218750J0D01*
G01*
X190236250Y-96299000D01*
G75*
G02*
X190455000Y-96517750I0J-218750D01*
G01*
G37*
%TD*%
%TO.C,C56*%
G36*
G01*
X199917500Y-99316250D02*
X199917500Y-98803750D01*
G75*
G02*
X200136250Y-98585000I218750J0D01*
G01*
X200573750Y-98585000D01*
G75*
G02*
X200792500Y-98803750I0J-218750D01*
G01*
X200792500Y-99316250D01*
G75*
G02*
X200573750Y-99535000I-218750J0D01*
G01*
X200136250Y-99535000D01*
G75*
G02*
X199917500Y-99316250I0J218750D01*
G01*
G37*
G36*
G01*
X201492500Y-99316250D02*
X201492500Y-98803750D01*
G75*
G02*
X201711250Y-98585000I218750J0D01*
G01*
X202148750Y-98585000D01*
G75*
G02*
X202367500Y-98803750I0J-218750D01*
G01*
X202367500Y-99316250D01*
G75*
G02*
X202148750Y-99535000I-218750J0D01*
G01*
X201711250Y-99535000D01*
G75*
G02*
X201492500Y-99316250I0J218750D01*
G01*
G37*
%TD*%
%TO.C,C57*%
G36*
G01*
X183687000Y-74424250D02*
X183687000Y-73911750D01*
G75*
G02*
X183905750Y-73693000I218750J0D01*
G01*
X184343250Y-73693000D01*
G75*
G02*
X184562000Y-73911750I0J-218750D01*
G01*
X184562000Y-74424250D01*
G75*
G02*
X184343250Y-74643000I-218750J0D01*
G01*
X183905750Y-74643000D01*
G75*
G02*
X183687000Y-74424250I0J218750D01*
G01*
G37*
G36*
G01*
X185262000Y-74424250D02*
X185262000Y-73911750D01*
G75*
G02*
X185480750Y-73693000I218750J0D01*
G01*
X185918250Y-73693000D01*
G75*
G02*
X186137000Y-73911750I0J-218750D01*
G01*
X186137000Y-74424250D01*
G75*
G02*
X185918250Y-74643000I-218750J0D01*
G01*
X185480750Y-74643000D01*
G75*
G02*
X185262000Y-74424250I0J218750D01*
G01*
G37*
%TD*%
%TO.C,C58*%
G36*
G01*
X204933000Y-75181750D02*
X204933000Y-75694250D01*
G75*
G02*
X204714250Y-75913000I-218750J0D01*
G01*
X204276750Y-75913000D01*
G75*
G02*
X204058000Y-75694250I0J218750D01*
G01*
X204058000Y-75181750D01*
G75*
G02*
X204276750Y-74963000I218750J0D01*
G01*
X204714250Y-74963000D01*
G75*
G02*
X204933000Y-75181750I0J-218750D01*
G01*
G37*
G36*
G01*
X203358000Y-75181750D02*
X203358000Y-75694250D01*
G75*
G02*
X203139250Y-75913000I-218750J0D01*
G01*
X202701750Y-75913000D01*
G75*
G02*
X202483000Y-75694250I0J218750D01*
G01*
X202483000Y-75181750D01*
G75*
G02*
X202701750Y-74963000I218750J0D01*
G01*
X203139250Y-74963000D01*
G75*
G02*
X203358000Y-75181750I0J-218750D01*
G01*
G37*
%TD*%
%TO.C,C59*%
G36*
G01*
X31338000Y-156974250D02*
X31338000Y-156461750D01*
G75*
G02*
X31556750Y-156243000I218750J0D01*
G01*
X31994250Y-156243000D01*
G75*
G02*
X32213000Y-156461750I0J-218750D01*
G01*
X32213000Y-156974250D01*
G75*
G02*
X31994250Y-157193000I-218750J0D01*
G01*
X31556750Y-157193000D01*
G75*
G02*
X31338000Y-156974250I0J218750D01*
G01*
G37*
G36*
G01*
X29763000Y-156974250D02*
X29763000Y-156461750D01*
G75*
G02*
X29981750Y-156243000I218750J0D01*
G01*
X30419250Y-156243000D01*
G75*
G02*
X30638000Y-156461750I0J-218750D01*
G01*
X30638000Y-156974250D01*
G75*
G02*
X30419250Y-157193000I-218750J0D01*
G01*
X29981750Y-157193000D01*
G75*
G02*
X29763000Y-156974250I0J218750D01*
G01*
G37*
%TD*%
%TO.C,C60*%
G36*
G01*
X34473500Y-148587750D02*
X34473500Y-149100250D01*
G75*
G02*
X34254750Y-149319000I-218750J0D01*
G01*
X33817250Y-149319000D01*
G75*
G02*
X33598500Y-149100250I0J218750D01*
G01*
X33598500Y-148587750D01*
G75*
G02*
X33817250Y-148369000I218750J0D01*
G01*
X34254750Y-148369000D01*
G75*
G02*
X34473500Y-148587750I0J-218750D01*
G01*
G37*
G36*
G01*
X36048500Y-148587750D02*
X36048500Y-149100250D01*
G75*
G02*
X35829750Y-149319000I-218750J0D01*
G01*
X35392250Y-149319000D01*
G75*
G02*
X35173500Y-149100250I0J218750D01*
G01*
X35173500Y-148587750D01*
G75*
G02*
X35392250Y-148369000I218750J0D01*
G01*
X35829750Y-148369000D01*
G75*
G02*
X36048500Y-148587750I0J-218750D01*
G01*
G37*
%TD*%
%TO.C,R1*%
G36*
G01*
X29001000Y-122430250D02*
X29001000Y-121917750D01*
G75*
G02*
X29219750Y-121699000I218750J0D01*
G01*
X29657250Y-121699000D01*
G75*
G02*
X29876000Y-121917750I0J-218750D01*
G01*
X29876000Y-122430250D01*
G75*
G02*
X29657250Y-122649000I-218750J0D01*
G01*
X29219750Y-122649000D01*
G75*
G02*
X29001000Y-122430250I0J218750D01*
G01*
G37*
G36*
G01*
X30576000Y-122430250D02*
X30576000Y-121917750D01*
G75*
G02*
X30794750Y-121699000I218750J0D01*
G01*
X31232250Y-121699000D01*
G75*
G02*
X31451000Y-121917750I0J-218750D01*
G01*
X31451000Y-122430250D01*
G75*
G02*
X31232250Y-122649000I-218750J0D01*
G01*
X30794750Y-122649000D01*
G75*
G02*
X30576000Y-122430250I0J218750D01*
G01*
G37*
%TD*%
%TO.C,R2*%
G36*
G01*
X46578000Y-121414250D02*
X46578000Y-120901750D01*
G75*
G02*
X46796750Y-120683000I218750J0D01*
G01*
X47234250Y-120683000D01*
G75*
G02*
X47453000Y-120901750I0J-218750D01*
G01*
X47453000Y-121414250D01*
G75*
G02*
X47234250Y-121633000I-218750J0D01*
G01*
X46796750Y-121633000D01*
G75*
G02*
X46578000Y-121414250I0J218750D01*
G01*
G37*
G36*
G01*
X45003000Y-121414250D02*
X45003000Y-120901750D01*
G75*
G02*
X45221750Y-120683000I218750J0D01*
G01*
X45659250Y-120683000D01*
G75*
G02*
X45878000Y-120901750I0J-218750D01*
G01*
X45878000Y-121414250D01*
G75*
G02*
X45659250Y-121633000I-218750J0D01*
G01*
X45221750Y-121633000D01*
G75*
G02*
X45003000Y-121414250I0J218750D01*
G01*
G37*
%TD*%
%TO.C,R3*%
G36*
G01*
X31451000Y-97787750D02*
X31451000Y-98300250D01*
G75*
G02*
X31232250Y-98519000I-218750J0D01*
G01*
X30794750Y-98519000D01*
G75*
G02*
X30576000Y-98300250I0J218750D01*
G01*
X30576000Y-97787750D01*
G75*
G02*
X30794750Y-97569000I218750J0D01*
G01*
X31232250Y-97569000D01*
G75*
G02*
X31451000Y-97787750I0J-218750D01*
G01*
G37*
G36*
G01*
X29876000Y-97787750D02*
X29876000Y-98300250D01*
G75*
G02*
X29657250Y-98519000I-218750J0D01*
G01*
X29219750Y-98519000D01*
G75*
G02*
X29001000Y-98300250I0J218750D01*
G01*
X29001000Y-97787750D01*
G75*
G02*
X29219750Y-97569000I218750J0D01*
G01*
X29657250Y-97569000D01*
G75*
G02*
X29876000Y-97787750I0J-218750D01*
G01*
G37*
%TD*%
%TO.C,R4*%
G36*
G01*
X46578000Y-97538250D02*
X46578000Y-97025750D01*
G75*
G02*
X46796750Y-96807000I218750J0D01*
G01*
X47234250Y-96807000D01*
G75*
G02*
X47453000Y-97025750I0J-218750D01*
G01*
X47453000Y-97538250D01*
G75*
G02*
X47234250Y-97757000I-218750J0D01*
G01*
X46796750Y-97757000D01*
G75*
G02*
X46578000Y-97538250I0J218750D01*
G01*
G37*
G36*
G01*
X45003000Y-97538250D02*
X45003000Y-97025750D01*
G75*
G02*
X45221750Y-96807000I218750J0D01*
G01*
X45659250Y-96807000D01*
G75*
G02*
X45878000Y-97025750I0J-218750D01*
G01*
X45878000Y-97538250D01*
G75*
G02*
X45659250Y-97757000I-218750J0D01*
G01*
X45221750Y-97757000D01*
G75*
G02*
X45003000Y-97538250I0J218750D01*
G01*
G37*
%TD*%
%TO.C,R5*%
G36*
G01*
X28975500Y-111254250D02*
X28975500Y-110741750D01*
G75*
G02*
X29194250Y-110523000I218750J0D01*
G01*
X29631750Y-110523000D01*
G75*
G02*
X29850500Y-110741750I0J-218750D01*
G01*
X29850500Y-111254250D01*
G75*
G02*
X29631750Y-111473000I-218750J0D01*
G01*
X29194250Y-111473000D01*
G75*
G02*
X28975500Y-111254250I0J218750D01*
G01*
G37*
G36*
G01*
X30550500Y-111254250D02*
X30550500Y-110741750D01*
G75*
G02*
X30769250Y-110523000I218750J0D01*
G01*
X31206750Y-110523000D01*
G75*
G02*
X31425500Y-110741750I0J-218750D01*
G01*
X31425500Y-111254250D01*
G75*
G02*
X31206750Y-111473000I-218750J0D01*
G01*
X30769250Y-111473000D01*
G75*
G02*
X30550500Y-111254250I0J218750D01*
G01*
G37*
%TD*%
%TO.C,R6*%
G36*
G01*
X44151000Y-120901750D02*
X44151000Y-121414250D01*
G75*
G02*
X43932250Y-121633000I-218750J0D01*
G01*
X43494750Y-121633000D01*
G75*
G02*
X43276000Y-121414250I0J218750D01*
G01*
X43276000Y-120901750D01*
G75*
G02*
X43494750Y-120683000I218750J0D01*
G01*
X43932250Y-120683000D01*
G75*
G02*
X44151000Y-120901750I0J-218750D01*
G01*
G37*
G36*
G01*
X42576000Y-120901750D02*
X42576000Y-121414250D01*
G75*
G02*
X42357250Y-121633000I-218750J0D01*
G01*
X41919750Y-121633000D01*
G75*
G02*
X41701000Y-121414250I0J218750D01*
G01*
X41701000Y-120901750D01*
G75*
G02*
X41919750Y-120683000I218750J0D01*
G01*
X42357250Y-120683000D01*
G75*
G02*
X42576000Y-120901750I0J-218750D01*
G01*
G37*
%TD*%
%TO.C,R7*%
G36*
G01*
X31146000Y-82039750D02*
X31146000Y-82552250D01*
G75*
G02*
X30927250Y-82771000I-218750J0D01*
G01*
X30489750Y-82771000D01*
G75*
G02*
X30271000Y-82552250I0J218750D01*
G01*
X30271000Y-82039750D01*
G75*
G02*
X30489750Y-81821000I218750J0D01*
G01*
X30927250Y-81821000D01*
G75*
G02*
X31146000Y-82039750I0J-218750D01*
G01*
G37*
G36*
G01*
X32721000Y-82039750D02*
X32721000Y-82552250D01*
G75*
G02*
X32502250Y-82771000I-218750J0D01*
G01*
X32064750Y-82771000D01*
G75*
G02*
X31846000Y-82552250I0J218750D01*
G01*
X31846000Y-82039750D01*
G75*
G02*
X32064750Y-81821000I218750J0D01*
G01*
X32502250Y-81821000D01*
G75*
G02*
X32721000Y-82039750I0J-218750D01*
G01*
G37*
%TD*%
%TO.C,R8*%
G36*
G01*
X29876000Y-94993750D02*
X29876000Y-95506250D01*
G75*
G02*
X29657250Y-95725000I-218750J0D01*
G01*
X29219750Y-95725000D01*
G75*
G02*
X29001000Y-95506250I0J218750D01*
G01*
X29001000Y-94993750D01*
G75*
G02*
X29219750Y-94775000I218750J0D01*
G01*
X29657250Y-94775000D01*
G75*
G02*
X29876000Y-94993750I0J-218750D01*
G01*
G37*
G36*
G01*
X31451000Y-94993750D02*
X31451000Y-95506250D01*
G75*
G02*
X31232250Y-95725000I-218750J0D01*
G01*
X30794750Y-95725000D01*
G75*
G02*
X30576000Y-95506250I0J218750D01*
G01*
X30576000Y-94993750D01*
G75*
G02*
X30794750Y-94775000I218750J0D01*
G01*
X31232250Y-94775000D01*
G75*
G02*
X31451000Y-94993750I0J-218750D01*
G01*
G37*
%TD*%
%TO.C,R9*%
G36*
G01*
X41447000Y-100586250D02*
X41447000Y-100073750D01*
G75*
G02*
X41665750Y-99855000I218750J0D01*
G01*
X42103250Y-99855000D01*
G75*
G02*
X42322000Y-100073750I0J-218750D01*
G01*
X42322000Y-100586250D01*
G75*
G02*
X42103250Y-100805000I-218750J0D01*
G01*
X41665750Y-100805000D01*
G75*
G02*
X41447000Y-100586250I0J218750D01*
G01*
G37*
G36*
G01*
X43022000Y-100586250D02*
X43022000Y-100073750D01*
G75*
G02*
X43240750Y-99855000I218750J0D01*
G01*
X43678250Y-99855000D01*
G75*
G02*
X43897000Y-100073750I0J-218750D01*
G01*
X43897000Y-100586250D01*
G75*
G02*
X43678250Y-100805000I-218750J0D01*
G01*
X43240750Y-100805000D01*
G75*
G02*
X43022000Y-100586250I0J218750D01*
G01*
G37*
%TD*%
%TO.C,R10*%
G36*
G01*
X45370000Y-81531750D02*
X45370000Y-82044250D01*
G75*
G02*
X45151250Y-82263000I-218750J0D01*
G01*
X44713750Y-82263000D01*
G75*
G02*
X44495000Y-82044250I0J218750D01*
G01*
X44495000Y-81531750D01*
G75*
G02*
X44713750Y-81313000I218750J0D01*
G01*
X45151250Y-81313000D01*
G75*
G02*
X45370000Y-81531750I0J-218750D01*
G01*
G37*
G36*
G01*
X46945000Y-81531750D02*
X46945000Y-82044250D01*
G75*
G02*
X46726250Y-82263000I-218750J0D01*
G01*
X46288750Y-82263000D01*
G75*
G02*
X46070000Y-82044250I0J218750D01*
G01*
X46070000Y-81531750D01*
G75*
G02*
X46288750Y-81313000I218750J0D01*
G01*
X46726250Y-81313000D01*
G75*
G02*
X46945000Y-81531750I0J-218750D01*
G01*
G37*
%TD*%
%TO.C,R11*%
G36*
G01*
X29763000Y-142242250D02*
X29763000Y-141729750D01*
G75*
G02*
X29981750Y-141511000I218750J0D01*
G01*
X30419250Y-141511000D01*
G75*
G02*
X30638000Y-141729750I0J-218750D01*
G01*
X30638000Y-142242250D01*
G75*
G02*
X30419250Y-142461000I-218750J0D01*
G01*
X29981750Y-142461000D01*
G75*
G02*
X29763000Y-142242250I0J218750D01*
G01*
G37*
G36*
G01*
X31338000Y-142242250D02*
X31338000Y-141729750D01*
G75*
G02*
X31556750Y-141511000I218750J0D01*
G01*
X31994250Y-141511000D01*
G75*
G02*
X32213000Y-141729750I0J-218750D01*
G01*
X32213000Y-142242250D01*
G75*
G02*
X31994250Y-142461000I-218750J0D01*
G01*
X31556750Y-142461000D01*
G75*
G02*
X31338000Y-142242250I0J218750D01*
G01*
G37*
%TD*%
%TO.C,R12*%
G36*
G01*
X43530000Y-141226250D02*
X43530000Y-140713750D01*
G75*
G02*
X43748750Y-140495000I218750J0D01*
G01*
X44186250Y-140495000D01*
G75*
G02*
X44405000Y-140713750I0J-218750D01*
G01*
X44405000Y-141226250D01*
G75*
G02*
X44186250Y-141445000I-218750J0D01*
G01*
X43748750Y-141445000D01*
G75*
G02*
X43530000Y-141226250I0J218750D01*
G01*
G37*
G36*
G01*
X41955000Y-141226250D02*
X41955000Y-140713750D01*
G75*
G02*
X42173750Y-140495000I218750J0D01*
G01*
X42611250Y-140495000D01*
G75*
G02*
X42830000Y-140713750I0J-218750D01*
G01*
X42830000Y-141226250D01*
G75*
G02*
X42611250Y-141445000I-218750J0D01*
G01*
X42173750Y-141445000D01*
G75*
G02*
X41955000Y-141226250I0J218750D01*
G01*
G37*
%TD*%
%TO.C,R13*%
G36*
G01*
X29876000Y-116329750D02*
X29876000Y-116842250D01*
G75*
G02*
X29657250Y-117061000I-218750J0D01*
G01*
X29219750Y-117061000D01*
G75*
G02*
X29001000Y-116842250I0J218750D01*
G01*
X29001000Y-116329750D01*
G75*
G02*
X29219750Y-116111000I218750J0D01*
G01*
X29657250Y-116111000D01*
G75*
G02*
X29876000Y-116329750I0J-218750D01*
G01*
G37*
G36*
G01*
X31451000Y-116329750D02*
X31451000Y-116842250D01*
G75*
G02*
X31232250Y-117061000I-218750J0D01*
G01*
X30794750Y-117061000D01*
G75*
G02*
X30576000Y-116842250I0J218750D01*
G01*
X30576000Y-116329750D01*
G75*
G02*
X30794750Y-116111000I218750J0D01*
G01*
X31232250Y-116111000D01*
G75*
G02*
X31451000Y-116329750I0J-218750D01*
G01*
G37*
%TD*%
%TO.C,R14*%
G36*
G01*
X45003000Y-118366250D02*
X45003000Y-117853750D01*
G75*
G02*
X45221750Y-117635000I218750J0D01*
G01*
X45659250Y-117635000D01*
G75*
G02*
X45878000Y-117853750I0J-218750D01*
G01*
X45878000Y-118366250D01*
G75*
G02*
X45659250Y-118585000I-218750J0D01*
G01*
X45221750Y-118585000D01*
G75*
G02*
X45003000Y-118366250I0J218750D01*
G01*
G37*
G36*
G01*
X46578000Y-118366250D02*
X46578000Y-117853750D01*
G75*
G02*
X46796750Y-117635000I218750J0D01*
G01*
X47234250Y-117635000D01*
G75*
G02*
X47453000Y-117853750I0J-218750D01*
G01*
X47453000Y-118366250D01*
G75*
G02*
X47234250Y-118585000I-218750J0D01*
G01*
X46796750Y-118585000D01*
G75*
G02*
X46578000Y-118366250I0J218750D01*
G01*
G37*
%TD*%
%TO.C,R15*%
G36*
G01*
X31146000Y-76451750D02*
X31146000Y-76964250D01*
G75*
G02*
X30927250Y-77183000I-218750J0D01*
G01*
X30489750Y-77183000D01*
G75*
G02*
X30271000Y-76964250I0J218750D01*
G01*
X30271000Y-76451750D01*
G75*
G02*
X30489750Y-76233000I218750J0D01*
G01*
X30927250Y-76233000D01*
G75*
G02*
X31146000Y-76451750I0J-218750D01*
G01*
G37*
G36*
G01*
X32721000Y-76451750D02*
X32721000Y-76964250D01*
G75*
G02*
X32502250Y-77183000I-218750J0D01*
G01*
X32064750Y-77183000D01*
G75*
G02*
X31846000Y-76964250I0J218750D01*
G01*
X31846000Y-76451750D01*
G75*
G02*
X32064750Y-76233000I218750J0D01*
G01*
X32502250Y-76233000D01*
G75*
G02*
X32721000Y-76451750I0J-218750D01*
G01*
G37*
%TD*%
%TO.C,R16*%
G36*
G01*
X46070000Y-76710250D02*
X46070000Y-76197750D01*
G75*
G02*
X46288750Y-75979000I218750J0D01*
G01*
X46726250Y-75979000D01*
G75*
G02*
X46945000Y-76197750I0J-218750D01*
G01*
X46945000Y-76710250D01*
G75*
G02*
X46726250Y-76929000I-218750J0D01*
G01*
X46288750Y-76929000D01*
G75*
G02*
X46070000Y-76710250I0J218750D01*
G01*
G37*
G36*
G01*
X44495000Y-76710250D02*
X44495000Y-76197750D01*
G75*
G02*
X44713750Y-75979000I218750J0D01*
G01*
X45151250Y-75979000D01*
G75*
G02*
X45370000Y-76197750I0J-218750D01*
G01*
X45370000Y-76710250D01*
G75*
G02*
X45151250Y-76929000I-218750J0D01*
G01*
X44713750Y-76929000D01*
G75*
G02*
X44495000Y-76710250I0J218750D01*
G01*
G37*
%TD*%
%TO.C,R17*%
G36*
G01*
X45003000Y-94490250D02*
X45003000Y-93977750D01*
G75*
G02*
X45221750Y-93759000I218750J0D01*
G01*
X45659250Y-93759000D01*
G75*
G02*
X45878000Y-93977750I0J-218750D01*
G01*
X45878000Y-94490250D01*
G75*
G02*
X45659250Y-94709000I-218750J0D01*
G01*
X45221750Y-94709000D01*
G75*
G02*
X45003000Y-94490250I0J218750D01*
G01*
G37*
G36*
G01*
X46578000Y-94490250D02*
X46578000Y-93977750D01*
G75*
G02*
X46796750Y-93759000I218750J0D01*
G01*
X47234250Y-93759000D01*
G75*
G02*
X47453000Y-93977750I0J-218750D01*
G01*
X47453000Y-94490250D01*
G75*
G02*
X47234250Y-94709000I-218750J0D01*
G01*
X46796750Y-94709000D01*
G75*
G02*
X46578000Y-94490250I0J218750D01*
G01*
G37*
%TD*%
%TO.C,R18*%
G36*
G01*
X30638000Y-133347750D02*
X30638000Y-133860250D01*
G75*
G02*
X30419250Y-134079000I-218750J0D01*
G01*
X29981750Y-134079000D01*
G75*
G02*
X29763000Y-133860250I0J218750D01*
G01*
X29763000Y-133347750D01*
G75*
G02*
X29981750Y-133129000I218750J0D01*
G01*
X30419250Y-133129000D01*
G75*
G02*
X30638000Y-133347750I0J-218750D01*
G01*
G37*
G36*
G01*
X32213000Y-133347750D02*
X32213000Y-133860250D01*
G75*
G02*
X31994250Y-134079000I-218750J0D01*
G01*
X31556750Y-134079000D01*
G75*
G02*
X31338000Y-133860250I0J218750D01*
G01*
X31338000Y-133347750D01*
G75*
G02*
X31556750Y-133129000I218750J0D01*
G01*
X31994250Y-133129000D01*
G75*
G02*
X32213000Y-133347750I0J-218750D01*
G01*
G37*
%TD*%
%TO.C,R19*%
G36*
G01*
X45511000Y-141226250D02*
X45511000Y-140713750D01*
G75*
G02*
X45729750Y-140495000I218750J0D01*
G01*
X46167250Y-140495000D01*
G75*
G02*
X46386000Y-140713750I0J-218750D01*
G01*
X46386000Y-141226250D01*
G75*
G02*
X46167250Y-141445000I-218750J0D01*
G01*
X45729750Y-141445000D01*
G75*
G02*
X45511000Y-141226250I0J218750D01*
G01*
G37*
G36*
G01*
X47086000Y-141226250D02*
X47086000Y-140713750D01*
G75*
G02*
X47304750Y-140495000I218750J0D01*
G01*
X47742250Y-140495000D01*
G75*
G02*
X47961000Y-140713750I0J-218750D01*
G01*
X47961000Y-141226250D01*
G75*
G02*
X47742250Y-141445000I-218750J0D01*
G01*
X47304750Y-141445000D01*
G75*
G02*
X47086000Y-141226250I0J218750D01*
G01*
G37*
%TD*%
%TO.C,R20*%
G36*
G01*
X42830000Y-134871750D02*
X42830000Y-135384250D01*
G75*
G02*
X42611250Y-135603000I-218750J0D01*
G01*
X42173750Y-135603000D01*
G75*
G02*
X41955000Y-135384250I0J218750D01*
G01*
X41955000Y-134871750D01*
G75*
G02*
X42173750Y-134653000I218750J0D01*
G01*
X42611250Y-134653000D01*
G75*
G02*
X42830000Y-134871750I0J-218750D01*
G01*
G37*
G36*
G01*
X44405000Y-134871750D02*
X44405000Y-135384250D01*
G75*
G02*
X44186250Y-135603000I-218750J0D01*
G01*
X43748750Y-135603000D01*
G75*
G02*
X43530000Y-135384250I0J218750D01*
G01*
X43530000Y-134871750D01*
G75*
G02*
X43748750Y-134653000I218750J0D01*
G01*
X44186250Y-134653000D01*
G75*
G02*
X44405000Y-134871750I0J-218750D01*
G01*
G37*
%TD*%
%TO.C,R21*%
G36*
G01*
X30638000Y-130553750D02*
X30638000Y-131066250D01*
G75*
G02*
X30419250Y-131285000I-218750J0D01*
G01*
X29981750Y-131285000D01*
G75*
G02*
X29763000Y-131066250I0J218750D01*
G01*
X29763000Y-130553750D01*
G75*
G02*
X29981750Y-130335000I218750J0D01*
G01*
X30419250Y-130335000D01*
G75*
G02*
X30638000Y-130553750I0J-218750D01*
G01*
G37*
G36*
G01*
X32213000Y-130553750D02*
X32213000Y-131066250D01*
G75*
G02*
X31994250Y-131285000I-218750J0D01*
G01*
X31556750Y-131285000D01*
G75*
G02*
X31338000Y-131066250I0J218750D01*
G01*
X31338000Y-130553750D01*
G75*
G02*
X31556750Y-130335000I218750J0D01*
G01*
X31994250Y-130335000D01*
G75*
G02*
X32213000Y-130553750I0J-218750D01*
G01*
G37*
%TD*%
%TO.C,R22*%
G36*
G01*
X45511000Y-132590250D02*
X45511000Y-132077750D01*
G75*
G02*
X45729750Y-131859000I218750J0D01*
G01*
X46167250Y-131859000D01*
G75*
G02*
X46386000Y-132077750I0J-218750D01*
G01*
X46386000Y-132590250D01*
G75*
G02*
X46167250Y-132809000I-218750J0D01*
G01*
X45729750Y-132809000D01*
G75*
G02*
X45511000Y-132590250I0J218750D01*
G01*
G37*
G36*
G01*
X47086000Y-132590250D02*
X47086000Y-132077750D01*
G75*
G02*
X47304750Y-131859000I218750J0D01*
G01*
X47742250Y-131859000D01*
G75*
G02*
X47961000Y-132077750I0J-218750D01*
G01*
X47961000Y-132590250D01*
G75*
G02*
X47742250Y-132809000I-218750J0D01*
G01*
X47304750Y-132809000D01*
G75*
G02*
X47086000Y-132590250I0J218750D01*
G01*
G37*
%TD*%
%TO.C,R23*%
G36*
G01*
X41701000Y-112524250D02*
X41701000Y-112011750D01*
G75*
G02*
X41919750Y-111793000I218750J0D01*
G01*
X42357250Y-111793000D01*
G75*
G02*
X42576000Y-112011750I0J-218750D01*
G01*
X42576000Y-112524250D01*
G75*
G02*
X42357250Y-112743000I-218750J0D01*
G01*
X41919750Y-112743000D01*
G75*
G02*
X41701000Y-112524250I0J218750D01*
G01*
G37*
G36*
G01*
X43276000Y-112524250D02*
X43276000Y-112011750D01*
G75*
G02*
X43494750Y-111793000I218750J0D01*
G01*
X43932250Y-111793000D01*
G75*
G02*
X44151000Y-112011750I0J-218750D01*
G01*
X44151000Y-112524250D01*
G75*
G02*
X43932250Y-112743000I-218750J0D01*
G01*
X43494750Y-112743000D01*
G75*
G02*
X43276000Y-112524250I0J218750D01*
G01*
G37*
%TD*%
%TO.C,R24*%
G36*
G01*
X30271000Y-74170250D02*
X30271000Y-73657750D01*
G75*
G02*
X30489750Y-73439000I218750J0D01*
G01*
X30927250Y-73439000D01*
G75*
G02*
X31146000Y-73657750I0J-218750D01*
G01*
X31146000Y-74170250D01*
G75*
G02*
X30927250Y-74389000I-218750J0D01*
G01*
X30489750Y-74389000D01*
G75*
G02*
X30271000Y-74170250I0J218750D01*
G01*
G37*
G36*
G01*
X31846000Y-74170250D02*
X31846000Y-73657750D01*
G75*
G02*
X32064750Y-73439000I218750J0D01*
G01*
X32502250Y-73439000D01*
G75*
G02*
X32721000Y-73657750I0J-218750D01*
G01*
X32721000Y-74170250D01*
G75*
G02*
X32502250Y-74389000I-218750J0D01*
G01*
X32064750Y-74389000D01*
G75*
G02*
X31846000Y-74170250I0J218750D01*
G01*
G37*
%TD*%
%TO.C,R25*%
G36*
G01*
X45370000Y-73403750D02*
X45370000Y-73916250D01*
G75*
G02*
X45151250Y-74135000I-218750J0D01*
G01*
X44713750Y-74135000D01*
G75*
G02*
X44495000Y-73916250I0J218750D01*
G01*
X44495000Y-73403750D01*
G75*
G02*
X44713750Y-73185000I218750J0D01*
G01*
X45151250Y-73185000D01*
G75*
G02*
X45370000Y-73403750I0J-218750D01*
G01*
G37*
G36*
G01*
X46945000Y-73403750D02*
X46945000Y-73916250D01*
G75*
G02*
X46726250Y-74135000I-218750J0D01*
G01*
X46288750Y-74135000D01*
G75*
G02*
X46070000Y-73916250I0J218750D01*
G01*
X46070000Y-73403750D01*
G75*
G02*
X46288750Y-73185000I218750J0D01*
G01*
X46726250Y-73185000D01*
G75*
G02*
X46945000Y-73403750I0J-218750D01*
G01*
G37*
%TD*%
%TO.C,R26*%
G36*
G01*
X43022000Y-94490250D02*
X43022000Y-93977750D01*
G75*
G02*
X43240750Y-93759000I218750J0D01*
G01*
X43678250Y-93759000D01*
G75*
G02*
X43897000Y-93977750I0J-218750D01*
G01*
X43897000Y-94490250D01*
G75*
G02*
X43678250Y-94709000I-218750J0D01*
G01*
X43240750Y-94709000D01*
G75*
G02*
X43022000Y-94490250I0J218750D01*
G01*
G37*
G36*
G01*
X41447000Y-94490250D02*
X41447000Y-93977750D01*
G75*
G02*
X41665750Y-93759000I218750J0D01*
G01*
X42103250Y-93759000D01*
G75*
G02*
X42322000Y-93977750I0J-218750D01*
G01*
X42322000Y-94490250D01*
G75*
G02*
X42103250Y-94709000I-218750J0D01*
G01*
X41665750Y-94709000D01*
G75*
G02*
X41447000Y-94490250I0J218750D01*
G01*
G37*
%TD*%
%TO.C,R27*%
G36*
G01*
X41955000Y-132590250D02*
X41955000Y-132077750D01*
G75*
G02*
X42173750Y-131859000I218750J0D01*
G01*
X42611250Y-131859000D01*
G75*
G02*
X42830000Y-132077750I0J-218750D01*
G01*
X42830000Y-132590250D01*
G75*
G02*
X42611250Y-132809000I-218750J0D01*
G01*
X42173750Y-132809000D01*
G75*
G02*
X41955000Y-132590250I0J218750D01*
G01*
G37*
G36*
G01*
X43530000Y-132590250D02*
X43530000Y-132077750D01*
G75*
G02*
X43748750Y-131859000I218750J0D01*
G01*
X44186250Y-131859000D01*
G75*
G02*
X44405000Y-132077750I0J-218750D01*
G01*
X44405000Y-132590250D01*
G75*
G02*
X44186250Y-132809000I-218750J0D01*
G01*
X43748750Y-132809000D01*
G75*
G02*
X43530000Y-132590250I0J218750D01*
G01*
G37*
%TD*%
%TO.C,R28*%
G36*
G01*
X42576000Y-114805750D02*
X42576000Y-115318250D01*
G75*
G02*
X42357250Y-115537000I-218750J0D01*
G01*
X41919750Y-115537000D01*
G75*
G02*
X41701000Y-115318250I0J218750D01*
G01*
X41701000Y-114805750D01*
G75*
G02*
X41919750Y-114587000I218750J0D01*
G01*
X42357250Y-114587000D01*
G75*
G02*
X42576000Y-114805750I0J-218750D01*
G01*
G37*
G36*
G01*
X44151000Y-114805750D02*
X44151000Y-115318250D01*
G75*
G02*
X43932250Y-115537000I-218750J0D01*
G01*
X43494750Y-115537000D01*
G75*
G02*
X43276000Y-115318250I0J218750D01*
G01*
X43276000Y-114805750D01*
G75*
G02*
X43494750Y-114587000I218750J0D01*
G01*
X43932250Y-114587000D01*
G75*
G02*
X44151000Y-114805750I0J-218750D01*
G01*
G37*
%TD*%
%TO.C,R29*%
G36*
G01*
X69297000Y-96009750D02*
X69297000Y-96522250D01*
G75*
G02*
X69078250Y-96741000I-218750J0D01*
G01*
X68640750Y-96741000D01*
G75*
G02*
X68422000Y-96522250I0J218750D01*
G01*
X68422000Y-96009750D01*
G75*
G02*
X68640750Y-95791000I218750J0D01*
G01*
X69078250Y-95791000D01*
G75*
G02*
X69297000Y-96009750I0J-218750D01*
G01*
G37*
G36*
G01*
X67722000Y-96009750D02*
X67722000Y-96522250D01*
G75*
G02*
X67503250Y-96741000I-218750J0D01*
G01*
X67065750Y-96741000D01*
G75*
G02*
X66847000Y-96522250I0J218750D01*
G01*
X66847000Y-96009750D01*
G75*
G02*
X67065750Y-95791000I218750J0D01*
G01*
X67503250Y-95791000D01*
G75*
G02*
X67722000Y-96009750I0J-218750D01*
G01*
G37*
%TD*%
%TO.C,R30*%
G36*
G01*
X86710000Y-98300250D02*
X86710000Y-97787750D01*
G75*
G02*
X86928750Y-97569000I218750J0D01*
G01*
X87366250Y-97569000D01*
G75*
G02*
X87585000Y-97787750I0J-218750D01*
G01*
X87585000Y-98300250D01*
G75*
G02*
X87366250Y-98519000I-218750J0D01*
G01*
X86928750Y-98519000D01*
G75*
G02*
X86710000Y-98300250I0J218750D01*
G01*
G37*
G36*
G01*
X85135000Y-98300250D02*
X85135000Y-97787750D01*
G75*
G02*
X85353750Y-97569000I218750J0D01*
G01*
X85791250Y-97569000D01*
G75*
G02*
X86010000Y-97787750I0J-218750D01*
G01*
X86010000Y-98300250D01*
G75*
G02*
X85791250Y-98519000I-218750J0D01*
G01*
X85353750Y-98519000D01*
G75*
G02*
X85135000Y-98300250I0J218750D01*
G01*
G37*
%TD*%
%TO.C,R31*%
G36*
G01*
X69246000Y-117853750D02*
X69246000Y-118366250D01*
G75*
G02*
X69027250Y-118585000I-218750J0D01*
G01*
X68589750Y-118585000D01*
G75*
G02*
X68371000Y-118366250I0J218750D01*
G01*
X68371000Y-117853750D01*
G75*
G02*
X68589750Y-117635000I218750J0D01*
G01*
X69027250Y-117635000D01*
G75*
G02*
X69246000Y-117853750I0J-218750D01*
G01*
G37*
G36*
G01*
X70821000Y-117853750D02*
X70821000Y-118366250D01*
G75*
G02*
X70602250Y-118585000I-218750J0D01*
G01*
X70164750Y-118585000D01*
G75*
G02*
X69946000Y-118366250I0J218750D01*
G01*
X69946000Y-117853750D01*
G75*
G02*
X70164750Y-117635000I218750J0D01*
G01*
X70602250Y-117635000D01*
G75*
G02*
X70821000Y-117853750I0J-218750D01*
G01*
G37*
%TD*%
%TO.C,R32*%
G36*
G01*
X86659000Y-137924250D02*
X86659000Y-137411750D01*
G75*
G02*
X86877750Y-137193000I218750J0D01*
G01*
X87315250Y-137193000D01*
G75*
G02*
X87534000Y-137411750I0J-218750D01*
G01*
X87534000Y-137924250D01*
G75*
G02*
X87315250Y-138143000I-218750J0D01*
G01*
X86877750Y-138143000D01*
G75*
G02*
X86659000Y-137924250I0J218750D01*
G01*
G37*
G36*
G01*
X88234000Y-137924250D02*
X88234000Y-137411750D01*
G75*
G02*
X88452750Y-137193000I218750J0D01*
G01*
X88890250Y-137193000D01*
G75*
G02*
X89109000Y-137411750I0J-218750D01*
G01*
X89109000Y-137924250D01*
G75*
G02*
X88890250Y-138143000I-218750J0D01*
G01*
X88452750Y-138143000D01*
G75*
G02*
X88234000Y-137924250I0J218750D01*
G01*
G37*
%TD*%
%TO.C,R33*%
G36*
G01*
X67722000Y-98803750D02*
X67722000Y-99316250D01*
G75*
G02*
X67503250Y-99535000I-218750J0D01*
G01*
X67065750Y-99535000D01*
G75*
G02*
X66847000Y-99316250I0J218750D01*
G01*
X66847000Y-98803750D01*
G75*
G02*
X67065750Y-98585000I218750J0D01*
G01*
X67503250Y-98585000D01*
G75*
G02*
X67722000Y-98803750I0J-218750D01*
G01*
G37*
G36*
G01*
X69297000Y-98803750D02*
X69297000Y-99316250D01*
G75*
G02*
X69078250Y-99535000I-218750J0D01*
G01*
X68640750Y-99535000D01*
G75*
G02*
X68422000Y-99316250I0J218750D01*
G01*
X68422000Y-98803750D01*
G75*
G02*
X68640750Y-98585000I218750J0D01*
G01*
X69078250Y-98585000D01*
G75*
G02*
X69297000Y-98803750I0J-218750D01*
G01*
G37*
%TD*%
%TO.C,R34*%
G36*
G01*
X81579000Y-98300250D02*
X81579000Y-97787750D01*
G75*
G02*
X81797750Y-97569000I218750J0D01*
G01*
X82235250Y-97569000D01*
G75*
G02*
X82454000Y-97787750I0J-218750D01*
G01*
X82454000Y-98300250D01*
G75*
G02*
X82235250Y-98519000I-218750J0D01*
G01*
X81797750Y-98519000D01*
G75*
G02*
X81579000Y-98300250I0J218750D01*
G01*
G37*
G36*
G01*
X83154000Y-98300250D02*
X83154000Y-97787750D01*
G75*
G02*
X83372750Y-97569000I218750J0D01*
G01*
X83810250Y-97569000D01*
G75*
G02*
X84029000Y-97787750I0J-218750D01*
G01*
X84029000Y-98300250D01*
G75*
G02*
X83810250Y-98519000I-218750J0D01*
G01*
X83372750Y-98519000D01*
G75*
G02*
X83154000Y-98300250I0J218750D01*
G01*
G37*
%TD*%
%TO.C,R35*%
G36*
G01*
X70567000Y-79499750D02*
X70567000Y-80012250D01*
G75*
G02*
X70348250Y-80231000I-218750J0D01*
G01*
X69910750Y-80231000D01*
G75*
G02*
X69692000Y-80012250I0J218750D01*
G01*
X69692000Y-79499750D01*
G75*
G02*
X69910750Y-79281000I218750J0D01*
G01*
X70348250Y-79281000D01*
G75*
G02*
X70567000Y-79499750I0J-218750D01*
G01*
G37*
G36*
G01*
X68992000Y-79499750D02*
X68992000Y-80012250D01*
G75*
G02*
X68773250Y-80231000I-218750J0D01*
G01*
X68335750Y-80231000D01*
G75*
G02*
X68117000Y-80012250I0J218750D01*
G01*
X68117000Y-79499750D01*
G75*
G02*
X68335750Y-79281000I218750J0D01*
G01*
X68773250Y-79281000D01*
G75*
G02*
X68992000Y-79499750I0J-218750D01*
G01*
G37*
%TD*%
%TO.C,R36*%
G36*
G01*
X70149000Y-96522250D02*
X70149000Y-96009750D01*
G75*
G02*
X70367750Y-95791000I218750J0D01*
G01*
X70805250Y-95791000D01*
G75*
G02*
X71024000Y-96009750I0J-218750D01*
G01*
X71024000Y-96522250D01*
G75*
G02*
X70805250Y-96741000I-218750J0D01*
G01*
X70367750Y-96741000D01*
G75*
G02*
X70149000Y-96522250I0J218750D01*
G01*
G37*
G36*
G01*
X71724000Y-96522250D02*
X71724000Y-96009750D01*
G75*
G02*
X71942750Y-95791000I218750J0D01*
G01*
X72380250Y-95791000D01*
G75*
G02*
X72599000Y-96009750I0J-218750D01*
G01*
X72599000Y-96522250D01*
G75*
G02*
X72380250Y-96741000I-218750J0D01*
G01*
X71942750Y-96741000D01*
G75*
G02*
X71724000Y-96522250I0J218750D01*
G01*
G37*
%TD*%
%TO.C,R37*%
G36*
G01*
X83154000Y-95252250D02*
X83154000Y-94739750D01*
G75*
G02*
X83372750Y-94521000I218750J0D01*
G01*
X83810250Y-94521000D01*
G75*
G02*
X84029000Y-94739750I0J-218750D01*
G01*
X84029000Y-95252250D01*
G75*
G02*
X83810250Y-95471000I-218750J0D01*
G01*
X83372750Y-95471000D01*
G75*
G02*
X83154000Y-95252250I0J218750D01*
G01*
G37*
G36*
G01*
X81579000Y-95252250D02*
X81579000Y-94739750D01*
G75*
G02*
X81797750Y-94521000I218750J0D01*
G01*
X82235250Y-94521000D01*
G75*
G02*
X82454000Y-94739750I0J-218750D01*
G01*
X82454000Y-95252250D01*
G75*
G02*
X82235250Y-95471000I-218750J0D01*
G01*
X81797750Y-95471000D01*
G75*
G02*
X81579000Y-95252250I0J218750D01*
G01*
G37*
%TD*%
%TO.C,R38*%
G36*
G01*
X74351500Y-114805750D02*
X74351500Y-115318250D01*
G75*
G02*
X74132750Y-115537000I-218750J0D01*
G01*
X73695250Y-115537000D01*
G75*
G02*
X73476500Y-115318250I0J218750D01*
G01*
X73476500Y-114805750D01*
G75*
G02*
X73695250Y-114587000I218750J0D01*
G01*
X74132750Y-114587000D01*
G75*
G02*
X74351500Y-114805750I0J-218750D01*
G01*
G37*
G36*
G01*
X72776500Y-114805750D02*
X72776500Y-115318250D01*
G75*
G02*
X72557750Y-115537000I-218750J0D01*
G01*
X72120250Y-115537000D01*
G75*
G02*
X71901500Y-115318250I0J218750D01*
G01*
X71901500Y-114805750D01*
G75*
G02*
X72120250Y-114587000I218750J0D01*
G01*
X72557750Y-114587000D01*
G75*
G02*
X72776500Y-114805750I0J-218750D01*
G01*
G37*
%TD*%
%TO.C,R39*%
G36*
G01*
X85299000Y-140205750D02*
X85299000Y-140718250D01*
G75*
G02*
X85080250Y-140937000I-218750J0D01*
G01*
X84642750Y-140937000D01*
G75*
G02*
X84424000Y-140718250I0J218750D01*
G01*
X84424000Y-140205750D01*
G75*
G02*
X84642750Y-139987000I218750J0D01*
G01*
X85080250Y-139987000D01*
G75*
G02*
X85299000Y-140205750I0J-218750D01*
G01*
G37*
G36*
G01*
X83724000Y-140205750D02*
X83724000Y-140718250D01*
G75*
G02*
X83505250Y-140937000I-218750J0D01*
G01*
X83067750Y-140937000D01*
G75*
G02*
X82849000Y-140718250I0J218750D01*
G01*
X82849000Y-140205750D01*
G75*
G02*
X83067750Y-139987000I218750J0D01*
G01*
X83505250Y-139987000D01*
G75*
G02*
X83724000Y-140205750I0J-218750D01*
G01*
G37*
%TD*%
%TO.C,R40*%
G36*
G01*
X82900000Y-80266250D02*
X82900000Y-79753750D01*
G75*
G02*
X83118750Y-79535000I218750J0D01*
G01*
X83556250Y-79535000D01*
G75*
G02*
X83775000Y-79753750I0J-218750D01*
G01*
X83775000Y-80266250D01*
G75*
G02*
X83556250Y-80485000I-218750J0D01*
G01*
X83118750Y-80485000D01*
G75*
G02*
X82900000Y-80266250I0J218750D01*
G01*
G37*
G36*
G01*
X81325000Y-80266250D02*
X81325000Y-79753750D01*
G75*
G02*
X81543750Y-79535000I218750J0D01*
G01*
X81981250Y-79535000D01*
G75*
G02*
X82200000Y-79753750I0J-218750D01*
G01*
X82200000Y-80266250D01*
G75*
G02*
X81981250Y-80485000I-218750J0D01*
G01*
X81543750Y-80485000D01*
G75*
G02*
X81325000Y-80266250I0J218750D01*
G01*
G37*
%TD*%
%TO.C,R41*%
G36*
G01*
X86684500Y-132844250D02*
X86684500Y-132331750D01*
G75*
G02*
X86903250Y-132113000I218750J0D01*
G01*
X87340750Y-132113000D01*
G75*
G02*
X87559500Y-132331750I0J-218750D01*
G01*
X87559500Y-132844250D01*
G75*
G02*
X87340750Y-133063000I-218750J0D01*
G01*
X86903250Y-133063000D01*
G75*
G02*
X86684500Y-132844250I0J218750D01*
G01*
G37*
G36*
G01*
X88259500Y-132844250D02*
X88259500Y-132331750D01*
G75*
G02*
X88478250Y-132113000I218750J0D01*
G01*
X88915750Y-132113000D01*
G75*
G02*
X89134500Y-132331750I0J-218750D01*
G01*
X89134500Y-132844250D01*
G75*
G02*
X88915750Y-133063000I-218750J0D01*
G01*
X88478250Y-133063000D01*
G75*
G02*
X88259500Y-132844250I0J218750D01*
G01*
G37*
%TD*%
%TO.C,R42*%
G36*
G01*
X69946000Y-121414250D02*
X69946000Y-120901750D01*
G75*
G02*
X70164750Y-120683000I218750J0D01*
G01*
X70602250Y-120683000D01*
G75*
G02*
X70821000Y-120901750I0J-218750D01*
G01*
X70821000Y-121414250D01*
G75*
G02*
X70602250Y-121633000I-218750J0D01*
G01*
X70164750Y-121633000D01*
G75*
G02*
X69946000Y-121414250I0J218750D01*
G01*
G37*
G36*
G01*
X68371000Y-121414250D02*
X68371000Y-120901750D01*
G75*
G02*
X68589750Y-120683000I218750J0D01*
G01*
X69027250Y-120683000D01*
G75*
G02*
X69246000Y-120901750I0J-218750D01*
G01*
X69246000Y-121414250D01*
G75*
G02*
X69027250Y-121633000I-218750J0D01*
G01*
X68589750Y-121633000D01*
G75*
G02*
X68371000Y-121414250I0J218750D01*
G01*
G37*
%TD*%
%TO.C,R43*%
G36*
G01*
X68992000Y-73657750D02*
X68992000Y-74170250D01*
G75*
G02*
X68773250Y-74389000I-218750J0D01*
G01*
X68335750Y-74389000D01*
G75*
G02*
X68117000Y-74170250I0J218750D01*
G01*
X68117000Y-73657750D01*
G75*
G02*
X68335750Y-73439000I218750J0D01*
G01*
X68773250Y-73439000D01*
G75*
G02*
X68992000Y-73657750I0J-218750D01*
G01*
G37*
G36*
G01*
X70567000Y-73657750D02*
X70567000Y-74170250D01*
G75*
G02*
X70348250Y-74389000I-218750J0D01*
G01*
X69910750Y-74389000D01*
G75*
G02*
X69692000Y-74170250I0J218750D01*
G01*
X69692000Y-73657750D01*
G75*
G02*
X69910750Y-73439000I218750J0D01*
G01*
X70348250Y-73439000D01*
G75*
G02*
X70567000Y-73657750I0J-218750D01*
G01*
G37*
%TD*%
%TO.C,R44*%
G36*
G01*
X83563750Y-74975000D02*
X84076250Y-74975000D01*
G75*
G02*
X84295000Y-75193750I0J-218750D01*
G01*
X84295000Y-75631250D01*
G75*
G02*
X84076250Y-75850000I-218750J0D01*
G01*
X83563750Y-75850000D01*
G75*
G02*
X83345000Y-75631250I0J218750D01*
G01*
X83345000Y-75193750D01*
G75*
G02*
X83563750Y-74975000I218750J0D01*
G01*
G37*
G36*
G01*
X83563750Y-76550000D02*
X84076250Y-76550000D01*
G75*
G02*
X84295000Y-76768750I0J-218750D01*
G01*
X84295000Y-77206250D01*
G75*
G02*
X84076250Y-77425000I-218750J0D01*
G01*
X83563750Y-77425000D01*
G75*
G02*
X83345000Y-77206250I0J218750D01*
G01*
X83345000Y-76768750D01*
G75*
G02*
X83563750Y-76550000I218750J0D01*
G01*
G37*
%TD*%
%TO.C,R45*%
G36*
G01*
X68371000Y-115318250D02*
X68371000Y-114805750D01*
G75*
G02*
X68589750Y-114587000I218750J0D01*
G01*
X69027250Y-114587000D01*
G75*
G02*
X69246000Y-114805750I0J-218750D01*
G01*
X69246000Y-115318250D01*
G75*
G02*
X69027250Y-115537000I-218750J0D01*
G01*
X68589750Y-115537000D01*
G75*
G02*
X68371000Y-115318250I0J218750D01*
G01*
G37*
G36*
G01*
X69946000Y-115318250D02*
X69946000Y-114805750D01*
G75*
G02*
X70164750Y-114587000I218750J0D01*
G01*
X70602250Y-114587000D01*
G75*
G02*
X70821000Y-114805750I0J-218750D01*
G01*
X70821000Y-115318250D01*
G75*
G02*
X70602250Y-115537000I-218750J0D01*
G01*
X70164750Y-115537000D01*
G75*
G02*
X69946000Y-115318250I0J218750D01*
G01*
G37*
%TD*%
%TO.C,R46*%
G36*
G01*
X87534000Y-140205750D02*
X87534000Y-140718250D01*
G75*
G02*
X87315250Y-140937000I-218750J0D01*
G01*
X86877750Y-140937000D01*
G75*
G02*
X86659000Y-140718250I0J218750D01*
G01*
X86659000Y-140205750D01*
G75*
G02*
X86877750Y-139987000I218750J0D01*
G01*
X87315250Y-139987000D01*
G75*
G02*
X87534000Y-140205750I0J-218750D01*
G01*
G37*
G36*
G01*
X89109000Y-140205750D02*
X89109000Y-140718250D01*
G75*
G02*
X88890250Y-140937000I-218750J0D01*
G01*
X88452750Y-140937000D01*
G75*
G02*
X88234000Y-140718250I0J218750D01*
G01*
X88234000Y-140205750D01*
G75*
G02*
X88452750Y-139987000I218750J0D01*
G01*
X88890250Y-139987000D01*
G75*
G02*
X89109000Y-140205750I0J-218750D01*
G01*
G37*
%TD*%
%TO.C,R47*%
G36*
G01*
X71724000Y-93474250D02*
X71724000Y-92961750D01*
G75*
G02*
X71942750Y-92743000I218750J0D01*
G01*
X72380250Y-92743000D01*
G75*
G02*
X72599000Y-92961750I0J-218750D01*
G01*
X72599000Y-93474250D01*
G75*
G02*
X72380250Y-93693000I-218750J0D01*
G01*
X71942750Y-93693000D01*
G75*
G02*
X71724000Y-93474250I0J218750D01*
G01*
G37*
G36*
G01*
X70149000Y-93474250D02*
X70149000Y-92961750D01*
G75*
G02*
X70367750Y-92743000I218750J0D01*
G01*
X70805250Y-92743000D01*
G75*
G02*
X71024000Y-92961750I0J-218750D01*
G01*
X71024000Y-93474250D01*
G75*
G02*
X70805250Y-93693000I-218750J0D01*
G01*
X70367750Y-93693000D01*
G75*
G02*
X70149000Y-93474250I0J218750D01*
G01*
G37*
%TD*%
%TO.C,R48*%
G36*
G01*
X83154000Y-92204250D02*
X83154000Y-91691750D01*
G75*
G02*
X83372750Y-91473000I218750J0D01*
G01*
X83810250Y-91473000D01*
G75*
G02*
X84029000Y-91691750I0J-218750D01*
G01*
X84029000Y-92204250D01*
G75*
G02*
X83810250Y-92423000I-218750J0D01*
G01*
X83372750Y-92423000D01*
G75*
G02*
X83154000Y-92204250I0J218750D01*
G01*
G37*
G36*
G01*
X81579000Y-92204250D02*
X81579000Y-91691750D01*
G75*
G02*
X81797750Y-91473000I218750J0D01*
G01*
X82235250Y-91473000D01*
G75*
G02*
X82454000Y-91691750I0J-218750D01*
G01*
X82454000Y-92204250D01*
G75*
G02*
X82235250Y-92423000I-218750J0D01*
G01*
X81797750Y-92423000D01*
G75*
G02*
X81579000Y-92204250I0J218750D01*
G01*
G37*
%TD*%
%TO.C,R49*%
G36*
G01*
X74377000Y-120901750D02*
X74377000Y-121414250D01*
G75*
G02*
X74158250Y-121633000I-218750J0D01*
G01*
X73720750Y-121633000D01*
G75*
G02*
X73502000Y-121414250I0J218750D01*
G01*
X73502000Y-120901750D01*
G75*
G02*
X73720750Y-120683000I218750J0D01*
G01*
X74158250Y-120683000D01*
G75*
G02*
X74377000Y-120901750I0J-218750D01*
G01*
G37*
G36*
G01*
X72802000Y-120901750D02*
X72802000Y-121414250D01*
G75*
G02*
X72583250Y-121633000I-218750J0D01*
G01*
X72145750Y-121633000D01*
G75*
G02*
X71927000Y-121414250I0J218750D01*
G01*
X71927000Y-120901750D01*
G75*
G02*
X72145750Y-120683000I218750J0D01*
G01*
X72583250Y-120683000D01*
G75*
G02*
X72802000Y-120901750I0J-218750D01*
G01*
G37*
%TD*%
%TO.C,R50*%
G36*
G01*
X109683000Y-96517750D02*
X109683000Y-97030250D01*
G75*
G02*
X109464250Y-97249000I-218750J0D01*
G01*
X109026750Y-97249000D01*
G75*
G02*
X108808000Y-97030250I0J218750D01*
G01*
X108808000Y-96517750D01*
G75*
G02*
X109026750Y-96299000I218750J0D01*
G01*
X109464250Y-96299000D01*
G75*
G02*
X109683000Y-96517750I0J-218750D01*
G01*
G37*
G36*
G01*
X108108000Y-96517750D02*
X108108000Y-97030250D01*
G75*
G02*
X107889250Y-97249000I-218750J0D01*
G01*
X107451750Y-97249000D01*
G75*
G02*
X107233000Y-97030250I0J218750D01*
G01*
X107233000Y-96517750D01*
G75*
G02*
X107451750Y-96299000I218750J0D01*
G01*
X107889250Y-96299000D01*
G75*
G02*
X108108000Y-96517750I0J-218750D01*
G01*
G37*
%TD*%
%TO.C,R51*%
G36*
G01*
X87167000Y-118112250D02*
X87167000Y-117599750D01*
G75*
G02*
X87385750Y-117381000I218750J0D01*
G01*
X87823250Y-117381000D01*
G75*
G02*
X88042000Y-117599750I0J-218750D01*
G01*
X88042000Y-118112250D01*
G75*
G02*
X87823250Y-118331000I-218750J0D01*
G01*
X87385750Y-118331000D01*
G75*
G02*
X87167000Y-118112250I0J218750D01*
G01*
G37*
G36*
G01*
X88742000Y-118112250D02*
X88742000Y-117599750D01*
G75*
G02*
X88960750Y-117381000I218750J0D01*
G01*
X89398250Y-117381000D01*
G75*
G02*
X89617000Y-117599750I0J-218750D01*
G01*
X89617000Y-118112250D01*
G75*
G02*
X89398250Y-118331000I-218750J0D01*
G01*
X88960750Y-118331000D01*
G75*
G02*
X88742000Y-118112250I0J218750D01*
G01*
G37*
%TD*%
%TO.C,R52*%
G36*
G01*
X99472000Y-137411750D02*
X99472000Y-137924250D01*
G75*
G02*
X99253250Y-138143000I-218750J0D01*
G01*
X98815750Y-138143000D01*
G75*
G02*
X98597000Y-137924250I0J218750D01*
G01*
X98597000Y-137411750D01*
G75*
G02*
X98815750Y-137193000I218750J0D01*
G01*
X99253250Y-137193000D01*
G75*
G02*
X99472000Y-137411750I0J-218750D01*
G01*
G37*
G36*
G01*
X101047000Y-137411750D02*
X101047000Y-137924250D01*
G75*
G02*
X100828250Y-138143000I-218750J0D01*
G01*
X100390750Y-138143000D01*
G75*
G02*
X100172000Y-137924250I0J218750D01*
G01*
X100172000Y-137411750D01*
G75*
G02*
X100390750Y-137193000I218750J0D01*
G01*
X100828250Y-137193000D01*
G75*
G02*
X101047000Y-137411750I0J-218750D01*
G01*
G37*
%TD*%
%TO.C,R53*%
G36*
G01*
X118663000Y-76964250D02*
X118663000Y-76451750D01*
G75*
G02*
X118881750Y-76233000I218750J0D01*
G01*
X119319250Y-76233000D01*
G75*
G02*
X119538000Y-76451750I0J-218750D01*
G01*
X119538000Y-76964250D01*
G75*
G02*
X119319250Y-77183000I-218750J0D01*
G01*
X118881750Y-77183000D01*
G75*
G02*
X118663000Y-76964250I0J218750D01*
G01*
G37*
G36*
G01*
X120238000Y-76964250D02*
X120238000Y-76451750D01*
G75*
G02*
X120456750Y-76233000I218750J0D01*
G01*
X120894250Y-76233000D01*
G75*
G02*
X121113000Y-76451750I0J-218750D01*
G01*
X121113000Y-76964250D01*
G75*
G02*
X120894250Y-77183000I-218750J0D01*
G01*
X120456750Y-77183000D01*
G75*
G02*
X120238000Y-76964250I0J218750D01*
G01*
G37*
%TD*%
%TO.C,R54*%
G36*
G01*
X106838000Y-75689750D02*
X106838000Y-76202250D01*
G75*
G02*
X106619250Y-76421000I-218750J0D01*
G01*
X106181750Y-76421000D01*
G75*
G02*
X105963000Y-76202250I0J218750D01*
G01*
X105963000Y-75689750D01*
G75*
G02*
X106181750Y-75471000I218750J0D01*
G01*
X106619250Y-75471000D01*
G75*
G02*
X106838000Y-75689750I0J-218750D01*
G01*
G37*
G36*
G01*
X108413000Y-75689750D02*
X108413000Y-76202250D01*
G75*
G02*
X108194250Y-76421000I-218750J0D01*
G01*
X107756750Y-76421000D01*
G75*
G02*
X107538000Y-76202250I0J218750D01*
G01*
X107538000Y-75689750D01*
G75*
G02*
X107756750Y-75471000I218750J0D01*
G01*
X108194250Y-75471000D01*
G75*
G02*
X108413000Y-75689750I0J-218750D01*
G01*
G37*
%TD*%
%TO.C,R55*%
G36*
G01*
X127350000Y-96268250D02*
X127350000Y-95755750D01*
G75*
G02*
X127568750Y-95537000I218750J0D01*
G01*
X128006250Y-95537000D01*
G75*
G02*
X128225000Y-95755750I0J-218750D01*
G01*
X128225000Y-96268250D01*
G75*
G02*
X128006250Y-96487000I-218750J0D01*
G01*
X127568750Y-96487000D01*
G75*
G02*
X127350000Y-96268250I0J218750D01*
G01*
G37*
G36*
G01*
X125775000Y-96268250D02*
X125775000Y-95755750D01*
G75*
G02*
X125993750Y-95537000I218750J0D01*
G01*
X126431250Y-95537000D01*
G75*
G02*
X126650000Y-95755750I0J-218750D01*
G01*
X126650000Y-96268250D01*
G75*
G02*
X126431250Y-96487000I-218750J0D01*
G01*
X125993750Y-96487000D01*
G75*
G02*
X125775000Y-96268250I0J218750D01*
G01*
G37*
%TD*%
%TO.C,R56*%
G36*
G01*
X106812500Y-78483750D02*
X106812500Y-78996250D01*
G75*
G02*
X106593750Y-79215000I-218750J0D01*
G01*
X106156250Y-79215000D01*
G75*
G02*
X105937500Y-78996250I0J218750D01*
G01*
X105937500Y-78483750D01*
G75*
G02*
X106156250Y-78265000I218750J0D01*
G01*
X106593750Y-78265000D01*
G75*
G02*
X106812500Y-78483750I0J-218750D01*
G01*
G37*
G36*
G01*
X108387500Y-78483750D02*
X108387500Y-78996250D01*
G75*
G02*
X108168750Y-79215000I-218750J0D01*
G01*
X107731250Y-79215000D01*
G75*
G02*
X107512500Y-78996250I0J218750D01*
G01*
X107512500Y-78483750D01*
G75*
G02*
X107731250Y-78265000I218750J0D01*
G01*
X108168750Y-78265000D01*
G75*
G02*
X108387500Y-78483750I0J-218750D01*
G01*
G37*
%TD*%
%TO.C,R57*%
G36*
G01*
X112985000Y-96517750D02*
X112985000Y-97030250D01*
G75*
G02*
X112766250Y-97249000I-218750J0D01*
G01*
X112328750Y-97249000D01*
G75*
G02*
X112110000Y-97030250I0J218750D01*
G01*
X112110000Y-96517750D01*
G75*
G02*
X112328750Y-96299000I218750J0D01*
G01*
X112766250Y-96299000D01*
G75*
G02*
X112985000Y-96517750I0J-218750D01*
G01*
G37*
G36*
G01*
X111410000Y-96517750D02*
X111410000Y-97030250D01*
G75*
G02*
X111191250Y-97249000I-218750J0D01*
G01*
X110753750Y-97249000D01*
G75*
G02*
X110535000Y-97030250I0J218750D01*
G01*
X110535000Y-96517750D01*
G75*
G02*
X110753750Y-96299000I218750J0D01*
G01*
X111191250Y-96299000D01*
G75*
G02*
X111410000Y-96517750I0J-218750D01*
G01*
G37*
%TD*%
%TO.C,R58*%
G36*
G01*
X101047000Y-140205750D02*
X101047000Y-140718250D01*
G75*
G02*
X100828250Y-140937000I-218750J0D01*
G01*
X100390750Y-140937000D01*
G75*
G02*
X100172000Y-140718250I0J218750D01*
G01*
X100172000Y-140205750D01*
G75*
G02*
X100390750Y-139987000I218750J0D01*
G01*
X100828250Y-139987000D01*
G75*
G02*
X101047000Y-140205750I0J-218750D01*
G01*
G37*
G36*
G01*
X99472000Y-140205750D02*
X99472000Y-140718250D01*
G75*
G02*
X99253250Y-140937000I-218750J0D01*
G01*
X98815750Y-140937000D01*
G75*
G02*
X98597000Y-140718250I0J218750D01*
G01*
X98597000Y-140205750D01*
G75*
G02*
X98815750Y-139987000I218750J0D01*
G01*
X99253250Y-139987000D01*
G75*
G02*
X99472000Y-140205750I0J-218750D01*
G01*
G37*
%TD*%
%TO.C,R59*%
G36*
G01*
X83865000Y-115318250D02*
X83865000Y-114805750D01*
G75*
G02*
X84083750Y-114587000I218750J0D01*
G01*
X84521250Y-114587000D01*
G75*
G02*
X84740000Y-114805750I0J-218750D01*
G01*
X84740000Y-115318250D01*
G75*
G02*
X84521250Y-115537000I-218750J0D01*
G01*
X84083750Y-115537000D01*
G75*
G02*
X83865000Y-115318250I0J218750D01*
G01*
G37*
G36*
G01*
X85440000Y-115318250D02*
X85440000Y-114805750D01*
G75*
G02*
X85658750Y-114587000I218750J0D01*
G01*
X86096250Y-114587000D01*
G75*
G02*
X86315000Y-114805750I0J-218750D01*
G01*
X86315000Y-115318250D01*
G75*
G02*
X86096250Y-115537000I-218750J0D01*
G01*
X85658750Y-115537000D01*
G75*
G02*
X85440000Y-115318250I0J218750D01*
G01*
G37*
%TD*%
%TO.C,R60*%
G36*
G01*
X101047000Y-131823750D02*
X101047000Y-132336250D01*
G75*
G02*
X100828250Y-132555000I-218750J0D01*
G01*
X100390750Y-132555000D01*
G75*
G02*
X100172000Y-132336250I0J218750D01*
G01*
X100172000Y-131823750D01*
G75*
G02*
X100390750Y-131605000I218750J0D01*
G01*
X100828250Y-131605000D01*
G75*
G02*
X101047000Y-131823750I0J-218750D01*
G01*
G37*
G36*
G01*
X99472000Y-131823750D02*
X99472000Y-132336250D01*
G75*
G02*
X99253250Y-132555000I-218750J0D01*
G01*
X98815750Y-132555000D01*
G75*
G02*
X98597000Y-132336250I0J218750D01*
G01*
X98597000Y-131823750D01*
G75*
G02*
X98815750Y-131605000I218750J0D01*
G01*
X99253250Y-131605000D01*
G75*
G02*
X99472000Y-131823750I0J-218750D01*
G01*
G37*
%TD*%
%TO.C,R61*%
G36*
G01*
X120238000Y-82552250D02*
X120238000Y-82039750D01*
G75*
G02*
X120456750Y-81821000I218750J0D01*
G01*
X120894250Y-81821000D01*
G75*
G02*
X121113000Y-82039750I0J-218750D01*
G01*
X121113000Y-82552250D01*
G75*
G02*
X120894250Y-82771000I-218750J0D01*
G01*
X120456750Y-82771000D01*
G75*
G02*
X120238000Y-82552250I0J218750D01*
G01*
G37*
G36*
G01*
X118663000Y-82552250D02*
X118663000Y-82039750D01*
G75*
G02*
X118881750Y-81821000I218750J0D01*
G01*
X119319250Y-81821000D01*
G75*
G02*
X119538000Y-82039750I0J-218750D01*
G01*
X119538000Y-82552250D01*
G75*
G02*
X119319250Y-82771000I-218750J0D01*
G01*
X118881750Y-82771000D01*
G75*
G02*
X118663000Y-82552250I0J218750D01*
G01*
G37*
%TD*%
%TO.C,R62*%
G36*
G01*
X86315000Y-120393750D02*
X86315000Y-120906250D01*
G75*
G02*
X86096250Y-121125000I-218750J0D01*
G01*
X85658750Y-121125000D01*
G75*
G02*
X85440000Y-120906250I0J218750D01*
G01*
X85440000Y-120393750D01*
G75*
G02*
X85658750Y-120175000I218750J0D01*
G01*
X86096250Y-120175000D01*
G75*
G02*
X86315000Y-120393750I0J-218750D01*
G01*
G37*
G36*
G01*
X84740000Y-120393750D02*
X84740000Y-120906250D01*
G75*
G02*
X84521250Y-121125000I-218750J0D01*
G01*
X84083750Y-121125000D01*
G75*
G02*
X83865000Y-120906250I0J218750D01*
G01*
X83865000Y-120393750D01*
G75*
G02*
X84083750Y-120175000I218750J0D01*
G01*
X84521250Y-120175000D01*
G75*
G02*
X84740000Y-120393750I0J-218750D01*
G01*
G37*
%TD*%
%TO.C,R63*%
G36*
G01*
X108808000Y-94236250D02*
X108808000Y-93723750D01*
G75*
G02*
X109026750Y-93505000I218750J0D01*
G01*
X109464250Y-93505000D01*
G75*
G02*
X109683000Y-93723750I0J-218750D01*
G01*
X109683000Y-94236250D01*
G75*
G02*
X109464250Y-94455000I-218750J0D01*
G01*
X109026750Y-94455000D01*
G75*
G02*
X108808000Y-94236250I0J218750D01*
G01*
G37*
G36*
G01*
X107233000Y-94236250D02*
X107233000Y-93723750D01*
G75*
G02*
X107451750Y-93505000I218750J0D01*
G01*
X107889250Y-93505000D01*
G75*
G02*
X108108000Y-93723750I0J-218750D01*
G01*
X108108000Y-94236250D01*
G75*
G02*
X107889250Y-94455000I-218750J0D01*
G01*
X107451750Y-94455000D01*
G75*
G02*
X107233000Y-94236250I0J218750D01*
G01*
G37*
%TD*%
%TO.C,R64*%
G36*
G01*
X124022500Y-93474250D02*
X124022500Y-92961750D01*
G75*
G02*
X124241250Y-92743000I218750J0D01*
G01*
X124678750Y-92743000D01*
G75*
G02*
X124897500Y-92961750I0J-218750D01*
G01*
X124897500Y-93474250D01*
G75*
G02*
X124678750Y-93693000I-218750J0D01*
G01*
X124241250Y-93693000D01*
G75*
G02*
X124022500Y-93474250I0J218750D01*
G01*
G37*
G36*
G01*
X122447500Y-93474250D02*
X122447500Y-92961750D01*
G75*
G02*
X122666250Y-92743000I218750J0D01*
G01*
X123103750Y-92743000D01*
G75*
G02*
X123322500Y-92961750I0J-218750D01*
G01*
X123322500Y-93474250D01*
G75*
G02*
X123103750Y-93693000I-218750J0D01*
G01*
X122666250Y-93693000D01*
G75*
G02*
X122447500Y-93474250I0J218750D01*
G01*
G37*
%TD*%
%TO.C,R65*%
G36*
G01*
X121113000Y-73657750D02*
X121113000Y-74170250D01*
G75*
G02*
X120894250Y-74389000I-218750J0D01*
G01*
X120456750Y-74389000D01*
G75*
G02*
X120238000Y-74170250I0J218750D01*
G01*
X120238000Y-73657750D01*
G75*
G02*
X120456750Y-73439000I218750J0D01*
G01*
X120894250Y-73439000D01*
G75*
G02*
X121113000Y-73657750I0J-218750D01*
G01*
G37*
G36*
G01*
X119538000Y-73657750D02*
X119538000Y-74170250D01*
G75*
G02*
X119319250Y-74389000I-218750J0D01*
G01*
X118881750Y-74389000D01*
G75*
G02*
X118663000Y-74170250I0J218750D01*
G01*
X118663000Y-73657750D01*
G75*
G02*
X118881750Y-73439000I218750J0D01*
G01*
X119319250Y-73439000D01*
G75*
G02*
X119538000Y-73657750I0J-218750D01*
G01*
G37*
%TD*%
%TO.C,R66*%
G36*
G01*
X105111000Y-140205750D02*
X105111000Y-140718250D01*
G75*
G02*
X104892250Y-140937000I-218750J0D01*
G01*
X104454750Y-140937000D01*
G75*
G02*
X104236000Y-140718250I0J218750D01*
G01*
X104236000Y-140205750D01*
G75*
G02*
X104454750Y-139987000I218750J0D01*
G01*
X104892250Y-139987000D01*
G75*
G02*
X105111000Y-140205750I0J-218750D01*
G01*
G37*
G36*
G01*
X103536000Y-140205750D02*
X103536000Y-140718250D01*
G75*
G02*
X103317250Y-140937000I-218750J0D01*
G01*
X102879750Y-140937000D01*
G75*
G02*
X102661000Y-140718250I0J218750D01*
G01*
X102661000Y-140205750D01*
G75*
G02*
X102879750Y-139987000I218750J0D01*
G01*
X103317250Y-139987000D01*
G75*
G02*
X103536000Y-140205750I0J-218750D01*
G01*
G37*
%TD*%
%TO.C,R67*%
G36*
G01*
X105963000Y-73408250D02*
X105963000Y-72895750D01*
G75*
G02*
X106181750Y-72677000I218750J0D01*
G01*
X106619250Y-72677000D01*
G75*
G02*
X106838000Y-72895750I0J-218750D01*
G01*
X106838000Y-73408250D01*
G75*
G02*
X106619250Y-73627000I-218750J0D01*
G01*
X106181750Y-73627000D01*
G75*
G02*
X105963000Y-73408250I0J218750D01*
G01*
G37*
G36*
G01*
X107538000Y-73408250D02*
X107538000Y-72895750D01*
G75*
G02*
X107756750Y-72677000I218750J0D01*
G01*
X108194250Y-72677000D01*
G75*
G02*
X108413000Y-72895750I0J-218750D01*
G01*
X108413000Y-73408250D01*
G75*
G02*
X108194250Y-73627000I-218750J0D01*
G01*
X107756750Y-73627000D01*
G75*
G02*
X107538000Y-73408250I0J218750D01*
G01*
G37*
%TD*%
%TO.C,R68*%
G36*
G01*
X88742000Y-112524250D02*
X88742000Y-112011750D01*
G75*
G02*
X88960750Y-111793000I218750J0D01*
G01*
X89398250Y-111793000D01*
G75*
G02*
X89617000Y-112011750I0J-218750D01*
G01*
X89617000Y-112524250D01*
G75*
G02*
X89398250Y-112743000I-218750J0D01*
G01*
X88960750Y-112743000D01*
G75*
G02*
X88742000Y-112524250I0J218750D01*
G01*
G37*
G36*
G01*
X87167000Y-112524250D02*
X87167000Y-112011750D01*
G75*
G02*
X87385750Y-111793000I218750J0D01*
G01*
X87823250Y-111793000D01*
G75*
G02*
X88042000Y-112011750I0J-218750D01*
G01*
X88042000Y-112524250D01*
G75*
G02*
X87823250Y-112743000I-218750J0D01*
G01*
X87385750Y-112743000D01*
G75*
G02*
X87167000Y-112524250I0J218750D01*
G01*
G37*
%TD*%
%TO.C,R69*%
G36*
G01*
X88042000Y-120393750D02*
X88042000Y-120906250D01*
G75*
G02*
X87823250Y-121125000I-218750J0D01*
G01*
X87385750Y-121125000D01*
G75*
G02*
X87167000Y-120906250I0J218750D01*
G01*
X87167000Y-120393750D01*
G75*
G02*
X87385750Y-120175000I218750J0D01*
G01*
X87823250Y-120175000D01*
G75*
G02*
X88042000Y-120393750I0J-218750D01*
G01*
G37*
G36*
G01*
X89617000Y-120393750D02*
X89617000Y-120906250D01*
G75*
G02*
X89398250Y-121125000I-218750J0D01*
G01*
X88960750Y-121125000D01*
G75*
G02*
X88742000Y-120906250I0J218750D01*
G01*
X88742000Y-120393750D01*
G75*
G02*
X88960750Y-120175000I218750J0D01*
G01*
X89398250Y-120175000D01*
G75*
G02*
X89617000Y-120393750I0J-218750D01*
G01*
G37*
%TD*%
%TO.C,R70*%
G36*
G01*
X143973000Y-77975750D02*
X143973000Y-78488250D01*
G75*
G02*
X143754250Y-78707000I-218750J0D01*
G01*
X143316750Y-78707000D01*
G75*
G02*
X143098000Y-78488250I0J218750D01*
G01*
X143098000Y-77975750D01*
G75*
G02*
X143316750Y-77757000I218750J0D01*
G01*
X143754250Y-77757000D01*
G75*
G02*
X143973000Y-77975750I0J-218750D01*
G01*
G37*
G36*
G01*
X142398000Y-77975750D02*
X142398000Y-78488250D01*
G75*
G02*
X142179250Y-78707000I-218750J0D01*
G01*
X141741750Y-78707000D01*
G75*
G02*
X141523000Y-78488250I0J218750D01*
G01*
X141523000Y-77975750D01*
G75*
G02*
X141741750Y-77757000I218750J0D01*
G01*
X142179250Y-77757000D01*
G75*
G02*
X142398000Y-77975750I0J-218750D01*
G01*
G37*
%TD*%
%TO.C,R71*%
G36*
G01*
X162910000Y-78234250D02*
X162910000Y-77721750D01*
G75*
G02*
X163128750Y-77503000I218750J0D01*
G01*
X163566250Y-77503000D01*
G75*
G02*
X163785000Y-77721750I0J-218750D01*
G01*
X163785000Y-78234250D01*
G75*
G02*
X163566250Y-78453000I-218750J0D01*
G01*
X163128750Y-78453000D01*
G75*
G02*
X162910000Y-78234250I0J218750D01*
G01*
G37*
G36*
G01*
X161335000Y-78234250D02*
X161335000Y-77721750D01*
G75*
G02*
X161553750Y-77503000I218750J0D01*
G01*
X161991250Y-77503000D01*
G75*
G02*
X162210000Y-77721750I0J-218750D01*
G01*
X162210000Y-78234250D01*
G75*
G02*
X161991250Y-78453000I-218750J0D01*
G01*
X161553750Y-78453000D01*
G75*
G02*
X161335000Y-78234250I0J218750D01*
G01*
G37*
%TD*%
%TO.C,R72*%
G36*
G01*
X110394000Y-117599750D02*
X110394000Y-118112250D01*
G75*
G02*
X110175250Y-118331000I-218750J0D01*
G01*
X109737750Y-118331000D01*
G75*
G02*
X109519000Y-118112250I0J218750D01*
G01*
X109519000Y-117599750D01*
G75*
G02*
X109737750Y-117381000I218750J0D01*
G01*
X110175250Y-117381000D01*
G75*
G02*
X110394000Y-117599750I0J-218750D01*
G01*
G37*
G36*
G01*
X111969000Y-117599750D02*
X111969000Y-118112250D01*
G75*
G02*
X111750250Y-118331000I-218750J0D01*
G01*
X111312750Y-118331000D01*
G75*
G02*
X111094000Y-118112250I0J218750D01*
G01*
X111094000Y-117599750D01*
G75*
G02*
X111312750Y-117381000I218750J0D01*
G01*
X111750250Y-117381000D01*
G75*
G02*
X111969000Y-117599750I0J-218750D01*
G01*
G37*
%TD*%
%TO.C,R73*%
G36*
G01*
X113924500Y-117599750D02*
X113924500Y-118112250D01*
G75*
G02*
X113705750Y-118331000I-218750J0D01*
G01*
X113268250Y-118331000D01*
G75*
G02*
X113049500Y-118112250I0J218750D01*
G01*
X113049500Y-117599750D01*
G75*
G02*
X113268250Y-117381000I218750J0D01*
G01*
X113705750Y-117381000D01*
G75*
G02*
X113924500Y-117599750I0J-218750D01*
G01*
G37*
G36*
G01*
X115499500Y-117599750D02*
X115499500Y-118112250D01*
G75*
G02*
X115280750Y-118331000I-218750J0D01*
G01*
X114843250Y-118331000D01*
G75*
G02*
X114624500Y-118112250I0J218750D01*
G01*
X114624500Y-117599750D01*
G75*
G02*
X114843250Y-117381000I218750J0D01*
G01*
X115280750Y-117381000D01*
G75*
G02*
X115499500Y-117599750I0J-218750D01*
G01*
G37*
%TD*%
%TO.C,R74*%
G36*
G01*
X146654000Y-81536250D02*
X146654000Y-81023750D01*
G75*
G02*
X146872750Y-80805000I218750J0D01*
G01*
X147310250Y-80805000D01*
G75*
G02*
X147529000Y-81023750I0J-218750D01*
G01*
X147529000Y-81536250D01*
G75*
G02*
X147310250Y-81755000I-218750J0D01*
G01*
X146872750Y-81755000D01*
G75*
G02*
X146654000Y-81536250I0J218750D01*
G01*
G37*
G36*
G01*
X145079000Y-81536250D02*
X145079000Y-81023750D01*
G75*
G02*
X145297750Y-80805000I218750J0D01*
G01*
X145735250Y-80805000D01*
G75*
G02*
X145954000Y-81023750I0J-218750D01*
G01*
X145954000Y-81536250D01*
G75*
G02*
X145735250Y-81755000I-218750J0D01*
G01*
X145297750Y-81755000D01*
G75*
G02*
X145079000Y-81536250I0J218750D01*
G01*
G37*
%TD*%
%TO.C,R75*%
G36*
G01*
X158654000Y-80769750D02*
X158654000Y-81282250D01*
G75*
G02*
X158435250Y-81501000I-218750J0D01*
G01*
X157997750Y-81501000D01*
G75*
G02*
X157779000Y-81282250I0J218750D01*
G01*
X157779000Y-80769750D01*
G75*
G02*
X157997750Y-80551000I218750J0D01*
G01*
X158435250Y-80551000D01*
G75*
G02*
X158654000Y-80769750I0J-218750D01*
G01*
G37*
G36*
G01*
X160229000Y-80769750D02*
X160229000Y-81282250D01*
G75*
G02*
X160010250Y-81501000I-218750J0D01*
G01*
X159572750Y-81501000D01*
G75*
G02*
X159354000Y-81282250I0J218750D01*
G01*
X159354000Y-80769750D01*
G75*
G02*
X159572750Y-80551000I218750J0D01*
G01*
X160010250Y-80551000D01*
G75*
G02*
X160229000Y-80769750I0J-218750D01*
G01*
G37*
%TD*%
%TO.C,R76*%
G36*
G01*
X127096000Y-121922250D02*
X127096000Y-121409750D01*
G75*
G02*
X127314750Y-121191000I218750J0D01*
G01*
X127752250Y-121191000D01*
G75*
G02*
X127971000Y-121409750I0J-218750D01*
G01*
X127971000Y-121922250D01*
G75*
G02*
X127752250Y-122141000I-218750J0D01*
G01*
X127314750Y-122141000D01*
G75*
G02*
X127096000Y-121922250I0J218750D01*
G01*
G37*
G36*
G01*
X125521000Y-121922250D02*
X125521000Y-121409750D01*
G75*
G02*
X125739750Y-121191000I218750J0D01*
G01*
X126177250Y-121191000D01*
G75*
G02*
X126396000Y-121409750I0J-218750D01*
G01*
X126396000Y-121922250D01*
G75*
G02*
X126177250Y-122141000I-218750J0D01*
G01*
X125739750Y-122141000D01*
G75*
G02*
X125521000Y-121922250I0J218750D01*
G01*
G37*
%TD*%
%TO.C,R77*%
G36*
G01*
X147111000Y-100840250D02*
X147111000Y-100327750D01*
G75*
G02*
X147329750Y-100109000I218750J0D01*
G01*
X147767250Y-100109000D01*
G75*
G02*
X147986000Y-100327750I0J-218750D01*
G01*
X147986000Y-100840250D01*
G75*
G02*
X147767250Y-101059000I-218750J0D01*
G01*
X147329750Y-101059000D01*
G75*
G02*
X147111000Y-100840250I0J218750D01*
G01*
G37*
G36*
G01*
X148686000Y-100840250D02*
X148686000Y-100327750D01*
G75*
G02*
X148904750Y-100109000I218750J0D01*
G01*
X149342250Y-100109000D01*
G75*
G02*
X149561000Y-100327750I0J-218750D01*
G01*
X149561000Y-100840250D01*
G75*
G02*
X149342250Y-101059000I-218750J0D01*
G01*
X148904750Y-101059000D01*
G75*
G02*
X148686000Y-100840250I0J218750D01*
G01*
G37*
%TD*%
%TO.C,R78*%
G36*
G01*
X160624000Y-99570250D02*
X160624000Y-99057750D01*
G75*
G02*
X160842750Y-98839000I218750J0D01*
G01*
X161280250Y-98839000D01*
G75*
G02*
X161499000Y-99057750I0J-218750D01*
G01*
X161499000Y-99570250D01*
G75*
G02*
X161280250Y-99789000I-218750J0D01*
G01*
X160842750Y-99789000D01*
G75*
G02*
X160624000Y-99570250I0J218750D01*
G01*
G37*
G36*
G01*
X159049000Y-99570250D02*
X159049000Y-99057750D01*
G75*
G02*
X159267750Y-98839000I218750J0D01*
G01*
X159705250Y-98839000D01*
G75*
G02*
X159924000Y-99057750I0J-218750D01*
G01*
X159924000Y-99570250D01*
G75*
G02*
X159705250Y-99789000I-218750J0D01*
G01*
X159267750Y-99789000D01*
G75*
G02*
X159049000Y-99570250I0J218750D01*
G01*
G37*
%TD*%
%TO.C,R79*%
G36*
G01*
X145079000Y-72900250D02*
X145079000Y-72387750D01*
G75*
G02*
X145297750Y-72169000I218750J0D01*
G01*
X145735250Y-72169000D01*
G75*
G02*
X145954000Y-72387750I0J-218750D01*
G01*
X145954000Y-72900250D01*
G75*
G02*
X145735250Y-73119000I-218750J0D01*
G01*
X145297750Y-73119000D01*
G75*
G02*
X145079000Y-72900250I0J218750D01*
G01*
G37*
G36*
G01*
X146654000Y-72900250D02*
X146654000Y-72387750D01*
G75*
G02*
X146872750Y-72169000I218750J0D01*
G01*
X147310250Y-72169000D01*
G75*
G02*
X147529000Y-72387750I0J-218750D01*
G01*
X147529000Y-72900250D01*
G75*
G02*
X147310250Y-73119000I-218750J0D01*
G01*
X146872750Y-73119000D01*
G75*
G02*
X146654000Y-72900250I0J218750D01*
G01*
G37*
%TD*%
%TO.C,R80*%
G36*
G01*
X162910000Y-72392250D02*
X162910000Y-71879750D01*
G75*
G02*
X163128750Y-71661000I218750J0D01*
G01*
X163566250Y-71661000D01*
G75*
G02*
X163785000Y-71879750I0J-218750D01*
G01*
X163785000Y-72392250D01*
G75*
G02*
X163566250Y-72611000I-218750J0D01*
G01*
X163128750Y-72611000D01*
G75*
G02*
X162910000Y-72392250I0J218750D01*
G01*
G37*
G36*
G01*
X161335000Y-72392250D02*
X161335000Y-71879750D01*
G75*
G02*
X161553750Y-71661000I218750J0D01*
G01*
X161991250Y-71661000D01*
G75*
G02*
X162210000Y-71879750I0J-218750D01*
G01*
X162210000Y-72392250D01*
G75*
G02*
X161991250Y-72611000I-218750J0D01*
G01*
X161553750Y-72611000D01*
G75*
G02*
X161335000Y-72392250I0J218750D01*
G01*
G37*
%TD*%
%TO.C,R81*%
G36*
G01*
X113950000Y-114805750D02*
X113950000Y-115318250D01*
G75*
G02*
X113731250Y-115537000I-218750J0D01*
G01*
X113293750Y-115537000D01*
G75*
G02*
X113075000Y-115318250I0J218750D01*
G01*
X113075000Y-114805750D01*
G75*
G02*
X113293750Y-114587000I218750J0D01*
G01*
X113731250Y-114587000D01*
G75*
G02*
X113950000Y-114805750I0J-218750D01*
G01*
G37*
G36*
G01*
X115525000Y-114805750D02*
X115525000Y-115318250D01*
G75*
G02*
X115306250Y-115537000I-218750J0D01*
G01*
X114868750Y-115537000D01*
G75*
G02*
X114650000Y-115318250I0J218750D01*
G01*
X114650000Y-114805750D01*
G75*
G02*
X114868750Y-114587000I218750J0D01*
G01*
X115306250Y-114587000D01*
G75*
G02*
X115525000Y-114805750I0J-218750D01*
G01*
G37*
%TD*%
%TO.C,R82*%
G36*
G01*
X125521000Y-116080250D02*
X125521000Y-115567750D01*
G75*
G02*
X125739750Y-115349000I218750J0D01*
G01*
X126177250Y-115349000D01*
G75*
G02*
X126396000Y-115567750I0J-218750D01*
G01*
X126396000Y-116080250D01*
G75*
G02*
X126177250Y-116299000I-218750J0D01*
G01*
X125739750Y-116299000D01*
G75*
G02*
X125521000Y-116080250I0J218750D01*
G01*
G37*
G36*
G01*
X127096000Y-116080250D02*
X127096000Y-115567750D01*
G75*
G02*
X127314750Y-115349000I218750J0D01*
G01*
X127752250Y-115349000D01*
G75*
G02*
X127971000Y-115567750I0J-218750D01*
G01*
X127971000Y-116080250D01*
G75*
G02*
X127752250Y-116299000I-218750J0D01*
G01*
X127314750Y-116299000D01*
G75*
G02*
X127096000Y-116080250I0J218750D01*
G01*
G37*
%TD*%
%TO.C,R83*%
G36*
G01*
X159924000Y-92961750D02*
X159924000Y-93474250D01*
G75*
G02*
X159705250Y-93693000I-218750J0D01*
G01*
X159267750Y-93693000D01*
G75*
G02*
X159049000Y-93474250I0J218750D01*
G01*
X159049000Y-92961750D01*
G75*
G02*
X159267750Y-92743000I218750J0D01*
G01*
X159705250Y-92743000D01*
G75*
G02*
X159924000Y-92961750I0J-218750D01*
G01*
G37*
G36*
G01*
X161499000Y-92961750D02*
X161499000Y-93474250D01*
G75*
G02*
X161280250Y-93693000I-218750J0D01*
G01*
X160842750Y-93693000D01*
G75*
G02*
X160624000Y-93474250I0J218750D01*
G01*
X160624000Y-92961750D01*
G75*
G02*
X160842750Y-92743000I218750J0D01*
G01*
X161280250Y-92743000D01*
G75*
G02*
X161499000Y-92961750I0J-218750D01*
G01*
G37*
%TD*%
%TO.C,R84*%
G36*
G01*
X145079000Y-75694250D02*
X145079000Y-75181750D01*
G75*
G02*
X145297750Y-74963000I218750J0D01*
G01*
X145735250Y-74963000D01*
G75*
G02*
X145954000Y-75181750I0J-218750D01*
G01*
X145954000Y-75694250D01*
G75*
G02*
X145735250Y-75913000I-218750J0D01*
G01*
X145297750Y-75913000D01*
G75*
G02*
X145079000Y-75694250I0J218750D01*
G01*
G37*
G36*
G01*
X146654000Y-75694250D02*
X146654000Y-75181750D01*
G75*
G02*
X146872750Y-74963000I218750J0D01*
G01*
X147310250Y-74963000D01*
G75*
G02*
X147529000Y-75181750I0J-218750D01*
G01*
X147529000Y-75694250D01*
G75*
G02*
X147310250Y-75913000I-218750J0D01*
G01*
X146872750Y-75913000D01*
G75*
G02*
X146654000Y-75694250I0J218750D01*
G01*
G37*
%TD*%
%TO.C,R85*%
G36*
G01*
X158654000Y-74927750D02*
X158654000Y-75440250D01*
G75*
G02*
X158435250Y-75659000I-218750J0D01*
G01*
X157997750Y-75659000D01*
G75*
G02*
X157779000Y-75440250I0J218750D01*
G01*
X157779000Y-74927750D01*
G75*
G02*
X157997750Y-74709000I218750J0D01*
G01*
X158435250Y-74709000D01*
G75*
G02*
X158654000Y-74927750I0J-218750D01*
G01*
G37*
G36*
G01*
X160229000Y-74927750D02*
X160229000Y-75440250D01*
G75*
G02*
X160010250Y-75659000I-218750J0D01*
G01*
X159572750Y-75659000D01*
G75*
G02*
X159354000Y-75440250I0J218750D01*
G01*
X159354000Y-74927750D01*
G75*
G02*
X159572750Y-74709000I218750J0D01*
G01*
X160010250Y-74709000D01*
G75*
G02*
X160229000Y-74927750I0J-218750D01*
G01*
G37*
%TD*%
%TO.C,R86*%
G36*
G01*
X129077000Y-113286250D02*
X129077000Y-112773750D01*
G75*
G02*
X129295750Y-112555000I218750J0D01*
G01*
X129733250Y-112555000D01*
G75*
G02*
X129952000Y-112773750I0J-218750D01*
G01*
X129952000Y-113286250D01*
G75*
G02*
X129733250Y-113505000I-218750J0D01*
G01*
X129295750Y-113505000D01*
G75*
G02*
X129077000Y-113286250I0J218750D01*
G01*
G37*
G36*
G01*
X130652000Y-113286250D02*
X130652000Y-112773750D01*
G75*
G02*
X130870750Y-112555000I218750J0D01*
G01*
X131308250Y-112555000D01*
G75*
G02*
X131527000Y-112773750I0J-218750D01*
G01*
X131527000Y-113286250D01*
G75*
G02*
X131308250Y-113505000I-218750J0D01*
G01*
X130870750Y-113505000D01*
G75*
G02*
X130652000Y-113286250I0J218750D01*
G01*
G37*
%TD*%
%TO.C,R87*%
G36*
G01*
X148686000Y-92458250D02*
X148686000Y-91945750D01*
G75*
G02*
X148904750Y-91727000I218750J0D01*
G01*
X149342250Y-91727000D01*
G75*
G02*
X149561000Y-91945750I0J-218750D01*
G01*
X149561000Y-92458250D01*
G75*
G02*
X149342250Y-92677000I-218750J0D01*
G01*
X148904750Y-92677000D01*
G75*
G02*
X148686000Y-92458250I0J218750D01*
G01*
G37*
G36*
G01*
X147111000Y-92458250D02*
X147111000Y-91945750D01*
G75*
G02*
X147329750Y-91727000I218750J0D01*
G01*
X147767250Y-91727000D01*
G75*
G02*
X147986000Y-91945750I0J-218750D01*
G01*
X147986000Y-92458250D01*
G75*
G02*
X147767250Y-92677000I-218750J0D01*
G01*
X147329750Y-92677000D01*
G75*
G02*
X147111000Y-92458250I0J218750D01*
G01*
G37*
%TD*%
%TO.C,R88*%
G36*
G01*
X162351000Y-93474250D02*
X162351000Y-92961750D01*
G75*
G02*
X162569750Y-92743000I218750J0D01*
G01*
X163007250Y-92743000D01*
G75*
G02*
X163226000Y-92961750I0J-218750D01*
G01*
X163226000Y-93474250D01*
G75*
G02*
X163007250Y-93693000I-218750J0D01*
G01*
X162569750Y-93693000D01*
G75*
G02*
X162351000Y-93474250I0J218750D01*
G01*
G37*
G36*
G01*
X163926000Y-93474250D02*
X163926000Y-92961750D01*
G75*
G02*
X164144750Y-92743000I218750J0D01*
G01*
X164582250Y-92743000D01*
G75*
G02*
X164801000Y-92961750I0J-218750D01*
G01*
X164801000Y-93474250D01*
G75*
G02*
X164582250Y-93693000I-218750J0D01*
G01*
X164144750Y-93693000D01*
G75*
G02*
X163926000Y-93474250I0J218750D01*
G01*
G37*
%TD*%
%TO.C,R89*%
G36*
G01*
X143098000Y-72900250D02*
X143098000Y-72387750D01*
G75*
G02*
X143316750Y-72169000I218750J0D01*
G01*
X143754250Y-72169000D01*
G75*
G02*
X143973000Y-72387750I0J-218750D01*
G01*
X143973000Y-72900250D01*
G75*
G02*
X143754250Y-73119000I-218750J0D01*
G01*
X143316750Y-73119000D01*
G75*
G02*
X143098000Y-72900250I0J218750D01*
G01*
G37*
G36*
G01*
X141523000Y-72900250D02*
X141523000Y-72387750D01*
G75*
G02*
X141741750Y-72169000I218750J0D01*
G01*
X142179250Y-72169000D01*
G75*
G02*
X142398000Y-72387750I0J-218750D01*
G01*
X142398000Y-72900250D01*
G75*
G02*
X142179250Y-73119000I-218750J0D01*
G01*
X141741750Y-73119000D01*
G75*
G02*
X141523000Y-72900250I0J218750D01*
G01*
G37*
%TD*%
%TO.C,R90*%
G36*
G01*
X157779000Y-72392250D02*
X157779000Y-71879750D01*
G75*
G02*
X157997750Y-71661000I218750J0D01*
G01*
X158435250Y-71661000D01*
G75*
G02*
X158654000Y-71879750I0J-218750D01*
G01*
X158654000Y-72392250D01*
G75*
G02*
X158435250Y-72611000I-218750J0D01*
G01*
X157997750Y-72611000D01*
G75*
G02*
X157779000Y-72392250I0J218750D01*
G01*
G37*
G36*
G01*
X159354000Y-72392250D02*
X159354000Y-71879750D01*
G75*
G02*
X159572750Y-71661000I218750J0D01*
G01*
X160010250Y-71661000D01*
G75*
G02*
X160229000Y-71879750I0J-218750D01*
G01*
X160229000Y-72392250D01*
G75*
G02*
X160010250Y-72611000I-218750J0D01*
G01*
X159572750Y-72611000D01*
G75*
G02*
X159354000Y-72392250I0J218750D01*
G01*
G37*
%TD*%
%TO.C,R91*%
G36*
G01*
X113075000Y-112524250D02*
X113075000Y-112011750D01*
G75*
G02*
X113293750Y-111793000I218750J0D01*
G01*
X113731250Y-111793000D01*
G75*
G02*
X113950000Y-112011750I0J-218750D01*
G01*
X113950000Y-112524250D01*
G75*
G02*
X113731250Y-112743000I-218750J0D01*
G01*
X113293750Y-112743000D01*
G75*
G02*
X113075000Y-112524250I0J218750D01*
G01*
G37*
G36*
G01*
X114650000Y-112524250D02*
X114650000Y-112011750D01*
G75*
G02*
X114868750Y-111793000I218750J0D01*
G01*
X115306250Y-111793000D01*
G75*
G02*
X115525000Y-112011750I0J-218750D01*
G01*
X115525000Y-112524250D01*
G75*
G02*
X115306250Y-112743000I-218750J0D01*
G01*
X114868750Y-112743000D01*
G75*
G02*
X114650000Y-112524250I0J218750D01*
G01*
G37*
%TD*%
%TO.C,R92*%
G36*
G01*
X127971000Y-112773750D02*
X127971000Y-113286250D01*
G75*
G02*
X127752250Y-113505000I-218750J0D01*
G01*
X127314750Y-113505000D01*
G75*
G02*
X127096000Y-113286250I0J218750D01*
G01*
X127096000Y-112773750D01*
G75*
G02*
X127314750Y-112555000I218750J0D01*
G01*
X127752250Y-112555000D01*
G75*
G02*
X127971000Y-112773750I0J-218750D01*
G01*
G37*
G36*
G01*
X126396000Y-112773750D02*
X126396000Y-113286250D01*
G75*
G02*
X126177250Y-113505000I-218750J0D01*
G01*
X125739750Y-113505000D01*
G75*
G02*
X125521000Y-113286250I0J218750D01*
G01*
X125521000Y-112773750D01*
G75*
G02*
X125739750Y-112555000I218750J0D01*
G01*
X126177250Y-112555000D01*
G75*
G02*
X126396000Y-112773750I0J-218750D01*
G01*
G37*
%TD*%
%TO.C,R93*%
G36*
G01*
X159924000Y-96009750D02*
X159924000Y-96522250D01*
G75*
G02*
X159705250Y-96741000I-218750J0D01*
G01*
X159267750Y-96741000D01*
G75*
G02*
X159049000Y-96522250I0J218750D01*
G01*
X159049000Y-96009750D01*
G75*
G02*
X159267750Y-95791000I218750J0D01*
G01*
X159705250Y-95791000D01*
G75*
G02*
X159924000Y-96009750I0J-218750D01*
G01*
G37*
G36*
G01*
X161499000Y-96009750D02*
X161499000Y-96522250D01*
G75*
G02*
X161280250Y-96741000I-218750J0D01*
G01*
X160842750Y-96741000D01*
G75*
G02*
X160624000Y-96522250I0J218750D01*
G01*
X160624000Y-96009750D01*
G75*
G02*
X160842750Y-95791000I218750J0D01*
G01*
X161280250Y-95791000D01*
G75*
G02*
X161499000Y-96009750I0J-218750D01*
G01*
G37*
%TD*%
%TO.C,R94*%
G36*
G01*
X184587500Y-76705750D02*
X184587500Y-77218250D01*
G75*
G02*
X184368750Y-77437000I-218750J0D01*
G01*
X183931250Y-77437000D01*
G75*
G02*
X183712500Y-77218250I0J218750D01*
G01*
X183712500Y-76705750D01*
G75*
G02*
X183931250Y-76487000I218750J0D01*
G01*
X184368750Y-76487000D01*
G75*
G02*
X184587500Y-76705750I0J-218750D01*
G01*
G37*
G36*
G01*
X186162500Y-76705750D02*
X186162500Y-77218250D01*
G75*
G02*
X185943750Y-77437000I-218750J0D01*
G01*
X185506250Y-77437000D01*
G75*
G02*
X185287500Y-77218250I0J218750D01*
G01*
X185287500Y-76705750D01*
G75*
G02*
X185506250Y-76487000I218750J0D01*
G01*
X185943750Y-76487000D01*
G75*
G02*
X186162500Y-76705750I0J-218750D01*
G01*
G37*
%TD*%
%TO.C,R95*%
G36*
G01*
X202483000Y-78742250D02*
X202483000Y-78229750D01*
G75*
G02*
X202701750Y-78011000I218750J0D01*
G01*
X203139250Y-78011000D01*
G75*
G02*
X203358000Y-78229750I0J-218750D01*
G01*
X203358000Y-78742250D01*
G75*
G02*
X203139250Y-78961000I-218750J0D01*
G01*
X202701750Y-78961000D01*
G75*
G02*
X202483000Y-78742250I0J218750D01*
G01*
G37*
G36*
G01*
X204058000Y-78742250D02*
X204058000Y-78229750D01*
G75*
G02*
X204276750Y-78011000I218750J0D01*
G01*
X204714250Y-78011000D01*
G75*
G02*
X204933000Y-78229750I0J-218750D01*
G01*
X204933000Y-78742250D01*
G75*
G02*
X204714250Y-78961000I-218750J0D01*
G01*
X204276750Y-78961000D01*
G75*
G02*
X204058000Y-78742250I0J218750D01*
G01*
G37*
%TD*%
%TO.C,R96*%
G36*
G01*
X186989000Y-80266250D02*
X186989000Y-79753750D01*
G75*
G02*
X187207750Y-79535000I218750J0D01*
G01*
X187645250Y-79535000D01*
G75*
G02*
X187864000Y-79753750I0J-218750D01*
G01*
X187864000Y-80266250D01*
G75*
G02*
X187645250Y-80485000I-218750J0D01*
G01*
X187207750Y-80485000D01*
G75*
G02*
X186989000Y-80266250I0J218750D01*
G01*
G37*
G36*
G01*
X188564000Y-80266250D02*
X188564000Y-79753750D01*
G75*
G02*
X188782750Y-79535000I218750J0D01*
G01*
X189220250Y-79535000D01*
G75*
G02*
X189439000Y-79753750I0J-218750D01*
G01*
X189439000Y-80266250D01*
G75*
G02*
X189220250Y-80485000I-218750J0D01*
G01*
X188782750Y-80485000D01*
G75*
G02*
X188564000Y-80266250I0J218750D01*
G01*
G37*
%TD*%
%TO.C,R97*%
G36*
G01*
X159975000Y-117345750D02*
X159975000Y-117858250D01*
G75*
G02*
X159756250Y-118077000I-218750J0D01*
G01*
X159318750Y-118077000D01*
G75*
G02*
X159100000Y-117858250I0J218750D01*
G01*
X159100000Y-117345750D01*
G75*
G02*
X159318750Y-117127000I218750J0D01*
G01*
X159756250Y-117127000D01*
G75*
G02*
X159975000Y-117345750I0J-218750D01*
G01*
G37*
G36*
G01*
X158400000Y-117345750D02*
X158400000Y-117858250D01*
G75*
G02*
X158181250Y-118077000I-218750J0D01*
G01*
X157743750Y-118077000D01*
G75*
G02*
X157525000Y-117858250I0J218750D01*
G01*
X157525000Y-117345750D01*
G75*
G02*
X157743750Y-117127000I218750J0D01*
G01*
X158181250Y-117127000D01*
G75*
G02*
X158400000Y-117345750I0J-218750D01*
G01*
G37*
%TD*%
%TO.C,R98*%
G36*
G01*
X158400000Y-120393750D02*
X158400000Y-120906250D01*
G75*
G02*
X158181250Y-121125000I-218750J0D01*
G01*
X157743750Y-121125000D01*
G75*
G02*
X157525000Y-120906250I0J218750D01*
G01*
X157525000Y-120393750D01*
G75*
G02*
X157743750Y-120175000I218750J0D01*
G01*
X158181250Y-120175000D01*
G75*
G02*
X158400000Y-120393750I0J-218750D01*
G01*
G37*
G36*
G01*
X159975000Y-120393750D02*
X159975000Y-120906250D01*
G75*
G02*
X159756250Y-121125000I-218750J0D01*
G01*
X159318750Y-121125000D01*
G75*
G02*
X159100000Y-120906250I0J218750D01*
G01*
X159100000Y-120393750D01*
G75*
G02*
X159318750Y-120175000I218750J0D01*
G01*
X159756250Y-120175000D01*
G75*
G02*
X159975000Y-120393750I0J-218750D01*
G01*
G37*
%TD*%
%TO.C,R99*%
G36*
G01*
X189580000Y-99824250D02*
X189580000Y-99311750D01*
G75*
G02*
X189798750Y-99093000I218750J0D01*
G01*
X190236250Y-99093000D01*
G75*
G02*
X190455000Y-99311750I0J-218750D01*
G01*
X190455000Y-99824250D01*
G75*
G02*
X190236250Y-100043000I-218750J0D01*
G01*
X189798750Y-100043000D01*
G75*
G02*
X189580000Y-99824250I0J218750D01*
G01*
G37*
G36*
G01*
X188005000Y-99824250D02*
X188005000Y-99311750D01*
G75*
G02*
X188223750Y-99093000I218750J0D01*
G01*
X188661250Y-99093000D01*
G75*
G02*
X188880000Y-99311750I0J-218750D01*
G01*
X188880000Y-99824250D01*
G75*
G02*
X188661250Y-100043000I-218750J0D01*
G01*
X188223750Y-100043000D01*
G75*
G02*
X188005000Y-99824250I0J218750D01*
G01*
G37*
%TD*%
%TO.C,R100*%
G36*
G01*
X204120000Y-98803750D02*
X204120000Y-99316250D01*
G75*
G02*
X203901250Y-99535000I-218750J0D01*
G01*
X203463750Y-99535000D01*
G75*
G02*
X203245000Y-99316250I0J218750D01*
G01*
X203245000Y-98803750D01*
G75*
G02*
X203463750Y-98585000I218750J0D01*
G01*
X203901250Y-98585000D01*
G75*
G02*
X204120000Y-98803750I0J-218750D01*
G01*
G37*
G36*
G01*
X205695000Y-98803750D02*
X205695000Y-99316250D01*
G75*
G02*
X205476250Y-99535000I-218750J0D01*
G01*
X205038750Y-99535000D01*
G75*
G02*
X204820000Y-99316250I0J218750D01*
G01*
X204820000Y-98803750D01*
G75*
G02*
X205038750Y-98585000I218750J0D01*
G01*
X205476250Y-98585000D01*
G75*
G02*
X205695000Y-98803750I0J-218750D01*
G01*
G37*
%TD*%
%TO.C,R101*%
G36*
G01*
X189439000Y-73911750D02*
X189439000Y-74424250D01*
G75*
G02*
X189220250Y-74643000I-218750J0D01*
G01*
X188782750Y-74643000D01*
G75*
G02*
X188564000Y-74424250I0J218750D01*
G01*
X188564000Y-73911750D01*
G75*
G02*
X188782750Y-73693000I218750J0D01*
G01*
X189220250Y-73693000D01*
G75*
G02*
X189439000Y-73911750I0J-218750D01*
G01*
G37*
G36*
G01*
X187864000Y-73911750D02*
X187864000Y-74424250D01*
G75*
G02*
X187645250Y-74643000I-218750J0D01*
G01*
X187207750Y-74643000D01*
G75*
G02*
X186989000Y-74424250I0J218750D01*
G01*
X186989000Y-73911750D01*
G75*
G02*
X187207750Y-73693000I218750J0D01*
G01*
X187645250Y-73693000D01*
G75*
G02*
X187864000Y-73911750I0J-218750D01*
G01*
G37*
%TD*%
%TO.C,R102*%
G36*
G01*
X200502000Y-75694250D02*
X200502000Y-75181750D01*
G75*
G02*
X200720750Y-74963000I218750J0D01*
G01*
X201158250Y-74963000D01*
G75*
G02*
X201377000Y-75181750I0J-218750D01*
G01*
X201377000Y-75694250D01*
G75*
G02*
X201158250Y-75913000I-218750J0D01*
G01*
X200720750Y-75913000D01*
G75*
G02*
X200502000Y-75694250I0J218750D01*
G01*
G37*
G36*
G01*
X198927000Y-75694250D02*
X198927000Y-75181750D01*
G75*
G02*
X199145750Y-74963000I218750J0D01*
G01*
X199583250Y-74963000D01*
G75*
G02*
X199802000Y-75181750I0J-218750D01*
G01*
X199802000Y-75694250D01*
G75*
G02*
X199583250Y-75913000I-218750J0D01*
G01*
X199145750Y-75913000D01*
G75*
G02*
X198927000Y-75694250I0J218750D01*
G01*
G37*
%TD*%
%TO.C,R103*%
G36*
G01*
X188880000Y-90675750D02*
X188880000Y-91188250D01*
G75*
G02*
X188661250Y-91407000I-218750J0D01*
G01*
X188223750Y-91407000D01*
G75*
G02*
X188005000Y-91188250I0J218750D01*
G01*
X188005000Y-90675750D01*
G75*
G02*
X188223750Y-90457000I218750J0D01*
G01*
X188661250Y-90457000D01*
G75*
G02*
X188880000Y-90675750I0J-218750D01*
G01*
G37*
G36*
G01*
X190455000Y-90675750D02*
X190455000Y-91188250D01*
G75*
G02*
X190236250Y-91407000I-218750J0D01*
G01*
X189798750Y-91407000D01*
G75*
G02*
X189580000Y-91188250I0J218750D01*
G01*
X189580000Y-90675750D01*
G75*
G02*
X189798750Y-90457000I218750J0D01*
G01*
X190236250Y-90457000D01*
G75*
G02*
X190455000Y-90675750I0J-218750D01*
G01*
G37*
%TD*%
%TO.C,R104*%
G36*
G01*
X201518000Y-96268250D02*
X201518000Y-95755750D01*
G75*
G02*
X201736750Y-95537000I218750J0D01*
G01*
X202174250Y-95537000D01*
G75*
G02*
X202393000Y-95755750I0J-218750D01*
G01*
X202393000Y-96268250D01*
G75*
G02*
X202174250Y-96487000I-218750J0D01*
G01*
X201736750Y-96487000D01*
G75*
G02*
X201518000Y-96268250I0J218750D01*
G01*
G37*
G36*
G01*
X199943000Y-96268250D02*
X199943000Y-95755750D01*
G75*
G02*
X200161750Y-95537000I218750J0D01*
G01*
X200599250Y-95537000D01*
G75*
G02*
X200818000Y-95755750I0J-218750D01*
G01*
X200818000Y-96268250D01*
G75*
G02*
X200599250Y-96487000I-218750J0D01*
G01*
X200161750Y-96487000D01*
G75*
G02*
X199943000Y-96268250I0J218750D01*
G01*
G37*
%TD*%
%TO.C,R105*%
G36*
G01*
X158400000Y-114551750D02*
X158400000Y-115064250D01*
G75*
G02*
X158181250Y-115283000I-218750J0D01*
G01*
X157743750Y-115283000D01*
G75*
G02*
X157525000Y-115064250I0J218750D01*
G01*
X157525000Y-114551750D01*
G75*
G02*
X157743750Y-114333000I218750J0D01*
G01*
X158181250Y-114333000D01*
G75*
G02*
X158400000Y-114551750I0J-218750D01*
G01*
G37*
G36*
G01*
X159975000Y-114551750D02*
X159975000Y-115064250D01*
G75*
G02*
X159756250Y-115283000I-218750J0D01*
G01*
X159318750Y-115283000D01*
G75*
G02*
X159100000Y-115064250I0J218750D01*
G01*
X159100000Y-114551750D01*
G75*
G02*
X159318750Y-114333000I218750J0D01*
G01*
X159756250Y-114333000D01*
G75*
G02*
X159975000Y-114551750I0J-218750D01*
G01*
G37*
%TD*%
%TO.C,R106*%
G36*
G01*
X184449000Y-94236250D02*
X184449000Y-93723750D01*
G75*
G02*
X184667750Y-93505000I218750J0D01*
G01*
X185105250Y-93505000D01*
G75*
G02*
X185324000Y-93723750I0J-218750D01*
G01*
X185324000Y-94236250D01*
G75*
G02*
X185105250Y-94455000I-218750J0D01*
G01*
X184667750Y-94455000D01*
G75*
G02*
X184449000Y-94236250I0J218750D01*
G01*
G37*
G36*
G01*
X186024000Y-94236250D02*
X186024000Y-93723750D01*
G75*
G02*
X186242750Y-93505000I218750J0D01*
G01*
X186680250Y-93505000D01*
G75*
G02*
X186899000Y-93723750I0J-218750D01*
G01*
X186899000Y-94236250D01*
G75*
G02*
X186680250Y-94455000I-218750J0D01*
G01*
X186242750Y-94455000D01*
G75*
G02*
X186024000Y-94236250I0J218750D01*
G01*
G37*
%TD*%
%TO.C,R107*%
G36*
G01*
X203245000Y-93220250D02*
X203245000Y-92707750D01*
G75*
G02*
X203463750Y-92489000I218750J0D01*
G01*
X203901250Y-92489000D01*
G75*
G02*
X204120000Y-92707750I0J-218750D01*
G01*
X204120000Y-93220250D01*
G75*
G02*
X203901250Y-93439000I-218750J0D01*
G01*
X203463750Y-93439000D01*
G75*
G02*
X203245000Y-93220250I0J218750D01*
G01*
G37*
G36*
G01*
X204820000Y-93220250D02*
X204820000Y-92707750D01*
G75*
G02*
X205038750Y-92489000I218750J0D01*
G01*
X205476250Y-92489000D01*
G75*
G02*
X205695000Y-92707750I0J-218750D01*
G01*
X205695000Y-93220250D01*
G75*
G02*
X205476250Y-93439000I-218750J0D01*
G01*
X205038750Y-93439000D01*
G75*
G02*
X204820000Y-93220250I0J218750D01*
G01*
G37*
%TD*%
%TO.C,R108*%
G36*
G01*
X188005000Y-94236250D02*
X188005000Y-93723750D01*
G75*
G02*
X188223750Y-93505000I218750J0D01*
G01*
X188661250Y-93505000D01*
G75*
G02*
X188880000Y-93723750I0J-218750D01*
G01*
X188880000Y-94236250D01*
G75*
G02*
X188661250Y-94455000I-218750J0D01*
G01*
X188223750Y-94455000D01*
G75*
G02*
X188005000Y-94236250I0J218750D01*
G01*
G37*
G36*
G01*
X189580000Y-94236250D02*
X189580000Y-93723750D01*
G75*
G02*
X189798750Y-93505000I218750J0D01*
G01*
X190236250Y-93505000D01*
G75*
G02*
X190455000Y-93723750I0J-218750D01*
G01*
X190455000Y-94236250D01*
G75*
G02*
X190236250Y-94455000I-218750J0D01*
G01*
X189798750Y-94455000D01*
G75*
G02*
X189580000Y-94236250I0J218750D01*
G01*
G37*
%TD*%
%TO.C,R109*%
G36*
G01*
X202393000Y-92707750D02*
X202393000Y-93220250D01*
G75*
G02*
X202174250Y-93439000I-218750J0D01*
G01*
X201736750Y-93439000D01*
G75*
G02*
X201518000Y-93220250I0J218750D01*
G01*
X201518000Y-92707750D01*
G75*
G02*
X201736750Y-92489000I218750J0D01*
G01*
X202174250Y-92489000D01*
G75*
G02*
X202393000Y-92707750I0J-218750D01*
G01*
G37*
G36*
G01*
X200818000Y-92707750D02*
X200818000Y-93220250D01*
G75*
G02*
X200599250Y-93439000I-218750J0D01*
G01*
X200161750Y-93439000D01*
G75*
G02*
X199943000Y-93220250I0J218750D01*
G01*
X199943000Y-92707750D01*
G75*
G02*
X200161750Y-92489000I218750J0D01*
G01*
X200599250Y-92489000D01*
G75*
G02*
X200818000Y-92707750I0J-218750D01*
G01*
G37*
%TD*%
%TO.C,R110*%
G36*
G01*
X157525000Y-112270250D02*
X157525000Y-111757750D01*
G75*
G02*
X157743750Y-111539000I218750J0D01*
G01*
X158181250Y-111539000D01*
G75*
G02*
X158400000Y-111757750I0J-218750D01*
G01*
X158400000Y-112270250D01*
G75*
G02*
X158181250Y-112489000I-218750J0D01*
G01*
X157743750Y-112489000D01*
G75*
G02*
X157525000Y-112270250I0J218750D01*
G01*
G37*
G36*
G01*
X159100000Y-112270250D02*
X159100000Y-111757750D01*
G75*
G02*
X159318750Y-111539000I218750J0D01*
G01*
X159756250Y-111539000D01*
G75*
G02*
X159975000Y-111757750I0J-218750D01*
G01*
X159975000Y-112270250D01*
G75*
G02*
X159756250Y-112489000I-218750J0D01*
G01*
X159318750Y-112489000D01*
G75*
G02*
X159100000Y-112270250I0J218750D01*
G01*
G37*
%TD*%
%TO.C,R111*%
G36*
G01*
X32213000Y-153413750D02*
X32213000Y-153926250D01*
G75*
G02*
X31994250Y-154145000I-218750J0D01*
G01*
X31556750Y-154145000D01*
G75*
G02*
X31338000Y-153926250I0J218750D01*
G01*
X31338000Y-153413750D01*
G75*
G02*
X31556750Y-153195000I218750J0D01*
G01*
X31994250Y-153195000D01*
G75*
G02*
X32213000Y-153413750I0J-218750D01*
G01*
G37*
G36*
G01*
X30638000Y-153413750D02*
X30638000Y-153926250D01*
G75*
G02*
X30419250Y-154145000I-218750J0D01*
G01*
X29981750Y-154145000D01*
G75*
G02*
X29763000Y-153926250I0J218750D01*
G01*
X29763000Y-153413750D01*
G75*
G02*
X29981750Y-153195000I218750J0D01*
G01*
X30419250Y-153195000D01*
G75*
G02*
X30638000Y-153413750I0J-218750D01*
G01*
G37*
%TD*%
%TO.C,R112*%
G36*
G01*
X36531000Y-157731750D02*
X36531000Y-158244250D01*
G75*
G02*
X36312250Y-158463000I-218750J0D01*
G01*
X35874750Y-158463000D01*
G75*
G02*
X35656000Y-158244250I0J218750D01*
G01*
X35656000Y-157731750D01*
G75*
G02*
X35874750Y-157513000I218750J0D01*
G01*
X36312250Y-157513000D01*
G75*
G02*
X36531000Y-157731750I0J-218750D01*
G01*
G37*
G36*
G01*
X34956000Y-157731750D02*
X34956000Y-158244250D01*
G75*
G02*
X34737250Y-158463000I-218750J0D01*
G01*
X34299750Y-158463000D01*
G75*
G02*
X34081000Y-158244250I0J218750D01*
G01*
X34081000Y-157731750D01*
G75*
G02*
X34299750Y-157513000I218750J0D01*
G01*
X34737250Y-157513000D01*
G75*
G02*
X34956000Y-157731750I0J-218750D01*
G01*
G37*
%TD*%
%TO.C,R113*%
G36*
G01*
X197770000Y-116329750D02*
X197770000Y-116842250D01*
G75*
G02*
X197551250Y-117061000I-218750J0D01*
G01*
X197113750Y-117061000D01*
G75*
G02*
X196895000Y-116842250I0J218750D01*
G01*
X196895000Y-116329750D01*
G75*
G02*
X197113750Y-116111000I218750J0D01*
G01*
X197551250Y-116111000D01*
G75*
G02*
X197770000Y-116329750I0J-218750D01*
G01*
G37*
G36*
G01*
X199345000Y-116329750D02*
X199345000Y-116842250D01*
G75*
G02*
X199126250Y-117061000I-218750J0D01*
G01*
X198688750Y-117061000D01*
G75*
G02*
X198470000Y-116842250I0J218750D01*
G01*
X198470000Y-116329750D01*
G75*
G02*
X198688750Y-116111000I218750J0D01*
G01*
X199126250Y-116111000D01*
G75*
G02*
X199345000Y-116329750I0J-218750D01*
G01*
G37*
%TD*%
%TO.C,R114*%
G36*
G01*
X30638000Y-150619750D02*
X30638000Y-151132250D01*
G75*
G02*
X30419250Y-151351000I-218750J0D01*
G01*
X29981750Y-151351000D01*
G75*
G02*
X29763000Y-151132250I0J218750D01*
G01*
X29763000Y-150619750D01*
G75*
G02*
X29981750Y-150401000I218750J0D01*
G01*
X30419250Y-150401000D01*
G75*
G02*
X30638000Y-150619750I0J-218750D01*
G01*
G37*
G36*
G01*
X32213000Y-150619750D02*
X32213000Y-151132250D01*
G75*
G02*
X31994250Y-151351000I-218750J0D01*
G01*
X31556750Y-151351000D01*
G75*
G02*
X31338000Y-151132250I0J218750D01*
G01*
X31338000Y-150619750D01*
G75*
G02*
X31556750Y-150401000I218750J0D01*
G01*
X31994250Y-150401000D01*
G75*
G02*
X32213000Y-150619750I0J-218750D01*
G01*
G37*
%TD*%
%TO.C,R115*%
G36*
G01*
X185211000Y-116588250D02*
X185211000Y-116075750D01*
G75*
G02*
X185429750Y-115857000I218750J0D01*
G01*
X185867250Y-115857000D01*
G75*
G02*
X186086000Y-116075750I0J-218750D01*
G01*
X186086000Y-116588250D01*
G75*
G02*
X185867250Y-116807000I-218750J0D01*
G01*
X185429750Y-116807000D01*
G75*
G02*
X185211000Y-116588250I0J218750D01*
G01*
G37*
G36*
G01*
X186786000Y-116588250D02*
X186786000Y-116075750D01*
G75*
G02*
X187004750Y-115857000I218750J0D01*
G01*
X187442250Y-115857000D01*
G75*
G02*
X187661000Y-116075750I0J-218750D01*
G01*
X187661000Y-116588250D01*
G75*
G02*
X187442250Y-116807000I-218750J0D01*
G01*
X187004750Y-116807000D01*
G75*
G02*
X186786000Y-116588250I0J218750D01*
G01*
G37*
%TD*%
%TO.C,R116*%
G36*
G01*
X135337000Y-158493750D02*
X135337000Y-159006250D01*
G75*
G02*
X135118250Y-159225000I-218750J0D01*
G01*
X134680750Y-159225000D01*
G75*
G02*
X134462000Y-159006250I0J218750D01*
G01*
X134462000Y-158493750D01*
G75*
G02*
X134680750Y-158275000I218750J0D01*
G01*
X135118250Y-158275000D01*
G75*
G02*
X135337000Y-158493750I0J-218750D01*
G01*
G37*
G36*
G01*
X133762000Y-158493750D02*
X133762000Y-159006250D01*
G75*
G02*
X133543250Y-159225000I-218750J0D01*
G01*
X133105750Y-159225000D01*
G75*
G02*
X132887000Y-159006250I0J218750D01*
G01*
X132887000Y-158493750D01*
G75*
G02*
X133105750Y-158275000I218750J0D01*
G01*
X133543250Y-158275000D01*
G75*
G02*
X133762000Y-158493750I0J-218750D01*
G01*
G37*
%TD*%
%TO.C,R117*%
G36*
G01*
X133787500Y-155699750D02*
X133787500Y-156212250D01*
G75*
G02*
X133568750Y-156431000I-218750J0D01*
G01*
X133131250Y-156431000D01*
G75*
G02*
X132912500Y-156212250I0J218750D01*
G01*
X132912500Y-155699750D01*
G75*
G02*
X133131250Y-155481000I218750J0D01*
G01*
X133568750Y-155481000D01*
G75*
G02*
X133787500Y-155699750I0J-218750D01*
G01*
G37*
G36*
G01*
X135362500Y-155699750D02*
X135362500Y-156212250D01*
G75*
G02*
X135143750Y-156431000I-218750J0D01*
G01*
X134706250Y-156431000D01*
G75*
G02*
X134487500Y-156212250I0J218750D01*
G01*
X134487500Y-155699750D01*
G75*
G02*
X134706250Y-155481000I218750J0D01*
G01*
X135143750Y-155481000D01*
G75*
G02*
X135362500Y-155699750I0J-218750D01*
G01*
G37*
%TD*%
%TO.C,R118*%
G36*
G01*
X132887000Y-153418250D02*
X132887000Y-152905750D01*
G75*
G02*
X133105750Y-152687000I218750J0D01*
G01*
X133543250Y-152687000D01*
G75*
G02*
X133762000Y-152905750I0J-218750D01*
G01*
X133762000Y-153418250D01*
G75*
G02*
X133543250Y-153637000I-218750J0D01*
G01*
X133105750Y-153637000D01*
G75*
G02*
X132887000Y-153418250I0J218750D01*
G01*
G37*
G36*
G01*
X134462000Y-153418250D02*
X134462000Y-152905750D01*
G75*
G02*
X134680750Y-152687000I218750J0D01*
G01*
X135118250Y-152687000D01*
G75*
G02*
X135337000Y-152905750I0J-218750D01*
G01*
X135337000Y-153418250D01*
G75*
G02*
X135118250Y-153637000I-218750J0D01*
G01*
X134680750Y-153637000D01*
G75*
G02*
X134462000Y-153418250I0J218750D01*
G01*
G37*
%TD*%
%TO.C,R119*%
G36*
G01*
X144571000Y-158244250D02*
X144571000Y-157731750D01*
G75*
G02*
X144789750Y-157513000I218750J0D01*
G01*
X145227250Y-157513000D01*
G75*
G02*
X145446000Y-157731750I0J-218750D01*
G01*
X145446000Y-158244250D01*
G75*
G02*
X145227250Y-158463000I-218750J0D01*
G01*
X144789750Y-158463000D01*
G75*
G02*
X144571000Y-158244250I0J218750D01*
G01*
G37*
G36*
G01*
X146146000Y-158244250D02*
X146146000Y-157731750D01*
G75*
G02*
X146364750Y-157513000I218750J0D01*
G01*
X146802250Y-157513000D01*
G75*
G02*
X147021000Y-157731750I0J-218750D01*
G01*
X147021000Y-158244250D01*
G75*
G02*
X146802250Y-158463000I-218750J0D01*
G01*
X146364750Y-158463000D01*
G75*
G02*
X146146000Y-158244250I0J218750D01*
G01*
G37*
%TD*%
%TO.C,R120*%
G36*
G01*
X147021000Y-154683750D02*
X147021000Y-155196250D01*
G75*
G02*
X146802250Y-155415000I-218750J0D01*
G01*
X146364750Y-155415000D01*
G75*
G02*
X146146000Y-155196250I0J218750D01*
G01*
X146146000Y-154683750D01*
G75*
G02*
X146364750Y-154465000I218750J0D01*
G01*
X146802250Y-154465000D01*
G75*
G02*
X147021000Y-154683750I0J-218750D01*
G01*
G37*
G36*
G01*
X145446000Y-154683750D02*
X145446000Y-155196250D01*
G75*
G02*
X145227250Y-155415000I-218750J0D01*
G01*
X144789750Y-155415000D01*
G75*
G02*
X144571000Y-155196250I0J218750D01*
G01*
X144571000Y-154683750D01*
G75*
G02*
X144789750Y-154465000I218750J0D01*
G01*
X145227250Y-154465000D01*
G75*
G02*
X145446000Y-154683750I0J-218750D01*
G01*
G37*
%TD*%
%TO.C,R121*%
G36*
G01*
X43530000Y-153164250D02*
X43530000Y-152651750D01*
G75*
G02*
X43748750Y-152433000I218750J0D01*
G01*
X44186250Y-152433000D01*
G75*
G02*
X44405000Y-152651750I0J-218750D01*
G01*
X44405000Y-153164250D01*
G75*
G02*
X44186250Y-153383000I-218750J0D01*
G01*
X43748750Y-153383000D01*
G75*
G02*
X43530000Y-153164250I0J218750D01*
G01*
G37*
G36*
G01*
X41955000Y-153164250D02*
X41955000Y-152651750D01*
G75*
G02*
X42173750Y-152433000I218750J0D01*
G01*
X42611250Y-152433000D01*
G75*
G02*
X42830000Y-152651750I0J-218750D01*
G01*
X42830000Y-153164250D01*
G75*
G02*
X42611250Y-153383000I-218750J0D01*
G01*
X42173750Y-153383000D01*
G75*
G02*
X41955000Y-153164250I0J218750D01*
G01*
G37*
%TD*%
%TO.C,R122*%
G36*
G01*
X41955000Y-155958250D02*
X41955000Y-155445750D01*
G75*
G02*
X42173750Y-155227000I218750J0D01*
G01*
X42611250Y-155227000D01*
G75*
G02*
X42830000Y-155445750I0J-218750D01*
G01*
X42830000Y-155958250D01*
G75*
G02*
X42611250Y-156177000I-218750J0D01*
G01*
X42173750Y-156177000D01*
G75*
G02*
X41955000Y-155958250I0J218750D01*
G01*
G37*
G36*
G01*
X43530000Y-155958250D02*
X43530000Y-155445750D01*
G75*
G02*
X43748750Y-155227000I218750J0D01*
G01*
X44186250Y-155227000D01*
G75*
G02*
X44405000Y-155445750I0J-218750D01*
G01*
X44405000Y-155958250D01*
G75*
G02*
X44186250Y-156177000I-218750J0D01*
G01*
X43748750Y-156177000D01*
G75*
G02*
X43530000Y-155958250I0J218750D01*
G01*
G37*
%TD*%
%TO.C,R123*%
G36*
G01*
X198470000Y-113794250D02*
X198470000Y-113281750D01*
G75*
G02*
X198688750Y-113063000I218750J0D01*
G01*
X199126250Y-113063000D01*
G75*
G02*
X199345000Y-113281750I0J-218750D01*
G01*
X199345000Y-113794250D01*
G75*
G02*
X199126250Y-114013000I-218750J0D01*
G01*
X198688750Y-114013000D01*
G75*
G02*
X198470000Y-113794250I0J218750D01*
G01*
G37*
G36*
G01*
X196895000Y-113794250D02*
X196895000Y-113281750D01*
G75*
G02*
X197113750Y-113063000I218750J0D01*
G01*
X197551250Y-113063000D01*
G75*
G02*
X197770000Y-113281750I0J-218750D01*
G01*
X197770000Y-113794250D01*
G75*
G02*
X197551250Y-114013000I-218750J0D01*
G01*
X197113750Y-114013000D01*
G75*
G02*
X196895000Y-113794250I0J218750D01*
G01*
G37*
%TD*%
%TO.C,R124*%
G36*
G01*
X185211000Y-113794250D02*
X185211000Y-113281750D01*
G75*
G02*
X185429750Y-113063000I218750J0D01*
G01*
X185867250Y-113063000D01*
G75*
G02*
X186086000Y-113281750I0J-218750D01*
G01*
X186086000Y-113794250D01*
G75*
G02*
X185867250Y-114013000I-218750J0D01*
G01*
X185429750Y-114013000D01*
G75*
G02*
X185211000Y-113794250I0J218750D01*
G01*
G37*
G36*
G01*
X186786000Y-113794250D02*
X186786000Y-113281750D01*
G75*
G02*
X187004750Y-113063000I218750J0D01*
G01*
X187442250Y-113063000D01*
G75*
G02*
X187661000Y-113281750I0J-218750D01*
G01*
X187661000Y-113794250D01*
G75*
G02*
X187442250Y-114013000I-218750J0D01*
G01*
X187004750Y-114013000D01*
G75*
G02*
X186786000Y-113794250I0J218750D01*
G01*
G37*
%TD*%
%TO.C,R125*%
G36*
G01*
X134462000Y-150370250D02*
X134462000Y-149857750D01*
G75*
G02*
X134680750Y-149639000I218750J0D01*
G01*
X135118250Y-149639000D01*
G75*
G02*
X135337000Y-149857750I0J-218750D01*
G01*
X135337000Y-150370250D01*
G75*
G02*
X135118250Y-150589000I-218750J0D01*
G01*
X134680750Y-150589000D01*
G75*
G02*
X134462000Y-150370250I0J218750D01*
G01*
G37*
G36*
G01*
X132887000Y-150370250D02*
X132887000Y-149857750D01*
G75*
G02*
X133105750Y-149639000I218750J0D01*
G01*
X133543250Y-149639000D01*
G75*
G02*
X133762000Y-149857750I0J-218750D01*
G01*
X133762000Y-150370250D01*
G75*
G02*
X133543250Y-150589000I-218750J0D01*
G01*
X133105750Y-150589000D01*
G75*
G02*
X132887000Y-150370250I0J218750D01*
G01*
G37*
%TD*%
%TO.C,R126*%
G36*
G01*
X146146000Y-152402250D02*
X146146000Y-151889750D01*
G75*
G02*
X146364750Y-151671000I218750J0D01*
G01*
X146802250Y-151671000D01*
G75*
G02*
X147021000Y-151889750I0J-218750D01*
G01*
X147021000Y-152402250D01*
G75*
G02*
X146802250Y-152621000I-218750J0D01*
G01*
X146364750Y-152621000D01*
G75*
G02*
X146146000Y-152402250I0J218750D01*
G01*
G37*
G36*
G01*
X144571000Y-152402250D02*
X144571000Y-151889750D01*
G75*
G02*
X144789750Y-151671000I218750J0D01*
G01*
X145227250Y-151671000D01*
G75*
G02*
X145446000Y-151889750I0J-218750D01*
G01*
X145446000Y-152402250D01*
G75*
G02*
X145227250Y-152621000I-218750J0D01*
G01*
X144789750Y-152621000D01*
G75*
G02*
X144571000Y-152402250I0J218750D01*
G01*
G37*
%TD*%
%TO.C,R127*%
G36*
G01*
X79711000Y-155699750D02*
X79711000Y-156212250D01*
G75*
G02*
X79492250Y-156431000I-218750J0D01*
G01*
X79054750Y-156431000D01*
G75*
G02*
X78836000Y-156212250I0J218750D01*
G01*
X78836000Y-155699750D01*
G75*
G02*
X79054750Y-155481000I218750J0D01*
G01*
X79492250Y-155481000D01*
G75*
G02*
X79711000Y-155699750I0J-218750D01*
G01*
G37*
G36*
G01*
X78136000Y-155699750D02*
X78136000Y-156212250D01*
G75*
G02*
X77917250Y-156431000I-218750J0D01*
G01*
X77479750Y-156431000D01*
G75*
G02*
X77261000Y-156212250I0J218750D01*
G01*
X77261000Y-155699750D01*
G75*
G02*
X77479750Y-155481000I218750J0D01*
G01*
X77917250Y-155481000D01*
G75*
G02*
X78136000Y-155699750I0J-218750D01*
G01*
G37*
%TD*%
%TO.C,R128*%
G36*
G01*
X77261000Y-153164250D02*
X77261000Y-152651750D01*
G75*
G02*
X77479750Y-152433000I218750J0D01*
G01*
X77917250Y-152433000D01*
G75*
G02*
X78136000Y-152651750I0J-218750D01*
G01*
X78136000Y-153164250D01*
G75*
G02*
X77917250Y-153383000I-218750J0D01*
G01*
X77479750Y-153383000D01*
G75*
G02*
X77261000Y-153164250I0J218750D01*
G01*
G37*
G36*
G01*
X78836000Y-153164250D02*
X78836000Y-152651750D01*
G75*
G02*
X79054750Y-152433000I218750J0D01*
G01*
X79492250Y-152433000D01*
G75*
G02*
X79711000Y-152651750I0J-218750D01*
G01*
X79711000Y-153164250D01*
G75*
G02*
X79492250Y-153383000I-218750J0D01*
G01*
X79054750Y-153383000D01*
G75*
G02*
X78836000Y-153164250I0J218750D01*
G01*
G37*
%TD*%
%TO.C,R129*%
G36*
G01*
X89453000Y-158752250D02*
X89453000Y-158239750D01*
G75*
G02*
X89671750Y-158021000I218750J0D01*
G01*
X90109250Y-158021000D01*
G75*
G02*
X90328000Y-158239750I0J-218750D01*
G01*
X90328000Y-158752250D01*
G75*
G02*
X90109250Y-158971000I-218750J0D01*
G01*
X89671750Y-158971000D01*
G75*
G02*
X89453000Y-158752250I0J218750D01*
G01*
G37*
G36*
G01*
X91028000Y-158752250D02*
X91028000Y-158239750D01*
G75*
G02*
X91246750Y-158021000I218750J0D01*
G01*
X91684250Y-158021000D01*
G75*
G02*
X91903000Y-158239750I0J-218750D01*
G01*
X91903000Y-158752250D01*
G75*
G02*
X91684250Y-158971000I-218750J0D01*
G01*
X91246750Y-158971000D01*
G75*
G02*
X91028000Y-158752250I0J218750D01*
G01*
G37*
%TD*%
%TO.C,R130*%
G36*
G01*
X91903000Y-152397750D02*
X91903000Y-152910250D01*
G75*
G02*
X91684250Y-153129000I-218750J0D01*
G01*
X91246750Y-153129000D01*
G75*
G02*
X91028000Y-152910250I0J218750D01*
G01*
X91028000Y-152397750D01*
G75*
G02*
X91246750Y-152179000I218750J0D01*
G01*
X91684250Y-152179000D01*
G75*
G02*
X91903000Y-152397750I0J-218750D01*
G01*
G37*
G36*
G01*
X90328000Y-152397750D02*
X90328000Y-152910250D01*
G75*
G02*
X90109250Y-153129000I-218750J0D01*
G01*
X89671750Y-153129000D01*
G75*
G02*
X89453000Y-152910250I0J218750D01*
G01*
X89453000Y-152397750D01*
G75*
G02*
X89671750Y-152179000I218750J0D01*
G01*
X90109250Y-152179000D01*
G75*
G02*
X90328000Y-152397750I0J-218750D01*
G01*
G37*
%TD*%
%TO.C,R131*%
G36*
G01*
X77261000Y-159260250D02*
X77261000Y-158747750D01*
G75*
G02*
X77479750Y-158529000I218750J0D01*
G01*
X77917250Y-158529000D01*
G75*
G02*
X78136000Y-158747750I0J-218750D01*
G01*
X78136000Y-159260250D01*
G75*
G02*
X77917250Y-159479000I-218750J0D01*
G01*
X77479750Y-159479000D01*
G75*
G02*
X77261000Y-159260250I0J218750D01*
G01*
G37*
G36*
G01*
X78836000Y-159260250D02*
X78836000Y-158747750D01*
G75*
G02*
X79054750Y-158529000I218750J0D01*
G01*
X79492250Y-158529000D01*
G75*
G02*
X79711000Y-158747750I0J-218750D01*
G01*
X79711000Y-159260250D01*
G75*
G02*
X79492250Y-159479000I-218750J0D01*
G01*
X79054750Y-159479000D01*
G75*
G02*
X78836000Y-159260250I0J218750D01*
G01*
G37*
%TD*%
%TO.C,R132*%
G36*
G01*
X90328000Y-155191750D02*
X90328000Y-155704250D01*
G75*
G02*
X90109250Y-155923000I-218750J0D01*
G01*
X89671750Y-155923000D01*
G75*
G02*
X89453000Y-155704250I0J218750D01*
G01*
X89453000Y-155191750D01*
G75*
G02*
X89671750Y-154973000I218750J0D01*
G01*
X90109250Y-154973000D01*
G75*
G02*
X90328000Y-155191750I0J-218750D01*
G01*
G37*
G36*
G01*
X91903000Y-155191750D02*
X91903000Y-155704250D01*
G75*
G02*
X91684250Y-155923000I-218750J0D01*
G01*
X91246750Y-155923000D01*
G75*
G02*
X91028000Y-155704250I0J218750D01*
G01*
X91028000Y-155191750D01*
G75*
G02*
X91246750Y-154973000I218750J0D01*
G01*
X91684250Y-154973000D01*
G75*
G02*
X91903000Y-155191750I0J-218750D01*
G01*
G37*
%TD*%
%TO.C,R133*%
G36*
G01*
X78836000Y-150370250D02*
X78836000Y-149857750D01*
G75*
G02*
X79054750Y-149639000I218750J0D01*
G01*
X79492250Y-149639000D01*
G75*
G02*
X79711000Y-149857750I0J-218750D01*
G01*
X79711000Y-150370250D01*
G75*
G02*
X79492250Y-150589000I-218750J0D01*
G01*
X79054750Y-150589000D01*
G75*
G02*
X78836000Y-150370250I0J218750D01*
G01*
G37*
G36*
G01*
X77261000Y-150370250D02*
X77261000Y-149857750D01*
G75*
G02*
X77479750Y-149639000I218750J0D01*
G01*
X77917250Y-149639000D01*
G75*
G02*
X78136000Y-149857750I0J-218750D01*
G01*
X78136000Y-150370250D01*
G75*
G02*
X77917250Y-150589000I-218750J0D01*
G01*
X77479750Y-150589000D01*
G75*
G02*
X77261000Y-150370250I0J218750D01*
G01*
G37*
%TD*%
%TO.C,R134*%
G36*
G01*
X90328000Y-149603750D02*
X90328000Y-150116250D01*
G75*
G02*
X90109250Y-150335000I-218750J0D01*
G01*
X89671750Y-150335000D01*
G75*
G02*
X89453000Y-150116250I0J218750D01*
G01*
X89453000Y-149603750D01*
G75*
G02*
X89671750Y-149385000I218750J0D01*
G01*
X90109250Y-149385000D01*
G75*
G02*
X90328000Y-149603750I0J-218750D01*
G01*
G37*
G36*
G01*
X91903000Y-149603750D02*
X91903000Y-150116250D01*
G75*
G02*
X91684250Y-150335000I-218750J0D01*
G01*
X91246750Y-150335000D01*
G75*
G02*
X91028000Y-150116250I0J218750D01*
G01*
X91028000Y-149603750D01*
G75*
G02*
X91246750Y-149385000I218750J0D01*
G01*
X91684250Y-149385000D01*
G75*
G02*
X91903000Y-149603750I0J-218750D01*
G01*
G37*
%TD*%
%TO.C,R135*%
G36*
G01*
X194863000Y-158244250D02*
X194863000Y-157731750D01*
G75*
G02*
X195081750Y-157513000I218750J0D01*
G01*
X195519250Y-157513000D01*
G75*
G02*
X195738000Y-157731750I0J-218750D01*
G01*
X195738000Y-158244250D01*
G75*
G02*
X195519250Y-158463000I-218750J0D01*
G01*
X195081750Y-158463000D01*
G75*
G02*
X194863000Y-158244250I0J218750D01*
G01*
G37*
G36*
G01*
X196438000Y-158244250D02*
X196438000Y-157731750D01*
G75*
G02*
X196656750Y-157513000I218750J0D01*
G01*
X197094250Y-157513000D01*
G75*
G02*
X197313000Y-157731750I0J-218750D01*
G01*
X197313000Y-158244250D01*
G75*
G02*
X197094250Y-158463000I-218750J0D01*
G01*
X196656750Y-158463000D01*
G75*
G02*
X196438000Y-158244250I0J218750D01*
G01*
G37*
%TD*%
%TO.C,R136*%
G36*
G01*
X197313000Y-154683750D02*
X197313000Y-155196250D01*
G75*
G02*
X197094250Y-155415000I-218750J0D01*
G01*
X196656750Y-155415000D01*
G75*
G02*
X196438000Y-155196250I0J218750D01*
G01*
X196438000Y-154683750D01*
G75*
G02*
X196656750Y-154465000I218750J0D01*
G01*
X197094250Y-154465000D01*
G75*
G02*
X197313000Y-154683750I0J-218750D01*
G01*
G37*
G36*
G01*
X195738000Y-154683750D02*
X195738000Y-155196250D01*
G75*
G02*
X195519250Y-155415000I-218750J0D01*
G01*
X195081750Y-155415000D01*
G75*
G02*
X194863000Y-155196250I0J218750D01*
G01*
X194863000Y-154683750D01*
G75*
G02*
X195081750Y-154465000I218750J0D01*
G01*
X195519250Y-154465000D01*
G75*
G02*
X195738000Y-154683750I0J-218750D01*
G01*
G37*
%TD*%
%TO.C,R137*%
G36*
G01*
X183038000Y-157477750D02*
X183038000Y-157990250D01*
G75*
G02*
X182819250Y-158209000I-218750J0D01*
G01*
X182381750Y-158209000D01*
G75*
G02*
X182163000Y-157990250I0J218750D01*
G01*
X182163000Y-157477750D01*
G75*
G02*
X182381750Y-157259000I218750J0D01*
G01*
X182819250Y-157259000D01*
G75*
G02*
X183038000Y-157477750I0J-218750D01*
G01*
G37*
G36*
G01*
X184613000Y-157477750D02*
X184613000Y-157990250D01*
G75*
G02*
X184394250Y-158209000I-218750J0D01*
G01*
X183956750Y-158209000D01*
G75*
G02*
X183738000Y-157990250I0J218750D01*
G01*
X183738000Y-157477750D01*
G75*
G02*
X183956750Y-157259000I218750J0D01*
G01*
X184394250Y-157259000D01*
G75*
G02*
X184613000Y-157477750I0J-218750D01*
G01*
G37*
%TD*%
%TO.C,R138*%
G36*
G01*
X183738000Y-154942250D02*
X183738000Y-154429750D01*
G75*
G02*
X183956750Y-154211000I218750J0D01*
G01*
X184394250Y-154211000D01*
G75*
G02*
X184613000Y-154429750I0J-218750D01*
G01*
X184613000Y-154942250D01*
G75*
G02*
X184394250Y-155161000I-218750J0D01*
G01*
X183956750Y-155161000D01*
G75*
G02*
X183738000Y-154942250I0J218750D01*
G01*
G37*
G36*
G01*
X182163000Y-154942250D02*
X182163000Y-154429750D01*
G75*
G02*
X182381750Y-154211000I218750J0D01*
G01*
X182819250Y-154211000D01*
G75*
G02*
X183038000Y-154429750I0J-218750D01*
G01*
X183038000Y-154942250D01*
G75*
G02*
X182819250Y-155161000I-218750J0D01*
G01*
X182381750Y-155161000D01*
G75*
G02*
X182163000Y-154942250I0J218750D01*
G01*
G37*
%TD*%
%TO.C,R139*%
G36*
G01*
X196438000Y-152402250D02*
X196438000Y-151889750D01*
G75*
G02*
X196656750Y-151671000I218750J0D01*
G01*
X197094250Y-151671000D01*
G75*
G02*
X197313000Y-151889750I0J-218750D01*
G01*
X197313000Y-152402250D01*
G75*
G02*
X197094250Y-152621000I-218750J0D01*
G01*
X196656750Y-152621000D01*
G75*
G02*
X196438000Y-152402250I0J218750D01*
G01*
G37*
G36*
G01*
X194863000Y-152402250D02*
X194863000Y-151889750D01*
G75*
G02*
X195081750Y-151671000I218750J0D01*
G01*
X195519250Y-151671000D01*
G75*
G02*
X195738000Y-151889750I0J-218750D01*
G01*
X195738000Y-152402250D01*
G75*
G02*
X195519250Y-152621000I-218750J0D01*
G01*
X195081750Y-152621000D01*
G75*
G02*
X194863000Y-152402250I0J218750D01*
G01*
G37*
%TD*%
%TO.C,R140*%
G36*
G01*
X183038000Y-151381750D02*
X183038000Y-151894250D01*
G75*
G02*
X182819250Y-152113000I-218750J0D01*
G01*
X182381750Y-152113000D01*
G75*
G02*
X182163000Y-151894250I0J218750D01*
G01*
X182163000Y-151381750D01*
G75*
G02*
X182381750Y-151163000I218750J0D01*
G01*
X182819250Y-151163000D01*
G75*
G02*
X183038000Y-151381750I0J-218750D01*
G01*
G37*
G36*
G01*
X184613000Y-151381750D02*
X184613000Y-151894250D01*
G75*
G02*
X184394250Y-152113000I-218750J0D01*
G01*
X183956750Y-152113000D01*
G75*
G02*
X183738000Y-151894250I0J218750D01*
G01*
X183738000Y-151381750D01*
G75*
G02*
X183956750Y-151163000I218750J0D01*
G01*
X184394250Y-151163000D01*
G75*
G02*
X184613000Y-151381750I0J-218750D01*
G01*
G37*
%TD*%
%TO.C,U1*%
G36*
G01*
X40662000Y-75969000D02*
X40662000Y-75669000D01*
G75*
G02*
X40812000Y-75519000I150000J0D01*
G01*
X42162000Y-75519000D01*
G75*
G02*
X42312000Y-75669000I0J-150000D01*
G01*
X42312000Y-75969000D01*
G75*
G02*
X42162000Y-76119000I-150000J0D01*
G01*
X40812000Y-76119000D01*
G75*
G02*
X40662000Y-75969000I0J150000D01*
G01*
G37*
G36*
G01*
X40662000Y-77239000D02*
X40662000Y-76939000D01*
G75*
G02*
X40812000Y-76789000I150000J0D01*
G01*
X42162000Y-76789000D01*
G75*
G02*
X42312000Y-76939000I0J-150000D01*
G01*
X42312000Y-77239000D01*
G75*
G02*
X42162000Y-77389000I-150000J0D01*
G01*
X40812000Y-77389000D01*
G75*
G02*
X40662000Y-77239000I0J150000D01*
G01*
G37*
G36*
G01*
X40662000Y-78509000D02*
X40662000Y-78209000D01*
G75*
G02*
X40812000Y-78059000I150000J0D01*
G01*
X42162000Y-78059000D01*
G75*
G02*
X42312000Y-78209000I0J-150000D01*
G01*
X42312000Y-78509000D01*
G75*
G02*
X42162000Y-78659000I-150000J0D01*
G01*
X40812000Y-78659000D01*
G75*
G02*
X40662000Y-78509000I0J150000D01*
G01*
G37*
G36*
G01*
X40662000Y-79779000D02*
X40662000Y-79479000D01*
G75*
G02*
X40812000Y-79329000I150000J0D01*
G01*
X42162000Y-79329000D01*
G75*
G02*
X42312000Y-79479000I0J-150000D01*
G01*
X42312000Y-79779000D01*
G75*
G02*
X42162000Y-79929000I-150000J0D01*
G01*
X40812000Y-79929000D01*
G75*
G02*
X40662000Y-79779000I0J150000D01*
G01*
G37*
G36*
G01*
X35412000Y-79779000D02*
X35412000Y-79479000D01*
G75*
G02*
X35562000Y-79329000I150000J0D01*
G01*
X36912000Y-79329000D01*
G75*
G02*
X37062000Y-79479000I0J-150000D01*
G01*
X37062000Y-79779000D01*
G75*
G02*
X36912000Y-79929000I-150000J0D01*
G01*
X35562000Y-79929000D01*
G75*
G02*
X35412000Y-79779000I0J150000D01*
G01*
G37*
G36*
G01*
X35412000Y-78509000D02*
X35412000Y-78209000D01*
G75*
G02*
X35562000Y-78059000I150000J0D01*
G01*
X36912000Y-78059000D01*
G75*
G02*
X37062000Y-78209000I0J-150000D01*
G01*
X37062000Y-78509000D01*
G75*
G02*
X36912000Y-78659000I-150000J0D01*
G01*
X35562000Y-78659000D01*
G75*
G02*
X35412000Y-78509000I0J150000D01*
G01*
G37*
G36*
G01*
X35412000Y-77239000D02*
X35412000Y-76939000D01*
G75*
G02*
X35562000Y-76789000I150000J0D01*
G01*
X36912000Y-76789000D01*
G75*
G02*
X37062000Y-76939000I0J-150000D01*
G01*
X37062000Y-77239000D01*
G75*
G02*
X36912000Y-77389000I-150000J0D01*
G01*
X35562000Y-77389000D01*
G75*
G02*
X35412000Y-77239000I0J150000D01*
G01*
G37*
G36*
G01*
X35412000Y-75969000D02*
X35412000Y-75669000D01*
G75*
G02*
X35562000Y-75519000I150000J0D01*
G01*
X36912000Y-75519000D01*
G75*
G02*
X37062000Y-75669000I0J-150000D01*
G01*
X37062000Y-75969000D01*
G75*
G02*
X36912000Y-76119000I-150000J0D01*
G01*
X35562000Y-76119000D01*
G75*
G02*
X35412000Y-75969000I0J150000D01*
G01*
G37*
%TD*%
%TO.C,U2*%
G36*
G01*
X33126000Y-95527000D02*
X33126000Y-95227000D01*
G75*
G02*
X33276000Y-95077000I150000J0D01*
G01*
X34626000Y-95077000D01*
G75*
G02*
X34776000Y-95227000I0J-150000D01*
G01*
X34776000Y-95527000D01*
G75*
G02*
X34626000Y-95677000I-150000J0D01*
G01*
X33276000Y-95677000D01*
G75*
G02*
X33126000Y-95527000I0J150000D01*
G01*
G37*
G36*
G01*
X33126000Y-96797000D02*
X33126000Y-96497000D01*
G75*
G02*
X33276000Y-96347000I150000J0D01*
G01*
X34626000Y-96347000D01*
G75*
G02*
X34776000Y-96497000I0J-150000D01*
G01*
X34776000Y-96797000D01*
G75*
G02*
X34626000Y-96947000I-150000J0D01*
G01*
X33276000Y-96947000D01*
G75*
G02*
X33126000Y-96797000I0J150000D01*
G01*
G37*
G36*
G01*
X33126000Y-98067000D02*
X33126000Y-97767000D01*
G75*
G02*
X33276000Y-97617000I150000J0D01*
G01*
X34626000Y-97617000D01*
G75*
G02*
X34776000Y-97767000I0J-150000D01*
G01*
X34776000Y-98067000D01*
G75*
G02*
X34626000Y-98217000I-150000J0D01*
G01*
X33276000Y-98217000D01*
G75*
G02*
X33126000Y-98067000I0J150000D01*
G01*
G37*
G36*
G01*
X33126000Y-99337000D02*
X33126000Y-99037000D01*
G75*
G02*
X33276000Y-98887000I150000J0D01*
G01*
X34626000Y-98887000D01*
G75*
G02*
X34776000Y-99037000I0J-150000D01*
G01*
X34776000Y-99337000D01*
G75*
G02*
X34626000Y-99487000I-150000J0D01*
G01*
X33276000Y-99487000D01*
G75*
G02*
X33126000Y-99337000I0J150000D01*
G01*
G37*
G36*
G01*
X38376000Y-99337000D02*
X38376000Y-99037000D01*
G75*
G02*
X38526000Y-98887000I150000J0D01*
G01*
X39876000Y-98887000D01*
G75*
G02*
X40026000Y-99037000I0J-150000D01*
G01*
X40026000Y-99337000D01*
G75*
G02*
X39876000Y-99487000I-150000J0D01*
G01*
X38526000Y-99487000D01*
G75*
G02*
X38376000Y-99337000I0J150000D01*
G01*
G37*
G36*
G01*
X38376000Y-98067000D02*
X38376000Y-97767000D01*
G75*
G02*
X38526000Y-97617000I150000J0D01*
G01*
X39876000Y-97617000D01*
G75*
G02*
X40026000Y-97767000I0J-150000D01*
G01*
X40026000Y-98067000D01*
G75*
G02*
X39876000Y-98217000I-150000J0D01*
G01*
X38526000Y-98217000D01*
G75*
G02*
X38376000Y-98067000I0J150000D01*
G01*
G37*
G36*
G01*
X38376000Y-96797000D02*
X38376000Y-96497000D01*
G75*
G02*
X38526000Y-96347000I150000J0D01*
G01*
X39876000Y-96347000D01*
G75*
G02*
X40026000Y-96497000I0J-150000D01*
G01*
X40026000Y-96797000D01*
G75*
G02*
X39876000Y-96947000I-150000J0D01*
G01*
X38526000Y-96947000D01*
G75*
G02*
X38376000Y-96797000I0J150000D01*
G01*
G37*
G36*
G01*
X38376000Y-95527000D02*
X38376000Y-95227000D01*
G75*
G02*
X38526000Y-95077000I150000J0D01*
G01*
X39876000Y-95077000D01*
G75*
G02*
X40026000Y-95227000I0J-150000D01*
G01*
X40026000Y-95527000D01*
G75*
G02*
X39876000Y-95677000I-150000J0D01*
G01*
X38526000Y-95677000D01*
G75*
G02*
X38376000Y-95527000I0J150000D01*
G01*
G37*
%TD*%
%TO.C,U3*%
G36*
G01*
X39138000Y-135151000D02*
X39138000Y-134851000D01*
G75*
G02*
X39288000Y-134701000I150000J0D01*
G01*
X40638000Y-134701000D01*
G75*
G02*
X40788000Y-134851000I0J-150000D01*
G01*
X40788000Y-135151000D01*
G75*
G02*
X40638000Y-135301000I-150000J0D01*
G01*
X39288000Y-135301000D01*
G75*
G02*
X39138000Y-135151000I0J150000D01*
G01*
G37*
G36*
G01*
X39138000Y-136421000D02*
X39138000Y-136121000D01*
G75*
G02*
X39288000Y-135971000I150000J0D01*
G01*
X40638000Y-135971000D01*
G75*
G02*
X40788000Y-136121000I0J-150000D01*
G01*
X40788000Y-136421000D01*
G75*
G02*
X40638000Y-136571000I-150000J0D01*
G01*
X39288000Y-136571000D01*
G75*
G02*
X39138000Y-136421000I0J150000D01*
G01*
G37*
G36*
G01*
X39138000Y-137691000D02*
X39138000Y-137391000D01*
G75*
G02*
X39288000Y-137241000I150000J0D01*
G01*
X40638000Y-137241000D01*
G75*
G02*
X40788000Y-137391000I0J-150000D01*
G01*
X40788000Y-137691000D01*
G75*
G02*
X40638000Y-137841000I-150000J0D01*
G01*
X39288000Y-137841000D01*
G75*
G02*
X39138000Y-137691000I0J150000D01*
G01*
G37*
G36*
G01*
X39138000Y-138961000D02*
X39138000Y-138661000D01*
G75*
G02*
X39288000Y-138511000I150000J0D01*
G01*
X40638000Y-138511000D01*
G75*
G02*
X40788000Y-138661000I0J-150000D01*
G01*
X40788000Y-138961000D01*
G75*
G02*
X40638000Y-139111000I-150000J0D01*
G01*
X39288000Y-139111000D01*
G75*
G02*
X39138000Y-138961000I0J150000D01*
G01*
G37*
G36*
G01*
X33888000Y-138961000D02*
X33888000Y-138661000D01*
G75*
G02*
X34038000Y-138511000I150000J0D01*
G01*
X35388000Y-138511000D01*
G75*
G02*
X35538000Y-138661000I0J-150000D01*
G01*
X35538000Y-138961000D01*
G75*
G02*
X35388000Y-139111000I-150000J0D01*
G01*
X34038000Y-139111000D01*
G75*
G02*
X33888000Y-138961000I0J150000D01*
G01*
G37*
G36*
G01*
X33888000Y-137691000D02*
X33888000Y-137391000D01*
G75*
G02*
X34038000Y-137241000I150000J0D01*
G01*
X35388000Y-137241000D01*
G75*
G02*
X35538000Y-137391000I0J-150000D01*
G01*
X35538000Y-137691000D01*
G75*
G02*
X35388000Y-137841000I-150000J0D01*
G01*
X34038000Y-137841000D01*
G75*
G02*
X33888000Y-137691000I0J150000D01*
G01*
G37*
G36*
G01*
X33888000Y-136421000D02*
X33888000Y-136121000D01*
G75*
G02*
X34038000Y-135971000I150000J0D01*
G01*
X35388000Y-135971000D01*
G75*
G02*
X35538000Y-136121000I0J-150000D01*
G01*
X35538000Y-136421000D01*
G75*
G02*
X35388000Y-136571000I-150000J0D01*
G01*
X34038000Y-136571000D01*
G75*
G02*
X33888000Y-136421000I0J150000D01*
G01*
G37*
G36*
G01*
X33888000Y-135151000D02*
X33888000Y-134851000D01*
G75*
G02*
X34038000Y-134701000I150000J0D01*
G01*
X35388000Y-134701000D01*
G75*
G02*
X35538000Y-134851000I0J-150000D01*
G01*
X35538000Y-135151000D01*
G75*
G02*
X35388000Y-135301000I-150000J0D01*
G01*
X34038000Y-135301000D01*
G75*
G02*
X33888000Y-135151000I0J150000D01*
G01*
G37*
%TD*%
%TO.C,U4*%
G36*
G01*
X38376000Y-115339000D02*
X38376000Y-115039000D01*
G75*
G02*
X38526000Y-114889000I150000J0D01*
G01*
X39876000Y-114889000D01*
G75*
G02*
X40026000Y-115039000I0J-150000D01*
G01*
X40026000Y-115339000D01*
G75*
G02*
X39876000Y-115489000I-150000J0D01*
G01*
X38526000Y-115489000D01*
G75*
G02*
X38376000Y-115339000I0J150000D01*
G01*
G37*
G36*
G01*
X38376000Y-116609000D02*
X38376000Y-116309000D01*
G75*
G02*
X38526000Y-116159000I150000J0D01*
G01*
X39876000Y-116159000D01*
G75*
G02*
X40026000Y-116309000I0J-150000D01*
G01*
X40026000Y-116609000D01*
G75*
G02*
X39876000Y-116759000I-150000J0D01*
G01*
X38526000Y-116759000D01*
G75*
G02*
X38376000Y-116609000I0J150000D01*
G01*
G37*
G36*
G01*
X38376000Y-117879000D02*
X38376000Y-117579000D01*
G75*
G02*
X38526000Y-117429000I150000J0D01*
G01*
X39876000Y-117429000D01*
G75*
G02*
X40026000Y-117579000I0J-150000D01*
G01*
X40026000Y-117879000D01*
G75*
G02*
X39876000Y-118029000I-150000J0D01*
G01*
X38526000Y-118029000D01*
G75*
G02*
X38376000Y-117879000I0J150000D01*
G01*
G37*
G36*
G01*
X38376000Y-119149000D02*
X38376000Y-118849000D01*
G75*
G02*
X38526000Y-118699000I150000J0D01*
G01*
X39876000Y-118699000D01*
G75*
G02*
X40026000Y-118849000I0J-150000D01*
G01*
X40026000Y-119149000D01*
G75*
G02*
X39876000Y-119299000I-150000J0D01*
G01*
X38526000Y-119299000D01*
G75*
G02*
X38376000Y-119149000I0J150000D01*
G01*
G37*
G36*
G01*
X33126000Y-119149000D02*
X33126000Y-118849000D01*
G75*
G02*
X33276000Y-118699000I150000J0D01*
G01*
X34626000Y-118699000D01*
G75*
G02*
X34776000Y-118849000I0J-150000D01*
G01*
X34776000Y-119149000D01*
G75*
G02*
X34626000Y-119299000I-150000J0D01*
G01*
X33276000Y-119299000D01*
G75*
G02*
X33126000Y-119149000I0J150000D01*
G01*
G37*
G36*
G01*
X33126000Y-117879000D02*
X33126000Y-117579000D01*
G75*
G02*
X33276000Y-117429000I150000J0D01*
G01*
X34626000Y-117429000D01*
G75*
G02*
X34776000Y-117579000I0J-150000D01*
G01*
X34776000Y-117879000D01*
G75*
G02*
X34626000Y-118029000I-150000J0D01*
G01*
X33276000Y-118029000D01*
G75*
G02*
X33126000Y-117879000I0J150000D01*
G01*
G37*
G36*
G01*
X33126000Y-116609000D02*
X33126000Y-116309000D01*
G75*
G02*
X33276000Y-116159000I150000J0D01*
G01*
X34626000Y-116159000D01*
G75*
G02*
X34776000Y-116309000I0J-150000D01*
G01*
X34776000Y-116609000D01*
G75*
G02*
X34626000Y-116759000I-150000J0D01*
G01*
X33276000Y-116759000D01*
G75*
G02*
X33126000Y-116609000I0J150000D01*
G01*
G37*
G36*
G01*
X33126000Y-115339000D02*
X33126000Y-115039000D01*
G75*
G02*
X33276000Y-114889000I150000J0D01*
G01*
X34626000Y-114889000D01*
G75*
G02*
X34776000Y-115039000I0J-150000D01*
G01*
X34776000Y-115339000D01*
G75*
G02*
X34626000Y-115489000I-150000J0D01*
G01*
X33276000Y-115489000D01*
G75*
G02*
X33126000Y-115339000I0J150000D01*
G01*
G37*
%TD*%
%TO.C,U5*%
G36*
G01*
X72496000Y-74953000D02*
X72496000Y-74653000D01*
G75*
G02*
X72646000Y-74503000I150000J0D01*
G01*
X73996000Y-74503000D01*
G75*
G02*
X74146000Y-74653000I0J-150000D01*
G01*
X74146000Y-74953000D01*
G75*
G02*
X73996000Y-75103000I-150000J0D01*
G01*
X72646000Y-75103000D01*
G75*
G02*
X72496000Y-74953000I0J150000D01*
G01*
G37*
G36*
G01*
X72496000Y-76223000D02*
X72496000Y-75923000D01*
G75*
G02*
X72646000Y-75773000I150000J0D01*
G01*
X73996000Y-75773000D01*
G75*
G02*
X74146000Y-75923000I0J-150000D01*
G01*
X74146000Y-76223000D01*
G75*
G02*
X73996000Y-76373000I-150000J0D01*
G01*
X72646000Y-76373000D01*
G75*
G02*
X72496000Y-76223000I0J150000D01*
G01*
G37*
G36*
G01*
X72496000Y-77493000D02*
X72496000Y-77193000D01*
G75*
G02*
X72646000Y-77043000I150000J0D01*
G01*
X73996000Y-77043000D01*
G75*
G02*
X74146000Y-77193000I0J-150000D01*
G01*
X74146000Y-77493000D01*
G75*
G02*
X73996000Y-77643000I-150000J0D01*
G01*
X72646000Y-77643000D01*
G75*
G02*
X72496000Y-77493000I0J150000D01*
G01*
G37*
G36*
G01*
X72496000Y-78763000D02*
X72496000Y-78463000D01*
G75*
G02*
X72646000Y-78313000I150000J0D01*
G01*
X73996000Y-78313000D01*
G75*
G02*
X74146000Y-78463000I0J-150000D01*
G01*
X74146000Y-78763000D01*
G75*
G02*
X73996000Y-78913000I-150000J0D01*
G01*
X72646000Y-78913000D01*
G75*
G02*
X72496000Y-78763000I0J150000D01*
G01*
G37*
G36*
G01*
X77746000Y-78763000D02*
X77746000Y-78463000D01*
G75*
G02*
X77896000Y-78313000I150000J0D01*
G01*
X79246000Y-78313000D01*
G75*
G02*
X79396000Y-78463000I0J-150000D01*
G01*
X79396000Y-78763000D01*
G75*
G02*
X79246000Y-78913000I-150000J0D01*
G01*
X77896000Y-78913000D01*
G75*
G02*
X77746000Y-78763000I0J150000D01*
G01*
G37*
G36*
G01*
X77746000Y-77493000D02*
X77746000Y-77193000D01*
G75*
G02*
X77896000Y-77043000I150000J0D01*
G01*
X79246000Y-77043000D01*
G75*
G02*
X79396000Y-77193000I0J-150000D01*
G01*
X79396000Y-77493000D01*
G75*
G02*
X79246000Y-77643000I-150000J0D01*
G01*
X77896000Y-77643000D01*
G75*
G02*
X77746000Y-77493000I0J150000D01*
G01*
G37*
G36*
G01*
X77746000Y-76223000D02*
X77746000Y-75923000D01*
G75*
G02*
X77896000Y-75773000I150000J0D01*
G01*
X79246000Y-75773000D01*
G75*
G02*
X79396000Y-75923000I0J-150000D01*
G01*
X79396000Y-76223000D01*
G75*
G02*
X79246000Y-76373000I-150000J0D01*
G01*
X77896000Y-76373000D01*
G75*
G02*
X77746000Y-76223000I0J150000D01*
G01*
G37*
G36*
G01*
X77746000Y-74953000D02*
X77746000Y-74653000D01*
G75*
G02*
X77896000Y-74503000I150000J0D01*
G01*
X79246000Y-74503000D01*
G75*
G02*
X79396000Y-74653000I0J-150000D01*
G01*
X79396000Y-74953000D01*
G75*
G02*
X79246000Y-75103000I-150000J0D01*
G01*
X77896000Y-75103000D01*
G75*
G02*
X77746000Y-74953000I0J150000D01*
G01*
G37*
%TD*%
%TO.C,U6*%
G36*
G01*
X73512000Y-94765000D02*
X73512000Y-94465000D01*
G75*
G02*
X73662000Y-94315000I150000J0D01*
G01*
X75012000Y-94315000D01*
G75*
G02*
X75162000Y-94465000I0J-150000D01*
G01*
X75162000Y-94765000D01*
G75*
G02*
X75012000Y-94915000I-150000J0D01*
G01*
X73662000Y-94915000D01*
G75*
G02*
X73512000Y-94765000I0J150000D01*
G01*
G37*
G36*
G01*
X73512000Y-96035000D02*
X73512000Y-95735000D01*
G75*
G02*
X73662000Y-95585000I150000J0D01*
G01*
X75012000Y-95585000D01*
G75*
G02*
X75162000Y-95735000I0J-150000D01*
G01*
X75162000Y-96035000D01*
G75*
G02*
X75012000Y-96185000I-150000J0D01*
G01*
X73662000Y-96185000D01*
G75*
G02*
X73512000Y-96035000I0J150000D01*
G01*
G37*
G36*
G01*
X73512000Y-97305000D02*
X73512000Y-97005000D01*
G75*
G02*
X73662000Y-96855000I150000J0D01*
G01*
X75012000Y-96855000D01*
G75*
G02*
X75162000Y-97005000I0J-150000D01*
G01*
X75162000Y-97305000D01*
G75*
G02*
X75012000Y-97455000I-150000J0D01*
G01*
X73662000Y-97455000D01*
G75*
G02*
X73512000Y-97305000I0J150000D01*
G01*
G37*
G36*
G01*
X73512000Y-98575000D02*
X73512000Y-98275000D01*
G75*
G02*
X73662000Y-98125000I150000J0D01*
G01*
X75012000Y-98125000D01*
G75*
G02*
X75162000Y-98275000I0J-150000D01*
G01*
X75162000Y-98575000D01*
G75*
G02*
X75012000Y-98725000I-150000J0D01*
G01*
X73662000Y-98725000D01*
G75*
G02*
X73512000Y-98575000I0J150000D01*
G01*
G37*
G36*
G01*
X78762000Y-98575000D02*
X78762000Y-98275000D01*
G75*
G02*
X78912000Y-98125000I150000J0D01*
G01*
X80262000Y-98125000D01*
G75*
G02*
X80412000Y-98275000I0J-150000D01*
G01*
X80412000Y-98575000D01*
G75*
G02*
X80262000Y-98725000I-150000J0D01*
G01*
X78912000Y-98725000D01*
G75*
G02*
X78762000Y-98575000I0J150000D01*
G01*
G37*
G36*
G01*
X78762000Y-97305000D02*
X78762000Y-97005000D01*
G75*
G02*
X78912000Y-96855000I150000J0D01*
G01*
X80262000Y-96855000D01*
G75*
G02*
X80412000Y-97005000I0J-150000D01*
G01*
X80412000Y-97305000D01*
G75*
G02*
X80262000Y-97455000I-150000J0D01*
G01*
X78912000Y-97455000D01*
G75*
G02*
X78762000Y-97305000I0J150000D01*
G01*
G37*
G36*
G01*
X78762000Y-96035000D02*
X78762000Y-95735000D01*
G75*
G02*
X78912000Y-95585000I150000J0D01*
G01*
X80262000Y-95585000D01*
G75*
G02*
X80412000Y-95735000I0J-150000D01*
G01*
X80412000Y-96035000D01*
G75*
G02*
X80262000Y-96185000I-150000J0D01*
G01*
X78912000Y-96185000D01*
G75*
G02*
X78762000Y-96035000I0J150000D01*
G01*
G37*
G36*
G01*
X78762000Y-94765000D02*
X78762000Y-94465000D01*
G75*
G02*
X78912000Y-94315000I150000J0D01*
G01*
X80262000Y-94315000D01*
G75*
G02*
X80412000Y-94465000I0J-150000D01*
G01*
X80412000Y-94765000D01*
G75*
G02*
X80262000Y-94915000I-150000J0D01*
G01*
X78912000Y-94915000D01*
G75*
G02*
X78762000Y-94765000I0J150000D01*
G01*
G37*
%TD*%
%TO.C,U7*%
G36*
G01*
X75544000Y-115339000D02*
X75544000Y-115039000D01*
G75*
G02*
X75694000Y-114889000I150000J0D01*
G01*
X77044000Y-114889000D01*
G75*
G02*
X77194000Y-115039000I0J-150000D01*
G01*
X77194000Y-115339000D01*
G75*
G02*
X77044000Y-115489000I-150000J0D01*
G01*
X75694000Y-115489000D01*
G75*
G02*
X75544000Y-115339000I0J150000D01*
G01*
G37*
G36*
G01*
X75544000Y-116609000D02*
X75544000Y-116309000D01*
G75*
G02*
X75694000Y-116159000I150000J0D01*
G01*
X77044000Y-116159000D01*
G75*
G02*
X77194000Y-116309000I0J-150000D01*
G01*
X77194000Y-116609000D01*
G75*
G02*
X77044000Y-116759000I-150000J0D01*
G01*
X75694000Y-116759000D01*
G75*
G02*
X75544000Y-116609000I0J150000D01*
G01*
G37*
G36*
G01*
X75544000Y-117879000D02*
X75544000Y-117579000D01*
G75*
G02*
X75694000Y-117429000I150000J0D01*
G01*
X77044000Y-117429000D01*
G75*
G02*
X77194000Y-117579000I0J-150000D01*
G01*
X77194000Y-117879000D01*
G75*
G02*
X77044000Y-118029000I-150000J0D01*
G01*
X75694000Y-118029000D01*
G75*
G02*
X75544000Y-117879000I0J150000D01*
G01*
G37*
G36*
G01*
X75544000Y-119149000D02*
X75544000Y-118849000D01*
G75*
G02*
X75694000Y-118699000I150000J0D01*
G01*
X77044000Y-118699000D01*
G75*
G02*
X77194000Y-118849000I0J-150000D01*
G01*
X77194000Y-119149000D01*
G75*
G02*
X77044000Y-119299000I-150000J0D01*
G01*
X75694000Y-119299000D01*
G75*
G02*
X75544000Y-119149000I0J150000D01*
G01*
G37*
G36*
G01*
X80794000Y-119149000D02*
X80794000Y-118849000D01*
G75*
G02*
X80944000Y-118699000I150000J0D01*
G01*
X82294000Y-118699000D01*
G75*
G02*
X82444000Y-118849000I0J-150000D01*
G01*
X82444000Y-119149000D01*
G75*
G02*
X82294000Y-119299000I-150000J0D01*
G01*
X80944000Y-119299000D01*
G75*
G02*
X80794000Y-119149000I0J150000D01*
G01*
G37*
G36*
G01*
X80794000Y-117879000D02*
X80794000Y-117579000D01*
G75*
G02*
X80944000Y-117429000I150000J0D01*
G01*
X82294000Y-117429000D01*
G75*
G02*
X82444000Y-117579000I0J-150000D01*
G01*
X82444000Y-117879000D01*
G75*
G02*
X82294000Y-118029000I-150000J0D01*
G01*
X80944000Y-118029000D01*
G75*
G02*
X80794000Y-117879000I0J150000D01*
G01*
G37*
G36*
G01*
X80794000Y-116609000D02*
X80794000Y-116309000D01*
G75*
G02*
X80944000Y-116159000I150000J0D01*
G01*
X82294000Y-116159000D01*
G75*
G02*
X82444000Y-116309000I0J-150000D01*
G01*
X82444000Y-116609000D01*
G75*
G02*
X82294000Y-116759000I-150000J0D01*
G01*
X80944000Y-116759000D01*
G75*
G02*
X80794000Y-116609000I0J150000D01*
G01*
G37*
G36*
G01*
X80794000Y-115339000D02*
X80794000Y-115039000D01*
G75*
G02*
X80944000Y-114889000I150000J0D01*
G01*
X82294000Y-114889000D01*
G75*
G02*
X82444000Y-115039000I0J-150000D01*
G01*
X82444000Y-115339000D01*
G75*
G02*
X82294000Y-115489000I-150000J0D01*
G01*
X80944000Y-115489000D01*
G75*
G02*
X80794000Y-115339000I0J150000D01*
G01*
G37*
%TD*%
%TO.C,U8*%
G36*
G01*
X90530000Y-134897000D02*
X90530000Y-134597000D01*
G75*
G02*
X90680000Y-134447000I150000J0D01*
G01*
X92030000Y-134447000D01*
G75*
G02*
X92180000Y-134597000I0J-150000D01*
G01*
X92180000Y-134897000D01*
G75*
G02*
X92030000Y-135047000I-150000J0D01*
G01*
X90680000Y-135047000D01*
G75*
G02*
X90530000Y-134897000I0J150000D01*
G01*
G37*
G36*
G01*
X90530000Y-136167000D02*
X90530000Y-135867000D01*
G75*
G02*
X90680000Y-135717000I150000J0D01*
G01*
X92030000Y-135717000D01*
G75*
G02*
X92180000Y-135867000I0J-150000D01*
G01*
X92180000Y-136167000D01*
G75*
G02*
X92030000Y-136317000I-150000J0D01*
G01*
X90680000Y-136317000D01*
G75*
G02*
X90530000Y-136167000I0J150000D01*
G01*
G37*
G36*
G01*
X90530000Y-137437000D02*
X90530000Y-137137000D01*
G75*
G02*
X90680000Y-136987000I150000J0D01*
G01*
X92030000Y-136987000D01*
G75*
G02*
X92180000Y-137137000I0J-150000D01*
G01*
X92180000Y-137437000D01*
G75*
G02*
X92030000Y-137587000I-150000J0D01*
G01*
X90680000Y-137587000D01*
G75*
G02*
X90530000Y-137437000I0J150000D01*
G01*
G37*
G36*
G01*
X90530000Y-138707000D02*
X90530000Y-138407000D01*
G75*
G02*
X90680000Y-138257000I150000J0D01*
G01*
X92030000Y-138257000D01*
G75*
G02*
X92180000Y-138407000I0J-150000D01*
G01*
X92180000Y-138707000D01*
G75*
G02*
X92030000Y-138857000I-150000J0D01*
G01*
X90680000Y-138857000D01*
G75*
G02*
X90530000Y-138707000I0J150000D01*
G01*
G37*
G36*
G01*
X95780000Y-138707000D02*
X95780000Y-138407000D01*
G75*
G02*
X95930000Y-138257000I150000J0D01*
G01*
X97280000Y-138257000D01*
G75*
G02*
X97430000Y-138407000I0J-150000D01*
G01*
X97430000Y-138707000D01*
G75*
G02*
X97280000Y-138857000I-150000J0D01*
G01*
X95930000Y-138857000D01*
G75*
G02*
X95780000Y-138707000I0J150000D01*
G01*
G37*
G36*
G01*
X95780000Y-137437000D02*
X95780000Y-137137000D01*
G75*
G02*
X95930000Y-136987000I150000J0D01*
G01*
X97280000Y-136987000D01*
G75*
G02*
X97430000Y-137137000I0J-150000D01*
G01*
X97430000Y-137437000D01*
G75*
G02*
X97280000Y-137587000I-150000J0D01*
G01*
X95930000Y-137587000D01*
G75*
G02*
X95780000Y-137437000I0J150000D01*
G01*
G37*
G36*
G01*
X95780000Y-136167000D02*
X95780000Y-135867000D01*
G75*
G02*
X95930000Y-135717000I150000J0D01*
G01*
X97280000Y-135717000D01*
G75*
G02*
X97430000Y-135867000I0J-150000D01*
G01*
X97430000Y-136167000D01*
G75*
G02*
X97280000Y-136317000I-150000J0D01*
G01*
X95930000Y-136317000D01*
G75*
G02*
X95780000Y-136167000I0J150000D01*
G01*
G37*
G36*
G01*
X95780000Y-134897000D02*
X95780000Y-134597000D01*
G75*
G02*
X95930000Y-134447000I150000J0D01*
G01*
X97280000Y-134447000D01*
G75*
G02*
X97430000Y-134597000I0J-150000D01*
G01*
X97430000Y-134897000D01*
G75*
G02*
X97280000Y-135047000I-150000J0D01*
G01*
X95930000Y-135047000D01*
G75*
G02*
X95780000Y-134897000I0J150000D01*
G01*
G37*
%TD*%
%TO.C,U9*%
G36*
G01*
X115084000Y-75969000D02*
X115084000Y-75669000D01*
G75*
G02*
X115234000Y-75519000I150000J0D01*
G01*
X116584000Y-75519000D01*
G75*
G02*
X116734000Y-75669000I0J-150000D01*
G01*
X116734000Y-75969000D01*
G75*
G02*
X116584000Y-76119000I-150000J0D01*
G01*
X115234000Y-76119000D01*
G75*
G02*
X115084000Y-75969000I0J150000D01*
G01*
G37*
G36*
G01*
X115084000Y-77239000D02*
X115084000Y-76939000D01*
G75*
G02*
X115234000Y-76789000I150000J0D01*
G01*
X116584000Y-76789000D01*
G75*
G02*
X116734000Y-76939000I0J-150000D01*
G01*
X116734000Y-77239000D01*
G75*
G02*
X116584000Y-77389000I-150000J0D01*
G01*
X115234000Y-77389000D01*
G75*
G02*
X115084000Y-77239000I0J150000D01*
G01*
G37*
G36*
G01*
X115084000Y-78509000D02*
X115084000Y-78209000D01*
G75*
G02*
X115234000Y-78059000I150000J0D01*
G01*
X116584000Y-78059000D01*
G75*
G02*
X116734000Y-78209000I0J-150000D01*
G01*
X116734000Y-78509000D01*
G75*
G02*
X116584000Y-78659000I-150000J0D01*
G01*
X115234000Y-78659000D01*
G75*
G02*
X115084000Y-78509000I0J150000D01*
G01*
G37*
G36*
G01*
X115084000Y-79779000D02*
X115084000Y-79479000D01*
G75*
G02*
X115234000Y-79329000I150000J0D01*
G01*
X116584000Y-79329000D01*
G75*
G02*
X116734000Y-79479000I0J-150000D01*
G01*
X116734000Y-79779000D01*
G75*
G02*
X116584000Y-79929000I-150000J0D01*
G01*
X115234000Y-79929000D01*
G75*
G02*
X115084000Y-79779000I0J150000D01*
G01*
G37*
G36*
G01*
X109834000Y-79779000D02*
X109834000Y-79479000D01*
G75*
G02*
X109984000Y-79329000I150000J0D01*
G01*
X111334000Y-79329000D01*
G75*
G02*
X111484000Y-79479000I0J-150000D01*
G01*
X111484000Y-79779000D01*
G75*
G02*
X111334000Y-79929000I-150000J0D01*
G01*
X109984000Y-79929000D01*
G75*
G02*
X109834000Y-79779000I0J150000D01*
G01*
G37*
G36*
G01*
X109834000Y-78509000D02*
X109834000Y-78209000D01*
G75*
G02*
X109984000Y-78059000I150000J0D01*
G01*
X111334000Y-78059000D01*
G75*
G02*
X111484000Y-78209000I0J-150000D01*
G01*
X111484000Y-78509000D01*
G75*
G02*
X111334000Y-78659000I-150000J0D01*
G01*
X109984000Y-78659000D01*
G75*
G02*
X109834000Y-78509000I0J150000D01*
G01*
G37*
G36*
G01*
X109834000Y-77239000D02*
X109834000Y-76939000D01*
G75*
G02*
X109984000Y-76789000I150000J0D01*
G01*
X111334000Y-76789000D01*
G75*
G02*
X111484000Y-76939000I0J-150000D01*
G01*
X111484000Y-77239000D01*
G75*
G02*
X111334000Y-77389000I-150000J0D01*
G01*
X109984000Y-77389000D01*
G75*
G02*
X109834000Y-77239000I0J150000D01*
G01*
G37*
G36*
G01*
X109834000Y-75969000D02*
X109834000Y-75669000D01*
G75*
G02*
X109984000Y-75519000I150000J0D01*
G01*
X111334000Y-75519000D01*
G75*
G02*
X111484000Y-75669000I0J-150000D01*
G01*
X111484000Y-75969000D01*
G75*
G02*
X111334000Y-76119000I-150000J0D01*
G01*
X109984000Y-76119000D01*
G75*
G02*
X109834000Y-75969000I0J150000D01*
G01*
G37*
%TD*%
%TO.C,U10*%
G36*
G01*
X114152000Y-94257000D02*
X114152000Y-93957000D01*
G75*
G02*
X114302000Y-93807000I150000J0D01*
G01*
X115652000Y-93807000D01*
G75*
G02*
X115802000Y-93957000I0J-150000D01*
G01*
X115802000Y-94257000D01*
G75*
G02*
X115652000Y-94407000I-150000J0D01*
G01*
X114302000Y-94407000D01*
G75*
G02*
X114152000Y-94257000I0J150000D01*
G01*
G37*
G36*
G01*
X114152000Y-95527000D02*
X114152000Y-95227000D01*
G75*
G02*
X114302000Y-95077000I150000J0D01*
G01*
X115652000Y-95077000D01*
G75*
G02*
X115802000Y-95227000I0J-150000D01*
G01*
X115802000Y-95527000D01*
G75*
G02*
X115652000Y-95677000I-150000J0D01*
G01*
X114302000Y-95677000D01*
G75*
G02*
X114152000Y-95527000I0J150000D01*
G01*
G37*
G36*
G01*
X114152000Y-96797000D02*
X114152000Y-96497000D01*
G75*
G02*
X114302000Y-96347000I150000J0D01*
G01*
X115652000Y-96347000D01*
G75*
G02*
X115802000Y-96497000I0J-150000D01*
G01*
X115802000Y-96797000D01*
G75*
G02*
X115652000Y-96947000I-150000J0D01*
G01*
X114302000Y-96947000D01*
G75*
G02*
X114152000Y-96797000I0J150000D01*
G01*
G37*
G36*
G01*
X114152000Y-98067000D02*
X114152000Y-97767000D01*
G75*
G02*
X114302000Y-97617000I150000J0D01*
G01*
X115652000Y-97617000D01*
G75*
G02*
X115802000Y-97767000I0J-150000D01*
G01*
X115802000Y-98067000D01*
G75*
G02*
X115652000Y-98217000I-150000J0D01*
G01*
X114302000Y-98217000D01*
G75*
G02*
X114152000Y-98067000I0J150000D01*
G01*
G37*
G36*
G01*
X119402000Y-98067000D02*
X119402000Y-97767000D01*
G75*
G02*
X119552000Y-97617000I150000J0D01*
G01*
X120902000Y-97617000D01*
G75*
G02*
X121052000Y-97767000I0J-150000D01*
G01*
X121052000Y-98067000D01*
G75*
G02*
X120902000Y-98217000I-150000J0D01*
G01*
X119552000Y-98217000D01*
G75*
G02*
X119402000Y-98067000I0J150000D01*
G01*
G37*
G36*
G01*
X119402000Y-96797000D02*
X119402000Y-96497000D01*
G75*
G02*
X119552000Y-96347000I150000J0D01*
G01*
X120902000Y-96347000D01*
G75*
G02*
X121052000Y-96497000I0J-150000D01*
G01*
X121052000Y-96797000D01*
G75*
G02*
X120902000Y-96947000I-150000J0D01*
G01*
X119552000Y-96947000D01*
G75*
G02*
X119402000Y-96797000I0J150000D01*
G01*
G37*
G36*
G01*
X119402000Y-95527000D02*
X119402000Y-95227000D01*
G75*
G02*
X119552000Y-95077000I150000J0D01*
G01*
X120902000Y-95077000D01*
G75*
G02*
X121052000Y-95227000I0J-150000D01*
G01*
X121052000Y-95527000D01*
G75*
G02*
X120902000Y-95677000I-150000J0D01*
G01*
X119552000Y-95677000D01*
G75*
G02*
X119402000Y-95527000I0J150000D01*
G01*
G37*
G36*
G01*
X119402000Y-94257000D02*
X119402000Y-93957000D01*
G75*
G02*
X119552000Y-93807000I150000J0D01*
G01*
X120902000Y-93807000D01*
G75*
G02*
X121052000Y-93957000I0J-150000D01*
G01*
X121052000Y-94257000D01*
G75*
G02*
X120902000Y-94407000I-150000J0D01*
G01*
X119552000Y-94407000D01*
G75*
G02*
X119402000Y-94257000I0J150000D01*
G01*
G37*
%TD*%
%TO.C,U11*%
G36*
G01*
X149204000Y-75207000D02*
X149204000Y-74907000D01*
G75*
G02*
X149354000Y-74757000I150000J0D01*
G01*
X150704000Y-74757000D01*
G75*
G02*
X150854000Y-74907000I0J-150000D01*
G01*
X150854000Y-75207000D01*
G75*
G02*
X150704000Y-75357000I-150000J0D01*
G01*
X149354000Y-75357000D01*
G75*
G02*
X149204000Y-75207000I0J150000D01*
G01*
G37*
G36*
G01*
X149204000Y-76477000D02*
X149204000Y-76177000D01*
G75*
G02*
X149354000Y-76027000I150000J0D01*
G01*
X150704000Y-76027000D01*
G75*
G02*
X150854000Y-76177000I0J-150000D01*
G01*
X150854000Y-76477000D01*
G75*
G02*
X150704000Y-76627000I-150000J0D01*
G01*
X149354000Y-76627000D01*
G75*
G02*
X149204000Y-76477000I0J150000D01*
G01*
G37*
G36*
G01*
X149204000Y-77747000D02*
X149204000Y-77447000D01*
G75*
G02*
X149354000Y-77297000I150000J0D01*
G01*
X150704000Y-77297000D01*
G75*
G02*
X150854000Y-77447000I0J-150000D01*
G01*
X150854000Y-77747000D01*
G75*
G02*
X150704000Y-77897000I-150000J0D01*
G01*
X149354000Y-77897000D01*
G75*
G02*
X149204000Y-77747000I0J150000D01*
G01*
G37*
G36*
G01*
X149204000Y-79017000D02*
X149204000Y-78717000D01*
G75*
G02*
X149354000Y-78567000I150000J0D01*
G01*
X150704000Y-78567000D01*
G75*
G02*
X150854000Y-78717000I0J-150000D01*
G01*
X150854000Y-79017000D01*
G75*
G02*
X150704000Y-79167000I-150000J0D01*
G01*
X149354000Y-79167000D01*
G75*
G02*
X149204000Y-79017000I0J150000D01*
G01*
G37*
G36*
G01*
X154454000Y-79017000D02*
X154454000Y-78717000D01*
G75*
G02*
X154604000Y-78567000I150000J0D01*
G01*
X155954000Y-78567000D01*
G75*
G02*
X156104000Y-78717000I0J-150000D01*
G01*
X156104000Y-79017000D01*
G75*
G02*
X155954000Y-79167000I-150000J0D01*
G01*
X154604000Y-79167000D01*
G75*
G02*
X154454000Y-79017000I0J150000D01*
G01*
G37*
G36*
G01*
X154454000Y-77747000D02*
X154454000Y-77447000D01*
G75*
G02*
X154604000Y-77297000I150000J0D01*
G01*
X155954000Y-77297000D01*
G75*
G02*
X156104000Y-77447000I0J-150000D01*
G01*
X156104000Y-77747000D01*
G75*
G02*
X155954000Y-77897000I-150000J0D01*
G01*
X154604000Y-77897000D01*
G75*
G02*
X154454000Y-77747000I0J150000D01*
G01*
G37*
G36*
G01*
X154454000Y-76477000D02*
X154454000Y-76177000D01*
G75*
G02*
X154604000Y-76027000I150000J0D01*
G01*
X155954000Y-76027000D01*
G75*
G02*
X156104000Y-76177000I0J-150000D01*
G01*
X156104000Y-76477000D01*
G75*
G02*
X155954000Y-76627000I-150000J0D01*
G01*
X154604000Y-76627000D01*
G75*
G02*
X154454000Y-76477000I0J150000D01*
G01*
G37*
G36*
G01*
X154454000Y-75207000D02*
X154454000Y-74907000D01*
G75*
G02*
X154604000Y-74757000I150000J0D01*
G01*
X155954000Y-74757000D01*
G75*
G02*
X156104000Y-74907000I0J-150000D01*
G01*
X156104000Y-75207000D01*
G75*
G02*
X155954000Y-75357000I-150000J0D01*
G01*
X154604000Y-75357000D01*
G75*
G02*
X154454000Y-75207000I0J150000D01*
G01*
G37*
%TD*%
%TO.C,U12*%
G36*
G01*
X150728000Y-94511000D02*
X150728000Y-94211000D01*
G75*
G02*
X150878000Y-94061000I150000J0D01*
G01*
X152228000Y-94061000D01*
G75*
G02*
X152378000Y-94211000I0J-150000D01*
G01*
X152378000Y-94511000D01*
G75*
G02*
X152228000Y-94661000I-150000J0D01*
G01*
X150878000Y-94661000D01*
G75*
G02*
X150728000Y-94511000I0J150000D01*
G01*
G37*
G36*
G01*
X150728000Y-95781000D02*
X150728000Y-95481000D01*
G75*
G02*
X150878000Y-95331000I150000J0D01*
G01*
X152228000Y-95331000D01*
G75*
G02*
X152378000Y-95481000I0J-150000D01*
G01*
X152378000Y-95781000D01*
G75*
G02*
X152228000Y-95931000I-150000J0D01*
G01*
X150878000Y-95931000D01*
G75*
G02*
X150728000Y-95781000I0J150000D01*
G01*
G37*
G36*
G01*
X150728000Y-97051000D02*
X150728000Y-96751000D01*
G75*
G02*
X150878000Y-96601000I150000J0D01*
G01*
X152228000Y-96601000D01*
G75*
G02*
X152378000Y-96751000I0J-150000D01*
G01*
X152378000Y-97051000D01*
G75*
G02*
X152228000Y-97201000I-150000J0D01*
G01*
X150878000Y-97201000D01*
G75*
G02*
X150728000Y-97051000I0J150000D01*
G01*
G37*
G36*
G01*
X150728000Y-98321000D02*
X150728000Y-98021000D01*
G75*
G02*
X150878000Y-97871000I150000J0D01*
G01*
X152228000Y-97871000D01*
G75*
G02*
X152378000Y-98021000I0J-150000D01*
G01*
X152378000Y-98321000D01*
G75*
G02*
X152228000Y-98471000I-150000J0D01*
G01*
X150878000Y-98471000D01*
G75*
G02*
X150728000Y-98321000I0J150000D01*
G01*
G37*
G36*
G01*
X155978000Y-98321000D02*
X155978000Y-98021000D01*
G75*
G02*
X156128000Y-97871000I150000J0D01*
G01*
X157478000Y-97871000D01*
G75*
G02*
X157628000Y-98021000I0J-150000D01*
G01*
X157628000Y-98321000D01*
G75*
G02*
X157478000Y-98471000I-150000J0D01*
G01*
X156128000Y-98471000D01*
G75*
G02*
X155978000Y-98321000I0J150000D01*
G01*
G37*
G36*
G01*
X155978000Y-97051000D02*
X155978000Y-96751000D01*
G75*
G02*
X156128000Y-96601000I150000J0D01*
G01*
X157478000Y-96601000D01*
G75*
G02*
X157628000Y-96751000I0J-150000D01*
G01*
X157628000Y-97051000D01*
G75*
G02*
X157478000Y-97201000I-150000J0D01*
G01*
X156128000Y-97201000D01*
G75*
G02*
X155978000Y-97051000I0J150000D01*
G01*
G37*
G36*
G01*
X155978000Y-95781000D02*
X155978000Y-95481000D01*
G75*
G02*
X156128000Y-95331000I150000J0D01*
G01*
X157478000Y-95331000D01*
G75*
G02*
X157628000Y-95481000I0J-150000D01*
G01*
X157628000Y-95781000D01*
G75*
G02*
X157478000Y-95931000I-150000J0D01*
G01*
X156128000Y-95931000D01*
G75*
G02*
X155978000Y-95781000I0J150000D01*
G01*
G37*
G36*
G01*
X155978000Y-94511000D02*
X155978000Y-94211000D01*
G75*
G02*
X156128000Y-94061000I150000J0D01*
G01*
X157478000Y-94061000D01*
G75*
G02*
X157628000Y-94211000I0J-150000D01*
G01*
X157628000Y-94511000D01*
G75*
G02*
X157478000Y-94661000I-150000J0D01*
G01*
X156128000Y-94661000D01*
G75*
G02*
X155978000Y-94511000I0J150000D01*
G01*
G37*
%TD*%
%TO.C,U13*%
G36*
G01*
X116946000Y-115339000D02*
X116946000Y-115039000D01*
G75*
G02*
X117096000Y-114889000I150000J0D01*
G01*
X118446000Y-114889000D01*
G75*
G02*
X118596000Y-115039000I0J-150000D01*
G01*
X118596000Y-115339000D01*
G75*
G02*
X118446000Y-115489000I-150000J0D01*
G01*
X117096000Y-115489000D01*
G75*
G02*
X116946000Y-115339000I0J150000D01*
G01*
G37*
G36*
G01*
X116946000Y-116609000D02*
X116946000Y-116309000D01*
G75*
G02*
X117096000Y-116159000I150000J0D01*
G01*
X118446000Y-116159000D01*
G75*
G02*
X118596000Y-116309000I0J-150000D01*
G01*
X118596000Y-116609000D01*
G75*
G02*
X118446000Y-116759000I-150000J0D01*
G01*
X117096000Y-116759000D01*
G75*
G02*
X116946000Y-116609000I0J150000D01*
G01*
G37*
G36*
G01*
X116946000Y-117879000D02*
X116946000Y-117579000D01*
G75*
G02*
X117096000Y-117429000I150000J0D01*
G01*
X118446000Y-117429000D01*
G75*
G02*
X118596000Y-117579000I0J-150000D01*
G01*
X118596000Y-117879000D01*
G75*
G02*
X118446000Y-118029000I-150000J0D01*
G01*
X117096000Y-118029000D01*
G75*
G02*
X116946000Y-117879000I0J150000D01*
G01*
G37*
G36*
G01*
X116946000Y-119149000D02*
X116946000Y-118849000D01*
G75*
G02*
X117096000Y-118699000I150000J0D01*
G01*
X118446000Y-118699000D01*
G75*
G02*
X118596000Y-118849000I0J-150000D01*
G01*
X118596000Y-119149000D01*
G75*
G02*
X118446000Y-119299000I-150000J0D01*
G01*
X117096000Y-119299000D01*
G75*
G02*
X116946000Y-119149000I0J150000D01*
G01*
G37*
G36*
G01*
X122196000Y-119149000D02*
X122196000Y-118849000D01*
G75*
G02*
X122346000Y-118699000I150000J0D01*
G01*
X123696000Y-118699000D01*
G75*
G02*
X123846000Y-118849000I0J-150000D01*
G01*
X123846000Y-119149000D01*
G75*
G02*
X123696000Y-119299000I-150000J0D01*
G01*
X122346000Y-119299000D01*
G75*
G02*
X122196000Y-119149000I0J150000D01*
G01*
G37*
G36*
G01*
X122196000Y-117879000D02*
X122196000Y-117579000D01*
G75*
G02*
X122346000Y-117429000I150000J0D01*
G01*
X123696000Y-117429000D01*
G75*
G02*
X123846000Y-117579000I0J-150000D01*
G01*
X123846000Y-117879000D01*
G75*
G02*
X123696000Y-118029000I-150000J0D01*
G01*
X122346000Y-118029000D01*
G75*
G02*
X122196000Y-117879000I0J150000D01*
G01*
G37*
G36*
G01*
X122196000Y-116609000D02*
X122196000Y-116309000D01*
G75*
G02*
X122346000Y-116159000I150000J0D01*
G01*
X123696000Y-116159000D01*
G75*
G02*
X123846000Y-116309000I0J-150000D01*
G01*
X123846000Y-116609000D01*
G75*
G02*
X123696000Y-116759000I-150000J0D01*
G01*
X122346000Y-116759000D01*
G75*
G02*
X122196000Y-116609000I0J150000D01*
G01*
G37*
G36*
G01*
X122196000Y-115339000D02*
X122196000Y-115039000D01*
G75*
G02*
X122346000Y-114889000I150000J0D01*
G01*
X123696000Y-114889000D01*
G75*
G02*
X123846000Y-115039000I0J-150000D01*
G01*
X123846000Y-115339000D01*
G75*
G02*
X123696000Y-115489000I-150000J0D01*
G01*
X122346000Y-115489000D01*
G75*
G02*
X122196000Y-115339000I0J150000D01*
G01*
G37*
%TD*%
%TO.C,U14*%
G36*
G01*
X196025000Y-75080000D02*
X196025000Y-74780000D01*
G75*
G02*
X196175000Y-74630000I150000J0D01*
G01*
X197525000Y-74630000D01*
G75*
G02*
X197675000Y-74780000I0J-150000D01*
G01*
X197675000Y-75080000D01*
G75*
G02*
X197525000Y-75230000I-150000J0D01*
G01*
X196175000Y-75230000D01*
G75*
G02*
X196025000Y-75080000I0J150000D01*
G01*
G37*
G36*
G01*
X196025000Y-76350000D02*
X196025000Y-76050000D01*
G75*
G02*
X196175000Y-75900000I150000J0D01*
G01*
X197525000Y-75900000D01*
G75*
G02*
X197675000Y-76050000I0J-150000D01*
G01*
X197675000Y-76350000D01*
G75*
G02*
X197525000Y-76500000I-150000J0D01*
G01*
X196175000Y-76500000D01*
G75*
G02*
X196025000Y-76350000I0J150000D01*
G01*
G37*
G36*
G01*
X196025000Y-77620000D02*
X196025000Y-77320000D01*
G75*
G02*
X196175000Y-77170000I150000J0D01*
G01*
X197525000Y-77170000D01*
G75*
G02*
X197675000Y-77320000I0J-150000D01*
G01*
X197675000Y-77620000D01*
G75*
G02*
X197525000Y-77770000I-150000J0D01*
G01*
X196175000Y-77770000D01*
G75*
G02*
X196025000Y-77620000I0J150000D01*
G01*
G37*
G36*
G01*
X196025000Y-78890000D02*
X196025000Y-78590000D01*
G75*
G02*
X196175000Y-78440000I150000J0D01*
G01*
X197525000Y-78440000D01*
G75*
G02*
X197675000Y-78590000I0J-150000D01*
G01*
X197675000Y-78890000D01*
G75*
G02*
X197525000Y-79040000I-150000J0D01*
G01*
X196175000Y-79040000D01*
G75*
G02*
X196025000Y-78890000I0J150000D01*
G01*
G37*
G36*
G01*
X190775000Y-78890000D02*
X190775000Y-78590000D01*
G75*
G02*
X190925000Y-78440000I150000J0D01*
G01*
X192275000Y-78440000D01*
G75*
G02*
X192425000Y-78590000I0J-150000D01*
G01*
X192425000Y-78890000D01*
G75*
G02*
X192275000Y-79040000I-150000J0D01*
G01*
X190925000Y-79040000D01*
G75*
G02*
X190775000Y-78890000I0J150000D01*
G01*
G37*
G36*
G01*
X190775000Y-77620000D02*
X190775000Y-77320000D01*
G75*
G02*
X190925000Y-77170000I150000J0D01*
G01*
X192275000Y-77170000D01*
G75*
G02*
X192425000Y-77320000I0J-150000D01*
G01*
X192425000Y-77620000D01*
G75*
G02*
X192275000Y-77770000I-150000J0D01*
G01*
X190925000Y-77770000D01*
G75*
G02*
X190775000Y-77620000I0J150000D01*
G01*
G37*
G36*
G01*
X190775000Y-76350000D02*
X190775000Y-76050000D01*
G75*
G02*
X190925000Y-75900000I150000J0D01*
G01*
X192275000Y-75900000D01*
G75*
G02*
X192425000Y-76050000I0J-150000D01*
G01*
X192425000Y-76350000D01*
G75*
G02*
X192275000Y-76500000I-150000J0D01*
G01*
X190925000Y-76500000D01*
G75*
G02*
X190775000Y-76350000I0J150000D01*
G01*
G37*
G36*
G01*
X190775000Y-75080000D02*
X190775000Y-74780000D01*
G75*
G02*
X190925000Y-74630000I150000J0D01*
G01*
X192275000Y-74630000D01*
G75*
G02*
X192425000Y-74780000I0J-150000D01*
G01*
X192425000Y-75080000D01*
G75*
G02*
X192275000Y-75230000I-150000J0D01*
G01*
X190925000Y-75230000D01*
G75*
G02*
X190775000Y-75080000I0J150000D01*
G01*
G37*
%TD*%
%TO.C,U15*%
G36*
G01*
X196872000Y-94257000D02*
X196872000Y-93957000D01*
G75*
G02*
X197022000Y-93807000I150000J0D01*
G01*
X198372000Y-93807000D01*
G75*
G02*
X198522000Y-93957000I0J-150000D01*
G01*
X198522000Y-94257000D01*
G75*
G02*
X198372000Y-94407000I-150000J0D01*
G01*
X197022000Y-94407000D01*
G75*
G02*
X196872000Y-94257000I0J150000D01*
G01*
G37*
G36*
G01*
X196872000Y-95527000D02*
X196872000Y-95227000D01*
G75*
G02*
X197022000Y-95077000I150000J0D01*
G01*
X198372000Y-95077000D01*
G75*
G02*
X198522000Y-95227000I0J-150000D01*
G01*
X198522000Y-95527000D01*
G75*
G02*
X198372000Y-95677000I-150000J0D01*
G01*
X197022000Y-95677000D01*
G75*
G02*
X196872000Y-95527000I0J150000D01*
G01*
G37*
G36*
G01*
X196872000Y-96797000D02*
X196872000Y-96497000D01*
G75*
G02*
X197022000Y-96347000I150000J0D01*
G01*
X198372000Y-96347000D01*
G75*
G02*
X198522000Y-96497000I0J-150000D01*
G01*
X198522000Y-96797000D01*
G75*
G02*
X198372000Y-96947000I-150000J0D01*
G01*
X197022000Y-96947000D01*
G75*
G02*
X196872000Y-96797000I0J150000D01*
G01*
G37*
G36*
G01*
X196872000Y-98067000D02*
X196872000Y-97767000D01*
G75*
G02*
X197022000Y-97617000I150000J0D01*
G01*
X198372000Y-97617000D01*
G75*
G02*
X198522000Y-97767000I0J-150000D01*
G01*
X198522000Y-98067000D01*
G75*
G02*
X198372000Y-98217000I-150000J0D01*
G01*
X197022000Y-98217000D01*
G75*
G02*
X196872000Y-98067000I0J150000D01*
G01*
G37*
G36*
G01*
X191622000Y-98067000D02*
X191622000Y-97767000D01*
G75*
G02*
X191772000Y-97617000I150000J0D01*
G01*
X193122000Y-97617000D01*
G75*
G02*
X193272000Y-97767000I0J-150000D01*
G01*
X193272000Y-98067000D01*
G75*
G02*
X193122000Y-98217000I-150000J0D01*
G01*
X191772000Y-98217000D01*
G75*
G02*
X191622000Y-98067000I0J150000D01*
G01*
G37*
G36*
G01*
X191622000Y-96797000D02*
X191622000Y-96497000D01*
G75*
G02*
X191772000Y-96347000I150000J0D01*
G01*
X193122000Y-96347000D01*
G75*
G02*
X193272000Y-96497000I0J-150000D01*
G01*
X193272000Y-96797000D01*
G75*
G02*
X193122000Y-96947000I-150000J0D01*
G01*
X191772000Y-96947000D01*
G75*
G02*
X191622000Y-96797000I0J150000D01*
G01*
G37*
G36*
G01*
X191622000Y-95527000D02*
X191622000Y-95227000D01*
G75*
G02*
X191772000Y-95077000I150000J0D01*
G01*
X193122000Y-95077000D01*
G75*
G02*
X193272000Y-95227000I0J-150000D01*
G01*
X193272000Y-95527000D01*
G75*
G02*
X193122000Y-95677000I-150000J0D01*
G01*
X191772000Y-95677000D01*
G75*
G02*
X191622000Y-95527000I0J150000D01*
G01*
G37*
G36*
G01*
X191622000Y-94257000D02*
X191622000Y-93957000D01*
G75*
G02*
X191772000Y-93807000I150000J0D01*
G01*
X193122000Y-93807000D01*
G75*
G02*
X193272000Y-93957000I0J-150000D01*
G01*
X193272000Y-94257000D01*
G75*
G02*
X193122000Y-94407000I-150000J0D01*
G01*
X191772000Y-94407000D01*
G75*
G02*
X191622000Y-94257000I0J150000D01*
G01*
G37*
%TD*%
%TO.C,U16*%
G36*
G01*
X161142000Y-114831000D02*
X161142000Y-114531000D01*
G75*
G02*
X161292000Y-114381000I150000J0D01*
G01*
X162642000Y-114381000D01*
G75*
G02*
X162792000Y-114531000I0J-150000D01*
G01*
X162792000Y-114831000D01*
G75*
G02*
X162642000Y-114981000I-150000J0D01*
G01*
X161292000Y-114981000D01*
G75*
G02*
X161142000Y-114831000I0J150000D01*
G01*
G37*
G36*
G01*
X161142000Y-116101000D02*
X161142000Y-115801000D01*
G75*
G02*
X161292000Y-115651000I150000J0D01*
G01*
X162642000Y-115651000D01*
G75*
G02*
X162792000Y-115801000I0J-150000D01*
G01*
X162792000Y-116101000D01*
G75*
G02*
X162642000Y-116251000I-150000J0D01*
G01*
X161292000Y-116251000D01*
G75*
G02*
X161142000Y-116101000I0J150000D01*
G01*
G37*
G36*
G01*
X161142000Y-117371000D02*
X161142000Y-117071000D01*
G75*
G02*
X161292000Y-116921000I150000J0D01*
G01*
X162642000Y-116921000D01*
G75*
G02*
X162792000Y-117071000I0J-150000D01*
G01*
X162792000Y-117371000D01*
G75*
G02*
X162642000Y-117521000I-150000J0D01*
G01*
X161292000Y-117521000D01*
G75*
G02*
X161142000Y-117371000I0J150000D01*
G01*
G37*
G36*
G01*
X161142000Y-118641000D02*
X161142000Y-118341000D01*
G75*
G02*
X161292000Y-118191000I150000J0D01*
G01*
X162642000Y-118191000D01*
G75*
G02*
X162792000Y-118341000I0J-150000D01*
G01*
X162792000Y-118641000D01*
G75*
G02*
X162642000Y-118791000I-150000J0D01*
G01*
X161292000Y-118791000D01*
G75*
G02*
X161142000Y-118641000I0J150000D01*
G01*
G37*
G36*
G01*
X166392000Y-118641000D02*
X166392000Y-118341000D01*
G75*
G02*
X166542000Y-118191000I150000J0D01*
G01*
X167892000Y-118191000D01*
G75*
G02*
X168042000Y-118341000I0J-150000D01*
G01*
X168042000Y-118641000D01*
G75*
G02*
X167892000Y-118791000I-150000J0D01*
G01*
X166542000Y-118791000D01*
G75*
G02*
X166392000Y-118641000I0J150000D01*
G01*
G37*
G36*
G01*
X166392000Y-117371000D02*
X166392000Y-117071000D01*
G75*
G02*
X166542000Y-116921000I150000J0D01*
G01*
X167892000Y-116921000D01*
G75*
G02*
X168042000Y-117071000I0J-150000D01*
G01*
X168042000Y-117371000D01*
G75*
G02*
X167892000Y-117521000I-150000J0D01*
G01*
X166542000Y-117521000D01*
G75*
G02*
X166392000Y-117371000I0J150000D01*
G01*
G37*
G36*
G01*
X166392000Y-116101000D02*
X166392000Y-115801000D01*
G75*
G02*
X166542000Y-115651000I150000J0D01*
G01*
X167892000Y-115651000D01*
G75*
G02*
X168042000Y-115801000I0J-150000D01*
G01*
X168042000Y-116101000D01*
G75*
G02*
X167892000Y-116251000I-150000J0D01*
G01*
X166542000Y-116251000D01*
G75*
G02*
X166392000Y-116101000I0J150000D01*
G01*
G37*
G36*
G01*
X166392000Y-114831000D02*
X166392000Y-114531000D01*
G75*
G02*
X166542000Y-114381000I150000J0D01*
G01*
X167892000Y-114381000D01*
G75*
G02*
X168042000Y-114531000I0J-150000D01*
G01*
X168042000Y-114831000D01*
G75*
G02*
X167892000Y-114981000I-150000J0D01*
G01*
X166542000Y-114981000D01*
G75*
G02*
X166392000Y-114831000I0J150000D01*
G01*
G37*
%TD*%
%TO.C,U17*%
G36*
G01*
X38884000Y-151915000D02*
X38884000Y-151615000D01*
G75*
G02*
X39034000Y-151465000I150000J0D01*
G01*
X40384000Y-151465000D01*
G75*
G02*
X40534000Y-151615000I0J-150000D01*
G01*
X40534000Y-151915000D01*
G75*
G02*
X40384000Y-152065000I-150000J0D01*
G01*
X39034000Y-152065000D01*
G75*
G02*
X38884000Y-151915000I0J150000D01*
G01*
G37*
G36*
G01*
X38884000Y-153185000D02*
X38884000Y-152885000D01*
G75*
G02*
X39034000Y-152735000I150000J0D01*
G01*
X40384000Y-152735000D01*
G75*
G02*
X40534000Y-152885000I0J-150000D01*
G01*
X40534000Y-153185000D01*
G75*
G02*
X40384000Y-153335000I-150000J0D01*
G01*
X39034000Y-153335000D01*
G75*
G02*
X38884000Y-153185000I0J150000D01*
G01*
G37*
G36*
G01*
X38884000Y-154455000D02*
X38884000Y-154155000D01*
G75*
G02*
X39034000Y-154005000I150000J0D01*
G01*
X40384000Y-154005000D01*
G75*
G02*
X40534000Y-154155000I0J-150000D01*
G01*
X40534000Y-154455000D01*
G75*
G02*
X40384000Y-154605000I-150000J0D01*
G01*
X39034000Y-154605000D01*
G75*
G02*
X38884000Y-154455000I0J150000D01*
G01*
G37*
G36*
G01*
X38884000Y-155725000D02*
X38884000Y-155425000D01*
G75*
G02*
X39034000Y-155275000I150000J0D01*
G01*
X40384000Y-155275000D01*
G75*
G02*
X40534000Y-155425000I0J-150000D01*
G01*
X40534000Y-155725000D01*
G75*
G02*
X40384000Y-155875000I-150000J0D01*
G01*
X39034000Y-155875000D01*
G75*
G02*
X38884000Y-155725000I0J150000D01*
G01*
G37*
G36*
G01*
X33634000Y-155725000D02*
X33634000Y-155425000D01*
G75*
G02*
X33784000Y-155275000I150000J0D01*
G01*
X35134000Y-155275000D01*
G75*
G02*
X35284000Y-155425000I0J-150000D01*
G01*
X35284000Y-155725000D01*
G75*
G02*
X35134000Y-155875000I-150000J0D01*
G01*
X33784000Y-155875000D01*
G75*
G02*
X33634000Y-155725000I0J150000D01*
G01*
G37*
G36*
G01*
X33634000Y-154455000D02*
X33634000Y-154155000D01*
G75*
G02*
X33784000Y-154005000I150000J0D01*
G01*
X35134000Y-154005000D01*
G75*
G02*
X35284000Y-154155000I0J-150000D01*
G01*
X35284000Y-154455000D01*
G75*
G02*
X35134000Y-154605000I-150000J0D01*
G01*
X33784000Y-154605000D01*
G75*
G02*
X33634000Y-154455000I0J150000D01*
G01*
G37*
G36*
G01*
X33634000Y-153185000D02*
X33634000Y-152885000D01*
G75*
G02*
X33784000Y-152735000I150000J0D01*
G01*
X35134000Y-152735000D01*
G75*
G02*
X35284000Y-152885000I0J-150000D01*
G01*
X35284000Y-153185000D01*
G75*
G02*
X35134000Y-153335000I-150000J0D01*
G01*
X33784000Y-153335000D01*
G75*
G02*
X33634000Y-153185000I0J150000D01*
G01*
G37*
G36*
G01*
X33634000Y-151915000D02*
X33634000Y-151615000D01*
G75*
G02*
X33784000Y-151465000I150000J0D01*
G01*
X35134000Y-151465000D01*
G75*
G02*
X35284000Y-151615000I0J-150000D01*
G01*
X35284000Y-151915000D01*
G75*
G02*
X35134000Y-152065000I-150000J0D01*
G01*
X33784000Y-152065000D01*
G75*
G02*
X33634000Y-151915000I0J150000D01*
G01*
G37*
%TD*%
%TO.C,U18*%
G36*
G01*
X188828000Y-113815000D02*
X188828000Y-113515000D01*
G75*
G02*
X188978000Y-113365000I150000J0D01*
G01*
X190328000Y-113365000D01*
G75*
G02*
X190478000Y-113515000I0J-150000D01*
G01*
X190478000Y-113815000D01*
G75*
G02*
X190328000Y-113965000I-150000J0D01*
G01*
X188978000Y-113965000D01*
G75*
G02*
X188828000Y-113815000I0J150000D01*
G01*
G37*
G36*
G01*
X188828000Y-115085000D02*
X188828000Y-114785000D01*
G75*
G02*
X188978000Y-114635000I150000J0D01*
G01*
X190328000Y-114635000D01*
G75*
G02*
X190478000Y-114785000I0J-150000D01*
G01*
X190478000Y-115085000D01*
G75*
G02*
X190328000Y-115235000I-150000J0D01*
G01*
X188978000Y-115235000D01*
G75*
G02*
X188828000Y-115085000I0J150000D01*
G01*
G37*
G36*
G01*
X188828000Y-116355000D02*
X188828000Y-116055000D01*
G75*
G02*
X188978000Y-115905000I150000J0D01*
G01*
X190328000Y-115905000D01*
G75*
G02*
X190478000Y-116055000I0J-150000D01*
G01*
X190478000Y-116355000D01*
G75*
G02*
X190328000Y-116505000I-150000J0D01*
G01*
X188978000Y-116505000D01*
G75*
G02*
X188828000Y-116355000I0J150000D01*
G01*
G37*
G36*
G01*
X188828000Y-117625000D02*
X188828000Y-117325000D01*
G75*
G02*
X188978000Y-117175000I150000J0D01*
G01*
X190328000Y-117175000D01*
G75*
G02*
X190478000Y-117325000I0J-150000D01*
G01*
X190478000Y-117625000D01*
G75*
G02*
X190328000Y-117775000I-150000J0D01*
G01*
X188978000Y-117775000D01*
G75*
G02*
X188828000Y-117625000I0J150000D01*
G01*
G37*
G36*
G01*
X194078000Y-117625000D02*
X194078000Y-117325000D01*
G75*
G02*
X194228000Y-117175000I150000J0D01*
G01*
X195578000Y-117175000D01*
G75*
G02*
X195728000Y-117325000I0J-150000D01*
G01*
X195728000Y-117625000D01*
G75*
G02*
X195578000Y-117775000I-150000J0D01*
G01*
X194228000Y-117775000D01*
G75*
G02*
X194078000Y-117625000I0J150000D01*
G01*
G37*
G36*
G01*
X194078000Y-116355000D02*
X194078000Y-116055000D01*
G75*
G02*
X194228000Y-115905000I150000J0D01*
G01*
X195578000Y-115905000D01*
G75*
G02*
X195728000Y-116055000I0J-150000D01*
G01*
X195728000Y-116355000D01*
G75*
G02*
X195578000Y-116505000I-150000J0D01*
G01*
X194228000Y-116505000D01*
G75*
G02*
X194078000Y-116355000I0J150000D01*
G01*
G37*
G36*
G01*
X194078000Y-115085000D02*
X194078000Y-114785000D01*
G75*
G02*
X194228000Y-114635000I150000J0D01*
G01*
X195578000Y-114635000D01*
G75*
G02*
X195728000Y-114785000I0J-150000D01*
G01*
X195728000Y-115085000D01*
G75*
G02*
X195578000Y-115235000I-150000J0D01*
G01*
X194228000Y-115235000D01*
G75*
G02*
X194078000Y-115085000I0J150000D01*
G01*
G37*
G36*
G01*
X194078000Y-113815000D02*
X194078000Y-113515000D01*
G75*
G02*
X194228000Y-113365000I150000J0D01*
G01*
X195578000Y-113365000D01*
G75*
G02*
X195728000Y-113515000I0J-150000D01*
G01*
X195728000Y-113815000D01*
G75*
G02*
X195578000Y-113965000I-150000J0D01*
G01*
X194228000Y-113965000D01*
G75*
G02*
X194078000Y-113815000I0J150000D01*
G01*
G37*
%TD*%
%TO.C,U19*%
G36*
G01*
X141754000Y-153185000D02*
X141754000Y-152885000D01*
G75*
G02*
X141904000Y-152735000I150000J0D01*
G01*
X143254000Y-152735000D01*
G75*
G02*
X143404000Y-152885000I0J-150000D01*
G01*
X143404000Y-153185000D01*
G75*
G02*
X143254000Y-153335000I-150000J0D01*
G01*
X141904000Y-153335000D01*
G75*
G02*
X141754000Y-153185000I0J150000D01*
G01*
G37*
G36*
G01*
X141754000Y-154455000D02*
X141754000Y-154155000D01*
G75*
G02*
X141904000Y-154005000I150000J0D01*
G01*
X143254000Y-154005000D01*
G75*
G02*
X143404000Y-154155000I0J-150000D01*
G01*
X143404000Y-154455000D01*
G75*
G02*
X143254000Y-154605000I-150000J0D01*
G01*
X141904000Y-154605000D01*
G75*
G02*
X141754000Y-154455000I0J150000D01*
G01*
G37*
G36*
G01*
X141754000Y-155725000D02*
X141754000Y-155425000D01*
G75*
G02*
X141904000Y-155275000I150000J0D01*
G01*
X143254000Y-155275000D01*
G75*
G02*
X143404000Y-155425000I0J-150000D01*
G01*
X143404000Y-155725000D01*
G75*
G02*
X143254000Y-155875000I-150000J0D01*
G01*
X141904000Y-155875000D01*
G75*
G02*
X141754000Y-155725000I0J150000D01*
G01*
G37*
G36*
G01*
X141754000Y-156995000D02*
X141754000Y-156695000D01*
G75*
G02*
X141904000Y-156545000I150000J0D01*
G01*
X143254000Y-156545000D01*
G75*
G02*
X143404000Y-156695000I0J-150000D01*
G01*
X143404000Y-156995000D01*
G75*
G02*
X143254000Y-157145000I-150000J0D01*
G01*
X141904000Y-157145000D01*
G75*
G02*
X141754000Y-156995000I0J150000D01*
G01*
G37*
G36*
G01*
X136504000Y-156995000D02*
X136504000Y-156695000D01*
G75*
G02*
X136654000Y-156545000I150000J0D01*
G01*
X138004000Y-156545000D01*
G75*
G02*
X138154000Y-156695000I0J-150000D01*
G01*
X138154000Y-156995000D01*
G75*
G02*
X138004000Y-157145000I-150000J0D01*
G01*
X136654000Y-157145000D01*
G75*
G02*
X136504000Y-156995000I0J150000D01*
G01*
G37*
G36*
G01*
X136504000Y-155725000D02*
X136504000Y-155425000D01*
G75*
G02*
X136654000Y-155275000I150000J0D01*
G01*
X138004000Y-155275000D01*
G75*
G02*
X138154000Y-155425000I0J-150000D01*
G01*
X138154000Y-155725000D01*
G75*
G02*
X138004000Y-155875000I-150000J0D01*
G01*
X136654000Y-155875000D01*
G75*
G02*
X136504000Y-155725000I0J150000D01*
G01*
G37*
G36*
G01*
X136504000Y-154455000D02*
X136504000Y-154155000D01*
G75*
G02*
X136654000Y-154005000I150000J0D01*
G01*
X138004000Y-154005000D01*
G75*
G02*
X138154000Y-154155000I0J-150000D01*
G01*
X138154000Y-154455000D01*
G75*
G02*
X138004000Y-154605000I-150000J0D01*
G01*
X136654000Y-154605000D01*
G75*
G02*
X136504000Y-154455000I0J150000D01*
G01*
G37*
G36*
G01*
X136504000Y-153185000D02*
X136504000Y-152885000D01*
G75*
G02*
X136654000Y-152735000I150000J0D01*
G01*
X138004000Y-152735000D01*
G75*
G02*
X138154000Y-152885000I0J-150000D01*
G01*
X138154000Y-153185000D01*
G75*
G02*
X138004000Y-153335000I-150000J0D01*
G01*
X136654000Y-153335000D01*
G75*
G02*
X136504000Y-153185000I0J150000D01*
G01*
G37*
%TD*%
%TO.C,U20*%
G36*
G01*
X86382000Y-152931000D02*
X86382000Y-152631000D01*
G75*
G02*
X86532000Y-152481000I150000J0D01*
G01*
X87882000Y-152481000D01*
G75*
G02*
X88032000Y-152631000I0J-150000D01*
G01*
X88032000Y-152931000D01*
G75*
G02*
X87882000Y-153081000I-150000J0D01*
G01*
X86532000Y-153081000D01*
G75*
G02*
X86382000Y-152931000I0J150000D01*
G01*
G37*
G36*
G01*
X86382000Y-154201000D02*
X86382000Y-153901000D01*
G75*
G02*
X86532000Y-153751000I150000J0D01*
G01*
X87882000Y-153751000D01*
G75*
G02*
X88032000Y-153901000I0J-150000D01*
G01*
X88032000Y-154201000D01*
G75*
G02*
X87882000Y-154351000I-150000J0D01*
G01*
X86532000Y-154351000D01*
G75*
G02*
X86382000Y-154201000I0J150000D01*
G01*
G37*
G36*
G01*
X86382000Y-155471000D02*
X86382000Y-155171000D01*
G75*
G02*
X86532000Y-155021000I150000J0D01*
G01*
X87882000Y-155021000D01*
G75*
G02*
X88032000Y-155171000I0J-150000D01*
G01*
X88032000Y-155471000D01*
G75*
G02*
X87882000Y-155621000I-150000J0D01*
G01*
X86532000Y-155621000D01*
G75*
G02*
X86382000Y-155471000I0J150000D01*
G01*
G37*
G36*
G01*
X86382000Y-156741000D02*
X86382000Y-156441000D01*
G75*
G02*
X86532000Y-156291000I150000J0D01*
G01*
X87882000Y-156291000D01*
G75*
G02*
X88032000Y-156441000I0J-150000D01*
G01*
X88032000Y-156741000D01*
G75*
G02*
X87882000Y-156891000I-150000J0D01*
G01*
X86532000Y-156891000D01*
G75*
G02*
X86382000Y-156741000I0J150000D01*
G01*
G37*
G36*
G01*
X81132000Y-156741000D02*
X81132000Y-156441000D01*
G75*
G02*
X81282000Y-156291000I150000J0D01*
G01*
X82632000Y-156291000D01*
G75*
G02*
X82782000Y-156441000I0J-150000D01*
G01*
X82782000Y-156741000D01*
G75*
G02*
X82632000Y-156891000I-150000J0D01*
G01*
X81282000Y-156891000D01*
G75*
G02*
X81132000Y-156741000I0J150000D01*
G01*
G37*
G36*
G01*
X81132000Y-155471000D02*
X81132000Y-155171000D01*
G75*
G02*
X81282000Y-155021000I150000J0D01*
G01*
X82632000Y-155021000D01*
G75*
G02*
X82782000Y-155171000I0J-150000D01*
G01*
X82782000Y-155471000D01*
G75*
G02*
X82632000Y-155621000I-150000J0D01*
G01*
X81282000Y-155621000D01*
G75*
G02*
X81132000Y-155471000I0J150000D01*
G01*
G37*
G36*
G01*
X81132000Y-154201000D02*
X81132000Y-153901000D01*
G75*
G02*
X81282000Y-153751000I150000J0D01*
G01*
X82632000Y-153751000D01*
G75*
G02*
X82782000Y-153901000I0J-150000D01*
G01*
X82782000Y-154201000D01*
G75*
G02*
X82632000Y-154351000I-150000J0D01*
G01*
X81282000Y-154351000D01*
G75*
G02*
X81132000Y-154201000I0J150000D01*
G01*
G37*
G36*
G01*
X81132000Y-152931000D02*
X81132000Y-152631000D01*
G75*
G02*
X81282000Y-152481000I150000J0D01*
G01*
X82632000Y-152481000D01*
G75*
G02*
X82782000Y-152631000I0J-150000D01*
G01*
X82782000Y-152931000D01*
G75*
G02*
X82632000Y-153081000I-150000J0D01*
G01*
X81282000Y-153081000D01*
G75*
G02*
X81132000Y-152931000I0J150000D01*
G01*
G37*
%TD*%
%TO.C,U21*%
G36*
G01*
X191538000Y-153185000D02*
X191538000Y-152885000D01*
G75*
G02*
X191688000Y-152735000I150000J0D01*
G01*
X193038000Y-152735000D01*
G75*
G02*
X193188000Y-152885000I0J-150000D01*
G01*
X193188000Y-153185000D01*
G75*
G02*
X193038000Y-153335000I-150000J0D01*
G01*
X191688000Y-153335000D01*
G75*
G02*
X191538000Y-153185000I0J150000D01*
G01*
G37*
G36*
G01*
X191538000Y-154455000D02*
X191538000Y-154155000D01*
G75*
G02*
X191688000Y-154005000I150000J0D01*
G01*
X193038000Y-154005000D01*
G75*
G02*
X193188000Y-154155000I0J-150000D01*
G01*
X193188000Y-154455000D01*
G75*
G02*
X193038000Y-154605000I-150000J0D01*
G01*
X191688000Y-154605000D01*
G75*
G02*
X191538000Y-154455000I0J150000D01*
G01*
G37*
G36*
G01*
X191538000Y-155725000D02*
X191538000Y-155425000D01*
G75*
G02*
X191688000Y-155275000I150000J0D01*
G01*
X193038000Y-155275000D01*
G75*
G02*
X193188000Y-155425000I0J-150000D01*
G01*
X193188000Y-155725000D01*
G75*
G02*
X193038000Y-155875000I-150000J0D01*
G01*
X191688000Y-155875000D01*
G75*
G02*
X191538000Y-155725000I0J150000D01*
G01*
G37*
G36*
G01*
X191538000Y-156995000D02*
X191538000Y-156695000D01*
G75*
G02*
X191688000Y-156545000I150000J0D01*
G01*
X193038000Y-156545000D01*
G75*
G02*
X193188000Y-156695000I0J-150000D01*
G01*
X193188000Y-156995000D01*
G75*
G02*
X193038000Y-157145000I-150000J0D01*
G01*
X191688000Y-157145000D01*
G75*
G02*
X191538000Y-156995000I0J150000D01*
G01*
G37*
G36*
G01*
X186288000Y-156995000D02*
X186288000Y-156695000D01*
G75*
G02*
X186438000Y-156545000I150000J0D01*
G01*
X187788000Y-156545000D01*
G75*
G02*
X187938000Y-156695000I0J-150000D01*
G01*
X187938000Y-156995000D01*
G75*
G02*
X187788000Y-157145000I-150000J0D01*
G01*
X186438000Y-157145000D01*
G75*
G02*
X186288000Y-156995000I0J150000D01*
G01*
G37*
G36*
G01*
X186288000Y-155725000D02*
X186288000Y-155425000D01*
G75*
G02*
X186438000Y-155275000I150000J0D01*
G01*
X187788000Y-155275000D01*
G75*
G02*
X187938000Y-155425000I0J-150000D01*
G01*
X187938000Y-155725000D01*
G75*
G02*
X187788000Y-155875000I-150000J0D01*
G01*
X186438000Y-155875000D01*
G75*
G02*
X186288000Y-155725000I0J150000D01*
G01*
G37*
G36*
G01*
X186288000Y-154455000D02*
X186288000Y-154155000D01*
G75*
G02*
X186438000Y-154005000I150000J0D01*
G01*
X187788000Y-154005000D01*
G75*
G02*
X187938000Y-154155000I0J-150000D01*
G01*
X187938000Y-154455000D01*
G75*
G02*
X187788000Y-154605000I-150000J0D01*
G01*
X186438000Y-154605000D01*
G75*
G02*
X186288000Y-154455000I0J150000D01*
G01*
G37*
G36*
G01*
X186288000Y-153185000D02*
X186288000Y-152885000D01*
G75*
G02*
X186438000Y-152735000I150000J0D01*
G01*
X187788000Y-152735000D01*
G75*
G02*
X187938000Y-152885000I0J-150000D01*
G01*
X187938000Y-153185000D01*
G75*
G02*
X187788000Y-153335000I-150000J0D01*
G01*
X186438000Y-153335000D01*
G75*
G02*
X186288000Y-153185000I0J150000D01*
G01*
G37*
%TD*%
M02*
