%TF.GenerationSoftware,KiCad,Pcbnew,5.1.6-c6e7f7d~87~ubuntu18.04.1*%
%TF.CreationDate,2020-10-23T09:17:53+08:00*%
%TF.ProjectId,filter_dev_board_v1.0,66696c74-6572-45f6-9465-765f626f6172,rev?*%
%TF.SameCoordinates,Original*%
%TF.FileFunction,Soldermask,Bot*%
%TF.FilePolarity,Negative*%
%FSLAX46Y46*%
G04 Gerber Fmt 4.6, Leading zero omitted, Abs format (unit mm)*
G04 Created by KiCad (PCBNEW 5.1.6-c6e7f7d~87~ubuntu18.04.1) date 2020-10-23 09:17:53*
%MOMM*%
%LPD*%
G01*
G04 APERTURE LIST*
%ADD10R,1.800000X1.800000*%
%ADD11O,1.800000X1.800000*%
G04 APERTURE END LIST*
D10*
%TO.C,J131*%
X173482000Y-133096000D03*
D11*
X173482000Y-135636000D03*
X173482000Y-138176000D03*
X173482000Y-140716000D03*
%TD*%
D10*
%TO.C,J130*%
X164846000Y-133096000D03*
D11*
X164846000Y-135636000D03*
X164846000Y-138176000D03*
X164846000Y-140716000D03*
%TD*%
D10*
%TO.C,J129*%
X160528000Y-133096000D03*
D11*
X160528000Y-135636000D03*
X160528000Y-138176000D03*
X160528000Y-140716000D03*
%TD*%
D10*
%TO.C,J128*%
X169164000Y-133096000D03*
D11*
X169164000Y-135636000D03*
X169164000Y-138176000D03*
X169164000Y-140716000D03*
%TD*%
D10*
%TO.C,J131*%
X192024000Y-133096000D03*
D11*
X192024000Y-135636000D03*
X192024000Y-138176000D03*
X192024000Y-140716000D03*
%TD*%
D10*
%TO.C,J130*%
X183388000Y-133096000D03*
D11*
X183388000Y-135636000D03*
X183388000Y-138176000D03*
X183388000Y-140716000D03*
%TD*%
D10*
%TO.C,J129*%
X179070000Y-133096000D03*
D11*
X179070000Y-135636000D03*
X179070000Y-138176000D03*
X179070000Y-140716000D03*
%TD*%
D10*
%TO.C,J128*%
X187706000Y-133096000D03*
D11*
X187706000Y-135636000D03*
X187706000Y-138176000D03*
X187706000Y-140716000D03*
%TD*%
%TO.C,J131*%
X214884000Y-140462000D03*
X214884000Y-137922000D03*
X214884000Y-135382000D03*
D10*
X214884000Y-132842000D03*
%TD*%
D11*
%TO.C,J130*%
X206248000Y-140462000D03*
X206248000Y-137922000D03*
X206248000Y-135382000D03*
D10*
X206248000Y-132842000D03*
%TD*%
D11*
%TO.C,J129*%
X201930000Y-140462000D03*
X201930000Y-137922000D03*
X201930000Y-135382000D03*
D10*
X201930000Y-132842000D03*
%TD*%
D11*
%TO.C,J128*%
X210566000Y-140462000D03*
X210566000Y-137922000D03*
X210566000Y-135382000D03*
D10*
X210566000Y-132842000D03*
%TD*%
D11*
%TO.C,J1*%
X22098000Y-121158000D03*
X22098000Y-118618000D03*
X22098000Y-116078000D03*
D10*
X22098000Y-113538000D03*
%TD*%
D11*
%TO.C,J2*%
X50292000Y-121158000D03*
X50292000Y-118618000D03*
X50292000Y-116078000D03*
D10*
X50292000Y-113538000D03*
%TD*%
%TO.C,J3*%
X21590000Y-93472000D03*
D11*
X21590000Y-96012000D03*
X21590000Y-98552000D03*
X21590000Y-101092000D03*
%TD*%
D10*
%TO.C,J4*%
X50292000Y-93726000D03*
D11*
X50292000Y-96266000D03*
X50292000Y-98806000D03*
X50292000Y-101346000D03*
%TD*%
D10*
%TO.C,J5*%
X22606000Y-133350000D03*
D11*
X22606000Y-135890000D03*
X22606000Y-138430000D03*
X22606000Y-140970000D03*
%TD*%
%TO.C,J6*%
X50800000Y-140462000D03*
X50800000Y-137922000D03*
X50800000Y-135382000D03*
D10*
X50800000Y-132842000D03*
%TD*%
%TO.C,J7*%
X22098000Y-74676000D03*
D11*
X22098000Y-77216000D03*
X22098000Y-79756000D03*
X22098000Y-82296000D03*
%TD*%
D10*
%TO.C,J8*%
X50038000Y-73914000D03*
D11*
X50038000Y-76454000D03*
X50038000Y-78994000D03*
X50038000Y-81534000D03*
%TD*%
%TO.C,J9*%
X38354000Y-131064000D03*
D10*
X35814000Y-131064000D03*
%TD*%
D11*
%TO.C,J10*%
X40132000Y-71882000D03*
D10*
X37592000Y-71882000D03*
%TD*%
D11*
%TO.C,J11*%
X37846000Y-91440000D03*
D10*
X35306000Y-91440000D03*
%TD*%
%TO.C,J12*%
X35052000Y-111252000D03*
D11*
X37592000Y-111252000D03*
%TD*%
%TO.C,J13*%
X38608000Y-142240000D03*
D10*
X36068000Y-142240000D03*
%TD*%
D11*
%TO.C,J14*%
X40132000Y-83312000D03*
D10*
X37592000Y-83312000D03*
%TD*%
D11*
%TO.C,J15*%
X37846000Y-102870000D03*
D10*
X35306000Y-102870000D03*
%TD*%
D11*
%TO.C,J16*%
X37592000Y-122682000D03*
D10*
X35052000Y-122682000D03*
%TD*%
%TO.C,J17*%
X26924000Y-74676000D03*
D11*
X26924000Y-77216000D03*
X26924000Y-79756000D03*
X26924000Y-82296000D03*
%TD*%
D10*
%TO.C,J18*%
X54610000Y-73914000D03*
D11*
X54610000Y-76454000D03*
X54610000Y-78994000D03*
X54610000Y-81534000D03*
%TD*%
%TO.C,J19*%
X26162000Y-101092000D03*
X26162000Y-98552000D03*
X26162000Y-96012000D03*
D10*
X26162000Y-93472000D03*
%TD*%
D11*
%TO.C,J20*%
X54610000Y-101346000D03*
X54610000Y-98806000D03*
X54610000Y-96266000D03*
D10*
X54610000Y-93726000D03*
%TD*%
%TO.C,J21*%
X26924000Y-133350000D03*
D11*
X26924000Y-135890000D03*
X26924000Y-138430000D03*
X26924000Y-140970000D03*
%TD*%
D10*
%TO.C,J22*%
X54864000Y-132842000D03*
D11*
X54864000Y-135382000D03*
X54864000Y-137922000D03*
X54864000Y-140462000D03*
%TD*%
D10*
%TO.C,J23*%
X26162000Y-113538000D03*
D11*
X26162000Y-116078000D03*
X26162000Y-118618000D03*
X26162000Y-121158000D03*
%TD*%
%TO.C,J24*%
X54610000Y-121158000D03*
X54610000Y-118618000D03*
X54610000Y-116078000D03*
D10*
X54610000Y-113538000D03*
%TD*%
%TO.C,J25*%
X74930000Y-133858000D03*
D11*
X74930000Y-136398000D03*
X74930000Y-138938000D03*
X74930000Y-141478000D03*
%TD*%
D10*
%TO.C,J26*%
X78232000Y-110998000D03*
D11*
X80772000Y-110998000D03*
%TD*%
%TO.C,J27*%
X94996000Y-130556000D03*
D10*
X92456000Y-130556000D03*
%TD*%
%TO.C,J28*%
X59690000Y-93472000D03*
D11*
X59690000Y-96012000D03*
X59690000Y-98552000D03*
X59690000Y-101092000D03*
%TD*%
%TO.C,J29*%
X90424000Y-100584000D03*
X90424000Y-98044000D03*
X90424000Y-95504000D03*
D10*
X90424000Y-92964000D03*
%TD*%
%TO.C,J30*%
X61468000Y-113284000D03*
D11*
X61468000Y-115824000D03*
X61468000Y-118364000D03*
X61468000Y-120904000D03*
%TD*%
%TO.C,J31*%
X60706000Y-81534000D03*
X60706000Y-78994000D03*
X60706000Y-76454000D03*
D10*
X60706000Y-73914000D03*
%TD*%
%TO.C,J32*%
X87122000Y-73914000D03*
D11*
X87122000Y-76454000D03*
X87122000Y-78994000D03*
X87122000Y-81534000D03*
%TD*%
D10*
%TO.C,J33*%
X75692000Y-91440000D03*
D11*
X78232000Y-91440000D03*
%TD*%
%TO.C,J34*%
X77216000Y-71120000D03*
D10*
X74676000Y-71120000D03*
%TD*%
D11*
%TO.C,J35*%
X80264000Y-122428000D03*
D10*
X77724000Y-122428000D03*
%TD*%
%TO.C,J36*%
X92456000Y-142748000D03*
D11*
X94996000Y-142748000D03*
%TD*%
D10*
%TO.C,J37*%
X75438000Y-101600000D03*
D11*
X77978000Y-101600000D03*
%TD*%
D10*
%TO.C,J38*%
X74422000Y-82550000D03*
D11*
X76962000Y-82550000D03*
%TD*%
%TO.C,J39*%
X79248000Y-141478000D03*
X79248000Y-138938000D03*
X79248000Y-136398000D03*
D10*
X79248000Y-133858000D03*
%TD*%
%TO.C,J40*%
X64008000Y-93472000D03*
D11*
X64008000Y-96012000D03*
X64008000Y-98552000D03*
X64008000Y-101092000D03*
%TD*%
%TO.C,J41*%
X94742000Y-100584000D03*
X94742000Y-98044000D03*
X94742000Y-95504000D03*
D10*
X94742000Y-92964000D03*
%TD*%
D11*
%TO.C,J42*%
X65278000Y-81534000D03*
X65278000Y-78994000D03*
X65278000Y-76454000D03*
D10*
X65278000Y-73914000D03*
%TD*%
D11*
%TO.C,J43*%
X91948000Y-81534000D03*
X91948000Y-78994000D03*
X91948000Y-76454000D03*
D10*
X91948000Y-73914000D03*
%TD*%
%TO.C,J44*%
X65532000Y-113284000D03*
D11*
X65532000Y-115824000D03*
X65532000Y-118364000D03*
X65532000Y-120904000D03*
%TD*%
%TO.C,J45*%
X107950000Y-141732000D03*
X107950000Y-139192000D03*
X107950000Y-136652000D03*
D10*
X107950000Y-134112000D03*
%TD*%
%TO.C,J46*%
X100330000Y-92710000D03*
D11*
X100330000Y-95250000D03*
X100330000Y-97790000D03*
X100330000Y-100330000D03*
%TD*%
%TO.C,J47*%
X130810000Y-99822000D03*
X130810000Y-97282000D03*
X130810000Y-94742000D03*
D10*
X130810000Y-92202000D03*
%TD*%
%TO.C,J48*%
X123952000Y-73914000D03*
D11*
X123952000Y-76454000D03*
X123952000Y-78994000D03*
X123952000Y-81534000D03*
%TD*%
%TO.C,J49*%
X98298000Y-81534000D03*
X98298000Y-78994000D03*
X98298000Y-76454000D03*
D10*
X98298000Y-73914000D03*
%TD*%
D11*
%TO.C,J50*%
X92202000Y-120904000D03*
X92202000Y-118364000D03*
X92202000Y-115824000D03*
D10*
X92202000Y-113284000D03*
%TD*%
%TO.C,J51*%
X112014000Y-72136000D03*
D11*
X114554000Y-72136000D03*
%TD*%
D10*
%TO.C,J52*%
X116586000Y-90678000D03*
D11*
X119126000Y-90678000D03*
%TD*%
D10*
%TO.C,J53*%
X112014000Y-83566000D03*
D11*
X114554000Y-83566000D03*
%TD*%
%TO.C,J54*%
X119126000Y-101092000D03*
D10*
X116586000Y-101092000D03*
%TD*%
%TO.C,J55*%
X112014000Y-134112000D03*
D11*
X112014000Y-136652000D03*
X112014000Y-139192000D03*
X112014000Y-141732000D03*
%TD*%
%TO.C,J56*%
X128524000Y-81534000D03*
X128524000Y-78994000D03*
X128524000Y-76454000D03*
D10*
X128524000Y-73914000D03*
%TD*%
%TO.C,J57*%
X103124000Y-73914000D03*
D11*
X103124000Y-76454000D03*
X103124000Y-78994000D03*
X103124000Y-81534000D03*
%TD*%
%TO.C,J58*%
X104648000Y-100330000D03*
X104648000Y-97790000D03*
X104648000Y-95250000D03*
D10*
X104648000Y-92710000D03*
%TD*%
%TO.C,J59*%
X134874000Y-92202000D03*
D11*
X134874000Y-94742000D03*
X134874000Y-97282000D03*
X134874000Y-99822000D03*
%TD*%
D10*
%TO.C,J60*%
X96774000Y-113284000D03*
D11*
X96774000Y-115824000D03*
X96774000Y-118364000D03*
X96774000Y-120904000D03*
%TD*%
D10*
%TO.C,J61*%
X134112000Y-73660000D03*
D11*
X134112000Y-76200000D03*
X134112000Y-78740000D03*
X134112000Y-81280000D03*
%TD*%
%TO.C,J62*%
X166624000Y-81026000D03*
X166624000Y-78486000D03*
X166624000Y-75946000D03*
D10*
X166624000Y-73406000D03*
%TD*%
%TO.C,J63*%
X102362000Y-113284000D03*
D11*
X102362000Y-115824000D03*
X102362000Y-118364000D03*
X102362000Y-120904000D03*
%TD*%
%TO.C,J64*%
X134620000Y-120650000D03*
X134620000Y-118110000D03*
X134620000Y-115570000D03*
D10*
X134620000Y-113030000D03*
%TD*%
%TO.C,J65*%
X139954000Y-92202000D03*
D11*
X139954000Y-94742000D03*
X139954000Y-97282000D03*
X139954000Y-99822000D03*
%TD*%
D10*
%TO.C,J66*%
X167640000Y-91948000D03*
D11*
X167640000Y-94488000D03*
X167640000Y-97028000D03*
X167640000Y-99568000D03*
%TD*%
D10*
%TO.C,J67*%
X151384000Y-71628000D03*
D11*
X153924000Y-71628000D03*
%TD*%
D10*
%TO.C,J68*%
X119380000Y-110998000D03*
D11*
X121920000Y-110998000D03*
%TD*%
D10*
%TO.C,J69*%
X152908000Y-90932000D03*
D11*
X155448000Y-90932000D03*
%TD*%
D10*
%TO.C,J70*%
X151384000Y-82296000D03*
D11*
X153924000Y-82296000D03*
%TD*%
D10*
%TO.C,J71*%
X119380000Y-122428000D03*
D11*
X121920000Y-122428000D03*
%TD*%
%TO.C,J72*%
X155448000Y-101600000D03*
D10*
X152908000Y-101600000D03*
%TD*%
D11*
%TO.C,J73*%
X138684000Y-81280000D03*
X138684000Y-78740000D03*
X138684000Y-76200000D03*
D10*
X138684000Y-73660000D03*
%TD*%
%TO.C,J74*%
X171196000Y-73406000D03*
D11*
X171196000Y-75946000D03*
X171196000Y-78486000D03*
X171196000Y-81026000D03*
%TD*%
%TO.C,J75*%
X106934000Y-120904000D03*
X106934000Y-118364000D03*
X106934000Y-115824000D03*
D10*
X106934000Y-113284000D03*
%TD*%
D11*
%TO.C,J76*%
X138684000Y-120650000D03*
X138684000Y-118110000D03*
X138684000Y-115570000D03*
D10*
X138684000Y-113030000D03*
%TD*%
D11*
%TO.C,J77*%
X144272000Y-99822000D03*
X144272000Y-97282000D03*
X144272000Y-94742000D03*
D10*
X144272000Y-92202000D03*
%TD*%
D11*
%TO.C,J78*%
X171958000Y-99568000D03*
X171958000Y-97028000D03*
X171958000Y-94488000D03*
D10*
X171958000Y-91948000D03*
%TD*%
D11*
%TO.C,J79*%
X176784000Y-81026000D03*
X176784000Y-78486000D03*
X176784000Y-75946000D03*
D10*
X176784000Y-73406000D03*
%TD*%
D11*
%TO.C,J80*%
X207772000Y-80772000D03*
X207772000Y-78232000D03*
X207772000Y-75692000D03*
D10*
X207772000Y-73152000D03*
%TD*%
D11*
%TO.C,J81*%
X195326000Y-71374000D03*
D10*
X192786000Y-71374000D03*
%TD*%
%TO.C,J82*%
X177546000Y-91948000D03*
D11*
X177546000Y-94488000D03*
X177546000Y-97028000D03*
X177546000Y-99568000D03*
%TD*%
%TO.C,J83*%
X208534000Y-99314000D03*
X208534000Y-96774000D03*
X208534000Y-94234000D03*
D10*
X208534000Y-91694000D03*
%TD*%
%TO.C,J84*%
X147066000Y-116586000D03*
D11*
X149606000Y-116586000D03*
X152146000Y-116586000D03*
X154686000Y-116586000D03*
%TD*%
D10*
%TO.C,J85*%
X147066000Y-120904000D03*
D11*
X149606000Y-120904000D03*
X152146000Y-120904000D03*
X154686000Y-120904000D03*
%TD*%
%TO.C,J86*%
X196596000Y-90932000D03*
D10*
X194056000Y-90932000D03*
%TD*%
D11*
%TO.C,J87*%
X165862000Y-110490000D03*
D10*
X163322000Y-110490000D03*
%TD*%
D11*
%TO.C,J88*%
X195072000Y-82296000D03*
D10*
X192532000Y-82296000D03*
%TD*%
%TO.C,J89*%
X194056000Y-101092000D03*
D11*
X196596000Y-101092000D03*
%TD*%
%TO.C,J90*%
X166116000Y-121666000D03*
D10*
X163576000Y-121666000D03*
%TD*%
%TO.C,J91*%
X181102000Y-73406000D03*
D11*
X181102000Y-75946000D03*
X181102000Y-78486000D03*
X181102000Y-81026000D03*
%TD*%
D10*
%TO.C,J92*%
X212090000Y-73152000D03*
D11*
X212090000Y-75692000D03*
X212090000Y-78232000D03*
X212090000Y-80772000D03*
%TD*%
%TO.C,J93*%
X181864000Y-99568000D03*
X181864000Y-97028000D03*
X181864000Y-94488000D03*
D10*
X181864000Y-91948000D03*
%TD*%
%TO.C,J94*%
X213106000Y-91694000D03*
D11*
X213106000Y-94234000D03*
X213106000Y-96774000D03*
X213106000Y-99314000D03*
%TD*%
%TO.C,J95*%
X154686000Y-112268000D03*
X152146000Y-112268000D03*
X149606000Y-112268000D03*
D10*
X147066000Y-112268000D03*
%TD*%
D11*
%TO.C,J96*%
X22352000Y-158242000D03*
X22352000Y-155702000D03*
X22352000Y-153162000D03*
D10*
X22352000Y-150622000D03*
%TD*%
%TO.C,J97*%
X40386000Y-148844000D03*
D11*
X42926000Y-148844000D03*
%TD*%
%TO.C,J98*%
X202184000Y-119380000D03*
X202184000Y-116840000D03*
X202184000Y-114300000D03*
D10*
X202184000Y-111760000D03*
%TD*%
D11*
%TO.C,J99*%
X178054000Y-119380000D03*
X178054000Y-116840000D03*
X178054000Y-114300000D03*
D10*
X178054000Y-111760000D03*
%TD*%
D11*
%TO.C,J100*%
X42926000Y-158750000D03*
D10*
X40386000Y-158750000D03*
%TD*%
%TO.C,J101*%
X122174000Y-159258000D03*
D11*
X124714000Y-159258000D03*
X127254000Y-159258000D03*
X129794000Y-159258000D03*
%TD*%
%TO.C,J102*%
X129794000Y-155194000D03*
X127254000Y-155194000D03*
X124714000Y-155194000D03*
D10*
X122174000Y-155194000D03*
%TD*%
D11*
%TO.C,J103*%
X157734000Y-159004000D03*
X155194000Y-159004000D03*
X152654000Y-159004000D03*
D10*
X150114000Y-159004000D03*
%TD*%
D11*
%TO.C,J104*%
X157734000Y-154940000D03*
X155194000Y-154940000D03*
X152654000Y-154940000D03*
D10*
X150114000Y-154940000D03*
%TD*%
%TO.C,J105*%
X191262000Y-109982000D03*
D11*
X193802000Y-109982000D03*
%TD*%
D10*
%TO.C,J106*%
X138938000Y-148844000D03*
D11*
X141478000Y-148844000D03*
%TD*%
D10*
%TO.C,J107*%
X191262000Y-121158000D03*
D11*
X193802000Y-121158000D03*
%TD*%
D10*
%TO.C,J108*%
X26924000Y-150622000D03*
D11*
X26924000Y-153162000D03*
X26924000Y-155702000D03*
X26924000Y-158242000D03*
%TD*%
D10*
%TO.C,J109*%
X138684000Y-161036000D03*
D11*
X141224000Y-161036000D03*
%TD*%
D10*
%TO.C,J110*%
X206502000Y-111760000D03*
D11*
X206502000Y-114300000D03*
X206502000Y-116840000D03*
X206502000Y-119380000D03*
%TD*%
D10*
%TO.C,J111*%
X182372000Y-111760000D03*
D11*
X182372000Y-114300000D03*
X182372000Y-116840000D03*
X182372000Y-119380000D03*
%TD*%
%TO.C,J112*%
X129794000Y-151130000D03*
X127254000Y-151130000D03*
X124714000Y-151130000D03*
D10*
X122174000Y-151130000D03*
%TD*%
%TO.C,J113*%
X150114000Y-150876000D03*
D11*
X152654000Y-150876000D03*
X155194000Y-150876000D03*
X157734000Y-150876000D03*
%TD*%
D10*
%TO.C,J114*%
X74422000Y-159258000D03*
D11*
X71882000Y-159258000D03*
X69342000Y-159258000D03*
X66802000Y-159258000D03*
%TD*%
%TO.C,J115*%
X66802000Y-154940000D03*
X69342000Y-154940000D03*
X71882000Y-154940000D03*
D10*
X74422000Y-154940000D03*
%TD*%
%TO.C,J116*%
X94742000Y-159004000D03*
D11*
X97282000Y-159004000D03*
X99822000Y-159004000D03*
X102362000Y-159004000D03*
%TD*%
%TO.C,J117*%
X102362000Y-154432000D03*
X99822000Y-154432000D03*
X97282000Y-154432000D03*
D10*
X94742000Y-154432000D03*
%TD*%
D11*
%TO.C,J118*%
X85852000Y-148082000D03*
D10*
X83312000Y-148082000D03*
%TD*%
%TO.C,J119*%
X83566000Y-160782000D03*
D11*
X86106000Y-160782000D03*
%TD*%
%TO.C,J120*%
X200406000Y-158750000D03*
X200406000Y-156210000D03*
X200406000Y-153670000D03*
D10*
X200406000Y-151130000D03*
%TD*%
%TO.C,J121*%
X175260000Y-151384000D03*
D11*
X175260000Y-153924000D03*
X175260000Y-156464000D03*
X175260000Y-159004000D03*
%TD*%
%TO.C,J122*%
X191008000Y-149352000D03*
D10*
X188468000Y-149352000D03*
%TD*%
D11*
%TO.C,J123*%
X190754000Y-160528000D03*
D10*
X188214000Y-160528000D03*
%TD*%
D11*
%TO.C,J124*%
X66802000Y-150622000D03*
X69342000Y-150622000D03*
X71882000Y-150622000D03*
D10*
X74422000Y-150622000D03*
%TD*%
D11*
%TO.C,J125*%
X102362000Y-150114000D03*
X99822000Y-150114000D03*
X97282000Y-150114000D03*
D10*
X94742000Y-150114000D03*
%TD*%
%TO.C,J126*%
X204724000Y-151130000D03*
D11*
X204724000Y-153670000D03*
X204724000Y-156210000D03*
X204724000Y-158750000D03*
%TD*%
D10*
%TO.C,J127*%
X179578000Y-151384000D03*
D11*
X179578000Y-153924000D03*
X179578000Y-156464000D03*
X179578000Y-159004000D03*
%TD*%
M02*
