M48
; DRILL file {KiCad 5.1.6-c6e7f7d~87~ubuntu18.04.1} date Fri Oct 23 09:19:19 2020
; FORMAT={-:-/ absolute / inch / decimal}
; #@! TF.CreationDate,2020-10-23T09:19:19+08:00
; #@! TF.GenerationSoftware,Kicad,Pcbnew,5.1.6-c6e7f7d~87~ubuntu18.04.1
FMAT,2
INCH
T1C0.0157
T2C0.0157
T3C0.0200
T4C0.0394
%
G90
G05
T1
X1.14Y-5.67
X1.159Y-4.059
X1.189Y-6.229
X1.25Y-4.74
X1.61Y-4.67
X1.62Y-5.54
X1.68Y-5.27
X1.76Y-4.42
X1.79Y-6.13
X1.851Y-4.039
X1.88Y-3.77
X2.8Y-4.83
X2.82Y-3.98
X2.825Y-3.045
X2.85Y-3.83
X2.93Y-4.61
X3.059Y-6.329
X3.1283Y-3.1383
X3.28Y-4.67
X3.28Y-4.74
X3.33Y-3.78
X3.35Y-3.97
X3.52Y-5.39
X3.65Y-6.16
X3.85Y-5.53
X3.86Y-5.43
X4.21Y-3.29
X4.41Y-4.77
X4.43Y-4.0
X4.44Y-3.87
X4.44Y-4.58
X4.751Y-3.309
X4.77Y-3.91
X4.959Y-4.851
X5.031Y-3.849
X5.06Y-4.55
X5.19Y-6.03
X5.589Y-3.269
X5.6133Y-6.2267
X5.729Y-3.269
X5.791Y-2.791
X5.809Y-4.029
X6.17Y-4.52
X6.23Y-3.94
X6.28Y-3.62
X6.291Y-3.269
X6.431Y-2.909
X6.431Y-3.289
X7.15Y-6.05
X7.38Y-3.59
X7.395Y-3.985
X7.4Y-4.63
X7.441Y-3.239
X7.47Y-3.09
X7.6733Y-4.6633
X7.79Y-3.16
X7.8Y-6.1
X7.9Y-3.83
X8.081Y-3.951
T2
X1.11Y-4.43
X1.189Y-5.211
X1.27Y-4.48
X1.3217Y-5.94
X1.475Y-6.025
X1.475Y-6.225
X1.6Y-3.87
X1.66Y-5.96
X1.76Y-3.77
X2.91Y-4.83
X3.22Y-4.49
X3.49Y-4.71
X6.05Y-3.05
X6.29Y-2.9
T3
X1.15Y-3.06
X1.86Y-3.06
X1.88Y-3.21
T4
X1.03Y-4.47
X1.03Y-4.57
X1.03Y-4.67
X1.03Y-4.77
X2.57Y-2.91
X2.57Y-3.01
X2.57Y-3.11
X2.57Y-3.21
X0.88Y-5.93
X0.88Y-6.03
X0.88Y-6.13
X0.88Y-6.23
X7.18Y-4.4
X7.18Y-4.5
X7.18Y-4.6
X7.18Y-4.7
X1.48Y-2.83
X1.58Y-2.83
X6.83Y-5.24
X6.83Y-5.34
X6.83Y-5.44
X6.83Y-5.54
X2.16Y-5.23
X2.16Y-5.33
X2.16Y-5.43
X2.16Y-5.53
X1.06Y-5.93
X1.06Y-6.03
X1.06Y-6.13
X1.06Y-6.23
X7.64Y-3.58
X7.74Y-3.58
X1.06Y-5.25
X1.06Y-5.35
X1.06Y-5.45
X1.06Y-5.55
X5.46Y-6.34
X5.56Y-6.34
X0.89Y-5.25
X0.89Y-5.35
X0.89Y-5.45
X0.89Y-5.55
X3.08Y-4.37
X3.18Y-4.37
X5.79Y-4.76
X5.89Y-4.76
X5.99Y-4.76
X6.09Y-4.76
X2.15Y-3.69
X2.15Y-3.79
X2.15Y-3.89
X2.15Y-3.99
X1.98Y-3.69
X1.98Y-3.79
X1.98Y-3.89
X1.98Y-3.99
X2.95Y-5.27
X2.95Y-5.37
X2.95Y-5.47
X2.95Y-5.57
X7.64Y-3.98
X7.74Y-3.98
X1.03Y-3.68
X1.03Y-3.78
X1.03Y-3.88
X1.03Y-3.98
X0.85Y-3.68
X0.85Y-3.78
X0.85Y-3.88
X0.85Y-3.98
X1.97Y-2.91
X1.97Y-3.01
X1.97Y-3.11
X1.97Y-3.21
X6.02Y-3.58
X6.12Y-3.58
X2.15Y-2.91
X2.15Y-3.01
X2.15Y-3.11
X2.15Y-3.21
X0.87Y-2.94
X0.87Y-3.04
X0.87Y-3.14
X0.87Y-3.24
X1.06Y-2.94
X1.06Y-3.04
X1.06Y-3.14
X1.06Y-3.24
X3.73Y-3.66
X3.73Y-3.76
X3.73Y-3.86
X3.73Y-3.96
X5.79Y-4.42
X5.89Y-4.42
X5.99Y-4.42
X6.09Y-4.42
X4.81Y-5.95
X4.91Y-5.95
X5.01Y-5.95
X5.11Y-5.95
X1.41Y-5.16
X1.51Y-5.16
X8.39Y-3.61
X8.39Y-3.71
X8.39Y-3.81
X8.39Y-3.91
X5.91Y-5.94
X6.01Y-5.94
X6.11Y-5.94
X6.21Y-5.94
X2.63Y-5.93
X2.73Y-5.93
X2.83Y-5.93
X2.93Y-5.93
X7.16Y-3.62
X7.16Y-3.72
X7.16Y-3.82
X7.16Y-3.92
X3.73Y-5.91
X3.83Y-5.91
X3.93Y-5.91
X4.03Y-5.91
X0.87Y-4.47
X0.87Y-4.57
X0.87Y-4.67
X0.87Y-4.77
X7.56Y-5.24
X7.56Y-5.34
X7.56Y-5.44
X7.56Y-5.54
X8.12Y-5.23
X8.12Y-5.33
X8.12Y-5.43
X8.12Y-5.53
X5.79Y-4.59
X5.89Y-4.59
X5.99Y-4.59
X6.09Y-4.59
X5.06Y-2.91
X5.06Y-3.01
X5.06Y-3.11
X5.06Y-3.21
X8.35Y-2.88
X8.35Y-2.98
X8.35Y-3.08
X8.35Y-3.18
X8.21Y-3.61
X8.21Y-3.71
X8.21Y-3.81
X8.21Y-3.91
X6.99Y-3.62
X6.99Y-3.72
X6.99Y-3.82
X6.99Y-3.92
X2.97Y-4.0
X3.07Y-4.0
X4.12Y-3.65
X4.12Y-3.75
X4.12Y-3.85
X4.12Y-3.95
X4.06Y-2.91
X4.06Y-3.01
X4.06Y-3.11
X4.06Y-3.21
X2.63Y-6.27
X2.73Y-6.27
X2.83Y-6.27
X2.93Y-6.27
X1.48Y-3.28
X1.58Y-3.28
X7.53Y-4.77
X7.63Y-4.77
X7.22Y-5.24
X7.22Y-5.34
X7.22Y-5.44
X7.22Y-5.54
X2.94Y-2.8
X3.04Y-2.8
X4.41Y-5.28
X4.41Y-5.38
X4.41Y-5.48
X4.41Y-5.58
X7.13Y-2.89
X7.13Y-2.99
X7.13Y-3.09
X7.13Y-3.19
X7.41Y-6.32
X7.51Y-6.32
X2.63Y-6.1
X2.73Y-6.1
X2.83Y-6.1
X2.93Y-6.1
X4.7Y-4.82
X4.8Y-4.82
X4.81Y-6.27
X4.91Y-6.27
X5.01Y-6.27
X5.11Y-6.27
X1.98Y-4.47
X1.98Y-4.57
X1.98Y-4.67
X1.98Y-4.77
X4.81Y-6.11
X4.91Y-6.11
X5.01Y-6.11
X5.11Y-6.11
X3.56Y-3.66
X3.56Y-3.76
X3.56Y-3.86
X3.56Y-3.96
X4.59Y-3.57
X4.69Y-3.57
X4.7Y-4.37
X4.8Y-4.37
X8.06Y-5.95
X8.06Y-6.05
X8.06Y-6.15
X8.06Y-6.25
X5.28Y-2.9
X5.28Y-3.0
X5.28Y-3.1
X5.28Y-3.2
X3.81Y-4.46
X3.81Y-4.56
X3.81Y-4.66
X3.81Y-4.76
X4.21Y-4.46
X4.21Y-4.56
X4.21Y-4.66
X4.21Y-4.76
X7.89Y-5.95
X7.89Y-6.05
X7.89Y-6.15
X7.89Y-6.25
X2.39Y-2.91
X2.39Y-3.01
X2.39Y-3.11
X2.39Y-3.21
X5.31Y-3.63
X5.31Y-3.73
X5.31Y-3.83
X5.31Y-3.93
X6.9Y-5.96
X6.9Y-6.06
X6.9Y-6.16
X6.9Y-6.26
X2.42Y-4.46
X2.42Y-4.56
X2.42Y-4.66
X2.42Y-4.76
X5.91Y-6.26
X6.01Y-6.26
X6.11Y-6.26
X6.21Y-6.26
X7.42Y-5.88
X7.52Y-5.88
X7.58Y-3.24
X7.68Y-3.24
X5.91Y-6.1
X6.01Y-6.1
X6.11Y-6.1
X6.21Y-6.1
X2.35Y-3.68
X2.35Y-3.78
X2.35Y-3.88
X2.35Y-3.98
X7.59Y-2.81
X7.69Y-2.81
X7.07Y-5.96
X7.07Y-6.06
X7.07Y-6.16
X7.07Y-6.26
X1.38Y-4.83
X1.48Y-4.83
X1.42Y-5.6
X1.52Y-5.6
X8.18Y-2.88
X8.18Y-2.98
X8.18Y-3.08
X8.18Y-3.18
X5.3Y-4.45
X5.3Y-4.55
X5.3Y-4.65
X5.3Y-4.75
X6.74Y-2.89
X6.74Y-2.99
X6.74Y-3.09
X6.74Y-3.19
X6.96Y-2.89
X6.96Y-2.99
X6.96Y-3.09
X6.96Y-3.19
X5.47Y-5.86
X5.57Y-5.86
X6.56Y-2.89
X6.56Y-2.99
X6.56Y-3.09
X6.56Y-3.19
X6.77Y-3.62
X6.77Y-3.72
X6.77Y-3.82
X6.77Y-3.92
X6.66Y-5.24
X6.66Y-5.34
X6.66Y-5.44
X6.66Y-5.54
X3.12Y-5.27
X3.12Y-5.37
X3.12Y-5.47
X3.12Y-5.57
X3.63Y-4.46
X3.63Y-4.56
X3.63Y-4.66
X3.63Y-4.76
X5.68Y-3.63
X5.68Y-3.73
X5.68Y-3.83
X5.68Y-3.93
X1.59Y-6.25
X1.69Y-6.25
X2.98Y-3.6
X3.08Y-3.6
X3.87Y-2.91
X3.87Y-3.01
X3.87Y-3.11
X3.87Y-3.21
X4.59Y-3.98
X4.69Y-3.98
X5.46Y-4.45
X5.46Y-4.55
X5.46Y-4.65
X5.46Y-4.75
X7.01Y-4.4
X7.01Y-4.5
X7.01Y-4.6
X7.01Y-4.7
X3.43Y-2.91
X3.43Y-3.01
X3.43Y-3.11
X3.43Y-3.21
X5.51Y-3.63
X5.51Y-3.73
X5.51Y-3.83
X5.51Y-3.93
X7.96Y-4.4
X7.96Y-4.5
X7.96Y-4.6
X7.96Y-4.7
X3.64Y-5.62
X3.74Y-5.62
X8.46Y-5.23
X8.46Y-5.33
X8.46Y-5.43
X8.46Y-5.53
X4.03Y-4.46
X4.03Y-4.56
X4.03Y-4.66
X4.03Y-4.76
X5.46Y-2.9
X5.46Y-3.0
X5.46Y-3.1
X5.46Y-3.2
X1.38Y-4.38
X1.48Y-4.38
X4.41Y-2.84
X4.51Y-2.84
X5.96Y-2.82
X6.06Y-2.82
X3.29Y-6.33
X3.39Y-6.33
X2.0Y-5.23
X2.0Y-5.33
X2.0Y-5.43
X2.0Y-5.53
X6.6Y-3.62
X6.6Y-3.72
X6.6Y-3.82
X6.6Y-3.92
X6.44Y-4.79
X6.54Y-4.79
X7.53Y-4.33
X7.63Y-4.33
X2.52Y-3.68
X2.52Y-3.78
X2.52Y-3.88
X2.52Y-3.98
X4.88Y-2.91
X4.88Y-3.01
X4.88Y-3.11
X4.88Y-3.21
X5.96Y-3.24
X6.06Y-3.24
X6.43Y-4.35
X6.53Y-4.35
X6.32Y-5.24
X6.32Y-5.34
X6.32Y-5.44
X6.32Y-5.54
X3.64Y-5.14
X3.74Y-5.14
X6.49Y-5.24
X6.49Y-5.34
X6.49Y-5.44
X6.49Y-5.54
X1.39Y-3.6
X1.49Y-3.6
X3.73Y-6.26
X3.83Y-6.26
X3.93Y-6.26
X4.03Y-6.26
X7.95Y-5.23
X7.95Y-5.33
X7.95Y-5.43
X7.95Y-5.53
X3.73Y-6.08
X3.83Y-6.08
X3.93Y-6.08
X4.03Y-6.08
X8.29Y-5.23
X8.29Y-5.33
X8.29Y-5.43
X8.29Y-5.53
X5.15Y-3.63
X5.15Y-3.73
X5.15Y-3.83
X5.15Y-3.93
X3.95Y-3.65
X3.95Y-3.75
X3.95Y-3.85
X3.95Y-3.95
X2.93Y-3.25
X3.03Y-3.25
X4.25Y-5.28
X4.25Y-5.38
X4.25Y-5.48
X4.25Y-5.58
X2.58Y-4.46
X2.58Y-4.56
X2.58Y-4.66
X2.58Y-4.76
X1.39Y-4.05
X1.49Y-4.05
X8.13Y-4.4
X8.13Y-4.5
X8.13Y-4.6
X8.13Y-4.7
X3.06Y-4.82
X3.16Y-4.82
X3.28Y-5.83
X3.38Y-5.83
X6.02Y-4.0
X6.12Y-4.0
X7.39Y-5.24
X7.39Y-5.34
X7.39Y-5.44
X7.39Y-5.54
X4.41Y-3.29
X4.51Y-3.29
X7.05Y-5.24
X7.05Y-5.34
X7.05Y-5.44
X7.05Y-5.54
X2.15Y-4.47
X2.15Y-4.57
X2.15Y-4.67
X2.15Y-4.77
X3.62Y-2.91
X3.62Y-3.01
X3.62Y-3.11
X3.62Y-3.21
X1.59Y-5.86
X1.69Y-5.86
T0
M30
