%TF.GenerationSoftware,KiCad,Pcbnew,(5.1.6)-1*%
%TF.CreationDate,2020-11-25T11:03:50+08:00*%
%TF.ProjectId,BCG_Piezo_Integrated_V1.0,4243475f-5069-4657-9a6f-5f496e746567,rev?*%
%TF.SameCoordinates,Original*%
%TF.FileFunction,Copper,L2,Bot*%
%TF.FilePolarity,Positive*%
%FSLAX46Y46*%
G04 Gerber Fmt 4.6, Leading zero omitted, Abs format (unit mm)*
G04 Created by KiCad (PCBNEW (5.1.6)-1) date 2020-11-25 11:03:50*
%MOMM*%
%LPD*%
G01*
G04 APERTURE LIST*
%TA.AperFunction,ComponentPad*%
%ADD10O,1.600000X1.600000*%
%TD*%
%TA.AperFunction,ComponentPad*%
%ADD11C,1.600000*%
%TD*%
%TA.AperFunction,ComponentPad*%
%ADD12O,1.700000X1.700000*%
%TD*%
%TA.AperFunction,ComponentPad*%
%ADD13R,1.700000X1.700000*%
%TD*%
%TA.AperFunction,ViaPad*%
%ADD14C,3.300000*%
%TD*%
%TA.AperFunction,ViaPad*%
%ADD15C,0.800000*%
%TD*%
%TA.AperFunction,Conductor*%
%ADD16C,0.254000*%
%TD*%
%TA.AperFunction,Conductor*%
%ADD17C,0.381000*%
%TD*%
G04 APERTURE END LIST*
D10*
%TO.P,R13,2*%
%TO.N,Net-(C7-Pad2)*%
X171069000Y-130911600D03*
D11*
%TO.P,R13,1*%
%TO.N,/charge_out*%
X171069000Y-141071600D03*
%TD*%
%TO.P,R2,2*%
%TO.N,Net-(R1-Pad1)*%
%TA.AperFunction,SMDPad,CuDef*%
G36*
G01*
X163248050Y-146436500D02*
X162735550Y-146436500D01*
G75*
G02*
X162516800Y-146217750I0J218750D01*
G01*
X162516800Y-145780250D01*
G75*
G02*
X162735550Y-145561500I218750J0D01*
G01*
X163248050Y-145561500D01*
G75*
G02*
X163466800Y-145780250I0J-218750D01*
G01*
X163466800Y-146217750D01*
G75*
G02*
X163248050Y-146436500I-218750J0D01*
G01*
G37*
%TD.AperFunction*%
%TO.P,R2,1*%
%TO.N,GND*%
%TA.AperFunction,SMDPad,CuDef*%
G36*
G01*
X163248050Y-148011500D02*
X162735550Y-148011500D01*
G75*
G02*
X162516800Y-147792750I0J218750D01*
G01*
X162516800Y-147355250D01*
G75*
G02*
X162735550Y-147136500I218750J0D01*
G01*
X163248050Y-147136500D01*
G75*
G02*
X163466800Y-147355250I0J-218750D01*
G01*
X163466800Y-147792750D01*
G75*
G02*
X163248050Y-148011500I-218750J0D01*
G01*
G37*
%TD.AperFunction*%
%TD*%
%TO.P,R1,2*%
%TO.N,+3V3*%
%TA.AperFunction,SMDPad,CuDef*%
G36*
G01*
X160297150Y-147136700D02*
X160809650Y-147136700D01*
G75*
G02*
X161028400Y-147355450I0J-218750D01*
G01*
X161028400Y-147792950D01*
G75*
G02*
X160809650Y-148011700I-218750J0D01*
G01*
X160297150Y-148011700D01*
G75*
G02*
X160078400Y-147792950I0J218750D01*
G01*
X160078400Y-147355450D01*
G75*
G02*
X160297150Y-147136700I218750J0D01*
G01*
G37*
%TD.AperFunction*%
%TO.P,R1,1*%
%TO.N,Net-(R1-Pad1)*%
%TA.AperFunction,SMDPad,CuDef*%
G36*
G01*
X160297150Y-145561700D02*
X160809650Y-145561700D01*
G75*
G02*
X161028400Y-145780450I0J-218750D01*
G01*
X161028400Y-146217950D01*
G75*
G02*
X160809650Y-146436700I-218750J0D01*
G01*
X160297150Y-146436700D01*
G75*
G02*
X160078400Y-146217950I0J218750D01*
G01*
X160078400Y-145780450D01*
G75*
G02*
X160297150Y-145561700I218750J0D01*
G01*
G37*
%TD.AperFunction*%
%TD*%
D12*
%TO.P,J3,2*%
%TO.N,/piezoP*%
X161315400Y-138734800D03*
D13*
%TO.P,J3,1*%
%TO.N,+1V5*%
X161315400Y-141274800D03*
%TD*%
D12*
%TO.P,J1,2*%
%TO.N,Net-(F1-Pad2)*%
X161315400Y-132232400D03*
D13*
%TO.P,J1,1*%
%TO.N,GND*%
X161315400Y-134772400D03*
%TD*%
%TO.P,R12,2*%
%TO.N,GND*%
%TA.AperFunction,SMDPad,CuDef*%
G36*
G01*
X176662600Y-144371350D02*
X176662600Y-144883850D01*
G75*
G02*
X176443850Y-145102600I-218750J0D01*
G01*
X176006350Y-145102600D01*
G75*
G02*
X175787600Y-144883850I0J218750D01*
G01*
X175787600Y-144371350D01*
G75*
G02*
X176006350Y-144152600I218750J0D01*
G01*
X176443850Y-144152600D01*
G75*
G02*
X176662600Y-144371350I0J-218750D01*
G01*
G37*
%TD.AperFunction*%
%TO.P,R12,1*%
%TO.N,Net-(R12-Pad1)*%
%TA.AperFunction,SMDPad,CuDef*%
G36*
G01*
X178237600Y-144371350D02*
X178237600Y-144883850D01*
G75*
G02*
X178018850Y-145102600I-218750J0D01*
G01*
X177581350Y-145102600D01*
G75*
G02*
X177362600Y-144883850I0J218750D01*
G01*
X177362600Y-144371350D01*
G75*
G02*
X177581350Y-144152600I218750J0D01*
G01*
X178018850Y-144152600D01*
G75*
G02*
X178237600Y-144371350I0J-218750D01*
G01*
G37*
%TD.AperFunction*%
%TD*%
%TO.P,R11,2*%
%TO.N,GND*%
%TA.AperFunction,SMDPad,CuDef*%
G36*
G01*
X166237400Y-144528250D02*
X166237400Y-144015750D01*
G75*
G02*
X166456150Y-143797000I218750J0D01*
G01*
X166893650Y-143797000D01*
G75*
G02*
X167112400Y-144015750I0J-218750D01*
G01*
X167112400Y-144528250D01*
G75*
G02*
X166893650Y-144747000I-218750J0D01*
G01*
X166456150Y-144747000D01*
G75*
G02*
X166237400Y-144528250I0J218750D01*
G01*
G37*
%TD.AperFunction*%
%TO.P,R11,1*%
%TO.N,Net-(R11-Pad1)*%
%TA.AperFunction,SMDPad,CuDef*%
G36*
G01*
X164662400Y-144528250D02*
X164662400Y-144015750D01*
G75*
G02*
X164881150Y-143797000I218750J0D01*
G01*
X165318650Y-143797000D01*
G75*
G02*
X165537400Y-144015750I0J-218750D01*
G01*
X165537400Y-144528250D01*
G75*
G02*
X165318650Y-144747000I-218750J0D01*
G01*
X164881150Y-144747000D01*
G75*
G02*
X164662400Y-144528250I0J218750D01*
G01*
G37*
%TD.AperFunction*%
%TD*%
%TO.P,R10,2*%
%TO.N,Net-(R10-Pad2)*%
%TA.AperFunction,SMDPad,CuDef*%
G36*
G01*
X177362600Y-148185850D02*
X177362600Y-147673350D01*
G75*
G02*
X177581350Y-147454600I218750J0D01*
G01*
X178018850Y-147454600D01*
G75*
G02*
X178237600Y-147673350I0J-218750D01*
G01*
X178237600Y-148185850D01*
G75*
G02*
X178018850Y-148404600I-218750J0D01*
G01*
X177581350Y-148404600D01*
G75*
G02*
X177362600Y-148185850I0J218750D01*
G01*
G37*
%TD.AperFunction*%
%TO.P,R10,1*%
%TO.N,Net-(C6-Pad2)*%
%TA.AperFunction,SMDPad,CuDef*%
G36*
G01*
X175787600Y-148185850D02*
X175787600Y-147673350D01*
G75*
G02*
X176006350Y-147454600I218750J0D01*
G01*
X176443850Y-147454600D01*
G75*
G02*
X176662600Y-147673350I0J-218750D01*
G01*
X176662600Y-148185850D01*
G75*
G02*
X176443850Y-148404600I-218750J0D01*
G01*
X176006350Y-148404600D01*
G75*
G02*
X175787600Y-148185850I0J218750D01*
G01*
G37*
%TD.AperFunction*%
%TD*%
%TO.P,R6,2*%
%TO.N,/charge_out*%
%TA.AperFunction,SMDPad,CuDef*%
G36*
G01*
X166313500Y-146306250D02*
X166313500Y-145793750D01*
G75*
G02*
X166532250Y-145575000I218750J0D01*
G01*
X166969750Y-145575000D01*
G75*
G02*
X167188500Y-145793750I0J-218750D01*
G01*
X167188500Y-146306250D01*
G75*
G02*
X166969750Y-146525000I-218750J0D01*
G01*
X166532250Y-146525000D01*
G75*
G02*
X166313500Y-146306250I0J218750D01*
G01*
G37*
%TD.AperFunction*%
%TO.P,R6,1*%
%TO.N,Net-(R6-Pad1)*%
%TA.AperFunction,SMDPad,CuDef*%
G36*
G01*
X164738500Y-146306250D02*
X164738500Y-145793750D01*
G75*
G02*
X164957250Y-145575000I218750J0D01*
G01*
X165394750Y-145575000D01*
G75*
G02*
X165613500Y-145793750I0J-218750D01*
G01*
X165613500Y-146306250D01*
G75*
G02*
X165394750Y-146525000I-218750J0D01*
G01*
X164957250Y-146525000D01*
G75*
G02*
X164738500Y-146306250I0J218750D01*
G01*
G37*
%TD.AperFunction*%
%TD*%
D12*
%TO.P,J4,4*%
%TO.N,GND*%
X167970200Y-151079200D03*
%TO.P,J4,3*%
%TO.N,/charge_out*%
X170510200Y-151079200D03*
%TO.P,J4,2*%
%TO.N,/filtered_out*%
X173050200Y-151079200D03*
D13*
%TO.P,J4,1*%
%TO.N,/out*%
X175590200Y-151079200D03*
%TD*%
D12*
%TO.P,J2,2*%
%TO.N,GND*%
X169697400Y-137617200D03*
D13*
%TO.P,J2,1*%
%TO.N,+3V3*%
X172237400Y-137617200D03*
%TD*%
D14*
%TO.N,*%
X161975800Y-151231600D03*
D15*
%TO.N,GND*%
X177825400Y-146304000D03*
X161772600Y-146761200D03*
X168783000Y-134620000D03*
X164871400Y-149606000D03*
X165227000Y-151638000D03*
X177774600Y-140411200D03*
X174879000Y-138887200D03*
X170459400Y-133908800D03*
X167563800Y-141020800D03*
X163449000Y-130708400D03*
X165531800Y-130708400D03*
X168021000Y-130657600D03*
X173609000Y-130657600D03*
X175742600Y-130606800D03*
X177673000Y-130657600D03*
X177723800Y-132638800D03*
X177876200Y-134924800D03*
X163195000Y-139496800D03*
X160604200Y-136855200D03*
X162534600Y-136804400D03*
X163195000Y-135128000D03*
X170205400Y-139344400D03*
X171678600Y-139395200D03*
X172542200Y-142290800D03*
X171424600Y-147167600D03*
X166395400Y-149352000D03*
X168630600Y-149301200D03*
X164820600Y-134772400D03*
%TO.N,Net-(R10-Pad2)*%
X177825400Y-147929600D03*
%TO.N,Net-(R6-Pad1)*%
X165176200Y-146050000D03*
%TO.N,+3V3*%
X160553400Y-148793200D03*
%TO.N,Net-(R1-Pad1)*%
X161772600Y-145338800D03*
%TO.N,Net-(C6-Pad2)*%
X176250600Y-146304000D03*
%TO.N,/out*%
X172491400Y-145592800D03*
%TO.N,Net-(R11-Pad1)*%
X165099900Y-144272000D03*
%TO.N,Net-(R12-Pad1)*%
X177800100Y-144627600D03*
%TD*%
D16*
%TO.N,GND*%
X176225100Y-144703700D02*
X177825400Y-146304000D01*
X176225100Y-144627600D02*
X176225100Y-144703700D01*
%TO.N,+3V3*%
X160553400Y-147574200D02*
X160553400Y-148691600D01*
X160553400Y-148691600D02*
X160502600Y-148742400D01*
D17*
%TO.N,/charge_out*%
X171069000Y-141071600D02*
X171069000Y-142392400D01*
X167411400Y-146050000D02*
X166751000Y-146050000D01*
D16*
X170510200Y-142951200D02*
X170840400Y-142621000D01*
X170510200Y-151079200D02*
X170510200Y-142951200D01*
D17*
X171069000Y-142392400D02*
X170840400Y-142621000D01*
X170840400Y-142621000D02*
X167411400Y-146050000D01*
D16*
%TO.N,Net-(C6-Pad2)*%
X176250600Y-147904100D02*
X176225100Y-147929600D01*
X176250600Y-146304000D02*
X176250600Y-147904100D01*
%TO.N,Net-(R1-Pad1)*%
X162991600Y-145999200D02*
X162991800Y-145999000D01*
X160553400Y-145999200D02*
X162991600Y-145999200D01*
X162432800Y-145999000D02*
X161772600Y-145338800D01*
X162991800Y-145999000D02*
X162432800Y-145999000D01*
%TO.N,/out*%
X175590200Y-151079200D02*
X175590200Y-150723600D01*
X175590200Y-150723600D02*
X172339000Y-147472400D01*
X172339000Y-147472400D02*
X172339000Y-145745200D01*
X172339000Y-145745200D02*
X172491400Y-145592800D01*
X172491400Y-145592800D02*
X172491400Y-145592800D01*
%TD*%
%TO.N,GND*%
G36*
X170154241Y-129796963D02*
G01*
X169954363Y-129996841D01*
X169797320Y-130231873D01*
X169689147Y-130493026D01*
X169634000Y-130770265D01*
X169634000Y-131052935D01*
X169689147Y-131330174D01*
X169797320Y-131591327D01*
X169954363Y-131826359D01*
X170154241Y-132026237D01*
X170389273Y-132183280D01*
X170650426Y-132291453D01*
X170927665Y-132346600D01*
X171210335Y-132346600D01*
X171487574Y-132291453D01*
X171748727Y-132183280D01*
X171983759Y-132026237D01*
X172183637Y-131826359D01*
X172340680Y-131591327D01*
X172448853Y-131330174D01*
X172504000Y-131052935D01*
X172504000Y-130770265D01*
X172448853Y-130493026D01*
X172340680Y-130231873D01*
X172183637Y-129996841D01*
X171983759Y-129796963D01*
X171978726Y-129793600D01*
X177894721Y-129793600D01*
X178005400Y-129804452D01*
X178080814Y-129827221D01*
X178150368Y-129864203D01*
X178211414Y-129913992D01*
X178261629Y-129974691D01*
X178299097Y-130043986D01*
X178322392Y-130119239D01*
X178333800Y-130227784D01*
X178333801Y-143575824D01*
X178186008Y-143530992D01*
X178018850Y-143514528D01*
X177581350Y-143514528D01*
X177414192Y-143530992D01*
X177253458Y-143579750D01*
X177105325Y-143658929D01*
X177083670Y-143676700D01*
X177017094Y-143622063D01*
X176906780Y-143563098D01*
X176787082Y-143526788D01*
X176662600Y-143514528D01*
X176510850Y-143517600D01*
X176352100Y-143676350D01*
X176352100Y-144500600D01*
X176372100Y-144500600D01*
X176372100Y-144754600D01*
X176352100Y-144754600D01*
X176352100Y-144774600D01*
X176098100Y-144774600D01*
X176098100Y-144754600D01*
X175311350Y-144754600D01*
X175152600Y-144913350D01*
X175149528Y-145102600D01*
X175161788Y-145227082D01*
X175198098Y-145346780D01*
X175257063Y-145457094D01*
X175336415Y-145553785D01*
X175433106Y-145633137D01*
X175449167Y-145641722D01*
X175446663Y-145644226D01*
X175333395Y-145813744D01*
X175255374Y-146002102D01*
X175215600Y-146202061D01*
X175215600Y-146405939D01*
X175255374Y-146605898D01*
X175333395Y-146794256D01*
X175446663Y-146963774D01*
X175482811Y-146999922D01*
X175400485Y-147067485D01*
X175293929Y-147197325D01*
X175214750Y-147345458D01*
X175165992Y-147506192D01*
X175149528Y-147673350D01*
X175149528Y-148185850D01*
X175165992Y-148353008D01*
X175214750Y-148513742D01*
X175293929Y-148661875D01*
X175400485Y-148791715D01*
X175530325Y-148898271D01*
X175678458Y-148977450D01*
X175839192Y-149026208D01*
X176006350Y-149042672D01*
X176443850Y-149042672D01*
X176611008Y-149026208D01*
X176771742Y-148977450D01*
X176919875Y-148898271D01*
X177012600Y-148822174D01*
X177105325Y-148898271D01*
X177253458Y-148977450D01*
X177414192Y-149026208D01*
X177581350Y-149042672D01*
X178018850Y-149042672D01*
X178186008Y-149026208D01*
X178333801Y-148981376D01*
X178333801Y-152469309D01*
X178321980Y-152589865D01*
X178296345Y-152674775D01*
X178254709Y-152753079D01*
X178198654Y-152821809D01*
X178130315Y-152878344D01*
X178052302Y-152920526D01*
X177967573Y-152946754D01*
X177849158Y-152959200D01*
X163479678Y-152959200D01*
X163750675Y-152688203D01*
X164000741Y-152313953D01*
X164172989Y-151898110D01*
X164260800Y-151456653D01*
X164260800Y-151436091D01*
X166528719Y-151436091D01*
X166626043Y-151710452D01*
X166775022Y-151960555D01*
X166969931Y-152176788D01*
X167203280Y-152350841D01*
X167466101Y-152476025D01*
X167613310Y-152520676D01*
X167843200Y-152399355D01*
X167843200Y-151206200D01*
X166649386Y-151206200D01*
X166528719Y-151436091D01*
X164260800Y-151436091D01*
X164260800Y-151006547D01*
X164204262Y-150722309D01*
X166528719Y-150722309D01*
X166649386Y-150952200D01*
X167843200Y-150952200D01*
X167843200Y-149759045D01*
X167613310Y-149637724D01*
X167466101Y-149682375D01*
X167203280Y-149807559D01*
X166969931Y-149981612D01*
X166775022Y-150197845D01*
X166626043Y-150447948D01*
X166528719Y-150722309D01*
X164204262Y-150722309D01*
X164172989Y-150565090D01*
X164000741Y-150149247D01*
X163750675Y-149774997D01*
X163432403Y-149456725D01*
X163058153Y-149206659D01*
X162642310Y-149034411D01*
X162200853Y-148946600D01*
X161750747Y-148946600D01*
X161571054Y-148982343D01*
X161588400Y-148895139D01*
X161588400Y-148691261D01*
X161548626Y-148491302D01*
X161478517Y-148322046D01*
X161522071Y-148268975D01*
X161601250Y-148120842D01*
X161634418Y-148011500D01*
X161878728Y-148011500D01*
X161890988Y-148135982D01*
X161927298Y-148255680D01*
X161986263Y-148365994D01*
X162065615Y-148462685D01*
X162162306Y-148542037D01*
X162272620Y-148601002D01*
X162392318Y-148637312D01*
X162516800Y-148649572D01*
X162706050Y-148646500D01*
X162864800Y-148487750D01*
X162864800Y-147701000D01*
X163118800Y-147701000D01*
X163118800Y-148487750D01*
X163277550Y-148646500D01*
X163466800Y-148649572D01*
X163591282Y-148637312D01*
X163710980Y-148601002D01*
X163821294Y-148542037D01*
X163917985Y-148462685D01*
X163997337Y-148365994D01*
X164056302Y-148255680D01*
X164092612Y-148135982D01*
X164104872Y-148011500D01*
X164101800Y-147859750D01*
X163943050Y-147701000D01*
X163118800Y-147701000D01*
X162864800Y-147701000D01*
X162040550Y-147701000D01*
X161881800Y-147859750D01*
X161878728Y-148011500D01*
X161634418Y-148011500D01*
X161650008Y-147960108D01*
X161666472Y-147792950D01*
X161666472Y-147355450D01*
X161650008Y-147188292D01*
X161601250Y-147027558D01*
X161522071Y-146879425D01*
X161445974Y-146786700D01*
X161466901Y-146761200D01*
X162003338Y-146761200D01*
X161986263Y-146782006D01*
X161927298Y-146892320D01*
X161890988Y-147012018D01*
X161878728Y-147136500D01*
X161881800Y-147288250D01*
X162040550Y-147447000D01*
X162864800Y-147447000D01*
X162864800Y-147427000D01*
X163118800Y-147427000D01*
X163118800Y-147447000D01*
X163943050Y-147447000D01*
X164101800Y-147288250D01*
X164104872Y-147136500D01*
X164092612Y-147012018D01*
X164056302Y-146892320D01*
X163997337Y-146782006D01*
X163942700Y-146715430D01*
X163960471Y-146693775D01*
X164039650Y-146545642D01*
X164088408Y-146384908D01*
X164100428Y-146262870D01*
X164100428Y-146306250D01*
X164116892Y-146473408D01*
X164165650Y-146634142D01*
X164244829Y-146782275D01*
X164351385Y-146912115D01*
X164481225Y-147018671D01*
X164629358Y-147097850D01*
X164790092Y-147146608D01*
X164957250Y-147163072D01*
X165394750Y-147163072D01*
X165561908Y-147146608D01*
X165722642Y-147097850D01*
X165870775Y-147018671D01*
X165963500Y-146942574D01*
X166056225Y-147018671D01*
X166204358Y-147097850D01*
X166365092Y-147146608D01*
X166532250Y-147163072D01*
X166969750Y-147163072D01*
X167136908Y-147146608D01*
X167297642Y-147097850D01*
X167445775Y-147018671D01*
X167575615Y-146912115D01*
X167629467Y-146846496D01*
X167728834Y-146816353D01*
X167872242Y-146739699D01*
X167997941Y-146636541D01*
X168023798Y-146605034D01*
X169748201Y-144880632D01*
X169748200Y-149802358D01*
X169563568Y-149925725D01*
X169356725Y-150132568D01*
X169235005Y-150314734D01*
X169165378Y-150197845D01*
X168970469Y-149981612D01*
X168737120Y-149807559D01*
X168474299Y-149682375D01*
X168327090Y-149637724D01*
X168097200Y-149759045D01*
X168097200Y-150952200D01*
X168117200Y-150952200D01*
X168117200Y-151206200D01*
X168097200Y-151206200D01*
X168097200Y-152399355D01*
X168327090Y-152520676D01*
X168474299Y-152476025D01*
X168737120Y-152350841D01*
X168970469Y-152176788D01*
X169165378Y-151960555D01*
X169235005Y-151843666D01*
X169356725Y-152025832D01*
X169563568Y-152232675D01*
X169806789Y-152395190D01*
X170077042Y-152507132D01*
X170363940Y-152564200D01*
X170656460Y-152564200D01*
X170943358Y-152507132D01*
X171213611Y-152395190D01*
X171456832Y-152232675D01*
X171663675Y-152025832D01*
X171780200Y-151851440D01*
X171896725Y-152025832D01*
X172103568Y-152232675D01*
X172346789Y-152395190D01*
X172617042Y-152507132D01*
X172903940Y-152564200D01*
X173196460Y-152564200D01*
X173483358Y-152507132D01*
X173753611Y-152395190D01*
X173996832Y-152232675D01*
X174128687Y-152100820D01*
X174150698Y-152173380D01*
X174209663Y-152283694D01*
X174289015Y-152380385D01*
X174385706Y-152459737D01*
X174496020Y-152518702D01*
X174615718Y-152555012D01*
X174740200Y-152567272D01*
X176440200Y-152567272D01*
X176564682Y-152555012D01*
X176684380Y-152518702D01*
X176794694Y-152459737D01*
X176891385Y-152380385D01*
X176970737Y-152283694D01*
X177029702Y-152173380D01*
X177066012Y-152053682D01*
X177078272Y-151929200D01*
X177078272Y-150229200D01*
X177066012Y-150104718D01*
X177029702Y-149985020D01*
X176970737Y-149874706D01*
X176891385Y-149778015D01*
X176794694Y-149698663D01*
X176684380Y-149639698D01*
X176564682Y-149603388D01*
X176440200Y-149591128D01*
X175535359Y-149591128D01*
X173101000Y-147156770D01*
X173101000Y-146430262D01*
X173151174Y-146396737D01*
X173295337Y-146252574D01*
X173408605Y-146083056D01*
X173486626Y-145894698D01*
X173526400Y-145694739D01*
X173526400Y-145490861D01*
X173486626Y-145290902D01*
X173408605Y-145102544D01*
X173295337Y-144933026D01*
X173151174Y-144788863D01*
X172981656Y-144675595D01*
X172793298Y-144597574D01*
X172593339Y-144557800D01*
X172389461Y-144557800D01*
X172189502Y-144597574D01*
X172001144Y-144675595D01*
X171831626Y-144788863D01*
X171687463Y-144933026D01*
X171574195Y-145102544D01*
X171496174Y-145290902D01*
X171456400Y-145490861D01*
X171456400Y-145694739D01*
X171496174Y-145894698D01*
X171574195Y-146083056D01*
X171577001Y-146087255D01*
X171577000Y-147434976D01*
X171573314Y-147472400D01*
X171577000Y-147509823D01*
X171577000Y-147509825D01*
X171588026Y-147621777D01*
X171631598Y-147765414D01*
X171649002Y-147797974D01*
X171702355Y-147897792D01*
X171737509Y-147940627D01*
X171797578Y-148013822D01*
X171826654Y-148037684D01*
X173429530Y-149640561D01*
X173196460Y-149594200D01*
X172903940Y-149594200D01*
X172617042Y-149651268D01*
X172346789Y-149763210D01*
X172103568Y-149925725D01*
X171896725Y-150132568D01*
X171780200Y-150306960D01*
X171663675Y-150132568D01*
X171456832Y-149925725D01*
X171272200Y-149802358D01*
X171272200Y-144152600D01*
X175149528Y-144152600D01*
X175152600Y-144341850D01*
X175311350Y-144500600D01*
X176098100Y-144500600D01*
X176098100Y-143676350D01*
X175939350Y-143517600D01*
X175787600Y-143514528D01*
X175663118Y-143526788D01*
X175543420Y-143563098D01*
X175433106Y-143622063D01*
X175336415Y-143701415D01*
X175257063Y-143798106D01*
X175198098Y-143908420D01*
X175161788Y-144028118D01*
X175149528Y-144152600D01*
X171272200Y-144152600D01*
X171272200Y-143356633D01*
X171452791Y-143176042D01*
X171452796Y-143176036D01*
X171624034Y-143004798D01*
X171655541Y-142978941D01*
X171758699Y-142853242D01*
X171835353Y-142709834D01*
X171882556Y-142554226D01*
X171894500Y-142432953D01*
X171894500Y-142432951D01*
X171898494Y-142392401D01*
X171894500Y-142351850D01*
X171894500Y-142245878D01*
X171983759Y-142186237D01*
X172183637Y-141986359D01*
X172340680Y-141751327D01*
X172448853Y-141490174D01*
X172504000Y-141212935D01*
X172504000Y-140930265D01*
X172448853Y-140653026D01*
X172340680Y-140391873D01*
X172183637Y-140156841D01*
X171983759Y-139956963D01*
X171748727Y-139799920D01*
X171487574Y-139691747D01*
X171210335Y-139636600D01*
X170927665Y-139636600D01*
X170650426Y-139691747D01*
X170389273Y-139799920D01*
X170154241Y-139956963D01*
X169954363Y-140156841D01*
X169797320Y-140391873D01*
X169689147Y-140653026D01*
X169634000Y-140930265D01*
X169634000Y-141212935D01*
X169689147Y-141490174D01*
X169797320Y-141751327D01*
X169954363Y-141986359D01*
X170130986Y-142162982D01*
X167741809Y-144552159D01*
X167588650Y-144399000D01*
X166801900Y-144399000D01*
X166801900Y-144419000D01*
X166547900Y-144419000D01*
X166547900Y-144399000D01*
X166527900Y-144399000D01*
X166527900Y-144145000D01*
X166547900Y-144145000D01*
X166547900Y-143320750D01*
X166801900Y-143320750D01*
X166801900Y-144145000D01*
X167588650Y-144145000D01*
X167747400Y-143986250D01*
X167750472Y-143797000D01*
X167738212Y-143672518D01*
X167701902Y-143552820D01*
X167642937Y-143442506D01*
X167563585Y-143345815D01*
X167466894Y-143266463D01*
X167356580Y-143207498D01*
X167236882Y-143171188D01*
X167112400Y-143158928D01*
X166960650Y-143162000D01*
X166801900Y-143320750D01*
X166547900Y-143320750D01*
X166389150Y-143162000D01*
X166237400Y-143158928D01*
X166112918Y-143171188D01*
X165993220Y-143207498D01*
X165882906Y-143266463D01*
X165816330Y-143321100D01*
X165794675Y-143303329D01*
X165646542Y-143224150D01*
X165485808Y-143175392D01*
X165318650Y-143158928D01*
X164881150Y-143158928D01*
X164713992Y-143175392D01*
X164553258Y-143224150D01*
X164405125Y-143303329D01*
X164275285Y-143409885D01*
X164168729Y-143539725D01*
X164089550Y-143687858D01*
X164040792Y-143848592D01*
X164024328Y-144015750D01*
X164024328Y-144528250D01*
X164040792Y-144695408D01*
X164089550Y-144856142D01*
X164168729Y-145004275D01*
X164275285Y-145134115D01*
X164347127Y-145193074D01*
X164244829Y-145317725D01*
X164165650Y-145465858D01*
X164116892Y-145626592D01*
X164103315Y-145764440D01*
X164088408Y-145613092D01*
X164039650Y-145452358D01*
X163960471Y-145304225D01*
X163853915Y-145174385D01*
X163724075Y-145067829D01*
X163575942Y-144988650D01*
X163415208Y-144939892D01*
X163248050Y-144923428D01*
X162735550Y-144923428D01*
X162721400Y-144924822D01*
X162689805Y-144848544D01*
X162576537Y-144679026D01*
X162432374Y-144534863D01*
X162262856Y-144421595D01*
X162074498Y-144343574D01*
X161874539Y-144303800D01*
X161670661Y-144303800D01*
X161470702Y-144343574D01*
X161282344Y-144421595D01*
X161112826Y-144534863D01*
X160968663Y-144679026D01*
X160855395Y-144848544D01*
X160823720Y-144925014D01*
X160809650Y-144923628D01*
X160297150Y-144923628D01*
X160129992Y-144940092D01*
X159969258Y-144988850D01*
X159821125Y-145068029D01*
X159740582Y-145134128D01*
X159740826Y-140424800D01*
X159827328Y-140424800D01*
X159827328Y-142124800D01*
X159839588Y-142249282D01*
X159875898Y-142368980D01*
X159934863Y-142479294D01*
X160014215Y-142575985D01*
X160110906Y-142655337D01*
X160221220Y-142714302D01*
X160340918Y-142750612D01*
X160465400Y-142762872D01*
X162165400Y-142762872D01*
X162289882Y-142750612D01*
X162409580Y-142714302D01*
X162519894Y-142655337D01*
X162616585Y-142575985D01*
X162695937Y-142479294D01*
X162754902Y-142368980D01*
X162791212Y-142249282D01*
X162803472Y-142124800D01*
X162803472Y-140424800D01*
X162791212Y-140300318D01*
X162754902Y-140180620D01*
X162695937Y-140070306D01*
X162616585Y-139973615D01*
X162519894Y-139894263D01*
X162409580Y-139835298D01*
X162337020Y-139813287D01*
X162468875Y-139681432D01*
X162631390Y-139438211D01*
X162743332Y-139167958D01*
X162800400Y-138881060D01*
X162800400Y-138588540D01*
X162743332Y-138301642D01*
X162631390Y-138031389D01*
X162593105Y-137974091D01*
X168255919Y-137974091D01*
X168353243Y-138248452D01*
X168502222Y-138498555D01*
X168697131Y-138714788D01*
X168930480Y-138888841D01*
X169193301Y-139014025D01*
X169340510Y-139058676D01*
X169570400Y-138937355D01*
X169570400Y-137744200D01*
X168376586Y-137744200D01*
X168255919Y-137974091D01*
X162593105Y-137974091D01*
X162468875Y-137788168D01*
X162262032Y-137581325D01*
X162018811Y-137418810D01*
X161748558Y-137306868D01*
X161514492Y-137260309D01*
X168255919Y-137260309D01*
X168376586Y-137490200D01*
X169570400Y-137490200D01*
X169570400Y-136297045D01*
X169824400Y-136297045D01*
X169824400Y-137490200D01*
X169844400Y-137490200D01*
X169844400Y-137744200D01*
X169824400Y-137744200D01*
X169824400Y-138937355D01*
X170054290Y-139058676D01*
X170201499Y-139014025D01*
X170464320Y-138888841D01*
X170697669Y-138714788D01*
X170773434Y-138630734D01*
X170797898Y-138711380D01*
X170856863Y-138821694D01*
X170936215Y-138918385D01*
X171032906Y-138997737D01*
X171143220Y-139056702D01*
X171262918Y-139093012D01*
X171387400Y-139105272D01*
X173087400Y-139105272D01*
X173211882Y-139093012D01*
X173331580Y-139056702D01*
X173441894Y-138997737D01*
X173538585Y-138918385D01*
X173617937Y-138821694D01*
X173676902Y-138711380D01*
X173713212Y-138591682D01*
X173725472Y-138467200D01*
X173725472Y-136767200D01*
X173713212Y-136642718D01*
X173676902Y-136523020D01*
X173617937Y-136412706D01*
X173538585Y-136316015D01*
X173441894Y-136236663D01*
X173331580Y-136177698D01*
X173211882Y-136141388D01*
X173087400Y-136129128D01*
X171387400Y-136129128D01*
X171262918Y-136141388D01*
X171143220Y-136177698D01*
X171032906Y-136236663D01*
X170936215Y-136316015D01*
X170856863Y-136412706D01*
X170797898Y-136523020D01*
X170773434Y-136603666D01*
X170697669Y-136519612D01*
X170464320Y-136345559D01*
X170201499Y-136220375D01*
X170054290Y-136175724D01*
X169824400Y-136297045D01*
X169570400Y-136297045D01*
X169340510Y-136175724D01*
X169193301Y-136220375D01*
X168930480Y-136345559D01*
X168697131Y-136519612D01*
X168502222Y-136735845D01*
X168353243Y-136985948D01*
X168255919Y-137260309D01*
X161514492Y-137260309D01*
X161461660Y-137249800D01*
X161169140Y-137249800D01*
X160882242Y-137306868D01*
X160611989Y-137418810D01*
X160368768Y-137581325D01*
X160161925Y-137788168D01*
X159999410Y-138031389D01*
X159887468Y-138301642D01*
X159830400Y-138588540D01*
X159830400Y-138881060D01*
X159887468Y-139167958D01*
X159999410Y-139438211D01*
X160161925Y-139681432D01*
X160293780Y-139813287D01*
X160221220Y-139835298D01*
X160110906Y-139894263D01*
X160014215Y-139973615D01*
X159934863Y-140070306D01*
X159875898Y-140180620D01*
X159839588Y-140300318D01*
X159827328Y-140424800D01*
X159740826Y-140424800D01*
X159741075Y-135622400D01*
X159827328Y-135622400D01*
X159839588Y-135746882D01*
X159875898Y-135866580D01*
X159934863Y-135976894D01*
X160014215Y-136073585D01*
X160110906Y-136152937D01*
X160221220Y-136211902D01*
X160340918Y-136248212D01*
X160465400Y-136260472D01*
X161029650Y-136257400D01*
X161188400Y-136098650D01*
X161188400Y-134899400D01*
X161442400Y-134899400D01*
X161442400Y-136098650D01*
X161601150Y-136257400D01*
X162165400Y-136260472D01*
X162289882Y-136248212D01*
X162409580Y-136211902D01*
X162519894Y-136152937D01*
X162616585Y-136073585D01*
X162695937Y-135976894D01*
X162754902Y-135866580D01*
X162791212Y-135746882D01*
X162803472Y-135622400D01*
X162800400Y-135058150D01*
X162641650Y-134899400D01*
X161442400Y-134899400D01*
X161188400Y-134899400D01*
X159989150Y-134899400D01*
X159830400Y-135058150D01*
X159827328Y-135622400D01*
X159741075Y-135622400D01*
X159741163Y-133922400D01*
X159827328Y-133922400D01*
X159830400Y-134486650D01*
X159989150Y-134645400D01*
X161188400Y-134645400D01*
X161188400Y-134625400D01*
X161442400Y-134625400D01*
X161442400Y-134645400D01*
X162641650Y-134645400D01*
X162800400Y-134486650D01*
X162803472Y-133922400D01*
X162791212Y-133797918D01*
X162754902Y-133678220D01*
X162695937Y-133567906D01*
X162616585Y-133471215D01*
X162519894Y-133391863D01*
X162409580Y-133332898D01*
X162337020Y-133310887D01*
X162468875Y-133179032D01*
X162631390Y-132935811D01*
X162743332Y-132665558D01*
X162800400Y-132378660D01*
X162800400Y-132086140D01*
X162743332Y-131799242D01*
X162631390Y-131528989D01*
X162468875Y-131285768D01*
X162262032Y-131078925D01*
X162018811Y-130916410D01*
X161748558Y-130804468D01*
X161461660Y-130747400D01*
X161169140Y-130747400D01*
X160882242Y-130804468D01*
X160611989Y-130916410D01*
X160368768Y-131078925D01*
X160161925Y-131285768D01*
X159999410Y-131528989D01*
X159887468Y-131799242D01*
X159830400Y-132086140D01*
X159830400Y-132378660D01*
X159887468Y-132665558D01*
X159999410Y-132935811D01*
X160161925Y-133179032D01*
X160293780Y-133310887D01*
X160221220Y-133332898D01*
X160110906Y-133391863D01*
X160014215Y-133471215D01*
X159934863Y-133567906D01*
X159875898Y-133678220D01*
X159839588Y-133797918D01*
X159827328Y-133922400D01*
X159741163Y-133922400D01*
X159741351Y-130319247D01*
X159748472Y-130183264D01*
X159770224Y-130097286D01*
X159808262Y-130017168D01*
X159861139Y-129945962D01*
X159926839Y-129886383D01*
X160002858Y-129840702D01*
X160086302Y-129810655D01*
X160197486Y-129793835D01*
X160206464Y-129793600D01*
X170159274Y-129793600D01*
X170154241Y-129796963D01*
G37*
X170154241Y-129796963D02*
X169954363Y-129996841D01*
X169797320Y-130231873D01*
X169689147Y-130493026D01*
X169634000Y-130770265D01*
X169634000Y-131052935D01*
X169689147Y-131330174D01*
X169797320Y-131591327D01*
X169954363Y-131826359D01*
X170154241Y-132026237D01*
X170389273Y-132183280D01*
X170650426Y-132291453D01*
X170927665Y-132346600D01*
X171210335Y-132346600D01*
X171487574Y-132291453D01*
X171748727Y-132183280D01*
X171983759Y-132026237D01*
X172183637Y-131826359D01*
X172340680Y-131591327D01*
X172448853Y-131330174D01*
X172504000Y-131052935D01*
X172504000Y-130770265D01*
X172448853Y-130493026D01*
X172340680Y-130231873D01*
X172183637Y-129996841D01*
X171983759Y-129796963D01*
X171978726Y-129793600D01*
X177894721Y-129793600D01*
X178005400Y-129804452D01*
X178080814Y-129827221D01*
X178150368Y-129864203D01*
X178211414Y-129913992D01*
X178261629Y-129974691D01*
X178299097Y-130043986D01*
X178322392Y-130119239D01*
X178333800Y-130227784D01*
X178333801Y-143575824D01*
X178186008Y-143530992D01*
X178018850Y-143514528D01*
X177581350Y-143514528D01*
X177414192Y-143530992D01*
X177253458Y-143579750D01*
X177105325Y-143658929D01*
X177083670Y-143676700D01*
X177017094Y-143622063D01*
X176906780Y-143563098D01*
X176787082Y-143526788D01*
X176662600Y-143514528D01*
X176510850Y-143517600D01*
X176352100Y-143676350D01*
X176352100Y-144500600D01*
X176372100Y-144500600D01*
X176372100Y-144754600D01*
X176352100Y-144754600D01*
X176352100Y-144774600D01*
X176098100Y-144774600D01*
X176098100Y-144754600D01*
X175311350Y-144754600D01*
X175152600Y-144913350D01*
X175149528Y-145102600D01*
X175161788Y-145227082D01*
X175198098Y-145346780D01*
X175257063Y-145457094D01*
X175336415Y-145553785D01*
X175433106Y-145633137D01*
X175449167Y-145641722D01*
X175446663Y-145644226D01*
X175333395Y-145813744D01*
X175255374Y-146002102D01*
X175215600Y-146202061D01*
X175215600Y-146405939D01*
X175255374Y-146605898D01*
X175333395Y-146794256D01*
X175446663Y-146963774D01*
X175482811Y-146999922D01*
X175400485Y-147067485D01*
X175293929Y-147197325D01*
X175214750Y-147345458D01*
X175165992Y-147506192D01*
X175149528Y-147673350D01*
X175149528Y-148185850D01*
X175165992Y-148353008D01*
X175214750Y-148513742D01*
X175293929Y-148661875D01*
X175400485Y-148791715D01*
X175530325Y-148898271D01*
X175678458Y-148977450D01*
X175839192Y-149026208D01*
X176006350Y-149042672D01*
X176443850Y-149042672D01*
X176611008Y-149026208D01*
X176771742Y-148977450D01*
X176919875Y-148898271D01*
X177012600Y-148822174D01*
X177105325Y-148898271D01*
X177253458Y-148977450D01*
X177414192Y-149026208D01*
X177581350Y-149042672D01*
X178018850Y-149042672D01*
X178186008Y-149026208D01*
X178333801Y-148981376D01*
X178333801Y-152469309D01*
X178321980Y-152589865D01*
X178296345Y-152674775D01*
X178254709Y-152753079D01*
X178198654Y-152821809D01*
X178130315Y-152878344D01*
X178052302Y-152920526D01*
X177967573Y-152946754D01*
X177849158Y-152959200D01*
X163479678Y-152959200D01*
X163750675Y-152688203D01*
X164000741Y-152313953D01*
X164172989Y-151898110D01*
X164260800Y-151456653D01*
X164260800Y-151436091D01*
X166528719Y-151436091D01*
X166626043Y-151710452D01*
X166775022Y-151960555D01*
X166969931Y-152176788D01*
X167203280Y-152350841D01*
X167466101Y-152476025D01*
X167613310Y-152520676D01*
X167843200Y-152399355D01*
X167843200Y-151206200D01*
X166649386Y-151206200D01*
X166528719Y-151436091D01*
X164260800Y-151436091D01*
X164260800Y-151006547D01*
X164204262Y-150722309D01*
X166528719Y-150722309D01*
X166649386Y-150952200D01*
X167843200Y-150952200D01*
X167843200Y-149759045D01*
X167613310Y-149637724D01*
X167466101Y-149682375D01*
X167203280Y-149807559D01*
X166969931Y-149981612D01*
X166775022Y-150197845D01*
X166626043Y-150447948D01*
X166528719Y-150722309D01*
X164204262Y-150722309D01*
X164172989Y-150565090D01*
X164000741Y-150149247D01*
X163750675Y-149774997D01*
X163432403Y-149456725D01*
X163058153Y-149206659D01*
X162642310Y-149034411D01*
X162200853Y-148946600D01*
X161750747Y-148946600D01*
X161571054Y-148982343D01*
X161588400Y-148895139D01*
X161588400Y-148691261D01*
X161548626Y-148491302D01*
X161478517Y-148322046D01*
X161522071Y-148268975D01*
X161601250Y-148120842D01*
X161634418Y-148011500D01*
X161878728Y-148011500D01*
X161890988Y-148135982D01*
X161927298Y-148255680D01*
X161986263Y-148365994D01*
X162065615Y-148462685D01*
X162162306Y-148542037D01*
X162272620Y-148601002D01*
X162392318Y-148637312D01*
X162516800Y-148649572D01*
X162706050Y-148646500D01*
X162864800Y-148487750D01*
X162864800Y-147701000D01*
X163118800Y-147701000D01*
X163118800Y-148487750D01*
X163277550Y-148646500D01*
X163466800Y-148649572D01*
X163591282Y-148637312D01*
X163710980Y-148601002D01*
X163821294Y-148542037D01*
X163917985Y-148462685D01*
X163997337Y-148365994D01*
X164056302Y-148255680D01*
X164092612Y-148135982D01*
X164104872Y-148011500D01*
X164101800Y-147859750D01*
X163943050Y-147701000D01*
X163118800Y-147701000D01*
X162864800Y-147701000D01*
X162040550Y-147701000D01*
X161881800Y-147859750D01*
X161878728Y-148011500D01*
X161634418Y-148011500D01*
X161650008Y-147960108D01*
X161666472Y-147792950D01*
X161666472Y-147355450D01*
X161650008Y-147188292D01*
X161601250Y-147027558D01*
X161522071Y-146879425D01*
X161445974Y-146786700D01*
X161466901Y-146761200D01*
X162003338Y-146761200D01*
X161986263Y-146782006D01*
X161927298Y-146892320D01*
X161890988Y-147012018D01*
X161878728Y-147136500D01*
X161881800Y-147288250D01*
X162040550Y-147447000D01*
X162864800Y-147447000D01*
X162864800Y-147427000D01*
X163118800Y-147427000D01*
X163118800Y-147447000D01*
X163943050Y-147447000D01*
X164101800Y-147288250D01*
X164104872Y-147136500D01*
X164092612Y-147012018D01*
X164056302Y-146892320D01*
X163997337Y-146782006D01*
X163942700Y-146715430D01*
X163960471Y-146693775D01*
X164039650Y-146545642D01*
X164088408Y-146384908D01*
X164100428Y-146262870D01*
X164100428Y-146306250D01*
X164116892Y-146473408D01*
X164165650Y-146634142D01*
X164244829Y-146782275D01*
X164351385Y-146912115D01*
X164481225Y-147018671D01*
X164629358Y-147097850D01*
X164790092Y-147146608D01*
X164957250Y-147163072D01*
X165394750Y-147163072D01*
X165561908Y-147146608D01*
X165722642Y-147097850D01*
X165870775Y-147018671D01*
X165963500Y-146942574D01*
X166056225Y-147018671D01*
X166204358Y-147097850D01*
X166365092Y-147146608D01*
X166532250Y-147163072D01*
X166969750Y-147163072D01*
X167136908Y-147146608D01*
X167297642Y-147097850D01*
X167445775Y-147018671D01*
X167575615Y-146912115D01*
X167629467Y-146846496D01*
X167728834Y-146816353D01*
X167872242Y-146739699D01*
X167997941Y-146636541D01*
X168023798Y-146605034D01*
X169748201Y-144880632D01*
X169748200Y-149802358D01*
X169563568Y-149925725D01*
X169356725Y-150132568D01*
X169235005Y-150314734D01*
X169165378Y-150197845D01*
X168970469Y-149981612D01*
X168737120Y-149807559D01*
X168474299Y-149682375D01*
X168327090Y-149637724D01*
X168097200Y-149759045D01*
X168097200Y-150952200D01*
X168117200Y-150952200D01*
X168117200Y-151206200D01*
X168097200Y-151206200D01*
X168097200Y-152399355D01*
X168327090Y-152520676D01*
X168474299Y-152476025D01*
X168737120Y-152350841D01*
X168970469Y-152176788D01*
X169165378Y-151960555D01*
X169235005Y-151843666D01*
X169356725Y-152025832D01*
X169563568Y-152232675D01*
X169806789Y-152395190D01*
X170077042Y-152507132D01*
X170363940Y-152564200D01*
X170656460Y-152564200D01*
X170943358Y-152507132D01*
X171213611Y-152395190D01*
X171456832Y-152232675D01*
X171663675Y-152025832D01*
X171780200Y-151851440D01*
X171896725Y-152025832D01*
X172103568Y-152232675D01*
X172346789Y-152395190D01*
X172617042Y-152507132D01*
X172903940Y-152564200D01*
X173196460Y-152564200D01*
X173483358Y-152507132D01*
X173753611Y-152395190D01*
X173996832Y-152232675D01*
X174128687Y-152100820D01*
X174150698Y-152173380D01*
X174209663Y-152283694D01*
X174289015Y-152380385D01*
X174385706Y-152459737D01*
X174496020Y-152518702D01*
X174615718Y-152555012D01*
X174740200Y-152567272D01*
X176440200Y-152567272D01*
X176564682Y-152555012D01*
X176684380Y-152518702D01*
X176794694Y-152459737D01*
X176891385Y-152380385D01*
X176970737Y-152283694D01*
X177029702Y-152173380D01*
X177066012Y-152053682D01*
X177078272Y-151929200D01*
X177078272Y-150229200D01*
X177066012Y-150104718D01*
X177029702Y-149985020D01*
X176970737Y-149874706D01*
X176891385Y-149778015D01*
X176794694Y-149698663D01*
X176684380Y-149639698D01*
X176564682Y-149603388D01*
X176440200Y-149591128D01*
X175535359Y-149591128D01*
X173101000Y-147156770D01*
X173101000Y-146430262D01*
X173151174Y-146396737D01*
X173295337Y-146252574D01*
X173408605Y-146083056D01*
X173486626Y-145894698D01*
X173526400Y-145694739D01*
X173526400Y-145490861D01*
X173486626Y-145290902D01*
X173408605Y-145102544D01*
X173295337Y-144933026D01*
X173151174Y-144788863D01*
X172981656Y-144675595D01*
X172793298Y-144597574D01*
X172593339Y-144557800D01*
X172389461Y-144557800D01*
X172189502Y-144597574D01*
X172001144Y-144675595D01*
X171831626Y-144788863D01*
X171687463Y-144933026D01*
X171574195Y-145102544D01*
X171496174Y-145290902D01*
X171456400Y-145490861D01*
X171456400Y-145694739D01*
X171496174Y-145894698D01*
X171574195Y-146083056D01*
X171577001Y-146087255D01*
X171577000Y-147434976D01*
X171573314Y-147472400D01*
X171577000Y-147509823D01*
X171577000Y-147509825D01*
X171588026Y-147621777D01*
X171631598Y-147765414D01*
X171649002Y-147797974D01*
X171702355Y-147897792D01*
X171737509Y-147940627D01*
X171797578Y-148013822D01*
X171826654Y-148037684D01*
X173429530Y-149640561D01*
X173196460Y-149594200D01*
X172903940Y-149594200D01*
X172617042Y-149651268D01*
X172346789Y-149763210D01*
X172103568Y-149925725D01*
X171896725Y-150132568D01*
X171780200Y-150306960D01*
X171663675Y-150132568D01*
X171456832Y-149925725D01*
X171272200Y-149802358D01*
X171272200Y-144152600D01*
X175149528Y-144152600D01*
X175152600Y-144341850D01*
X175311350Y-144500600D01*
X176098100Y-144500600D01*
X176098100Y-143676350D01*
X175939350Y-143517600D01*
X175787600Y-143514528D01*
X175663118Y-143526788D01*
X175543420Y-143563098D01*
X175433106Y-143622063D01*
X175336415Y-143701415D01*
X175257063Y-143798106D01*
X175198098Y-143908420D01*
X175161788Y-144028118D01*
X175149528Y-144152600D01*
X171272200Y-144152600D01*
X171272200Y-143356633D01*
X171452791Y-143176042D01*
X171452796Y-143176036D01*
X171624034Y-143004798D01*
X171655541Y-142978941D01*
X171758699Y-142853242D01*
X171835353Y-142709834D01*
X171882556Y-142554226D01*
X171894500Y-142432953D01*
X171894500Y-142432951D01*
X171898494Y-142392401D01*
X171894500Y-142351850D01*
X171894500Y-142245878D01*
X171983759Y-142186237D01*
X172183637Y-141986359D01*
X172340680Y-141751327D01*
X172448853Y-141490174D01*
X172504000Y-141212935D01*
X172504000Y-140930265D01*
X172448853Y-140653026D01*
X172340680Y-140391873D01*
X172183637Y-140156841D01*
X171983759Y-139956963D01*
X171748727Y-139799920D01*
X171487574Y-139691747D01*
X171210335Y-139636600D01*
X170927665Y-139636600D01*
X170650426Y-139691747D01*
X170389273Y-139799920D01*
X170154241Y-139956963D01*
X169954363Y-140156841D01*
X169797320Y-140391873D01*
X169689147Y-140653026D01*
X169634000Y-140930265D01*
X169634000Y-141212935D01*
X169689147Y-141490174D01*
X169797320Y-141751327D01*
X169954363Y-141986359D01*
X170130986Y-142162982D01*
X167741809Y-144552159D01*
X167588650Y-144399000D01*
X166801900Y-144399000D01*
X166801900Y-144419000D01*
X166547900Y-144419000D01*
X166547900Y-144399000D01*
X166527900Y-144399000D01*
X166527900Y-144145000D01*
X166547900Y-144145000D01*
X166547900Y-143320750D01*
X166801900Y-143320750D01*
X166801900Y-144145000D01*
X167588650Y-144145000D01*
X167747400Y-143986250D01*
X167750472Y-143797000D01*
X167738212Y-143672518D01*
X167701902Y-143552820D01*
X167642937Y-143442506D01*
X167563585Y-143345815D01*
X167466894Y-143266463D01*
X167356580Y-143207498D01*
X167236882Y-143171188D01*
X167112400Y-143158928D01*
X166960650Y-143162000D01*
X166801900Y-143320750D01*
X166547900Y-143320750D01*
X166389150Y-143162000D01*
X166237400Y-143158928D01*
X166112918Y-143171188D01*
X165993220Y-143207498D01*
X165882906Y-143266463D01*
X165816330Y-143321100D01*
X165794675Y-143303329D01*
X165646542Y-143224150D01*
X165485808Y-143175392D01*
X165318650Y-143158928D01*
X164881150Y-143158928D01*
X164713992Y-143175392D01*
X164553258Y-143224150D01*
X164405125Y-143303329D01*
X164275285Y-143409885D01*
X164168729Y-143539725D01*
X164089550Y-143687858D01*
X164040792Y-143848592D01*
X164024328Y-144015750D01*
X164024328Y-144528250D01*
X164040792Y-144695408D01*
X164089550Y-144856142D01*
X164168729Y-145004275D01*
X164275285Y-145134115D01*
X164347127Y-145193074D01*
X164244829Y-145317725D01*
X164165650Y-145465858D01*
X164116892Y-145626592D01*
X164103315Y-145764440D01*
X164088408Y-145613092D01*
X164039650Y-145452358D01*
X163960471Y-145304225D01*
X163853915Y-145174385D01*
X163724075Y-145067829D01*
X163575942Y-144988650D01*
X163415208Y-144939892D01*
X163248050Y-144923428D01*
X162735550Y-144923428D01*
X162721400Y-144924822D01*
X162689805Y-144848544D01*
X162576537Y-144679026D01*
X162432374Y-144534863D01*
X162262856Y-144421595D01*
X162074498Y-144343574D01*
X161874539Y-144303800D01*
X161670661Y-144303800D01*
X161470702Y-144343574D01*
X161282344Y-144421595D01*
X161112826Y-144534863D01*
X160968663Y-144679026D01*
X160855395Y-144848544D01*
X160823720Y-144925014D01*
X160809650Y-144923628D01*
X160297150Y-144923628D01*
X160129992Y-144940092D01*
X159969258Y-144988850D01*
X159821125Y-145068029D01*
X159740582Y-145134128D01*
X159740826Y-140424800D01*
X159827328Y-140424800D01*
X159827328Y-142124800D01*
X159839588Y-142249282D01*
X159875898Y-142368980D01*
X159934863Y-142479294D01*
X160014215Y-142575985D01*
X160110906Y-142655337D01*
X160221220Y-142714302D01*
X160340918Y-142750612D01*
X160465400Y-142762872D01*
X162165400Y-142762872D01*
X162289882Y-142750612D01*
X162409580Y-142714302D01*
X162519894Y-142655337D01*
X162616585Y-142575985D01*
X162695937Y-142479294D01*
X162754902Y-142368980D01*
X162791212Y-142249282D01*
X162803472Y-142124800D01*
X162803472Y-140424800D01*
X162791212Y-140300318D01*
X162754902Y-140180620D01*
X162695937Y-140070306D01*
X162616585Y-139973615D01*
X162519894Y-139894263D01*
X162409580Y-139835298D01*
X162337020Y-139813287D01*
X162468875Y-139681432D01*
X162631390Y-139438211D01*
X162743332Y-139167958D01*
X162800400Y-138881060D01*
X162800400Y-138588540D01*
X162743332Y-138301642D01*
X162631390Y-138031389D01*
X162593105Y-137974091D01*
X168255919Y-137974091D01*
X168353243Y-138248452D01*
X168502222Y-138498555D01*
X168697131Y-138714788D01*
X168930480Y-138888841D01*
X169193301Y-139014025D01*
X169340510Y-139058676D01*
X169570400Y-138937355D01*
X169570400Y-137744200D01*
X168376586Y-137744200D01*
X168255919Y-137974091D01*
X162593105Y-137974091D01*
X162468875Y-137788168D01*
X162262032Y-137581325D01*
X162018811Y-137418810D01*
X161748558Y-137306868D01*
X161514492Y-137260309D01*
X168255919Y-137260309D01*
X168376586Y-137490200D01*
X169570400Y-137490200D01*
X169570400Y-136297045D01*
X169824400Y-136297045D01*
X169824400Y-137490200D01*
X169844400Y-137490200D01*
X169844400Y-137744200D01*
X169824400Y-137744200D01*
X169824400Y-138937355D01*
X170054290Y-139058676D01*
X170201499Y-139014025D01*
X170464320Y-138888841D01*
X170697669Y-138714788D01*
X170773434Y-138630734D01*
X170797898Y-138711380D01*
X170856863Y-138821694D01*
X170936215Y-138918385D01*
X171032906Y-138997737D01*
X171143220Y-139056702D01*
X171262918Y-139093012D01*
X171387400Y-139105272D01*
X173087400Y-139105272D01*
X173211882Y-139093012D01*
X173331580Y-139056702D01*
X173441894Y-138997737D01*
X173538585Y-138918385D01*
X173617937Y-138821694D01*
X173676902Y-138711380D01*
X173713212Y-138591682D01*
X173725472Y-138467200D01*
X173725472Y-136767200D01*
X173713212Y-136642718D01*
X173676902Y-136523020D01*
X173617937Y-136412706D01*
X173538585Y-136316015D01*
X173441894Y-136236663D01*
X173331580Y-136177698D01*
X173211882Y-136141388D01*
X173087400Y-136129128D01*
X171387400Y-136129128D01*
X171262918Y-136141388D01*
X171143220Y-136177698D01*
X171032906Y-136236663D01*
X170936215Y-136316015D01*
X170856863Y-136412706D01*
X170797898Y-136523020D01*
X170773434Y-136603666D01*
X170697669Y-136519612D01*
X170464320Y-136345559D01*
X170201499Y-136220375D01*
X170054290Y-136175724D01*
X169824400Y-136297045D01*
X169570400Y-136297045D01*
X169340510Y-136175724D01*
X169193301Y-136220375D01*
X168930480Y-136345559D01*
X168697131Y-136519612D01*
X168502222Y-136735845D01*
X168353243Y-136985948D01*
X168255919Y-137260309D01*
X161514492Y-137260309D01*
X161461660Y-137249800D01*
X161169140Y-137249800D01*
X160882242Y-137306868D01*
X160611989Y-137418810D01*
X160368768Y-137581325D01*
X160161925Y-137788168D01*
X159999410Y-138031389D01*
X159887468Y-138301642D01*
X159830400Y-138588540D01*
X159830400Y-138881060D01*
X159887468Y-139167958D01*
X159999410Y-139438211D01*
X160161925Y-139681432D01*
X160293780Y-139813287D01*
X160221220Y-139835298D01*
X160110906Y-139894263D01*
X160014215Y-139973615D01*
X159934863Y-140070306D01*
X159875898Y-140180620D01*
X159839588Y-140300318D01*
X159827328Y-140424800D01*
X159740826Y-140424800D01*
X159741075Y-135622400D01*
X159827328Y-135622400D01*
X159839588Y-135746882D01*
X159875898Y-135866580D01*
X159934863Y-135976894D01*
X160014215Y-136073585D01*
X160110906Y-136152937D01*
X160221220Y-136211902D01*
X160340918Y-136248212D01*
X160465400Y-136260472D01*
X161029650Y-136257400D01*
X161188400Y-136098650D01*
X161188400Y-134899400D01*
X161442400Y-134899400D01*
X161442400Y-136098650D01*
X161601150Y-136257400D01*
X162165400Y-136260472D01*
X162289882Y-136248212D01*
X162409580Y-136211902D01*
X162519894Y-136152937D01*
X162616585Y-136073585D01*
X162695937Y-135976894D01*
X162754902Y-135866580D01*
X162791212Y-135746882D01*
X162803472Y-135622400D01*
X162800400Y-135058150D01*
X162641650Y-134899400D01*
X161442400Y-134899400D01*
X161188400Y-134899400D01*
X159989150Y-134899400D01*
X159830400Y-135058150D01*
X159827328Y-135622400D01*
X159741075Y-135622400D01*
X159741163Y-133922400D01*
X159827328Y-133922400D01*
X159830400Y-134486650D01*
X159989150Y-134645400D01*
X161188400Y-134645400D01*
X161188400Y-134625400D01*
X161442400Y-134625400D01*
X161442400Y-134645400D01*
X162641650Y-134645400D01*
X162800400Y-134486650D01*
X162803472Y-133922400D01*
X162791212Y-133797918D01*
X162754902Y-133678220D01*
X162695937Y-133567906D01*
X162616585Y-133471215D01*
X162519894Y-133391863D01*
X162409580Y-133332898D01*
X162337020Y-133310887D01*
X162468875Y-133179032D01*
X162631390Y-132935811D01*
X162743332Y-132665558D01*
X162800400Y-132378660D01*
X162800400Y-132086140D01*
X162743332Y-131799242D01*
X162631390Y-131528989D01*
X162468875Y-131285768D01*
X162262032Y-131078925D01*
X162018811Y-130916410D01*
X161748558Y-130804468D01*
X161461660Y-130747400D01*
X161169140Y-130747400D01*
X160882242Y-130804468D01*
X160611989Y-130916410D01*
X160368768Y-131078925D01*
X160161925Y-131285768D01*
X159999410Y-131528989D01*
X159887468Y-131799242D01*
X159830400Y-132086140D01*
X159830400Y-132378660D01*
X159887468Y-132665558D01*
X159999410Y-132935811D01*
X160161925Y-133179032D01*
X160293780Y-133310887D01*
X160221220Y-133332898D01*
X160110906Y-133391863D01*
X160014215Y-133471215D01*
X159934863Y-133567906D01*
X159875898Y-133678220D01*
X159839588Y-133797918D01*
X159827328Y-133922400D01*
X159741163Y-133922400D01*
X159741351Y-130319247D01*
X159748472Y-130183264D01*
X159770224Y-130097286D01*
X159808262Y-130017168D01*
X159861139Y-129945962D01*
X159926839Y-129886383D01*
X160002858Y-129840702D01*
X160086302Y-129810655D01*
X160197486Y-129793835D01*
X160206464Y-129793600D01*
X170159274Y-129793600D01*
X170154241Y-129796963D01*
G36*
X177105325Y-145596271D02*
G01*
X177253458Y-145675450D01*
X177414192Y-145724208D01*
X177581350Y-145740672D01*
X178018850Y-145740672D01*
X178186008Y-145724208D01*
X178333801Y-145679376D01*
X178333801Y-146877824D01*
X178186008Y-146832992D01*
X178018850Y-146816528D01*
X177581350Y-146816528D01*
X177414192Y-146832992D01*
X177253458Y-146881750D01*
X177105325Y-146960929D01*
X177012600Y-147037026D01*
X177012600Y-147005711D01*
X177054537Y-146963774D01*
X177167805Y-146794256D01*
X177245826Y-146605898D01*
X177285600Y-146405939D01*
X177285600Y-146202061D01*
X177245826Y-146002102D01*
X177167805Y-145813744D01*
X177054537Y-145644226D01*
X177031569Y-145621258D01*
X177083670Y-145578500D01*
X177105325Y-145596271D01*
G37*
X177105325Y-145596271D02*
X177253458Y-145675450D01*
X177414192Y-145724208D01*
X177581350Y-145740672D01*
X178018850Y-145740672D01*
X178186008Y-145724208D01*
X178333801Y-145679376D01*
X178333801Y-146877824D01*
X178186008Y-146832992D01*
X178018850Y-146816528D01*
X177581350Y-146816528D01*
X177414192Y-146832992D01*
X177253458Y-146881750D01*
X177105325Y-146960929D01*
X177012600Y-147037026D01*
X177012600Y-147005711D01*
X177054537Y-146963774D01*
X177167805Y-146794256D01*
X177245826Y-146605898D01*
X177285600Y-146405939D01*
X177285600Y-146202061D01*
X177245826Y-146002102D01*
X177167805Y-145813744D01*
X177054537Y-145644226D01*
X177031569Y-145621258D01*
X177083670Y-145578500D01*
X177105325Y-145596271D01*
%TD*%
M02*
