%TF.GenerationSoftware,KiCad,Pcbnew,(5.1.6)-1*%
%TF.CreationDate,2020-11-25T11:03:50+08:00*%
%TF.ProjectId,BCG_Piezo_Integrated_V1.0,4243475f-5069-4657-9a6f-5f496e746567,rev?*%
%TF.SameCoordinates,Original*%
%TF.FileFunction,Copper,L1,Top*%
%TF.FilePolarity,Positive*%
%FSLAX46Y46*%
G04 Gerber Fmt 4.6, Leading zero omitted, Abs format (unit mm)*
G04 Created by KiCad (PCBNEW (5.1.6)-1) date 2020-11-25 11:03:50*
%MOMM*%
%LPD*%
G01*
G04 APERTURE LIST*
%TA.AperFunction,ComponentPad*%
%ADD10O,1.600000X1.600000*%
%TD*%
%TA.AperFunction,ComponentPad*%
%ADD11C,1.600000*%
%TD*%
%TA.AperFunction,SMDPad,CuDef*%
%ADD12R,1.060000X0.650000*%
%TD*%
%TA.AperFunction,ComponentPad*%
%ADD13O,1.700000X1.700000*%
%TD*%
%TA.AperFunction,ComponentPad*%
%ADD14R,1.700000X1.700000*%
%TD*%
%TA.AperFunction,ViaPad*%
%ADD15C,3.300000*%
%TD*%
%TA.AperFunction,ViaPad*%
%ADD16C,0.800000*%
%TD*%
%TA.AperFunction,Conductor*%
%ADD17C,0.254000*%
%TD*%
%TA.AperFunction,Conductor*%
%ADD18C,0.381000*%
%TD*%
G04 APERTURE END LIST*
D10*
%TO.P,R13,2*%
%TO.N,Net-(C7-Pad2)*%
X171069000Y-130911600D03*
D11*
%TO.P,R13,1*%
%TO.N,/charge_out*%
X171069000Y-141071600D03*
%TD*%
D12*
%TO.P,U4,5*%
%TO.N,+3V3*%
X164685800Y-141970800D03*
%TO.P,U4,4*%
%TO.N,Net-(C7-Pad2)*%
X164685800Y-140070800D03*
%TO.P,U4,3*%
%TO.N,+1V5*%
X166885800Y-140070800D03*
%TO.P,U4,2*%
%TO.N,GND*%
X166885800Y-141020800D03*
%TO.P,U4,1*%
%TO.N,/charge_out*%
X166885800Y-141970800D03*
%TD*%
%TO.P,U2,5*%
%TO.N,+3V3*%
X160487000Y-147696000D03*
%TO.P,U2,4*%
%TO.N,+1V5*%
X160487000Y-145796000D03*
%TO.P,U2,3*%
%TO.N,Net-(R1-Pad1)*%
X162687000Y-145796000D03*
%TO.P,U2,2*%
%TO.N,GND*%
X162687000Y-146746000D03*
%TO.P,U2,1*%
%TO.N,Net-(R3-Pad2)*%
X162687000Y-147696000D03*
%TD*%
%TO.P,U1,5*%
%TO.N,Net-(C3-Pad1)*%
X173726200Y-132958800D03*
%TO.P,U1,4*%
%TO.N,Net-(U1-Pad4)*%
X173726200Y-134858800D03*
%TO.P,U1,3*%
%TO.N,+BATT*%
X171526200Y-134858800D03*
%TO.P,U1,2*%
%TO.N,GND*%
X171526200Y-133908800D03*
%TO.P,U1,1*%
%TO.N,+BATT*%
X171526200Y-132958800D03*
%TD*%
%TO.P,R8,2*%
%TO.N,/piezoP*%
%TA.AperFunction,SMDPad,CuDef*%
G36*
G01*
X165283400Y-137970550D02*
X165283400Y-138483050D01*
G75*
G02*
X165064650Y-138701800I-218750J0D01*
G01*
X164627150Y-138701800D01*
G75*
G02*
X164408400Y-138483050I0J218750D01*
G01*
X164408400Y-137970550D01*
G75*
G02*
X164627150Y-137751800I218750J0D01*
G01*
X165064650Y-137751800D01*
G75*
G02*
X165283400Y-137970550I0J-218750D01*
G01*
G37*
%TD.AperFunction*%
%TO.P,R8,1*%
%TO.N,Net-(C7-Pad2)*%
%TA.AperFunction,SMDPad,CuDef*%
G36*
G01*
X166858400Y-137970550D02*
X166858400Y-138483050D01*
G75*
G02*
X166639650Y-138701800I-218750J0D01*
G01*
X166202150Y-138701800D01*
G75*
G02*
X165983400Y-138483050I0J218750D01*
G01*
X165983400Y-137970550D01*
G75*
G02*
X166202150Y-137751800I218750J0D01*
G01*
X166639650Y-137751800D01*
G75*
G02*
X166858400Y-137970550I0J-218750D01*
G01*
G37*
%TD.AperFunction*%
%TD*%
%TO.P,R3,2*%
%TO.N,Net-(R3-Pad2)*%
%TA.AperFunction,SMDPad,CuDef*%
G36*
G01*
X161944700Y-144375850D02*
X161944700Y-143863350D01*
G75*
G02*
X162163450Y-143644600I218750J0D01*
G01*
X162600950Y-143644600D01*
G75*
G02*
X162819700Y-143863350I0J-218750D01*
G01*
X162819700Y-144375850D01*
G75*
G02*
X162600950Y-144594600I-218750J0D01*
G01*
X162163450Y-144594600D01*
G75*
G02*
X161944700Y-144375850I0J218750D01*
G01*
G37*
%TD.AperFunction*%
%TO.P,R3,1*%
%TO.N,+1V5*%
%TA.AperFunction,SMDPad,CuDef*%
G36*
G01*
X160369700Y-144375850D02*
X160369700Y-143863350D01*
G75*
G02*
X160588450Y-143644600I218750J0D01*
G01*
X161025950Y-143644600D01*
G75*
G02*
X161244700Y-143863350I0J-218750D01*
G01*
X161244700Y-144375850D01*
G75*
G02*
X161025950Y-144594600I-218750J0D01*
G01*
X160588450Y-144594600D01*
G75*
G02*
X160369700Y-144375850I0J218750D01*
G01*
G37*
%TD.AperFunction*%
%TD*%
D13*
%TO.P,J3,2*%
%TO.N,/piezoP*%
X161315400Y-138734800D03*
D14*
%TO.P,J3,1*%
%TO.N,+1V5*%
X161315400Y-141274800D03*
%TD*%
D13*
%TO.P,J1,2*%
%TO.N,Net-(F1-Pad2)*%
X161315400Y-132232400D03*
D14*
%TO.P,J1,1*%
%TO.N,GND*%
X161315400Y-134772400D03*
%TD*%
%TO.P,F1,2*%
%TO.N,Net-(F1-Pad2)*%
%TA.AperFunction,SMDPad,CuDef*%
G36*
G01*
X164807600Y-132471000D02*
X164807600Y-133721000D01*
G75*
G02*
X164557600Y-133971000I-250000J0D01*
G01*
X163807600Y-133971000D01*
G75*
G02*
X163557600Y-133721000I0J250000D01*
G01*
X163557600Y-132471000D01*
G75*
G02*
X163807600Y-132221000I250000J0D01*
G01*
X164557600Y-132221000D01*
G75*
G02*
X164807600Y-132471000I0J-250000D01*
G01*
G37*
%TD.AperFunction*%
%TO.P,F1,1*%
%TO.N,+BATT*%
%TA.AperFunction,SMDPad,CuDef*%
G36*
G01*
X167607600Y-132471000D02*
X167607600Y-133721000D01*
G75*
G02*
X167357600Y-133971000I-250000J0D01*
G01*
X166607600Y-133971000D01*
G75*
G02*
X166357600Y-133721000I0J250000D01*
G01*
X166357600Y-132471000D01*
G75*
G02*
X166607600Y-132221000I250000J0D01*
G01*
X167357600Y-132221000D01*
G75*
G02*
X167607600Y-132471000I0J-250000D01*
G01*
G37*
%TD.AperFunction*%
%TD*%
%TO.P,C7,2*%
%TO.N,Net-(C7-Pad2)*%
%TA.AperFunction,SMDPad,CuDef*%
G36*
G01*
X168937650Y-140823200D02*
X168425150Y-140823200D01*
G75*
G02*
X168206400Y-140604450I0J218750D01*
G01*
X168206400Y-140166950D01*
G75*
G02*
X168425150Y-139948200I218750J0D01*
G01*
X168937650Y-139948200D01*
G75*
G02*
X169156400Y-140166950I0J-218750D01*
G01*
X169156400Y-140604450D01*
G75*
G02*
X168937650Y-140823200I-218750J0D01*
G01*
G37*
%TD.AperFunction*%
%TO.P,C7,1*%
%TO.N,/charge_out*%
%TA.AperFunction,SMDPad,CuDef*%
G36*
G01*
X168937650Y-142398200D02*
X168425150Y-142398200D01*
G75*
G02*
X168206400Y-142179450I0J218750D01*
G01*
X168206400Y-141741950D01*
G75*
G02*
X168425150Y-141523200I218750J0D01*
G01*
X168937650Y-141523200D01*
G75*
G02*
X169156400Y-141741950I0J-218750D01*
G01*
X169156400Y-142179450D01*
G75*
G02*
X168937650Y-142398200I-218750J0D01*
G01*
G37*
%TD.AperFunction*%
%TD*%
%TO.P,C4,2*%
%TO.N,GND*%
%TA.AperFunction,SMDPad,CuDef*%
G36*
G01*
X175643250Y-133508000D02*
X175130750Y-133508000D01*
G75*
G02*
X174912000Y-133289250I0J218750D01*
G01*
X174912000Y-132851750D01*
G75*
G02*
X175130750Y-132633000I218750J0D01*
G01*
X175643250Y-132633000D01*
G75*
G02*
X175862000Y-132851750I0J-218750D01*
G01*
X175862000Y-133289250D01*
G75*
G02*
X175643250Y-133508000I-218750J0D01*
G01*
G37*
%TD.AperFunction*%
%TO.P,C4,1*%
%TO.N,Net-(C3-Pad1)*%
%TA.AperFunction,SMDPad,CuDef*%
G36*
G01*
X175643250Y-135083000D02*
X175130750Y-135083000D01*
G75*
G02*
X174912000Y-134864250I0J218750D01*
G01*
X174912000Y-134426750D01*
G75*
G02*
X175130750Y-134208000I218750J0D01*
G01*
X175643250Y-134208000D01*
G75*
G02*
X175862000Y-134426750I0J-218750D01*
G01*
X175862000Y-134864250D01*
G75*
G02*
X175643250Y-135083000I-218750J0D01*
G01*
G37*
%TD.AperFunction*%
%TD*%
%TO.P,C3,2*%
%TO.N,GND*%
%TA.AperFunction,SMDPad,CuDef*%
G36*
G01*
X174622750Y-137586100D02*
X175135250Y-137586100D01*
G75*
G02*
X175354000Y-137804850I0J-218750D01*
G01*
X175354000Y-138242350D01*
G75*
G02*
X175135250Y-138461100I-218750J0D01*
G01*
X174622750Y-138461100D01*
G75*
G02*
X174404000Y-138242350I0J218750D01*
G01*
X174404000Y-137804850D01*
G75*
G02*
X174622750Y-137586100I218750J0D01*
G01*
G37*
%TD.AperFunction*%
%TO.P,C3,1*%
%TO.N,Net-(C3-Pad1)*%
%TA.AperFunction,SMDPad,CuDef*%
G36*
G01*
X174622750Y-136011100D02*
X175135250Y-136011100D01*
G75*
G02*
X175354000Y-136229850I0J-218750D01*
G01*
X175354000Y-136667350D01*
G75*
G02*
X175135250Y-136886100I-218750J0D01*
G01*
X174622750Y-136886100D01*
G75*
G02*
X174404000Y-136667350I0J218750D01*
G01*
X174404000Y-136229850D01*
G75*
G02*
X174622750Y-136011100I218750J0D01*
G01*
G37*
%TD.AperFunction*%
%TD*%
%TO.P,C2,2*%
%TO.N,GND*%
%TA.AperFunction,SMDPad,CuDef*%
G36*
G01*
X168526750Y-134157200D02*
X169039250Y-134157200D01*
G75*
G02*
X169258000Y-134375950I0J-218750D01*
G01*
X169258000Y-134813450D01*
G75*
G02*
X169039250Y-135032200I-218750J0D01*
G01*
X168526750Y-135032200D01*
G75*
G02*
X168308000Y-134813450I0J218750D01*
G01*
X168308000Y-134375950D01*
G75*
G02*
X168526750Y-134157200I218750J0D01*
G01*
G37*
%TD.AperFunction*%
%TO.P,C2,1*%
%TO.N,+BATT*%
%TA.AperFunction,SMDPad,CuDef*%
G36*
G01*
X168526750Y-132582200D02*
X169039250Y-132582200D01*
G75*
G02*
X169258000Y-132800950I0J-218750D01*
G01*
X169258000Y-133238450D01*
G75*
G02*
X169039250Y-133457200I-218750J0D01*
G01*
X168526750Y-133457200D01*
G75*
G02*
X168308000Y-133238450I0J218750D01*
G01*
X168308000Y-132800950D01*
G75*
G02*
X168526750Y-132582200I218750J0D01*
G01*
G37*
%TD.AperFunction*%
%TD*%
%TO.P,C1,2*%
%TO.N,GND*%
%TA.AperFunction,SMDPad,CuDef*%
G36*
G01*
X165258100Y-135836950D02*
X165258100Y-136349450D01*
G75*
G02*
X165039350Y-136568200I-218750J0D01*
G01*
X164601850Y-136568200D01*
G75*
G02*
X164383100Y-136349450I0J218750D01*
G01*
X164383100Y-135836950D01*
G75*
G02*
X164601850Y-135618200I218750J0D01*
G01*
X165039350Y-135618200D01*
G75*
G02*
X165258100Y-135836950I0J-218750D01*
G01*
G37*
%TD.AperFunction*%
%TO.P,C1,1*%
%TO.N,+BATT*%
%TA.AperFunction,SMDPad,CuDef*%
G36*
G01*
X166833100Y-135836950D02*
X166833100Y-136349450D01*
G75*
G02*
X166614350Y-136568200I-218750J0D01*
G01*
X166176850Y-136568200D01*
G75*
G02*
X165958100Y-136349450I0J218750D01*
G01*
X165958100Y-135836950D01*
G75*
G02*
X166176850Y-135618200I218750J0D01*
G01*
X166614350Y-135618200D01*
G75*
G02*
X166833100Y-135836950I0J-218750D01*
G01*
G37*
%TD.AperFunction*%
%TD*%
%TO.P,U3,8*%
%TO.N,+3V3*%
%TA.AperFunction,SMDPad,CuDef*%
G36*
G01*
X173275400Y-144142600D02*
X173275400Y-143842600D01*
G75*
G02*
X173425400Y-143692600I150000J0D01*
G01*
X174775400Y-143692600D01*
G75*
G02*
X174925400Y-143842600I0J-150000D01*
G01*
X174925400Y-144142600D01*
G75*
G02*
X174775400Y-144292600I-150000J0D01*
G01*
X173425400Y-144292600D01*
G75*
G02*
X173275400Y-144142600I0J150000D01*
G01*
G37*
%TD.AperFunction*%
%TO.P,U3,7*%
%TO.N,/out*%
%TA.AperFunction,SMDPad,CuDef*%
G36*
G01*
X173275400Y-145412600D02*
X173275400Y-145112600D01*
G75*
G02*
X173425400Y-144962600I150000J0D01*
G01*
X174775400Y-144962600D01*
G75*
G02*
X174925400Y-145112600I0J-150000D01*
G01*
X174925400Y-145412600D01*
G75*
G02*
X174775400Y-145562600I-150000J0D01*
G01*
X173425400Y-145562600D01*
G75*
G02*
X173275400Y-145412600I0J150000D01*
G01*
G37*
%TD.AperFunction*%
%TO.P,U3,6*%
%TO.N,Net-(R12-Pad1)*%
%TA.AperFunction,SMDPad,CuDef*%
G36*
G01*
X173275400Y-146682600D02*
X173275400Y-146382600D01*
G75*
G02*
X173425400Y-146232600I150000J0D01*
G01*
X174775400Y-146232600D01*
G75*
G02*
X174925400Y-146382600I0J-150000D01*
G01*
X174925400Y-146682600D01*
G75*
G02*
X174775400Y-146832600I-150000J0D01*
G01*
X173425400Y-146832600D01*
G75*
G02*
X173275400Y-146682600I0J150000D01*
G01*
G37*
%TD.AperFunction*%
%TO.P,U3,5*%
%TO.N,Net-(C6-Pad2)*%
%TA.AperFunction,SMDPad,CuDef*%
G36*
G01*
X173275400Y-147952600D02*
X173275400Y-147652600D01*
G75*
G02*
X173425400Y-147502600I150000J0D01*
G01*
X174775400Y-147502600D01*
G75*
G02*
X174925400Y-147652600I0J-150000D01*
G01*
X174925400Y-147952600D01*
G75*
G02*
X174775400Y-148102600I-150000J0D01*
G01*
X173425400Y-148102600D01*
G75*
G02*
X173275400Y-147952600I0J150000D01*
G01*
G37*
%TD.AperFunction*%
%TO.P,U3,4*%
%TO.N,GND*%
%TA.AperFunction,SMDPad,CuDef*%
G36*
G01*
X168025400Y-147952600D02*
X168025400Y-147652600D01*
G75*
G02*
X168175400Y-147502600I150000J0D01*
G01*
X169525400Y-147502600D01*
G75*
G02*
X169675400Y-147652600I0J-150000D01*
G01*
X169675400Y-147952600D01*
G75*
G02*
X169525400Y-148102600I-150000J0D01*
G01*
X168175400Y-148102600D01*
G75*
G02*
X168025400Y-147952600I0J150000D01*
G01*
G37*
%TD.AperFunction*%
%TO.P,U3,3*%
%TO.N,Net-(C5-Pad2)*%
%TA.AperFunction,SMDPad,CuDef*%
G36*
G01*
X168025400Y-146682600D02*
X168025400Y-146382600D01*
G75*
G02*
X168175400Y-146232600I150000J0D01*
G01*
X169525400Y-146232600D01*
G75*
G02*
X169675400Y-146382600I0J-150000D01*
G01*
X169675400Y-146682600D01*
G75*
G02*
X169525400Y-146832600I-150000J0D01*
G01*
X168175400Y-146832600D01*
G75*
G02*
X168025400Y-146682600I0J150000D01*
G01*
G37*
%TD.AperFunction*%
%TO.P,U3,2*%
%TO.N,Net-(R11-Pad1)*%
%TA.AperFunction,SMDPad,CuDef*%
G36*
G01*
X168025400Y-145412600D02*
X168025400Y-145112600D01*
G75*
G02*
X168175400Y-144962600I150000J0D01*
G01*
X169525400Y-144962600D01*
G75*
G02*
X169675400Y-145112600I0J-150000D01*
G01*
X169675400Y-145412600D01*
G75*
G02*
X169525400Y-145562600I-150000J0D01*
G01*
X168175400Y-145562600D01*
G75*
G02*
X168025400Y-145412600I0J150000D01*
G01*
G37*
%TD.AperFunction*%
%TO.P,U3,1*%
%TO.N,/filtered_out*%
%TA.AperFunction,SMDPad,CuDef*%
G36*
G01*
X168025400Y-144142600D02*
X168025400Y-143842600D01*
G75*
G02*
X168175400Y-143692600I150000J0D01*
G01*
X169525400Y-143692600D01*
G75*
G02*
X169675400Y-143842600I0J-150000D01*
G01*
X169675400Y-144142600D01*
G75*
G02*
X169525400Y-144292600I-150000J0D01*
G01*
X168175400Y-144292600D01*
G75*
G02*
X168025400Y-144142600I0J150000D01*
G01*
G37*
%TD.AperFunction*%
%TD*%
%TO.P,R15,2*%
%TO.N,Net-(R12-Pad1)*%
%TA.AperFunction,SMDPad,CuDef*%
G36*
G01*
X177362600Y-144883850D02*
X177362600Y-144371350D01*
G75*
G02*
X177581350Y-144152600I218750J0D01*
G01*
X178018850Y-144152600D01*
G75*
G02*
X178237600Y-144371350I0J-218750D01*
G01*
X178237600Y-144883850D01*
G75*
G02*
X178018850Y-145102600I-218750J0D01*
G01*
X177581350Y-145102600D01*
G75*
G02*
X177362600Y-144883850I0J218750D01*
G01*
G37*
%TD.AperFunction*%
%TO.P,R15,1*%
%TO.N,/out*%
%TA.AperFunction,SMDPad,CuDef*%
G36*
G01*
X175787600Y-144883850D02*
X175787600Y-144371350D01*
G75*
G02*
X176006350Y-144152600I218750J0D01*
G01*
X176443850Y-144152600D01*
G75*
G02*
X176662600Y-144371350I0J-218750D01*
G01*
X176662600Y-144883850D01*
G75*
G02*
X176443850Y-145102600I-218750J0D01*
G01*
X176006350Y-145102600D01*
G75*
G02*
X175787600Y-144883850I0J218750D01*
G01*
G37*
%TD.AperFunction*%
%TD*%
%TO.P,R14,2*%
%TO.N,Net-(R11-Pad1)*%
%TA.AperFunction,SMDPad,CuDef*%
G36*
G01*
X165537400Y-144015750D02*
X165537400Y-144528250D01*
G75*
G02*
X165318650Y-144747000I-218750J0D01*
G01*
X164881150Y-144747000D01*
G75*
G02*
X164662400Y-144528250I0J218750D01*
G01*
X164662400Y-144015750D01*
G75*
G02*
X164881150Y-143797000I218750J0D01*
G01*
X165318650Y-143797000D01*
G75*
G02*
X165537400Y-144015750I0J-218750D01*
G01*
G37*
%TD.AperFunction*%
%TO.P,R14,1*%
%TO.N,/filtered_out*%
%TA.AperFunction,SMDPad,CuDef*%
G36*
G01*
X167112400Y-144015750D02*
X167112400Y-144528250D01*
G75*
G02*
X166893650Y-144747000I-218750J0D01*
G01*
X166456150Y-144747000D01*
G75*
G02*
X166237400Y-144528250I0J218750D01*
G01*
X166237400Y-144015750D01*
G75*
G02*
X166456150Y-143797000I218750J0D01*
G01*
X166893650Y-143797000D01*
G75*
G02*
X167112400Y-144015750I0J-218750D01*
G01*
G37*
%TD.AperFunction*%
%TD*%
%TO.P,R9,2*%
%TO.N,Net-(R6-Pad1)*%
%TA.AperFunction,SMDPad,CuDef*%
G36*
G01*
X165588200Y-145793750D02*
X165588200Y-146306250D01*
G75*
G02*
X165369450Y-146525000I-218750J0D01*
G01*
X164931950Y-146525000D01*
G75*
G02*
X164713200Y-146306250I0J218750D01*
G01*
X164713200Y-145793750D01*
G75*
G02*
X164931950Y-145575000I218750J0D01*
G01*
X165369450Y-145575000D01*
G75*
G02*
X165588200Y-145793750I0J-218750D01*
G01*
G37*
%TD.AperFunction*%
%TO.P,R9,1*%
%TO.N,Net-(C5-Pad2)*%
%TA.AperFunction,SMDPad,CuDef*%
G36*
G01*
X167163200Y-145793750D02*
X167163200Y-146306250D01*
G75*
G02*
X166944450Y-146525000I-218750J0D01*
G01*
X166506950Y-146525000D01*
G75*
G02*
X166288200Y-146306250I0J218750D01*
G01*
X166288200Y-145793750D01*
G75*
G02*
X166506950Y-145575000I218750J0D01*
G01*
X166944450Y-145575000D01*
G75*
G02*
X167163200Y-145793750I0J-218750D01*
G01*
G37*
%TD.AperFunction*%
%TD*%
%TO.P,R7,2*%
%TO.N,/filtered_out*%
%TA.AperFunction,SMDPad,CuDef*%
G36*
G01*
X176662600Y-147673350D02*
X176662600Y-148185850D01*
G75*
G02*
X176443850Y-148404600I-218750J0D01*
G01*
X176006350Y-148404600D01*
G75*
G02*
X175787600Y-148185850I0J218750D01*
G01*
X175787600Y-147673350D01*
G75*
G02*
X176006350Y-147454600I218750J0D01*
G01*
X176443850Y-147454600D01*
G75*
G02*
X176662600Y-147673350I0J-218750D01*
G01*
G37*
%TD.AperFunction*%
%TO.P,R7,1*%
%TO.N,Net-(R10-Pad2)*%
%TA.AperFunction,SMDPad,CuDef*%
G36*
G01*
X178237600Y-147673350D02*
X178237600Y-148185850D01*
G75*
G02*
X178018850Y-148404600I-218750J0D01*
G01*
X177581350Y-148404600D01*
G75*
G02*
X177362600Y-148185850I0J218750D01*
G01*
X177362600Y-147673350D01*
G75*
G02*
X177581350Y-147454600I218750J0D01*
G01*
X178018850Y-147454600D01*
G75*
G02*
X178237600Y-147673350I0J-218750D01*
G01*
G37*
%TD.AperFunction*%
%TD*%
%TO.P,R5,2*%
%TO.N,+3V3*%
%TA.AperFunction,SMDPad,CuDef*%
G36*
G01*
X174932050Y-140772400D02*
X174419550Y-140772400D01*
G75*
G02*
X174200800Y-140553650I0J218750D01*
G01*
X174200800Y-140116150D01*
G75*
G02*
X174419550Y-139897400I218750J0D01*
G01*
X174932050Y-139897400D01*
G75*
G02*
X175150800Y-140116150I0J-218750D01*
G01*
X175150800Y-140553650D01*
G75*
G02*
X174932050Y-140772400I-218750J0D01*
G01*
G37*
%TD.AperFunction*%
%TO.P,R5,1*%
%TO.N,Net-(D1-Pad2)*%
%TA.AperFunction,SMDPad,CuDef*%
G36*
G01*
X174932050Y-142347400D02*
X174419550Y-142347400D01*
G75*
G02*
X174200800Y-142128650I0J218750D01*
G01*
X174200800Y-141691150D01*
G75*
G02*
X174419550Y-141472400I218750J0D01*
G01*
X174932050Y-141472400D01*
G75*
G02*
X175150800Y-141691150I0J-218750D01*
G01*
X175150800Y-142128650D01*
G75*
G02*
X174932050Y-142347400I-218750J0D01*
G01*
G37*
%TD.AperFunction*%
%TD*%
%TO.P,R4,2*%
%TO.N,Net-(C3-Pad1)*%
%TA.AperFunction,SMDPad,CuDef*%
G36*
G01*
X176811650Y-136886100D02*
X176299150Y-136886100D01*
G75*
G02*
X176080400Y-136667350I0J218750D01*
G01*
X176080400Y-136229850D01*
G75*
G02*
X176299150Y-136011100I218750J0D01*
G01*
X176811650Y-136011100D01*
G75*
G02*
X177030400Y-136229850I0J-218750D01*
G01*
X177030400Y-136667350D01*
G75*
G02*
X176811650Y-136886100I-218750J0D01*
G01*
G37*
%TD.AperFunction*%
%TO.P,R4,1*%
%TO.N,+3V3*%
%TA.AperFunction,SMDPad,CuDef*%
G36*
G01*
X176811650Y-138461100D02*
X176299150Y-138461100D01*
G75*
G02*
X176080400Y-138242350I0J218750D01*
G01*
X176080400Y-137804850D01*
G75*
G02*
X176299150Y-137586100I218750J0D01*
G01*
X176811650Y-137586100D01*
G75*
G02*
X177030400Y-137804850I0J-218750D01*
G01*
X177030400Y-138242350D01*
G75*
G02*
X176811650Y-138461100I-218750J0D01*
G01*
G37*
%TD.AperFunction*%
%TD*%
D13*
%TO.P,J4,4*%
%TO.N,GND*%
X167970200Y-151079200D03*
%TO.P,J4,3*%
%TO.N,/charge_out*%
X170510200Y-151079200D03*
%TO.P,J4,2*%
%TO.N,/filtered_out*%
X173050200Y-151079200D03*
D14*
%TO.P,J4,1*%
%TO.N,/out*%
X175590200Y-151079200D03*
%TD*%
D13*
%TO.P,J2,2*%
%TO.N,GND*%
X169697400Y-137617200D03*
D14*
%TO.P,J2,1*%
%TO.N,+3V3*%
X172237400Y-137617200D03*
%TD*%
%TO.P,D1,2*%
%TO.N,Net-(D1-Pad2)*%
%TA.AperFunction,SMDPad,CuDef*%
G36*
G01*
X176146750Y-141472400D02*
X176659250Y-141472400D01*
G75*
G02*
X176878000Y-141691150I0J-218750D01*
G01*
X176878000Y-142128650D01*
G75*
G02*
X176659250Y-142347400I-218750J0D01*
G01*
X176146750Y-142347400D01*
G75*
G02*
X175928000Y-142128650I0J218750D01*
G01*
X175928000Y-141691150D01*
G75*
G02*
X176146750Y-141472400I218750J0D01*
G01*
G37*
%TD.AperFunction*%
%TO.P,D1,1*%
%TO.N,GND*%
%TA.AperFunction,SMDPad,CuDef*%
G36*
G01*
X176146750Y-139897400D02*
X176659250Y-139897400D01*
G75*
G02*
X176878000Y-140116150I0J-218750D01*
G01*
X176878000Y-140553650D01*
G75*
G02*
X176659250Y-140772400I-218750J0D01*
G01*
X176146750Y-140772400D01*
G75*
G02*
X175928000Y-140553650I0J218750D01*
G01*
X175928000Y-140116150D01*
G75*
G02*
X176146750Y-139897400I218750J0D01*
G01*
G37*
%TD.AperFunction*%
%TD*%
%TO.P,C6,2*%
%TO.N,Net-(C6-Pad2)*%
%TA.AperFunction,SMDPad,CuDef*%
G36*
G01*
X176688100Y-146047750D02*
X176688100Y-146560250D01*
G75*
G02*
X176469350Y-146779000I-218750J0D01*
G01*
X176031850Y-146779000D01*
G75*
G02*
X175813100Y-146560250I0J218750D01*
G01*
X175813100Y-146047750D01*
G75*
G02*
X176031850Y-145829000I218750J0D01*
G01*
X176469350Y-145829000D01*
G75*
G02*
X176688100Y-146047750I0J-218750D01*
G01*
G37*
%TD.AperFunction*%
%TO.P,C6,1*%
%TO.N,GND*%
%TA.AperFunction,SMDPad,CuDef*%
G36*
G01*
X178263100Y-146047750D02*
X178263100Y-146560250D01*
G75*
G02*
X178044350Y-146779000I-218750J0D01*
G01*
X177606850Y-146779000D01*
G75*
G02*
X177388100Y-146560250I0J218750D01*
G01*
X177388100Y-146047750D01*
G75*
G02*
X177606850Y-145829000I218750J0D01*
G01*
X178044350Y-145829000D01*
G75*
G02*
X178263100Y-146047750I0J-218750D01*
G01*
G37*
%TD.AperFunction*%
%TD*%
%TO.P,C5,2*%
%TO.N,Net-(C5-Pad2)*%
%TA.AperFunction,SMDPad,CuDef*%
G36*
G01*
X166313500Y-148033450D02*
X166313500Y-147520950D01*
G75*
G02*
X166532250Y-147302200I218750J0D01*
G01*
X166969750Y-147302200D01*
G75*
G02*
X167188500Y-147520950I0J-218750D01*
G01*
X167188500Y-148033450D01*
G75*
G02*
X166969750Y-148252200I-218750J0D01*
G01*
X166532250Y-148252200D01*
G75*
G02*
X166313500Y-148033450I0J218750D01*
G01*
G37*
%TD.AperFunction*%
%TO.P,C5,1*%
%TO.N,GND*%
%TA.AperFunction,SMDPad,CuDef*%
G36*
G01*
X164738500Y-148033450D02*
X164738500Y-147520950D01*
G75*
G02*
X164957250Y-147302200I218750J0D01*
G01*
X165394750Y-147302200D01*
G75*
G02*
X165613500Y-147520950I0J-218750D01*
G01*
X165613500Y-148033450D01*
G75*
G02*
X165394750Y-148252200I-218750J0D01*
G01*
X164957250Y-148252200D01*
G75*
G02*
X164738500Y-148033450I0J218750D01*
G01*
G37*
%TD.AperFunction*%
%TD*%
D15*
%TO.N,*%
X161975800Y-151231600D03*
D16*
%TO.N,GND*%
X177825400Y-146304000D03*
X161772600Y-146761200D03*
X168783000Y-134620000D03*
X164871400Y-149606000D03*
X165227000Y-151638000D03*
X177774600Y-140411200D03*
X174879000Y-138887200D03*
X170459400Y-133908800D03*
X167563800Y-141020800D03*
X163449000Y-130708400D03*
X165531800Y-130708400D03*
X168021000Y-130657600D03*
X173609000Y-130657600D03*
X175742600Y-130606800D03*
X177673000Y-130657600D03*
X177723800Y-132638800D03*
X177876200Y-134924800D03*
X163195000Y-139496800D03*
X160604200Y-136855200D03*
X162534600Y-136804400D03*
X163195000Y-135128000D03*
X170205400Y-139344400D03*
X171678600Y-139395200D03*
X172542200Y-142290800D03*
X171424600Y-147167600D03*
X166395400Y-149352000D03*
X168630600Y-149301200D03*
X164820600Y-134772400D03*
%TO.N,Net-(R10-Pad2)*%
X177825400Y-147929600D03*
%TO.N,Net-(R6-Pad1)*%
X165176200Y-146050000D03*
%TO.N,+3V3*%
X160553400Y-148793200D03*
%TO.N,Net-(R1-Pad1)*%
X161772600Y-145338800D03*
%TO.N,Net-(C6-Pad2)*%
X176250600Y-146304000D03*
%TO.N,/out*%
X172491400Y-145592800D03*
%TO.N,Net-(R11-Pad1)*%
X165099900Y-144272000D03*
%TO.N,Net-(R12-Pad1)*%
X177800100Y-144627600D03*
%TD*%
D17*
%TO.N,GND*%
X174879000Y-139090400D02*
X174879000Y-138023600D01*
X170408600Y-133908800D02*
X170357800Y-133959600D01*
X171526200Y-133908800D02*
X170408600Y-133908800D01*
X161787800Y-146746000D02*
X161772600Y-146761200D01*
X162687000Y-146746000D02*
X161787800Y-146746000D01*
X166885800Y-141020800D02*
X167563800Y-141020800D01*
D18*
%TO.N,+BATT*%
X169163900Y-133096000D02*
X169240200Y-133019700D01*
X166982600Y-133096000D02*
X169163900Y-133096000D01*
X169240200Y-133019700D02*
X169621300Y-133019700D01*
X169621300Y-133019700D02*
X169783800Y-132857200D01*
X168783000Y-133019700D02*
X168859100Y-133019700D01*
X166395600Y-133683000D02*
X166982600Y-133096000D01*
X166395600Y-136093200D02*
X166395600Y-133683000D01*
X171424600Y-132857200D02*
X171526200Y-132958800D01*
X169783800Y-132857200D02*
X171424600Y-132857200D01*
D17*
X170333438Y-134858800D02*
X171526200Y-134858800D01*
X169621300Y-134146662D02*
X170333438Y-134858800D01*
X169621300Y-133019700D02*
X169621300Y-134146662D01*
D18*
%TO.N,+3V3*%
X176555400Y-138023600D02*
X176555400Y-138430000D01*
X175742600Y-139268100D02*
X174675800Y-140334900D01*
X174675800Y-140055600D02*
X172237400Y-137617200D01*
X174675800Y-140334900D02*
X174675800Y-140055600D01*
X174675800Y-140334900D02*
X173786900Y-140334900D01*
X173786900Y-140334900D02*
X173355000Y-140766800D01*
X173355000Y-143247200D02*
X174100400Y-143992600D01*
X173355000Y-140766800D02*
X173355000Y-143247200D01*
X165962200Y-143247200D02*
X164685800Y-141970800D01*
X173355000Y-143247200D02*
X165962200Y-143247200D01*
X161584200Y-148793200D02*
X160487000Y-147696000D01*
X163855400Y-148793200D02*
X161584200Y-148793200D01*
X164109400Y-148539200D02*
X163855400Y-148793200D01*
X164321400Y-143247200D02*
X164007800Y-143560800D01*
X165962200Y-143247200D02*
X164321400Y-143247200D01*
X164007800Y-144352931D02*
X164109400Y-144454531D01*
X164007800Y-143560800D02*
X164007800Y-144352931D01*
X164109400Y-144454531D02*
X164109400Y-148539200D01*
X161584200Y-148793200D02*
X160553400Y-148793200D01*
X160553400Y-148793200D02*
X160502600Y-148742400D01*
X175742600Y-139242800D02*
X176555400Y-138430000D01*
X175742600Y-139268100D02*
X175742600Y-139242800D01*
D17*
%TO.N,/charge_out*%
X168671300Y-141970800D02*
X168681400Y-141960700D01*
X166885800Y-141970800D02*
X168671300Y-141970800D01*
X170179900Y-141960700D02*
X171069000Y-141071600D01*
X168681400Y-141960700D02*
X170179900Y-141960700D01*
X170510200Y-151079200D02*
X170510200Y-151231600D01*
%TO.N,Net-(C5-Pad2)*%
X166725700Y-147751900D02*
X166751000Y-147777200D01*
X166725700Y-146050000D02*
X166725700Y-147751900D01*
X167995600Y-146532600D02*
X168850400Y-146532600D01*
X166751000Y-147777200D02*
X167995600Y-146532600D01*
%TO.N,Net-(C6-Pad2)*%
X174100400Y-147802600D02*
X174650400Y-147802600D01*
X176149000Y-146304000D02*
X176250600Y-146304000D01*
X174650400Y-147802600D02*
X176149000Y-146304000D01*
X176250600Y-146304000D02*
X176250600Y-146304000D01*
D18*
%TO.N,Net-(F1-Pad2)*%
X163319000Y-132232400D02*
X164182600Y-133096000D01*
X161315400Y-132232400D02*
X163319000Y-132232400D01*
%TO.N,/piezoP*%
X161823400Y-138226800D02*
X161315400Y-138734800D01*
X164845900Y-138226800D02*
X161823400Y-138226800D01*
D17*
%TO.N,+1V5*%
X166101800Y-140070800D02*
X165836600Y-140336000D01*
X166885800Y-140070800D02*
X166101800Y-140070800D01*
X165836600Y-140336000D02*
X165836600Y-140766800D01*
X165836600Y-140766800D02*
X165582600Y-141020800D01*
X161569400Y-141020800D02*
X161315400Y-141274800D01*
X160487000Y-144439800D02*
X160807200Y-144119600D01*
X160487000Y-145796000D02*
X160487000Y-144439800D01*
X160807200Y-144119600D02*
X160807200Y-143713400D01*
X160807200Y-143713400D02*
X161620200Y-142900400D01*
X161620200Y-142900400D02*
X162585400Y-142900400D01*
X162585400Y-142900400D02*
X163042600Y-142443200D01*
X163042600Y-141732000D02*
X163753800Y-141020800D01*
X163042600Y-142443200D02*
X163042600Y-141732000D01*
X165582600Y-141020800D02*
X163753800Y-141020800D01*
X163753800Y-141020800D02*
X161569400Y-141020800D01*
%TO.N,Net-(R1-Pad1)*%
X162229800Y-145796000D02*
X161772600Y-145338800D01*
X162687000Y-145796000D02*
X162229800Y-145796000D01*
%TO.N,Net-(R3-Pad2)*%
X163471000Y-147696000D02*
X163591890Y-147575110D01*
X162687000Y-147696000D02*
X163471000Y-147696000D01*
X163591890Y-147575110D02*
X163591890Y-144668890D01*
X163042600Y-144119600D02*
X162382200Y-144119600D01*
X163591890Y-144668890D02*
X163042600Y-144119600D01*
D18*
%TO.N,Net-(C3-Pad1)*%
X173598700Y-132857200D02*
X175387000Y-134645500D01*
X175387000Y-135940600D02*
X174879000Y-136448600D01*
X175387000Y-134645500D02*
X175387000Y-135940600D01*
X174879000Y-136448600D02*
X176555400Y-136448600D01*
%TO.N,Net-(C7-Pad2)*%
X166420900Y-138335700D02*
X164685800Y-140070800D01*
X166420900Y-138226800D02*
X166420900Y-138335700D01*
X166420900Y-138226800D02*
X167360600Y-138226800D01*
X168681400Y-139547600D02*
X168681400Y-140385700D01*
X167360600Y-138226800D02*
X168681400Y-139547600D01*
D17*
X172593000Y-132435600D02*
X171069000Y-130911600D01*
X166420900Y-137998100D02*
X168325800Y-136093200D01*
X168325800Y-136093200D02*
X172085000Y-136093200D01*
X166420900Y-138226800D02*
X166420900Y-137998100D01*
X172085000Y-136093200D02*
X172593000Y-135585200D01*
X172593000Y-135585200D02*
X172593000Y-132435600D01*
D18*
%TO.N,Net-(D1-Pad2)*%
X176403000Y-141909900D02*
X174675800Y-141909900D01*
D17*
%TO.N,/filtered_out*%
X168571000Y-144272000D02*
X168850400Y-143992600D01*
X166674900Y-144272000D02*
X168571000Y-144272000D01*
X172237400Y-150266400D02*
X173050200Y-151079200D01*
X172288200Y-146659600D02*
X172237400Y-146710400D01*
X168850400Y-143992600D02*
X169621200Y-143992600D01*
X169621200Y-143992600D02*
X172288200Y-146659600D01*
X176225100Y-147929600D02*
X176225100Y-148361500D01*
X176225100Y-148361500D02*
X175539400Y-149047200D01*
X175539400Y-149047200D02*
X173101000Y-149047200D01*
X172237400Y-146710400D02*
X172237400Y-148183600D01*
X173101000Y-149047200D02*
X172237400Y-148183600D01*
X172237400Y-148183600D02*
X172237400Y-150266400D01*
%TO.N,/out*%
X174100400Y-145262600D02*
X174701200Y-145262600D01*
X175336200Y-144627600D02*
X176225100Y-144627600D01*
X174701200Y-145262600D02*
X175336200Y-144627600D01*
X172821600Y-145262600D02*
X172491400Y-145592800D01*
X174100400Y-145262600D02*
X172821600Y-145262600D01*
%TO.N,Net-(R11-Pad1)*%
X165099900Y-144272000D02*
X165099900Y-144272000D01*
X165099900Y-144602100D02*
X165684200Y-145186400D01*
X168774200Y-145186400D02*
X168850400Y-145262600D01*
X165684200Y-145186400D02*
X168774200Y-145186400D01*
X165099900Y-144272000D02*
X165099900Y-144602100D01*
%TO.N,Net-(R12-Pad1)*%
X174100400Y-146532600D02*
X174904400Y-146532600D01*
X174904400Y-146532600D02*
X175437800Y-145999200D01*
X175437800Y-145999200D02*
X175437800Y-145643600D01*
X175579410Y-145501990D02*
X176667790Y-145501990D01*
X175437800Y-145643600D02*
X175579410Y-145501990D01*
X176667790Y-145501990D02*
X176678580Y-145491200D01*
X176936500Y-145491200D02*
X177800100Y-144627600D01*
X176678580Y-145491200D02*
X176936500Y-145491200D01*
X177800100Y-144627600D02*
X177800100Y-144627600D01*
%TD*%
%TO.N,GND*%
G36*
X171475400Y-146924430D02*
G01*
X171475401Y-148146167D01*
X171471714Y-148183600D01*
X171475400Y-148221024D01*
X171475401Y-149944294D01*
X171456832Y-149925725D01*
X171213611Y-149763210D01*
X170943358Y-149651268D01*
X170656460Y-149594200D01*
X170363940Y-149594200D01*
X170077042Y-149651268D01*
X169806789Y-149763210D01*
X169563568Y-149925725D01*
X169356725Y-150132568D01*
X169235005Y-150314734D01*
X169165378Y-150197845D01*
X168970469Y-149981612D01*
X168737120Y-149807559D01*
X168474299Y-149682375D01*
X168327090Y-149637724D01*
X168097200Y-149759045D01*
X168097200Y-150952200D01*
X168117200Y-150952200D01*
X168117200Y-151206200D01*
X168097200Y-151206200D01*
X168097200Y-152399355D01*
X168327090Y-152520676D01*
X168474299Y-152476025D01*
X168737120Y-152350841D01*
X168970469Y-152176788D01*
X169165378Y-151960555D01*
X169235005Y-151843666D01*
X169356725Y-152025832D01*
X169563568Y-152232675D01*
X169806789Y-152395190D01*
X170077042Y-152507132D01*
X170363940Y-152564200D01*
X170656460Y-152564200D01*
X170943358Y-152507132D01*
X171213611Y-152395190D01*
X171456832Y-152232675D01*
X171663675Y-152025832D01*
X171780200Y-151851440D01*
X171896725Y-152025832D01*
X172103568Y-152232675D01*
X172346789Y-152395190D01*
X172617042Y-152507132D01*
X172903940Y-152564200D01*
X173196460Y-152564200D01*
X173483358Y-152507132D01*
X173753611Y-152395190D01*
X173996832Y-152232675D01*
X174128687Y-152100820D01*
X174150698Y-152173380D01*
X174209663Y-152283694D01*
X174289015Y-152380385D01*
X174385706Y-152459737D01*
X174496020Y-152518702D01*
X174615718Y-152555012D01*
X174740200Y-152567272D01*
X176440200Y-152567272D01*
X176564682Y-152555012D01*
X176684380Y-152518702D01*
X176794694Y-152459737D01*
X176891385Y-152380385D01*
X176970737Y-152283694D01*
X177029702Y-152173380D01*
X177066012Y-152053682D01*
X177078272Y-151929200D01*
X177078272Y-150229200D01*
X177066012Y-150104718D01*
X177029702Y-149985020D01*
X176970737Y-149874706D01*
X176891385Y-149778015D01*
X176794694Y-149698663D01*
X176684380Y-149639698D01*
X176564682Y-149603388D01*
X176440200Y-149591128D01*
X176077768Y-149591128D01*
X176080822Y-149588622D01*
X176104683Y-149559547D01*
X176649786Y-149014445D01*
X176771742Y-148977450D01*
X176919875Y-148898271D01*
X177012600Y-148822174D01*
X177105325Y-148898271D01*
X177253458Y-148977450D01*
X177414192Y-149026208D01*
X177581350Y-149042672D01*
X178018850Y-149042672D01*
X178186008Y-149026208D01*
X178333801Y-148981376D01*
X178333801Y-152469309D01*
X178321980Y-152589865D01*
X178296345Y-152674775D01*
X178254709Y-152753079D01*
X178198654Y-152821809D01*
X178130315Y-152878344D01*
X178052302Y-152920526D01*
X177967573Y-152946754D01*
X177849158Y-152959200D01*
X163479678Y-152959200D01*
X163750675Y-152688203D01*
X164000741Y-152313953D01*
X164172989Y-151898110D01*
X164260800Y-151456653D01*
X164260800Y-151436091D01*
X166528719Y-151436091D01*
X166626043Y-151710452D01*
X166775022Y-151960555D01*
X166969931Y-152176788D01*
X167203280Y-152350841D01*
X167466101Y-152476025D01*
X167613310Y-152520676D01*
X167843200Y-152399355D01*
X167843200Y-151206200D01*
X166649386Y-151206200D01*
X166528719Y-151436091D01*
X164260800Y-151436091D01*
X164260800Y-151006547D01*
X164204262Y-150722309D01*
X166528719Y-150722309D01*
X166649386Y-150952200D01*
X167843200Y-150952200D01*
X167843200Y-149759045D01*
X167613310Y-149637724D01*
X167466101Y-149682375D01*
X167203280Y-149807559D01*
X166969931Y-149981612D01*
X166775022Y-150197845D01*
X166626043Y-150447948D01*
X166528719Y-150722309D01*
X164204262Y-150722309D01*
X164172989Y-150565090D01*
X164000741Y-150149247D01*
X163750675Y-149774997D01*
X163594378Y-149618700D01*
X163814850Y-149618700D01*
X163855400Y-149622694D01*
X163895950Y-149618700D01*
X163895953Y-149618700D01*
X164017226Y-149606756D01*
X164172834Y-149559553D01*
X164316242Y-149482899D01*
X164441941Y-149379741D01*
X164467798Y-149348234D01*
X164664434Y-149151598D01*
X164695941Y-149125741D01*
X164799099Y-149000042D01*
X164859078Y-148887831D01*
X164890250Y-148887200D01*
X165049000Y-148728450D01*
X165049000Y-147904200D01*
X165029000Y-147904200D01*
X165029000Y-147650200D01*
X165049000Y-147650200D01*
X165049000Y-147630200D01*
X165303000Y-147630200D01*
X165303000Y-147650200D01*
X165323000Y-147650200D01*
X165323000Y-147904200D01*
X165303000Y-147904200D01*
X165303000Y-148728450D01*
X165461750Y-148887200D01*
X165613500Y-148890272D01*
X165737982Y-148878012D01*
X165857680Y-148841702D01*
X165967994Y-148782737D01*
X166034570Y-148728100D01*
X166056225Y-148745871D01*
X166204358Y-148825050D01*
X166365092Y-148873808D01*
X166532250Y-148890272D01*
X166969750Y-148890272D01*
X167136908Y-148873808D01*
X167297642Y-148825050D01*
X167445775Y-148745871D01*
X167575615Y-148639315D01*
X167616995Y-148588893D01*
X167670906Y-148633137D01*
X167781220Y-148692102D01*
X167900918Y-148728412D01*
X168025400Y-148740672D01*
X168564650Y-148737600D01*
X168723400Y-148578850D01*
X168723400Y-147929600D01*
X168977400Y-147929600D01*
X168977400Y-148578850D01*
X169136150Y-148737600D01*
X169675400Y-148740672D01*
X169799882Y-148728412D01*
X169919580Y-148692102D01*
X170029894Y-148633137D01*
X170126585Y-148553785D01*
X170205937Y-148457094D01*
X170264902Y-148346780D01*
X170301212Y-148227082D01*
X170313472Y-148102600D01*
X170310400Y-148088350D01*
X170151650Y-147929600D01*
X168977400Y-147929600D01*
X168723400Y-147929600D01*
X168703400Y-147929600D01*
X168703400Y-147675600D01*
X168723400Y-147675600D01*
X168723400Y-147655600D01*
X168977400Y-147655600D01*
X168977400Y-147675600D01*
X170151650Y-147675600D01*
X170310400Y-147516850D01*
X170313472Y-147502600D01*
X170301212Y-147378118D01*
X170264902Y-147258420D01*
X170205937Y-147148106D01*
X170181670Y-147118536D01*
X170253484Y-146984182D01*
X170298329Y-146836345D01*
X170313472Y-146682600D01*
X170313472Y-146382600D01*
X170298329Y-146228855D01*
X170253484Y-146081018D01*
X170180658Y-145944771D01*
X170141946Y-145897600D01*
X170180658Y-145850429D01*
X170253484Y-145714182D01*
X170256200Y-145705230D01*
X171475400Y-146924430D01*
G37*
X171475400Y-146924430D02*
X171475401Y-148146167D01*
X171471714Y-148183600D01*
X171475400Y-148221024D01*
X171475401Y-149944294D01*
X171456832Y-149925725D01*
X171213611Y-149763210D01*
X170943358Y-149651268D01*
X170656460Y-149594200D01*
X170363940Y-149594200D01*
X170077042Y-149651268D01*
X169806789Y-149763210D01*
X169563568Y-149925725D01*
X169356725Y-150132568D01*
X169235005Y-150314734D01*
X169165378Y-150197845D01*
X168970469Y-149981612D01*
X168737120Y-149807559D01*
X168474299Y-149682375D01*
X168327090Y-149637724D01*
X168097200Y-149759045D01*
X168097200Y-150952200D01*
X168117200Y-150952200D01*
X168117200Y-151206200D01*
X168097200Y-151206200D01*
X168097200Y-152399355D01*
X168327090Y-152520676D01*
X168474299Y-152476025D01*
X168737120Y-152350841D01*
X168970469Y-152176788D01*
X169165378Y-151960555D01*
X169235005Y-151843666D01*
X169356725Y-152025832D01*
X169563568Y-152232675D01*
X169806789Y-152395190D01*
X170077042Y-152507132D01*
X170363940Y-152564200D01*
X170656460Y-152564200D01*
X170943358Y-152507132D01*
X171213611Y-152395190D01*
X171456832Y-152232675D01*
X171663675Y-152025832D01*
X171780200Y-151851440D01*
X171896725Y-152025832D01*
X172103568Y-152232675D01*
X172346789Y-152395190D01*
X172617042Y-152507132D01*
X172903940Y-152564200D01*
X173196460Y-152564200D01*
X173483358Y-152507132D01*
X173753611Y-152395190D01*
X173996832Y-152232675D01*
X174128687Y-152100820D01*
X174150698Y-152173380D01*
X174209663Y-152283694D01*
X174289015Y-152380385D01*
X174385706Y-152459737D01*
X174496020Y-152518702D01*
X174615718Y-152555012D01*
X174740200Y-152567272D01*
X176440200Y-152567272D01*
X176564682Y-152555012D01*
X176684380Y-152518702D01*
X176794694Y-152459737D01*
X176891385Y-152380385D01*
X176970737Y-152283694D01*
X177029702Y-152173380D01*
X177066012Y-152053682D01*
X177078272Y-151929200D01*
X177078272Y-150229200D01*
X177066012Y-150104718D01*
X177029702Y-149985020D01*
X176970737Y-149874706D01*
X176891385Y-149778015D01*
X176794694Y-149698663D01*
X176684380Y-149639698D01*
X176564682Y-149603388D01*
X176440200Y-149591128D01*
X176077768Y-149591128D01*
X176080822Y-149588622D01*
X176104683Y-149559547D01*
X176649786Y-149014445D01*
X176771742Y-148977450D01*
X176919875Y-148898271D01*
X177012600Y-148822174D01*
X177105325Y-148898271D01*
X177253458Y-148977450D01*
X177414192Y-149026208D01*
X177581350Y-149042672D01*
X178018850Y-149042672D01*
X178186008Y-149026208D01*
X178333801Y-148981376D01*
X178333801Y-152469309D01*
X178321980Y-152589865D01*
X178296345Y-152674775D01*
X178254709Y-152753079D01*
X178198654Y-152821809D01*
X178130315Y-152878344D01*
X178052302Y-152920526D01*
X177967573Y-152946754D01*
X177849158Y-152959200D01*
X163479678Y-152959200D01*
X163750675Y-152688203D01*
X164000741Y-152313953D01*
X164172989Y-151898110D01*
X164260800Y-151456653D01*
X164260800Y-151436091D01*
X166528719Y-151436091D01*
X166626043Y-151710452D01*
X166775022Y-151960555D01*
X166969931Y-152176788D01*
X167203280Y-152350841D01*
X167466101Y-152476025D01*
X167613310Y-152520676D01*
X167843200Y-152399355D01*
X167843200Y-151206200D01*
X166649386Y-151206200D01*
X166528719Y-151436091D01*
X164260800Y-151436091D01*
X164260800Y-151006547D01*
X164204262Y-150722309D01*
X166528719Y-150722309D01*
X166649386Y-150952200D01*
X167843200Y-150952200D01*
X167843200Y-149759045D01*
X167613310Y-149637724D01*
X167466101Y-149682375D01*
X167203280Y-149807559D01*
X166969931Y-149981612D01*
X166775022Y-150197845D01*
X166626043Y-150447948D01*
X166528719Y-150722309D01*
X164204262Y-150722309D01*
X164172989Y-150565090D01*
X164000741Y-150149247D01*
X163750675Y-149774997D01*
X163594378Y-149618700D01*
X163814850Y-149618700D01*
X163855400Y-149622694D01*
X163895950Y-149618700D01*
X163895953Y-149618700D01*
X164017226Y-149606756D01*
X164172834Y-149559553D01*
X164316242Y-149482899D01*
X164441941Y-149379741D01*
X164467798Y-149348234D01*
X164664434Y-149151598D01*
X164695941Y-149125741D01*
X164799099Y-149000042D01*
X164859078Y-148887831D01*
X164890250Y-148887200D01*
X165049000Y-148728450D01*
X165049000Y-147904200D01*
X165029000Y-147904200D01*
X165029000Y-147650200D01*
X165049000Y-147650200D01*
X165049000Y-147630200D01*
X165303000Y-147630200D01*
X165303000Y-147650200D01*
X165323000Y-147650200D01*
X165323000Y-147904200D01*
X165303000Y-147904200D01*
X165303000Y-148728450D01*
X165461750Y-148887200D01*
X165613500Y-148890272D01*
X165737982Y-148878012D01*
X165857680Y-148841702D01*
X165967994Y-148782737D01*
X166034570Y-148728100D01*
X166056225Y-148745871D01*
X166204358Y-148825050D01*
X166365092Y-148873808D01*
X166532250Y-148890272D01*
X166969750Y-148890272D01*
X167136908Y-148873808D01*
X167297642Y-148825050D01*
X167445775Y-148745871D01*
X167575615Y-148639315D01*
X167616995Y-148588893D01*
X167670906Y-148633137D01*
X167781220Y-148692102D01*
X167900918Y-148728412D01*
X168025400Y-148740672D01*
X168564650Y-148737600D01*
X168723400Y-148578850D01*
X168723400Y-147929600D01*
X168977400Y-147929600D01*
X168977400Y-148578850D01*
X169136150Y-148737600D01*
X169675400Y-148740672D01*
X169799882Y-148728412D01*
X169919580Y-148692102D01*
X170029894Y-148633137D01*
X170126585Y-148553785D01*
X170205937Y-148457094D01*
X170264902Y-148346780D01*
X170301212Y-148227082D01*
X170313472Y-148102600D01*
X170310400Y-148088350D01*
X170151650Y-147929600D01*
X168977400Y-147929600D01*
X168723400Y-147929600D01*
X168703400Y-147929600D01*
X168703400Y-147675600D01*
X168723400Y-147675600D01*
X168723400Y-147655600D01*
X168977400Y-147655600D01*
X168977400Y-147675600D01*
X170151650Y-147675600D01*
X170310400Y-147516850D01*
X170313472Y-147502600D01*
X170301212Y-147378118D01*
X170264902Y-147258420D01*
X170205937Y-147148106D01*
X170181670Y-147118536D01*
X170253484Y-146984182D01*
X170298329Y-146836345D01*
X170313472Y-146682600D01*
X170313472Y-146382600D01*
X170298329Y-146228855D01*
X170253484Y-146081018D01*
X170180658Y-145944771D01*
X170141946Y-145897600D01*
X170180658Y-145850429D01*
X170253484Y-145714182D01*
X170256200Y-145705230D01*
X171475400Y-146924430D01*
G36*
X161680750Y-146619000D02*
G01*
X161762859Y-146619000D01*
X161802506Y-146651537D01*
X161912820Y-146710502D01*
X162029841Y-146746000D01*
X161912820Y-146781498D01*
X161802506Y-146840463D01*
X161762859Y-146873000D01*
X161680750Y-146873000D01*
X161542897Y-147010853D01*
X161468185Y-146919815D01*
X161371494Y-146840463D01*
X161261180Y-146781498D01*
X161144159Y-146746000D01*
X161261180Y-146710502D01*
X161371494Y-146651537D01*
X161468185Y-146572185D01*
X161542897Y-146481147D01*
X161680750Y-146619000D01*
G37*
X161680750Y-146619000D02*
X161762859Y-146619000D01*
X161802506Y-146651537D01*
X161912820Y-146710502D01*
X162029841Y-146746000D01*
X161912820Y-146781498D01*
X161802506Y-146840463D01*
X161762859Y-146873000D01*
X161680750Y-146873000D01*
X161542897Y-147010853D01*
X161468185Y-146919815D01*
X161371494Y-146840463D01*
X161261180Y-146781498D01*
X161144159Y-146746000D01*
X161261180Y-146710502D01*
X161371494Y-146651537D01*
X161468185Y-146572185D01*
X161542897Y-146481147D01*
X161680750Y-146619000D01*
G36*
X177952600Y-146177000D02*
G01*
X177972600Y-146177000D01*
X177972600Y-146431000D01*
X177952600Y-146431000D01*
X177952600Y-146451000D01*
X177698600Y-146451000D01*
X177698600Y-146431000D01*
X177678600Y-146431000D01*
X177678600Y-146177000D01*
X177698600Y-146177000D01*
X177698600Y-146157000D01*
X177952600Y-146157000D01*
X177952600Y-146177000D01*
G37*
X177952600Y-146177000D02*
X177972600Y-146177000D01*
X177972600Y-146431000D01*
X177952600Y-146431000D01*
X177952600Y-146451000D01*
X177698600Y-146451000D01*
X177698600Y-146431000D01*
X177678600Y-146431000D01*
X177678600Y-146177000D01*
X177698600Y-146177000D01*
X177698600Y-146157000D01*
X177952600Y-146157000D01*
X177952600Y-146177000D01*
G36*
X170154241Y-129796963D02*
G01*
X169954363Y-129996841D01*
X169797320Y-130231873D01*
X169689147Y-130493026D01*
X169634000Y-130770265D01*
X169634000Y-131052935D01*
X169689147Y-131330174D01*
X169797320Y-131591327D01*
X169954363Y-131826359D01*
X170154241Y-132026237D01*
X170162417Y-132031700D01*
X169824350Y-132031700D01*
X169783800Y-132027706D01*
X169743249Y-132031700D01*
X169743247Y-132031700D01*
X169621974Y-132043644D01*
X169500334Y-132080543D01*
X169367142Y-132009350D01*
X169206408Y-131960592D01*
X169039250Y-131944128D01*
X168526750Y-131944128D01*
X168359592Y-131960592D01*
X168198858Y-132009350D01*
X168132054Y-132045057D01*
X168096005Y-131977614D01*
X167985562Y-131843038D01*
X167850986Y-131732595D01*
X167697450Y-131650528D01*
X167530854Y-131599992D01*
X167357600Y-131582928D01*
X166607600Y-131582928D01*
X166434346Y-131599992D01*
X166267750Y-131650528D01*
X166114214Y-131732595D01*
X165979638Y-131843038D01*
X165869195Y-131977614D01*
X165787128Y-132131150D01*
X165736592Y-132297746D01*
X165719528Y-132471000D01*
X165719528Y-133205554D01*
X165705901Y-133222158D01*
X165629247Y-133365567D01*
X165582045Y-133521174D01*
X165566106Y-133683000D01*
X165570101Y-133723560D01*
X165570100Y-135064949D01*
X165502280Y-135028698D01*
X165382582Y-134992388D01*
X165258100Y-134980128D01*
X165106350Y-134983200D01*
X164947600Y-135141950D01*
X164947600Y-135966200D01*
X164967600Y-135966200D01*
X164967600Y-136220200D01*
X164947600Y-136220200D01*
X164947600Y-136240200D01*
X164693600Y-136240200D01*
X164693600Y-136220200D01*
X163906850Y-136220200D01*
X163748100Y-136378950D01*
X163745028Y-136568200D01*
X163757288Y-136692682D01*
X163793598Y-136812380D01*
X163852563Y-136922694D01*
X163931915Y-137019385D01*
X164028606Y-137098737D01*
X164138920Y-137157702D01*
X164258618Y-137194012D01*
X164269140Y-137195048D01*
X164151125Y-137258129D01*
X164021285Y-137364685D01*
X163991236Y-137401300D01*
X161976538Y-137401300D01*
X161748558Y-137306868D01*
X161461660Y-137249800D01*
X161169140Y-137249800D01*
X160882242Y-137306868D01*
X160611989Y-137418810D01*
X160368768Y-137581325D01*
X160161925Y-137788168D01*
X159999410Y-138031389D01*
X159887468Y-138301642D01*
X159830400Y-138588540D01*
X159830400Y-138881060D01*
X159887468Y-139167958D01*
X159999410Y-139438211D01*
X160161925Y-139681432D01*
X160293780Y-139813287D01*
X160221220Y-139835298D01*
X160110906Y-139894263D01*
X160014215Y-139973615D01*
X159934863Y-140070306D01*
X159875898Y-140180620D01*
X159839588Y-140300318D01*
X159827328Y-140424800D01*
X159827328Y-142124800D01*
X159839588Y-142249282D01*
X159875898Y-142368980D01*
X159934863Y-142479294D01*
X160014215Y-142575985D01*
X160110906Y-142655337D01*
X160221220Y-142714302D01*
X160340918Y-142750612D01*
X160465400Y-142762872D01*
X160680098Y-142762872D01*
X160419406Y-143023564D01*
X160260558Y-143071750D01*
X160112425Y-143150929D01*
X159982585Y-143257485D01*
X159876029Y-143387325D01*
X159796850Y-143535458D01*
X159748092Y-143696192D01*
X159740653Y-143771720D01*
X159741075Y-135622400D01*
X159827328Y-135622400D01*
X159839588Y-135746882D01*
X159875898Y-135866580D01*
X159934863Y-135976894D01*
X160014215Y-136073585D01*
X160110906Y-136152937D01*
X160221220Y-136211902D01*
X160340918Y-136248212D01*
X160465400Y-136260472D01*
X161029650Y-136257400D01*
X161188400Y-136098650D01*
X161188400Y-134899400D01*
X161442400Y-134899400D01*
X161442400Y-136098650D01*
X161601150Y-136257400D01*
X162165400Y-136260472D01*
X162289882Y-136248212D01*
X162409580Y-136211902D01*
X162519894Y-136152937D01*
X162616585Y-136073585D01*
X162695937Y-135976894D01*
X162754902Y-135866580D01*
X162791212Y-135746882D01*
X162803472Y-135622400D01*
X162803450Y-135618200D01*
X163745028Y-135618200D01*
X163748100Y-135807450D01*
X163906850Y-135966200D01*
X164693600Y-135966200D01*
X164693600Y-135141950D01*
X164534850Y-134983200D01*
X164383100Y-134980128D01*
X164258618Y-134992388D01*
X164138920Y-135028698D01*
X164028606Y-135087663D01*
X163931915Y-135167015D01*
X163852563Y-135263706D01*
X163793598Y-135374020D01*
X163757288Y-135493718D01*
X163745028Y-135618200D01*
X162803450Y-135618200D01*
X162800400Y-135058150D01*
X162641650Y-134899400D01*
X161442400Y-134899400D01*
X161188400Y-134899400D01*
X159989150Y-134899400D01*
X159830400Y-135058150D01*
X159827328Y-135622400D01*
X159741075Y-135622400D01*
X159741163Y-133922400D01*
X159827328Y-133922400D01*
X159830400Y-134486650D01*
X159989150Y-134645400D01*
X161188400Y-134645400D01*
X161188400Y-134625400D01*
X161442400Y-134625400D01*
X161442400Y-134645400D01*
X162641650Y-134645400D01*
X162800400Y-134486650D01*
X162803472Y-133922400D01*
X162791212Y-133797918D01*
X162754902Y-133678220D01*
X162695937Y-133567906D01*
X162616585Y-133471215D01*
X162519894Y-133391863D01*
X162409580Y-133332898D01*
X162337020Y-133310887D01*
X162468875Y-133179032D01*
X162549813Y-133057900D01*
X162919528Y-133057900D01*
X162919528Y-133721000D01*
X162936592Y-133894254D01*
X162987128Y-134060850D01*
X163069195Y-134214386D01*
X163179638Y-134348962D01*
X163314214Y-134459405D01*
X163467750Y-134541472D01*
X163634346Y-134592008D01*
X163807600Y-134609072D01*
X164557600Y-134609072D01*
X164730854Y-134592008D01*
X164897450Y-134541472D01*
X165050986Y-134459405D01*
X165185562Y-134348962D01*
X165296005Y-134214386D01*
X165378072Y-134060850D01*
X165428608Y-133894254D01*
X165445672Y-133721000D01*
X165445672Y-132471000D01*
X165428608Y-132297746D01*
X165378072Y-132131150D01*
X165296005Y-131977614D01*
X165185562Y-131843038D01*
X165050986Y-131732595D01*
X164897450Y-131650528D01*
X164730854Y-131599992D01*
X164557600Y-131582928D01*
X163828859Y-131582928D01*
X163779842Y-131542701D01*
X163636434Y-131466047D01*
X163480826Y-131418844D01*
X163359553Y-131406900D01*
X163359550Y-131406900D01*
X163319000Y-131402906D01*
X163278450Y-131406900D01*
X162549813Y-131406900D01*
X162468875Y-131285768D01*
X162262032Y-131078925D01*
X162018811Y-130916410D01*
X161748558Y-130804468D01*
X161461660Y-130747400D01*
X161169140Y-130747400D01*
X160882242Y-130804468D01*
X160611989Y-130916410D01*
X160368768Y-131078925D01*
X160161925Y-131285768D01*
X159999410Y-131528989D01*
X159887468Y-131799242D01*
X159830400Y-132086140D01*
X159830400Y-132378660D01*
X159887468Y-132665558D01*
X159999410Y-132935811D01*
X160161925Y-133179032D01*
X160293780Y-133310887D01*
X160221220Y-133332898D01*
X160110906Y-133391863D01*
X160014215Y-133471215D01*
X159934863Y-133567906D01*
X159875898Y-133678220D01*
X159839588Y-133797918D01*
X159827328Y-133922400D01*
X159741163Y-133922400D01*
X159741351Y-130319247D01*
X159748472Y-130183264D01*
X159770224Y-130097286D01*
X159808262Y-130017168D01*
X159861139Y-129945962D01*
X159926839Y-129886383D01*
X160002858Y-129840702D01*
X160086302Y-129810655D01*
X160197486Y-129793835D01*
X160206464Y-129793600D01*
X170159274Y-129793600D01*
X170154241Y-129796963D01*
G37*
X170154241Y-129796963D02*
X169954363Y-129996841D01*
X169797320Y-130231873D01*
X169689147Y-130493026D01*
X169634000Y-130770265D01*
X169634000Y-131052935D01*
X169689147Y-131330174D01*
X169797320Y-131591327D01*
X169954363Y-131826359D01*
X170154241Y-132026237D01*
X170162417Y-132031700D01*
X169824350Y-132031700D01*
X169783800Y-132027706D01*
X169743249Y-132031700D01*
X169743247Y-132031700D01*
X169621974Y-132043644D01*
X169500334Y-132080543D01*
X169367142Y-132009350D01*
X169206408Y-131960592D01*
X169039250Y-131944128D01*
X168526750Y-131944128D01*
X168359592Y-131960592D01*
X168198858Y-132009350D01*
X168132054Y-132045057D01*
X168096005Y-131977614D01*
X167985562Y-131843038D01*
X167850986Y-131732595D01*
X167697450Y-131650528D01*
X167530854Y-131599992D01*
X167357600Y-131582928D01*
X166607600Y-131582928D01*
X166434346Y-131599992D01*
X166267750Y-131650528D01*
X166114214Y-131732595D01*
X165979638Y-131843038D01*
X165869195Y-131977614D01*
X165787128Y-132131150D01*
X165736592Y-132297746D01*
X165719528Y-132471000D01*
X165719528Y-133205554D01*
X165705901Y-133222158D01*
X165629247Y-133365567D01*
X165582045Y-133521174D01*
X165566106Y-133683000D01*
X165570101Y-133723560D01*
X165570100Y-135064949D01*
X165502280Y-135028698D01*
X165382582Y-134992388D01*
X165258100Y-134980128D01*
X165106350Y-134983200D01*
X164947600Y-135141950D01*
X164947600Y-135966200D01*
X164967600Y-135966200D01*
X164967600Y-136220200D01*
X164947600Y-136220200D01*
X164947600Y-136240200D01*
X164693600Y-136240200D01*
X164693600Y-136220200D01*
X163906850Y-136220200D01*
X163748100Y-136378950D01*
X163745028Y-136568200D01*
X163757288Y-136692682D01*
X163793598Y-136812380D01*
X163852563Y-136922694D01*
X163931915Y-137019385D01*
X164028606Y-137098737D01*
X164138920Y-137157702D01*
X164258618Y-137194012D01*
X164269140Y-137195048D01*
X164151125Y-137258129D01*
X164021285Y-137364685D01*
X163991236Y-137401300D01*
X161976538Y-137401300D01*
X161748558Y-137306868D01*
X161461660Y-137249800D01*
X161169140Y-137249800D01*
X160882242Y-137306868D01*
X160611989Y-137418810D01*
X160368768Y-137581325D01*
X160161925Y-137788168D01*
X159999410Y-138031389D01*
X159887468Y-138301642D01*
X159830400Y-138588540D01*
X159830400Y-138881060D01*
X159887468Y-139167958D01*
X159999410Y-139438211D01*
X160161925Y-139681432D01*
X160293780Y-139813287D01*
X160221220Y-139835298D01*
X160110906Y-139894263D01*
X160014215Y-139973615D01*
X159934863Y-140070306D01*
X159875898Y-140180620D01*
X159839588Y-140300318D01*
X159827328Y-140424800D01*
X159827328Y-142124800D01*
X159839588Y-142249282D01*
X159875898Y-142368980D01*
X159934863Y-142479294D01*
X160014215Y-142575985D01*
X160110906Y-142655337D01*
X160221220Y-142714302D01*
X160340918Y-142750612D01*
X160465400Y-142762872D01*
X160680098Y-142762872D01*
X160419406Y-143023564D01*
X160260558Y-143071750D01*
X160112425Y-143150929D01*
X159982585Y-143257485D01*
X159876029Y-143387325D01*
X159796850Y-143535458D01*
X159748092Y-143696192D01*
X159740653Y-143771720D01*
X159741075Y-135622400D01*
X159827328Y-135622400D01*
X159839588Y-135746882D01*
X159875898Y-135866580D01*
X159934863Y-135976894D01*
X160014215Y-136073585D01*
X160110906Y-136152937D01*
X160221220Y-136211902D01*
X160340918Y-136248212D01*
X160465400Y-136260472D01*
X161029650Y-136257400D01*
X161188400Y-136098650D01*
X161188400Y-134899400D01*
X161442400Y-134899400D01*
X161442400Y-136098650D01*
X161601150Y-136257400D01*
X162165400Y-136260472D01*
X162289882Y-136248212D01*
X162409580Y-136211902D01*
X162519894Y-136152937D01*
X162616585Y-136073585D01*
X162695937Y-135976894D01*
X162754902Y-135866580D01*
X162791212Y-135746882D01*
X162803472Y-135622400D01*
X162803450Y-135618200D01*
X163745028Y-135618200D01*
X163748100Y-135807450D01*
X163906850Y-135966200D01*
X164693600Y-135966200D01*
X164693600Y-135141950D01*
X164534850Y-134983200D01*
X164383100Y-134980128D01*
X164258618Y-134992388D01*
X164138920Y-135028698D01*
X164028606Y-135087663D01*
X163931915Y-135167015D01*
X163852563Y-135263706D01*
X163793598Y-135374020D01*
X163757288Y-135493718D01*
X163745028Y-135618200D01*
X162803450Y-135618200D01*
X162800400Y-135058150D01*
X162641650Y-134899400D01*
X161442400Y-134899400D01*
X161188400Y-134899400D01*
X159989150Y-134899400D01*
X159830400Y-135058150D01*
X159827328Y-135622400D01*
X159741075Y-135622400D01*
X159741163Y-133922400D01*
X159827328Y-133922400D01*
X159830400Y-134486650D01*
X159989150Y-134645400D01*
X161188400Y-134645400D01*
X161188400Y-134625400D01*
X161442400Y-134625400D01*
X161442400Y-134645400D01*
X162641650Y-134645400D01*
X162800400Y-134486650D01*
X162803472Y-133922400D01*
X162791212Y-133797918D01*
X162754902Y-133678220D01*
X162695937Y-133567906D01*
X162616585Y-133471215D01*
X162519894Y-133391863D01*
X162409580Y-133332898D01*
X162337020Y-133310887D01*
X162468875Y-133179032D01*
X162549813Y-133057900D01*
X162919528Y-133057900D01*
X162919528Y-133721000D01*
X162936592Y-133894254D01*
X162987128Y-134060850D01*
X163069195Y-134214386D01*
X163179638Y-134348962D01*
X163314214Y-134459405D01*
X163467750Y-134541472D01*
X163634346Y-134592008D01*
X163807600Y-134609072D01*
X164557600Y-134609072D01*
X164730854Y-134592008D01*
X164897450Y-134541472D01*
X165050986Y-134459405D01*
X165185562Y-134348962D01*
X165296005Y-134214386D01*
X165378072Y-134060850D01*
X165428608Y-133894254D01*
X165445672Y-133721000D01*
X165445672Y-132471000D01*
X165428608Y-132297746D01*
X165378072Y-132131150D01*
X165296005Y-131977614D01*
X165185562Y-131843038D01*
X165050986Y-131732595D01*
X164897450Y-131650528D01*
X164730854Y-131599992D01*
X164557600Y-131582928D01*
X163828859Y-131582928D01*
X163779842Y-131542701D01*
X163636434Y-131466047D01*
X163480826Y-131418844D01*
X163359553Y-131406900D01*
X163359550Y-131406900D01*
X163319000Y-131402906D01*
X163278450Y-131406900D01*
X162549813Y-131406900D01*
X162468875Y-131285768D01*
X162262032Y-131078925D01*
X162018811Y-130916410D01*
X161748558Y-130804468D01*
X161461660Y-130747400D01*
X161169140Y-130747400D01*
X160882242Y-130804468D01*
X160611989Y-130916410D01*
X160368768Y-131078925D01*
X160161925Y-131285768D01*
X159999410Y-131528989D01*
X159887468Y-131799242D01*
X159830400Y-132086140D01*
X159830400Y-132378660D01*
X159887468Y-132665558D01*
X159999410Y-132935811D01*
X160161925Y-133179032D01*
X160293780Y-133310887D01*
X160221220Y-133332898D01*
X160110906Y-133391863D01*
X160014215Y-133471215D01*
X159934863Y-133567906D01*
X159875898Y-133678220D01*
X159839588Y-133797918D01*
X159827328Y-133922400D01*
X159741163Y-133922400D01*
X159741351Y-130319247D01*
X159748472Y-130183264D01*
X159770224Y-130097286D01*
X159808262Y-130017168D01*
X159861139Y-129945962D01*
X159926839Y-129886383D01*
X160002858Y-129840702D01*
X160086302Y-129810655D01*
X160197486Y-129793835D01*
X160206464Y-129793600D01*
X170159274Y-129793600D01*
X170154241Y-129796963D01*
G36*
X178005400Y-129804452D02*
G01*
X178080814Y-129827221D01*
X178150368Y-129864203D01*
X178211414Y-129913992D01*
X178261629Y-129974691D01*
X178299097Y-130043986D01*
X178322392Y-130119239D01*
X178333800Y-130227784D01*
X178333801Y-143575824D01*
X178186008Y-143530992D01*
X178018850Y-143514528D01*
X177581350Y-143514528D01*
X177414192Y-143530992D01*
X177253458Y-143579750D01*
X177105325Y-143658929D01*
X177012600Y-143735026D01*
X176919875Y-143658929D01*
X176771742Y-143579750D01*
X176611008Y-143530992D01*
X176443850Y-143514528D01*
X176006350Y-143514528D01*
X175839192Y-143530992D01*
X175678458Y-143579750D01*
X175538006Y-143654823D01*
X175503484Y-143541018D01*
X175430658Y-143404771D01*
X175332651Y-143285349D01*
X175213229Y-143187342D01*
X175076982Y-143114516D01*
X174929145Y-143069671D01*
X174775400Y-143054528D01*
X174329761Y-143054528D01*
X174240692Y-142965459D01*
X174252392Y-142969008D01*
X174419550Y-142985472D01*
X174932050Y-142985472D01*
X175099208Y-142969008D01*
X175259942Y-142920250D01*
X175408075Y-142841071D01*
X175536837Y-142735400D01*
X175541963Y-142735400D01*
X175670725Y-142841071D01*
X175818858Y-142920250D01*
X175979592Y-142969008D01*
X176146750Y-142985472D01*
X176659250Y-142985472D01*
X176826408Y-142969008D01*
X176987142Y-142920250D01*
X177135275Y-142841071D01*
X177265115Y-142734515D01*
X177371671Y-142604675D01*
X177450850Y-142456542D01*
X177499608Y-142295808D01*
X177516072Y-142128650D01*
X177516072Y-141691150D01*
X177499608Y-141523992D01*
X177450850Y-141363258D01*
X177371671Y-141215125D01*
X177353900Y-141193470D01*
X177408537Y-141126894D01*
X177467502Y-141016580D01*
X177503812Y-140896882D01*
X177516072Y-140772400D01*
X177513000Y-140620650D01*
X177354250Y-140461900D01*
X176530000Y-140461900D01*
X176530000Y-140481900D01*
X176276000Y-140481900D01*
X176276000Y-140461900D01*
X176256000Y-140461900D01*
X176256000Y-140207900D01*
X176276000Y-140207900D01*
X176276000Y-140187900D01*
X176530000Y-140187900D01*
X176530000Y-140207900D01*
X177354250Y-140207900D01*
X177513000Y-140049150D01*
X177516072Y-139897400D01*
X177503812Y-139772918D01*
X177467502Y-139653220D01*
X177408537Y-139542906D01*
X177329185Y-139446215D01*
X177232494Y-139366863D01*
X177122180Y-139307898D01*
X177002482Y-139271588D01*
X176892115Y-139260718D01*
X177109889Y-139042945D01*
X177139542Y-139033950D01*
X177287675Y-138954771D01*
X177417515Y-138848215D01*
X177524071Y-138718375D01*
X177603250Y-138570242D01*
X177652008Y-138409508D01*
X177668472Y-138242350D01*
X177668472Y-137804850D01*
X177652008Y-137637692D01*
X177603250Y-137476958D01*
X177524071Y-137328825D01*
X177447974Y-137236100D01*
X177524071Y-137143375D01*
X177603250Y-136995242D01*
X177652008Y-136834508D01*
X177668472Y-136667350D01*
X177668472Y-136229850D01*
X177652008Y-136062692D01*
X177603250Y-135901958D01*
X177524071Y-135753825D01*
X177417515Y-135623985D01*
X177287675Y-135517429D01*
X177139542Y-135438250D01*
X176978808Y-135389492D01*
X176811650Y-135373028D01*
X176328792Y-135373028D01*
X176355671Y-135340275D01*
X176434850Y-135192142D01*
X176483608Y-135031408D01*
X176500072Y-134864250D01*
X176500072Y-134426750D01*
X176483608Y-134259592D01*
X176434850Y-134098858D01*
X176355671Y-133950725D01*
X176337900Y-133929070D01*
X176392537Y-133862494D01*
X176451502Y-133752180D01*
X176487812Y-133632482D01*
X176500072Y-133508000D01*
X176497000Y-133356250D01*
X176338250Y-133197500D01*
X175514000Y-133197500D01*
X175514000Y-133217500D01*
X175260000Y-133217500D01*
X175260000Y-133197500D01*
X175240000Y-133197500D01*
X175240000Y-132943500D01*
X175260000Y-132943500D01*
X175260000Y-132156750D01*
X175514000Y-132156750D01*
X175514000Y-132943500D01*
X176338250Y-132943500D01*
X176497000Y-132784750D01*
X176500072Y-132633000D01*
X176487812Y-132508518D01*
X176451502Y-132388820D01*
X176392537Y-132278506D01*
X176313185Y-132181815D01*
X176216494Y-132102463D01*
X176106180Y-132043498D01*
X175986482Y-132007188D01*
X175862000Y-131994928D01*
X175672750Y-131998000D01*
X175514000Y-132156750D01*
X175260000Y-132156750D01*
X175101250Y-131998000D01*
X174912000Y-131994928D01*
X174787518Y-132007188D01*
X174667820Y-132043498D01*
X174583352Y-132088648D01*
X174500380Y-132044298D01*
X174380682Y-132007988D01*
X174256200Y-131995728D01*
X173217762Y-131995728D01*
X173134422Y-131894178D01*
X173105352Y-131870321D01*
X172468157Y-131233127D01*
X172504000Y-131052935D01*
X172504000Y-130770265D01*
X172448853Y-130493026D01*
X172340680Y-130231873D01*
X172183637Y-129996841D01*
X171983759Y-129796963D01*
X171978726Y-129793600D01*
X177894721Y-129793600D01*
X178005400Y-129804452D01*
G37*
X178005400Y-129804452D02*
X178080814Y-129827221D01*
X178150368Y-129864203D01*
X178211414Y-129913992D01*
X178261629Y-129974691D01*
X178299097Y-130043986D01*
X178322392Y-130119239D01*
X178333800Y-130227784D01*
X178333801Y-143575824D01*
X178186008Y-143530992D01*
X178018850Y-143514528D01*
X177581350Y-143514528D01*
X177414192Y-143530992D01*
X177253458Y-143579750D01*
X177105325Y-143658929D01*
X177012600Y-143735026D01*
X176919875Y-143658929D01*
X176771742Y-143579750D01*
X176611008Y-143530992D01*
X176443850Y-143514528D01*
X176006350Y-143514528D01*
X175839192Y-143530992D01*
X175678458Y-143579750D01*
X175538006Y-143654823D01*
X175503484Y-143541018D01*
X175430658Y-143404771D01*
X175332651Y-143285349D01*
X175213229Y-143187342D01*
X175076982Y-143114516D01*
X174929145Y-143069671D01*
X174775400Y-143054528D01*
X174329761Y-143054528D01*
X174240692Y-142965459D01*
X174252392Y-142969008D01*
X174419550Y-142985472D01*
X174932050Y-142985472D01*
X175099208Y-142969008D01*
X175259942Y-142920250D01*
X175408075Y-142841071D01*
X175536837Y-142735400D01*
X175541963Y-142735400D01*
X175670725Y-142841071D01*
X175818858Y-142920250D01*
X175979592Y-142969008D01*
X176146750Y-142985472D01*
X176659250Y-142985472D01*
X176826408Y-142969008D01*
X176987142Y-142920250D01*
X177135275Y-142841071D01*
X177265115Y-142734515D01*
X177371671Y-142604675D01*
X177450850Y-142456542D01*
X177499608Y-142295808D01*
X177516072Y-142128650D01*
X177516072Y-141691150D01*
X177499608Y-141523992D01*
X177450850Y-141363258D01*
X177371671Y-141215125D01*
X177353900Y-141193470D01*
X177408537Y-141126894D01*
X177467502Y-141016580D01*
X177503812Y-140896882D01*
X177516072Y-140772400D01*
X177513000Y-140620650D01*
X177354250Y-140461900D01*
X176530000Y-140461900D01*
X176530000Y-140481900D01*
X176276000Y-140481900D01*
X176276000Y-140461900D01*
X176256000Y-140461900D01*
X176256000Y-140207900D01*
X176276000Y-140207900D01*
X176276000Y-140187900D01*
X176530000Y-140187900D01*
X176530000Y-140207900D01*
X177354250Y-140207900D01*
X177513000Y-140049150D01*
X177516072Y-139897400D01*
X177503812Y-139772918D01*
X177467502Y-139653220D01*
X177408537Y-139542906D01*
X177329185Y-139446215D01*
X177232494Y-139366863D01*
X177122180Y-139307898D01*
X177002482Y-139271588D01*
X176892115Y-139260718D01*
X177109889Y-139042945D01*
X177139542Y-139033950D01*
X177287675Y-138954771D01*
X177417515Y-138848215D01*
X177524071Y-138718375D01*
X177603250Y-138570242D01*
X177652008Y-138409508D01*
X177668472Y-138242350D01*
X177668472Y-137804850D01*
X177652008Y-137637692D01*
X177603250Y-137476958D01*
X177524071Y-137328825D01*
X177447974Y-137236100D01*
X177524071Y-137143375D01*
X177603250Y-136995242D01*
X177652008Y-136834508D01*
X177668472Y-136667350D01*
X177668472Y-136229850D01*
X177652008Y-136062692D01*
X177603250Y-135901958D01*
X177524071Y-135753825D01*
X177417515Y-135623985D01*
X177287675Y-135517429D01*
X177139542Y-135438250D01*
X176978808Y-135389492D01*
X176811650Y-135373028D01*
X176328792Y-135373028D01*
X176355671Y-135340275D01*
X176434850Y-135192142D01*
X176483608Y-135031408D01*
X176500072Y-134864250D01*
X176500072Y-134426750D01*
X176483608Y-134259592D01*
X176434850Y-134098858D01*
X176355671Y-133950725D01*
X176337900Y-133929070D01*
X176392537Y-133862494D01*
X176451502Y-133752180D01*
X176487812Y-133632482D01*
X176500072Y-133508000D01*
X176497000Y-133356250D01*
X176338250Y-133197500D01*
X175514000Y-133197500D01*
X175514000Y-133217500D01*
X175260000Y-133217500D01*
X175260000Y-133197500D01*
X175240000Y-133197500D01*
X175240000Y-132943500D01*
X175260000Y-132943500D01*
X175260000Y-132156750D01*
X175514000Y-132156750D01*
X175514000Y-132943500D01*
X176338250Y-132943500D01*
X176497000Y-132784750D01*
X176500072Y-132633000D01*
X176487812Y-132508518D01*
X176451502Y-132388820D01*
X176392537Y-132278506D01*
X176313185Y-132181815D01*
X176216494Y-132102463D01*
X176106180Y-132043498D01*
X175986482Y-132007188D01*
X175862000Y-131994928D01*
X175672750Y-131998000D01*
X175514000Y-132156750D01*
X175260000Y-132156750D01*
X175101250Y-131998000D01*
X174912000Y-131994928D01*
X174787518Y-132007188D01*
X174667820Y-132043498D01*
X174583352Y-132088648D01*
X174500380Y-132044298D01*
X174380682Y-132007988D01*
X174256200Y-131995728D01*
X173217762Y-131995728D01*
X173134422Y-131894178D01*
X173105352Y-131870321D01*
X172468157Y-131233127D01*
X172504000Y-131052935D01*
X172504000Y-130770265D01*
X172448853Y-130493026D01*
X172340680Y-130231873D01*
X172183637Y-129996841D01*
X171983759Y-129796963D01*
X171978726Y-129793600D01*
X177894721Y-129793600D01*
X178005400Y-129804452D01*
G36*
X168255919Y-137260309D02*
G01*
X168376586Y-137490200D01*
X169570400Y-137490200D01*
X169570400Y-137470200D01*
X169824400Y-137470200D01*
X169824400Y-137490200D01*
X169844400Y-137490200D01*
X169844400Y-137744200D01*
X169824400Y-137744200D01*
X169824400Y-138937355D01*
X170054290Y-139058676D01*
X170201499Y-139014025D01*
X170464320Y-138888841D01*
X170697669Y-138714788D01*
X170773434Y-138630734D01*
X170797898Y-138711380D01*
X170856863Y-138821694D01*
X170936215Y-138918385D01*
X171032906Y-138997737D01*
X171143220Y-139056702D01*
X171262918Y-139093012D01*
X171387400Y-139105272D01*
X172558040Y-139105272D01*
X173200780Y-139748013D01*
X173200359Y-139748359D01*
X173174508Y-139779859D01*
X172799965Y-140154403D01*
X172768459Y-140180259D01*
X172715644Y-140244615D01*
X172665301Y-140305958D01*
X172617279Y-140395800D01*
X172588647Y-140449367D01*
X172541444Y-140604975D01*
X172531352Y-140707445D01*
X172525506Y-140766800D01*
X172529500Y-140807351D01*
X172529501Y-142421700D01*
X171559404Y-142421700D01*
X171748727Y-142343280D01*
X171983759Y-142186237D01*
X172183637Y-141986359D01*
X172340680Y-141751327D01*
X172448853Y-141490174D01*
X172504000Y-141212935D01*
X172504000Y-140930265D01*
X172448853Y-140653026D01*
X172340680Y-140391873D01*
X172183637Y-140156841D01*
X171983759Y-139956963D01*
X171748727Y-139799920D01*
X171487574Y-139691747D01*
X171210335Y-139636600D01*
X170927665Y-139636600D01*
X170650426Y-139691747D01*
X170389273Y-139799920D01*
X170154241Y-139956963D01*
X169954363Y-140156841D01*
X169797320Y-140391873D01*
X169794472Y-140398749D01*
X169794472Y-140166950D01*
X169778008Y-139999792D01*
X169729250Y-139839058D01*
X169650071Y-139690925D01*
X169543515Y-139561085D01*
X169509470Y-139533146D01*
X169506738Y-139505406D01*
X169494956Y-139385774D01*
X169447753Y-139230166D01*
X169380995Y-139105272D01*
X169371099Y-139086757D01*
X169345774Y-139055898D01*
X169570400Y-138937355D01*
X169570400Y-137744200D01*
X168376586Y-137744200D01*
X168262598Y-137961366D01*
X167972998Y-137671766D01*
X167947141Y-137640259D01*
X167897286Y-137599344D01*
X168266692Y-137229938D01*
X168255919Y-137260309D01*
G37*
X168255919Y-137260309D02*
X168376586Y-137490200D01*
X169570400Y-137490200D01*
X169570400Y-137470200D01*
X169824400Y-137470200D01*
X169824400Y-137490200D01*
X169844400Y-137490200D01*
X169844400Y-137744200D01*
X169824400Y-137744200D01*
X169824400Y-138937355D01*
X170054290Y-139058676D01*
X170201499Y-139014025D01*
X170464320Y-138888841D01*
X170697669Y-138714788D01*
X170773434Y-138630734D01*
X170797898Y-138711380D01*
X170856863Y-138821694D01*
X170936215Y-138918385D01*
X171032906Y-138997737D01*
X171143220Y-139056702D01*
X171262918Y-139093012D01*
X171387400Y-139105272D01*
X172558040Y-139105272D01*
X173200780Y-139748013D01*
X173200359Y-139748359D01*
X173174508Y-139779859D01*
X172799965Y-140154403D01*
X172768459Y-140180259D01*
X172715644Y-140244615D01*
X172665301Y-140305958D01*
X172617279Y-140395800D01*
X172588647Y-140449367D01*
X172541444Y-140604975D01*
X172531352Y-140707445D01*
X172525506Y-140766800D01*
X172529500Y-140807351D01*
X172529501Y-142421700D01*
X171559404Y-142421700D01*
X171748727Y-142343280D01*
X171983759Y-142186237D01*
X172183637Y-141986359D01*
X172340680Y-141751327D01*
X172448853Y-141490174D01*
X172504000Y-141212935D01*
X172504000Y-140930265D01*
X172448853Y-140653026D01*
X172340680Y-140391873D01*
X172183637Y-140156841D01*
X171983759Y-139956963D01*
X171748727Y-139799920D01*
X171487574Y-139691747D01*
X171210335Y-139636600D01*
X170927665Y-139636600D01*
X170650426Y-139691747D01*
X170389273Y-139799920D01*
X170154241Y-139956963D01*
X169954363Y-140156841D01*
X169797320Y-140391873D01*
X169794472Y-140398749D01*
X169794472Y-140166950D01*
X169778008Y-139999792D01*
X169729250Y-139839058D01*
X169650071Y-139690925D01*
X169543515Y-139561085D01*
X169509470Y-139533146D01*
X169506738Y-139505406D01*
X169494956Y-139385774D01*
X169447753Y-139230166D01*
X169380995Y-139105272D01*
X169371099Y-139086757D01*
X169345774Y-139055898D01*
X169570400Y-138937355D01*
X169570400Y-137744200D01*
X168376586Y-137744200D01*
X168262598Y-137961366D01*
X167972998Y-137671766D01*
X167947141Y-137640259D01*
X167897286Y-137599344D01*
X168266692Y-137229938D01*
X168255919Y-137260309D01*
G36*
X164021285Y-139088915D02*
G01*
X164056166Y-139117541D01*
X164031318Y-139119988D01*
X163911620Y-139156298D01*
X163801306Y-139215263D01*
X163704615Y-139294615D01*
X163625263Y-139391306D01*
X163566298Y-139501620D01*
X163529988Y-139621318D01*
X163517728Y-139745800D01*
X163517728Y-140258800D01*
X162778618Y-140258800D01*
X162754902Y-140180620D01*
X162695937Y-140070306D01*
X162616585Y-139973615D01*
X162519894Y-139894263D01*
X162409580Y-139835298D01*
X162337020Y-139813287D01*
X162468875Y-139681432D01*
X162631390Y-139438211D01*
X162743332Y-139167958D01*
X162766338Y-139052300D01*
X163991236Y-139052300D01*
X164021285Y-139088915D01*
G37*
X164021285Y-139088915D02*
X164056166Y-139117541D01*
X164031318Y-139119988D01*
X163911620Y-139156298D01*
X163801306Y-139215263D01*
X163704615Y-139294615D01*
X163625263Y-139391306D01*
X163566298Y-139501620D01*
X163529988Y-139621318D01*
X163517728Y-139745800D01*
X163517728Y-140258800D01*
X162778618Y-140258800D01*
X162754902Y-140180620D01*
X162695937Y-140070306D01*
X162616585Y-139973615D01*
X162519894Y-139894263D01*
X162409580Y-139835298D01*
X162337020Y-139813287D01*
X162468875Y-139681432D01*
X162631390Y-139438211D01*
X162743332Y-139167958D01*
X162766338Y-139052300D01*
X163991236Y-139052300D01*
X164021285Y-139088915D01*
G36*
X175006000Y-137896600D02*
G01*
X175026000Y-137896600D01*
X175026000Y-138150600D01*
X175006000Y-138150600D01*
X175006000Y-138170600D01*
X174752000Y-138170600D01*
X174752000Y-138150600D01*
X174732000Y-138150600D01*
X174732000Y-137896600D01*
X174752000Y-137896600D01*
X174752000Y-137876600D01*
X175006000Y-137876600D01*
X175006000Y-137896600D01*
G37*
X175006000Y-137896600D02*
X175026000Y-137896600D01*
X175026000Y-138150600D01*
X175006000Y-138150600D01*
X175006000Y-138170600D01*
X174752000Y-138170600D01*
X174752000Y-138150600D01*
X174732000Y-138150600D01*
X174732000Y-137896600D01*
X174752000Y-137896600D01*
X174752000Y-137876600D01*
X175006000Y-137876600D01*
X175006000Y-137896600D01*
G36*
X168910000Y-134467700D02*
G01*
X168928877Y-134467700D01*
X168930000Y-134469801D01*
X168930000Y-134721700D01*
X168910000Y-134721700D01*
X168910000Y-134741700D01*
X168656000Y-134741700D01*
X168656000Y-134721700D01*
X167831750Y-134721700D01*
X167673000Y-134880450D01*
X167669928Y-135032200D01*
X167682188Y-135156682D01*
X167718498Y-135276380D01*
X167777463Y-135386694D01*
X167856815Y-135483385D01*
X167862265Y-135487858D01*
X167784378Y-135551778D01*
X167760521Y-135580848D01*
X167471172Y-135870197D01*
X167471172Y-135836950D01*
X167454708Y-135669792D01*
X167405950Y-135509058D01*
X167326771Y-135360925D01*
X167221100Y-135232163D01*
X167221100Y-134609072D01*
X167357600Y-134609072D01*
X167530854Y-134592008D01*
X167697450Y-134541472D01*
X167835467Y-134467700D01*
X168656000Y-134467700D01*
X168656000Y-134447700D01*
X168910000Y-134447700D01*
X168910000Y-134467700D01*
G37*
X168910000Y-134467700D02*
X168928877Y-134467700D01*
X168930000Y-134469801D01*
X168930000Y-134721700D01*
X168910000Y-134721700D01*
X168910000Y-134741700D01*
X168656000Y-134741700D01*
X168656000Y-134721700D01*
X167831750Y-134721700D01*
X167673000Y-134880450D01*
X167669928Y-135032200D01*
X167682188Y-135156682D01*
X167718498Y-135276380D01*
X167777463Y-135386694D01*
X167856815Y-135483385D01*
X167862265Y-135487858D01*
X167784378Y-135551778D01*
X167760521Y-135580848D01*
X167471172Y-135870197D01*
X167471172Y-135836950D01*
X167454708Y-135669792D01*
X167405950Y-135509058D01*
X167326771Y-135360925D01*
X167221100Y-135232163D01*
X167221100Y-134609072D01*
X167357600Y-134609072D01*
X167530854Y-134592008D01*
X167697450Y-134541472D01*
X167835467Y-134467700D01*
X168656000Y-134467700D01*
X168656000Y-134447700D01*
X168910000Y-134447700D01*
X168910000Y-134467700D01*
%TD*%
M02*
