%TF.GenerationSoftware,KiCad,Pcbnew,(5.1.6)-1*%
%TF.CreationDate,2020-11-25T11:03:50+08:00*%
%TF.ProjectId,BCG_Piezo_Integrated_V1.0,4243475f-5069-4657-9a6f-5f496e746567,rev?*%
%TF.SameCoordinates,Original*%
%TF.FileFunction,Soldermask,Bot*%
%TF.FilePolarity,Negative*%
%FSLAX46Y46*%
G04 Gerber Fmt 4.6, Leading zero omitted, Abs format (unit mm)*
G04 Created by KiCad (PCBNEW (5.1.6)-1) date 2020-11-25 11:03:50*
%MOMM*%
%LPD*%
G01*
G04 APERTURE LIST*
%ADD10O,1.700000X1.700000*%
%ADD11C,1.700000*%
%ADD12O,1.800000X1.800000*%
%ADD13R,1.800000X1.800000*%
G04 APERTURE END LIST*
D10*
%TO.C,R13*%
X171069000Y-130911600D03*
D11*
X171069000Y-141071600D03*
%TD*%
%TO.C,R2*%
G36*
G01*
X163273050Y-146486500D02*
X162710550Y-146486500D01*
G75*
G02*
X162466800Y-146242750I0J243750D01*
G01*
X162466800Y-145755250D01*
G75*
G02*
X162710550Y-145511500I243750J0D01*
G01*
X163273050Y-145511500D01*
G75*
G02*
X163516800Y-145755250I0J-243750D01*
G01*
X163516800Y-146242750D01*
G75*
G02*
X163273050Y-146486500I-243750J0D01*
G01*
G37*
G36*
G01*
X163273050Y-148061500D02*
X162710550Y-148061500D01*
G75*
G02*
X162466800Y-147817750I0J243750D01*
G01*
X162466800Y-147330250D01*
G75*
G02*
X162710550Y-147086500I243750J0D01*
G01*
X163273050Y-147086500D01*
G75*
G02*
X163516800Y-147330250I0J-243750D01*
G01*
X163516800Y-147817750D01*
G75*
G02*
X163273050Y-148061500I-243750J0D01*
G01*
G37*
%TD*%
%TO.C,R1*%
G36*
G01*
X160272150Y-147086700D02*
X160834650Y-147086700D01*
G75*
G02*
X161078400Y-147330450I0J-243750D01*
G01*
X161078400Y-147817950D01*
G75*
G02*
X160834650Y-148061700I-243750J0D01*
G01*
X160272150Y-148061700D01*
G75*
G02*
X160028400Y-147817950I0J243750D01*
G01*
X160028400Y-147330450D01*
G75*
G02*
X160272150Y-147086700I243750J0D01*
G01*
G37*
G36*
G01*
X160272150Y-145511700D02*
X160834650Y-145511700D01*
G75*
G02*
X161078400Y-145755450I0J-243750D01*
G01*
X161078400Y-146242950D01*
G75*
G02*
X160834650Y-146486700I-243750J0D01*
G01*
X160272150Y-146486700D01*
G75*
G02*
X160028400Y-146242950I0J243750D01*
G01*
X160028400Y-145755450D01*
G75*
G02*
X160272150Y-145511700I243750J0D01*
G01*
G37*
%TD*%
D12*
%TO.C,J3*%
X161315400Y-138734800D03*
D13*
X161315400Y-141274800D03*
%TD*%
D12*
%TO.C,J1*%
X161315400Y-132232400D03*
D13*
X161315400Y-134772400D03*
%TD*%
%TO.C,R12*%
G36*
G01*
X176712600Y-144346350D02*
X176712600Y-144908850D01*
G75*
G02*
X176468850Y-145152600I-243750J0D01*
G01*
X175981350Y-145152600D01*
G75*
G02*
X175737600Y-144908850I0J243750D01*
G01*
X175737600Y-144346350D01*
G75*
G02*
X175981350Y-144102600I243750J0D01*
G01*
X176468850Y-144102600D01*
G75*
G02*
X176712600Y-144346350I0J-243750D01*
G01*
G37*
G36*
G01*
X178287600Y-144346350D02*
X178287600Y-144908850D01*
G75*
G02*
X178043850Y-145152600I-243750J0D01*
G01*
X177556350Y-145152600D01*
G75*
G02*
X177312600Y-144908850I0J243750D01*
G01*
X177312600Y-144346350D01*
G75*
G02*
X177556350Y-144102600I243750J0D01*
G01*
X178043850Y-144102600D01*
G75*
G02*
X178287600Y-144346350I0J-243750D01*
G01*
G37*
%TD*%
%TO.C,R11*%
G36*
G01*
X166187400Y-144553250D02*
X166187400Y-143990750D01*
G75*
G02*
X166431150Y-143747000I243750J0D01*
G01*
X166918650Y-143747000D01*
G75*
G02*
X167162400Y-143990750I0J-243750D01*
G01*
X167162400Y-144553250D01*
G75*
G02*
X166918650Y-144797000I-243750J0D01*
G01*
X166431150Y-144797000D01*
G75*
G02*
X166187400Y-144553250I0J243750D01*
G01*
G37*
G36*
G01*
X164612400Y-144553250D02*
X164612400Y-143990750D01*
G75*
G02*
X164856150Y-143747000I243750J0D01*
G01*
X165343650Y-143747000D01*
G75*
G02*
X165587400Y-143990750I0J-243750D01*
G01*
X165587400Y-144553250D01*
G75*
G02*
X165343650Y-144797000I-243750J0D01*
G01*
X164856150Y-144797000D01*
G75*
G02*
X164612400Y-144553250I0J243750D01*
G01*
G37*
%TD*%
%TO.C,R10*%
G36*
G01*
X177312600Y-148210850D02*
X177312600Y-147648350D01*
G75*
G02*
X177556350Y-147404600I243750J0D01*
G01*
X178043850Y-147404600D01*
G75*
G02*
X178287600Y-147648350I0J-243750D01*
G01*
X178287600Y-148210850D01*
G75*
G02*
X178043850Y-148454600I-243750J0D01*
G01*
X177556350Y-148454600D01*
G75*
G02*
X177312600Y-148210850I0J243750D01*
G01*
G37*
G36*
G01*
X175737600Y-148210850D02*
X175737600Y-147648350D01*
G75*
G02*
X175981350Y-147404600I243750J0D01*
G01*
X176468850Y-147404600D01*
G75*
G02*
X176712600Y-147648350I0J-243750D01*
G01*
X176712600Y-148210850D01*
G75*
G02*
X176468850Y-148454600I-243750J0D01*
G01*
X175981350Y-148454600D01*
G75*
G02*
X175737600Y-148210850I0J243750D01*
G01*
G37*
%TD*%
%TO.C,R6*%
G36*
G01*
X166263500Y-146331250D02*
X166263500Y-145768750D01*
G75*
G02*
X166507250Y-145525000I243750J0D01*
G01*
X166994750Y-145525000D01*
G75*
G02*
X167238500Y-145768750I0J-243750D01*
G01*
X167238500Y-146331250D01*
G75*
G02*
X166994750Y-146575000I-243750J0D01*
G01*
X166507250Y-146575000D01*
G75*
G02*
X166263500Y-146331250I0J243750D01*
G01*
G37*
G36*
G01*
X164688500Y-146331250D02*
X164688500Y-145768750D01*
G75*
G02*
X164932250Y-145525000I243750J0D01*
G01*
X165419750Y-145525000D01*
G75*
G02*
X165663500Y-145768750I0J-243750D01*
G01*
X165663500Y-146331250D01*
G75*
G02*
X165419750Y-146575000I-243750J0D01*
G01*
X164932250Y-146575000D01*
G75*
G02*
X164688500Y-146331250I0J243750D01*
G01*
G37*
%TD*%
D12*
%TO.C,J4*%
X167970200Y-151079200D03*
X170510200Y-151079200D03*
X173050200Y-151079200D03*
D13*
X175590200Y-151079200D03*
%TD*%
D12*
%TO.C,J2*%
X169697400Y-137617200D03*
D13*
X172237400Y-137617200D03*
%TD*%
M02*
