%TF.GenerationSoftware,KiCad,Pcbnew,(5.1.6)-1*%
%TF.CreationDate,2020-11-25T11:03:50+08:00*%
%TF.ProjectId,BCG_Piezo_Integrated_V1.0,4243475f-5069-4657-9a6f-5f496e746567,rev?*%
%TF.SameCoordinates,Original*%
%TF.FileFunction,Legend,Bot*%
%TF.FilePolarity,Positive*%
%FSLAX46Y46*%
G04 Gerber Fmt 4.6, Leading zero omitted, Abs format (unit mm)*
G04 Created by KiCad (PCBNEW (5.1.6)-1) date 2020-11-25 11:03:50*
%MOMM*%
%LPD*%
G01*
G04 APERTURE LIST*
%ADD10C,0.150000*%
%ADD11C,0.120000*%
G04 APERTURE END LIST*
D10*
X170017438Y-129935314D02*
X170017438Y-130935314D01*
X170017438Y-129982933D02*
X169922200Y-129935314D01*
X169731723Y-129935314D01*
X169636485Y-129982933D01*
X169588866Y-130030552D01*
X169541247Y-130125790D01*
X169541247Y-130411504D01*
X169588866Y-130506742D01*
X169636485Y-130554361D01*
X169731723Y-130601980D01*
X169922200Y-130601980D01*
X170017438Y-130554361D01*
X169112676Y-130601980D02*
X169112676Y-129935314D01*
X169112676Y-129601980D02*
X169160295Y-129649600D01*
X169112676Y-129697219D01*
X169065057Y-129649600D01*
X169112676Y-129601980D01*
X169112676Y-129697219D01*
X168255533Y-130554361D02*
X168350771Y-130601980D01*
X168541247Y-130601980D01*
X168636485Y-130554361D01*
X168684104Y-130459123D01*
X168684104Y-130078171D01*
X168636485Y-129982933D01*
X168541247Y-129935314D01*
X168350771Y-129935314D01*
X168255533Y-129982933D01*
X168207914Y-130078171D01*
X168207914Y-130173409D01*
X168684104Y-130268647D01*
X167874580Y-129935314D02*
X167350771Y-129935314D01*
X167874580Y-130601980D01*
X167350771Y-130601980D01*
X166826961Y-130601980D02*
X166922200Y-130554361D01*
X166969819Y-130506742D01*
X167017438Y-130411504D01*
X167017438Y-130125790D01*
X166969819Y-130030552D01*
X166922200Y-129982933D01*
X166826961Y-129935314D01*
X166684104Y-129935314D01*
X166588866Y-129982933D01*
X166541247Y-130030552D01*
X166493628Y-130125790D01*
X166493628Y-130411504D01*
X166541247Y-130506742D01*
X166588866Y-130554361D01*
X166684104Y-130601980D01*
X166826961Y-130601980D01*
X166303152Y-130697219D02*
X165541247Y-130697219D01*
X165303152Y-130601980D02*
X165303152Y-129601980D01*
X164826961Y-129935314D02*
X164826961Y-130601980D01*
X164826961Y-130030552D02*
X164779342Y-129982933D01*
X164684104Y-129935314D01*
X164541247Y-129935314D01*
X164446009Y-129982933D01*
X164398390Y-130078171D01*
X164398390Y-130601980D01*
X164065057Y-129935314D02*
X163684104Y-129935314D01*
X163922200Y-129601980D02*
X163922200Y-130459123D01*
X163874580Y-130554361D01*
X163779342Y-130601980D01*
X163684104Y-130601980D01*
X163588866Y-130697219D02*
X162826961Y-130697219D01*
X162731723Y-129601980D02*
X162398390Y-130601980D01*
X162065057Y-129601980D01*
X161207914Y-130601980D02*
X161779342Y-130601980D01*
X161493628Y-130601980D02*
X161493628Y-129601980D01*
X161588866Y-129744838D01*
X161684104Y-129840076D01*
X161779342Y-129887695D01*
X160779342Y-130506742D02*
X160731723Y-130554361D01*
X160779342Y-130601980D01*
X160826961Y-130554361D01*
X160779342Y-130506742D01*
X160779342Y-130601980D01*
X160112676Y-129601980D02*
X160017438Y-129601980D01*
X159922200Y-129649600D01*
X159874580Y-129697219D01*
X159826961Y-129792457D01*
X159779342Y-129982933D01*
X159779342Y-130221028D01*
X159826961Y-130411504D01*
X159874580Y-130506742D01*
X159922200Y-130554361D01*
X160017438Y-130601980D01*
X160112676Y-130601980D01*
X160207914Y-130554361D01*
X160255533Y-130506742D01*
X160303152Y-130411504D01*
X160350771Y-130221028D01*
X160350771Y-129982933D01*
X160303152Y-129792457D01*
X160255533Y-129697219D01*
X160207914Y-129649600D01*
X160112676Y-129601980D01*
X167403495Y-137168000D02*
X167498733Y-137120380D01*
X167641590Y-137120380D01*
X167784447Y-137168000D01*
X167879685Y-137263238D01*
X167927304Y-137358476D01*
X167974923Y-137548952D01*
X167974923Y-137691809D01*
X167927304Y-137882285D01*
X167879685Y-137977523D01*
X167784447Y-138072761D01*
X167641590Y-138120380D01*
X167546352Y-138120380D01*
X167403495Y-138072761D01*
X167355876Y-138025142D01*
X167355876Y-137691809D01*
X167546352Y-137691809D01*
X176409171Y-137221980D02*
X175790123Y-137221980D01*
X176123457Y-137602933D01*
X175980600Y-137602933D01*
X175885361Y-137650552D01*
X175837742Y-137698171D01*
X175790123Y-137793409D01*
X175790123Y-138031504D01*
X175837742Y-138126742D01*
X175885361Y-138174361D01*
X175980600Y-138221980D01*
X176266314Y-138221980D01*
X176361552Y-138174361D01*
X176409171Y-138126742D01*
X175361552Y-138126742D02*
X175313933Y-138174361D01*
X175361552Y-138221980D01*
X175409171Y-138174361D01*
X175361552Y-138126742D01*
X175361552Y-138221980D01*
X174980600Y-137221980D02*
X174361552Y-137221980D01*
X174694885Y-137602933D01*
X174552028Y-137602933D01*
X174456790Y-137650552D01*
X174409171Y-137698171D01*
X174361552Y-137793409D01*
X174361552Y-138031504D01*
X174409171Y-138126742D01*
X174456790Y-138174361D01*
X174552028Y-138221980D01*
X174837742Y-138221980D01*
X174932980Y-138174361D01*
X174980600Y-138126742D01*
X174028219Y-137555314D02*
X173790123Y-138221980D01*
X173552028Y-137555314D01*
X165050695Y-132719771D02*
X164907838Y-132767390D01*
X164860219Y-132815009D01*
X164812600Y-132910247D01*
X164812600Y-133053104D01*
X164860219Y-133148342D01*
X164907838Y-133195961D01*
X165003076Y-133243580D01*
X165384028Y-133243580D01*
X165384028Y-132243580D01*
X165050695Y-132243580D01*
X164955457Y-132291200D01*
X164907838Y-132338819D01*
X164860219Y-132434057D01*
X164860219Y-132529295D01*
X164907838Y-132624533D01*
X164955457Y-132672152D01*
X165050695Y-132719771D01*
X165384028Y-132719771D01*
X164431647Y-132957866D02*
X163955457Y-132957866D01*
X164526885Y-133243580D02*
X164193552Y-132243580D01*
X163860219Y-133243580D01*
X163669742Y-132243580D02*
X163098314Y-132243580D01*
X163384028Y-133243580D02*
X163384028Y-132243580D01*
X163542695Y-134577200D02*
X163637933Y-134529580D01*
X163780790Y-134529580D01*
X163923647Y-134577200D01*
X164018885Y-134672438D01*
X164066504Y-134767676D01*
X164114123Y-134958152D01*
X164114123Y-135101009D01*
X164066504Y-135291485D01*
X164018885Y-135386723D01*
X163923647Y-135481961D01*
X163780790Y-135529580D01*
X163685552Y-135529580D01*
X163542695Y-135481961D01*
X163495076Y-135434342D01*
X163495076Y-135101009D01*
X163685552Y-135101009D01*
X165920561Y-139441180D02*
X165920561Y-138441180D01*
X165444371Y-139441180D02*
X165444371Y-138441180D01*
X164872942Y-139441180D01*
X164872942Y-138441180D01*
X164634847Y-139536419D02*
X163872942Y-139536419D01*
X163634847Y-139441180D02*
X163634847Y-138441180D01*
X163253895Y-138441180D01*
X163158657Y-138488800D01*
X163111038Y-138536419D01*
X163063419Y-138631657D01*
X163063419Y-138774514D01*
X163111038Y-138869752D01*
X163158657Y-138917371D01*
X163253895Y-138964990D01*
X163634847Y-138964990D01*
X165690371Y-141879580D02*
X165690371Y-140879580D01*
X165214180Y-141879580D02*
X165214180Y-140879580D01*
X164642752Y-141879580D01*
X164642752Y-140879580D01*
X164404657Y-141974819D02*
X163642752Y-141974819D01*
X163404657Y-141879580D02*
X163404657Y-140879580D01*
X162833228Y-141879580D01*
X162833228Y-140879580D01*
X176348923Y-153360380D02*
X176444161Y-153312761D01*
X176491780Y-153265142D01*
X176539400Y-153169904D01*
X176539400Y-152884190D01*
X176491780Y-152788952D01*
X176444161Y-152741333D01*
X176348923Y-152693714D01*
X176206066Y-152693714D01*
X176110828Y-152741333D01*
X176063209Y-152788952D01*
X176015590Y-152884190D01*
X176015590Y-153169904D01*
X176063209Y-153265142D01*
X176110828Y-153312761D01*
X176206066Y-153360380D01*
X176348923Y-153360380D01*
X175158447Y-152693714D02*
X175158447Y-153360380D01*
X175587019Y-152693714D02*
X175587019Y-153217523D01*
X175539400Y-153312761D01*
X175444161Y-153360380D01*
X175301304Y-153360380D01*
X175206066Y-153312761D01*
X175158447Y-153265142D01*
X174825114Y-152693714D02*
X174444161Y-152693714D01*
X174682257Y-152360380D02*
X174682257Y-153217523D01*
X174634638Y-153312761D01*
X174539400Y-153360380D01*
X174444161Y-153360380D01*
X173400980Y-143808819D02*
X173353361Y-143713580D01*
X173258123Y-143665961D01*
X172400980Y-143665961D01*
X173400980Y-144332628D02*
X173353361Y-144237390D01*
X173305742Y-144189771D01*
X173210504Y-144142152D01*
X172924790Y-144142152D01*
X172829552Y-144189771D01*
X172781933Y-144237390D01*
X172734314Y-144332628D01*
X172734314Y-144475485D01*
X172781933Y-144570723D01*
X172829552Y-144618342D01*
X172924790Y-144665961D01*
X173210504Y-144665961D01*
X173305742Y-144618342D01*
X173353361Y-144570723D01*
X173400980Y-144475485D01*
X173400980Y-144332628D01*
X172734314Y-144999295D02*
X173400980Y-145189771D01*
X172924790Y-145380247D01*
X173400980Y-145570723D01*
X172734314Y-145761200D01*
X173496219Y-145904057D02*
X173496219Y-146665961D01*
X172734314Y-146904057D02*
X173734314Y-146904057D01*
X172781933Y-146904057D02*
X172734314Y-146999295D01*
X172734314Y-147189771D01*
X172781933Y-147285009D01*
X172829552Y-147332628D01*
X172924790Y-147380247D01*
X173210504Y-147380247D01*
X173305742Y-147332628D01*
X173353361Y-147285009D01*
X173400980Y-147189771D01*
X173400980Y-146999295D01*
X173353361Y-146904057D01*
X173400980Y-148237390D02*
X172877171Y-148237390D01*
X172781933Y-148189771D01*
X172734314Y-148094533D01*
X172734314Y-147904057D01*
X172781933Y-147808819D01*
X173353361Y-148237390D02*
X173400980Y-148142152D01*
X173400980Y-147904057D01*
X173353361Y-147808819D01*
X173258123Y-147761200D01*
X173162885Y-147761200D01*
X173067647Y-147808819D01*
X173020028Y-147904057D01*
X173020028Y-148142152D01*
X172972409Y-148237390D01*
X173353361Y-148665961D02*
X173400980Y-148761200D01*
X173400980Y-148951676D01*
X173353361Y-149046914D01*
X173258123Y-149094533D01*
X173210504Y-149094533D01*
X173115266Y-149046914D01*
X173067647Y-148951676D01*
X173067647Y-148808819D01*
X173020028Y-148713580D01*
X172924790Y-148665961D01*
X172877171Y-148665961D01*
X172781933Y-148713580D01*
X172734314Y-148808819D01*
X172734314Y-148951676D01*
X172781933Y-149046914D01*
X173353361Y-149475485D02*
X173400980Y-149570723D01*
X173400980Y-149761200D01*
X173353361Y-149856438D01*
X173258123Y-149904057D01*
X173210504Y-149904057D01*
X173115266Y-149856438D01*
X173067647Y-149761200D01*
X173067647Y-149618342D01*
X173020028Y-149523104D01*
X172924790Y-149475485D01*
X172877171Y-149475485D01*
X172781933Y-149523104D01*
X172734314Y-149618342D01*
X172734314Y-149761200D01*
X172781933Y-149856438D01*
X170864161Y-143745295D02*
X170911780Y-143650057D01*
X170911780Y-143459580D01*
X170864161Y-143364342D01*
X170816542Y-143316723D01*
X170721304Y-143269104D01*
X170435590Y-143269104D01*
X170340352Y-143316723D01*
X170292733Y-143364342D01*
X170245114Y-143459580D01*
X170245114Y-143650057D01*
X170292733Y-143745295D01*
X170911780Y-144173866D02*
X169911780Y-144173866D01*
X170911780Y-144602438D02*
X170387971Y-144602438D01*
X170292733Y-144554819D01*
X170245114Y-144459580D01*
X170245114Y-144316723D01*
X170292733Y-144221485D01*
X170340352Y-144173866D01*
X170911780Y-145507200D02*
X170387971Y-145507200D01*
X170292733Y-145459580D01*
X170245114Y-145364342D01*
X170245114Y-145173866D01*
X170292733Y-145078628D01*
X170864161Y-145507200D02*
X170911780Y-145411961D01*
X170911780Y-145173866D01*
X170864161Y-145078628D01*
X170768923Y-145031009D01*
X170673685Y-145031009D01*
X170578447Y-145078628D01*
X170530828Y-145173866D01*
X170530828Y-145411961D01*
X170483209Y-145507200D01*
X170911780Y-145983390D02*
X170245114Y-145983390D01*
X170435590Y-145983390D02*
X170340352Y-146031009D01*
X170292733Y-146078628D01*
X170245114Y-146173866D01*
X170245114Y-146269104D01*
X170245114Y-147031009D02*
X171054638Y-147031009D01*
X171149876Y-146983390D01*
X171197495Y-146935771D01*
X171245114Y-146840533D01*
X171245114Y-146697676D01*
X171197495Y-146602438D01*
X170864161Y-147031009D02*
X170911780Y-146935771D01*
X170911780Y-146745295D01*
X170864161Y-146650057D01*
X170816542Y-146602438D01*
X170721304Y-146554819D01*
X170435590Y-146554819D01*
X170340352Y-146602438D01*
X170292733Y-146650057D01*
X170245114Y-146745295D01*
X170245114Y-146935771D01*
X170292733Y-147031009D01*
X170864161Y-147888152D02*
X170911780Y-147792914D01*
X170911780Y-147602438D01*
X170864161Y-147507200D01*
X170768923Y-147459580D01*
X170387971Y-147459580D01*
X170292733Y-147507200D01*
X170245114Y-147602438D01*
X170245114Y-147792914D01*
X170292733Y-147888152D01*
X170387971Y-147935771D01*
X170483209Y-147935771D01*
X170578447Y-147459580D01*
X171007019Y-148126247D02*
X171007019Y-148888152D01*
X169911780Y-149316723D02*
X169911780Y-149507200D01*
X169959400Y-149602438D01*
X170054638Y-149697676D01*
X170245114Y-149745295D01*
X170578447Y-149745295D01*
X170768923Y-149697676D01*
X170864161Y-149602438D01*
X170911780Y-149507200D01*
X170911780Y-149316723D01*
X170864161Y-149221485D01*
X170768923Y-149126247D01*
X170578447Y-149078628D01*
X170245114Y-149078628D01*
X170054638Y-149126247D01*
X169959400Y-149221485D01*
X169911780Y-149316723D01*
X167657495Y-152509600D02*
X167752733Y-152461980D01*
X167895590Y-152461980D01*
X168038447Y-152509600D01*
X168133685Y-152604838D01*
X168181304Y-152700076D01*
X168228923Y-152890552D01*
X168228923Y-153033409D01*
X168181304Y-153223885D01*
X168133685Y-153319123D01*
X168038447Y-153414361D01*
X167895590Y-153461980D01*
X167800352Y-153461980D01*
X167657495Y-153414361D01*
X167609876Y-153366742D01*
X167609876Y-153033409D01*
X167800352Y-153033409D01*
D11*
%TO.C,R13*%
X172439000Y-139261600D02*
X169699000Y-139261600D01*
X169699000Y-139261600D02*
X169699000Y-132721600D01*
X169699000Y-132721600D02*
X172439000Y-132721600D01*
X172439000Y-132721600D02*
X172439000Y-139261600D01*
X171069000Y-140031600D02*
X171069000Y-139261600D01*
X171069000Y-131951600D02*
X171069000Y-132721600D01*
%TO.C,R2*%
X163501800Y-146949279D02*
X163501800Y-146623721D01*
X162481800Y-146949279D02*
X162481800Y-146623721D01*
%TO.C,R1*%
X160043400Y-146623921D02*
X160043400Y-146949479D01*
X161063400Y-146623921D02*
X161063400Y-146949479D01*
%TO.C,R12*%
X177175379Y-144117600D02*
X176849821Y-144117600D01*
X177175379Y-145137600D02*
X176849821Y-145137600D01*
%TO.C,R11*%
X165724621Y-144782000D02*
X166050179Y-144782000D01*
X165724621Y-143762000D02*
X166050179Y-143762000D01*
%TO.C,R10*%
X176849821Y-148439600D02*
X177175379Y-148439600D01*
X176849821Y-147419600D02*
X177175379Y-147419600D01*
%TO.C,R6*%
X165800721Y-146560000D02*
X166126279Y-146560000D01*
X165800721Y-145540000D02*
X166126279Y-145540000D01*
%TO.C,R13*%
D10*
X173858180Y-133977142D02*
X173381990Y-133643809D01*
X173858180Y-133405714D02*
X172858180Y-133405714D01*
X172858180Y-133786666D01*
X172905800Y-133881904D01*
X172953419Y-133929523D01*
X173048657Y-133977142D01*
X173191514Y-133977142D01*
X173286752Y-133929523D01*
X173334371Y-133881904D01*
X173381990Y-133786666D01*
X173381990Y-133405714D01*
X173858180Y-134929523D02*
X173858180Y-134358095D01*
X173858180Y-134643809D02*
X172858180Y-134643809D01*
X173001038Y-134548571D01*
X173096276Y-134453333D01*
X173143895Y-134358095D01*
X172858180Y-135262857D02*
X172858180Y-135881904D01*
X173239133Y-135548571D01*
X173239133Y-135691428D01*
X173286752Y-135786666D01*
X173334371Y-135834285D01*
X173429609Y-135881904D01*
X173667704Y-135881904D01*
X173762942Y-135834285D01*
X173810561Y-135786666D01*
X173858180Y-135691428D01*
X173858180Y-135405714D01*
X173810561Y-135310476D01*
X173762942Y-135262857D01*
%TO.C,R2*%
X164815780Y-146594533D02*
X164339590Y-146261200D01*
X164815780Y-146023104D02*
X163815780Y-146023104D01*
X163815780Y-146404057D01*
X163863400Y-146499295D01*
X163911019Y-146546914D01*
X164006257Y-146594533D01*
X164149114Y-146594533D01*
X164244352Y-146546914D01*
X164291971Y-146499295D01*
X164339590Y-146404057D01*
X164339590Y-146023104D01*
X163911019Y-146975485D02*
X163863400Y-147023104D01*
X163815780Y-147118342D01*
X163815780Y-147356438D01*
X163863400Y-147451676D01*
X163911019Y-147499295D01*
X164006257Y-147546914D01*
X164101495Y-147546914D01*
X164244352Y-147499295D01*
X164815780Y-146927866D01*
X164815780Y-147546914D01*
%TO.C,R1*%
X162072580Y-146645333D02*
X161596390Y-146312000D01*
X162072580Y-146073904D02*
X161072580Y-146073904D01*
X161072580Y-146454857D01*
X161120200Y-146550095D01*
X161167819Y-146597714D01*
X161263057Y-146645333D01*
X161405914Y-146645333D01*
X161501152Y-146597714D01*
X161548771Y-146550095D01*
X161596390Y-146454857D01*
X161596390Y-146073904D01*
X162072580Y-147597714D02*
X162072580Y-147026285D01*
X162072580Y-147312000D02*
X161072580Y-147312000D01*
X161215438Y-147216761D01*
X161310676Y-147121523D01*
X161358295Y-147026285D01*
%TO.C,R12*%
X177655457Y-143649980D02*
X177988790Y-143173790D01*
X178226885Y-143649980D02*
X178226885Y-142649980D01*
X177845933Y-142649980D01*
X177750695Y-142697600D01*
X177703076Y-142745219D01*
X177655457Y-142840457D01*
X177655457Y-142983314D01*
X177703076Y-143078552D01*
X177750695Y-143126171D01*
X177845933Y-143173790D01*
X178226885Y-143173790D01*
X176703076Y-143649980D02*
X177274504Y-143649980D01*
X176988790Y-143649980D02*
X176988790Y-142649980D01*
X177084028Y-142792838D01*
X177179266Y-142888076D01*
X177274504Y-142935695D01*
X176322123Y-142745219D02*
X176274504Y-142697600D01*
X176179266Y-142649980D01*
X175941171Y-142649980D01*
X175845933Y-142697600D01*
X175798314Y-142745219D01*
X175750695Y-142840457D01*
X175750695Y-142935695D01*
X175798314Y-143078552D01*
X176369742Y-143649980D01*
X175750695Y-143649980D01*
%TO.C,R11*%
X166327057Y-143505180D02*
X166660390Y-143028990D01*
X166898485Y-143505180D02*
X166898485Y-142505180D01*
X166517533Y-142505180D01*
X166422295Y-142552800D01*
X166374676Y-142600419D01*
X166327057Y-142695657D01*
X166327057Y-142838514D01*
X166374676Y-142933752D01*
X166422295Y-142981371D01*
X166517533Y-143028990D01*
X166898485Y-143028990D01*
X165374676Y-143505180D02*
X165946104Y-143505180D01*
X165660390Y-143505180D02*
X165660390Y-142505180D01*
X165755628Y-142648038D01*
X165850866Y-142743276D01*
X165946104Y-142790895D01*
X164422295Y-143505180D02*
X164993723Y-143505180D01*
X164708009Y-143505180D02*
X164708009Y-142505180D01*
X164803247Y-142648038D01*
X164898485Y-142743276D01*
X164993723Y-142790895D01*
%TO.C,R10*%
X177655457Y-149811980D02*
X177988790Y-149335790D01*
X178226885Y-149811980D02*
X178226885Y-148811980D01*
X177845933Y-148811980D01*
X177750695Y-148859600D01*
X177703076Y-148907219D01*
X177655457Y-149002457D01*
X177655457Y-149145314D01*
X177703076Y-149240552D01*
X177750695Y-149288171D01*
X177845933Y-149335790D01*
X178226885Y-149335790D01*
X176703076Y-149811980D02*
X177274504Y-149811980D01*
X176988790Y-149811980D02*
X176988790Y-148811980D01*
X177084028Y-148954838D01*
X177179266Y-149050076D01*
X177274504Y-149097695D01*
X176084028Y-148811980D02*
X175988790Y-148811980D01*
X175893552Y-148859600D01*
X175845933Y-148907219D01*
X175798314Y-149002457D01*
X175750695Y-149192933D01*
X175750695Y-149431028D01*
X175798314Y-149621504D01*
X175845933Y-149716742D01*
X175893552Y-149764361D01*
X175988790Y-149811980D01*
X176084028Y-149811980D01*
X176179266Y-149764361D01*
X176226885Y-149716742D01*
X176274504Y-149621504D01*
X176322123Y-149431028D01*
X176322123Y-149192933D01*
X176274504Y-149002457D01*
X176226885Y-148907219D01*
X176179266Y-148859600D01*
X176084028Y-148811980D01*
%TO.C,R6*%
X166130166Y-147932380D02*
X166463500Y-147456190D01*
X166701595Y-147932380D02*
X166701595Y-146932380D01*
X166320642Y-146932380D01*
X166225404Y-146980000D01*
X166177785Y-147027619D01*
X166130166Y-147122857D01*
X166130166Y-147265714D01*
X166177785Y-147360952D01*
X166225404Y-147408571D01*
X166320642Y-147456190D01*
X166701595Y-147456190D01*
X165273023Y-146932380D02*
X165463500Y-146932380D01*
X165558738Y-146980000D01*
X165606357Y-147027619D01*
X165701595Y-147170476D01*
X165749214Y-147360952D01*
X165749214Y-147741904D01*
X165701595Y-147837142D01*
X165653976Y-147884761D01*
X165558738Y-147932380D01*
X165368261Y-147932380D01*
X165273023Y-147884761D01*
X165225404Y-147837142D01*
X165177785Y-147741904D01*
X165177785Y-147503809D01*
X165225404Y-147408571D01*
X165273023Y-147360952D01*
X165368261Y-147313333D01*
X165558738Y-147313333D01*
X165653976Y-147360952D01*
X165701595Y-147408571D01*
X165749214Y-147503809D01*
%TD*%
M02*
