%TF.GenerationSoftware,KiCad,Pcbnew,(5.1.6)-1*%
%TF.CreationDate,2020-11-25T11:03:50+08:00*%
%TF.ProjectId,BCG_Piezo_Integrated_V1.0,4243475f-5069-4657-9a6f-5f496e746567,rev?*%
%TF.SameCoordinates,Original*%
%TF.FileFunction,Legend,Top*%
%TF.FilePolarity,Positive*%
%FSLAX46Y46*%
G04 Gerber Fmt 4.6, Leading zero omitted, Abs format (unit mm)*
G04 Created by KiCad (PCBNEW (5.1.6)-1) date 2020-11-25 11:03:50*
%MOMM*%
%LPD*%
G01*
G04 APERTURE LIST*
%ADD10C,0.120000*%
%ADD11C,0.150000*%
G04 APERTURE END LIST*
D10*
%TO.C,U4*%
X166685800Y-139410800D02*
X164885800Y-139410800D01*
X164885800Y-142630800D02*
X167335800Y-142630800D01*
%TO.C,U2*%
X162487000Y-145136000D02*
X160687000Y-145136000D01*
X160687000Y-148356000D02*
X163137000Y-148356000D01*
%TO.C,U1*%
X171726200Y-135518800D02*
X173526200Y-135518800D01*
X173526200Y-132298800D02*
X171076200Y-132298800D01*
%TO.C,R8*%
X165796179Y-138736800D02*
X165470621Y-138736800D01*
X165796179Y-137716800D02*
X165470621Y-137716800D01*
%TO.C,R3*%
X161431921Y-143609600D02*
X161757479Y-143609600D01*
X161431921Y-144629600D02*
X161757479Y-144629600D01*
%TO.C,J3*%
X162645400Y-137404800D02*
X159985400Y-137404800D01*
X162645400Y-140004800D02*
X162645400Y-137404800D01*
X159985400Y-140004800D02*
X159985400Y-137404800D01*
X162645400Y-140004800D02*
X159985400Y-140004800D01*
X162645400Y-141274800D02*
X162645400Y-142604800D01*
X162645400Y-142604800D02*
X161315400Y-142604800D01*
%TO.C,J1*%
X162645400Y-130902400D02*
X159985400Y-130902400D01*
X162645400Y-133502400D02*
X162645400Y-130902400D01*
X159985400Y-133502400D02*
X159985400Y-130902400D01*
X162645400Y-133502400D02*
X159985400Y-133502400D01*
X162645400Y-134772400D02*
X162645400Y-136102400D01*
X162645400Y-136102400D02*
X161315400Y-136102400D01*
%TO.C,F1*%
X166184664Y-134006000D02*
X164980536Y-134006000D01*
X166184664Y-132186000D02*
X164980536Y-132186000D01*
%TO.C,C7*%
X168171400Y-141335979D02*
X168171400Y-141010421D01*
X169191400Y-141335979D02*
X169191400Y-141010421D01*
%TO.C,C4*%
X174877000Y-134020779D02*
X174877000Y-133695221D01*
X175897000Y-134020779D02*
X175897000Y-133695221D01*
%TO.C,C3*%
X175389000Y-137073321D02*
X175389000Y-137398879D01*
X174369000Y-137073321D02*
X174369000Y-137398879D01*
%TO.C,C2*%
X169293000Y-133644421D02*
X169293000Y-133969979D01*
X168273000Y-133644421D02*
X168273000Y-133969979D01*
%TO.C,C1*%
X165770879Y-136603200D02*
X165445321Y-136603200D01*
X165770879Y-135583200D02*
X165445321Y-135583200D01*
%TO.C,U3*%
X171475400Y-148457600D02*
X173425400Y-148457600D01*
X171475400Y-148457600D02*
X169525400Y-148457600D01*
X171475400Y-143337600D02*
X173425400Y-143337600D01*
X171475400Y-143337600D02*
X168025400Y-143337600D01*
%TO.C,R15*%
X176849821Y-144117600D02*
X177175379Y-144117600D01*
X176849821Y-145137600D02*
X177175379Y-145137600D01*
%TO.C,R14*%
X166050179Y-144782000D02*
X165724621Y-144782000D01*
X166050179Y-143762000D02*
X165724621Y-143762000D01*
%TO.C,R9*%
X166100979Y-146560000D02*
X165775421Y-146560000D01*
X166100979Y-145540000D02*
X165775421Y-145540000D01*
%TO.C,R7*%
X177175379Y-148439600D02*
X176849821Y-148439600D01*
X177175379Y-147419600D02*
X176849821Y-147419600D01*
%TO.C,R5*%
X174165800Y-141285179D02*
X174165800Y-140959621D01*
X175185800Y-141285179D02*
X175185800Y-140959621D01*
%TO.C,R4*%
X176045400Y-137398879D02*
X176045400Y-137073321D01*
X177065400Y-137398879D02*
X177065400Y-137073321D01*
%TO.C,J4*%
X166640200Y-149749200D02*
X166640200Y-152409200D01*
X174320200Y-149749200D02*
X166640200Y-149749200D01*
X174320200Y-152409200D02*
X166640200Y-152409200D01*
X174320200Y-149749200D02*
X174320200Y-152409200D01*
X175590200Y-149749200D02*
X176920200Y-149749200D01*
X176920200Y-149749200D02*
X176920200Y-151079200D01*
%TO.C,J2*%
X168367400Y-136287200D02*
X168367400Y-138947200D01*
X170967400Y-136287200D02*
X168367400Y-136287200D01*
X170967400Y-138947200D02*
X168367400Y-138947200D01*
X170967400Y-136287200D02*
X170967400Y-138947200D01*
X172237400Y-136287200D02*
X173567400Y-136287200D01*
X173567400Y-136287200D02*
X173567400Y-137617200D01*
%TO.C,D1*%
X177138000Y-141922400D02*
X177138000Y-139637400D01*
X177138000Y-139637400D02*
X175668000Y-139637400D01*
X175668000Y-139637400D02*
X175668000Y-141922400D01*
%TO.C,C6*%
X177200879Y-146814000D02*
X176875321Y-146814000D01*
X177200879Y-145794000D02*
X176875321Y-145794000D01*
%TO.C,C5*%
X165800721Y-147267200D02*
X166126279Y-147267200D01*
X165800721Y-148287200D02*
X166126279Y-148287200D01*
%TO.C,U4*%
D11*
X165074695Y-142352780D02*
X165074695Y-143162304D01*
X165122314Y-143257542D01*
X165169933Y-143305161D01*
X165265171Y-143352780D01*
X165455647Y-143352780D01*
X165550885Y-143305161D01*
X165598504Y-143257542D01*
X165646123Y-143162304D01*
X165646123Y-142352780D01*
X166550885Y-142686114D02*
X166550885Y-143352780D01*
X166312790Y-142305161D02*
X166074695Y-143019447D01*
X166693742Y-143019447D01*
%TO.C,U2*%
X160858295Y-148347180D02*
X160858295Y-149156704D01*
X160905914Y-149251942D01*
X160953533Y-149299561D01*
X161048771Y-149347180D01*
X161239247Y-149347180D01*
X161334485Y-149299561D01*
X161382104Y-149251942D01*
X161429723Y-149156704D01*
X161429723Y-148347180D01*
X161858295Y-148442419D02*
X161905914Y-148394800D01*
X162001152Y-148347180D01*
X162239247Y-148347180D01*
X162334485Y-148394800D01*
X162382104Y-148442419D01*
X162429723Y-148537657D01*
X162429723Y-148632895D01*
X162382104Y-148775752D01*
X161810676Y-149347180D01*
X162429723Y-149347180D01*
%TO.C,U1*%
X172135895Y-130973580D02*
X172135895Y-131783104D01*
X172183514Y-131878342D01*
X172231133Y-131925961D01*
X172326371Y-131973580D01*
X172516847Y-131973580D01*
X172612085Y-131925961D01*
X172659704Y-131878342D01*
X172707323Y-131783104D01*
X172707323Y-130973580D01*
X173707323Y-131973580D02*
X173135895Y-131973580D01*
X173421609Y-131973580D02*
X173421609Y-130973580D01*
X173326371Y-131116438D01*
X173231133Y-131211676D01*
X173135895Y-131259295D01*
%TO.C,R8*%
X165466733Y-137713980D02*
X165133400Y-137237790D01*
X164895304Y-137713980D02*
X164895304Y-136713980D01*
X165276257Y-136713980D01*
X165371495Y-136761600D01*
X165419114Y-136809219D01*
X165466733Y-136904457D01*
X165466733Y-137047314D01*
X165419114Y-137142552D01*
X165371495Y-137190171D01*
X165276257Y-137237790D01*
X164895304Y-137237790D01*
X166038161Y-137142552D02*
X165942923Y-137094933D01*
X165895304Y-137047314D01*
X165847685Y-136952076D01*
X165847685Y-136904457D01*
X165895304Y-136809219D01*
X165942923Y-136761600D01*
X166038161Y-136713980D01*
X166228638Y-136713980D01*
X166323876Y-136761600D01*
X166371495Y-136809219D01*
X166419114Y-136904457D01*
X166419114Y-136952076D01*
X166371495Y-137047314D01*
X166323876Y-137094933D01*
X166228638Y-137142552D01*
X166038161Y-137142552D01*
X165942923Y-137190171D01*
X165895304Y-137237790D01*
X165847685Y-137333028D01*
X165847685Y-137523504D01*
X165895304Y-137618742D01*
X165942923Y-137666361D01*
X166038161Y-137713980D01*
X166228638Y-137713980D01*
X166323876Y-137666361D01*
X166371495Y-137618742D01*
X166419114Y-137523504D01*
X166419114Y-137333028D01*
X166371495Y-137237790D01*
X166323876Y-137190171D01*
X166228638Y-137142552D01*
%TO.C,R3*%
X160294580Y-144337066D02*
X159818390Y-144670400D01*
X160294580Y-144908495D02*
X159294580Y-144908495D01*
X159294580Y-144527542D01*
X159342200Y-144432304D01*
X159389819Y-144384685D01*
X159485057Y-144337066D01*
X159627914Y-144337066D01*
X159723152Y-144384685D01*
X159770771Y-144432304D01*
X159818390Y-144527542D01*
X159818390Y-144908495D01*
X159294580Y-144003733D02*
X159294580Y-143384685D01*
X159675533Y-143718019D01*
X159675533Y-143575161D01*
X159723152Y-143479923D01*
X159770771Y-143432304D01*
X159866009Y-143384685D01*
X160104104Y-143384685D01*
X160199342Y-143432304D01*
X160246961Y-143479923D01*
X160294580Y-143575161D01*
X160294580Y-143860876D01*
X160246961Y-143956114D01*
X160199342Y-144003733D01*
%TO.C,F1*%
X165249266Y-131195771D02*
X164915933Y-131195771D01*
X164915933Y-131719580D02*
X164915933Y-130719580D01*
X165392123Y-130719580D01*
X166296885Y-131719580D02*
X165725457Y-131719580D01*
X166011171Y-131719580D02*
X166011171Y-130719580D01*
X165915933Y-130862438D01*
X165820695Y-130957676D01*
X165725457Y-131005295D01*
%TO.C,C7*%
X170105342Y-141238266D02*
X170152961Y-141285885D01*
X170200580Y-141428742D01*
X170200580Y-141523980D01*
X170152961Y-141666838D01*
X170057723Y-141762076D01*
X169962485Y-141809695D01*
X169772009Y-141857314D01*
X169629152Y-141857314D01*
X169438676Y-141809695D01*
X169343438Y-141762076D01*
X169248200Y-141666838D01*
X169200580Y-141523980D01*
X169200580Y-141428742D01*
X169248200Y-141285885D01*
X169295819Y-141238266D01*
X169200580Y-140904933D02*
X169200580Y-140238266D01*
X170200580Y-140666838D01*
%TO.C,C4*%
X177115742Y-134177066D02*
X177163361Y-134224685D01*
X177210980Y-134367542D01*
X177210980Y-134462780D01*
X177163361Y-134605638D01*
X177068123Y-134700876D01*
X176972885Y-134748495D01*
X176782409Y-134796114D01*
X176639552Y-134796114D01*
X176449076Y-134748495D01*
X176353838Y-134700876D01*
X176258600Y-134605638D01*
X176210980Y-134462780D01*
X176210980Y-134367542D01*
X176258600Y-134224685D01*
X176306219Y-134177066D01*
X176544314Y-133319923D02*
X177210980Y-133319923D01*
X176163361Y-133558019D02*
X176877647Y-133796114D01*
X176877647Y-133177066D01*
%TO.C,C3*%
X174372542Y-137479066D02*
X174420161Y-137526685D01*
X174467780Y-137669542D01*
X174467780Y-137764780D01*
X174420161Y-137907638D01*
X174324923Y-138002876D01*
X174229685Y-138050495D01*
X174039209Y-138098114D01*
X173896352Y-138098114D01*
X173705876Y-138050495D01*
X173610638Y-138002876D01*
X173515400Y-137907638D01*
X173467780Y-137764780D01*
X173467780Y-137669542D01*
X173515400Y-137526685D01*
X173563019Y-137479066D01*
X173467780Y-137145733D02*
X173467780Y-136526685D01*
X173848733Y-136860019D01*
X173848733Y-136717161D01*
X173896352Y-136621923D01*
X173943971Y-136574304D01*
X174039209Y-136526685D01*
X174277304Y-136526685D01*
X174372542Y-136574304D01*
X174420161Y-136621923D01*
X174467780Y-136717161D01*
X174467780Y-137002876D01*
X174420161Y-137098114D01*
X174372542Y-137145733D01*
%TO.C,C2*%
X170570142Y-133973866D02*
X170617761Y-134021485D01*
X170665380Y-134164342D01*
X170665380Y-134259580D01*
X170617761Y-134402438D01*
X170522523Y-134497676D01*
X170427285Y-134545295D01*
X170236809Y-134592914D01*
X170093952Y-134592914D01*
X169903476Y-134545295D01*
X169808238Y-134497676D01*
X169713000Y-134402438D01*
X169665380Y-134259580D01*
X169665380Y-134164342D01*
X169713000Y-134021485D01*
X169760619Y-133973866D01*
X169760619Y-133592914D02*
X169713000Y-133545295D01*
X169665380Y-133450057D01*
X169665380Y-133211961D01*
X169713000Y-133116723D01*
X169760619Y-133069104D01*
X169855857Y-133021485D01*
X169951095Y-133021485D01*
X170093952Y-133069104D01*
X170665380Y-133640533D01*
X170665380Y-133021485D01*
%TO.C,C1*%
X165415933Y-135129542D02*
X165368314Y-135177161D01*
X165225457Y-135224780D01*
X165130219Y-135224780D01*
X164987361Y-135177161D01*
X164892123Y-135081923D01*
X164844504Y-134986685D01*
X164796885Y-134796209D01*
X164796885Y-134653352D01*
X164844504Y-134462876D01*
X164892123Y-134367638D01*
X164987361Y-134272400D01*
X165130219Y-134224780D01*
X165225457Y-134224780D01*
X165368314Y-134272400D01*
X165415933Y-134320019D01*
X166368314Y-135224780D02*
X165796885Y-135224780D01*
X166082600Y-135224780D02*
X166082600Y-134224780D01*
X165987361Y-134367638D01*
X165892123Y-134462876D01*
X165796885Y-134510495D01*
%TO.C,U3*%
X169697495Y-142505180D02*
X169697495Y-143314704D01*
X169745114Y-143409942D01*
X169792733Y-143457561D01*
X169887971Y-143505180D01*
X170078447Y-143505180D01*
X170173685Y-143457561D01*
X170221304Y-143409942D01*
X170268923Y-143314704D01*
X170268923Y-142505180D01*
X170649876Y-142505180D02*
X171268923Y-142505180D01*
X170935590Y-142886133D01*
X171078447Y-142886133D01*
X171173685Y-142933752D01*
X171221304Y-142981371D01*
X171268923Y-143076609D01*
X171268923Y-143314704D01*
X171221304Y-143409942D01*
X171173685Y-143457561D01*
X171078447Y-143505180D01*
X170792733Y-143505180D01*
X170697495Y-143457561D01*
X170649876Y-143409942D01*
%TO.C,R15*%
X176420542Y-143809980D02*
X176087209Y-143333790D01*
X175849114Y-143809980D02*
X175849114Y-142809980D01*
X176230066Y-142809980D01*
X176325304Y-142857600D01*
X176372923Y-142905219D01*
X176420542Y-143000457D01*
X176420542Y-143143314D01*
X176372923Y-143238552D01*
X176325304Y-143286171D01*
X176230066Y-143333790D01*
X175849114Y-143333790D01*
X177372923Y-143809980D02*
X176801495Y-143809980D01*
X177087209Y-143809980D02*
X177087209Y-142809980D01*
X176991971Y-142952838D01*
X176896733Y-143048076D01*
X176801495Y-143095695D01*
X178277685Y-142809980D02*
X177801495Y-142809980D01*
X177753876Y-143286171D01*
X177801495Y-143238552D01*
X177896733Y-143190933D01*
X178134828Y-143190933D01*
X178230066Y-143238552D01*
X178277685Y-143286171D01*
X178325304Y-143381409D01*
X178325304Y-143619504D01*
X178277685Y-143714742D01*
X178230066Y-143762361D01*
X178134828Y-143809980D01*
X177896733Y-143809980D01*
X177801495Y-143762361D01*
X177753876Y-143714742D01*
%TO.C,R14*%
X164460180Y-144965657D02*
X163983990Y-145298990D01*
X164460180Y-145537085D02*
X163460180Y-145537085D01*
X163460180Y-145156133D01*
X163507800Y-145060895D01*
X163555419Y-145013276D01*
X163650657Y-144965657D01*
X163793514Y-144965657D01*
X163888752Y-145013276D01*
X163936371Y-145060895D01*
X163983990Y-145156133D01*
X163983990Y-145537085D01*
X164460180Y-144013276D02*
X164460180Y-144584704D01*
X164460180Y-144298990D02*
X163460180Y-144298990D01*
X163603038Y-144394228D01*
X163698276Y-144489466D01*
X163745895Y-144584704D01*
X163793514Y-143156133D02*
X164460180Y-143156133D01*
X163412561Y-143394228D02*
X164126847Y-143632323D01*
X164126847Y-143013276D01*
%TO.C,R9*%
X164561780Y-146724666D02*
X164085590Y-147058000D01*
X164561780Y-147296095D02*
X163561780Y-147296095D01*
X163561780Y-146915142D01*
X163609400Y-146819904D01*
X163657019Y-146772285D01*
X163752257Y-146724666D01*
X163895114Y-146724666D01*
X163990352Y-146772285D01*
X164037971Y-146819904D01*
X164085590Y-146915142D01*
X164085590Y-147296095D01*
X164561780Y-146248476D02*
X164561780Y-146058000D01*
X164514161Y-145962761D01*
X164466542Y-145915142D01*
X164323685Y-145819904D01*
X164133209Y-145772285D01*
X163752257Y-145772285D01*
X163657019Y-145819904D01*
X163609400Y-145867523D01*
X163561780Y-145962761D01*
X163561780Y-146153238D01*
X163609400Y-146248476D01*
X163657019Y-146296095D01*
X163752257Y-146343714D01*
X163990352Y-146343714D01*
X164085590Y-146296095D01*
X164133209Y-146248476D01*
X164180828Y-146153238D01*
X164180828Y-145962761D01*
X164133209Y-145867523D01*
X164085590Y-145819904D01*
X163990352Y-145772285D01*
%TO.C,R7*%
X176693533Y-149702780D02*
X176360200Y-149226590D01*
X176122104Y-149702780D02*
X176122104Y-148702780D01*
X176503057Y-148702780D01*
X176598295Y-148750400D01*
X176645914Y-148798019D01*
X176693533Y-148893257D01*
X176693533Y-149036114D01*
X176645914Y-149131352D01*
X176598295Y-149178971D01*
X176503057Y-149226590D01*
X176122104Y-149226590D01*
X177026866Y-148702780D02*
X177693533Y-148702780D01*
X177264961Y-149702780D01*
%TO.C,R5*%
X173698180Y-141289066D02*
X173221990Y-141622400D01*
X173698180Y-141860495D02*
X172698180Y-141860495D01*
X172698180Y-141479542D01*
X172745800Y-141384304D01*
X172793419Y-141336685D01*
X172888657Y-141289066D01*
X173031514Y-141289066D01*
X173126752Y-141336685D01*
X173174371Y-141384304D01*
X173221990Y-141479542D01*
X173221990Y-141860495D01*
X172698180Y-140384304D02*
X172698180Y-140860495D01*
X173174371Y-140908114D01*
X173126752Y-140860495D01*
X173079133Y-140765257D01*
X173079133Y-140527161D01*
X173126752Y-140431923D01*
X173174371Y-140384304D01*
X173269609Y-140336685D01*
X173507704Y-140336685D01*
X173602942Y-140384304D01*
X173650561Y-140431923D01*
X173698180Y-140527161D01*
X173698180Y-140765257D01*
X173650561Y-140860495D01*
X173602942Y-140908114D01*
%TO.C,R4*%
X178430180Y-137402766D02*
X177953990Y-137736100D01*
X178430180Y-137974195D02*
X177430180Y-137974195D01*
X177430180Y-137593242D01*
X177477800Y-137498004D01*
X177525419Y-137450385D01*
X177620657Y-137402766D01*
X177763514Y-137402766D01*
X177858752Y-137450385D01*
X177906371Y-137498004D01*
X177953990Y-137593242D01*
X177953990Y-137974195D01*
X177763514Y-136545623D02*
X178430180Y-136545623D01*
X177382561Y-136783719D02*
X178096847Y-137021814D01*
X178096847Y-136402766D01*
%TO.C,D1*%
X178285380Y-141860495D02*
X177285380Y-141860495D01*
X177285380Y-141622400D01*
X177333000Y-141479542D01*
X177428238Y-141384304D01*
X177523476Y-141336685D01*
X177713952Y-141289066D01*
X177856809Y-141289066D01*
X178047285Y-141336685D01*
X178142523Y-141384304D01*
X178237761Y-141479542D01*
X178285380Y-141622400D01*
X178285380Y-141860495D01*
X178285380Y-140336685D02*
X178285380Y-140908114D01*
X178285380Y-140622400D02*
X177285380Y-140622400D01*
X177428238Y-140717638D01*
X177523476Y-140812876D01*
X177571095Y-140908114D01*
%TO.C,C6*%
X175896542Y-146521466D02*
X175944161Y-146569085D01*
X175991780Y-146711942D01*
X175991780Y-146807180D01*
X175944161Y-146950038D01*
X175848923Y-147045276D01*
X175753685Y-147092895D01*
X175563209Y-147140514D01*
X175420352Y-147140514D01*
X175229876Y-147092895D01*
X175134638Y-147045276D01*
X175039400Y-146950038D01*
X174991780Y-146807180D01*
X174991780Y-146711942D01*
X175039400Y-146569085D01*
X175087019Y-146521466D01*
X174991780Y-145664323D02*
X174991780Y-145854800D01*
X175039400Y-145950038D01*
X175087019Y-145997657D01*
X175229876Y-146092895D01*
X175420352Y-146140514D01*
X175801304Y-146140514D01*
X175896542Y-146092895D01*
X175944161Y-146045276D01*
X175991780Y-145950038D01*
X175991780Y-145759561D01*
X175944161Y-145664323D01*
X175896542Y-145616704D01*
X175801304Y-145569085D01*
X175563209Y-145569085D01*
X175467971Y-145616704D01*
X175420352Y-145664323D01*
X175372733Y-145759561D01*
X175372733Y-145950038D01*
X175420352Y-146045276D01*
X175467971Y-146092895D01*
X175563209Y-146140514D01*
%TO.C,C5*%
X164415742Y-148451866D02*
X164463361Y-148499485D01*
X164510980Y-148642342D01*
X164510980Y-148737580D01*
X164463361Y-148880438D01*
X164368123Y-148975676D01*
X164272885Y-149023295D01*
X164082409Y-149070914D01*
X163939552Y-149070914D01*
X163749076Y-149023295D01*
X163653838Y-148975676D01*
X163558600Y-148880438D01*
X163510980Y-148737580D01*
X163510980Y-148642342D01*
X163558600Y-148499485D01*
X163606219Y-148451866D01*
X163510980Y-147547104D02*
X163510980Y-148023295D01*
X163987171Y-148070914D01*
X163939552Y-148023295D01*
X163891933Y-147928057D01*
X163891933Y-147689961D01*
X163939552Y-147594723D01*
X163987171Y-147547104D01*
X164082409Y-147499485D01*
X164320504Y-147499485D01*
X164415742Y-147547104D01*
X164463361Y-147594723D01*
X164510980Y-147689961D01*
X164510980Y-147928057D01*
X164463361Y-148023295D01*
X164415742Y-148070914D01*
%TD*%
M02*
