M48
INCH,TZ
T1C0.0157
T2C0.0315
T3C0.0394
T4C0.1260
%
G90
G05
T1
X63210Y-58580
X63230Y-53880
X63690Y-57220
X63690Y-57780
X63990Y-53860
X64250Y-53200
X64250Y-54920
X64350Y-51460
X64890Y-53060
X64910Y-58900
X65000Y-56800
X65030Y-57500
X65050Y-59700
X65170Y-51460
X65510Y-58800
X65970Y-55520
X66150Y-51440
X66390Y-58780
X66450Y-53000
X67010Y-54860
X67110Y-52720
X67490Y-57940
X67590Y-54880
X67910Y-57320
X67930Y-56020
X68350Y-51440
X68850Y-54680
X69190Y-51420
X69390Y-57600
X69950Y-51440
X69970Y-52220
X69990Y-55280
X70000Y-56940
X70010Y-57600
X70010Y-58240
X70030Y-53120
T2
X67350Y-51540
X67350Y-55540
T3
X63510Y-54620
X63510Y-55620
X66130Y-59480
X67130Y-59480
X68130Y-59480
X69130Y-59480
X63510Y-52060
X63510Y-53060
X66810Y-54180
X67810Y-54180
T4
X63770Y-59540
T0
M30
