%TF.GenerationSoftware,KiCad,Pcbnew,(5.1.6)-1*%
%TF.CreationDate,2020-11-25T11:03:50+08:00*%
%TF.ProjectId,BCG_Piezo_Integrated_V1.0,4243475f-5069-4657-9a6f-5f496e746567,rev?*%
%TF.SameCoordinates,Original*%
%TF.FileFunction,Paste,Top*%
%TF.FilePolarity,Positive*%
%FSLAX46Y46*%
G04 Gerber Fmt 4.6, Leading zero omitted, Abs format (unit mm)*
G04 Created by KiCad (PCBNEW (5.1.6)-1) date 2020-11-25 11:03:50*
%MOMM*%
%LPD*%
G01*
G04 APERTURE LIST*
%ADD10R,1.060000X0.650000*%
G04 APERTURE END LIST*
D10*
%TO.C,U4*%
X164685800Y-141970800D03*
X164685800Y-140070800D03*
X166885800Y-140070800D03*
X166885800Y-141020800D03*
X166885800Y-141970800D03*
%TD*%
%TO.C,U2*%
X160487000Y-147696000D03*
X160487000Y-145796000D03*
X162687000Y-145796000D03*
X162687000Y-146746000D03*
X162687000Y-147696000D03*
%TD*%
%TO.C,U1*%
X173726200Y-132958800D03*
X173726200Y-134858800D03*
X171526200Y-134858800D03*
X171526200Y-133908800D03*
X171526200Y-132958800D03*
%TD*%
%TO.C,R8*%
G36*
G01*
X165283400Y-137970550D02*
X165283400Y-138483050D01*
G75*
G02*
X165064650Y-138701800I-218750J0D01*
G01*
X164627150Y-138701800D01*
G75*
G02*
X164408400Y-138483050I0J218750D01*
G01*
X164408400Y-137970550D01*
G75*
G02*
X164627150Y-137751800I218750J0D01*
G01*
X165064650Y-137751800D01*
G75*
G02*
X165283400Y-137970550I0J-218750D01*
G01*
G37*
G36*
G01*
X166858400Y-137970550D02*
X166858400Y-138483050D01*
G75*
G02*
X166639650Y-138701800I-218750J0D01*
G01*
X166202150Y-138701800D01*
G75*
G02*
X165983400Y-138483050I0J218750D01*
G01*
X165983400Y-137970550D01*
G75*
G02*
X166202150Y-137751800I218750J0D01*
G01*
X166639650Y-137751800D01*
G75*
G02*
X166858400Y-137970550I0J-218750D01*
G01*
G37*
%TD*%
%TO.C,R3*%
G36*
G01*
X161944700Y-144375850D02*
X161944700Y-143863350D01*
G75*
G02*
X162163450Y-143644600I218750J0D01*
G01*
X162600950Y-143644600D01*
G75*
G02*
X162819700Y-143863350I0J-218750D01*
G01*
X162819700Y-144375850D01*
G75*
G02*
X162600950Y-144594600I-218750J0D01*
G01*
X162163450Y-144594600D01*
G75*
G02*
X161944700Y-144375850I0J218750D01*
G01*
G37*
G36*
G01*
X160369700Y-144375850D02*
X160369700Y-143863350D01*
G75*
G02*
X160588450Y-143644600I218750J0D01*
G01*
X161025950Y-143644600D01*
G75*
G02*
X161244700Y-143863350I0J-218750D01*
G01*
X161244700Y-144375850D01*
G75*
G02*
X161025950Y-144594600I-218750J0D01*
G01*
X160588450Y-144594600D01*
G75*
G02*
X160369700Y-144375850I0J218750D01*
G01*
G37*
%TD*%
%TO.C,F1*%
G36*
G01*
X164807600Y-132471000D02*
X164807600Y-133721000D01*
G75*
G02*
X164557600Y-133971000I-250000J0D01*
G01*
X163807600Y-133971000D01*
G75*
G02*
X163557600Y-133721000I0J250000D01*
G01*
X163557600Y-132471000D01*
G75*
G02*
X163807600Y-132221000I250000J0D01*
G01*
X164557600Y-132221000D01*
G75*
G02*
X164807600Y-132471000I0J-250000D01*
G01*
G37*
G36*
G01*
X167607600Y-132471000D02*
X167607600Y-133721000D01*
G75*
G02*
X167357600Y-133971000I-250000J0D01*
G01*
X166607600Y-133971000D01*
G75*
G02*
X166357600Y-133721000I0J250000D01*
G01*
X166357600Y-132471000D01*
G75*
G02*
X166607600Y-132221000I250000J0D01*
G01*
X167357600Y-132221000D01*
G75*
G02*
X167607600Y-132471000I0J-250000D01*
G01*
G37*
%TD*%
%TO.C,C7*%
G36*
G01*
X168937650Y-140823200D02*
X168425150Y-140823200D01*
G75*
G02*
X168206400Y-140604450I0J218750D01*
G01*
X168206400Y-140166950D01*
G75*
G02*
X168425150Y-139948200I218750J0D01*
G01*
X168937650Y-139948200D01*
G75*
G02*
X169156400Y-140166950I0J-218750D01*
G01*
X169156400Y-140604450D01*
G75*
G02*
X168937650Y-140823200I-218750J0D01*
G01*
G37*
G36*
G01*
X168937650Y-142398200D02*
X168425150Y-142398200D01*
G75*
G02*
X168206400Y-142179450I0J218750D01*
G01*
X168206400Y-141741950D01*
G75*
G02*
X168425150Y-141523200I218750J0D01*
G01*
X168937650Y-141523200D01*
G75*
G02*
X169156400Y-141741950I0J-218750D01*
G01*
X169156400Y-142179450D01*
G75*
G02*
X168937650Y-142398200I-218750J0D01*
G01*
G37*
%TD*%
%TO.C,C4*%
G36*
G01*
X175643250Y-133508000D02*
X175130750Y-133508000D01*
G75*
G02*
X174912000Y-133289250I0J218750D01*
G01*
X174912000Y-132851750D01*
G75*
G02*
X175130750Y-132633000I218750J0D01*
G01*
X175643250Y-132633000D01*
G75*
G02*
X175862000Y-132851750I0J-218750D01*
G01*
X175862000Y-133289250D01*
G75*
G02*
X175643250Y-133508000I-218750J0D01*
G01*
G37*
G36*
G01*
X175643250Y-135083000D02*
X175130750Y-135083000D01*
G75*
G02*
X174912000Y-134864250I0J218750D01*
G01*
X174912000Y-134426750D01*
G75*
G02*
X175130750Y-134208000I218750J0D01*
G01*
X175643250Y-134208000D01*
G75*
G02*
X175862000Y-134426750I0J-218750D01*
G01*
X175862000Y-134864250D01*
G75*
G02*
X175643250Y-135083000I-218750J0D01*
G01*
G37*
%TD*%
%TO.C,C3*%
G36*
G01*
X174622750Y-137586100D02*
X175135250Y-137586100D01*
G75*
G02*
X175354000Y-137804850I0J-218750D01*
G01*
X175354000Y-138242350D01*
G75*
G02*
X175135250Y-138461100I-218750J0D01*
G01*
X174622750Y-138461100D01*
G75*
G02*
X174404000Y-138242350I0J218750D01*
G01*
X174404000Y-137804850D01*
G75*
G02*
X174622750Y-137586100I218750J0D01*
G01*
G37*
G36*
G01*
X174622750Y-136011100D02*
X175135250Y-136011100D01*
G75*
G02*
X175354000Y-136229850I0J-218750D01*
G01*
X175354000Y-136667350D01*
G75*
G02*
X175135250Y-136886100I-218750J0D01*
G01*
X174622750Y-136886100D01*
G75*
G02*
X174404000Y-136667350I0J218750D01*
G01*
X174404000Y-136229850D01*
G75*
G02*
X174622750Y-136011100I218750J0D01*
G01*
G37*
%TD*%
%TO.C,C2*%
G36*
G01*
X168526750Y-134157200D02*
X169039250Y-134157200D01*
G75*
G02*
X169258000Y-134375950I0J-218750D01*
G01*
X169258000Y-134813450D01*
G75*
G02*
X169039250Y-135032200I-218750J0D01*
G01*
X168526750Y-135032200D01*
G75*
G02*
X168308000Y-134813450I0J218750D01*
G01*
X168308000Y-134375950D01*
G75*
G02*
X168526750Y-134157200I218750J0D01*
G01*
G37*
G36*
G01*
X168526750Y-132582200D02*
X169039250Y-132582200D01*
G75*
G02*
X169258000Y-132800950I0J-218750D01*
G01*
X169258000Y-133238450D01*
G75*
G02*
X169039250Y-133457200I-218750J0D01*
G01*
X168526750Y-133457200D01*
G75*
G02*
X168308000Y-133238450I0J218750D01*
G01*
X168308000Y-132800950D01*
G75*
G02*
X168526750Y-132582200I218750J0D01*
G01*
G37*
%TD*%
%TO.C,C1*%
G36*
G01*
X165258100Y-135836950D02*
X165258100Y-136349450D01*
G75*
G02*
X165039350Y-136568200I-218750J0D01*
G01*
X164601850Y-136568200D01*
G75*
G02*
X164383100Y-136349450I0J218750D01*
G01*
X164383100Y-135836950D01*
G75*
G02*
X164601850Y-135618200I218750J0D01*
G01*
X165039350Y-135618200D01*
G75*
G02*
X165258100Y-135836950I0J-218750D01*
G01*
G37*
G36*
G01*
X166833100Y-135836950D02*
X166833100Y-136349450D01*
G75*
G02*
X166614350Y-136568200I-218750J0D01*
G01*
X166176850Y-136568200D01*
G75*
G02*
X165958100Y-136349450I0J218750D01*
G01*
X165958100Y-135836950D01*
G75*
G02*
X166176850Y-135618200I218750J0D01*
G01*
X166614350Y-135618200D01*
G75*
G02*
X166833100Y-135836950I0J-218750D01*
G01*
G37*
%TD*%
%TO.C,U3*%
G36*
G01*
X173275400Y-144142600D02*
X173275400Y-143842600D01*
G75*
G02*
X173425400Y-143692600I150000J0D01*
G01*
X174775400Y-143692600D01*
G75*
G02*
X174925400Y-143842600I0J-150000D01*
G01*
X174925400Y-144142600D01*
G75*
G02*
X174775400Y-144292600I-150000J0D01*
G01*
X173425400Y-144292600D01*
G75*
G02*
X173275400Y-144142600I0J150000D01*
G01*
G37*
G36*
G01*
X173275400Y-145412600D02*
X173275400Y-145112600D01*
G75*
G02*
X173425400Y-144962600I150000J0D01*
G01*
X174775400Y-144962600D01*
G75*
G02*
X174925400Y-145112600I0J-150000D01*
G01*
X174925400Y-145412600D01*
G75*
G02*
X174775400Y-145562600I-150000J0D01*
G01*
X173425400Y-145562600D01*
G75*
G02*
X173275400Y-145412600I0J150000D01*
G01*
G37*
G36*
G01*
X173275400Y-146682600D02*
X173275400Y-146382600D01*
G75*
G02*
X173425400Y-146232600I150000J0D01*
G01*
X174775400Y-146232600D01*
G75*
G02*
X174925400Y-146382600I0J-150000D01*
G01*
X174925400Y-146682600D01*
G75*
G02*
X174775400Y-146832600I-150000J0D01*
G01*
X173425400Y-146832600D01*
G75*
G02*
X173275400Y-146682600I0J150000D01*
G01*
G37*
G36*
G01*
X173275400Y-147952600D02*
X173275400Y-147652600D01*
G75*
G02*
X173425400Y-147502600I150000J0D01*
G01*
X174775400Y-147502600D01*
G75*
G02*
X174925400Y-147652600I0J-150000D01*
G01*
X174925400Y-147952600D01*
G75*
G02*
X174775400Y-148102600I-150000J0D01*
G01*
X173425400Y-148102600D01*
G75*
G02*
X173275400Y-147952600I0J150000D01*
G01*
G37*
G36*
G01*
X168025400Y-147952600D02*
X168025400Y-147652600D01*
G75*
G02*
X168175400Y-147502600I150000J0D01*
G01*
X169525400Y-147502600D01*
G75*
G02*
X169675400Y-147652600I0J-150000D01*
G01*
X169675400Y-147952600D01*
G75*
G02*
X169525400Y-148102600I-150000J0D01*
G01*
X168175400Y-148102600D01*
G75*
G02*
X168025400Y-147952600I0J150000D01*
G01*
G37*
G36*
G01*
X168025400Y-146682600D02*
X168025400Y-146382600D01*
G75*
G02*
X168175400Y-146232600I150000J0D01*
G01*
X169525400Y-146232600D01*
G75*
G02*
X169675400Y-146382600I0J-150000D01*
G01*
X169675400Y-146682600D01*
G75*
G02*
X169525400Y-146832600I-150000J0D01*
G01*
X168175400Y-146832600D01*
G75*
G02*
X168025400Y-146682600I0J150000D01*
G01*
G37*
G36*
G01*
X168025400Y-145412600D02*
X168025400Y-145112600D01*
G75*
G02*
X168175400Y-144962600I150000J0D01*
G01*
X169525400Y-144962600D01*
G75*
G02*
X169675400Y-145112600I0J-150000D01*
G01*
X169675400Y-145412600D01*
G75*
G02*
X169525400Y-145562600I-150000J0D01*
G01*
X168175400Y-145562600D01*
G75*
G02*
X168025400Y-145412600I0J150000D01*
G01*
G37*
G36*
G01*
X168025400Y-144142600D02*
X168025400Y-143842600D01*
G75*
G02*
X168175400Y-143692600I150000J0D01*
G01*
X169525400Y-143692600D01*
G75*
G02*
X169675400Y-143842600I0J-150000D01*
G01*
X169675400Y-144142600D01*
G75*
G02*
X169525400Y-144292600I-150000J0D01*
G01*
X168175400Y-144292600D01*
G75*
G02*
X168025400Y-144142600I0J150000D01*
G01*
G37*
%TD*%
%TO.C,R15*%
G36*
G01*
X177362600Y-144883850D02*
X177362600Y-144371350D01*
G75*
G02*
X177581350Y-144152600I218750J0D01*
G01*
X178018850Y-144152600D01*
G75*
G02*
X178237600Y-144371350I0J-218750D01*
G01*
X178237600Y-144883850D01*
G75*
G02*
X178018850Y-145102600I-218750J0D01*
G01*
X177581350Y-145102600D01*
G75*
G02*
X177362600Y-144883850I0J218750D01*
G01*
G37*
G36*
G01*
X175787600Y-144883850D02*
X175787600Y-144371350D01*
G75*
G02*
X176006350Y-144152600I218750J0D01*
G01*
X176443850Y-144152600D01*
G75*
G02*
X176662600Y-144371350I0J-218750D01*
G01*
X176662600Y-144883850D01*
G75*
G02*
X176443850Y-145102600I-218750J0D01*
G01*
X176006350Y-145102600D01*
G75*
G02*
X175787600Y-144883850I0J218750D01*
G01*
G37*
%TD*%
%TO.C,R14*%
G36*
G01*
X165537400Y-144015750D02*
X165537400Y-144528250D01*
G75*
G02*
X165318650Y-144747000I-218750J0D01*
G01*
X164881150Y-144747000D01*
G75*
G02*
X164662400Y-144528250I0J218750D01*
G01*
X164662400Y-144015750D01*
G75*
G02*
X164881150Y-143797000I218750J0D01*
G01*
X165318650Y-143797000D01*
G75*
G02*
X165537400Y-144015750I0J-218750D01*
G01*
G37*
G36*
G01*
X167112400Y-144015750D02*
X167112400Y-144528250D01*
G75*
G02*
X166893650Y-144747000I-218750J0D01*
G01*
X166456150Y-144747000D01*
G75*
G02*
X166237400Y-144528250I0J218750D01*
G01*
X166237400Y-144015750D01*
G75*
G02*
X166456150Y-143797000I218750J0D01*
G01*
X166893650Y-143797000D01*
G75*
G02*
X167112400Y-144015750I0J-218750D01*
G01*
G37*
%TD*%
%TO.C,R9*%
G36*
G01*
X165588200Y-145793750D02*
X165588200Y-146306250D01*
G75*
G02*
X165369450Y-146525000I-218750J0D01*
G01*
X164931950Y-146525000D01*
G75*
G02*
X164713200Y-146306250I0J218750D01*
G01*
X164713200Y-145793750D01*
G75*
G02*
X164931950Y-145575000I218750J0D01*
G01*
X165369450Y-145575000D01*
G75*
G02*
X165588200Y-145793750I0J-218750D01*
G01*
G37*
G36*
G01*
X167163200Y-145793750D02*
X167163200Y-146306250D01*
G75*
G02*
X166944450Y-146525000I-218750J0D01*
G01*
X166506950Y-146525000D01*
G75*
G02*
X166288200Y-146306250I0J218750D01*
G01*
X166288200Y-145793750D01*
G75*
G02*
X166506950Y-145575000I218750J0D01*
G01*
X166944450Y-145575000D01*
G75*
G02*
X167163200Y-145793750I0J-218750D01*
G01*
G37*
%TD*%
%TO.C,R7*%
G36*
G01*
X176662600Y-147673350D02*
X176662600Y-148185850D01*
G75*
G02*
X176443850Y-148404600I-218750J0D01*
G01*
X176006350Y-148404600D01*
G75*
G02*
X175787600Y-148185850I0J218750D01*
G01*
X175787600Y-147673350D01*
G75*
G02*
X176006350Y-147454600I218750J0D01*
G01*
X176443850Y-147454600D01*
G75*
G02*
X176662600Y-147673350I0J-218750D01*
G01*
G37*
G36*
G01*
X178237600Y-147673350D02*
X178237600Y-148185850D01*
G75*
G02*
X178018850Y-148404600I-218750J0D01*
G01*
X177581350Y-148404600D01*
G75*
G02*
X177362600Y-148185850I0J218750D01*
G01*
X177362600Y-147673350D01*
G75*
G02*
X177581350Y-147454600I218750J0D01*
G01*
X178018850Y-147454600D01*
G75*
G02*
X178237600Y-147673350I0J-218750D01*
G01*
G37*
%TD*%
%TO.C,R5*%
G36*
G01*
X174932050Y-140772400D02*
X174419550Y-140772400D01*
G75*
G02*
X174200800Y-140553650I0J218750D01*
G01*
X174200800Y-140116150D01*
G75*
G02*
X174419550Y-139897400I218750J0D01*
G01*
X174932050Y-139897400D01*
G75*
G02*
X175150800Y-140116150I0J-218750D01*
G01*
X175150800Y-140553650D01*
G75*
G02*
X174932050Y-140772400I-218750J0D01*
G01*
G37*
G36*
G01*
X174932050Y-142347400D02*
X174419550Y-142347400D01*
G75*
G02*
X174200800Y-142128650I0J218750D01*
G01*
X174200800Y-141691150D01*
G75*
G02*
X174419550Y-141472400I218750J0D01*
G01*
X174932050Y-141472400D01*
G75*
G02*
X175150800Y-141691150I0J-218750D01*
G01*
X175150800Y-142128650D01*
G75*
G02*
X174932050Y-142347400I-218750J0D01*
G01*
G37*
%TD*%
%TO.C,R4*%
G36*
G01*
X176811650Y-136886100D02*
X176299150Y-136886100D01*
G75*
G02*
X176080400Y-136667350I0J218750D01*
G01*
X176080400Y-136229850D01*
G75*
G02*
X176299150Y-136011100I218750J0D01*
G01*
X176811650Y-136011100D01*
G75*
G02*
X177030400Y-136229850I0J-218750D01*
G01*
X177030400Y-136667350D01*
G75*
G02*
X176811650Y-136886100I-218750J0D01*
G01*
G37*
G36*
G01*
X176811650Y-138461100D02*
X176299150Y-138461100D01*
G75*
G02*
X176080400Y-138242350I0J218750D01*
G01*
X176080400Y-137804850D01*
G75*
G02*
X176299150Y-137586100I218750J0D01*
G01*
X176811650Y-137586100D01*
G75*
G02*
X177030400Y-137804850I0J-218750D01*
G01*
X177030400Y-138242350D01*
G75*
G02*
X176811650Y-138461100I-218750J0D01*
G01*
G37*
%TD*%
%TO.C,D1*%
G36*
G01*
X176146750Y-141472400D02*
X176659250Y-141472400D01*
G75*
G02*
X176878000Y-141691150I0J-218750D01*
G01*
X176878000Y-142128650D01*
G75*
G02*
X176659250Y-142347400I-218750J0D01*
G01*
X176146750Y-142347400D01*
G75*
G02*
X175928000Y-142128650I0J218750D01*
G01*
X175928000Y-141691150D01*
G75*
G02*
X176146750Y-141472400I218750J0D01*
G01*
G37*
G36*
G01*
X176146750Y-139897400D02*
X176659250Y-139897400D01*
G75*
G02*
X176878000Y-140116150I0J-218750D01*
G01*
X176878000Y-140553650D01*
G75*
G02*
X176659250Y-140772400I-218750J0D01*
G01*
X176146750Y-140772400D01*
G75*
G02*
X175928000Y-140553650I0J218750D01*
G01*
X175928000Y-140116150D01*
G75*
G02*
X176146750Y-139897400I218750J0D01*
G01*
G37*
%TD*%
%TO.C,C6*%
G36*
G01*
X176688100Y-146047750D02*
X176688100Y-146560250D01*
G75*
G02*
X176469350Y-146779000I-218750J0D01*
G01*
X176031850Y-146779000D01*
G75*
G02*
X175813100Y-146560250I0J218750D01*
G01*
X175813100Y-146047750D01*
G75*
G02*
X176031850Y-145829000I218750J0D01*
G01*
X176469350Y-145829000D01*
G75*
G02*
X176688100Y-146047750I0J-218750D01*
G01*
G37*
G36*
G01*
X178263100Y-146047750D02*
X178263100Y-146560250D01*
G75*
G02*
X178044350Y-146779000I-218750J0D01*
G01*
X177606850Y-146779000D01*
G75*
G02*
X177388100Y-146560250I0J218750D01*
G01*
X177388100Y-146047750D01*
G75*
G02*
X177606850Y-145829000I218750J0D01*
G01*
X178044350Y-145829000D01*
G75*
G02*
X178263100Y-146047750I0J-218750D01*
G01*
G37*
%TD*%
%TO.C,C5*%
G36*
G01*
X166313500Y-148033450D02*
X166313500Y-147520950D01*
G75*
G02*
X166532250Y-147302200I218750J0D01*
G01*
X166969750Y-147302200D01*
G75*
G02*
X167188500Y-147520950I0J-218750D01*
G01*
X167188500Y-148033450D01*
G75*
G02*
X166969750Y-148252200I-218750J0D01*
G01*
X166532250Y-148252200D01*
G75*
G02*
X166313500Y-148033450I0J218750D01*
G01*
G37*
G36*
G01*
X164738500Y-148033450D02*
X164738500Y-147520950D01*
G75*
G02*
X164957250Y-147302200I218750J0D01*
G01*
X165394750Y-147302200D01*
G75*
G02*
X165613500Y-147520950I0J-218750D01*
G01*
X165613500Y-148033450D01*
G75*
G02*
X165394750Y-148252200I-218750J0D01*
G01*
X164957250Y-148252200D01*
G75*
G02*
X164738500Y-148033450I0J218750D01*
G01*
G37*
%TD*%
M02*
