%TF.GenerationSoftware,KiCad,Pcbnew,(5.1.6)-1*%
%TF.CreationDate,2020-11-25T11:03:50+08:00*%
%TF.ProjectId,BCG_Piezo_Integrated_V1.0,4243475f-5069-4657-9a6f-5f496e746567,rev?*%
%TF.SameCoordinates,Original*%
%TF.FileFunction,Soldermask,Top*%
%TF.FilePolarity,Negative*%
%FSLAX46Y46*%
G04 Gerber Fmt 4.6, Leading zero omitted, Abs format (unit mm)*
G04 Created by KiCad (PCBNEW (5.1.6)-1) date 2020-11-25 11:03:50*
%MOMM*%
%LPD*%
G01*
G04 APERTURE LIST*
%ADD10O,1.700000X1.700000*%
%ADD11C,1.700000*%
%ADD12R,1.160000X0.750000*%
%ADD13O,1.800000X1.800000*%
%ADD14R,1.800000X1.800000*%
G04 APERTURE END LIST*
D10*
%TO.C,R13*%
X171069000Y-130911600D03*
D11*
X171069000Y-141071600D03*
%TD*%
D12*
%TO.C,U4*%
X164685800Y-141970800D03*
X164685800Y-140070800D03*
X166885800Y-140070800D03*
X166885800Y-141020800D03*
X166885800Y-141970800D03*
%TD*%
%TO.C,U2*%
X160487000Y-147696000D03*
X160487000Y-145796000D03*
X162687000Y-145796000D03*
X162687000Y-146746000D03*
X162687000Y-147696000D03*
%TD*%
%TO.C,U1*%
X173726200Y-132958800D03*
X173726200Y-134858800D03*
X171526200Y-134858800D03*
X171526200Y-133908800D03*
X171526200Y-132958800D03*
%TD*%
%TO.C,R8*%
G36*
G01*
X165333400Y-137945550D02*
X165333400Y-138508050D01*
G75*
G02*
X165089650Y-138751800I-243750J0D01*
G01*
X164602150Y-138751800D01*
G75*
G02*
X164358400Y-138508050I0J243750D01*
G01*
X164358400Y-137945550D01*
G75*
G02*
X164602150Y-137701800I243750J0D01*
G01*
X165089650Y-137701800D01*
G75*
G02*
X165333400Y-137945550I0J-243750D01*
G01*
G37*
G36*
G01*
X166908400Y-137945550D02*
X166908400Y-138508050D01*
G75*
G02*
X166664650Y-138751800I-243750J0D01*
G01*
X166177150Y-138751800D01*
G75*
G02*
X165933400Y-138508050I0J243750D01*
G01*
X165933400Y-137945550D01*
G75*
G02*
X166177150Y-137701800I243750J0D01*
G01*
X166664650Y-137701800D01*
G75*
G02*
X166908400Y-137945550I0J-243750D01*
G01*
G37*
%TD*%
%TO.C,R3*%
G36*
G01*
X161894700Y-144400850D02*
X161894700Y-143838350D01*
G75*
G02*
X162138450Y-143594600I243750J0D01*
G01*
X162625950Y-143594600D01*
G75*
G02*
X162869700Y-143838350I0J-243750D01*
G01*
X162869700Y-144400850D01*
G75*
G02*
X162625950Y-144644600I-243750J0D01*
G01*
X162138450Y-144644600D01*
G75*
G02*
X161894700Y-144400850I0J243750D01*
G01*
G37*
G36*
G01*
X160319700Y-144400850D02*
X160319700Y-143838350D01*
G75*
G02*
X160563450Y-143594600I243750J0D01*
G01*
X161050950Y-143594600D01*
G75*
G02*
X161294700Y-143838350I0J-243750D01*
G01*
X161294700Y-144400850D01*
G75*
G02*
X161050950Y-144644600I-243750J0D01*
G01*
X160563450Y-144644600D01*
G75*
G02*
X160319700Y-144400850I0J243750D01*
G01*
G37*
%TD*%
D13*
%TO.C,J3*%
X161315400Y-138734800D03*
D14*
X161315400Y-141274800D03*
%TD*%
D13*
%TO.C,J1*%
X161315400Y-132232400D03*
D14*
X161315400Y-134772400D03*
%TD*%
%TO.C,F1*%
G36*
G01*
X164857600Y-132441000D02*
X164857600Y-133751000D01*
G75*
G02*
X164587600Y-134021000I-270000J0D01*
G01*
X163777600Y-134021000D01*
G75*
G02*
X163507600Y-133751000I0J270000D01*
G01*
X163507600Y-132441000D01*
G75*
G02*
X163777600Y-132171000I270000J0D01*
G01*
X164587600Y-132171000D01*
G75*
G02*
X164857600Y-132441000I0J-270000D01*
G01*
G37*
G36*
G01*
X167657600Y-132441000D02*
X167657600Y-133751000D01*
G75*
G02*
X167387600Y-134021000I-270000J0D01*
G01*
X166577600Y-134021000D01*
G75*
G02*
X166307600Y-133751000I0J270000D01*
G01*
X166307600Y-132441000D01*
G75*
G02*
X166577600Y-132171000I270000J0D01*
G01*
X167387600Y-132171000D01*
G75*
G02*
X167657600Y-132441000I0J-270000D01*
G01*
G37*
%TD*%
%TO.C,C7*%
G36*
G01*
X168962650Y-140873200D02*
X168400150Y-140873200D01*
G75*
G02*
X168156400Y-140629450I0J243750D01*
G01*
X168156400Y-140141950D01*
G75*
G02*
X168400150Y-139898200I243750J0D01*
G01*
X168962650Y-139898200D01*
G75*
G02*
X169206400Y-140141950I0J-243750D01*
G01*
X169206400Y-140629450D01*
G75*
G02*
X168962650Y-140873200I-243750J0D01*
G01*
G37*
G36*
G01*
X168962650Y-142448200D02*
X168400150Y-142448200D01*
G75*
G02*
X168156400Y-142204450I0J243750D01*
G01*
X168156400Y-141716950D01*
G75*
G02*
X168400150Y-141473200I243750J0D01*
G01*
X168962650Y-141473200D01*
G75*
G02*
X169206400Y-141716950I0J-243750D01*
G01*
X169206400Y-142204450D01*
G75*
G02*
X168962650Y-142448200I-243750J0D01*
G01*
G37*
%TD*%
%TO.C,C4*%
G36*
G01*
X175668250Y-133558000D02*
X175105750Y-133558000D01*
G75*
G02*
X174862000Y-133314250I0J243750D01*
G01*
X174862000Y-132826750D01*
G75*
G02*
X175105750Y-132583000I243750J0D01*
G01*
X175668250Y-132583000D01*
G75*
G02*
X175912000Y-132826750I0J-243750D01*
G01*
X175912000Y-133314250D01*
G75*
G02*
X175668250Y-133558000I-243750J0D01*
G01*
G37*
G36*
G01*
X175668250Y-135133000D02*
X175105750Y-135133000D01*
G75*
G02*
X174862000Y-134889250I0J243750D01*
G01*
X174862000Y-134401750D01*
G75*
G02*
X175105750Y-134158000I243750J0D01*
G01*
X175668250Y-134158000D01*
G75*
G02*
X175912000Y-134401750I0J-243750D01*
G01*
X175912000Y-134889250D01*
G75*
G02*
X175668250Y-135133000I-243750J0D01*
G01*
G37*
%TD*%
%TO.C,C3*%
G36*
G01*
X174597750Y-137536100D02*
X175160250Y-137536100D01*
G75*
G02*
X175404000Y-137779850I0J-243750D01*
G01*
X175404000Y-138267350D01*
G75*
G02*
X175160250Y-138511100I-243750J0D01*
G01*
X174597750Y-138511100D01*
G75*
G02*
X174354000Y-138267350I0J243750D01*
G01*
X174354000Y-137779850D01*
G75*
G02*
X174597750Y-137536100I243750J0D01*
G01*
G37*
G36*
G01*
X174597750Y-135961100D02*
X175160250Y-135961100D01*
G75*
G02*
X175404000Y-136204850I0J-243750D01*
G01*
X175404000Y-136692350D01*
G75*
G02*
X175160250Y-136936100I-243750J0D01*
G01*
X174597750Y-136936100D01*
G75*
G02*
X174354000Y-136692350I0J243750D01*
G01*
X174354000Y-136204850D01*
G75*
G02*
X174597750Y-135961100I243750J0D01*
G01*
G37*
%TD*%
%TO.C,C2*%
G36*
G01*
X168501750Y-134107200D02*
X169064250Y-134107200D01*
G75*
G02*
X169308000Y-134350950I0J-243750D01*
G01*
X169308000Y-134838450D01*
G75*
G02*
X169064250Y-135082200I-243750J0D01*
G01*
X168501750Y-135082200D01*
G75*
G02*
X168258000Y-134838450I0J243750D01*
G01*
X168258000Y-134350950D01*
G75*
G02*
X168501750Y-134107200I243750J0D01*
G01*
G37*
G36*
G01*
X168501750Y-132532200D02*
X169064250Y-132532200D01*
G75*
G02*
X169308000Y-132775950I0J-243750D01*
G01*
X169308000Y-133263450D01*
G75*
G02*
X169064250Y-133507200I-243750J0D01*
G01*
X168501750Y-133507200D01*
G75*
G02*
X168258000Y-133263450I0J243750D01*
G01*
X168258000Y-132775950D01*
G75*
G02*
X168501750Y-132532200I243750J0D01*
G01*
G37*
%TD*%
%TO.C,C1*%
G36*
G01*
X165308100Y-135811950D02*
X165308100Y-136374450D01*
G75*
G02*
X165064350Y-136618200I-243750J0D01*
G01*
X164576850Y-136618200D01*
G75*
G02*
X164333100Y-136374450I0J243750D01*
G01*
X164333100Y-135811950D01*
G75*
G02*
X164576850Y-135568200I243750J0D01*
G01*
X165064350Y-135568200D01*
G75*
G02*
X165308100Y-135811950I0J-243750D01*
G01*
G37*
G36*
G01*
X166883100Y-135811950D02*
X166883100Y-136374450D01*
G75*
G02*
X166639350Y-136618200I-243750J0D01*
G01*
X166151850Y-136618200D01*
G75*
G02*
X165908100Y-136374450I0J243750D01*
G01*
X165908100Y-135811950D01*
G75*
G02*
X166151850Y-135568200I243750J0D01*
G01*
X166639350Y-135568200D01*
G75*
G02*
X166883100Y-135811950I0J-243750D01*
G01*
G37*
%TD*%
%TO.C,U3*%
G36*
G01*
X173225400Y-144167600D02*
X173225400Y-143817600D01*
G75*
G02*
X173400400Y-143642600I175000J0D01*
G01*
X174800400Y-143642600D01*
G75*
G02*
X174975400Y-143817600I0J-175000D01*
G01*
X174975400Y-144167600D01*
G75*
G02*
X174800400Y-144342600I-175000J0D01*
G01*
X173400400Y-144342600D01*
G75*
G02*
X173225400Y-144167600I0J175000D01*
G01*
G37*
G36*
G01*
X173225400Y-145437600D02*
X173225400Y-145087600D01*
G75*
G02*
X173400400Y-144912600I175000J0D01*
G01*
X174800400Y-144912600D01*
G75*
G02*
X174975400Y-145087600I0J-175000D01*
G01*
X174975400Y-145437600D01*
G75*
G02*
X174800400Y-145612600I-175000J0D01*
G01*
X173400400Y-145612600D01*
G75*
G02*
X173225400Y-145437600I0J175000D01*
G01*
G37*
G36*
G01*
X173225400Y-146707600D02*
X173225400Y-146357600D01*
G75*
G02*
X173400400Y-146182600I175000J0D01*
G01*
X174800400Y-146182600D01*
G75*
G02*
X174975400Y-146357600I0J-175000D01*
G01*
X174975400Y-146707600D01*
G75*
G02*
X174800400Y-146882600I-175000J0D01*
G01*
X173400400Y-146882600D01*
G75*
G02*
X173225400Y-146707600I0J175000D01*
G01*
G37*
G36*
G01*
X173225400Y-147977600D02*
X173225400Y-147627600D01*
G75*
G02*
X173400400Y-147452600I175000J0D01*
G01*
X174800400Y-147452600D01*
G75*
G02*
X174975400Y-147627600I0J-175000D01*
G01*
X174975400Y-147977600D01*
G75*
G02*
X174800400Y-148152600I-175000J0D01*
G01*
X173400400Y-148152600D01*
G75*
G02*
X173225400Y-147977600I0J175000D01*
G01*
G37*
G36*
G01*
X167975400Y-147977600D02*
X167975400Y-147627600D01*
G75*
G02*
X168150400Y-147452600I175000J0D01*
G01*
X169550400Y-147452600D01*
G75*
G02*
X169725400Y-147627600I0J-175000D01*
G01*
X169725400Y-147977600D01*
G75*
G02*
X169550400Y-148152600I-175000J0D01*
G01*
X168150400Y-148152600D01*
G75*
G02*
X167975400Y-147977600I0J175000D01*
G01*
G37*
G36*
G01*
X167975400Y-146707600D02*
X167975400Y-146357600D01*
G75*
G02*
X168150400Y-146182600I175000J0D01*
G01*
X169550400Y-146182600D01*
G75*
G02*
X169725400Y-146357600I0J-175000D01*
G01*
X169725400Y-146707600D01*
G75*
G02*
X169550400Y-146882600I-175000J0D01*
G01*
X168150400Y-146882600D01*
G75*
G02*
X167975400Y-146707600I0J175000D01*
G01*
G37*
G36*
G01*
X167975400Y-145437600D02*
X167975400Y-145087600D01*
G75*
G02*
X168150400Y-144912600I175000J0D01*
G01*
X169550400Y-144912600D01*
G75*
G02*
X169725400Y-145087600I0J-175000D01*
G01*
X169725400Y-145437600D01*
G75*
G02*
X169550400Y-145612600I-175000J0D01*
G01*
X168150400Y-145612600D01*
G75*
G02*
X167975400Y-145437600I0J175000D01*
G01*
G37*
G36*
G01*
X167975400Y-144167600D02*
X167975400Y-143817600D01*
G75*
G02*
X168150400Y-143642600I175000J0D01*
G01*
X169550400Y-143642600D01*
G75*
G02*
X169725400Y-143817600I0J-175000D01*
G01*
X169725400Y-144167600D01*
G75*
G02*
X169550400Y-144342600I-175000J0D01*
G01*
X168150400Y-144342600D01*
G75*
G02*
X167975400Y-144167600I0J175000D01*
G01*
G37*
%TD*%
%TO.C,R15*%
G36*
G01*
X177312600Y-144908850D02*
X177312600Y-144346350D01*
G75*
G02*
X177556350Y-144102600I243750J0D01*
G01*
X178043850Y-144102600D01*
G75*
G02*
X178287600Y-144346350I0J-243750D01*
G01*
X178287600Y-144908850D01*
G75*
G02*
X178043850Y-145152600I-243750J0D01*
G01*
X177556350Y-145152600D01*
G75*
G02*
X177312600Y-144908850I0J243750D01*
G01*
G37*
G36*
G01*
X175737600Y-144908850D02*
X175737600Y-144346350D01*
G75*
G02*
X175981350Y-144102600I243750J0D01*
G01*
X176468850Y-144102600D01*
G75*
G02*
X176712600Y-144346350I0J-243750D01*
G01*
X176712600Y-144908850D01*
G75*
G02*
X176468850Y-145152600I-243750J0D01*
G01*
X175981350Y-145152600D01*
G75*
G02*
X175737600Y-144908850I0J243750D01*
G01*
G37*
%TD*%
%TO.C,R14*%
G36*
G01*
X165587400Y-143990750D02*
X165587400Y-144553250D01*
G75*
G02*
X165343650Y-144797000I-243750J0D01*
G01*
X164856150Y-144797000D01*
G75*
G02*
X164612400Y-144553250I0J243750D01*
G01*
X164612400Y-143990750D01*
G75*
G02*
X164856150Y-143747000I243750J0D01*
G01*
X165343650Y-143747000D01*
G75*
G02*
X165587400Y-143990750I0J-243750D01*
G01*
G37*
G36*
G01*
X167162400Y-143990750D02*
X167162400Y-144553250D01*
G75*
G02*
X166918650Y-144797000I-243750J0D01*
G01*
X166431150Y-144797000D01*
G75*
G02*
X166187400Y-144553250I0J243750D01*
G01*
X166187400Y-143990750D01*
G75*
G02*
X166431150Y-143747000I243750J0D01*
G01*
X166918650Y-143747000D01*
G75*
G02*
X167162400Y-143990750I0J-243750D01*
G01*
G37*
%TD*%
%TO.C,R9*%
G36*
G01*
X165638200Y-145768750D02*
X165638200Y-146331250D01*
G75*
G02*
X165394450Y-146575000I-243750J0D01*
G01*
X164906950Y-146575000D01*
G75*
G02*
X164663200Y-146331250I0J243750D01*
G01*
X164663200Y-145768750D01*
G75*
G02*
X164906950Y-145525000I243750J0D01*
G01*
X165394450Y-145525000D01*
G75*
G02*
X165638200Y-145768750I0J-243750D01*
G01*
G37*
G36*
G01*
X167213200Y-145768750D02*
X167213200Y-146331250D01*
G75*
G02*
X166969450Y-146575000I-243750J0D01*
G01*
X166481950Y-146575000D01*
G75*
G02*
X166238200Y-146331250I0J243750D01*
G01*
X166238200Y-145768750D01*
G75*
G02*
X166481950Y-145525000I243750J0D01*
G01*
X166969450Y-145525000D01*
G75*
G02*
X167213200Y-145768750I0J-243750D01*
G01*
G37*
%TD*%
%TO.C,R7*%
G36*
G01*
X176712600Y-147648350D02*
X176712600Y-148210850D01*
G75*
G02*
X176468850Y-148454600I-243750J0D01*
G01*
X175981350Y-148454600D01*
G75*
G02*
X175737600Y-148210850I0J243750D01*
G01*
X175737600Y-147648350D01*
G75*
G02*
X175981350Y-147404600I243750J0D01*
G01*
X176468850Y-147404600D01*
G75*
G02*
X176712600Y-147648350I0J-243750D01*
G01*
G37*
G36*
G01*
X178287600Y-147648350D02*
X178287600Y-148210850D01*
G75*
G02*
X178043850Y-148454600I-243750J0D01*
G01*
X177556350Y-148454600D01*
G75*
G02*
X177312600Y-148210850I0J243750D01*
G01*
X177312600Y-147648350D01*
G75*
G02*
X177556350Y-147404600I243750J0D01*
G01*
X178043850Y-147404600D01*
G75*
G02*
X178287600Y-147648350I0J-243750D01*
G01*
G37*
%TD*%
%TO.C,R5*%
G36*
G01*
X174957050Y-140822400D02*
X174394550Y-140822400D01*
G75*
G02*
X174150800Y-140578650I0J243750D01*
G01*
X174150800Y-140091150D01*
G75*
G02*
X174394550Y-139847400I243750J0D01*
G01*
X174957050Y-139847400D01*
G75*
G02*
X175200800Y-140091150I0J-243750D01*
G01*
X175200800Y-140578650D01*
G75*
G02*
X174957050Y-140822400I-243750J0D01*
G01*
G37*
G36*
G01*
X174957050Y-142397400D02*
X174394550Y-142397400D01*
G75*
G02*
X174150800Y-142153650I0J243750D01*
G01*
X174150800Y-141666150D01*
G75*
G02*
X174394550Y-141422400I243750J0D01*
G01*
X174957050Y-141422400D01*
G75*
G02*
X175200800Y-141666150I0J-243750D01*
G01*
X175200800Y-142153650D01*
G75*
G02*
X174957050Y-142397400I-243750J0D01*
G01*
G37*
%TD*%
%TO.C,R4*%
G36*
G01*
X176836650Y-136936100D02*
X176274150Y-136936100D01*
G75*
G02*
X176030400Y-136692350I0J243750D01*
G01*
X176030400Y-136204850D01*
G75*
G02*
X176274150Y-135961100I243750J0D01*
G01*
X176836650Y-135961100D01*
G75*
G02*
X177080400Y-136204850I0J-243750D01*
G01*
X177080400Y-136692350D01*
G75*
G02*
X176836650Y-136936100I-243750J0D01*
G01*
G37*
G36*
G01*
X176836650Y-138511100D02*
X176274150Y-138511100D01*
G75*
G02*
X176030400Y-138267350I0J243750D01*
G01*
X176030400Y-137779850D01*
G75*
G02*
X176274150Y-137536100I243750J0D01*
G01*
X176836650Y-137536100D01*
G75*
G02*
X177080400Y-137779850I0J-243750D01*
G01*
X177080400Y-138267350D01*
G75*
G02*
X176836650Y-138511100I-243750J0D01*
G01*
G37*
%TD*%
D13*
%TO.C,J4*%
X167970200Y-151079200D03*
X170510200Y-151079200D03*
X173050200Y-151079200D03*
D14*
X175590200Y-151079200D03*
%TD*%
D13*
%TO.C,J2*%
X169697400Y-137617200D03*
D14*
X172237400Y-137617200D03*
%TD*%
%TO.C,D1*%
G36*
G01*
X176121750Y-141422400D02*
X176684250Y-141422400D01*
G75*
G02*
X176928000Y-141666150I0J-243750D01*
G01*
X176928000Y-142153650D01*
G75*
G02*
X176684250Y-142397400I-243750J0D01*
G01*
X176121750Y-142397400D01*
G75*
G02*
X175878000Y-142153650I0J243750D01*
G01*
X175878000Y-141666150D01*
G75*
G02*
X176121750Y-141422400I243750J0D01*
G01*
G37*
G36*
G01*
X176121750Y-139847400D02*
X176684250Y-139847400D01*
G75*
G02*
X176928000Y-140091150I0J-243750D01*
G01*
X176928000Y-140578650D01*
G75*
G02*
X176684250Y-140822400I-243750J0D01*
G01*
X176121750Y-140822400D01*
G75*
G02*
X175878000Y-140578650I0J243750D01*
G01*
X175878000Y-140091150D01*
G75*
G02*
X176121750Y-139847400I243750J0D01*
G01*
G37*
%TD*%
%TO.C,C6*%
G36*
G01*
X176738100Y-146022750D02*
X176738100Y-146585250D01*
G75*
G02*
X176494350Y-146829000I-243750J0D01*
G01*
X176006850Y-146829000D01*
G75*
G02*
X175763100Y-146585250I0J243750D01*
G01*
X175763100Y-146022750D01*
G75*
G02*
X176006850Y-145779000I243750J0D01*
G01*
X176494350Y-145779000D01*
G75*
G02*
X176738100Y-146022750I0J-243750D01*
G01*
G37*
G36*
G01*
X178313100Y-146022750D02*
X178313100Y-146585250D01*
G75*
G02*
X178069350Y-146829000I-243750J0D01*
G01*
X177581850Y-146829000D01*
G75*
G02*
X177338100Y-146585250I0J243750D01*
G01*
X177338100Y-146022750D01*
G75*
G02*
X177581850Y-145779000I243750J0D01*
G01*
X178069350Y-145779000D01*
G75*
G02*
X178313100Y-146022750I0J-243750D01*
G01*
G37*
%TD*%
%TO.C,C5*%
G36*
G01*
X166263500Y-148058450D02*
X166263500Y-147495950D01*
G75*
G02*
X166507250Y-147252200I243750J0D01*
G01*
X166994750Y-147252200D01*
G75*
G02*
X167238500Y-147495950I0J-243750D01*
G01*
X167238500Y-148058450D01*
G75*
G02*
X166994750Y-148302200I-243750J0D01*
G01*
X166507250Y-148302200D01*
G75*
G02*
X166263500Y-148058450I0J243750D01*
G01*
G37*
G36*
G01*
X164688500Y-148058450D02*
X164688500Y-147495950D01*
G75*
G02*
X164932250Y-147252200I243750J0D01*
G01*
X165419750Y-147252200D01*
G75*
G02*
X165663500Y-147495950I0J-243750D01*
G01*
X165663500Y-148058450D01*
G75*
G02*
X165419750Y-148302200I-243750J0D01*
G01*
X164932250Y-148302200D01*
G75*
G02*
X164688500Y-148058450I0J243750D01*
G01*
G37*
%TD*%
M02*
