M48
INCH,TZ
T1C0.0080
T2C0.0120
T3C0.0157
T4C0.0394
T5C0.1299
%
G90
G05
T1
X49280Y-43100
X49400Y-42320
X50120Y-38980
X52140Y-40700
X52160Y-40340
X52412Y-41072
X52819Y-41379
X52940Y-41660
X52940Y-42180
X53160Y-39700
X53180Y-41980
X53360Y-42120
X53580Y-38640
X53640Y-42120
X53900Y-43220
X53920Y-42020
X54140Y-40900
X54398Y-40862
X54800Y-39800
X55100Y-40820
X55260Y-42160
X55300Y-41940
X55480Y-44500
X55520Y-37180
X55520Y-43540
X55740Y-41940
X55740Y-44780
X56040Y-43600
X56080Y-36540
X56160Y-41840
X56510Y-38600
X56520Y-41940
X57100Y-37496
X57160Y-39000
X57360Y-43520
X58080Y-41680
X58100Y-38380
T2
X53380Y-40080
X53980Y-39020
X54680Y-42100
X54989Y-41980
X55383Y-38997
X56300Y-41180
X56520Y-40800
T3
X47900Y-35980
X48140Y-35280
X49220Y-36880
X49860Y-37200
X50200Y-46600
X50620Y-36640
X51100Y-47240
X53400Y-46040
X53940Y-46000
X55040Y-35640
X55340Y-36320
X55640Y-47240
X57080Y-47360
X57140Y-46360
X58320Y-43460
X59260Y-45160
T4
X53340Y-47380
X59520Y-43180
X54400Y-46680
X55266Y-46180
X56132Y-45680
X56998Y-45180
X57864Y-44680
X58730Y-44180
X52940Y-44980
X53940Y-44980
X48284Y-43812
X49103Y-44386
X49923Y-44959
X50742Y-45533
X51561Y-46106
X52380Y-46680
X55880Y-35520
X56880Y-35520
X57880Y-35520
X58880Y-35520
X48260Y-37100
X48260Y-38100
X48260Y-39100
X48260Y-40100
X48260Y-41100
X48260Y-42100
X59040Y-37040
X59040Y-38040
X59040Y-39040
X59040Y-40040
X59040Y-41040
X59040Y-42040
X49060Y-35540
X50060Y-35540
X51060Y-35540
X52060Y-35540
X53060Y-35540
X54060Y-35540
T5
X48620Y-46700
X58760Y-46700
T0
M30
