%TF.GenerationSoftware,KiCad,Pcbnew,(5.1.6)-1*%
%TF.CreationDate,2020-11-24T16:57:48+08:00*%
%TF.ProjectId,BCG_mini_c8t6,4243475f-6d69-46e6-995f-633874362e6b,rev?*%
%TF.SameCoordinates,Original*%
%TF.FileFunction,Copper,L1,Top*%
%TF.FilePolarity,Positive*%
%FSLAX46Y46*%
G04 Gerber Fmt 4.6, Leading zero omitted, Abs format (unit mm)*
G04 Created by KiCad (PCBNEW (5.1.6)-1) date 2020-11-24 16:57:48*
%MOMM*%
%LPD*%
G01*
G04 APERTURE LIST*
%TA.AperFunction,ComponentPad*%
%ADD10O,1.700000X1.700000*%
%TD*%
%TA.AperFunction,ComponentPad*%
%ADD11R,1.700000X1.700000*%
%TD*%
%TA.AperFunction,ComponentPad*%
%ADD12C,0.100000*%
%TD*%
%TA.AperFunction,SMDPad,CuDef*%
%ADD13R,2.000000X1.600000*%
%TD*%
%TA.AperFunction,SMDPad,CuDef*%
%ADD14R,0.650000X1.060000*%
%TD*%
%TA.AperFunction,SMDPad,CuDef*%
%ADD15R,2.400000X2.000000*%
%TD*%
%TA.AperFunction,ViaPad*%
%ADD16C,4.300000*%
%TD*%
%TA.AperFunction,ViaPad*%
%ADD17C,1.700000*%
%TD*%
%TA.AperFunction,ViaPad*%
%ADD18C,0.381000*%
%TD*%
%TA.AperFunction,ViaPad*%
%ADD19C,0.800000*%
%TD*%
%TA.AperFunction,ViaPad*%
%ADD20C,0.508000*%
%TD*%
%TA.AperFunction,Conductor*%
%ADD21C,0.254000*%
%TD*%
%TA.AperFunction,Conductor*%
%ADD22C,0.381000*%
%TD*%
%TA.AperFunction,Conductor*%
%ADD23C,0.203200*%
%TD*%
G04 APERTURE END LIST*
D10*
%TO.P,J5,6*%
%TO.N,/PB14*%
X149961600Y-106781600D03*
%TO.P,J5,5*%
%TO.N,/PB15*%
X149961600Y-104241600D03*
%TO.P,J5,4*%
%TO.N,/PA8*%
X149961600Y-101701600D03*
%TO.P,J5,3*%
%TO.N,/PA9*%
X149961600Y-99161600D03*
%TO.P,J5,2*%
%TO.N,/PA10*%
X149961600Y-96621600D03*
D11*
%TO.P,J5,1*%
%TO.N,/PA11*%
X149961600Y-94081600D03*
%TD*%
%TO.P,C3,2*%
%TO.N,GND*%
%TA.AperFunction,SMDPad,CuDef*%
G36*
G01*
X127564400Y-110640150D02*
X127564400Y-111152650D01*
G75*
G02*
X127345650Y-111371400I-218750J0D01*
G01*
X126908150Y-111371400D01*
G75*
G02*
X126689400Y-111152650I0J218750D01*
G01*
X126689400Y-110640150D01*
G75*
G02*
X126908150Y-110421400I218750J0D01*
G01*
X127345650Y-110421400D01*
G75*
G02*
X127564400Y-110640150I0J-218750D01*
G01*
G37*
%TD.AperFunction*%
%TO.P,C3,1*%
%TO.N,/NRST*%
%TA.AperFunction,SMDPad,CuDef*%
G36*
G01*
X129139400Y-110640150D02*
X129139400Y-111152650D01*
G75*
G02*
X128920650Y-111371400I-218750J0D01*
G01*
X128483150Y-111371400D01*
G75*
G02*
X128264400Y-111152650I0J218750D01*
G01*
X128264400Y-110640150D01*
G75*
G02*
X128483150Y-110421400I218750J0D01*
G01*
X128920650Y-110421400D01*
G75*
G02*
X129139400Y-110640150I0J-218750D01*
G01*
G37*
%TD.AperFunction*%
%TD*%
%TO.P,C4,1*%
%TO.N,GND*%
%TA.AperFunction,SMDPad,CuDef*%
G36*
G01*
X140417000Y-107744550D02*
X140417000Y-108257050D01*
G75*
G02*
X140198250Y-108475800I-218750J0D01*
G01*
X139760750Y-108475800D01*
G75*
G02*
X139542000Y-108257050I0J218750D01*
G01*
X139542000Y-107744550D01*
G75*
G02*
X139760750Y-107525800I218750J0D01*
G01*
X140198250Y-107525800D01*
G75*
G02*
X140417000Y-107744550I0J-218750D01*
G01*
G37*
%TD.AperFunction*%
%TO.P,C4,2*%
%TO.N,+3V3*%
%TA.AperFunction,SMDPad,CuDef*%
G36*
G01*
X138842000Y-107744550D02*
X138842000Y-108257050D01*
G75*
G02*
X138623250Y-108475800I-218750J0D01*
G01*
X138185750Y-108475800D01*
G75*
G02*
X137967000Y-108257050I0J218750D01*
G01*
X137967000Y-107744550D01*
G75*
G02*
X138185750Y-107525800I218750J0D01*
G01*
X138623250Y-107525800D01*
G75*
G02*
X138842000Y-107744550I0J-218750D01*
G01*
G37*
%TD.AperFunction*%
%TD*%
%TO.P,C5,2*%
%TO.N,GND*%
%TA.AperFunction,SMDPad,CuDef*%
G36*
G01*
X126494250Y-99522800D02*
X125981750Y-99522800D01*
G75*
G02*
X125763000Y-99304050I0J218750D01*
G01*
X125763000Y-98866550D01*
G75*
G02*
X125981750Y-98647800I218750J0D01*
G01*
X126494250Y-98647800D01*
G75*
G02*
X126713000Y-98866550I0J-218750D01*
G01*
X126713000Y-99304050D01*
G75*
G02*
X126494250Y-99522800I-218750J0D01*
G01*
G37*
%TD.AperFunction*%
%TO.P,C5,1*%
%TO.N,Net-(C5-Pad1)*%
%TA.AperFunction,SMDPad,CuDef*%
G36*
G01*
X126494250Y-101097800D02*
X125981750Y-101097800D01*
G75*
G02*
X125763000Y-100879050I0J218750D01*
G01*
X125763000Y-100441550D01*
G75*
G02*
X125981750Y-100222800I218750J0D01*
G01*
X126494250Y-100222800D01*
G75*
G02*
X126713000Y-100441550I0J-218750D01*
G01*
X126713000Y-100879050D01*
G75*
G02*
X126494250Y-101097800I-218750J0D01*
G01*
G37*
%TD.AperFunction*%
%TD*%
%TO.P,C6,1*%
%TO.N,Net-(C6-Pad1)*%
%TA.AperFunction,SMDPad,CuDef*%
G36*
G01*
X125981750Y-102153000D02*
X126494250Y-102153000D01*
G75*
G02*
X126713000Y-102371750I0J-218750D01*
G01*
X126713000Y-102809250D01*
G75*
G02*
X126494250Y-103028000I-218750J0D01*
G01*
X125981750Y-103028000D01*
G75*
G02*
X125763000Y-102809250I0J218750D01*
G01*
X125763000Y-102371750D01*
G75*
G02*
X125981750Y-102153000I218750J0D01*
G01*
G37*
%TD.AperFunction*%
%TO.P,C6,2*%
%TO.N,GND*%
%TA.AperFunction,SMDPad,CuDef*%
G36*
G01*
X125981750Y-103728000D02*
X126494250Y-103728000D01*
G75*
G02*
X126713000Y-103946750I0J-218750D01*
G01*
X126713000Y-104384250D01*
G75*
G02*
X126494250Y-104603000I-218750J0D01*
G01*
X125981750Y-104603000D01*
G75*
G02*
X125763000Y-104384250I0J218750D01*
G01*
X125763000Y-103946750D01*
G75*
G02*
X125981750Y-103728000I218750J0D01*
G01*
G37*
%TD.AperFunction*%
%TD*%
%TO.P,C7,1*%
%TO.N,GND*%
%TA.AperFunction,SMDPad,CuDef*%
G36*
G01*
X139799350Y-109620600D02*
X140311850Y-109620600D01*
G75*
G02*
X140530600Y-109839350I0J-218750D01*
G01*
X140530600Y-110276850D01*
G75*
G02*
X140311850Y-110495600I-218750J0D01*
G01*
X139799350Y-110495600D01*
G75*
G02*
X139580600Y-110276850I0J218750D01*
G01*
X139580600Y-109839350D01*
G75*
G02*
X139799350Y-109620600I218750J0D01*
G01*
G37*
%TD.AperFunction*%
%TO.P,C7,2*%
%TO.N,+BATT*%
%TA.AperFunction,SMDPad,CuDef*%
G36*
G01*
X139799350Y-111195600D02*
X140311850Y-111195600D01*
G75*
G02*
X140530600Y-111414350I0J-218750D01*
G01*
X140530600Y-111851850D01*
G75*
G02*
X140311850Y-112070600I-218750J0D01*
G01*
X139799350Y-112070600D01*
G75*
G02*
X139580600Y-111851850I0J218750D01*
G01*
X139580600Y-111414350D01*
G75*
G02*
X139799350Y-111195600I218750J0D01*
G01*
G37*
%TD.AperFunction*%
%TD*%
%TO.P,C8,2*%
%TO.N,+BATT*%
%TA.AperFunction,SMDPad,CuDef*%
G36*
G01*
X138072150Y-111195600D02*
X138584650Y-111195600D01*
G75*
G02*
X138803400Y-111414350I0J-218750D01*
G01*
X138803400Y-111851850D01*
G75*
G02*
X138584650Y-112070600I-218750J0D01*
G01*
X138072150Y-112070600D01*
G75*
G02*
X137853400Y-111851850I0J218750D01*
G01*
X137853400Y-111414350D01*
G75*
G02*
X138072150Y-111195600I218750J0D01*
G01*
G37*
%TD.AperFunction*%
%TO.P,C8,1*%
%TO.N,GND*%
%TA.AperFunction,SMDPad,CuDef*%
G36*
G01*
X138072150Y-109620600D02*
X138584650Y-109620600D01*
G75*
G02*
X138803400Y-109839350I0J-218750D01*
G01*
X138803400Y-110276850D01*
G75*
G02*
X138584650Y-110495600I-218750J0D01*
G01*
X138072150Y-110495600D01*
G75*
G02*
X137853400Y-110276850I0J218750D01*
G01*
X137853400Y-109839350D01*
G75*
G02*
X138072150Y-109620600I218750J0D01*
G01*
G37*
%TD.AperFunction*%
%TD*%
%TO.P,C9,2*%
%TO.N,+3V3*%
%TA.AperFunction,SMDPad,CuDef*%
G36*
G01*
X142996400Y-107952250D02*
X142996400Y-107439750D01*
G75*
G02*
X143215150Y-107221000I218750J0D01*
G01*
X143652650Y-107221000D01*
G75*
G02*
X143871400Y-107439750I0J-218750D01*
G01*
X143871400Y-107952250D01*
G75*
G02*
X143652650Y-108171000I-218750J0D01*
G01*
X143215150Y-108171000D01*
G75*
G02*
X142996400Y-107952250I0J218750D01*
G01*
G37*
%TD.AperFunction*%
%TO.P,C9,1*%
%TO.N,GND*%
%TA.AperFunction,SMDPad,CuDef*%
G36*
G01*
X141421400Y-107952250D02*
X141421400Y-107439750D01*
G75*
G02*
X141640150Y-107221000I218750J0D01*
G01*
X142077650Y-107221000D01*
G75*
G02*
X142296400Y-107439750I0J-218750D01*
G01*
X142296400Y-107952250D01*
G75*
G02*
X142077650Y-108171000I-218750J0D01*
G01*
X141640150Y-108171000D01*
G75*
G02*
X141421400Y-107952250I0J218750D01*
G01*
G37*
%TD.AperFunction*%
%TD*%
%TO.P,C10,1*%
%TO.N,GND*%
%TA.AperFunction,SMDPad,CuDef*%
G36*
G01*
X145950650Y-109784600D02*
X145438150Y-109784600D01*
G75*
G02*
X145219400Y-109565850I0J218750D01*
G01*
X145219400Y-109128350D01*
G75*
G02*
X145438150Y-108909600I218750J0D01*
G01*
X145950650Y-108909600D01*
G75*
G02*
X146169400Y-109128350I0J-218750D01*
G01*
X146169400Y-109565850D01*
G75*
G02*
X145950650Y-109784600I-218750J0D01*
G01*
G37*
%TD.AperFunction*%
%TO.P,C10,2*%
%TO.N,+3V3*%
%TA.AperFunction,SMDPad,CuDef*%
G36*
G01*
X145950650Y-108209600D02*
X145438150Y-108209600D01*
G75*
G02*
X145219400Y-107990850I0J218750D01*
G01*
X145219400Y-107553350D01*
G75*
G02*
X145438150Y-107334600I218750J0D01*
G01*
X145950650Y-107334600D01*
G75*
G02*
X146169400Y-107553350I0J-218750D01*
G01*
X146169400Y-107990850D01*
G75*
G02*
X145950650Y-108209600I-218750J0D01*
G01*
G37*
%TD.AperFunction*%
%TD*%
%TO.P,D1,1*%
%TO.N,GND*%
%TA.AperFunction,SMDPad,CuDef*%
G36*
G01*
X146611050Y-105873000D02*
X146098550Y-105873000D01*
G75*
G02*
X145879800Y-105654250I0J218750D01*
G01*
X145879800Y-105216750D01*
G75*
G02*
X146098550Y-104998000I218750J0D01*
G01*
X146611050Y-104998000D01*
G75*
G02*
X146829800Y-105216750I0J-218750D01*
G01*
X146829800Y-105654250D01*
G75*
G02*
X146611050Y-105873000I-218750J0D01*
G01*
G37*
%TD.AperFunction*%
%TO.P,D1,2*%
%TO.N,Net-(D1-Pad2)*%
%TA.AperFunction,SMDPad,CuDef*%
G36*
G01*
X146611050Y-104298000D02*
X146098550Y-104298000D01*
G75*
G02*
X145879800Y-104079250I0J218750D01*
G01*
X145879800Y-103641750D01*
G75*
G02*
X146098550Y-103423000I218750J0D01*
G01*
X146611050Y-103423000D01*
G75*
G02*
X146829800Y-103641750I0J-218750D01*
G01*
X146829800Y-104079250D01*
G75*
G02*
X146611050Y-104298000I-218750J0D01*
G01*
G37*
%TD.AperFunction*%
%TD*%
%TO.P,F1,1*%
%TO.N,+BATT*%
%TA.AperFunction,SMDPad,CuDef*%
G36*
G01*
X136857800Y-110541750D02*
X136857800Y-111454250D01*
G75*
G02*
X136614050Y-111698000I-243750J0D01*
G01*
X136126550Y-111698000D01*
G75*
G02*
X135882800Y-111454250I0J243750D01*
G01*
X135882800Y-110541750D01*
G75*
G02*
X136126550Y-110298000I243750J0D01*
G01*
X136614050Y-110298000D01*
G75*
G02*
X136857800Y-110541750I0J-243750D01*
G01*
G37*
%TD.AperFunction*%
%TO.P,F1,2*%
%TO.N,Net-(F1-Pad2)*%
%TA.AperFunction,SMDPad,CuDef*%
G36*
G01*
X134982800Y-110541750D02*
X134982800Y-111454250D01*
G75*
G02*
X134739050Y-111698000I-243750J0D01*
G01*
X134251550Y-111698000D01*
G75*
G02*
X134007800Y-111454250I0J243750D01*
G01*
X134007800Y-110541750D01*
G75*
G02*
X134251550Y-110298000I243750J0D01*
G01*
X134739050Y-110298000D01*
G75*
G02*
X134982800Y-110541750I0J-243750D01*
G01*
G37*
%TD.AperFunction*%
%TD*%
%TO.P,J1,1*%
%TO.N,+3V3*%
X149555200Y-90220800D03*
D10*
%TO.P,J1,2*%
%TO.N,/SWO*%
X147015200Y-90220800D03*
%TO.P,J1,3*%
%TO.N,/SWCLK*%
X144475200Y-90220800D03*
%TO.P,J1,4*%
%TO.N,GND*%
X141935200Y-90220800D03*
%TD*%
%TO.P,J2,6*%
%TO.N,/PA1*%
X122580400Y-106934000D03*
%TO.P,J2,5*%
%TO.N,/PA0*%
X122580400Y-104394000D03*
%TO.P,J2,4*%
%TO.N,/PC15*%
X122580400Y-101854000D03*
%TO.P,J2,3*%
%TO.N,/PC14*%
X122580400Y-99314000D03*
%TO.P,J2,2*%
%TO.N,/PC13*%
X122580400Y-96774000D03*
D11*
%TO.P,J2,1*%
%TO.N,/PB9*%
X122580400Y-94234000D03*
%TD*%
%TA.AperFunction,ComponentPad*%
D12*
%TO.P,J3,1*%
%TO.N,/PB0*%
G36*
X139337122Y-118878322D02*
G01*
X137864878Y-119728322D01*
X137014878Y-118256078D01*
X138487122Y-117406078D01*
X139337122Y-118878322D01*
G37*
%TD.AperFunction*%
%TO.P,J3,2*%
%TO.N,/PB1*%
%TA.AperFunction,ComponentPad*%
G36*
G01*
X140800705Y-118033322D02*
X140800705Y-118033322D01*
G75*
G02*
X139639583Y-117722200I-425000J736122D01*
G01*
X139639583Y-117722200D01*
G75*
G02*
X139950705Y-116561078I736122J425000D01*
G01*
X139950705Y-116561078D01*
G75*
G02*
X141111827Y-116872200I425000J-736122D01*
G01*
X141111827Y-116872200D01*
G75*
G02*
X140800705Y-118033322I-736122J-425000D01*
G01*
G37*
%TD.AperFunction*%
%TO.P,J3,3*%
%TO.N,/PB10*%
%TA.AperFunction,ComponentPad*%
G36*
G01*
X143000409Y-116763322D02*
X143000409Y-116763322D01*
G75*
G02*
X141839287Y-116452200I-425000J736122D01*
G01*
X141839287Y-116452200D01*
G75*
G02*
X142150409Y-115291078I736122J425000D01*
G01*
X142150409Y-115291078D01*
G75*
G02*
X143311531Y-115602200I425000J-736122D01*
G01*
X143311531Y-115602200D01*
G75*
G02*
X143000409Y-116763322I-736122J-425000D01*
G01*
G37*
%TD.AperFunction*%
%TO.P,J3,4*%
%TO.N,/PB11*%
%TA.AperFunction,ComponentPad*%
G36*
G01*
X145200114Y-115493322D02*
X145200114Y-115493322D01*
G75*
G02*
X144038992Y-115182200I-425000J736122D01*
G01*
X144038992Y-115182200D01*
G75*
G02*
X144350114Y-114021078I736122J425000D01*
G01*
X144350114Y-114021078D01*
G75*
G02*
X145511236Y-114332200I425000J-736122D01*
G01*
X145511236Y-114332200D01*
G75*
G02*
X145200114Y-115493322I-736122J-425000D01*
G01*
G37*
%TD.AperFunction*%
%TO.P,J3,5*%
%TO.N,/PB12*%
%TA.AperFunction,ComponentPad*%
G36*
G01*
X147399818Y-114223322D02*
X147399818Y-114223322D01*
G75*
G02*
X146238696Y-113912200I-425000J736122D01*
G01*
X146238696Y-113912200D01*
G75*
G02*
X146549818Y-112751078I736122J425000D01*
G01*
X146549818Y-112751078D01*
G75*
G02*
X147710940Y-113062200I425000J-736122D01*
G01*
X147710940Y-113062200D01*
G75*
G02*
X147399818Y-114223322I-736122J-425000D01*
G01*
G37*
%TD.AperFunction*%
%TO.P,J3,6*%
%TO.N,/PB13*%
%TA.AperFunction,ComponentPad*%
G36*
G01*
X149599523Y-112953322D02*
X149599523Y-112953322D01*
G75*
G02*
X148438401Y-112642200I-425000J736122D01*
G01*
X148438401Y-112642200D01*
G75*
G02*
X148749523Y-111481078I736122J425000D01*
G01*
X148749523Y-111481078D01*
G75*
G02*
X149910645Y-111792200I425000J-736122D01*
G01*
X149910645Y-111792200D01*
G75*
G02*
X149599523Y-112953322I-736122J-425000D01*
G01*
G37*
%TD.AperFunction*%
%TD*%
%TA.AperFunction,ComponentPad*%
%TO.P,J4,1*%
%TO.N,/PA7*%
G36*
X132836461Y-117383381D02*
G01*
X134229019Y-118358461D01*
X133253939Y-119751019D01*
X131861381Y-118775939D01*
X132836461Y-117383381D01*
G37*
%TD.AperFunction*%
%TO.P,J4,2*%
%TO.N,/PA6*%
%TA.AperFunction,ComponentPad*%
G36*
G01*
X131452094Y-116414037D02*
X131452094Y-116414037D01*
G75*
G02*
X131660833Y-117597856I-487540J-696279D01*
G01*
X131660833Y-117597856D01*
G75*
G02*
X130477014Y-117806595I-696279J487540D01*
G01*
X130477014Y-117806595D01*
G75*
G02*
X130268275Y-116622776I487540J696279D01*
G01*
X130268275Y-116622776D01*
G75*
G02*
X131452094Y-116414037I696279J-487540D01*
G01*
G37*
%TD.AperFunction*%
%TO.P,J4,3*%
%TO.N,/PA5*%
%TA.AperFunction,ComponentPad*%
G36*
G01*
X129371448Y-114957153D02*
X129371448Y-114957153D01*
G75*
G02*
X129580187Y-116140972I-487540J-696279D01*
G01*
X129580187Y-116140972D01*
G75*
G02*
X128396368Y-116349711I-696279J487540D01*
G01*
X128396368Y-116349711D01*
G75*
G02*
X128187629Y-115165892I487540J696279D01*
G01*
X128187629Y-115165892D01*
G75*
G02*
X129371448Y-114957153I696279J-487540D01*
G01*
G37*
%TD.AperFunction*%
%TO.P,J4,4*%
%TO.N,/PA4*%
%TA.AperFunction,ComponentPad*%
G36*
G01*
X127290801Y-113500269D02*
X127290801Y-113500269D01*
G75*
G02*
X127499540Y-114684088I-487540J-696279D01*
G01*
X127499540Y-114684088D01*
G75*
G02*
X126315721Y-114892827I-696279J487540D01*
G01*
X126315721Y-114892827D01*
G75*
G02*
X126106982Y-113709008I487540J696279D01*
G01*
X126106982Y-113709008D01*
G75*
G02*
X127290801Y-113500269I696279J-487540D01*
G01*
G37*
%TD.AperFunction*%
%TO.P,J4,5*%
%TO.N,/PA3*%
%TA.AperFunction,ComponentPad*%
G36*
G01*
X125210155Y-112043384D02*
X125210155Y-112043384D01*
G75*
G02*
X125418894Y-113227203I-487540J-696279D01*
G01*
X125418894Y-113227203D01*
G75*
G02*
X124235075Y-113435942I-696279J487540D01*
G01*
X124235075Y-113435942D01*
G75*
G02*
X124026336Y-112252123I487540J696279D01*
G01*
X124026336Y-112252123D01*
G75*
G02*
X125210155Y-112043384I696279J-487540D01*
G01*
G37*
%TD.AperFunction*%
%TO.P,J4,6*%
%TO.N,/PA2*%
%TA.AperFunction,ComponentPad*%
G36*
G01*
X123129509Y-110586500D02*
X123129509Y-110586500D01*
G75*
G02*
X123338248Y-111770319I-487540J-696279D01*
G01*
X123338248Y-111770319D01*
G75*
G02*
X122154429Y-111979058I-696279J487540D01*
G01*
X122154429Y-111979058D01*
G75*
G02*
X121945690Y-110795239I487540J696279D01*
G01*
X121945690Y-110795239D01*
G75*
G02*
X123129509Y-110586500I696279J-487540D01*
G01*
G37*
%TD.AperFunction*%
%TD*%
D11*
%TO.P,J6,1*%
%TO.N,/PB8*%
X124612400Y-90271600D03*
D10*
%TO.P,J6,2*%
%TO.N,/PB7*%
X127152400Y-90271600D03*
%TO.P,J6,3*%
%TO.N,/PB6*%
X129692400Y-90271600D03*
%TO.P,J6,4*%
%TO.N,/PB5*%
X132232400Y-90271600D03*
%TO.P,J6,5*%
%TO.N,/PB4*%
X134772400Y-90271600D03*
%TO.P,J6,6*%
%TO.N,/PB3*%
X137312400Y-90271600D03*
%TD*%
D11*
%TO.P,J7,1*%
%TO.N,Net-(F1-Pad2)*%
X134467600Y-114249200D03*
D10*
%TO.P,J7,2*%
%TO.N,GND*%
X137007600Y-114249200D03*
%TD*%
%TO.P,R1,1*%
%TO.N,/NRST*%
%TA.AperFunction,SMDPad,CuDef*%
G36*
G01*
X130093000Y-111152650D02*
X130093000Y-110640150D01*
G75*
G02*
X130311750Y-110421400I218750J0D01*
G01*
X130749250Y-110421400D01*
G75*
G02*
X130968000Y-110640150I0J-218750D01*
G01*
X130968000Y-111152650D01*
G75*
G02*
X130749250Y-111371400I-218750J0D01*
G01*
X130311750Y-111371400D01*
G75*
G02*
X130093000Y-111152650I0J218750D01*
G01*
G37*
%TD.AperFunction*%
%TO.P,R1,2*%
%TO.N,+3V3*%
%TA.AperFunction,SMDPad,CuDef*%
G36*
G01*
X131668000Y-111152650D02*
X131668000Y-110640150D01*
G75*
G02*
X131886750Y-110421400I218750J0D01*
G01*
X132324250Y-110421400D01*
G75*
G02*
X132543000Y-110640150I0J-218750D01*
G01*
X132543000Y-111152650D01*
G75*
G02*
X132324250Y-111371400I-218750J0D01*
G01*
X131886750Y-111371400D01*
G75*
G02*
X131668000Y-111152650I0J218750D01*
G01*
G37*
%TD.AperFunction*%
%TD*%
%TO.P,R3,2*%
%TO.N,GND*%
%TA.AperFunction,SMDPad,CuDef*%
G36*
G01*
X135590800Y-107744550D02*
X135590800Y-108257050D01*
G75*
G02*
X135372050Y-108475800I-218750J0D01*
G01*
X134934550Y-108475800D01*
G75*
G02*
X134715800Y-108257050I0J218750D01*
G01*
X134715800Y-107744550D01*
G75*
G02*
X134934550Y-107525800I218750J0D01*
G01*
X135372050Y-107525800D01*
G75*
G02*
X135590800Y-107744550I0J-218750D01*
G01*
G37*
%TD.AperFunction*%
%TO.P,R3,1*%
%TO.N,/BOOT1*%
%TA.AperFunction,SMDPad,CuDef*%
G36*
G01*
X137165800Y-107744550D02*
X137165800Y-108257050D01*
G75*
G02*
X136947050Y-108475800I-218750J0D01*
G01*
X136509550Y-108475800D01*
G75*
G02*
X136290800Y-108257050I0J218750D01*
G01*
X136290800Y-107744550D01*
G75*
G02*
X136509550Y-107525800I218750J0D01*
G01*
X136947050Y-107525800D01*
G75*
G02*
X137165800Y-107744550I0J-218750D01*
G01*
G37*
%TD.AperFunction*%
%TD*%
%TO.P,R4,1*%
%TO.N,+3V3*%
%TA.AperFunction,SMDPad,CuDef*%
G36*
G01*
X144898451Y-105890799D02*
X144385951Y-105890799D01*
G75*
G02*
X144167201Y-105672049I0J218750D01*
G01*
X144167201Y-105234549D01*
G75*
G02*
X144385951Y-105015799I218750J0D01*
G01*
X144898451Y-105015799D01*
G75*
G02*
X145117201Y-105234549I0J-218750D01*
G01*
X145117201Y-105672049D01*
G75*
G02*
X144898451Y-105890799I-218750J0D01*
G01*
G37*
%TD.AperFunction*%
%TO.P,R4,2*%
%TO.N,Net-(D1-Pad2)*%
%TA.AperFunction,SMDPad,CuDef*%
G36*
G01*
X144898451Y-104315799D02*
X144385951Y-104315799D01*
G75*
G02*
X144167201Y-104097049I0J218750D01*
G01*
X144167201Y-103659549D01*
G75*
G02*
X144385951Y-103440799I218750J0D01*
G01*
X144898451Y-103440799D01*
G75*
G02*
X145117201Y-103659549I0J-218750D01*
G01*
X145117201Y-104097049D01*
G75*
G02*
X144898451Y-104315799I-218750J0D01*
G01*
G37*
%TD.AperFunction*%
%TD*%
D13*
%TO.P,SW1,2*%
%TO.N,/NRST*%
X132798800Y-107492800D03*
%TO.P,SW1,1*%
%TO.N,GND*%
X127398800Y-107492800D03*
%TD*%
%TO.P,U1,1*%
%TO.N,+3V3*%
%TA.AperFunction,SMDPad,CuDef*%
G36*
G01*
X133022000Y-98264600D02*
X133022000Y-98114600D01*
G75*
G02*
X133097000Y-98039600I75000J0D01*
G01*
X134422000Y-98039600D01*
G75*
G02*
X134497000Y-98114600I0J-75000D01*
G01*
X134497000Y-98264600D01*
G75*
G02*
X134422000Y-98339600I-75000J0D01*
G01*
X133097000Y-98339600D01*
G75*
G02*
X133022000Y-98264600I0J75000D01*
G01*
G37*
%TD.AperFunction*%
%TO.P,U1,2*%
%TO.N,/PC13*%
%TA.AperFunction,SMDPad,CuDef*%
G36*
G01*
X133022000Y-98764600D02*
X133022000Y-98614600D01*
G75*
G02*
X133097000Y-98539600I75000J0D01*
G01*
X134422000Y-98539600D01*
G75*
G02*
X134497000Y-98614600I0J-75000D01*
G01*
X134497000Y-98764600D01*
G75*
G02*
X134422000Y-98839600I-75000J0D01*
G01*
X133097000Y-98839600D01*
G75*
G02*
X133022000Y-98764600I0J75000D01*
G01*
G37*
%TD.AperFunction*%
%TO.P,U1,3*%
%TO.N,/PC14*%
%TA.AperFunction,SMDPad,CuDef*%
G36*
G01*
X133022000Y-99264600D02*
X133022000Y-99114600D01*
G75*
G02*
X133097000Y-99039600I75000J0D01*
G01*
X134422000Y-99039600D01*
G75*
G02*
X134497000Y-99114600I0J-75000D01*
G01*
X134497000Y-99264600D01*
G75*
G02*
X134422000Y-99339600I-75000J0D01*
G01*
X133097000Y-99339600D01*
G75*
G02*
X133022000Y-99264600I0J75000D01*
G01*
G37*
%TD.AperFunction*%
%TO.P,U1,4*%
%TO.N,/PC15*%
%TA.AperFunction,SMDPad,CuDef*%
G36*
G01*
X133022000Y-99764600D02*
X133022000Y-99614600D01*
G75*
G02*
X133097000Y-99539600I75000J0D01*
G01*
X134422000Y-99539600D01*
G75*
G02*
X134497000Y-99614600I0J-75000D01*
G01*
X134497000Y-99764600D01*
G75*
G02*
X134422000Y-99839600I-75000J0D01*
G01*
X133097000Y-99839600D01*
G75*
G02*
X133022000Y-99764600I0J75000D01*
G01*
G37*
%TD.AperFunction*%
%TO.P,U1,5*%
%TO.N,Net-(C5-Pad1)*%
%TA.AperFunction,SMDPad,CuDef*%
G36*
G01*
X133022000Y-100264600D02*
X133022000Y-100114600D01*
G75*
G02*
X133097000Y-100039600I75000J0D01*
G01*
X134422000Y-100039600D01*
G75*
G02*
X134497000Y-100114600I0J-75000D01*
G01*
X134497000Y-100264600D01*
G75*
G02*
X134422000Y-100339600I-75000J0D01*
G01*
X133097000Y-100339600D01*
G75*
G02*
X133022000Y-100264600I0J75000D01*
G01*
G37*
%TD.AperFunction*%
%TO.P,U1,6*%
%TO.N,Net-(C6-Pad1)*%
%TA.AperFunction,SMDPad,CuDef*%
G36*
G01*
X133022000Y-100764600D02*
X133022000Y-100614600D01*
G75*
G02*
X133097000Y-100539600I75000J0D01*
G01*
X134422000Y-100539600D01*
G75*
G02*
X134497000Y-100614600I0J-75000D01*
G01*
X134497000Y-100764600D01*
G75*
G02*
X134422000Y-100839600I-75000J0D01*
G01*
X133097000Y-100839600D01*
G75*
G02*
X133022000Y-100764600I0J75000D01*
G01*
G37*
%TD.AperFunction*%
%TO.P,U1,7*%
%TO.N,/NRST*%
%TA.AperFunction,SMDPad,CuDef*%
G36*
G01*
X133022000Y-101264600D02*
X133022000Y-101114600D01*
G75*
G02*
X133097000Y-101039600I75000J0D01*
G01*
X134422000Y-101039600D01*
G75*
G02*
X134497000Y-101114600I0J-75000D01*
G01*
X134497000Y-101264600D01*
G75*
G02*
X134422000Y-101339600I-75000J0D01*
G01*
X133097000Y-101339600D01*
G75*
G02*
X133022000Y-101264600I0J75000D01*
G01*
G37*
%TD.AperFunction*%
%TO.P,U1,8*%
%TO.N,GND*%
%TA.AperFunction,SMDPad,CuDef*%
G36*
G01*
X133022000Y-101764600D02*
X133022000Y-101614600D01*
G75*
G02*
X133097000Y-101539600I75000J0D01*
G01*
X134422000Y-101539600D01*
G75*
G02*
X134497000Y-101614600I0J-75000D01*
G01*
X134497000Y-101764600D01*
G75*
G02*
X134422000Y-101839600I-75000J0D01*
G01*
X133097000Y-101839600D01*
G75*
G02*
X133022000Y-101764600I0J75000D01*
G01*
G37*
%TD.AperFunction*%
%TO.P,U1,9*%
%TO.N,+3V3*%
%TA.AperFunction,SMDPad,CuDef*%
G36*
G01*
X133022000Y-102264600D02*
X133022000Y-102114600D01*
G75*
G02*
X133097000Y-102039600I75000J0D01*
G01*
X134422000Y-102039600D01*
G75*
G02*
X134497000Y-102114600I0J-75000D01*
G01*
X134497000Y-102264600D01*
G75*
G02*
X134422000Y-102339600I-75000J0D01*
G01*
X133097000Y-102339600D01*
G75*
G02*
X133022000Y-102264600I0J75000D01*
G01*
G37*
%TD.AperFunction*%
%TO.P,U1,10*%
%TO.N,/PA0*%
%TA.AperFunction,SMDPad,CuDef*%
G36*
G01*
X133022000Y-102764600D02*
X133022000Y-102614600D01*
G75*
G02*
X133097000Y-102539600I75000J0D01*
G01*
X134422000Y-102539600D01*
G75*
G02*
X134497000Y-102614600I0J-75000D01*
G01*
X134497000Y-102764600D01*
G75*
G02*
X134422000Y-102839600I-75000J0D01*
G01*
X133097000Y-102839600D01*
G75*
G02*
X133022000Y-102764600I0J75000D01*
G01*
G37*
%TD.AperFunction*%
%TO.P,U1,11*%
%TO.N,/PA1*%
%TA.AperFunction,SMDPad,CuDef*%
G36*
G01*
X133022000Y-103264600D02*
X133022000Y-103114600D01*
G75*
G02*
X133097000Y-103039600I75000J0D01*
G01*
X134422000Y-103039600D01*
G75*
G02*
X134497000Y-103114600I0J-75000D01*
G01*
X134497000Y-103264600D01*
G75*
G02*
X134422000Y-103339600I-75000J0D01*
G01*
X133097000Y-103339600D01*
G75*
G02*
X133022000Y-103264600I0J75000D01*
G01*
G37*
%TD.AperFunction*%
%TO.P,U1,12*%
%TO.N,/PA2*%
%TA.AperFunction,SMDPad,CuDef*%
G36*
G01*
X133022000Y-103764600D02*
X133022000Y-103614600D01*
G75*
G02*
X133097000Y-103539600I75000J0D01*
G01*
X134422000Y-103539600D01*
G75*
G02*
X134497000Y-103614600I0J-75000D01*
G01*
X134497000Y-103764600D01*
G75*
G02*
X134422000Y-103839600I-75000J0D01*
G01*
X133097000Y-103839600D01*
G75*
G02*
X133022000Y-103764600I0J75000D01*
G01*
G37*
%TD.AperFunction*%
%TO.P,U1,13*%
%TO.N,/PA3*%
%TA.AperFunction,SMDPad,CuDef*%
G36*
G01*
X135022000Y-105764600D02*
X135022000Y-104439600D01*
G75*
G02*
X135097000Y-104364600I75000J0D01*
G01*
X135247000Y-104364600D01*
G75*
G02*
X135322000Y-104439600I0J-75000D01*
G01*
X135322000Y-105764600D01*
G75*
G02*
X135247000Y-105839600I-75000J0D01*
G01*
X135097000Y-105839600D01*
G75*
G02*
X135022000Y-105764600I0J75000D01*
G01*
G37*
%TD.AperFunction*%
%TO.P,U1,14*%
%TO.N,/PA4*%
%TA.AperFunction,SMDPad,CuDef*%
G36*
G01*
X135522000Y-105764600D02*
X135522000Y-104439600D01*
G75*
G02*
X135597000Y-104364600I75000J0D01*
G01*
X135747000Y-104364600D01*
G75*
G02*
X135822000Y-104439600I0J-75000D01*
G01*
X135822000Y-105764600D01*
G75*
G02*
X135747000Y-105839600I-75000J0D01*
G01*
X135597000Y-105839600D01*
G75*
G02*
X135522000Y-105764600I0J75000D01*
G01*
G37*
%TD.AperFunction*%
%TO.P,U1,15*%
%TO.N,/PA5*%
%TA.AperFunction,SMDPad,CuDef*%
G36*
G01*
X136022000Y-105764600D02*
X136022000Y-104439600D01*
G75*
G02*
X136097000Y-104364600I75000J0D01*
G01*
X136247000Y-104364600D01*
G75*
G02*
X136322000Y-104439600I0J-75000D01*
G01*
X136322000Y-105764600D01*
G75*
G02*
X136247000Y-105839600I-75000J0D01*
G01*
X136097000Y-105839600D01*
G75*
G02*
X136022000Y-105764600I0J75000D01*
G01*
G37*
%TD.AperFunction*%
%TO.P,U1,16*%
%TO.N,/PA6*%
%TA.AperFunction,SMDPad,CuDef*%
G36*
G01*
X136522000Y-105764600D02*
X136522000Y-104439600D01*
G75*
G02*
X136597000Y-104364600I75000J0D01*
G01*
X136747000Y-104364600D01*
G75*
G02*
X136822000Y-104439600I0J-75000D01*
G01*
X136822000Y-105764600D01*
G75*
G02*
X136747000Y-105839600I-75000J0D01*
G01*
X136597000Y-105839600D01*
G75*
G02*
X136522000Y-105764600I0J75000D01*
G01*
G37*
%TD.AperFunction*%
%TO.P,U1,17*%
%TO.N,/PA7*%
%TA.AperFunction,SMDPad,CuDef*%
G36*
G01*
X137022000Y-105764600D02*
X137022000Y-104439600D01*
G75*
G02*
X137097000Y-104364600I75000J0D01*
G01*
X137247000Y-104364600D01*
G75*
G02*
X137322000Y-104439600I0J-75000D01*
G01*
X137322000Y-105764600D01*
G75*
G02*
X137247000Y-105839600I-75000J0D01*
G01*
X137097000Y-105839600D01*
G75*
G02*
X137022000Y-105764600I0J75000D01*
G01*
G37*
%TD.AperFunction*%
%TO.P,U1,18*%
%TO.N,/PB0*%
%TA.AperFunction,SMDPad,CuDef*%
G36*
G01*
X137522000Y-105764600D02*
X137522000Y-104439600D01*
G75*
G02*
X137597000Y-104364600I75000J0D01*
G01*
X137747000Y-104364600D01*
G75*
G02*
X137822000Y-104439600I0J-75000D01*
G01*
X137822000Y-105764600D01*
G75*
G02*
X137747000Y-105839600I-75000J0D01*
G01*
X137597000Y-105839600D01*
G75*
G02*
X137522000Y-105764600I0J75000D01*
G01*
G37*
%TD.AperFunction*%
%TO.P,U1,19*%
%TO.N,/PB1*%
%TA.AperFunction,SMDPad,CuDef*%
G36*
G01*
X138022000Y-105764600D02*
X138022000Y-104439600D01*
G75*
G02*
X138097000Y-104364600I75000J0D01*
G01*
X138247000Y-104364600D01*
G75*
G02*
X138322000Y-104439600I0J-75000D01*
G01*
X138322000Y-105764600D01*
G75*
G02*
X138247000Y-105839600I-75000J0D01*
G01*
X138097000Y-105839600D01*
G75*
G02*
X138022000Y-105764600I0J75000D01*
G01*
G37*
%TD.AperFunction*%
%TO.P,U1,20*%
%TO.N,/BOOT1*%
%TA.AperFunction,SMDPad,CuDef*%
G36*
G01*
X138522000Y-105764600D02*
X138522000Y-104439600D01*
G75*
G02*
X138597000Y-104364600I75000J0D01*
G01*
X138747000Y-104364600D01*
G75*
G02*
X138822000Y-104439600I0J-75000D01*
G01*
X138822000Y-105764600D01*
G75*
G02*
X138747000Y-105839600I-75000J0D01*
G01*
X138597000Y-105839600D01*
G75*
G02*
X138522000Y-105764600I0J75000D01*
G01*
G37*
%TD.AperFunction*%
%TO.P,U1,21*%
%TO.N,/PB10*%
%TA.AperFunction,SMDPad,CuDef*%
G36*
G01*
X139022000Y-105764600D02*
X139022000Y-104439600D01*
G75*
G02*
X139097000Y-104364600I75000J0D01*
G01*
X139247000Y-104364600D01*
G75*
G02*
X139322000Y-104439600I0J-75000D01*
G01*
X139322000Y-105764600D01*
G75*
G02*
X139247000Y-105839600I-75000J0D01*
G01*
X139097000Y-105839600D01*
G75*
G02*
X139022000Y-105764600I0J75000D01*
G01*
G37*
%TD.AperFunction*%
%TO.P,U1,22*%
%TO.N,/PB11*%
%TA.AperFunction,SMDPad,CuDef*%
G36*
G01*
X139522000Y-105764600D02*
X139522000Y-104439600D01*
G75*
G02*
X139597000Y-104364600I75000J0D01*
G01*
X139747000Y-104364600D01*
G75*
G02*
X139822000Y-104439600I0J-75000D01*
G01*
X139822000Y-105764600D01*
G75*
G02*
X139747000Y-105839600I-75000J0D01*
G01*
X139597000Y-105839600D01*
G75*
G02*
X139522000Y-105764600I0J75000D01*
G01*
G37*
%TD.AperFunction*%
%TO.P,U1,23*%
%TO.N,GND*%
%TA.AperFunction,SMDPad,CuDef*%
G36*
G01*
X140022000Y-105764600D02*
X140022000Y-104439600D01*
G75*
G02*
X140097000Y-104364600I75000J0D01*
G01*
X140247000Y-104364600D01*
G75*
G02*
X140322000Y-104439600I0J-75000D01*
G01*
X140322000Y-105764600D01*
G75*
G02*
X140247000Y-105839600I-75000J0D01*
G01*
X140097000Y-105839600D01*
G75*
G02*
X140022000Y-105764600I0J75000D01*
G01*
G37*
%TD.AperFunction*%
%TO.P,U1,24*%
%TO.N,+3V3*%
%TA.AperFunction,SMDPad,CuDef*%
G36*
G01*
X140522000Y-105764600D02*
X140522000Y-104439600D01*
G75*
G02*
X140597000Y-104364600I75000J0D01*
G01*
X140747000Y-104364600D01*
G75*
G02*
X140822000Y-104439600I0J-75000D01*
G01*
X140822000Y-105764600D01*
G75*
G02*
X140747000Y-105839600I-75000J0D01*
G01*
X140597000Y-105839600D01*
G75*
G02*
X140522000Y-105764600I0J75000D01*
G01*
G37*
%TD.AperFunction*%
%TO.P,U1,25*%
%TO.N,/PB12*%
%TA.AperFunction,SMDPad,CuDef*%
G36*
G01*
X141347000Y-103764600D02*
X141347000Y-103614600D01*
G75*
G02*
X141422000Y-103539600I75000J0D01*
G01*
X142747000Y-103539600D01*
G75*
G02*
X142822000Y-103614600I0J-75000D01*
G01*
X142822000Y-103764600D01*
G75*
G02*
X142747000Y-103839600I-75000J0D01*
G01*
X141422000Y-103839600D01*
G75*
G02*
X141347000Y-103764600I0J75000D01*
G01*
G37*
%TD.AperFunction*%
%TO.P,U1,26*%
%TO.N,/PB13*%
%TA.AperFunction,SMDPad,CuDef*%
G36*
G01*
X141347000Y-103264600D02*
X141347000Y-103114600D01*
G75*
G02*
X141422000Y-103039600I75000J0D01*
G01*
X142747000Y-103039600D01*
G75*
G02*
X142822000Y-103114600I0J-75000D01*
G01*
X142822000Y-103264600D01*
G75*
G02*
X142747000Y-103339600I-75000J0D01*
G01*
X141422000Y-103339600D01*
G75*
G02*
X141347000Y-103264600I0J75000D01*
G01*
G37*
%TD.AperFunction*%
%TO.P,U1,27*%
%TO.N,/PB14*%
%TA.AperFunction,SMDPad,CuDef*%
G36*
G01*
X141347000Y-102764600D02*
X141347000Y-102614600D01*
G75*
G02*
X141422000Y-102539600I75000J0D01*
G01*
X142747000Y-102539600D01*
G75*
G02*
X142822000Y-102614600I0J-75000D01*
G01*
X142822000Y-102764600D01*
G75*
G02*
X142747000Y-102839600I-75000J0D01*
G01*
X141422000Y-102839600D01*
G75*
G02*
X141347000Y-102764600I0J75000D01*
G01*
G37*
%TD.AperFunction*%
%TO.P,U1,28*%
%TO.N,/PB15*%
%TA.AperFunction,SMDPad,CuDef*%
G36*
G01*
X141347000Y-102264600D02*
X141347000Y-102114600D01*
G75*
G02*
X141422000Y-102039600I75000J0D01*
G01*
X142747000Y-102039600D01*
G75*
G02*
X142822000Y-102114600I0J-75000D01*
G01*
X142822000Y-102264600D01*
G75*
G02*
X142747000Y-102339600I-75000J0D01*
G01*
X141422000Y-102339600D01*
G75*
G02*
X141347000Y-102264600I0J75000D01*
G01*
G37*
%TD.AperFunction*%
%TO.P,U1,29*%
%TO.N,/PA8*%
%TA.AperFunction,SMDPad,CuDef*%
G36*
G01*
X141347000Y-101764600D02*
X141347000Y-101614600D01*
G75*
G02*
X141422000Y-101539600I75000J0D01*
G01*
X142747000Y-101539600D01*
G75*
G02*
X142822000Y-101614600I0J-75000D01*
G01*
X142822000Y-101764600D01*
G75*
G02*
X142747000Y-101839600I-75000J0D01*
G01*
X141422000Y-101839600D01*
G75*
G02*
X141347000Y-101764600I0J75000D01*
G01*
G37*
%TD.AperFunction*%
%TO.P,U1,30*%
%TO.N,/PA9*%
%TA.AperFunction,SMDPad,CuDef*%
G36*
G01*
X141347000Y-101264600D02*
X141347000Y-101114600D01*
G75*
G02*
X141422000Y-101039600I75000J0D01*
G01*
X142747000Y-101039600D01*
G75*
G02*
X142822000Y-101114600I0J-75000D01*
G01*
X142822000Y-101264600D01*
G75*
G02*
X142747000Y-101339600I-75000J0D01*
G01*
X141422000Y-101339600D01*
G75*
G02*
X141347000Y-101264600I0J75000D01*
G01*
G37*
%TD.AperFunction*%
%TO.P,U1,31*%
%TO.N,/PA10*%
%TA.AperFunction,SMDPad,CuDef*%
G36*
G01*
X141347000Y-100764600D02*
X141347000Y-100614600D01*
G75*
G02*
X141422000Y-100539600I75000J0D01*
G01*
X142747000Y-100539600D01*
G75*
G02*
X142822000Y-100614600I0J-75000D01*
G01*
X142822000Y-100764600D01*
G75*
G02*
X142747000Y-100839600I-75000J0D01*
G01*
X141422000Y-100839600D01*
G75*
G02*
X141347000Y-100764600I0J75000D01*
G01*
G37*
%TD.AperFunction*%
%TO.P,U1,32*%
%TO.N,/PA11*%
%TA.AperFunction,SMDPad,CuDef*%
G36*
G01*
X141347000Y-100264600D02*
X141347000Y-100114600D01*
G75*
G02*
X141422000Y-100039600I75000J0D01*
G01*
X142747000Y-100039600D01*
G75*
G02*
X142822000Y-100114600I0J-75000D01*
G01*
X142822000Y-100264600D01*
G75*
G02*
X142747000Y-100339600I-75000J0D01*
G01*
X141422000Y-100339600D01*
G75*
G02*
X141347000Y-100264600I0J75000D01*
G01*
G37*
%TD.AperFunction*%
%TO.P,U1,33*%
%TO.N,Net-(U1-Pad33)*%
%TA.AperFunction,SMDPad,CuDef*%
G36*
G01*
X141347000Y-99764600D02*
X141347000Y-99614600D01*
G75*
G02*
X141422000Y-99539600I75000J0D01*
G01*
X142747000Y-99539600D01*
G75*
G02*
X142822000Y-99614600I0J-75000D01*
G01*
X142822000Y-99764600D01*
G75*
G02*
X142747000Y-99839600I-75000J0D01*
G01*
X141422000Y-99839600D01*
G75*
G02*
X141347000Y-99764600I0J75000D01*
G01*
G37*
%TD.AperFunction*%
%TO.P,U1,34*%
%TO.N,/SWO*%
%TA.AperFunction,SMDPad,CuDef*%
G36*
G01*
X141347000Y-99264600D02*
X141347000Y-99114600D01*
G75*
G02*
X141422000Y-99039600I75000J0D01*
G01*
X142747000Y-99039600D01*
G75*
G02*
X142822000Y-99114600I0J-75000D01*
G01*
X142822000Y-99264600D01*
G75*
G02*
X142747000Y-99339600I-75000J0D01*
G01*
X141422000Y-99339600D01*
G75*
G02*
X141347000Y-99264600I0J75000D01*
G01*
G37*
%TD.AperFunction*%
%TO.P,U1,35*%
%TO.N,GND*%
%TA.AperFunction,SMDPad,CuDef*%
G36*
G01*
X141347000Y-98764600D02*
X141347000Y-98614600D01*
G75*
G02*
X141422000Y-98539600I75000J0D01*
G01*
X142747000Y-98539600D01*
G75*
G02*
X142822000Y-98614600I0J-75000D01*
G01*
X142822000Y-98764600D01*
G75*
G02*
X142747000Y-98839600I-75000J0D01*
G01*
X141422000Y-98839600D01*
G75*
G02*
X141347000Y-98764600I0J75000D01*
G01*
G37*
%TD.AperFunction*%
%TO.P,U1,36*%
%TO.N,+3V3*%
%TA.AperFunction,SMDPad,CuDef*%
G36*
G01*
X141347000Y-98264600D02*
X141347000Y-98114600D01*
G75*
G02*
X141422000Y-98039600I75000J0D01*
G01*
X142747000Y-98039600D01*
G75*
G02*
X142822000Y-98114600I0J-75000D01*
G01*
X142822000Y-98264600D01*
G75*
G02*
X142747000Y-98339600I-75000J0D01*
G01*
X141422000Y-98339600D01*
G75*
G02*
X141347000Y-98264600I0J75000D01*
G01*
G37*
%TD.AperFunction*%
%TO.P,U1,37*%
%TO.N,/SWCLK*%
%TA.AperFunction,SMDPad,CuDef*%
G36*
G01*
X140522000Y-97439600D02*
X140522000Y-96114600D01*
G75*
G02*
X140597000Y-96039600I75000J0D01*
G01*
X140747000Y-96039600D01*
G75*
G02*
X140822000Y-96114600I0J-75000D01*
G01*
X140822000Y-97439600D01*
G75*
G02*
X140747000Y-97514600I-75000J0D01*
G01*
X140597000Y-97514600D01*
G75*
G02*
X140522000Y-97439600I0J75000D01*
G01*
G37*
%TD.AperFunction*%
%TO.P,U1,38*%
%TO.N,Net-(U1-Pad38)*%
%TA.AperFunction,SMDPad,CuDef*%
G36*
G01*
X140022000Y-97439600D02*
X140022000Y-96114600D01*
G75*
G02*
X140097000Y-96039600I75000J0D01*
G01*
X140247000Y-96039600D01*
G75*
G02*
X140322000Y-96114600I0J-75000D01*
G01*
X140322000Y-97439600D01*
G75*
G02*
X140247000Y-97514600I-75000J0D01*
G01*
X140097000Y-97514600D01*
G75*
G02*
X140022000Y-97439600I0J75000D01*
G01*
G37*
%TD.AperFunction*%
%TO.P,U1,39*%
%TO.N,/PB3*%
%TA.AperFunction,SMDPad,CuDef*%
G36*
G01*
X139522000Y-97439600D02*
X139522000Y-96114600D01*
G75*
G02*
X139597000Y-96039600I75000J0D01*
G01*
X139747000Y-96039600D01*
G75*
G02*
X139822000Y-96114600I0J-75000D01*
G01*
X139822000Y-97439600D01*
G75*
G02*
X139747000Y-97514600I-75000J0D01*
G01*
X139597000Y-97514600D01*
G75*
G02*
X139522000Y-97439600I0J75000D01*
G01*
G37*
%TD.AperFunction*%
%TO.P,U1,40*%
%TO.N,/PB4*%
%TA.AperFunction,SMDPad,CuDef*%
G36*
G01*
X139022000Y-97439600D02*
X139022000Y-96114600D01*
G75*
G02*
X139097000Y-96039600I75000J0D01*
G01*
X139247000Y-96039600D01*
G75*
G02*
X139322000Y-96114600I0J-75000D01*
G01*
X139322000Y-97439600D01*
G75*
G02*
X139247000Y-97514600I-75000J0D01*
G01*
X139097000Y-97514600D01*
G75*
G02*
X139022000Y-97439600I0J75000D01*
G01*
G37*
%TD.AperFunction*%
%TO.P,U1,41*%
%TO.N,/PB5*%
%TA.AperFunction,SMDPad,CuDef*%
G36*
G01*
X138522000Y-97439600D02*
X138522000Y-96114600D01*
G75*
G02*
X138597000Y-96039600I75000J0D01*
G01*
X138747000Y-96039600D01*
G75*
G02*
X138822000Y-96114600I0J-75000D01*
G01*
X138822000Y-97439600D01*
G75*
G02*
X138747000Y-97514600I-75000J0D01*
G01*
X138597000Y-97514600D01*
G75*
G02*
X138522000Y-97439600I0J75000D01*
G01*
G37*
%TD.AperFunction*%
%TO.P,U1,42*%
%TO.N,/PB6*%
%TA.AperFunction,SMDPad,CuDef*%
G36*
G01*
X138022000Y-97439600D02*
X138022000Y-96114600D01*
G75*
G02*
X138097000Y-96039600I75000J0D01*
G01*
X138247000Y-96039600D01*
G75*
G02*
X138322000Y-96114600I0J-75000D01*
G01*
X138322000Y-97439600D01*
G75*
G02*
X138247000Y-97514600I-75000J0D01*
G01*
X138097000Y-97514600D01*
G75*
G02*
X138022000Y-97439600I0J75000D01*
G01*
G37*
%TD.AperFunction*%
%TO.P,U1,43*%
%TO.N,/PB7*%
%TA.AperFunction,SMDPad,CuDef*%
G36*
G01*
X137522000Y-97439600D02*
X137522000Y-96114600D01*
G75*
G02*
X137597000Y-96039600I75000J0D01*
G01*
X137747000Y-96039600D01*
G75*
G02*
X137822000Y-96114600I0J-75000D01*
G01*
X137822000Y-97439600D01*
G75*
G02*
X137747000Y-97514600I-75000J0D01*
G01*
X137597000Y-97514600D01*
G75*
G02*
X137522000Y-97439600I0J75000D01*
G01*
G37*
%TD.AperFunction*%
%TO.P,U1,44*%
%TO.N,Net-(R2-Pad2)*%
%TA.AperFunction,SMDPad,CuDef*%
G36*
G01*
X137022000Y-97439600D02*
X137022000Y-96114600D01*
G75*
G02*
X137097000Y-96039600I75000J0D01*
G01*
X137247000Y-96039600D01*
G75*
G02*
X137322000Y-96114600I0J-75000D01*
G01*
X137322000Y-97439600D01*
G75*
G02*
X137247000Y-97514600I-75000J0D01*
G01*
X137097000Y-97514600D01*
G75*
G02*
X137022000Y-97439600I0J75000D01*
G01*
G37*
%TD.AperFunction*%
%TO.P,U1,45*%
%TO.N,/PB8*%
%TA.AperFunction,SMDPad,CuDef*%
G36*
G01*
X136522000Y-97439600D02*
X136522000Y-96114600D01*
G75*
G02*
X136597000Y-96039600I75000J0D01*
G01*
X136747000Y-96039600D01*
G75*
G02*
X136822000Y-96114600I0J-75000D01*
G01*
X136822000Y-97439600D01*
G75*
G02*
X136747000Y-97514600I-75000J0D01*
G01*
X136597000Y-97514600D01*
G75*
G02*
X136522000Y-97439600I0J75000D01*
G01*
G37*
%TD.AperFunction*%
%TO.P,U1,46*%
%TO.N,/PB9*%
%TA.AperFunction,SMDPad,CuDef*%
G36*
G01*
X136022000Y-97439600D02*
X136022000Y-96114600D01*
G75*
G02*
X136097000Y-96039600I75000J0D01*
G01*
X136247000Y-96039600D01*
G75*
G02*
X136322000Y-96114600I0J-75000D01*
G01*
X136322000Y-97439600D01*
G75*
G02*
X136247000Y-97514600I-75000J0D01*
G01*
X136097000Y-97514600D01*
G75*
G02*
X136022000Y-97439600I0J75000D01*
G01*
G37*
%TD.AperFunction*%
%TO.P,U1,47*%
%TO.N,GND*%
%TA.AperFunction,SMDPad,CuDef*%
G36*
G01*
X135522000Y-97439600D02*
X135522000Y-96114600D01*
G75*
G02*
X135597000Y-96039600I75000J0D01*
G01*
X135747000Y-96039600D01*
G75*
G02*
X135822000Y-96114600I0J-75000D01*
G01*
X135822000Y-97439600D01*
G75*
G02*
X135747000Y-97514600I-75000J0D01*
G01*
X135597000Y-97514600D01*
G75*
G02*
X135522000Y-97439600I0J75000D01*
G01*
G37*
%TD.AperFunction*%
%TO.P,U1,48*%
%TO.N,+3V3*%
%TA.AperFunction,SMDPad,CuDef*%
G36*
G01*
X135022000Y-97439600D02*
X135022000Y-96114600D01*
G75*
G02*
X135097000Y-96039600I75000J0D01*
G01*
X135247000Y-96039600D01*
G75*
G02*
X135322000Y-96114600I0J-75000D01*
G01*
X135322000Y-97439600D01*
G75*
G02*
X135247000Y-97514600I-75000J0D01*
G01*
X135097000Y-97514600D01*
G75*
G02*
X135022000Y-97439600I0J75000D01*
G01*
G37*
%TD.AperFunction*%
%TD*%
D14*
%TO.P,U2,1*%
%TO.N,+BATT*%
X141798000Y-111742400D03*
%TO.P,U2,2*%
%TO.N,GND*%
X142748000Y-111742400D03*
%TO.P,U2,3*%
%TO.N,+BATT*%
X143698000Y-111742400D03*
%TO.P,U2,4*%
%TO.N,Net-(U2-Pad4)*%
X143698000Y-109542400D03*
%TO.P,U2,5*%
%TO.N,+3V3*%
X141798000Y-109542400D03*
%TD*%
D15*
%TO.P,Y1,1*%
%TO.N,Net-(C5-Pad1)*%
X129387600Y-99902400D03*
%TO.P,Y1,2*%
%TO.N,Net-(C6-Pad1)*%
X129387600Y-103602400D03*
%TD*%
D16*
%TO.N,*%
X149250400Y-118618000D03*
X123494800Y-118618000D03*
D17*
%TO.N,+3V3*%
X151180800Y-109677200D03*
D18*
%TO.N,GND*%
X140462000Y-106527600D03*
X141579600Y-106527600D03*
X140360400Y-107086400D03*
X147523200Y-105867200D03*
X141020800Y-110591600D03*
X136906000Y-109778800D03*
X134467600Y-107137200D03*
X145694400Y-110540800D03*
X142341600Y-110744000D03*
X125476000Y-107492800D03*
X125171200Y-109474000D03*
X135026400Y-100838000D03*
X136093200Y-98145600D03*
X143536128Y-98044000D03*
X139954000Y-103682800D03*
X142646400Y-106273600D03*
X143560800Y-106527600D03*
X127304800Y-99009200D03*
X140919200Y-113030000D03*
X141579600Y-113741200D03*
X145186400Y-99060000D03*
X147574000Y-97485200D03*
X141020800Y-94437200D03*
X142443200Y-92811600D03*
X139192000Y-101092000D03*
X134467600Y-105816400D03*
D19*
X121666000Y-91389200D03*
X122275600Y-89611200D03*
X139801600Y-90525600D03*
X140563600Y-92252800D03*
X128574800Y-93065600D03*
X125018800Y-93675200D03*
X126644400Y-94488000D03*
X127508000Y-118364000D03*
X129794000Y-119989600D03*
X141325600Y-119989600D03*
X144983200Y-120294400D03*
X145135600Y-117754400D03*
X150520400Y-114706400D03*
X135636000Y-116941600D03*
X148132800Y-110388400D03*
X137007600Y-116840000D03*
D17*
X135483600Y-120345200D03*
D20*
%TO.N,+3V3*%
X140672000Y-99053200D03*
X135585200Y-101803200D03*
D18*
X145034000Y-95240100D03*
D20*
%TO.N,/PB10*%
X138887200Y-106934000D03*
%TO.N,/PB11*%
X139672000Y-106629200D03*
%TO.N,/PB12*%
X143002000Y-104597200D03*
%TO.N,/PB13*%
X143560800Y-103632000D03*
D18*
%TO.N,/PA5*%
X135534400Y-106984800D03*
%TO.N,/PA4*%
X135077200Y-106629200D03*
%TO.N,/PA3*%
X134159700Y-105102100D03*
%TO.N,/PA2*%
X133126350Y-104322750D03*
%TO.N,/PA1*%
X132435600Y-103378000D03*
%TO.N,/PA0*%
X132486400Y-102463600D03*
%TO.N,/PA6*%
X136245600Y-106984800D03*
%TO.N,/PA7*%
X136956800Y-106730800D03*
%TO.N,/PB0*%
X137515600Y-103886000D03*
%TO.N,/PB1*%
X138172000Y-103788400D03*
D20*
%TO.N,Net-(R2-Pad2)*%
X137109200Y-99110800D03*
%TD*%
D21*
%TO.N,GND*%
X135153300Y-107822900D02*
X134467600Y-107137200D01*
X135153300Y-108000800D02*
X135153300Y-107822900D01*
X137185300Y-110058100D02*
X136906000Y-109778800D01*
X138328400Y-110058100D02*
X137185300Y-110058100D01*
X140589100Y-110591600D02*
X140055600Y-110058100D01*
X141020800Y-110591600D02*
X140589100Y-110591600D01*
X140055600Y-110058100D02*
X138328400Y-110058100D01*
X141858900Y-106806900D02*
X141579600Y-106527600D01*
X141858900Y-107696000D02*
X141858900Y-106806900D01*
X139979500Y-107467300D02*
X140360400Y-107086400D01*
X139979500Y-108000800D02*
X139979500Y-107467300D01*
X147091500Y-105435500D02*
X147523200Y-105867200D01*
X146354800Y-105435500D02*
X147091500Y-105435500D01*
X145694400Y-109347100D02*
X145694400Y-110540800D01*
X145694400Y-110540800D02*
X145694400Y-110540800D01*
X142748000Y-111742400D02*
X142748000Y-111150400D01*
X142748000Y-111150400D02*
X142341600Y-110744000D01*
X142341600Y-110744000D02*
X142341600Y-110744000D01*
X127398800Y-107492800D02*
X125476000Y-107492800D01*
X127126900Y-110896400D02*
X126593600Y-110896400D01*
X126593600Y-110896400D02*
X125171200Y-109474000D01*
X125476000Y-107492800D02*
X125425200Y-107492800D01*
X125171200Y-109474000D02*
X125171200Y-109474000D01*
X134565528Y-101689600D02*
X135026400Y-101228728D01*
X133759500Y-101689600D02*
X134565528Y-101689600D01*
X135026400Y-101228728D02*
X135026400Y-100838000D01*
X135026400Y-100838000D02*
X135026400Y-100838000D01*
X135694990Y-96811790D02*
X135694990Y-97747390D01*
X135672000Y-96777100D02*
X135672000Y-96788800D01*
X135672000Y-96788800D02*
X135694990Y-96811790D01*
X135694990Y-97747390D02*
X136093200Y-98145600D01*
X136093200Y-98145600D02*
X136093200Y-98145600D01*
X142890528Y-98689600D02*
X143536128Y-98044000D01*
X142084500Y-98689600D02*
X142890528Y-98689600D01*
X143536128Y-98044000D02*
X143536128Y-98044000D01*
X140172000Y-105102100D02*
X140172000Y-103900800D01*
X140172000Y-103900800D02*
X139954000Y-103682800D01*
X139954000Y-103682800D02*
X139954000Y-103682800D01*
X134467600Y-107137200D02*
X134467600Y-106772998D01*
X134467600Y-106772998D02*
X134467600Y-105816400D01*
X134467600Y-105816400D02*
X134467600Y-105816400D01*
%TO.N,+3V3*%
X141798000Y-109331900D02*
X143433900Y-107696000D01*
X141798000Y-109542400D02*
X141798000Y-109331900D01*
X145618300Y-107696000D02*
X145694400Y-107772100D01*
X143433900Y-107696000D02*
X145618300Y-107696000D01*
X141798000Y-109542400D02*
X141798000Y-109514500D01*
X141027600Y-98189600D02*
X142084500Y-98189600D01*
X140672000Y-98545200D02*
X141027600Y-98189600D01*
X140672000Y-102724400D02*
X140672000Y-99053200D01*
X140672000Y-102724400D02*
X135592000Y-102724400D01*
X140672000Y-105102100D02*
X140672000Y-102724400D01*
X135057200Y-102189600D02*
X133759500Y-102189600D01*
X135592000Y-102724400D02*
X135057200Y-102189600D01*
X135592000Y-102724400D02*
X135592000Y-99053200D01*
X135273600Y-98189600D02*
X133759500Y-98189600D01*
X135592000Y-98508000D02*
X135273600Y-98189600D01*
X135172000Y-98088000D02*
X135172000Y-96777100D01*
X135273600Y-98189600D02*
X135172000Y-98088000D01*
X140672000Y-99053200D02*
X140672000Y-98545200D01*
X135592000Y-99053200D02*
X135592000Y-98508000D01*
X141798000Y-109542400D02*
X141241600Y-109542400D01*
X139471300Y-109067600D02*
X138404500Y-108000800D01*
X140766800Y-109067600D02*
X139471300Y-109067600D01*
X132105500Y-109651700D02*
X132105500Y-110896400D01*
X132689600Y-109067600D02*
X132105500Y-109651700D01*
X139471300Y-109067600D02*
X132689600Y-109067600D01*
X141071600Y-109372400D02*
X140766800Y-109067600D01*
X141241600Y-109542400D02*
X141071600Y-109372400D01*
D22*
X145694400Y-107772100D02*
X145694400Y-107289600D01*
X144642201Y-106237401D02*
X144642201Y-105453299D01*
X145694400Y-107289600D02*
X144642201Y-106237401D01*
D21*
X140766800Y-109067600D02*
X140766800Y-108864400D01*
X140766800Y-108864400D02*
X140919200Y-108712000D01*
X140919200Y-108712000D02*
X140919200Y-106019600D01*
X140672000Y-105772400D02*
X140672000Y-105102100D01*
X140919200Y-106019600D02*
X140672000Y-105772400D01*
X142084500Y-98189600D02*
X145034000Y-95240100D01*
X145034000Y-95240100D02*
X145034000Y-95240100D01*
D22*
X145694400Y-107772100D02*
X147599300Y-107772100D01*
X149504400Y-109677200D02*
X151180800Y-109677200D01*
X147599300Y-107772100D02*
X149504400Y-109677200D01*
D21*
%TO.N,/NRST*%
X132798800Y-107492800D02*
X132798800Y-106128800D01*
X132798800Y-106128800D02*
X131775200Y-105105200D01*
X131775200Y-105105200D02*
X131775200Y-102108000D01*
X132693600Y-101189600D02*
X133759500Y-101189600D01*
X131775200Y-102108000D02*
X132693600Y-101189600D01*
X130530500Y-109761100D02*
X132798800Y-107492800D01*
X130530500Y-110896400D02*
X130530500Y-109761100D01*
X128701900Y-110896400D02*
X130530500Y-110896400D01*
%TO.N,Net-(C5-Pad1)*%
X129674800Y-100189600D02*
X129387600Y-99902400D01*
X133759500Y-100189600D02*
X129674800Y-100189600D01*
X126995900Y-99902400D02*
X126238000Y-100660300D01*
X129387600Y-99902400D02*
X126995900Y-99902400D01*
%TO.N,Net-(C6-Pad1)*%
X132300400Y-100689600D02*
X129387600Y-103602400D01*
X133759500Y-100689600D02*
X132300400Y-100689600D01*
X127249900Y-103602400D02*
X126238000Y-102590500D01*
X129387600Y-103602400D02*
X127249900Y-103602400D01*
D22*
%TO.N,+BATT*%
X136370300Y-110998000D02*
X137183100Y-111810800D01*
X139877900Y-111810800D02*
X140055600Y-111633100D01*
X137183100Y-111810800D02*
X139877900Y-111810800D01*
X141688700Y-111633100D02*
X141798000Y-111742400D01*
X140055600Y-111633100D02*
X141688700Y-111633100D01*
X141798000Y-111742400D02*
X141798000Y-112892800D01*
X141798000Y-112892800D02*
X142240000Y-113334800D01*
X142240000Y-113334800D02*
X143002000Y-113334800D01*
X143698000Y-112638800D02*
X143698000Y-111742400D01*
X143002000Y-113334800D02*
X143698000Y-112638800D01*
D21*
%TO.N,Net-(D1-Pad2)*%
X146337001Y-103878299D02*
X146354800Y-103860500D01*
X144642201Y-103878299D02*
X146337001Y-103878299D01*
D22*
%TO.N,Net-(F1-Pad2)*%
X134315200Y-111178100D02*
X134495300Y-110998000D01*
X134467600Y-114350800D02*
X134467600Y-111025700D01*
D23*
%TO.N,/SWO*%
X147015200Y-95029010D02*
X147015200Y-90220800D01*
X142084500Y-99189600D02*
X142854610Y-99189600D01*
D21*
X147015200Y-95504000D02*
X147015200Y-95029010D01*
X142854610Y-99189600D02*
X143329600Y-99189600D01*
X143329600Y-99189600D02*
X147015200Y-95504000D01*
%TO.N,/SWCLK*%
X140672000Y-96777100D02*
X140672000Y-96005200D01*
D23*
X144475200Y-92973900D02*
X140672000Y-96777100D01*
X144475200Y-90220800D02*
X144475200Y-92973900D01*
%TO.N,/PB9*%
X136172000Y-96006990D02*
X135618210Y-95453200D01*
X136172000Y-96777100D02*
X136172000Y-96006990D01*
X123799600Y-95453200D02*
X122580400Y-94234000D01*
X135618210Y-95453200D02*
X123799600Y-95453200D01*
D21*
%TO.N,/PB8*%
X136672000Y-96777100D02*
X136655100Y-96777100D01*
X136649010Y-96771010D02*
X136649010Y-95450210D01*
X136655100Y-96777100D02*
X136649010Y-96771010D01*
X136649010Y-95450210D02*
X135788400Y-94589600D01*
X135788400Y-94589600D02*
X128727200Y-94589600D01*
X124612400Y-90474800D02*
X124612400Y-90271600D01*
X128727200Y-94589600D02*
X124612400Y-90474800D01*
%TO.N,/PB7*%
X137672000Y-95971072D02*
X137668000Y-95967072D01*
X137672000Y-96777100D02*
X137672000Y-95971072D01*
X137668000Y-95967072D02*
X137668000Y-95199200D01*
X137668000Y-95199200D02*
X136448800Y-93980000D01*
X130860800Y-93980000D02*
X127152400Y-90271600D01*
X136448800Y-93980000D02*
X130860800Y-93980000D01*
%TO.N,/PB6*%
X132689600Y-93268800D02*
X129692400Y-90271600D01*
X136448800Y-93268800D02*
X132689600Y-93268800D01*
X138172000Y-96777100D02*
X138172000Y-94992000D01*
X138172000Y-94992000D02*
X136448800Y-93268800D01*
%TO.N,/PB5*%
X138672000Y-96777100D02*
X138672000Y-96762000D01*
X138649010Y-96739010D02*
X138649010Y-94707010D01*
X138672000Y-96762000D02*
X138649010Y-96739010D01*
X138649010Y-94707010D02*
X136245600Y-92303600D01*
X134264400Y-92303600D02*
X132232400Y-90271600D01*
X136245600Y-92303600D02*
X134264400Y-92303600D01*
%TO.N,/PB4*%
X139149010Y-96731010D02*
X139149010Y-94191010D01*
X139172000Y-96777100D02*
X139172000Y-96754000D01*
X139172000Y-96754000D02*
X139149010Y-96731010D01*
X135229600Y-90271600D02*
X134772400Y-90271600D01*
X139149010Y-94191010D02*
X135229600Y-90271600D01*
%TO.N,/PB10*%
X139172000Y-105102100D02*
X139172000Y-105531600D01*
X139172000Y-105531600D02*
X139149010Y-105554590D01*
D23*
X139172000Y-106306910D02*
X138887200Y-106591710D01*
X138887200Y-106591710D02*
X138887200Y-106934000D01*
X139172000Y-105102100D02*
X139172000Y-106306910D01*
D21*
%TO.N,/PB11*%
X139672000Y-105226500D02*
X139672000Y-106578400D01*
X139672000Y-106454000D02*
X139672000Y-106454000D01*
%TO.N,/PB12*%
X142084500Y-103689600D02*
X142094400Y-103689600D01*
X142094400Y-103689600D02*
X143002000Y-104597200D01*
X143002000Y-104597200D02*
X143002000Y-104597200D01*
%TO.N,/PB13*%
X143118400Y-103189600D02*
X143560800Y-103632000D01*
X142084500Y-103189600D02*
X143118400Y-103189600D01*
%TO.N,/PB14*%
X146687600Y-102689600D02*
X146710400Y-102666800D01*
X142084500Y-102689600D02*
X146687600Y-102689600D01*
X148234400Y-105460800D02*
X149758400Y-106984800D01*
X146710400Y-102666800D02*
X147015200Y-102666800D01*
X147015200Y-102666800D02*
X148234400Y-103886000D01*
X148234400Y-103886000D02*
X148234400Y-105460800D01*
%TO.N,/PB15*%
X147503200Y-102189600D02*
X142084500Y-102189600D01*
X149758400Y-104444800D02*
X147503200Y-102189600D01*
D23*
%TO.N,/PA5*%
X136172000Y-105102100D02*
X136172000Y-106144000D01*
X136172000Y-106144000D02*
X135636000Y-106680000D01*
X135636000Y-106680000D02*
X135636000Y-106883200D01*
X135636000Y-106883200D02*
X135534400Y-106984800D01*
X135534400Y-106984800D02*
X135534400Y-106984800D01*
%TO.N,/PA4*%
X135672000Y-105102100D02*
X135672000Y-106034400D01*
X135672000Y-106034400D02*
X135077200Y-106629200D01*
X135077200Y-106629200D02*
X135077200Y-106629200D01*
%TO.N,/PA3*%
X135172000Y-105102100D02*
X134159700Y-105102100D01*
X134159700Y-105102100D02*
X134159700Y-105102100D01*
%TO.N,/PA2*%
X133759500Y-103689600D02*
X133126350Y-104322750D01*
X133126350Y-104322750D02*
X133105900Y-104343200D01*
%TO.N,/PA1*%
X133759500Y-103189600D02*
X132624000Y-103189600D01*
X132624000Y-103189600D02*
X132435600Y-103378000D01*
X132435600Y-103378000D02*
X132435600Y-103378000D01*
%TO.N,/PA0*%
X133759500Y-102689600D02*
X132712400Y-102689600D01*
X132712400Y-102689600D02*
X132486400Y-102463600D01*
X132486400Y-102463600D02*
X132486400Y-102463600D01*
%TO.N,/PA6*%
X136672000Y-105102100D02*
X136672000Y-106253600D01*
X136672000Y-106253600D02*
X136245600Y-106680000D01*
X136245600Y-106680000D02*
X136245600Y-106984800D01*
X136245600Y-106984800D02*
X136245600Y-106984800D01*
%TO.N,/PA7*%
X137172000Y-105102100D02*
X137172000Y-106515600D01*
X137172000Y-106515600D02*
X136956800Y-106730800D01*
X136956800Y-106730800D02*
X136956800Y-106730800D01*
D21*
%TO.N,/PA8*%
X142098590Y-101712590D02*
X149566190Y-101712590D01*
X149566190Y-101712590D02*
X149758400Y-101904800D01*
X142084500Y-101698500D02*
X142098590Y-101712590D01*
X142084500Y-101689600D02*
X142084500Y-101698500D01*
%TO.N,/PA9*%
X142100390Y-101212590D02*
X147910610Y-101212590D01*
X142084500Y-101196700D02*
X142100390Y-101212590D01*
X147910610Y-101212590D02*
X149758400Y-99364800D01*
X142084500Y-101189600D02*
X142084500Y-101196700D01*
%TO.N,/PA10*%
X145893600Y-100689600D02*
X149758400Y-96824800D01*
X142084500Y-100689600D02*
X145893600Y-100689600D01*
%TO.N,/PA11*%
X142084500Y-100189600D02*
X143040800Y-100189600D01*
X148945600Y-94284800D02*
X149758400Y-94284800D01*
X143040800Y-100189600D02*
X148945600Y-94284800D01*
D23*
%TO.N,/PC13*%
X133759500Y-98689600D02*
X132776400Y-98689600D01*
X132776400Y-98689600D02*
X130454400Y-96367600D01*
X122986800Y-96367600D02*
X122580400Y-96774000D01*
X130454400Y-96367600D02*
X122986800Y-96367600D01*
%TO.N,/PC14*%
X133759500Y-99189600D02*
X132362000Y-99189600D01*
X132362000Y-99189600D02*
X130860800Y-97688400D01*
X130860800Y-97688400D02*
X128016000Y-97688400D01*
X128016000Y-97688400D02*
X127863600Y-97536000D01*
X124358400Y-97536000D02*
X122580400Y-99314000D01*
X127863600Y-97536000D02*
X124358400Y-97536000D01*
%TO.N,/PC15*%
X124968000Y-98552000D02*
X124968000Y-99466400D01*
X125476000Y-98044000D02*
X124968000Y-98552000D01*
X124968000Y-99466400D02*
X122580400Y-101854000D01*
X132201600Y-99689600D02*
X130708400Y-98196400D01*
X133759500Y-99689600D02*
X132201600Y-99689600D01*
X127660400Y-98044000D02*
X125476000Y-98044000D01*
X130708400Y-98196400D02*
X127812800Y-98196400D01*
X127812800Y-98196400D02*
X127660400Y-98044000D01*
%TO.N,/PB0*%
X137672000Y-104956800D02*
X137668000Y-104952800D01*
X137672000Y-105102100D02*
X137672000Y-104956800D01*
X137672000Y-104042400D02*
X137515600Y-103886000D01*
X137672000Y-105102100D02*
X137672000Y-104042400D01*
%TO.N,/PB1*%
X138172000Y-105102100D02*
X138172000Y-103788400D01*
X138172000Y-103788400D02*
X138172000Y-103788400D01*
X138172000Y-103788400D02*
X138172000Y-103788400D01*
D21*
%TO.N,/PB3*%
X139649010Y-92608210D02*
X137312400Y-90271600D01*
X139649010Y-96773810D02*
X139649010Y-92608210D01*
X139652300Y-96777100D02*
X139649010Y-96773810D01*
X139672000Y-96777100D02*
X139652300Y-96777100D01*
%TO.N,Net-(R2-Pad2)*%
X137172000Y-99048000D02*
X137172000Y-96777100D01*
X137109200Y-99110800D02*
X137172000Y-99048000D01*
D23*
%TO.N,/BOOT1*%
X136855200Y-108000800D02*
X136728300Y-108000800D01*
X138672000Y-105102100D02*
X138672000Y-106184000D01*
X138672000Y-106184000D02*
X136855200Y-108000800D01*
%TD*%
D21*
%TO.N,GND*%
G36*
X150573209Y-88216667D02*
G01*
X150819463Y-88291015D01*
X151046591Y-88411781D01*
X151245931Y-88574360D01*
X151409901Y-88772566D01*
X151532247Y-88998840D01*
X151608315Y-89244575D01*
X151638400Y-89530812D01*
X151638401Y-108259392D01*
X151613958Y-108249268D01*
X151327060Y-108192200D01*
X151034540Y-108192200D01*
X150747642Y-108249268D01*
X150477389Y-108361210D01*
X150234168Y-108523725D01*
X150027325Y-108730568D01*
X149946387Y-108851700D01*
X149846333Y-108851700D01*
X148211698Y-107217066D01*
X148185841Y-107185559D01*
X148060142Y-107082401D01*
X147916734Y-107005747D01*
X147761126Y-106958544D01*
X147639853Y-106946600D01*
X147639850Y-106946600D01*
X147599300Y-106942606D01*
X147558750Y-106946600D01*
X146555437Y-106946600D01*
X146426675Y-106840929D01*
X146368623Y-106809899D01*
X146318534Y-106748867D01*
X146280941Y-106703059D01*
X146249439Y-106677206D01*
X146074641Y-106502409D01*
X146227800Y-106349250D01*
X146227800Y-105562500D01*
X146481800Y-105562500D01*
X146481800Y-106349250D01*
X146640550Y-106508000D01*
X146829800Y-106511072D01*
X146954282Y-106498812D01*
X147073980Y-106462502D01*
X147184294Y-106403537D01*
X147280985Y-106324185D01*
X147360337Y-106227494D01*
X147419302Y-106117180D01*
X147455612Y-105997482D01*
X147467872Y-105873000D01*
X147464800Y-105721250D01*
X147306050Y-105562500D01*
X146481800Y-105562500D01*
X146227800Y-105562500D01*
X146207800Y-105562500D01*
X146207800Y-105308500D01*
X146227800Y-105308500D01*
X146227800Y-105288500D01*
X146481800Y-105288500D01*
X146481800Y-105308500D01*
X147306050Y-105308500D01*
X147464800Y-105149750D01*
X147467872Y-104998000D01*
X147455612Y-104873518D01*
X147419302Y-104753820D01*
X147360337Y-104643506D01*
X147305700Y-104576930D01*
X147323471Y-104555275D01*
X147402650Y-104407142D01*
X147451408Y-104246408D01*
X147457305Y-104186536D01*
X147472400Y-104201631D01*
X147472401Y-105423367D01*
X147468714Y-105460800D01*
X147483427Y-105610178D01*
X147526999Y-105753815D01*
X147597755Y-105886192D01*
X147653452Y-105954058D01*
X147692979Y-106002222D01*
X147722049Y-106026079D01*
X148476600Y-106780631D01*
X148476600Y-106927860D01*
X148533668Y-107214758D01*
X148645610Y-107485011D01*
X148808125Y-107728232D01*
X149014968Y-107935075D01*
X149258189Y-108097590D01*
X149528442Y-108209532D01*
X149815340Y-108266600D01*
X150107860Y-108266600D01*
X150394758Y-108209532D01*
X150665011Y-108097590D01*
X150908232Y-107935075D01*
X151115075Y-107728232D01*
X151277590Y-107485011D01*
X151389532Y-107214758D01*
X151446600Y-106927860D01*
X151446600Y-106635340D01*
X151389532Y-106348442D01*
X151277590Y-106078189D01*
X151115075Y-105834968D01*
X150908232Y-105628125D01*
X150733840Y-105511600D01*
X150908232Y-105395075D01*
X151115075Y-105188232D01*
X151277590Y-104945011D01*
X151389532Y-104674758D01*
X151446600Y-104387860D01*
X151446600Y-104095340D01*
X151389532Y-103808442D01*
X151277590Y-103538189D01*
X151115075Y-103294968D01*
X150908232Y-103088125D01*
X150733840Y-102971600D01*
X150908232Y-102855075D01*
X151115075Y-102648232D01*
X151277590Y-102405011D01*
X151389532Y-102134758D01*
X151446600Y-101847860D01*
X151446600Y-101555340D01*
X151389532Y-101268442D01*
X151277590Y-100998189D01*
X151115075Y-100754968D01*
X150908232Y-100548125D01*
X150733840Y-100431600D01*
X150908232Y-100315075D01*
X151115075Y-100108232D01*
X151277590Y-99865011D01*
X151389532Y-99594758D01*
X151446600Y-99307860D01*
X151446600Y-99015340D01*
X151389532Y-98728442D01*
X151277590Y-98458189D01*
X151115075Y-98214968D01*
X150908232Y-98008125D01*
X150733840Y-97891600D01*
X150908232Y-97775075D01*
X151115075Y-97568232D01*
X151277590Y-97325011D01*
X151389532Y-97054758D01*
X151446600Y-96767860D01*
X151446600Y-96475340D01*
X151389532Y-96188442D01*
X151277590Y-95918189D01*
X151115075Y-95674968D01*
X150983220Y-95543113D01*
X151055780Y-95521102D01*
X151166094Y-95462137D01*
X151262785Y-95382785D01*
X151342137Y-95286094D01*
X151401102Y-95175780D01*
X151437412Y-95056082D01*
X151449672Y-94931600D01*
X151449672Y-93231600D01*
X151437412Y-93107118D01*
X151401102Y-92987420D01*
X151342137Y-92877106D01*
X151262785Y-92780415D01*
X151166094Y-92701063D01*
X151055780Y-92642098D01*
X150936082Y-92605788D01*
X150811600Y-92593528D01*
X149111600Y-92593528D01*
X148987118Y-92605788D01*
X148867420Y-92642098D01*
X148757106Y-92701063D01*
X148660415Y-92780415D01*
X148581063Y-92877106D01*
X148522098Y-92987420D01*
X148485788Y-93107118D01*
X148473528Y-93231600D01*
X148473528Y-93686464D01*
X148404178Y-93743378D01*
X148380321Y-93772448D01*
X147751800Y-94400969D01*
X147751800Y-91514614D01*
X147961832Y-91374275D01*
X148093687Y-91242420D01*
X148115698Y-91314980D01*
X148174663Y-91425294D01*
X148254015Y-91521985D01*
X148350706Y-91601337D01*
X148461020Y-91660302D01*
X148580718Y-91696612D01*
X148705200Y-91708872D01*
X150405200Y-91708872D01*
X150529682Y-91696612D01*
X150649380Y-91660302D01*
X150759694Y-91601337D01*
X150856385Y-91521985D01*
X150935737Y-91425294D01*
X150994702Y-91314980D01*
X151031012Y-91195282D01*
X151043272Y-91070800D01*
X151043272Y-89370800D01*
X151031012Y-89246318D01*
X150994702Y-89126620D01*
X150935737Y-89016306D01*
X150856385Y-88919615D01*
X150759694Y-88840263D01*
X150649380Y-88781298D01*
X150529682Y-88744988D01*
X150405200Y-88732728D01*
X148705200Y-88732728D01*
X148580718Y-88744988D01*
X148461020Y-88781298D01*
X148350706Y-88840263D01*
X148254015Y-88919615D01*
X148174663Y-89016306D01*
X148115698Y-89126620D01*
X148093687Y-89199180D01*
X147961832Y-89067325D01*
X147718611Y-88904810D01*
X147448358Y-88792868D01*
X147161460Y-88735800D01*
X146868940Y-88735800D01*
X146582042Y-88792868D01*
X146311789Y-88904810D01*
X146068568Y-89067325D01*
X145861725Y-89274168D01*
X145745200Y-89448560D01*
X145628675Y-89274168D01*
X145421832Y-89067325D01*
X145178611Y-88904810D01*
X144908358Y-88792868D01*
X144621460Y-88735800D01*
X144328940Y-88735800D01*
X144042042Y-88792868D01*
X143771789Y-88904810D01*
X143528568Y-89067325D01*
X143321725Y-89274168D01*
X143200005Y-89456334D01*
X143130378Y-89339445D01*
X142935469Y-89123212D01*
X142702120Y-88949159D01*
X142439299Y-88823975D01*
X142292090Y-88779324D01*
X142062200Y-88900645D01*
X142062200Y-90093800D01*
X142082200Y-90093800D01*
X142082200Y-90347800D01*
X142062200Y-90347800D01*
X142062200Y-91540955D01*
X142292090Y-91662276D01*
X142439299Y-91617625D01*
X142702120Y-91492441D01*
X142935469Y-91318388D01*
X143130378Y-91102155D01*
X143200005Y-90985266D01*
X143321725Y-91167432D01*
X143528568Y-91374275D01*
X143738600Y-91514614D01*
X143738601Y-92668789D01*
X141059232Y-95348158D01*
X140965015Y-95297798D01*
X140821378Y-95254226D01*
X140672000Y-95239514D01*
X140522623Y-95254226D01*
X140411010Y-95288084D01*
X140411010Y-92645633D01*
X140414696Y-92608210D01*
X140411010Y-92570784D01*
X140399984Y-92458832D01*
X140356412Y-92315195D01*
X140312871Y-92233736D01*
X140285655Y-92182817D01*
X140250867Y-92140429D01*
X140190432Y-92066788D01*
X140161356Y-92042926D01*
X138754079Y-90635649D01*
X138765607Y-90577691D01*
X140493719Y-90577691D01*
X140591043Y-90852052D01*
X140740022Y-91102155D01*
X140934931Y-91318388D01*
X141168280Y-91492441D01*
X141431101Y-91617625D01*
X141578310Y-91662276D01*
X141808200Y-91540955D01*
X141808200Y-90347800D01*
X140614386Y-90347800D01*
X140493719Y-90577691D01*
X138765607Y-90577691D01*
X138797400Y-90417860D01*
X138797400Y-90125340D01*
X138745398Y-89863909D01*
X140493719Y-89863909D01*
X140614386Y-90093800D01*
X141808200Y-90093800D01*
X141808200Y-88900645D01*
X141578310Y-88779324D01*
X141431101Y-88823975D01*
X141168280Y-88949159D01*
X140934931Y-89123212D01*
X140740022Y-89339445D01*
X140591043Y-89589548D01*
X140493719Y-89863909D01*
X138745398Y-89863909D01*
X138740332Y-89838442D01*
X138628390Y-89568189D01*
X138465875Y-89324968D01*
X138259032Y-89118125D01*
X138015811Y-88955610D01*
X137745558Y-88843668D01*
X137458660Y-88786600D01*
X137166140Y-88786600D01*
X136879242Y-88843668D01*
X136608989Y-88955610D01*
X136365768Y-89118125D01*
X136158925Y-89324968D01*
X136042400Y-89499360D01*
X135925875Y-89324968D01*
X135719032Y-89118125D01*
X135475811Y-88955610D01*
X135205558Y-88843668D01*
X134918660Y-88786600D01*
X134626140Y-88786600D01*
X134339242Y-88843668D01*
X134068989Y-88955610D01*
X133825768Y-89118125D01*
X133618925Y-89324968D01*
X133502400Y-89499360D01*
X133385875Y-89324968D01*
X133179032Y-89118125D01*
X132935811Y-88955610D01*
X132665558Y-88843668D01*
X132378660Y-88786600D01*
X132086140Y-88786600D01*
X131799242Y-88843668D01*
X131528989Y-88955610D01*
X131285768Y-89118125D01*
X131078925Y-89324968D01*
X130962400Y-89499360D01*
X130845875Y-89324968D01*
X130639032Y-89118125D01*
X130395811Y-88955610D01*
X130125558Y-88843668D01*
X129838660Y-88786600D01*
X129546140Y-88786600D01*
X129259242Y-88843668D01*
X128988989Y-88955610D01*
X128745768Y-89118125D01*
X128538925Y-89324968D01*
X128422400Y-89499360D01*
X128305875Y-89324968D01*
X128099032Y-89118125D01*
X127855811Y-88955610D01*
X127585558Y-88843668D01*
X127298660Y-88786600D01*
X127006140Y-88786600D01*
X126719242Y-88843668D01*
X126448989Y-88955610D01*
X126205768Y-89118125D01*
X126073913Y-89249980D01*
X126051902Y-89177420D01*
X125992937Y-89067106D01*
X125913585Y-88970415D01*
X125816894Y-88891063D01*
X125706580Y-88832098D01*
X125586882Y-88795788D01*
X125462400Y-88783528D01*
X123762400Y-88783528D01*
X123637918Y-88795788D01*
X123518220Y-88832098D01*
X123407906Y-88891063D01*
X123311215Y-88970415D01*
X123231863Y-89067106D01*
X123172898Y-89177420D01*
X123136588Y-89297118D01*
X123124328Y-89421600D01*
X123124328Y-91121600D01*
X123136588Y-91246082D01*
X123172898Y-91365780D01*
X123231863Y-91476094D01*
X123311215Y-91572785D01*
X123407906Y-91652137D01*
X123518220Y-91711102D01*
X123637918Y-91747412D01*
X123762400Y-91759672D01*
X124819642Y-91759672D01*
X127776569Y-94716600D01*
X124104710Y-94716600D01*
X124068472Y-94680362D01*
X124068472Y-93384000D01*
X124056212Y-93259518D01*
X124019902Y-93139820D01*
X123960937Y-93029506D01*
X123881585Y-92932815D01*
X123784894Y-92853463D01*
X123674580Y-92794498D01*
X123554882Y-92758188D01*
X123430400Y-92745928D01*
X121730400Y-92745928D01*
X121605918Y-92758188D01*
X121486220Y-92794498D01*
X121375906Y-92853463D01*
X121279215Y-92932815D01*
X121199863Y-93029506D01*
X121140898Y-93139820D01*
X121104588Y-93259518D01*
X121092328Y-93384000D01*
X121092328Y-95084000D01*
X121104588Y-95208482D01*
X121140898Y-95328180D01*
X121199863Y-95438494D01*
X121279215Y-95535185D01*
X121375906Y-95614537D01*
X121486220Y-95673502D01*
X121558780Y-95695513D01*
X121426925Y-95827368D01*
X121264410Y-96070589D01*
X121152468Y-96340842D01*
X121095400Y-96627740D01*
X121095400Y-96920260D01*
X121152468Y-97207158D01*
X121264410Y-97477411D01*
X121426925Y-97720632D01*
X121633768Y-97927475D01*
X121808160Y-98044000D01*
X121633768Y-98160525D01*
X121426925Y-98367368D01*
X121264410Y-98610589D01*
X121152468Y-98880842D01*
X121095400Y-99167740D01*
X121095400Y-99460260D01*
X121152468Y-99747158D01*
X121264410Y-100017411D01*
X121426925Y-100260632D01*
X121633768Y-100467475D01*
X121808160Y-100584000D01*
X121633768Y-100700525D01*
X121426925Y-100907368D01*
X121264410Y-101150589D01*
X121152468Y-101420842D01*
X121095400Y-101707740D01*
X121095400Y-102000260D01*
X121152468Y-102287158D01*
X121264410Y-102557411D01*
X121426925Y-102800632D01*
X121633768Y-103007475D01*
X121808160Y-103124000D01*
X121633768Y-103240525D01*
X121426925Y-103447368D01*
X121264410Y-103690589D01*
X121152468Y-103960842D01*
X121095400Y-104247740D01*
X121095400Y-104540260D01*
X121152468Y-104827158D01*
X121264410Y-105097411D01*
X121426925Y-105340632D01*
X121633768Y-105547475D01*
X121808160Y-105664000D01*
X121633768Y-105780525D01*
X121426925Y-105987368D01*
X121264410Y-106230589D01*
X121152468Y-106500842D01*
X121095400Y-106787740D01*
X121095400Y-107080260D01*
X121152468Y-107367158D01*
X121264410Y-107637411D01*
X121426925Y-107880632D01*
X121633768Y-108087475D01*
X121876989Y-108249990D01*
X122147242Y-108361932D01*
X122434140Y-108419000D01*
X122726660Y-108419000D01*
X123013558Y-108361932D01*
X123180458Y-108292800D01*
X125760728Y-108292800D01*
X125772988Y-108417282D01*
X125809298Y-108536980D01*
X125868263Y-108647294D01*
X125947615Y-108743985D01*
X126044306Y-108823337D01*
X126154620Y-108882302D01*
X126274318Y-108918612D01*
X126398800Y-108930872D01*
X127113050Y-108927800D01*
X127271800Y-108769050D01*
X127271800Y-107619800D01*
X127525800Y-107619800D01*
X127525800Y-108769050D01*
X127684550Y-108927800D01*
X128398800Y-108930872D01*
X128523282Y-108918612D01*
X128642980Y-108882302D01*
X128753294Y-108823337D01*
X128849985Y-108743985D01*
X128929337Y-108647294D01*
X128988302Y-108536980D01*
X129024612Y-108417282D01*
X129036872Y-108292800D01*
X129033800Y-107778550D01*
X128875050Y-107619800D01*
X127525800Y-107619800D01*
X127271800Y-107619800D01*
X125922550Y-107619800D01*
X125763800Y-107778550D01*
X125760728Y-108292800D01*
X123180458Y-108292800D01*
X123283811Y-108249990D01*
X123527032Y-108087475D01*
X123733875Y-107880632D01*
X123896390Y-107637411D01*
X124008332Y-107367158D01*
X124065400Y-107080260D01*
X124065400Y-106787740D01*
X124046516Y-106692800D01*
X125760728Y-106692800D01*
X125763800Y-107207050D01*
X125922550Y-107365800D01*
X127271800Y-107365800D01*
X127271800Y-106216550D01*
X127525800Y-106216550D01*
X127525800Y-107365800D01*
X128875050Y-107365800D01*
X129033800Y-107207050D01*
X129036872Y-106692800D01*
X129024612Y-106568318D01*
X128988302Y-106448620D01*
X128929337Y-106338306D01*
X128849985Y-106241615D01*
X128753294Y-106162263D01*
X128642980Y-106103298D01*
X128523282Y-106066988D01*
X128398800Y-106054728D01*
X127684550Y-106057800D01*
X127525800Y-106216550D01*
X127271800Y-106216550D01*
X127113050Y-106057800D01*
X126398800Y-106054728D01*
X126274318Y-106066988D01*
X126154620Y-106103298D01*
X126044306Y-106162263D01*
X125947615Y-106241615D01*
X125868263Y-106338306D01*
X125809298Y-106448620D01*
X125772988Y-106568318D01*
X125760728Y-106692800D01*
X124046516Y-106692800D01*
X124008332Y-106500842D01*
X123896390Y-106230589D01*
X123733875Y-105987368D01*
X123527032Y-105780525D01*
X123352640Y-105664000D01*
X123527032Y-105547475D01*
X123733875Y-105340632D01*
X123896390Y-105097411D01*
X124008332Y-104827158D01*
X124052920Y-104603000D01*
X125124928Y-104603000D01*
X125137188Y-104727482D01*
X125173498Y-104847180D01*
X125232463Y-104957494D01*
X125311815Y-105054185D01*
X125408506Y-105133537D01*
X125518820Y-105192502D01*
X125638518Y-105228812D01*
X125763000Y-105241072D01*
X125952250Y-105238000D01*
X126111000Y-105079250D01*
X126111000Y-104292500D01*
X125286750Y-104292500D01*
X125128000Y-104451250D01*
X125124928Y-104603000D01*
X124052920Y-104603000D01*
X124065400Y-104540260D01*
X124065400Y-104247740D01*
X124008332Y-103960842D01*
X123896390Y-103690589D01*
X123733875Y-103447368D01*
X123527032Y-103240525D01*
X123352640Y-103124000D01*
X123527032Y-103007475D01*
X123733875Y-102800632D01*
X123896390Y-102557411D01*
X124008332Y-102287158D01*
X124065400Y-102000260D01*
X124065400Y-101707740D01*
X124016119Y-101459990D01*
X125134801Y-100341309D01*
X125124928Y-100441550D01*
X125124928Y-100879050D01*
X125141392Y-101046208D01*
X125190150Y-101206942D01*
X125269329Y-101355075D01*
X125375885Y-101484915D01*
X125505725Y-101591471D01*
X125569201Y-101625400D01*
X125505725Y-101659329D01*
X125375885Y-101765885D01*
X125269329Y-101895725D01*
X125190150Y-102043858D01*
X125141392Y-102204592D01*
X125124928Y-102371750D01*
X125124928Y-102809250D01*
X125141392Y-102976408D01*
X125190150Y-103137142D01*
X125269329Y-103285275D01*
X125287100Y-103306930D01*
X125232463Y-103373506D01*
X125173498Y-103483820D01*
X125137188Y-103603518D01*
X125124928Y-103728000D01*
X125128000Y-103879750D01*
X125286750Y-104038500D01*
X126111000Y-104038500D01*
X126111000Y-104018500D01*
X126365000Y-104018500D01*
X126365000Y-104038500D01*
X126385000Y-104038500D01*
X126385000Y-104292500D01*
X126365000Y-104292500D01*
X126365000Y-105079250D01*
X126523750Y-105238000D01*
X126713000Y-105241072D01*
X126837482Y-105228812D01*
X126957180Y-105192502D01*
X127067494Y-105133537D01*
X127164185Y-105054185D01*
X127243537Y-104957494D01*
X127302502Y-104847180D01*
X127338812Y-104727482D01*
X127351072Y-104603000D01*
X127348000Y-104451250D01*
X127263497Y-104366747D01*
X127287323Y-104364400D01*
X127549528Y-104364400D01*
X127549528Y-104602400D01*
X127561788Y-104726882D01*
X127598098Y-104846580D01*
X127657063Y-104956894D01*
X127736415Y-105053585D01*
X127833106Y-105132937D01*
X127943420Y-105191902D01*
X128063118Y-105228212D01*
X128187600Y-105240472D01*
X130587600Y-105240472D01*
X130712082Y-105228212D01*
X130831780Y-105191902D01*
X130942094Y-105132937D01*
X131012471Y-105075180D01*
X131009514Y-105105200D01*
X131013200Y-105142623D01*
X131013200Y-105142625D01*
X131024226Y-105254577D01*
X131067798Y-105398214D01*
X131099786Y-105458059D01*
X131138555Y-105530592D01*
X131172722Y-105572224D01*
X131233778Y-105646622D01*
X131262854Y-105670484D01*
X131662840Y-106070470D01*
X131554620Y-106103298D01*
X131444306Y-106162263D01*
X131347615Y-106241615D01*
X131268263Y-106338306D01*
X131209298Y-106448620D01*
X131172988Y-106568318D01*
X131160728Y-106692800D01*
X131160728Y-108053242D01*
X130018149Y-109195821D01*
X129989079Y-109219678D01*
X129965222Y-109248748D01*
X129965221Y-109248749D01*
X129893855Y-109335708D01*
X129823099Y-109468085D01*
X129779527Y-109611722D01*
X129764814Y-109761100D01*
X129768501Y-109798533D01*
X129768501Y-109982898D01*
X129705885Y-110034285D01*
X129623723Y-110134400D01*
X129608677Y-110134400D01*
X129526515Y-110034285D01*
X129396675Y-109927729D01*
X129248542Y-109848550D01*
X129087808Y-109799792D01*
X128920650Y-109783328D01*
X128483150Y-109783328D01*
X128315992Y-109799792D01*
X128155258Y-109848550D01*
X128007125Y-109927729D01*
X127985470Y-109945500D01*
X127918894Y-109890863D01*
X127808580Y-109831898D01*
X127688882Y-109795588D01*
X127564400Y-109783328D01*
X127412650Y-109786400D01*
X127253900Y-109945150D01*
X127253900Y-110769400D01*
X127273900Y-110769400D01*
X127273900Y-111023400D01*
X127253900Y-111023400D01*
X127253900Y-111847650D01*
X127412650Y-112006400D01*
X127564400Y-112009472D01*
X127688882Y-111997212D01*
X127808580Y-111960902D01*
X127918894Y-111901937D01*
X127985470Y-111847300D01*
X128007125Y-111865071D01*
X128155258Y-111944250D01*
X128315992Y-111993008D01*
X128483150Y-112009472D01*
X128920650Y-112009472D01*
X129087808Y-111993008D01*
X129248542Y-111944250D01*
X129396675Y-111865071D01*
X129526515Y-111758515D01*
X129608677Y-111658400D01*
X129623723Y-111658400D01*
X129705885Y-111758515D01*
X129835725Y-111865071D01*
X129983858Y-111944250D01*
X130144592Y-111993008D01*
X130311750Y-112009472D01*
X130749250Y-112009472D01*
X130916408Y-111993008D01*
X131077142Y-111944250D01*
X131225275Y-111865071D01*
X131318000Y-111788974D01*
X131410725Y-111865071D01*
X131558858Y-111944250D01*
X131719592Y-111993008D01*
X131886750Y-112009472D01*
X132324250Y-112009472D01*
X132491408Y-111993008D01*
X132652142Y-111944250D01*
X132800275Y-111865071D01*
X132930115Y-111758515D01*
X133036671Y-111628675D01*
X133115850Y-111480542D01*
X133164608Y-111319808D01*
X133181072Y-111152650D01*
X133181072Y-110640150D01*
X133164608Y-110472992D01*
X133115850Y-110312258D01*
X133036671Y-110164125D01*
X132930115Y-110034285D01*
X132867500Y-109982899D01*
X132867500Y-109967330D01*
X133005231Y-109829600D01*
X133735977Y-109829600D01*
X133628008Y-109918208D01*
X133518342Y-110051836D01*
X133436853Y-110204291D01*
X133386672Y-110369715D01*
X133369728Y-110541750D01*
X133369728Y-111454250D01*
X133386672Y-111626285D01*
X133436853Y-111791709D01*
X133518342Y-111944164D01*
X133628008Y-112077792D01*
X133642101Y-112089358D01*
X133642100Y-112761128D01*
X133617600Y-112761128D01*
X133493118Y-112773388D01*
X133373420Y-112809698D01*
X133263106Y-112868663D01*
X133166415Y-112948015D01*
X133087063Y-113044706D01*
X133028098Y-113155020D01*
X132991788Y-113274718D01*
X132979528Y-113399200D01*
X132979528Y-115099200D01*
X132991788Y-115223682D01*
X133028098Y-115343380D01*
X133087063Y-115453694D01*
X133166415Y-115550385D01*
X133263106Y-115629737D01*
X133373420Y-115688702D01*
X133493118Y-115725012D01*
X133617600Y-115737272D01*
X135317600Y-115737272D01*
X135442082Y-115725012D01*
X135561780Y-115688702D01*
X135672094Y-115629737D01*
X135768785Y-115550385D01*
X135848137Y-115453694D01*
X135907102Y-115343380D01*
X135931566Y-115262734D01*
X136007331Y-115346788D01*
X136240680Y-115520841D01*
X136503501Y-115646025D01*
X136650710Y-115690676D01*
X136880600Y-115569355D01*
X136880600Y-114376200D01*
X137134600Y-114376200D01*
X137134600Y-115569355D01*
X137364490Y-115690676D01*
X137511699Y-115646025D01*
X137774520Y-115520841D01*
X138007869Y-115346788D01*
X138202778Y-115130555D01*
X138351757Y-114880452D01*
X138449081Y-114606091D01*
X138328414Y-114376200D01*
X137134600Y-114376200D01*
X136880600Y-114376200D01*
X136860600Y-114376200D01*
X136860600Y-114122200D01*
X136880600Y-114122200D01*
X136880600Y-112929045D01*
X137134600Y-112929045D01*
X137134600Y-114122200D01*
X138328414Y-114122200D01*
X138449081Y-113892309D01*
X138351757Y-113617948D01*
X138202778Y-113367845D01*
X138007869Y-113151612D01*
X137774520Y-112977559D01*
X137511699Y-112852375D01*
X137364490Y-112807724D01*
X137134600Y-112929045D01*
X136880600Y-112929045D01*
X136650710Y-112807724D01*
X136503501Y-112852375D01*
X136240680Y-112977559D01*
X136007331Y-113151612D01*
X135931566Y-113235666D01*
X135907102Y-113155020D01*
X135848137Y-113044706D01*
X135768785Y-112948015D01*
X135672094Y-112868663D01*
X135561780Y-112809698D01*
X135442082Y-112773388D01*
X135317600Y-112761128D01*
X135293100Y-112761128D01*
X135293100Y-112134823D01*
X135362592Y-112077792D01*
X135432800Y-111992244D01*
X135503008Y-112077792D01*
X135636636Y-112187458D01*
X135789091Y-112268947D01*
X135954515Y-112319128D01*
X136126550Y-112336072D01*
X136540938Y-112336072D01*
X136570711Y-112365844D01*
X136596559Y-112397341D01*
X136628055Y-112423189D01*
X136628058Y-112423192D01*
X136722257Y-112500499D01*
X136841566Y-112564271D01*
X136865666Y-112577153D01*
X137021274Y-112624356D01*
X137142547Y-112636300D01*
X137142549Y-112636300D01*
X137183100Y-112640294D01*
X137223650Y-112636300D01*
X137730881Y-112636300D01*
X137744258Y-112643450D01*
X137904992Y-112692208D01*
X138072150Y-112708672D01*
X138584650Y-112708672D01*
X138751808Y-112692208D01*
X138912542Y-112643450D01*
X138925919Y-112636300D01*
X139458081Y-112636300D01*
X139471458Y-112643450D01*
X139632192Y-112692208D01*
X139799350Y-112708672D01*
X140311850Y-112708672D01*
X140479008Y-112692208D01*
X140639742Y-112643450D01*
X140787875Y-112564271D01*
X140876021Y-112491932D01*
X140883498Y-112516580D01*
X140942463Y-112626894D01*
X140972501Y-112663495D01*
X140972501Y-112852240D01*
X140968506Y-112892800D01*
X140984445Y-113054626D01*
X141031647Y-113210233D01*
X141108301Y-113353642D01*
X141169863Y-113428654D01*
X141211460Y-113479341D01*
X141242961Y-113505193D01*
X141627602Y-113889834D01*
X141653459Y-113921341D01*
X141779158Y-114024499D01*
X141922566Y-114101153D01*
X142078174Y-114148356D01*
X142199447Y-114160300D01*
X142199456Y-114160300D01*
X142239999Y-114164293D01*
X142280542Y-114160300D01*
X142961450Y-114160300D01*
X143002000Y-114164294D01*
X143042550Y-114160300D01*
X143042553Y-114160300D01*
X143163826Y-114148356D01*
X143319434Y-114101153D01*
X143462842Y-114024499D01*
X143497943Y-113995693D01*
X143459124Y-114053789D01*
X143347182Y-114324042D01*
X143290114Y-114610940D01*
X143290114Y-114718756D01*
X143278820Y-114711210D01*
X143008567Y-114599268D01*
X142721669Y-114542200D01*
X142429149Y-114542200D01*
X142142251Y-114599268D01*
X141871998Y-114711210D01*
X141628777Y-114873725D01*
X141421934Y-115080568D01*
X141259419Y-115323789D01*
X141147477Y-115594042D01*
X141090409Y-115880940D01*
X141090409Y-115988756D01*
X141079116Y-115981210D01*
X140808863Y-115869268D01*
X140521965Y-115812200D01*
X140229445Y-115812200D01*
X139942547Y-115869268D01*
X139672294Y-115981210D01*
X139429073Y-116143725D01*
X139222230Y-116350568D01*
X139059715Y-116593789D01*
X138947773Y-116864042D01*
X138930426Y-116951253D01*
X138875556Y-116899862D01*
X138769334Y-116833809D01*
X138652267Y-116789748D01*
X138528854Y-116769372D01*
X138403837Y-116773465D01*
X138282021Y-116801868D01*
X138168086Y-116853491D01*
X136695842Y-117703491D01*
X136594168Y-117776350D01*
X136508662Y-117867644D01*
X136442609Y-117973866D01*
X136398548Y-118090933D01*
X136378172Y-118214346D01*
X136382265Y-118339363D01*
X136410668Y-118461179D01*
X136462291Y-118575114D01*
X137312291Y-120047358D01*
X137385150Y-120149032D01*
X137476444Y-120234538D01*
X137582666Y-120300591D01*
X137699733Y-120344652D01*
X137823146Y-120365028D01*
X137948163Y-120360935D01*
X138069979Y-120332532D01*
X138183914Y-120280909D01*
X139656158Y-119430909D01*
X139757832Y-119358050D01*
X139843338Y-119266756D01*
X139909391Y-119160534D01*
X139953452Y-119043467D01*
X139973828Y-118920054D01*
X139969735Y-118795037D01*
X139953965Y-118727403D01*
X140229445Y-118782200D01*
X140521965Y-118782200D01*
X140808863Y-118725132D01*
X141079116Y-118613190D01*
X141322337Y-118450675D01*
X141529180Y-118243832D01*
X141691695Y-118000611D01*
X141803637Y-117730358D01*
X141860705Y-117443460D01*
X141860705Y-117335644D01*
X141871998Y-117343190D01*
X142142251Y-117455132D01*
X142429149Y-117512200D01*
X142721669Y-117512200D01*
X143008567Y-117455132D01*
X143278820Y-117343190D01*
X143522041Y-117180675D01*
X143728884Y-116973832D01*
X143891399Y-116730611D01*
X144003341Y-116460358D01*
X144060409Y-116173460D01*
X144060409Y-116065644D01*
X144071703Y-116073190D01*
X144341956Y-116185132D01*
X144628854Y-116242200D01*
X144921374Y-116242200D01*
X145208272Y-116185132D01*
X145478525Y-116073190D01*
X145721746Y-115910675D01*
X145928589Y-115703832D01*
X146091104Y-115460611D01*
X146203046Y-115190358D01*
X146260114Y-114903460D01*
X146260114Y-114795644D01*
X146271407Y-114803190D01*
X146541660Y-114915132D01*
X146828558Y-114972200D01*
X147121078Y-114972200D01*
X147407976Y-114915132D01*
X147678229Y-114803190D01*
X147921450Y-114640675D01*
X148128293Y-114433832D01*
X148290808Y-114190611D01*
X148402750Y-113920358D01*
X148459818Y-113633460D01*
X148459818Y-113525644D01*
X148471112Y-113533190D01*
X148741365Y-113645132D01*
X149028263Y-113702200D01*
X149320783Y-113702200D01*
X149607681Y-113645132D01*
X149877934Y-113533190D01*
X150121155Y-113370675D01*
X150327998Y-113163832D01*
X150490513Y-112920611D01*
X150602455Y-112650358D01*
X150659523Y-112363460D01*
X150659523Y-112070940D01*
X150602455Y-111784042D01*
X150490513Y-111513789D01*
X150327998Y-111270568D01*
X150121155Y-111063725D01*
X149877934Y-110901210D01*
X149607681Y-110789268D01*
X149320783Y-110732200D01*
X149028263Y-110732200D01*
X148741365Y-110789268D01*
X148471112Y-110901210D01*
X148227891Y-111063725D01*
X148021048Y-111270568D01*
X147858533Y-111513789D01*
X147746591Y-111784042D01*
X147689523Y-112070940D01*
X147689523Y-112178756D01*
X147678229Y-112171210D01*
X147407976Y-112059268D01*
X147121078Y-112002200D01*
X146828558Y-112002200D01*
X146541660Y-112059268D01*
X146271407Y-112171210D01*
X146028186Y-112333725D01*
X145821343Y-112540568D01*
X145658828Y-112783789D01*
X145546886Y-113054042D01*
X145489818Y-113340940D01*
X145489818Y-113448756D01*
X145478525Y-113441210D01*
X145208272Y-113329268D01*
X144921374Y-113272200D01*
X144628854Y-113272200D01*
X144341956Y-113329268D01*
X144071703Y-113441210D01*
X144045545Y-113458688D01*
X144253045Y-113251188D01*
X144284541Y-113225341D01*
X144310389Y-113193845D01*
X144310392Y-113193842D01*
X144387699Y-113099643D01*
X144464353Y-112956234D01*
X144475159Y-112920611D01*
X144511556Y-112800626D01*
X144523500Y-112679353D01*
X144523500Y-112679351D01*
X144525275Y-112661332D01*
X144553537Y-112626894D01*
X144612502Y-112516580D01*
X144648812Y-112396882D01*
X144661072Y-112272400D01*
X144661072Y-111212400D01*
X144648812Y-111087918D01*
X144612502Y-110968220D01*
X144553537Y-110857906D01*
X144474185Y-110761215D01*
X144377494Y-110681863D01*
X144303665Y-110642400D01*
X144377494Y-110602937D01*
X144474185Y-110523585D01*
X144553537Y-110426894D01*
X144612502Y-110316580D01*
X144648812Y-110196882D01*
X144659849Y-110084814D01*
X144688863Y-110139094D01*
X144768215Y-110235785D01*
X144864906Y-110315137D01*
X144975220Y-110374102D01*
X145094918Y-110410412D01*
X145219400Y-110422672D01*
X145408650Y-110419600D01*
X145567400Y-110260850D01*
X145567400Y-109474100D01*
X145821400Y-109474100D01*
X145821400Y-110260850D01*
X145980150Y-110419600D01*
X146169400Y-110422672D01*
X146293882Y-110410412D01*
X146413580Y-110374102D01*
X146523894Y-110315137D01*
X146620585Y-110235785D01*
X146699937Y-110139094D01*
X146758902Y-110028780D01*
X146795212Y-109909082D01*
X146807472Y-109784600D01*
X146804400Y-109632850D01*
X146645650Y-109474100D01*
X145821400Y-109474100D01*
X145567400Y-109474100D01*
X145547400Y-109474100D01*
X145547400Y-109220100D01*
X145567400Y-109220100D01*
X145567400Y-109200100D01*
X145821400Y-109200100D01*
X145821400Y-109220100D01*
X146645650Y-109220100D01*
X146804400Y-109061350D01*
X146807472Y-108909600D01*
X146795212Y-108785118D01*
X146758902Y-108665420D01*
X146722651Y-108597600D01*
X147257368Y-108597600D01*
X148892006Y-110232239D01*
X148917859Y-110263741D01*
X148980486Y-110315137D01*
X149043557Y-110366899D01*
X149093511Y-110393599D01*
X149186966Y-110443553D01*
X149342574Y-110490756D01*
X149463847Y-110502700D01*
X149463849Y-110502700D01*
X149504399Y-110506694D01*
X149544950Y-110502700D01*
X149946387Y-110502700D01*
X150027325Y-110623832D01*
X150234168Y-110830675D01*
X150477389Y-110993190D01*
X150747642Y-111105132D01*
X151034540Y-111162200D01*
X151327060Y-111162200D01*
X151613958Y-111105132D01*
X151638401Y-111095008D01*
X151638401Y-117179029D01*
X151413650Y-116842666D01*
X151025734Y-116454750D01*
X150569592Y-116149965D01*
X150062754Y-115940026D01*
X149524699Y-115833000D01*
X148976101Y-115833000D01*
X148438046Y-115940026D01*
X147931208Y-116149965D01*
X147475066Y-116454750D01*
X147087150Y-116842666D01*
X146782365Y-117298808D01*
X146572426Y-117805646D01*
X146465400Y-118343701D01*
X146465400Y-118892299D01*
X146572426Y-119430354D01*
X146782365Y-119937192D01*
X147087150Y-120393334D01*
X147475066Y-120781250D01*
X147495980Y-120795224D01*
X125291183Y-120760201D01*
X125658050Y-120393334D01*
X125962835Y-119937192D01*
X126172774Y-119430354D01*
X126279800Y-118892299D01*
X126279800Y-118343701D01*
X126172774Y-117805646D01*
X125962835Y-117298808D01*
X125658050Y-116842666D01*
X125270134Y-116454750D01*
X124813992Y-116149965D01*
X124307154Y-115940026D01*
X123769099Y-115833000D01*
X123220501Y-115833000D01*
X122682446Y-115940026D01*
X122175608Y-116149965D01*
X121719466Y-116454750D01*
X121331550Y-116842666D01*
X121026765Y-117298808D01*
X120816826Y-117805646D01*
X120751200Y-118135570D01*
X120751200Y-111136519D01*
X121156969Y-111136519D01*
X121156969Y-111429039D01*
X121214037Y-111715937D01*
X121325979Y-111986190D01*
X121488494Y-112229411D01*
X121695337Y-112436254D01*
X121938558Y-112598769D01*
X122208811Y-112710711D01*
X122495709Y-112767779D01*
X122788229Y-112767779D01*
X123075127Y-112710711D01*
X123237615Y-112643407D01*
X123237615Y-112885923D01*
X123294683Y-113172821D01*
X123406625Y-113443074D01*
X123569140Y-113686295D01*
X123775983Y-113893138D01*
X124019204Y-114055653D01*
X124289457Y-114167595D01*
X124576355Y-114224663D01*
X124868875Y-114224663D01*
X125155773Y-114167595D01*
X125318261Y-114100291D01*
X125318261Y-114342808D01*
X125375329Y-114629706D01*
X125487271Y-114899959D01*
X125649786Y-115143180D01*
X125856629Y-115350023D01*
X126099850Y-115512538D01*
X126370103Y-115624480D01*
X126657001Y-115681548D01*
X126949521Y-115681548D01*
X127236419Y-115624480D01*
X127398908Y-115557175D01*
X127398908Y-115799692D01*
X127455976Y-116086590D01*
X127567918Y-116356843D01*
X127730433Y-116600064D01*
X127937276Y-116806907D01*
X128180497Y-116969422D01*
X128450750Y-117081364D01*
X128737648Y-117138432D01*
X129030168Y-117138432D01*
X129317066Y-117081364D01*
X129479554Y-117014060D01*
X129479554Y-117256576D01*
X129536622Y-117543474D01*
X129648564Y-117813727D01*
X129811079Y-118056948D01*
X130017922Y-118263791D01*
X130261143Y-118426306D01*
X130531396Y-118538248D01*
X130818294Y-118595316D01*
X131110814Y-118595316D01*
X131262209Y-118565201D01*
X131238434Y-118637835D01*
X131223461Y-118762019D01*
X131233003Y-118886739D01*
X131266693Y-119007200D01*
X131323236Y-119118775D01*
X131400461Y-119217174D01*
X131495398Y-119298617D01*
X132887956Y-120273697D01*
X132996958Y-120335054D01*
X133115835Y-120373966D01*
X133240019Y-120388939D01*
X133364739Y-120379397D01*
X133485200Y-120345707D01*
X133596775Y-120289164D01*
X133695174Y-120211939D01*
X133776617Y-120117002D01*
X134751697Y-118724444D01*
X134813054Y-118615442D01*
X134851966Y-118496565D01*
X134866939Y-118372381D01*
X134857397Y-118247661D01*
X134823707Y-118127200D01*
X134767164Y-118015625D01*
X134689939Y-117917226D01*
X134595002Y-117835783D01*
X133202444Y-116860703D01*
X133093442Y-116799346D01*
X132974565Y-116760434D01*
X132850381Y-116745461D01*
X132725661Y-116755003D01*
X132605200Y-116788693D01*
X132493625Y-116845236D01*
X132435061Y-116891198D01*
X132392486Y-116677158D01*
X132280544Y-116406905D01*
X132118029Y-116163684D01*
X131911186Y-115956841D01*
X131667965Y-115794326D01*
X131397712Y-115682384D01*
X131110814Y-115625316D01*
X130818294Y-115625316D01*
X130531396Y-115682384D01*
X130368908Y-115749688D01*
X130368908Y-115507172D01*
X130311840Y-115220274D01*
X130199898Y-114950021D01*
X130037383Y-114706800D01*
X129830540Y-114499957D01*
X129587319Y-114337442D01*
X129317066Y-114225500D01*
X129030168Y-114168432D01*
X128737648Y-114168432D01*
X128450750Y-114225500D01*
X128288261Y-114292805D01*
X128288261Y-114050288D01*
X128231193Y-113763390D01*
X128119251Y-113493137D01*
X127956736Y-113249916D01*
X127749893Y-113043073D01*
X127506672Y-112880558D01*
X127236419Y-112768616D01*
X126949521Y-112711548D01*
X126657001Y-112711548D01*
X126370103Y-112768616D01*
X126207615Y-112835920D01*
X126207615Y-112593403D01*
X126150547Y-112306505D01*
X126038605Y-112036252D01*
X125876090Y-111793031D01*
X125669247Y-111586188D01*
X125426026Y-111423673D01*
X125299828Y-111371400D01*
X126051328Y-111371400D01*
X126063588Y-111495882D01*
X126099898Y-111615580D01*
X126158863Y-111725894D01*
X126238215Y-111822585D01*
X126334906Y-111901937D01*
X126445220Y-111960902D01*
X126564918Y-111997212D01*
X126689400Y-112009472D01*
X126841150Y-112006400D01*
X126999900Y-111847650D01*
X126999900Y-111023400D01*
X126213150Y-111023400D01*
X126054400Y-111182150D01*
X126051328Y-111371400D01*
X125299828Y-111371400D01*
X125155773Y-111311731D01*
X124868875Y-111254663D01*
X124576355Y-111254663D01*
X124289457Y-111311731D01*
X124126969Y-111379035D01*
X124126969Y-111136519D01*
X124069901Y-110849621D01*
X123957959Y-110579368D01*
X123852409Y-110421400D01*
X126051328Y-110421400D01*
X126054400Y-110610650D01*
X126213150Y-110769400D01*
X126999900Y-110769400D01*
X126999900Y-109945150D01*
X126841150Y-109786400D01*
X126689400Y-109783328D01*
X126564918Y-109795588D01*
X126445220Y-109831898D01*
X126334906Y-109890863D01*
X126238215Y-109970215D01*
X126158863Y-110066906D01*
X126099898Y-110177220D01*
X126063588Y-110296918D01*
X126051328Y-110421400D01*
X123852409Y-110421400D01*
X123795444Y-110336147D01*
X123588601Y-110129304D01*
X123345380Y-109966789D01*
X123075127Y-109854847D01*
X122788229Y-109797779D01*
X122495709Y-109797779D01*
X122208811Y-109854847D01*
X121938558Y-109966789D01*
X121695337Y-110129304D01*
X121488494Y-110336147D01*
X121325979Y-110579368D01*
X121214037Y-110849621D01*
X121156969Y-111136519D01*
X120751200Y-111136519D01*
X120751200Y-89643479D01*
X120781402Y-89335460D01*
X120861482Y-89070220D01*
X120991556Y-88825587D01*
X121166671Y-88610875D01*
X121380147Y-88434272D01*
X121623872Y-88302490D01*
X121888545Y-88220560D01*
X122194529Y-88188400D01*
X150284921Y-88188400D01*
X150573209Y-88216667D01*
G37*
X150573209Y-88216667D02*
X150819463Y-88291015D01*
X151046591Y-88411781D01*
X151245931Y-88574360D01*
X151409901Y-88772566D01*
X151532247Y-88998840D01*
X151608315Y-89244575D01*
X151638400Y-89530812D01*
X151638401Y-108259392D01*
X151613958Y-108249268D01*
X151327060Y-108192200D01*
X151034540Y-108192200D01*
X150747642Y-108249268D01*
X150477389Y-108361210D01*
X150234168Y-108523725D01*
X150027325Y-108730568D01*
X149946387Y-108851700D01*
X149846333Y-108851700D01*
X148211698Y-107217066D01*
X148185841Y-107185559D01*
X148060142Y-107082401D01*
X147916734Y-107005747D01*
X147761126Y-106958544D01*
X147639853Y-106946600D01*
X147639850Y-106946600D01*
X147599300Y-106942606D01*
X147558750Y-106946600D01*
X146555437Y-106946600D01*
X146426675Y-106840929D01*
X146368623Y-106809899D01*
X146318534Y-106748867D01*
X146280941Y-106703059D01*
X146249439Y-106677206D01*
X146074641Y-106502409D01*
X146227800Y-106349250D01*
X146227800Y-105562500D01*
X146481800Y-105562500D01*
X146481800Y-106349250D01*
X146640550Y-106508000D01*
X146829800Y-106511072D01*
X146954282Y-106498812D01*
X147073980Y-106462502D01*
X147184294Y-106403537D01*
X147280985Y-106324185D01*
X147360337Y-106227494D01*
X147419302Y-106117180D01*
X147455612Y-105997482D01*
X147467872Y-105873000D01*
X147464800Y-105721250D01*
X147306050Y-105562500D01*
X146481800Y-105562500D01*
X146227800Y-105562500D01*
X146207800Y-105562500D01*
X146207800Y-105308500D01*
X146227800Y-105308500D01*
X146227800Y-105288500D01*
X146481800Y-105288500D01*
X146481800Y-105308500D01*
X147306050Y-105308500D01*
X147464800Y-105149750D01*
X147467872Y-104998000D01*
X147455612Y-104873518D01*
X147419302Y-104753820D01*
X147360337Y-104643506D01*
X147305700Y-104576930D01*
X147323471Y-104555275D01*
X147402650Y-104407142D01*
X147451408Y-104246408D01*
X147457305Y-104186536D01*
X147472400Y-104201631D01*
X147472401Y-105423367D01*
X147468714Y-105460800D01*
X147483427Y-105610178D01*
X147526999Y-105753815D01*
X147597755Y-105886192D01*
X147653452Y-105954058D01*
X147692979Y-106002222D01*
X147722049Y-106026079D01*
X148476600Y-106780631D01*
X148476600Y-106927860D01*
X148533668Y-107214758D01*
X148645610Y-107485011D01*
X148808125Y-107728232D01*
X149014968Y-107935075D01*
X149258189Y-108097590D01*
X149528442Y-108209532D01*
X149815340Y-108266600D01*
X150107860Y-108266600D01*
X150394758Y-108209532D01*
X150665011Y-108097590D01*
X150908232Y-107935075D01*
X151115075Y-107728232D01*
X151277590Y-107485011D01*
X151389532Y-107214758D01*
X151446600Y-106927860D01*
X151446600Y-106635340D01*
X151389532Y-106348442D01*
X151277590Y-106078189D01*
X151115075Y-105834968D01*
X150908232Y-105628125D01*
X150733840Y-105511600D01*
X150908232Y-105395075D01*
X151115075Y-105188232D01*
X151277590Y-104945011D01*
X151389532Y-104674758D01*
X151446600Y-104387860D01*
X151446600Y-104095340D01*
X151389532Y-103808442D01*
X151277590Y-103538189D01*
X151115075Y-103294968D01*
X150908232Y-103088125D01*
X150733840Y-102971600D01*
X150908232Y-102855075D01*
X151115075Y-102648232D01*
X151277590Y-102405011D01*
X151389532Y-102134758D01*
X151446600Y-101847860D01*
X151446600Y-101555340D01*
X151389532Y-101268442D01*
X151277590Y-100998189D01*
X151115075Y-100754968D01*
X150908232Y-100548125D01*
X150733840Y-100431600D01*
X150908232Y-100315075D01*
X151115075Y-100108232D01*
X151277590Y-99865011D01*
X151389532Y-99594758D01*
X151446600Y-99307860D01*
X151446600Y-99015340D01*
X151389532Y-98728442D01*
X151277590Y-98458189D01*
X151115075Y-98214968D01*
X150908232Y-98008125D01*
X150733840Y-97891600D01*
X150908232Y-97775075D01*
X151115075Y-97568232D01*
X151277590Y-97325011D01*
X151389532Y-97054758D01*
X151446600Y-96767860D01*
X151446600Y-96475340D01*
X151389532Y-96188442D01*
X151277590Y-95918189D01*
X151115075Y-95674968D01*
X150983220Y-95543113D01*
X151055780Y-95521102D01*
X151166094Y-95462137D01*
X151262785Y-95382785D01*
X151342137Y-95286094D01*
X151401102Y-95175780D01*
X151437412Y-95056082D01*
X151449672Y-94931600D01*
X151449672Y-93231600D01*
X151437412Y-93107118D01*
X151401102Y-92987420D01*
X151342137Y-92877106D01*
X151262785Y-92780415D01*
X151166094Y-92701063D01*
X151055780Y-92642098D01*
X150936082Y-92605788D01*
X150811600Y-92593528D01*
X149111600Y-92593528D01*
X148987118Y-92605788D01*
X148867420Y-92642098D01*
X148757106Y-92701063D01*
X148660415Y-92780415D01*
X148581063Y-92877106D01*
X148522098Y-92987420D01*
X148485788Y-93107118D01*
X148473528Y-93231600D01*
X148473528Y-93686464D01*
X148404178Y-93743378D01*
X148380321Y-93772448D01*
X147751800Y-94400969D01*
X147751800Y-91514614D01*
X147961832Y-91374275D01*
X148093687Y-91242420D01*
X148115698Y-91314980D01*
X148174663Y-91425294D01*
X148254015Y-91521985D01*
X148350706Y-91601337D01*
X148461020Y-91660302D01*
X148580718Y-91696612D01*
X148705200Y-91708872D01*
X150405200Y-91708872D01*
X150529682Y-91696612D01*
X150649380Y-91660302D01*
X150759694Y-91601337D01*
X150856385Y-91521985D01*
X150935737Y-91425294D01*
X150994702Y-91314980D01*
X151031012Y-91195282D01*
X151043272Y-91070800D01*
X151043272Y-89370800D01*
X151031012Y-89246318D01*
X150994702Y-89126620D01*
X150935737Y-89016306D01*
X150856385Y-88919615D01*
X150759694Y-88840263D01*
X150649380Y-88781298D01*
X150529682Y-88744988D01*
X150405200Y-88732728D01*
X148705200Y-88732728D01*
X148580718Y-88744988D01*
X148461020Y-88781298D01*
X148350706Y-88840263D01*
X148254015Y-88919615D01*
X148174663Y-89016306D01*
X148115698Y-89126620D01*
X148093687Y-89199180D01*
X147961832Y-89067325D01*
X147718611Y-88904810D01*
X147448358Y-88792868D01*
X147161460Y-88735800D01*
X146868940Y-88735800D01*
X146582042Y-88792868D01*
X146311789Y-88904810D01*
X146068568Y-89067325D01*
X145861725Y-89274168D01*
X145745200Y-89448560D01*
X145628675Y-89274168D01*
X145421832Y-89067325D01*
X145178611Y-88904810D01*
X144908358Y-88792868D01*
X144621460Y-88735800D01*
X144328940Y-88735800D01*
X144042042Y-88792868D01*
X143771789Y-88904810D01*
X143528568Y-89067325D01*
X143321725Y-89274168D01*
X143200005Y-89456334D01*
X143130378Y-89339445D01*
X142935469Y-89123212D01*
X142702120Y-88949159D01*
X142439299Y-88823975D01*
X142292090Y-88779324D01*
X142062200Y-88900645D01*
X142062200Y-90093800D01*
X142082200Y-90093800D01*
X142082200Y-90347800D01*
X142062200Y-90347800D01*
X142062200Y-91540955D01*
X142292090Y-91662276D01*
X142439299Y-91617625D01*
X142702120Y-91492441D01*
X142935469Y-91318388D01*
X143130378Y-91102155D01*
X143200005Y-90985266D01*
X143321725Y-91167432D01*
X143528568Y-91374275D01*
X143738600Y-91514614D01*
X143738601Y-92668789D01*
X141059232Y-95348158D01*
X140965015Y-95297798D01*
X140821378Y-95254226D01*
X140672000Y-95239514D01*
X140522623Y-95254226D01*
X140411010Y-95288084D01*
X140411010Y-92645633D01*
X140414696Y-92608210D01*
X140411010Y-92570784D01*
X140399984Y-92458832D01*
X140356412Y-92315195D01*
X140312871Y-92233736D01*
X140285655Y-92182817D01*
X140250867Y-92140429D01*
X140190432Y-92066788D01*
X140161356Y-92042926D01*
X138754079Y-90635649D01*
X138765607Y-90577691D01*
X140493719Y-90577691D01*
X140591043Y-90852052D01*
X140740022Y-91102155D01*
X140934931Y-91318388D01*
X141168280Y-91492441D01*
X141431101Y-91617625D01*
X141578310Y-91662276D01*
X141808200Y-91540955D01*
X141808200Y-90347800D01*
X140614386Y-90347800D01*
X140493719Y-90577691D01*
X138765607Y-90577691D01*
X138797400Y-90417860D01*
X138797400Y-90125340D01*
X138745398Y-89863909D01*
X140493719Y-89863909D01*
X140614386Y-90093800D01*
X141808200Y-90093800D01*
X141808200Y-88900645D01*
X141578310Y-88779324D01*
X141431101Y-88823975D01*
X141168280Y-88949159D01*
X140934931Y-89123212D01*
X140740022Y-89339445D01*
X140591043Y-89589548D01*
X140493719Y-89863909D01*
X138745398Y-89863909D01*
X138740332Y-89838442D01*
X138628390Y-89568189D01*
X138465875Y-89324968D01*
X138259032Y-89118125D01*
X138015811Y-88955610D01*
X137745558Y-88843668D01*
X137458660Y-88786600D01*
X137166140Y-88786600D01*
X136879242Y-88843668D01*
X136608989Y-88955610D01*
X136365768Y-89118125D01*
X136158925Y-89324968D01*
X136042400Y-89499360D01*
X135925875Y-89324968D01*
X135719032Y-89118125D01*
X135475811Y-88955610D01*
X135205558Y-88843668D01*
X134918660Y-88786600D01*
X134626140Y-88786600D01*
X134339242Y-88843668D01*
X134068989Y-88955610D01*
X133825768Y-89118125D01*
X133618925Y-89324968D01*
X133502400Y-89499360D01*
X133385875Y-89324968D01*
X133179032Y-89118125D01*
X132935811Y-88955610D01*
X132665558Y-88843668D01*
X132378660Y-88786600D01*
X132086140Y-88786600D01*
X131799242Y-88843668D01*
X131528989Y-88955610D01*
X131285768Y-89118125D01*
X131078925Y-89324968D01*
X130962400Y-89499360D01*
X130845875Y-89324968D01*
X130639032Y-89118125D01*
X130395811Y-88955610D01*
X130125558Y-88843668D01*
X129838660Y-88786600D01*
X129546140Y-88786600D01*
X129259242Y-88843668D01*
X128988989Y-88955610D01*
X128745768Y-89118125D01*
X128538925Y-89324968D01*
X128422400Y-89499360D01*
X128305875Y-89324968D01*
X128099032Y-89118125D01*
X127855811Y-88955610D01*
X127585558Y-88843668D01*
X127298660Y-88786600D01*
X127006140Y-88786600D01*
X126719242Y-88843668D01*
X126448989Y-88955610D01*
X126205768Y-89118125D01*
X126073913Y-89249980D01*
X126051902Y-89177420D01*
X125992937Y-89067106D01*
X125913585Y-88970415D01*
X125816894Y-88891063D01*
X125706580Y-88832098D01*
X125586882Y-88795788D01*
X125462400Y-88783528D01*
X123762400Y-88783528D01*
X123637918Y-88795788D01*
X123518220Y-88832098D01*
X123407906Y-88891063D01*
X123311215Y-88970415D01*
X123231863Y-89067106D01*
X123172898Y-89177420D01*
X123136588Y-89297118D01*
X123124328Y-89421600D01*
X123124328Y-91121600D01*
X123136588Y-91246082D01*
X123172898Y-91365780D01*
X123231863Y-91476094D01*
X123311215Y-91572785D01*
X123407906Y-91652137D01*
X123518220Y-91711102D01*
X123637918Y-91747412D01*
X123762400Y-91759672D01*
X124819642Y-91759672D01*
X127776569Y-94716600D01*
X124104710Y-94716600D01*
X124068472Y-94680362D01*
X124068472Y-93384000D01*
X124056212Y-93259518D01*
X124019902Y-93139820D01*
X123960937Y-93029506D01*
X123881585Y-92932815D01*
X123784894Y-92853463D01*
X123674580Y-92794498D01*
X123554882Y-92758188D01*
X123430400Y-92745928D01*
X121730400Y-92745928D01*
X121605918Y-92758188D01*
X121486220Y-92794498D01*
X121375906Y-92853463D01*
X121279215Y-92932815D01*
X121199863Y-93029506D01*
X121140898Y-93139820D01*
X121104588Y-93259518D01*
X121092328Y-93384000D01*
X121092328Y-95084000D01*
X121104588Y-95208482D01*
X121140898Y-95328180D01*
X121199863Y-95438494D01*
X121279215Y-95535185D01*
X121375906Y-95614537D01*
X121486220Y-95673502D01*
X121558780Y-95695513D01*
X121426925Y-95827368D01*
X121264410Y-96070589D01*
X121152468Y-96340842D01*
X121095400Y-96627740D01*
X121095400Y-96920260D01*
X121152468Y-97207158D01*
X121264410Y-97477411D01*
X121426925Y-97720632D01*
X121633768Y-97927475D01*
X121808160Y-98044000D01*
X121633768Y-98160525D01*
X121426925Y-98367368D01*
X121264410Y-98610589D01*
X121152468Y-98880842D01*
X121095400Y-99167740D01*
X121095400Y-99460260D01*
X121152468Y-99747158D01*
X121264410Y-100017411D01*
X121426925Y-100260632D01*
X121633768Y-100467475D01*
X121808160Y-100584000D01*
X121633768Y-100700525D01*
X121426925Y-100907368D01*
X121264410Y-101150589D01*
X121152468Y-101420842D01*
X121095400Y-101707740D01*
X121095400Y-102000260D01*
X121152468Y-102287158D01*
X121264410Y-102557411D01*
X121426925Y-102800632D01*
X121633768Y-103007475D01*
X121808160Y-103124000D01*
X121633768Y-103240525D01*
X121426925Y-103447368D01*
X121264410Y-103690589D01*
X121152468Y-103960842D01*
X121095400Y-104247740D01*
X121095400Y-104540260D01*
X121152468Y-104827158D01*
X121264410Y-105097411D01*
X121426925Y-105340632D01*
X121633768Y-105547475D01*
X121808160Y-105664000D01*
X121633768Y-105780525D01*
X121426925Y-105987368D01*
X121264410Y-106230589D01*
X121152468Y-106500842D01*
X121095400Y-106787740D01*
X121095400Y-107080260D01*
X121152468Y-107367158D01*
X121264410Y-107637411D01*
X121426925Y-107880632D01*
X121633768Y-108087475D01*
X121876989Y-108249990D01*
X122147242Y-108361932D01*
X122434140Y-108419000D01*
X122726660Y-108419000D01*
X123013558Y-108361932D01*
X123180458Y-108292800D01*
X125760728Y-108292800D01*
X125772988Y-108417282D01*
X125809298Y-108536980D01*
X125868263Y-108647294D01*
X125947615Y-108743985D01*
X126044306Y-108823337D01*
X126154620Y-108882302D01*
X126274318Y-108918612D01*
X126398800Y-108930872D01*
X127113050Y-108927800D01*
X127271800Y-108769050D01*
X127271800Y-107619800D01*
X127525800Y-107619800D01*
X127525800Y-108769050D01*
X127684550Y-108927800D01*
X128398800Y-108930872D01*
X128523282Y-108918612D01*
X128642980Y-108882302D01*
X128753294Y-108823337D01*
X128849985Y-108743985D01*
X128929337Y-108647294D01*
X128988302Y-108536980D01*
X129024612Y-108417282D01*
X129036872Y-108292800D01*
X129033800Y-107778550D01*
X128875050Y-107619800D01*
X127525800Y-107619800D01*
X127271800Y-107619800D01*
X125922550Y-107619800D01*
X125763800Y-107778550D01*
X125760728Y-108292800D01*
X123180458Y-108292800D01*
X123283811Y-108249990D01*
X123527032Y-108087475D01*
X123733875Y-107880632D01*
X123896390Y-107637411D01*
X124008332Y-107367158D01*
X124065400Y-107080260D01*
X124065400Y-106787740D01*
X124046516Y-106692800D01*
X125760728Y-106692800D01*
X125763800Y-107207050D01*
X125922550Y-107365800D01*
X127271800Y-107365800D01*
X127271800Y-106216550D01*
X127525800Y-106216550D01*
X127525800Y-107365800D01*
X128875050Y-107365800D01*
X129033800Y-107207050D01*
X129036872Y-106692800D01*
X129024612Y-106568318D01*
X128988302Y-106448620D01*
X128929337Y-106338306D01*
X128849985Y-106241615D01*
X128753294Y-106162263D01*
X128642980Y-106103298D01*
X128523282Y-106066988D01*
X128398800Y-106054728D01*
X127684550Y-106057800D01*
X127525800Y-106216550D01*
X127271800Y-106216550D01*
X127113050Y-106057800D01*
X126398800Y-106054728D01*
X126274318Y-106066988D01*
X126154620Y-106103298D01*
X126044306Y-106162263D01*
X125947615Y-106241615D01*
X125868263Y-106338306D01*
X125809298Y-106448620D01*
X125772988Y-106568318D01*
X125760728Y-106692800D01*
X124046516Y-106692800D01*
X124008332Y-106500842D01*
X123896390Y-106230589D01*
X123733875Y-105987368D01*
X123527032Y-105780525D01*
X123352640Y-105664000D01*
X123527032Y-105547475D01*
X123733875Y-105340632D01*
X123896390Y-105097411D01*
X124008332Y-104827158D01*
X124052920Y-104603000D01*
X125124928Y-104603000D01*
X125137188Y-104727482D01*
X125173498Y-104847180D01*
X125232463Y-104957494D01*
X125311815Y-105054185D01*
X125408506Y-105133537D01*
X125518820Y-105192502D01*
X125638518Y-105228812D01*
X125763000Y-105241072D01*
X125952250Y-105238000D01*
X126111000Y-105079250D01*
X126111000Y-104292500D01*
X125286750Y-104292500D01*
X125128000Y-104451250D01*
X125124928Y-104603000D01*
X124052920Y-104603000D01*
X124065400Y-104540260D01*
X124065400Y-104247740D01*
X124008332Y-103960842D01*
X123896390Y-103690589D01*
X123733875Y-103447368D01*
X123527032Y-103240525D01*
X123352640Y-103124000D01*
X123527032Y-103007475D01*
X123733875Y-102800632D01*
X123896390Y-102557411D01*
X124008332Y-102287158D01*
X124065400Y-102000260D01*
X124065400Y-101707740D01*
X124016119Y-101459990D01*
X125134801Y-100341309D01*
X125124928Y-100441550D01*
X125124928Y-100879050D01*
X125141392Y-101046208D01*
X125190150Y-101206942D01*
X125269329Y-101355075D01*
X125375885Y-101484915D01*
X125505725Y-101591471D01*
X125569201Y-101625400D01*
X125505725Y-101659329D01*
X125375885Y-101765885D01*
X125269329Y-101895725D01*
X125190150Y-102043858D01*
X125141392Y-102204592D01*
X125124928Y-102371750D01*
X125124928Y-102809250D01*
X125141392Y-102976408D01*
X125190150Y-103137142D01*
X125269329Y-103285275D01*
X125287100Y-103306930D01*
X125232463Y-103373506D01*
X125173498Y-103483820D01*
X125137188Y-103603518D01*
X125124928Y-103728000D01*
X125128000Y-103879750D01*
X125286750Y-104038500D01*
X126111000Y-104038500D01*
X126111000Y-104018500D01*
X126365000Y-104018500D01*
X126365000Y-104038500D01*
X126385000Y-104038500D01*
X126385000Y-104292500D01*
X126365000Y-104292500D01*
X126365000Y-105079250D01*
X126523750Y-105238000D01*
X126713000Y-105241072D01*
X126837482Y-105228812D01*
X126957180Y-105192502D01*
X127067494Y-105133537D01*
X127164185Y-105054185D01*
X127243537Y-104957494D01*
X127302502Y-104847180D01*
X127338812Y-104727482D01*
X127351072Y-104603000D01*
X127348000Y-104451250D01*
X127263497Y-104366747D01*
X127287323Y-104364400D01*
X127549528Y-104364400D01*
X127549528Y-104602400D01*
X127561788Y-104726882D01*
X127598098Y-104846580D01*
X127657063Y-104956894D01*
X127736415Y-105053585D01*
X127833106Y-105132937D01*
X127943420Y-105191902D01*
X128063118Y-105228212D01*
X128187600Y-105240472D01*
X130587600Y-105240472D01*
X130712082Y-105228212D01*
X130831780Y-105191902D01*
X130942094Y-105132937D01*
X131012471Y-105075180D01*
X131009514Y-105105200D01*
X131013200Y-105142623D01*
X131013200Y-105142625D01*
X131024226Y-105254577D01*
X131067798Y-105398214D01*
X131099786Y-105458059D01*
X131138555Y-105530592D01*
X131172722Y-105572224D01*
X131233778Y-105646622D01*
X131262854Y-105670484D01*
X131662840Y-106070470D01*
X131554620Y-106103298D01*
X131444306Y-106162263D01*
X131347615Y-106241615D01*
X131268263Y-106338306D01*
X131209298Y-106448620D01*
X131172988Y-106568318D01*
X131160728Y-106692800D01*
X131160728Y-108053242D01*
X130018149Y-109195821D01*
X129989079Y-109219678D01*
X129965222Y-109248748D01*
X129965221Y-109248749D01*
X129893855Y-109335708D01*
X129823099Y-109468085D01*
X129779527Y-109611722D01*
X129764814Y-109761100D01*
X129768501Y-109798533D01*
X129768501Y-109982898D01*
X129705885Y-110034285D01*
X129623723Y-110134400D01*
X129608677Y-110134400D01*
X129526515Y-110034285D01*
X129396675Y-109927729D01*
X129248542Y-109848550D01*
X129087808Y-109799792D01*
X128920650Y-109783328D01*
X128483150Y-109783328D01*
X128315992Y-109799792D01*
X128155258Y-109848550D01*
X128007125Y-109927729D01*
X127985470Y-109945500D01*
X127918894Y-109890863D01*
X127808580Y-109831898D01*
X127688882Y-109795588D01*
X127564400Y-109783328D01*
X127412650Y-109786400D01*
X127253900Y-109945150D01*
X127253900Y-110769400D01*
X127273900Y-110769400D01*
X127273900Y-111023400D01*
X127253900Y-111023400D01*
X127253900Y-111847650D01*
X127412650Y-112006400D01*
X127564400Y-112009472D01*
X127688882Y-111997212D01*
X127808580Y-111960902D01*
X127918894Y-111901937D01*
X127985470Y-111847300D01*
X128007125Y-111865071D01*
X128155258Y-111944250D01*
X128315992Y-111993008D01*
X128483150Y-112009472D01*
X128920650Y-112009472D01*
X129087808Y-111993008D01*
X129248542Y-111944250D01*
X129396675Y-111865071D01*
X129526515Y-111758515D01*
X129608677Y-111658400D01*
X129623723Y-111658400D01*
X129705885Y-111758515D01*
X129835725Y-111865071D01*
X129983858Y-111944250D01*
X130144592Y-111993008D01*
X130311750Y-112009472D01*
X130749250Y-112009472D01*
X130916408Y-111993008D01*
X131077142Y-111944250D01*
X131225275Y-111865071D01*
X131318000Y-111788974D01*
X131410725Y-111865071D01*
X131558858Y-111944250D01*
X131719592Y-111993008D01*
X131886750Y-112009472D01*
X132324250Y-112009472D01*
X132491408Y-111993008D01*
X132652142Y-111944250D01*
X132800275Y-111865071D01*
X132930115Y-111758515D01*
X133036671Y-111628675D01*
X133115850Y-111480542D01*
X133164608Y-111319808D01*
X133181072Y-111152650D01*
X133181072Y-110640150D01*
X133164608Y-110472992D01*
X133115850Y-110312258D01*
X133036671Y-110164125D01*
X132930115Y-110034285D01*
X132867500Y-109982899D01*
X132867500Y-109967330D01*
X133005231Y-109829600D01*
X133735977Y-109829600D01*
X133628008Y-109918208D01*
X133518342Y-110051836D01*
X133436853Y-110204291D01*
X133386672Y-110369715D01*
X133369728Y-110541750D01*
X133369728Y-111454250D01*
X133386672Y-111626285D01*
X133436853Y-111791709D01*
X133518342Y-111944164D01*
X133628008Y-112077792D01*
X133642101Y-112089358D01*
X133642100Y-112761128D01*
X133617600Y-112761128D01*
X133493118Y-112773388D01*
X133373420Y-112809698D01*
X133263106Y-112868663D01*
X133166415Y-112948015D01*
X133087063Y-113044706D01*
X133028098Y-113155020D01*
X132991788Y-113274718D01*
X132979528Y-113399200D01*
X132979528Y-115099200D01*
X132991788Y-115223682D01*
X133028098Y-115343380D01*
X133087063Y-115453694D01*
X133166415Y-115550385D01*
X133263106Y-115629737D01*
X133373420Y-115688702D01*
X133493118Y-115725012D01*
X133617600Y-115737272D01*
X135317600Y-115737272D01*
X135442082Y-115725012D01*
X135561780Y-115688702D01*
X135672094Y-115629737D01*
X135768785Y-115550385D01*
X135848137Y-115453694D01*
X135907102Y-115343380D01*
X135931566Y-115262734D01*
X136007331Y-115346788D01*
X136240680Y-115520841D01*
X136503501Y-115646025D01*
X136650710Y-115690676D01*
X136880600Y-115569355D01*
X136880600Y-114376200D01*
X137134600Y-114376200D01*
X137134600Y-115569355D01*
X137364490Y-115690676D01*
X137511699Y-115646025D01*
X137774520Y-115520841D01*
X138007869Y-115346788D01*
X138202778Y-115130555D01*
X138351757Y-114880452D01*
X138449081Y-114606091D01*
X138328414Y-114376200D01*
X137134600Y-114376200D01*
X136880600Y-114376200D01*
X136860600Y-114376200D01*
X136860600Y-114122200D01*
X136880600Y-114122200D01*
X136880600Y-112929045D01*
X137134600Y-112929045D01*
X137134600Y-114122200D01*
X138328414Y-114122200D01*
X138449081Y-113892309D01*
X138351757Y-113617948D01*
X138202778Y-113367845D01*
X138007869Y-113151612D01*
X137774520Y-112977559D01*
X137511699Y-112852375D01*
X137364490Y-112807724D01*
X137134600Y-112929045D01*
X136880600Y-112929045D01*
X136650710Y-112807724D01*
X136503501Y-112852375D01*
X136240680Y-112977559D01*
X136007331Y-113151612D01*
X135931566Y-113235666D01*
X135907102Y-113155020D01*
X135848137Y-113044706D01*
X135768785Y-112948015D01*
X135672094Y-112868663D01*
X135561780Y-112809698D01*
X135442082Y-112773388D01*
X135317600Y-112761128D01*
X135293100Y-112761128D01*
X135293100Y-112134823D01*
X135362592Y-112077792D01*
X135432800Y-111992244D01*
X135503008Y-112077792D01*
X135636636Y-112187458D01*
X135789091Y-112268947D01*
X135954515Y-112319128D01*
X136126550Y-112336072D01*
X136540938Y-112336072D01*
X136570711Y-112365844D01*
X136596559Y-112397341D01*
X136628055Y-112423189D01*
X136628058Y-112423192D01*
X136722257Y-112500499D01*
X136841566Y-112564271D01*
X136865666Y-112577153D01*
X137021274Y-112624356D01*
X137142547Y-112636300D01*
X137142549Y-112636300D01*
X137183100Y-112640294D01*
X137223650Y-112636300D01*
X137730881Y-112636300D01*
X137744258Y-112643450D01*
X137904992Y-112692208D01*
X138072150Y-112708672D01*
X138584650Y-112708672D01*
X138751808Y-112692208D01*
X138912542Y-112643450D01*
X138925919Y-112636300D01*
X139458081Y-112636300D01*
X139471458Y-112643450D01*
X139632192Y-112692208D01*
X139799350Y-112708672D01*
X140311850Y-112708672D01*
X140479008Y-112692208D01*
X140639742Y-112643450D01*
X140787875Y-112564271D01*
X140876021Y-112491932D01*
X140883498Y-112516580D01*
X140942463Y-112626894D01*
X140972501Y-112663495D01*
X140972501Y-112852240D01*
X140968506Y-112892800D01*
X140984445Y-113054626D01*
X141031647Y-113210233D01*
X141108301Y-113353642D01*
X141169863Y-113428654D01*
X141211460Y-113479341D01*
X141242961Y-113505193D01*
X141627602Y-113889834D01*
X141653459Y-113921341D01*
X141779158Y-114024499D01*
X141922566Y-114101153D01*
X142078174Y-114148356D01*
X142199447Y-114160300D01*
X142199456Y-114160300D01*
X142239999Y-114164293D01*
X142280542Y-114160300D01*
X142961450Y-114160300D01*
X143002000Y-114164294D01*
X143042550Y-114160300D01*
X143042553Y-114160300D01*
X143163826Y-114148356D01*
X143319434Y-114101153D01*
X143462842Y-114024499D01*
X143497943Y-113995693D01*
X143459124Y-114053789D01*
X143347182Y-114324042D01*
X143290114Y-114610940D01*
X143290114Y-114718756D01*
X143278820Y-114711210D01*
X143008567Y-114599268D01*
X142721669Y-114542200D01*
X142429149Y-114542200D01*
X142142251Y-114599268D01*
X141871998Y-114711210D01*
X141628777Y-114873725D01*
X141421934Y-115080568D01*
X141259419Y-115323789D01*
X141147477Y-115594042D01*
X141090409Y-115880940D01*
X141090409Y-115988756D01*
X141079116Y-115981210D01*
X140808863Y-115869268D01*
X140521965Y-115812200D01*
X140229445Y-115812200D01*
X139942547Y-115869268D01*
X139672294Y-115981210D01*
X139429073Y-116143725D01*
X139222230Y-116350568D01*
X139059715Y-116593789D01*
X138947773Y-116864042D01*
X138930426Y-116951253D01*
X138875556Y-116899862D01*
X138769334Y-116833809D01*
X138652267Y-116789748D01*
X138528854Y-116769372D01*
X138403837Y-116773465D01*
X138282021Y-116801868D01*
X138168086Y-116853491D01*
X136695842Y-117703491D01*
X136594168Y-117776350D01*
X136508662Y-117867644D01*
X136442609Y-117973866D01*
X136398548Y-118090933D01*
X136378172Y-118214346D01*
X136382265Y-118339363D01*
X136410668Y-118461179D01*
X136462291Y-118575114D01*
X137312291Y-120047358D01*
X137385150Y-120149032D01*
X137476444Y-120234538D01*
X137582666Y-120300591D01*
X137699733Y-120344652D01*
X137823146Y-120365028D01*
X137948163Y-120360935D01*
X138069979Y-120332532D01*
X138183914Y-120280909D01*
X139656158Y-119430909D01*
X139757832Y-119358050D01*
X139843338Y-119266756D01*
X139909391Y-119160534D01*
X139953452Y-119043467D01*
X139973828Y-118920054D01*
X139969735Y-118795037D01*
X139953965Y-118727403D01*
X140229445Y-118782200D01*
X140521965Y-118782200D01*
X140808863Y-118725132D01*
X141079116Y-118613190D01*
X141322337Y-118450675D01*
X141529180Y-118243832D01*
X141691695Y-118000611D01*
X141803637Y-117730358D01*
X141860705Y-117443460D01*
X141860705Y-117335644D01*
X141871998Y-117343190D01*
X142142251Y-117455132D01*
X142429149Y-117512200D01*
X142721669Y-117512200D01*
X143008567Y-117455132D01*
X143278820Y-117343190D01*
X143522041Y-117180675D01*
X143728884Y-116973832D01*
X143891399Y-116730611D01*
X144003341Y-116460358D01*
X144060409Y-116173460D01*
X144060409Y-116065644D01*
X144071703Y-116073190D01*
X144341956Y-116185132D01*
X144628854Y-116242200D01*
X144921374Y-116242200D01*
X145208272Y-116185132D01*
X145478525Y-116073190D01*
X145721746Y-115910675D01*
X145928589Y-115703832D01*
X146091104Y-115460611D01*
X146203046Y-115190358D01*
X146260114Y-114903460D01*
X146260114Y-114795644D01*
X146271407Y-114803190D01*
X146541660Y-114915132D01*
X146828558Y-114972200D01*
X147121078Y-114972200D01*
X147407976Y-114915132D01*
X147678229Y-114803190D01*
X147921450Y-114640675D01*
X148128293Y-114433832D01*
X148290808Y-114190611D01*
X148402750Y-113920358D01*
X148459818Y-113633460D01*
X148459818Y-113525644D01*
X148471112Y-113533190D01*
X148741365Y-113645132D01*
X149028263Y-113702200D01*
X149320783Y-113702200D01*
X149607681Y-113645132D01*
X149877934Y-113533190D01*
X150121155Y-113370675D01*
X150327998Y-113163832D01*
X150490513Y-112920611D01*
X150602455Y-112650358D01*
X150659523Y-112363460D01*
X150659523Y-112070940D01*
X150602455Y-111784042D01*
X150490513Y-111513789D01*
X150327998Y-111270568D01*
X150121155Y-111063725D01*
X149877934Y-110901210D01*
X149607681Y-110789268D01*
X149320783Y-110732200D01*
X149028263Y-110732200D01*
X148741365Y-110789268D01*
X148471112Y-110901210D01*
X148227891Y-111063725D01*
X148021048Y-111270568D01*
X147858533Y-111513789D01*
X147746591Y-111784042D01*
X147689523Y-112070940D01*
X147689523Y-112178756D01*
X147678229Y-112171210D01*
X147407976Y-112059268D01*
X147121078Y-112002200D01*
X146828558Y-112002200D01*
X146541660Y-112059268D01*
X146271407Y-112171210D01*
X146028186Y-112333725D01*
X145821343Y-112540568D01*
X145658828Y-112783789D01*
X145546886Y-113054042D01*
X145489818Y-113340940D01*
X145489818Y-113448756D01*
X145478525Y-113441210D01*
X145208272Y-113329268D01*
X144921374Y-113272200D01*
X144628854Y-113272200D01*
X144341956Y-113329268D01*
X144071703Y-113441210D01*
X144045545Y-113458688D01*
X144253045Y-113251188D01*
X144284541Y-113225341D01*
X144310389Y-113193845D01*
X144310392Y-113193842D01*
X144387699Y-113099643D01*
X144464353Y-112956234D01*
X144475159Y-112920611D01*
X144511556Y-112800626D01*
X144523500Y-112679353D01*
X144523500Y-112679351D01*
X144525275Y-112661332D01*
X144553537Y-112626894D01*
X144612502Y-112516580D01*
X144648812Y-112396882D01*
X144661072Y-112272400D01*
X144661072Y-111212400D01*
X144648812Y-111087918D01*
X144612502Y-110968220D01*
X144553537Y-110857906D01*
X144474185Y-110761215D01*
X144377494Y-110681863D01*
X144303665Y-110642400D01*
X144377494Y-110602937D01*
X144474185Y-110523585D01*
X144553537Y-110426894D01*
X144612502Y-110316580D01*
X144648812Y-110196882D01*
X144659849Y-110084814D01*
X144688863Y-110139094D01*
X144768215Y-110235785D01*
X144864906Y-110315137D01*
X144975220Y-110374102D01*
X145094918Y-110410412D01*
X145219400Y-110422672D01*
X145408650Y-110419600D01*
X145567400Y-110260850D01*
X145567400Y-109474100D01*
X145821400Y-109474100D01*
X145821400Y-110260850D01*
X145980150Y-110419600D01*
X146169400Y-110422672D01*
X146293882Y-110410412D01*
X146413580Y-110374102D01*
X146523894Y-110315137D01*
X146620585Y-110235785D01*
X146699937Y-110139094D01*
X146758902Y-110028780D01*
X146795212Y-109909082D01*
X146807472Y-109784600D01*
X146804400Y-109632850D01*
X146645650Y-109474100D01*
X145821400Y-109474100D01*
X145567400Y-109474100D01*
X145547400Y-109474100D01*
X145547400Y-109220100D01*
X145567400Y-109220100D01*
X145567400Y-109200100D01*
X145821400Y-109200100D01*
X145821400Y-109220100D01*
X146645650Y-109220100D01*
X146804400Y-109061350D01*
X146807472Y-108909600D01*
X146795212Y-108785118D01*
X146758902Y-108665420D01*
X146722651Y-108597600D01*
X147257368Y-108597600D01*
X148892006Y-110232239D01*
X148917859Y-110263741D01*
X148980486Y-110315137D01*
X149043557Y-110366899D01*
X149093511Y-110393599D01*
X149186966Y-110443553D01*
X149342574Y-110490756D01*
X149463847Y-110502700D01*
X149463849Y-110502700D01*
X149504399Y-110506694D01*
X149544950Y-110502700D01*
X149946387Y-110502700D01*
X150027325Y-110623832D01*
X150234168Y-110830675D01*
X150477389Y-110993190D01*
X150747642Y-111105132D01*
X151034540Y-111162200D01*
X151327060Y-111162200D01*
X151613958Y-111105132D01*
X151638401Y-111095008D01*
X151638401Y-117179029D01*
X151413650Y-116842666D01*
X151025734Y-116454750D01*
X150569592Y-116149965D01*
X150062754Y-115940026D01*
X149524699Y-115833000D01*
X148976101Y-115833000D01*
X148438046Y-115940026D01*
X147931208Y-116149965D01*
X147475066Y-116454750D01*
X147087150Y-116842666D01*
X146782365Y-117298808D01*
X146572426Y-117805646D01*
X146465400Y-118343701D01*
X146465400Y-118892299D01*
X146572426Y-119430354D01*
X146782365Y-119937192D01*
X147087150Y-120393334D01*
X147475066Y-120781250D01*
X147495980Y-120795224D01*
X125291183Y-120760201D01*
X125658050Y-120393334D01*
X125962835Y-119937192D01*
X126172774Y-119430354D01*
X126279800Y-118892299D01*
X126279800Y-118343701D01*
X126172774Y-117805646D01*
X125962835Y-117298808D01*
X125658050Y-116842666D01*
X125270134Y-116454750D01*
X124813992Y-116149965D01*
X124307154Y-115940026D01*
X123769099Y-115833000D01*
X123220501Y-115833000D01*
X122682446Y-115940026D01*
X122175608Y-116149965D01*
X121719466Y-116454750D01*
X121331550Y-116842666D01*
X121026765Y-117298808D01*
X120816826Y-117805646D01*
X120751200Y-118135570D01*
X120751200Y-111136519D01*
X121156969Y-111136519D01*
X121156969Y-111429039D01*
X121214037Y-111715937D01*
X121325979Y-111986190D01*
X121488494Y-112229411D01*
X121695337Y-112436254D01*
X121938558Y-112598769D01*
X122208811Y-112710711D01*
X122495709Y-112767779D01*
X122788229Y-112767779D01*
X123075127Y-112710711D01*
X123237615Y-112643407D01*
X123237615Y-112885923D01*
X123294683Y-113172821D01*
X123406625Y-113443074D01*
X123569140Y-113686295D01*
X123775983Y-113893138D01*
X124019204Y-114055653D01*
X124289457Y-114167595D01*
X124576355Y-114224663D01*
X124868875Y-114224663D01*
X125155773Y-114167595D01*
X125318261Y-114100291D01*
X125318261Y-114342808D01*
X125375329Y-114629706D01*
X125487271Y-114899959D01*
X125649786Y-115143180D01*
X125856629Y-115350023D01*
X126099850Y-115512538D01*
X126370103Y-115624480D01*
X126657001Y-115681548D01*
X126949521Y-115681548D01*
X127236419Y-115624480D01*
X127398908Y-115557175D01*
X127398908Y-115799692D01*
X127455976Y-116086590D01*
X127567918Y-116356843D01*
X127730433Y-116600064D01*
X127937276Y-116806907D01*
X128180497Y-116969422D01*
X128450750Y-117081364D01*
X128737648Y-117138432D01*
X129030168Y-117138432D01*
X129317066Y-117081364D01*
X129479554Y-117014060D01*
X129479554Y-117256576D01*
X129536622Y-117543474D01*
X129648564Y-117813727D01*
X129811079Y-118056948D01*
X130017922Y-118263791D01*
X130261143Y-118426306D01*
X130531396Y-118538248D01*
X130818294Y-118595316D01*
X131110814Y-118595316D01*
X131262209Y-118565201D01*
X131238434Y-118637835D01*
X131223461Y-118762019D01*
X131233003Y-118886739D01*
X131266693Y-119007200D01*
X131323236Y-119118775D01*
X131400461Y-119217174D01*
X131495398Y-119298617D01*
X132887956Y-120273697D01*
X132996958Y-120335054D01*
X133115835Y-120373966D01*
X133240019Y-120388939D01*
X133364739Y-120379397D01*
X133485200Y-120345707D01*
X133596775Y-120289164D01*
X133695174Y-120211939D01*
X133776617Y-120117002D01*
X134751697Y-118724444D01*
X134813054Y-118615442D01*
X134851966Y-118496565D01*
X134866939Y-118372381D01*
X134857397Y-118247661D01*
X134823707Y-118127200D01*
X134767164Y-118015625D01*
X134689939Y-117917226D01*
X134595002Y-117835783D01*
X133202444Y-116860703D01*
X133093442Y-116799346D01*
X132974565Y-116760434D01*
X132850381Y-116745461D01*
X132725661Y-116755003D01*
X132605200Y-116788693D01*
X132493625Y-116845236D01*
X132435061Y-116891198D01*
X132392486Y-116677158D01*
X132280544Y-116406905D01*
X132118029Y-116163684D01*
X131911186Y-115956841D01*
X131667965Y-115794326D01*
X131397712Y-115682384D01*
X131110814Y-115625316D01*
X130818294Y-115625316D01*
X130531396Y-115682384D01*
X130368908Y-115749688D01*
X130368908Y-115507172D01*
X130311840Y-115220274D01*
X130199898Y-114950021D01*
X130037383Y-114706800D01*
X129830540Y-114499957D01*
X129587319Y-114337442D01*
X129317066Y-114225500D01*
X129030168Y-114168432D01*
X128737648Y-114168432D01*
X128450750Y-114225500D01*
X128288261Y-114292805D01*
X128288261Y-114050288D01*
X128231193Y-113763390D01*
X128119251Y-113493137D01*
X127956736Y-113249916D01*
X127749893Y-113043073D01*
X127506672Y-112880558D01*
X127236419Y-112768616D01*
X126949521Y-112711548D01*
X126657001Y-112711548D01*
X126370103Y-112768616D01*
X126207615Y-112835920D01*
X126207615Y-112593403D01*
X126150547Y-112306505D01*
X126038605Y-112036252D01*
X125876090Y-111793031D01*
X125669247Y-111586188D01*
X125426026Y-111423673D01*
X125299828Y-111371400D01*
X126051328Y-111371400D01*
X126063588Y-111495882D01*
X126099898Y-111615580D01*
X126158863Y-111725894D01*
X126238215Y-111822585D01*
X126334906Y-111901937D01*
X126445220Y-111960902D01*
X126564918Y-111997212D01*
X126689400Y-112009472D01*
X126841150Y-112006400D01*
X126999900Y-111847650D01*
X126999900Y-111023400D01*
X126213150Y-111023400D01*
X126054400Y-111182150D01*
X126051328Y-111371400D01*
X125299828Y-111371400D01*
X125155773Y-111311731D01*
X124868875Y-111254663D01*
X124576355Y-111254663D01*
X124289457Y-111311731D01*
X124126969Y-111379035D01*
X124126969Y-111136519D01*
X124069901Y-110849621D01*
X123957959Y-110579368D01*
X123852409Y-110421400D01*
X126051328Y-110421400D01*
X126054400Y-110610650D01*
X126213150Y-110769400D01*
X126999900Y-110769400D01*
X126999900Y-109945150D01*
X126841150Y-109786400D01*
X126689400Y-109783328D01*
X126564918Y-109795588D01*
X126445220Y-109831898D01*
X126334906Y-109890863D01*
X126238215Y-109970215D01*
X126158863Y-110066906D01*
X126099898Y-110177220D01*
X126063588Y-110296918D01*
X126051328Y-110421400D01*
X123852409Y-110421400D01*
X123795444Y-110336147D01*
X123588601Y-110129304D01*
X123345380Y-109966789D01*
X123075127Y-109854847D01*
X122788229Y-109797779D01*
X122495709Y-109797779D01*
X122208811Y-109854847D01*
X121938558Y-109966789D01*
X121695337Y-110129304D01*
X121488494Y-110336147D01*
X121325979Y-110579368D01*
X121214037Y-110849621D01*
X121156969Y-111136519D01*
X120751200Y-111136519D01*
X120751200Y-89643479D01*
X120781402Y-89335460D01*
X120861482Y-89070220D01*
X120991556Y-88825587D01*
X121166671Y-88610875D01*
X121380147Y-88434272D01*
X121623872Y-88302490D01*
X121888545Y-88220560D01*
X122194529Y-88188400D01*
X150284921Y-88188400D01*
X150573209Y-88216667D01*
G36*
X142783498Y-110316580D02*
G01*
X142842463Y-110426894D01*
X142921815Y-110523585D01*
X143012853Y-110598297D01*
X142875000Y-110736150D01*
X142875000Y-110818259D01*
X142842463Y-110857906D01*
X142783498Y-110968220D01*
X142748000Y-111085241D01*
X142712502Y-110968220D01*
X142653537Y-110857906D01*
X142621000Y-110818259D01*
X142621000Y-110736150D01*
X142483147Y-110598297D01*
X142574185Y-110523585D01*
X142653537Y-110426894D01*
X142712502Y-110316580D01*
X142748000Y-110199559D01*
X142783498Y-110316580D01*
G37*
X142783498Y-110316580D02*
X142842463Y-110426894D01*
X142921815Y-110523585D01*
X143012853Y-110598297D01*
X142875000Y-110736150D01*
X142875000Y-110818259D01*
X142842463Y-110857906D01*
X142783498Y-110968220D01*
X142748000Y-111085241D01*
X142712502Y-110968220D01*
X142653537Y-110857906D01*
X142621000Y-110818259D01*
X142621000Y-110736150D01*
X142483147Y-110598297D01*
X142574185Y-110523585D01*
X142653537Y-110426894D01*
X142712502Y-110316580D01*
X142748000Y-110199559D01*
X142783498Y-110316580D01*
G36*
X138455400Y-109931100D02*
G01*
X139928600Y-109931100D01*
X139928600Y-109911100D01*
X140182600Y-109911100D01*
X140182600Y-109931100D01*
X140202600Y-109931100D01*
X140202600Y-110185100D01*
X140182600Y-110185100D01*
X140182600Y-110205100D01*
X139928600Y-110205100D01*
X139928600Y-110185100D01*
X138455400Y-110185100D01*
X138455400Y-110205100D01*
X138201400Y-110205100D01*
X138201400Y-110185100D01*
X138181400Y-110185100D01*
X138181400Y-109931100D01*
X138201400Y-109931100D01*
X138201400Y-109911100D01*
X138455400Y-109911100D01*
X138455400Y-109931100D01*
G37*
X138455400Y-109931100D02*
X139928600Y-109931100D01*
X139928600Y-109911100D01*
X140182600Y-109911100D01*
X140182600Y-109931100D01*
X140202600Y-109931100D01*
X140202600Y-110185100D01*
X140182600Y-110185100D01*
X140182600Y-110205100D01*
X139928600Y-110205100D01*
X139928600Y-110185100D01*
X138455400Y-110185100D01*
X138455400Y-110205100D01*
X138201400Y-110205100D01*
X138201400Y-110185100D01*
X138181400Y-110185100D01*
X138181400Y-109931100D01*
X138201400Y-109931100D01*
X138201400Y-109911100D01*
X138455400Y-109911100D01*
X138455400Y-109931100D01*
G36*
X140106500Y-107873800D02*
G01*
X140126500Y-107873800D01*
X140126500Y-108127800D01*
X140106500Y-108127800D01*
X140106500Y-108147800D01*
X139852500Y-108147800D01*
X139852500Y-108127800D01*
X139832500Y-108127800D01*
X139832500Y-107873800D01*
X139852500Y-107873800D01*
X139852500Y-107853800D01*
X140106500Y-107853800D01*
X140106500Y-107873800D01*
G37*
X140106500Y-107873800D02*
X140126500Y-107873800D01*
X140126500Y-108127800D01*
X140106500Y-108127800D01*
X140106500Y-108147800D01*
X139852500Y-108147800D01*
X139852500Y-108127800D01*
X139832500Y-108127800D01*
X139832500Y-107873800D01*
X139852500Y-107873800D01*
X139852500Y-107853800D01*
X140106500Y-107853800D01*
X140106500Y-107873800D01*
G36*
X135280300Y-107873800D02*
G01*
X135300300Y-107873800D01*
X135300300Y-108127800D01*
X135280300Y-108127800D01*
X135280300Y-108147800D01*
X135026300Y-108147800D01*
X135026300Y-108127800D01*
X135006300Y-108127800D01*
X135006300Y-107873800D01*
X135026300Y-107873800D01*
X135026300Y-107853800D01*
X135280300Y-107853800D01*
X135280300Y-107873800D01*
G37*
X135280300Y-107873800D02*
X135300300Y-107873800D01*
X135300300Y-108127800D01*
X135280300Y-108127800D01*
X135280300Y-108147800D01*
X135026300Y-108147800D01*
X135026300Y-108127800D01*
X135006300Y-108127800D01*
X135006300Y-107873800D01*
X135026300Y-107873800D01*
X135026300Y-107853800D01*
X135280300Y-107853800D01*
X135280300Y-107873800D01*
G36*
X142138097Y-104810927D02*
G01*
X142147164Y-104856512D01*
X142214179Y-105018299D01*
X142311469Y-105163904D01*
X142435296Y-105287731D01*
X142580901Y-105385021D01*
X142742688Y-105452036D01*
X142914441Y-105486200D01*
X143089559Y-105486200D01*
X143261312Y-105452036D01*
X143423099Y-105385021D01*
X143529129Y-105314174D01*
X143529129Y-105672049D01*
X143545593Y-105839207D01*
X143594351Y-105999941D01*
X143673530Y-106148074D01*
X143780086Y-106277914D01*
X143819917Y-106310602D01*
X143828645Y-106399226D01*
X143858854Y-106498812D01*
X143875848Y-106554834D01*
X143915119Y-106628304D01*
X143819808Y-106599392D01*
X143652650Y-106582928D01*
X143215150Y-106582928D01*
X143047992Y-106599392D01*
X142887258Y-106648150D01*
X142739125Y-106727329D01*
X142717470Y-106745100D01*
X142650894Y-106690463D01*
X142540580Y-106631498D01*
X142420882Y-106595188D01*
X142296400Y-106582928D01*
X142144650Y-106586000D01*
X141985900Y-106744750D01*
X141985900Y-107569000D01*
X142005900Y-107569000D01*
X142005900Y-107823000D01*
X141985900Y-107823000D01*
X141985900Y-107843000D01*
X141731900Y-107843000D01*
X141731900Y-107823000D01*
X141711900Y-107823000D01*
X141711900Y-107569000D01*
X141731900Y-107569000D01*
X141731900Y-106744750D01*
X141681200Y-106694050D01*
X141681200Y-106057023D01*
X141684886Y-106019600D01*
X141680311Y-105973151D01*
X141670174Y-105870222D01*
X141626602Y-105726585D01*
X141555845Y-105594208D01*
X141460622Y-105478178D01*
X141460072Y-105477727D01*
X141460072Y-104477672D01*
X141804842Y-104477672D01*
X142138097Y-104810927D01*
G37*
X142138097Y-104810927D02*
X142147164Y-104856512D01*
X142214179Y-105018299D01*
X142311469Y-105163904D01*
X142435296Y-105287731D01*
X142580901Y-105385021D01*
X142742688Y-105452036D01*
X142914441Y-105486200D01*
X143089559Y-105486200D01*
X143261312Y-105452036D01*
X143423099Y-105385021D01*
X143529129Y-105314174D01*
X143529129Y-105672049D01*
X143545593Y-105839207D01*
X143594351Y-105999941D01*
X143673530Y-106148074D01*
X143780086Y-106277914D01*
X143819917Y-106310602D01*
X143828645Y-106399226D01*
X143858854Y-106498812D01*
X143875848Y-106554834D01*
X143915119Y-106628304D01*
X143819808Y-106599392D01*
X143652650Y-106582928D01*
X143215150Y-106582928D01*
X143047992Y-106599392D01*
X142887258Y-106648150D01*
X142739125Y-106727329D01*
X142717470Y-106745100D01*
X142650894Y-106690463D01*
X142540580Y-106631498D01*
X142420882Y-106595188D01*
X142296400Y-106582928D01*
X142144650Y-106586000D01*
X141985900Y-106744750D01*
X141985900Y-107569000D01*
X142005900Y-107569000D01*
X142005900Y-107823000D01*
X141985900Y-107823000D01*
X141985900Y-107843000D01*
X141731900Y-107843000D01*
X141731900Y-107823000D01*
X141711900Y-107823000D01*
X141711900Y-107569000D01*
X141731900Y-107569000D01*
X141731900Y-106744750D01*
X141681200Y-106694050D01*
X141681200Y-106057023D01*
X141684886Y-106019600D01*
X141680311Y-105973151D01*
X141670174Y-105870222D01*
X141626602Y-105726585D01*
X141555845Y-105594208D01*
X141460622Y-105478178D01*
X141460072Y-105477727D01*
X141460072Y-104477672D01*
X141804842Y-104477672D01*
X142138097Y-104810927D01*
G36*
X132885561Y-105116526D02*
G01*
X133045045Y-105148250D01*
X133207655Y-105148250D01*
X133334200Y-105123078D01*
X133334200Y-105183405D01*
X133365924Y-105342889D01*
X133428152Y-105493121D01*
X133518492Y-105628325D01*
X133633475Y-105743308D01*
X133768679Y-105833648D01*
X133918911Y-105895876D01*
X134078395Y-105927600D01*
X134241005Y-105927600D01*
X134396927Y-105896585D01*
X134397629Y-105903713D01*
X134438207Y-106037481D01*
X134460249Y-106078718D01*
X134435992Y-106102975D01*
X134345652Y-106238179D01*
X134312617Y-106317933D01*
X134249985Y-106241615D01*
X134153294Y-106162263D01*
X134042980Y-106103298D01*
X133923282Y-106066988D01*
X133798800Y-106054728D01*
X133557191Y-106054728D01*
X133549774Y-105979422D01*
X133506202Y-105835785D01*
X133449779Y-105730225D01*
X133435445Y-105703407D01*
X133364079Y-105616448D01*
X133340222Y-105587378D01*
X133311151Y-105563521D01*
X132849021Y-105101391D01*
X132885561Y-105116526D01*
G37*
X132885561Y-105116526D02*
X133045045Y-105148250D01*
X133207655Y-105148250D01*
X133334200Y-105123078D01*
X133334200Y-105183405D01*
X133365924Y-105342889D01*
X133428152Y-105493121D01*
X133518492Y-105628325D01*
X133633475Y-105743308D01*
X133768679Y-105833648D01*
X133918911Y-105895876D01*
X134078395Y-105927600D01*
X134241005Y-105927600D01*
X134396927Y-105896585D01*
X134397629Y-105903713D01*
X134438207Y-106037481D01*
X134460249Y-106078718D01*
X134435992Y-106102975D01*
X134345652Y-106238179D01*
X134312617Y-106317933D01*
X134249985Y-106241615D01*
X134153294Y-106162263D01*
X134042980Y-106103298D01*
X133923282Y-106066988D01*
X133798800Y-106054728D01*
X133557191Y-106054728D01*
X133549774Y-105979422D01*
X133506202Y-105835785D01*
X133449779Y-105730225D01*
X133435445Y-105703407D01*
X133364079Y-105616448D01*
X133340222Y-105587378D01*
X133311151Y-105563521D01*
X132849021Y-105101391D01*
X132885561Y-105116526D01*
G36*
X139910001Y-103738347D02*
G01*
X139888117Y-103740732D01*
X139887949Y-103740786D01*
X139886113Y-103740229D01*
X139747000Y-103726528D01*
X139597000Y-103726528D01*
X139457887Y-103740229D01*
X139422000Y-103751115D01*
X139386113Y-103740229D01*
X139247000Y-103726528D01*
X139097000Y-103726528D01*
X138997500Y-103736328D01*
X138997500Y-103707095D01*
X138965776Y-103547611D01*
X138940422Y-103486400D01*
X139910001Y-103486400D01*
X139910001Y-103738347D01*
G37*
X139910001Y-103738347D02*
X139888117Y-103740732D01*
X139887949Y-103740786D01*
X139886113Y-103740229D01*
X139747000Y-103726528D01*
X139597000Y-103726528D01*
X139457887Y-103740229D01*
X139422000Y-103751115D01*
X139386113Y-103740229D01*
X139247000Y-103726528D01*
X139097000Y-103726528D01*
X138997500Y-103736328D01*
X138997500Y-103707095D01*
X138965776Y-103547611D01*
X138940422Y-103486400D01*
X139910001Y-103486400D01*
X139910001Y-103738347D01*
G36*
X139957887Y-98138971D02*
G01*
X140021750Y-98145261D01*
X139964598Y-98252185D01*
X139921026Y-98395822D01*
X139912096Y-98486496D01*
X139906314Y-98545200D01*
X139910000Y-98582623D01*
X139910000Y-98593457D01*
X139884179Y-98632101D01*
X139817164Y-98793888D01*
X139783000Y-98965641D01*
X139783000Y-99140759D01*
X139817164Y-99312512D01*
X139884179Y-99474299D01*
X139910001Y-99512944D01*
X139910000Y-101962400D01*
X136459950Y-101962400D01*
X136474200Y-101890759D01*
X136474200Y-101715641D01*
X136440036Y-101543888D01*
X136373021Y-101382101D01*
X136354000Y-101353634D01*
X136354000Y-99580720D01*
X136418669Y-99677504D01*
X136542496Y-99801331D01*
X136688101Y-99898621D01*
X136849888Y-99965636D01*
X137021641Y-99999800D01*
X137196759Y-99999800D01*
X137368512Y-99965636D01*
X137530299Y-99898621D01*
X137675904Y-99801331D01*
X137799731Y-99677504D01*
X137897021Y-99531899D01*
X137964036Y-99370112D01*
X137998200Y-99198359D01*
X137998200Y-99023241D01*
X137964036Y-98851488D01*
X137934000Y-98778975D01*
X137934000Y-98131725D01*
X137957887Y-98138971D01*
X138097000Y-98152672D01*
X138247000Y-98152672D01*
X138386113Y-98138971D01*
X138422000Y-98128085D01*
X138457887Y-98138971D01*
X138597000Y-98152672D01*
X138747000Y-98152672D01*
X138886113Y-98138971D01*
X138922000Y-98128085D01*
X138957887Y-98138971D01*
X139097000Y-98152672D01*
X139247000Y-98152672D01*
X139386113Y-98138971D01*
X139422000Y-98128085D01*
X139457887Y-98138971D01*
X139597000Y-98152672D01*
X139747000Y-98152672D01*
X139886113Y-98138971D01*
X139922000Y-98128085D01*
X139957887Y-98138971D01*
G37*
X139957887Y-98138971D02*
X140021750Y-98145261D01*
X139964598Y-98252185D01*
X139921026Y-98395822D01*
X139912096Y-98486496D01*
X139906314Y-98545200D01*
X139910000Y-98582623D01*
X139910000Y-98593457D01*
X139884179Y-98632101D01*
X139817164Y-98793888D01*
X139783000Y-98965641D01*
X139783000Y-99140759D01*
X139817164Y-99312512D01*
X139884179Y-99474299D01*
X139910001Y-99512944D01*
X139910000Y-101962400D01*
X136459950Y-101962400D01*
X136474200Y-101890759D01*
X136474200Y-101715641D01*
X136440036Y-101543888D01*
X136373021Y-101382101D01*
X136354000Y-101353634D01*
X136354000Y-99580720D01*
X136418669Y-99677504D01*
X136542496Y-99801331D01*
X136688101Y-99898621D01*
X136849888Y-99965636D01*
X137021641Y-99999800D01*
X137196759Y-99999800D01*
X137368512Y-99965636D01*
X137530299Y-99898621D01*
X137675904Y-99801331D01*
X137799731Y-99677504D01*
X137897021Y-99531899D01*
X137964036Y-99370112D01*
X137998200Y-99198359D01*
X137998200Y-99023241D01*
X137964036Y-98851488D01*
X137934000Y-98778975D01*
X137934000Y-98131725D01*
X137957887Y-98138971D01*
X138097000Y-98152672D01*
X138247000Y-98152672D01*
X138386113Y-98138971D01*
X138422000Y-98128085D01*
X138457887Y-98138971D01*
X138597000Y-98152672D01*
X138747000Y-98152672D01*
X138886113Y-98138971D01*
X138922000Y-98128085D01*
X138957887Y-98138971D01*
X139097000Y-98152672D01*
X139247000Y-98152672D01*
X139386113Y-98138971D01*
X139422000Y-98128085D01*
X139457887Y-98138971D01*
X139597000Y-98152672D01*
X139747000Y-98152672D01*
X139886113Y-98138971D01*
X139922000Y-98128085D01*
X139957887Y-98138971D01*
G36*
X148867420Y-95521102D02*
G01*
X148939980Y-95543113D01*
X148808125Y-95674968D01*
X148645610Y-95918189D01*
X148533668Y-96188442D01*
X148476600Y-96475340D01*
X148476600Y-96767860D01*
X148519921Y-96985649D01*
X145577970Y-99927600D01*
X144380430Y-99927600D01*
X148814966Y-95493065D01*
X148867420Y-95521102D01*
G37*
X148867420Y-95521102D02*
X148939980Y-95543113D01*
X148808125Y-95674968D01*
X148645610Y-95918189D01*
X148533668Y-96188442D01*
X148476600Y-96475340D01*
X148476600Y-96767860D01*
X148519921Y-96985649D01*
X145577970Y-99927600D01*
X144380430Y-99927600D01*
X148814966Y-95493065D01*
X148867420Y-95521102D01*
G36*
X127401587Y-98811824D02*
G01*
X127529551Y-98880222D01*
X127551069Y-98886750D01*
X127549528Y-98902400D01*
X127549528Y-99140400D01*
X127033322Y-99140400D01*
X126995899Y-99136714D01*
X126958476Y-99140400D01*
X126958474Y-99140400D01*
X126846522Y-99151426D01*
X126702885Y-99194998D01*
X126670515Y-99212300D01*
X126365000Y-99212300D01*
X126365000Y-99232300D01*
X126111000Y-99232300D01*
X126111000Y-99212300D01*
X126091000Y-99212300D01*
X126091000Y-98958300D01*
X126111000Y-98958300D01*
X126111000Y-98938300D01*
X126365000Y-98938300D01*
X126365000Y-98958300D01*
X127189250Y-98958300D01*
X127348000Y-98799550D01*
X127348384Y-98780600D01*
X127363540Y-98780600D01*
X127401587Y-98811824D01*
G37*
X127401587Y-98811824D02*
X127529551Y-98880222D01*
X127551069Y-98886750D01*
X127549528Y-98902400D01*
X127549528Y-99140400D01*
X127033322Y-99140400D01*
X126995899Y-99136714D01*
X126958476Y-99140400D01*
X126958474Y-99140400D01*
X126846522Y-99151426D01*
X126702885Y-99194998D01*
X126670515Y-99212300D01*
X126365000Y-99212300D01*
X126365000Y-99232300D01*
X126111000Y-99232300D01*
X126111000Y-99212300D01*
X126091000Y-99212300D01*
X126091000Y-98958300D01*
X126111000Y-98958300D01*
X126111000Y-98938300D01*
X126365000Y-98938300D01*
X126365000Y-98958300D01*
X127189250Y-98958300D01*
X127348000Y-98799550D01*
X127348384Y-98780600D01*
X127363540Y-98780600D01*
X127401587Y-98811824D01*
G36*
X145861725Y-91167432D02*
G01*
X146068568Y-91374275D01*
X146278601Y-91514614D01*
X146278600Y-94832247D01*
X146264226Y-94879632D01*
X146253200Y-94991584D01*
X146253200Y-95188370D01*
X143448138Y-97993432D01*
X143446371Y-97975487D01*
X143430049Y-97921681D01*
X145348307Y-96003424D01*
X145425021Y-95971648D01*
X145560225Y-95881308D01*
X145675208Y-95766325D01*
X145765548Y-95631121D01*
X145827776Y-95480889D01*
X145859500Y-95321405D01*
X145859500Y-95158795D01*
X145827776Y-94999311D01*
X145765548Y-94849079D01*
X145675208Y-94713875D01*
X145560225Y-94598892D01*
X145425021Y-94508552D01*
X145274789Y-94446324D01*
X145115305Y-94414600D01*
X144952695Y-94414600D01*
X144793211Y-94446324D01*
X144642979Y-94508552D01*
X144507775Y-94598892D01*
X144392792Y-94713875D01*
X144302452Y-94849079D01*
X144270676Y-94925793D01*
X141794942Y-97401528D01*
X141460072Y-97401528D01*
X141460072Y-97030737D01*
X144970469Y-93520341D01*
X144998575Y-93497275D01*
X145021642Y-93469168D01*
X145090624Y-93385114D01*
X145127773Y-93315611D01*
X145159022Y-93257149D01*
X145201142Y-93118299D01*
X145211800Y-93010086D01*
X145211800Y-93010084D01*
X145215364Y-92973901D01*
X145211800Y-92937717D01*
X145211800Y-91514614D01*
X145421832Y-91374275D01*
X145628675Y-91167432D01*
X145745200Y-90993040D01*
X145861725Y-91167432D01*
G37*
X145861725Y-91167432D02*
X146068568Y-91374275D01*
X146278601Y-91514614D01*
X146278600Y-94832247D01*
X146264226Y-94879632D01*
X146253200Y-94991584D01*
X146253200Y-95188370D01*
X143448138Y-97993432D01*
X143446371Y-97975487D01*
X143430049Y-97921681D01*
X145348307Y-96003424D01*
X145425021Y-95971648D01*
X145560225Y-95881308D01*
X145675208Y-95766325D01*
X145765548Y-95631121D01*
X145827776Y-95480889D01*
X145859500Y-95321405D01*
X145859500Y-95158795D01*
X145827776Y-94999311D01*
X145765548Y-94849079D01*
X145675208Y-94713875D01*
X145560225Y-94598892D01*
X145425021Y-94508552D01*
X145274789Y-94446324D01*
X145115305Y-94414600D01*
X144952695Y-94414600D01*
X144793211Y-94446324D01*
X144642979Y-94508552D01*
X144507775Y-94598892D01*
X144392792Y-94713875D01*
X144302452Y-94849079D01*
X144270676Y-94925793D01*
X141794942Y-97401528D01*
X141460072Y-97401528D01*
X141460072Y-97030737D01*
X144970469Y-93520341D01*
X144998575Y-93497275D01*
X145021642Y-93469168D01*
X145090624Y-93385114D01*
X145127773Y-93315611D01*
X145159022Y-93257149D01*
X145201142Y-93118299D01*
X145211800Y-93010086D01*
X145211800Y-93010084D01*
X145215364Y-92973901D01*
X145211800Y-92937717D01*
X145211800Y-91514614D01*
X145421832Y-91374275D01*
X145628675Y-91167432D01*
X145745200Y-90993040D01*
X145861725Y-91167432D01*
G36*
X129630770Y-93827600D02*
G01*
X129042831Y-93827600D01*
X126963311Y-91748081D01*
X127006140Y-91756600D01*
X127298660Y-91756600D01*
X127516449Y-91713279D01*
X129630770Y-93827600D01*
G37*
X129630770Y-93827600D02*
X129042831Y-93827600D01*
X126963311Y-91748081D01*
X127006140Y-91756600D01*
X127298660Y-91756600D01*
X127516449Y-91713279D01*
X129630770Y-93827600D01*
%TD*%
M02*
