%TF.GenerationSoftware,KiCad,Pcbnew,(5.1.6)-1*%
%TF.CreationDate,2020-11-24T16:57:48+08:00*%
%TF.ProjectId,BCG_mini_c8t6,4243475f-6d69-46e6-995f-633874362e6b,rev?*%
%TF.SameCoordinates,Original*%
%TF.FileFunction,Legend,Bot*%
%TF.FilePolarity,Positive*%
%FSLAX46Y46*%
G04 Gerber Fmt 4.6, Leading zero omitted, Abs format (unit mm)*
G04 Created by KiCad (PCBNEW (5.1.6)-1) date 2020-11-24 16:57:48*
%MOMM*%
%LPD*%
G01*
G04 APERTURE LIST*
%ADD10C,0.120000*%
%ADD11C,0.150000*%
G04 APERTURE END LIST*
D10*
%TO.C,C1*%
X139811979Y-99570000D02*
X139486421Y-99570000D01*
X139811979Y-98550000D02*
X139486421Y-98550000D01*
%TO.C,C2*%
X136336821Y-102262400D02*
X136662379Y-102262400D01*
X136336821Y-101242400D02*
X136662379Y-101242400D01*
%TO.C,R2*%
X136082821Y-98550000D02*
X136408379Y-98550000D01*
X136082821Y-99570000D02*
X136408379Y-99570000D01*
%TO.C,C1*%
D11*
X139714266Y-100737942D02*
X139761885Y-100785561D01*
X139904742Y-100833180D01*
X139999980Y-100833180D01*
X140142838Y-100785561D01*
X140238076Y-100690323D01*
X140285695Y-100595085D01*
X140333314Y-100404609D01*
X140333314Y-100261752D01*
X140285695Y-100071276D01*
X140238076Y-99976038D01*
X140142838Y-99880800D01*
X139999980Y-99833180D01*
X139904742Y-99833180D01*
X139761885Y-99880800D01*
X139714266Y-99928419D01*
X138761885Y-100833180D02*
X139333314Y-100833180D01*
X139047600Y-100833180D02*
X139047600Y-99833180D01*
X139142838Y-99976038D01*
X139238076Y-100071276D01*
X139333314Y-100118895D01*
%TO.C,C2*%
X136666266Y-103539542D02*
X136713885Y-103587161D01*
X136856742Y-103634780D01*
X136951980Y-103634780D01*
X137094838Y-103587161D01*
X137190076Y-103491923D01*
X137237695Y-103396685D01*
X137285314Y-103206209D01*
X137285314Y-103063352D01*
X137237695Y-102872876D01*
X137190076Y-102777638D01*
X137094838Y-102682400D01*
X136951980Y-102634780D01*
X136856742Y-102634780D01*
X136713885Y-102682400D01*
X136666266Y-102730019D01*
X136285314Y-102730019D02*
X136237695Y-102682400D01*
X136142457Y-102634780D01*
X135904361Y-102634780D01*
X135809123Y-102682400D01*
X135761504Y-102730019D01*
X135713885Y-102825257D01*
X135713885Y-102920495D01*
X135761504Y-103063352D01*
X136332933Y-103634780D01*
X135713885Y-103634780D01*
%TO.C,R2*%
X136412266Y-100942380D02*
X136745600Y-100466190D01*
X136983695Y-100942380D02*
X136983695Y-99942380D01*
X136602742Y-99942380D01*
X136507504Y-99990000D01*
X136459885Y-100037619D01*
X136412266Y-100132857D01*
X136412266Y-100275714D01*
X136459885Y-100370952D01*
X136507504Y-100418571D01*
X136602742Y-100466190D01*
X136983695Y-100466190D01*
X136031314Y-100037619D02*
X135983695Y-99990000D01*
X135888457Y-99942380D01*
X135650361Y-99942380D01*
X135555123Y-99990000D01*
X135507504Y-100037619D01*
X135459885Y-100132857D01*
X135459885Y-100228095D01*
X135507504Y-100370952D01*
X136078933Y-100942380D01*
X135459885Y-100942380D01*
%TD*%
M02*
