%TF.GenerationSoftware,KiCad,Pcbnew,(5.1.6)-1*%
%TF.CreationDate,2020-11-24T16:57:48+08:00*%
%TF.ProjectId,BCG_mini_c8t6,4243475f-6d69-46e6-995f-633874362e6b,rev?*%
%TF.SameCoordinates,Original*%
%TF.FileFunction,Soldermask,Top*%
%TF.FilePolarity,Negative*%
%FSLAX46Y46*%
G04 Gerber Fmt 4.6, Leading zero omitted, Abs format (unit mm)*
G04 Created by KiCad (PCBNEW (5.1.6)-1) date 2020-11-24 16:57:48*
%MOMM*%
%LPD*%
G01*
G04 APERTURE LIST*
%ADD10C,0.350000*%
%ADD11O,1.800000X1.800000*%
%ADD12R,1.800000X1.800000*%
%ADD13C,0.100000*%
%ADD14R,2.100000X1.700000*%
%ADD15R,0.750000X1.160000*%
%ADD16R,2.500000X2.100000*%
G04 APERTURE END LIST*
D10*
X136144000Y-120345200D02*
G75*
G03*
X136144000Y-120345200I-660400J0D01*
G01*
X151841200Y-109677200D02*
G75*
G03*
X151841200Y-109677200I-660400J0D01*
G01*
D11*
%TO.C,J5*%
X149961600Y-106781600D03*
X149961600Y-104241600D03*
X149961600Y-101701600D03*
X149961600Y-99161600D03*
X149961600Y-96621600D03*
D12*
X149961600Y-94081600D03*
%TD*%
%TO.C,C3*%
G36*
G01*
X127614400Y-110615150D02*
X127614400Y-111177650D01*
G75*
G02*
X127370650Y-111421400I-243750J0D01*
G01*
X126883150Y-111421400D01*
G75*
G02*
X126639400Y-111177650I0J243750D01*
G01*
X126639400Y-110615150D01*
G75*
G02*
X126883150Y-110371400I243750J0D01*
G01*
X127370650Y-110371400D01*
G75*
G02*
X127614400Y-110615150I0J-243750D01*
G01*
G37*
G36*
G01*
X129189400Y-110615150D02*
X129189400Y-111177650D01*
G75*
G02*
X128945650Y-111421400I-243750J0D01*
G01*
X128458150Y-111421400D01*
G75*
G02*
X128214400Y-111177650I0J243750D01*
G01*
X128214400Y-110615150D01*
G75*
G02*
X128458150Y-110371400I243750J0D01*
G01*
X128945650Y-110371400D01*
G75*
G02*
X129189400Y-110615150I0J-243750D01*
G01*
G37*
%TD*%
%TO.C,C4*%
G36*
G01*
X140467000Y-107719550D02*
X140467000Y-108282050D01*
G75*
G02*
X140223250Y-108525800I-243750J0D01*
G01*
X139735750Y-108525800D01*
G75*
G02*
X139492000Y-108282050I0J243750D01*
G01*
X139492000Y-107719550D01*
G75*
G02*
X139735750Y-107475800I243750J0D01*
G01*
X140223250Y-107475800D01*
G75*
G02*
X140467000Y-107719550I0J-243750D01*
G01*
G37*
G36*
G01*
X138892000Y-107719550D02*
X138892000Y-108282050D01*
G75*
G02*
X138648250Y-108525800I-243750J0D01*
G01*
X138160750Y-108525800D01*
G75*
G02*
X137917000Y-108282050I0J243750D01*
G01*
X137917000Y-107719550D01*
G75*
G02*
X138160750Y-107475800I243750J0D01*
G01*
X138648250Y-107475800D01*
G75*
G02*
X138892000Y-107719550I0J-243750D01*
G01*
G37*
%TD*%
%TO.C,C5*%
G36*
G01*
X126519250Y-99572800D02*
X125956750Y-99572800D01*
G75*
G02*
X125713000Y-99329050I0J243750D01*
G01*
X125713000Y-98841550D01*
G75*
G02*
X125956750Y-98597800I243750J0D01*
G01*
X126519250Y-98597800D01*
G75*
G02*
X126763000Y-98841550I0J-243750D01*
G01*
X126763000Y-99329050D01*
G75*
G02*
X126519250Y-99572800I-243750J0D01*
G01*
G37*
G36*
G01*
X126519250Y-101147800D02*
X125956750Y-101147800D01*
G75*
G02*
X125713000Y-100904050I0J243750D01*
G01*
X125713000Y-100416550D01*
G75*
G02*
X125956750Y-100172800I243750J0D01*
G01*
X126519250Y-100172800D01*
G75*
G02*
X126763000Y-100416550I0J-243750D01*
G01*
X126763000Y-100904050D01*
G75*
G02*
X126519250Y-101147800I-243750J0D01*
G01*
G37*
%TD*%
%TO.C,C6*%
G36*
G01*
X125956750Y-102103000D02*
X126519250Y-102103000D01*
G75*
G02*
X126763000Y-102346750I0J-243750D01*
G01*
X126763000Y-102834250D01*
G75*
G02*
X126519250Y-103078000I-243750J0D01*
G01*
X125956750Y-103078000D01*
G75*
G02*
X125713000Y-102834250I0J243750D01*
G01*
X125713000Y-102346750D01*
G75*
G02*
X125956750Y-102103000I243750J0D01*
G01*
G37*
G36*
G01*
X125956750Y-103678000D02*
X126519250Y-103678000D01*
G75*
G02*
X126763000Y-103921750I0J-243750D01*
G01*
X126763000Y-104409250D01*
G75*
G02*
X126519250Y-104653000I-243750J0D01*
G01*
X125956750Y-104653000D01*
G75*
G02*
X125713000Y-104409250I0J243750D01*
G01*
X125713000Y-103921750D01*
G75*
G02*
X125956750Y-103678000I243750J0D01*
G01*
G37*
%TD*%
%TO.C,C7*%
G36*
G01*
X139774350Y-109570600D02*
X140336850Y-109570600D01*
G75*
G02*
X140580600Y-109814350I0J-243750D01*
G01*
X140580600Y-110301850D01*
G75*
G02*
X140336850Y-110545600I-243750J0D01*
G01*
X139774350Y-110545600D01*
G75*
G02*
X139530600Y-110301850I0J243750D01*
G01*
X139530600Y-109814350D01*
G75*
G02*
X139774350Y-109570600I243750J0D01*
G01*
G37*
G36*
G01*
X139774350Y-111145600D02*
X140336850Y-111145600D01*
G75*
G02*
X140580600Y-111389350I0J-243750D01*
G01*
X140580600Y-111876850D01*
G75*
G02*
X140336850Y-112120600I-243750J0D01*
G01*
X139774350Y-112120600D01*
G75*
G02*
X139530600Y-111876850I0J243750D01*
G01*
X139530600Y-111389350D01*
G75*
G02*
X139774350Y-111145600I243750J0D01*
G01*
G37*
%TD*%
%TO.C,C8*%
G36*
G01*
X138047150Y-111145600D02*
X138609650Y-111145600D01*
G75*
G02*
X138853400Y-111389350I0J-243750D01*
G01*
X138853400Y-111876850D01*
G75*
G02*
X138609650Y-112120600I-243750J0D01*
G01*
X138047150Y-112120600D01*
G75*
G02*
X137803400Y-111876850I0J243750D01*
G01*
X137803400Y-111389350D01*
G75*
G02*
X138047150Y-111145600I243750J0D01*
G01*
G37*
G36*
G01*
X138047150Y-109570600D02*
X138609650Y-109570600D01*
G75*
G02*
X138853400Y-109814350I0J-243750D01*
G01*
X138853400Y-110301850D01*
G75*
G02*
X138609650Y-110545600I-243750J0D01*
G01*
X138047150Y-110545600D01*
G75*
G02*
X137803400Y-110301850I0J243750D01*
G01*
X137803400Y-109814350D01*
G75*
G02*
X138047150Y-109570600I243750J0D01*
G01*
G37*
%TD*%
%TO.C,C9*%
G36*
G01*
X142946400Y-107977250D02*
X142946400Y-107414750D01*
G75*
G02*
X143190150Y-107171000I243750J0D01*
G01*
X143677650Y-107171000D01*
G75*
G02*
X143921400Y-107414750I0J-243750D01*
G01*
X143921400Y-107977250D01*
G75*
G02*
X143677650Y-108221000I-243750J0D01*
G01*
X143190150Y-108221000D01*
G75*
G02*
X142946400Y-107977250I0J243750D01*
G01*
G37*
G36*
G01*
X141371400Y-107977250D02*
X141371400Y-107414750D01*
G75*
G02*
X141615150Y-107171000I243750J0D01*
G01*
X142102650Y-107171000D01*
G75*
G02*
X142346400Y-107414750I0J-243750D01*
G01*
X142346400Y-107977250D01*
G75*
G02*
X142102650Y-108221000I-243750J0D01*
G01*
X141615150Y-108221000D01*
G75*
G02*
X141371400Y-107977250I0J243750D01*
G01*
G37*
%TD*%
%TO.C,C10*%
G36*
G01*
X145975650Y-109834600D02*
X145413150Y-109834600D01*
G75*
G02*
X145169400Y-109590850I0J243750D01*
G01*
X145169400Y-109103350D01*
G75*
G02*
X145413150Y-108859600I243750J0D01*
G01*
X145975650Y-108859600D01*
G75*
G02*
X146219400Y-109103350I0J-243750D01*
G01*
X146219400Y-109590850D01*
G75*
G02*
X145975650Y-109834600I-243750J0D01*
G01*
G37*
G36*
G01*
X145975650Y-108259600D02*
X145413150Y-108259600D01*
G75*
G02*
X145169400Y-108015850I0J243750D01*
G01*
X145169400Y-107528350D01*
G75*
G02*
X145413150Y-107284600I243750J0D01*
G01*
X145975650Y-107284600D01*
G75*
G02*
X146219400Y-107528350I0J-243750D01*
G01*
X146219400Y-108015850D01*
G75*
G02*
X145975650Y-108259600I-243750J0D01*
G01*
G37*
%TD*%
%TO.C,D1*%
G36*
G01*
X146636050Y-105923000D02*
X146073550Y-105923000D01*
G75*
G02*
X145829800Y-105679250I0J243750D01*
G01*
X145829800Y-105191750D01*
G75*
G02*
X146073550Y-104948000I243750J0D01*
G01*
X146636050Y-104948000D01*
G75*
G02*
X146879800Y-105191750I0J-243750D01*
G01*
X146879800Y-105679250D01*
G75*
G02*
X146636050Y-105923000I-243750J0D01*
G01*
G37*
G36*
G01*
X146636050Y-104348000D02*
X146073550Y-104348000D01*
G75*
G02*
X145829800Y-104104250I0J243750D01*
G01*
X145829800Y-103616750D01*
G75*
G02*
X146073550Y-103373000I243750J0D01*
G01*
X146636050Y-103373000D01*
G75*
G02*
X146879800Y-103616750I0J-243750D01*
G01*
X146879800Y-104104250D01*
G75*
G02*
X146636050Y-104348000I-243750J0D01*
G01*
G37*
%TD*%
%TO.C,F1*%
G36*
G01*
X136907800Y-110516750D02*
X136907800Y-111479250D01*
G75*
G02*
X136639050Y-111748000I-268750J0D01*
G01*
X136101550Y-111748000D01*
G75*
G02*
X135832800Y-111479250I0J268750D01*
G01*
X135832800Y-110516750D01*
G75*
G02*
X136101550Y-110248000I268750J0D01*
G01*
X136639050Y-110248000D01*
G75*
G02*
X136907800Y-110516750I0J-268750D01*
G01*
G37*
G36*
G01*
X135032800Y-110516750D02*
X135032800Y-111479250D01*
G75*
G02*
X134764050Y-111748000I-268750J0D01*
G01*
X134226550Y-111748000D01*
G75*
G02*
X133957800Y-111479250I0J268750D01*
G01*
X133957800Y-110516750D01*
G75*
G02*
X134226550Y-110248000I268750J0D01*
G01*
X134764050Y-110248000D01*
G75*
G02*
X135032800Y-110516750I0J-268750D01*
G01*
G37*
%TD*%
%TO.C,J1*%
X149555200Y-90220800D03*
D11*
X147015200Y-90220800D03*
X144475200Y-90220800D03*
X141935200Y-90220800D03*
%TD*%
%TO.C,J2*%
X122580400Y-106934000D03*
X122580400Y-104394000D03*
X122580400Y-101854000D03*
X122580400Y-99314000D03*
X122580400Y-96774000D03*
D12*
X122580400Y-94234000D03*
%TD*%
D13*
%TO.C,J3*%
G36*
X139405423Y-118896623D02*
G01*
X137846577Y-119796623D01*
X136946577Y-118237777D01*
X138505423Y-117337777D01*
X139405423Y-118896623D01*
G37*
G36*
G01*
X140825705Y-118076623D02*
X140825705Y-118076623D01*
G75*
G02*
X139596282Y-117747200I-450000J779423D01*
G01*
X139596282Y-117747200D01*
G75*
G02*
X139925705Y-116517777I779423J450000D01*
G01*
X139925705Y-116517777D01*
G75*
G02*
X141155128Y-116847200I450000J-779423D01*
G01*
X141155128Y-116847200D01*
G75*
G02*
X140825705Y-118076623I-779423J-450000D01*
G01*
G37*
G36*
G01*
X143025409Y-116806623D02*
X143025409Y-116806623D01*
G75*
G02*
X141795986Y-116477200I-450000J779423D01*
G01*
X141795986Y-116477200D01*
G75*
G02*
X142125409Y-115247777I779423J450000D01*
G01*
X142125409Y-115247777D01*
G75*
G02*
X143354832Y-115577200I450000J-779423D01*
G01*
X143354832Y-115577200D01*
G75*
G02*
X143025409Y-116806623I-779423J-450000D01*
G01*
G37*
G36*
G01*
X145225114Y-115536623D02*
X145225114Y-115536623D01*
G75*
G02*
X143995691Y-115207200I-450000J779423D01*
G01*
X143995691Y-115207200D01*
G75*
G02*
X144325114Y-113977777I779423J450000D01*
G01*
X144325114Y-113977777D01*
G75*
G02*
X145554537Y-114307200I450000J-779423D01*
G01*
X145554537Y-114307200D01*
G75*
G02*
X145225114Y-115536623I-779423J-450000D01*
G01*
G37*
G36*
G01*
X147424818Y-114266623D02*
X147424818Y-114266623D01*
G75*
G02*
X146195395Y-113937200I-450000J779423D01*
G01*
X146195395Y-113937200D01*
G75*
G02*
X146524818Y-112707777I779423J450000D01*
G01*
X146524818Y-112707777D01*
G75*
G02*
X147754241Y-113037200I450000J-779423D01*
G01*
X147754241Y-113037200D01*
G75*
G02*
X147424818Y-114266623I-779423J-450000D01*
G01*
G37*
G36*
G01*
X149624523Y-112996623D02*
X149624523Y-112996623D01*
G75*
G02*
X148395100Y-112667200I-450000J779423D01*
G01*
X148395100Y-112667200D01*
G75*
G02*
X148724523Y-111437777I779423J450000D01*
G01*
X148724523Y-111437777D01*
G75*
G02*
X149953946Y-111767200I450000J-779423D01*
G01*
X149953946Y-111767200D01*
G75*
G02*
X149624523Y-112996623I-779423J-450000D01*
G01*
G37*
%TD*%
%TO.C,J4*%
G36*
X132824182Y-117313744D02*
G01*
X134298656Y-118346182D01*
X133266218Y-119820656D01*
X131791744Y-118788218D01*
X132824182Y-117313744D01*
G37*
G36*
G01*
X131480773Y-116373079D02*
X131480773Y-116373079D01*
G75*
G02*
X131701791Y-117626535I-516219J-737237D01*
G01*
X131701791Y-117626535D01*
G75*
G02*
X130448335Y-117847553I-737237J516219D01*
G01*
X130448335Y-117847553D01*
G75*
G02*
X130227317Y-116594097I516219J737237D01*
G01*
X130227317Y-116594097D01*
G75*
G02*
X131480773Y-116373079I737237J-516219D01*
G01*
G37*
G36*
G01*
X129400127Y-114916195D02*
X129400127Y-114916195D01*
G75*
G02*
X129621145Y-116169651I-516219J-737237D01*
G01*
X129621145Y-116169651D01*
G75*
G02*
X128367689Y-116390669I-737237J516219D01*
G01*
X128367689Y-116390669D01*
G75*
G02*
X128146671Y-115137213I516219J737237D01*
G01*
X128146671Y-115137213D01*
G75*
G02*
X129400127Y-114916195I737237J-516219D01*
G01*
G37*
G36*
G01*
X127319480Y-113459311D02*
X127319480Y-113459311D01*
G75*
G02*
X127540498Y-114712767I-516219J-737237D01*
G01*
X127540498Y-114712767D01*
G75*
G02*
X126287042Y-114933785I-737237J516219D01*
G01*
X126287042Y-114933785D01*
G75*
G02*
X126066024Y-113680329I516219J737237D01*
G01*
X126066024Y-113680329D01*
G75*
G02*
X127319480Y-113459311I737237J-516219D01*
G01*
G37*
G36*
G01*
X125238834Y-112002426D02*
X125238834Y-112002426D01*
G75*
G02*
X125459852Y-113255882I-516219J-737237D01*
G01*
X125459852Y-113255882D01*
G75*
G02*
X124206396Y-113476900I-737237J516219D01*
G01*
X124206396Y-113476900D01*
G75*
G02*
X123985378Y-112223444I516219J737237D01*
G01*
X123985378Y-112223444D01*
G75*
G02*
X125238834Y-112002426I737237J-516219D01*
G01*
G37*
G36*
G01*
X123158188Y-110545542D02*
X123158188Y-110545542D01*
G75*
G02*
X123379206Y-111798998I-516219J-737237D01*
G01*
X123379206Y-111798998D01*
G75*
G02*
X122125750Y-112020016I-737237J516219D01*
G01*
X122125750Y-112020016D01*
G75*
G02*
X121904732Y-110766560I516219J737237D01*
G01*
X121904732Y-110766560D01*
G75*
G02*
X123158188Y-110545542I737237J-516219D01*
G01*
G37*
%TD*%
D12*
%TO.C,J6*%
X124612400Y-90271600D03*
D11*
X127152400Y-90271600D03*
X129692400Y-90271600D03*
X132232400Y-90271600D03*
X134772400Y-90271600D03*
X137312400Y-90271600D03*
%TD*%
D12*
%TO.C,J7*%
X134467600Y-114249200D03*
D11*
X137007600Y-114249200D03*
%TD*%
%TO.C,R1*%
G36*
G01*
X130043000Y-111177650D02*
X130043000Y-110615150D01*
G75*
G02*
X130286750Y-110371400I243750J0D01*
G01*
X130774250Y-110371400D01*
G75*
G02*
X131018000Y-110615150I0J-243750D01*
G01*
X131018000Y-111177650D01*
G75*
G02*
X130774250Y-111421400I-243750J0D01*
G01*
X130286750Y-111421400D01*
G75*
G02*
X130043000Y-111177650I0J243750D01*
G01*
G37*
G36*
G01*
X131618000Y-111177650D02*
X131618000Y-110615150D01*
G75*
G02*
X131861750Y-110371400I243750J0D01*
G01*
X132349250Y-110371400D01*
G75*
G02*
X132593000Y-110615150I0J-243750D01*
G01*
X132593000Y-111177650D01*
G75*
G02*
X132349250Y-111421400I-243750J0D01*
G01*
X131861750Y-111421400D01*
G75*
G02*
X131618000Y-111177650I0J243750D01*
G01*
G37*
%TD*%
%TO.C,R3*%
G36*
G01*
X135640800Y-107719550D02*
X135640800Y-108282050D01*
G75*
G02*
X135397050Y-108525800I-243750J0D01*
G01*
X134909550Y-108525800D01*
G75*
G02*
X134665800Y-108282050I0J243750D01*
G01*
X134665800Y-107719550D01*
G75*
G02*
X134909550Y-107475800I243750J0D01*
G01*
X135397050Y-107475800D01*
G75*
G02*
X135640800Y-107719550I0J-243750D01*
G01*
G37*
G36*
G01*
X137215800Y-107719550D02*
X137215800Y-108282050D01*
G75*
G02*
X136972050Y-108525800I-243750J0D01*
G01*
X136484550Y-108525800D01*
G75*
G02*
X136240800Y-108282050I0J243750D01*
G01*
X136240800Y-107719550D01*
G75*
G02*
X136484550Y-107475800I243750J0D01*
G01*
X136972050Y-107475800D01*
G75*
G02*
X137215800Y-107719550I0J-243750D01*
G01*
G37*
%TD*%
%TO.C,R4*%
G36*
G01*
X144923451Y-105940799D02*
X144360951Y-105940799D01*
G75*
G02*
X144117201Y-105697049I0J243750D01*
G01*
X144117201Y-105209549D01*
G75*
G02*
X144360951Y-104965799I243750J0D01*
G01*
X144923451Y-104965799D01*
G75*
G02*
X145167201Y-105209549I0J-243750D01*
G01*
X145167201Y-105697049D01*
G75*
G02*
X144923451Y-105940799I-243750J0D01*
G01*
G37*
G36*
G01*
X144923451Y-104365799D02*
X144360951Y-104365799D01*
G75*
G02*
X144117201Y-104122049I0J243750D01*
G01*
X144117201Y-103634549D01*
G75*
G02*
X144360951Y-103390799I243750J0D01*
G01*
X144923451Y-103390799D01*
G75*
G02*
X145167201Y-103634549I0J-243750D01*
G01*
X145167201Y-104122049D01*
G75*
G02*
X144923451Y-104365799I-243750J0D01*
G01*
G37*
%TD*%
D14*
%TO.C,SW1*%
X132798800Y-107492800D03*
X127398800Y-107492800D03*
%TD*%
%TO.C,U1*%
G36*
G01*
X132972000Y-98289600D02*
X132972000Y-98089600D01*
G75*
G02*
X133072000Y-97989600I100000J0D01*
G01*
X134447000Y-97989600D01*
G75*
G02*
X134547000Y-98089600I0J-100000D01*
G01*
X134547000Y-98289600D01*
G75*
G02*
X134447000Y-98389600I-100000J0D01*
G01*
X133072000Y-98389600D01*
G75*
G02*
X132972000Y-98289600I0J100000D01*
G01*
G37*
G36*
G01*
X132972000Y-98789600D02*
X132972000Y-98589600D01*
G75*
G02*
X133072000Y-98489600I100000J0D01*
G01*
X134447000Y-98489600D01*
G75*
G02*
X134547000Y-98589600I0J-100000D01*
G01*
X134547000Y-98789600D01*
G75*
G02*
X134447000Y-98889600I-100000J0D01*
G01*
X133072000Y-98889600D01*
G75*
G02*
X132972000Y-98789600I0J100000D01*
G01*
G37*
G36*
G01*
X132972000Y-99289600D02*
X132972000Y-99089600D01*
G75*
G02*
X133072000Y-98989600I100000J0D01*
G01*
X134447000Y-98989600D01*
G75*
G02*
X134547000Y-99089600I0J-100000D01*
G01*
X134547000Y-99289600D01*
G75*
G02*
X134447000Y-99389600I-100000J0D01*
G01*
X133072000Y-99389600D01*
G75*
G02*
X132972000Y-99289600I0J100000D01*
G01*
G37*
G36*
G01*
X132972000Y-99789600D02*
X132972000Y-99589600D01*
G75*
G02*
X133072000Y-99489600I100000J0D01*
G01*
X134447000Y-99489600D01*
G75*
G02*
X134547000Y-99589600I0J-100000D01*
G01*
X134547000Y-99789600D01*
G75*
G02*
X134447000Y-99889600I-100000J0D01*
G01*
X133072000Y-99889600D01*
G75*
G02*
X132972000Y-99789600I0J100000D01*
G01*
G37*
G36*
G01*
X132972000Y-100289600D02*
X132972000Y-100089600D01*
G75*
G02*
X133072000Y-99989600I100000J0D01*
G01*
X134447000Y-99989600D01*
G75*
G02*
X134547000Y-100089600I0J-100000D01*
G01*
X134547000Y-100289600D01*
G75*
G02*
X134447000Y-100389600I-100000J0D01*
G01*
X133072000Y-100389600D01*
G75*
G02*
X132972000Y-100289600I0J100000D01*
G01*
G37*
G36*
G01*
X132972000Y-100789600D02*
X132972000Y-100589600D01*
G75*
G02*
X133072000Y-100489600I100000J0D01*
G01*
X134447000Y-100489600D01*
G75*
G02*
X134547000Y-100589600I0J-100000D01*
G01*
X134547000Y-100789600D01*
G75*
G02*
X134447000Y-100889600I-100000J0D01*
G01*
X133072000Y-100889600D01*
G75*
G02*
X132972000Y-100789600I0J100000D01*
G01*
G37*
G36*
G01*
X132972000Y-101289600D02*
X132972000Y-101089600D01*
G75*
G02*
X133072000Y-100989600I100000J0D01*
G01*
X134447000Y-100989600D01*
G75*
G02*
X134547000Y-101089600I0J-100000D01*
G01*
X134547000Y-101289600D01*
G75*
G02*
X134447000Y-101389600I-100000J0D01*
G01*
X133072000Y-101389600D01*
G75*
G02*
X132972000Y-101289600I0J100000D01*
G01*
G37*
G36*
G01*
X132972000Y-101789600D02*
X132972000Y-101589600D01*
G75*
G02*
X133072000Y-101489600I100000J0D01*
G01*
X134447000Y-101489600D01*
G75*
G02*
X134547000Y-101589600I0J-100000D01*
G01*
X134547000Y-101789600D01*
G75*
G02*
X134447000Y-101889600I-100000J0D01*
G01*
X133072000Y-101889600D01*
G75*
G02*
X132972000Y-101789600I0J100000D01*
G01*
G37*
G36*
G01*
X132972000Y-102289600D02*
X132972000Y-102089600D01*
G75*
G02*
X133072000Y-101989600I100000J0D01*
G01*
X134447000Y-101989600D01*
G75*
G02*
X134547000Y-102089600I0J-100000D01*
G01*
X134547000Y-102289600D01*
G75*
G02*
X134447000Y-102389600I-100000J0D01*
G01*
X133072000Y-102389600D01*
G75*
G02*
X132972000Y-102289600I0J100000D01*
G01*
G37*
G36*
G01*
X132972000Y-102789600D02*
X132972000Y-102589600D01*
G75*
G02*
X133072000Y-102489600I100000J0D01*
G01*
X134447000Y-102489600D01*
G75*
G02*
X134547000Y-102589600I0J-100000D01*
G01*
X134547000Y-102789600D01*
G75*
G02*
X134447000Y-102889600I-100000J0D01*
G01*
X133072000Y-102889600D01*
G75*
G02*
X132972000Y-102789600I0J100000D01*
G01*
G37*
G36*
G01*
X132972000Y-103289600D02*
X132972000Y-103089600D01*
G75*
G02*
X133072000Y-102989600I100000J0D01*
G01*
X134447000Y-102989600D01*
G75*
G02*
X134547000Y-103089600I0J-100000D01*
G01*
X134547000Y-103289600D01*
G75*
G02*
X134447000Y-103389600I-100000J0D01*
G01*
X133072000Y-103389600D01*
G75*
G02*
X132972000Y-103289600I0J100000D01*
G01*
G37*
G36*
G01*
X132972000Y-103789600D02*
X132972000Y-103589600D01*
G75*
G02*
X133072000Y-103489600I100000J0D01*
G01*
X134447000Y-103489600D01*
G75*
G02*
X134547000Y-103589600I0J-100000D01*
G01*
X134547000Y-103789600D01*
G75*
G02*
X134447000Y-103889600I-100000J0D01*
G01*
X133072000Y-103889600D01*
G75*
G02*
X132972000Y-103789600I0J100000D01*
G01*
G37*
G36*
G01*
X134972000Y-105789600D02*
X134972000Y-104414600D01*
G75*
G02*
X135072000Y-104314600I100000J0D01*
G01*
X135272000Y-104314600D01*
G75*
G02*
X135372000Y-104414600I0J-100000D01*
G01*
X135372000Y-105789600D01*
G75*
G02*
X135272000Y-105889600I-100000J0D01*
G01*
X135072000Y-105889600D01*
G75*
G02*
X134972000Y-105789600I0J100000D01*
G01*
G37*
G36*
G01*
X135472000Y-105789600D02*
X135472000Y-104414600D01*
G75*
G02*
X135572000Y-104314600I100000J0D01*
G01*
X135772000Y-104314600D01*
G75*
G02*
X135872000Y-104414600I0J-100000D01*
G01*
X135872000Y-105789600D01*
G75*
G02*
X135772000Y-105889600I-100000J0D01*
G01*
X135572000Y-105889600D01*
G75*
G02*
X135472000Y-105789600I0J100000D01*
G01*
G37*
G36*
G01*
X135972000Y-105789600D02*
X135972000Y-104414600D01*
G75*
G02*
X136072000Y-104314600I100000J0D01*
G01*
X136272000Y-104314600D01*
G75*
G02*
X136372000Y-104414600I0J-100000D01*
G01*
X136372000Y-105789600D01*
G75*
G02*
X136272000Y-105889600I-100000J0D01*
G01*
X136072000Y-105889600D01*
G75*
G02*
X135972000Y-105789600I0J100000D01*
G01*
G37*
G36*
G01*
X136472000Y-105789600D02*
X136472000Y-104414600D01*
G75*
G02*
X136572000Y-104314600I100000J0D01*
G01*
X136772000Y-104314600D01*
G75*
G02*
X136872000Y-104414600I0J-100000D01*
G01*
X136872000Y-105789600D01*
G75*
G02*
X136772000Y-105889600I-100000J0D01*
G01*
X136572000Y-105889600D01*
G75*
G02*
X136472000Y-105789600I0J100000D01*
G01*
G37*
G36*
G01*
X136972000Y-105789600D02*
X136972000Y-104414600D01*
G75*
G02*
X137072000Y-104314600I100000J0D01*
G01*
X137272000Y-104314600D01*
G75*
G02*
X137372000Y-104414600I0J-100000D01*
G01*
X137372000Y-105789600D01*
G75*
G02*
X137272000Y-105889600I-100000J0D01*
G01*
X137072000Y-105889600D01*
G75*
G02*
X136972000Y-105789600I0J100000D01*
G01*
G37*
G36*
G01*
X137472000Y-105789600D02*
X137472000Y-104414600D01*
G75*
G02*
X137572000Y-104314600I100000J0D01*
G01*
X137772000Y-104314600D01*
G75*
G02*
X137872000Y-104414600I0J-100000D01*
G01*
X137872000Y-105789600D01*
G75*
G02*
X137772000Y-105889600I-100000J0D01*
G01*
X137572000Y-105889600D01*
G75*
G02*
X137472000Y-105789600I0J100000D01*
G01*
G37*
G36*
G01*
X137972000Y-105789600D02*
X137972000Y-104414600D01*
G75*
G02*
X138072000Y-104314600I100000J0D01*
G01*
X138272000Y-104314600D01*
G75*
G02*
X138372000Y-104414600I0J-100000D01*
G01*
X138372000Y-105789600D01*
G75*
G02*
X138272000Y-105889600I-100000J0D01*
G01*
X138072000Y-105889600D01*
G75*
G02*
X137972000Y-105789600I0J100000D01*
G01*
G37*
G36*
G01*
X138472000Y-105789600D02*
X138472000Y-104414600D01*
G75*
G02*
X138572000Y-104314600I100000J0D01*
G01*
X138772000Y-104314600D01*
G75*
G02*
X138872000Y-104414600I0J-100000D01*
G01*
X138872000Y-105789600D01*
G75*
G02*
X138772000Y-105889600I-100000J0D01*
G01*
X138572000Y-105889600D01*
G75*
G02*
X138472000Y-105789600I0J100000D01*
G01*
G37*
G36*
G01*
X138972000Y-105789600D02*
X138972000Y-104414600D01*
G75*
G02*
X139072000Y-104314600I100000J0D01*
G01*
X139272000Y-104314600D01*
G75*
G02*
X139372000Y-104414600I0J-100000D01*
G01*
X139372000Y-105789600D01*
G75*
G02*
X139272000Y-105889600I-100000J0D01*
G01*
X139072000Y-105889600D01*
G75*
G02*
X138972000Y-105789600I0J100000D01*
G01*
G37*
G36*
G01*
X139472000Y-105789600D02*
X139472000Y-104414600D01*
G75*
G02*
X139572000Y-104314600I100000J0D01*
G01*
X139772000Y-104314600D01*
G75*
G02*
X139872000Y-104414600I0J-100000D01*
G01*
X139872000Y-105789600D01*
G75*
G02*
X139772000Y-105889600I-100000J0D01*
G01*
X139572000Y-105889600D01*
G75*
G02*
X139472000Y-105789600I0J100000D01*
G01*
G37*
G36*
G01*
X139972000Y-105789600D02*
X139972000Y-104414600D01*
G75*
G02*
X140072000Y-104314600I100000J0D01*
G01*
X140272000Y-104314600D01*
G75*
G02*
X140372000Y-104414600I0J-100000D01*
G01*
X140372000Y-105789600D01*
G75*
G02*
X140272000Y-105889600I-100000J0D01*
G01*
X140072000Y-105889600D01*
G75*
G02*
X139972000Y-105789600I0J100000D01*
G01*
G37*
G36*
G01*
X140472000Y-105789600D02*
X140472000Y-104414600D01*
G75*
G02*
X140572000Y-104314600I100000J0D01*
G01*
X140772000Y-104314600D01*
G75*
G02*
X140872000Y-104414600I0J-100000D01*
G01*
X140872000Y-105789600D01*
G75*
G02*
X140772000Y-105889600I-100000J0D01*
G01*
X140572000Y-105889600D01*
G75*
G02*
X140472000Y-105789600I0J100000D01*
G01*
G37*
G36*
G01*
X141297000Y-103789600D02*
X141297000Y-103589600D01*
G75*
G02*
X141397000Y-103489600I100000J0D01*
G01*
X142772000Y-103489600D01*
G75*
G02*
X142872000Y-103589600I0J-100000D01*
G01*
X142872000Y-103789600D01*
G75*
G02*
X142772000Y-103889600I-100000J0D01*
G01*
X141397000Y-103889600D01*
G75*
G02*
X141297000Y-103789600I0J100000D01*
G01*
G37*
G36*
G01*
X141297000Y-103289600D02*
X141297000Y-103089600D01*
G75*
G02*
X141397000Y-102989600I100000J0D01*
G01*
X142772000Y-102989600D01*
G75*
G02*
X142872000Y-103089600I0J-100000D01*
G01*
X142872000Y-103289600D01*
G75*
G02*
X142772000Y-103389600I-100000J0D01*
G01*
X141397000Y-103389600D01*
G75*
G02*
X141297000Y-103289600I0J100000D01*
G01*
G37*
G36*
G01*
X141297000Y-102789600D02*
X141297000Y-102589600D01*
G75*
G02*
X141397000Y-102489600I100000J0D01*
G01*
X142772000Y-102489600D01*
G75*
G02*
X142872000Y-102589600I0J-100000D01*
G01*
X142872000Y-102789600D01*
G75*
G02*
X142772000Y-102889600I-100000J0D01*
G01*
X141397000Y-102889600D01*
G75*
G02*
X141297000Y-102789600I0J100000D01*
G01*
G37*
G36*
G01*
X141297000Y-102289600D02*
X141297000Y-102089600D01*
G75*
G02*
X141397000Y-101989600I100000J0D01*
G01*
X142772000Y-101989600D01*
G75*
G02*
X142872000Y-102089600I0J-100000D01*
G01*
X142872000Y-102289600D01*
G75*
G02*
X142772000Y-102389600I-100000J0D01*
G01*
X141397000Y-102389600D01*
G75*
G02*
X141297000Y-102289600I0J100000D01*
G01*
G37*
G36*
G01*
X141297000Y-101789600D02*
X141297000Y-101589600D01*
G75*
G02*
X141397000Y-101489600I100000J0D01*
G01*
X142772000Y-101489600D01*
G75*
G02*
X142872000Y-101589600I0J-100000D01*
G01*
X142872000Y-101789600D01*
G75*
G02*
X142772000Y-101889600I-100000J0D01*
G01*
X141397000Y-101889600D01*
G75*
G02*
X141297000Y-101789600I0J100000D01*
G01*
G37*
G36*
G01*
X141297000Y-101289600D02*
X141297000Y-101089600D01*
G75*
G02*
X141397000Y-100989600I100000J0D01*
G01*
X142772000Y-100989600D01*
G75*
G02*
X142872000Y-101089600I0J-100000D01*
G01*
X142872000Y-101289600D01*
G75*
G02*
X142772000Y-101389600I-100000J0D01*
G01*
X141397000Y-101389600D01*
G75*
G02*
X141297000Y-101289600I0J100000D01*
G01*
G37*
G36*
G01*
X141297000Y-100789600D02*
X141297000Y-100589600D01*
G75*
G02*
X141397000Y-100489600I100000J0D01*
G01*
X142772000Y-100489600D01*
G75*
G02*
X142872000Y-100589600I0J-100000D01*
G01*
X142872000Y-100789600D01*
G75*
G02*
X142772000Y-100889600I-100000J0D01*
G01*
X141397000Y-100889600D01*
G75*
G02*
X141297000Y-100789600I0J100000D01*
G01*
G37*
G36*
G01*
X141297000Y-100289600D02*
X141297000Y-100089600D01*
G75*
G02*
X141397000Y-99989600I100000J0D01*
G01*
X142772000Y-99989600D01*
G75*
G02*
X142872000Y-100089600I0J-100000D01*
G01*
X142872000Y-100289600D01*
G75*
G02*
X142772000Y-100389600I-100000J0D01*
G01*
X141397000Y-100389600D01*
G75*
G02*
X141297000Y-100289600I0J100000D01*
G01*
G37*
G36*
G01*
X141297000Y-99789600D02*
X141297000Y-99589600D01*
G75*
G02*
X141397000Y-99489600I100000J0D01*
G01*
X142772000Y-99489600D01*
G75*
G02*
X142872000Y-99589600I0J-100000D01*
G01*
X142872000Y-99789600D01*
G75*
G02*
X142772000Y-99889600I-100000J0D01*
G01*
X141397000Y-99889600D01*
G75*
G02*
X141297000Y-99789600I0J100000D01*
G01*
G37*
G36*
G01*
X141297000Y-99289600D02*
X141297000Y-99089600D01*
G75*
G02*
X141397000Y-98989600I100000J0D01*
G01*
X142772000Y-98989600D01*
G75*
G02*
X142872000Y-99089600I0J-100000D01*
G01*
X142872000Y-99289600D01*
G75*
G02*
X142772000Y-99389600I-100000J0D01*
G01*
X141397000Y-99389600D01*
G75*
G02*
X141297000Y-99289600I0J100000D01*
G01*
G37*
G36*
G01*
X141297000Y-98789600D02*
X141297000Y-98589600D01*
G75*
G02*
X141397000Y-98489600I100000J0D01*
G01*
X142772000Y-98489600D01*
G75*
G02*
X142872000Y-98589600I0J-100000D01*
G01*
X142872000Y-98789600D01*
G75*
G02*
X142772000Y-98889600I-100000J0D01*
G01*
X141397000Y-98889600D01*
G75*
G02*
X141297000Y-98789600I0J100000D01*
G01*
G37*
G36*
G01*
X141297000Y-98289600D02*
X141297000Y-98089600D01*
G75*
G02*
X141397000Y-97989600I100000J0D01*
G01*
X142772000Y-97989600D01*
G75*
G02*
X142872000Y-98089600I0J-100000D01*
G01*
X142872000Y-98289600D01*
G75*
G02*
X142772000Y-98389600I-100000J0D01*
G01*
X141397000Y-98389600D01*
G75*
G02*
X141297000Y-98289600I0J100000D01*
G01*
G37*
G36*
G01*
X140472000Y-97464600D02*
X140472000Y-96089600D01*
G75*
G02*
X140572000Y-95989600I100000J0D01*
G01*
X140772000Y-95989600D01*
G75*
G02*
X140872000Y-96089600I0J-100000D01*
G01*
X140872000Y-97464600D01*
G75*
G02*
X140772000Y-97564600I-100000J0D01*
G01*
X140572000Y-97564600D01*
G75*
G02*
X140472000Y-97464600I0J100000D01*
G01*
G37*
G36*
G01*
X139972000Y-97464600D02*
X139972000Y-96089600D01*
G75*
G02*
X140072000Y-95989600I100000J0D01*
G01*
X140272000Y-95989600D01*
G75*
G02*
X140372000Y-96089600I0J-100000D01*
G01*
X140372000Y-97464600D01*
G75*
G02*
X140272000Y-97564600I-100000J0D01*
G01*
X140072000Y-97564600D01*
G75*
G02*
X139972000Y-97464600I0J100000D01*
G01*
G37*
G36*
G01*
X139472000Y-97464600D02*
X139472000Y-96089600D01*
G75*
G02*
X139572000Y-95989600I100000J0D01*
G01*
X139772000Y-95989600D01*
G75*
G02*
X139872000Y-96089600I0J-100000D01*
G01*
X139872000Y-97464600D01*
G75*
G02*
X139772000Y-97564600I-100000J0D01*
G01*
X139572000Y-97564600D01*
G75*
G02*
X139472000Y-97464600I0J100000D01*
G01*
G37*
G36*
G01*
X138972000Y-97464600D02*
X138972000Y-96089600D01*
G75*
G02*
X139072000Y-95989600I100000J0D01*
G01*
X139272000Y-95989600D01*
G75*
G02*
X139372000Y-96089600I0J-100000D01*
G01*
X139372000Y-97464600D01*
G75*
G02*
X139272000Y-97564600I-100000J0D01*
G01*
X139072000Y-97564600D01*
G75*
G02*
X138972000Y-97464600I0J100000D01*
G01*
G37*
G36*
G01*
X138472000Y-97464600D02*
X138472000Y-96089600D01*
G75*
G02*
X138572000Y-95989600I100000J0D01*
G01*
X138772000Y-95989600D01*
G75*
G02*
X138872000Y-96089600I0J-100000D01*
G01*
X138872000Y-97464600D01*
G75*
G02*
X138772000Y-97564600I-100000J0D01*
G01*
X138572000Y-97564600D01*
G75*
G02*
X138472000Y-97464600I0J100000D01*
G01*
G37*
G36*
G01*
X137972000Y-97464600D02*
X137972000Y-96089600D01*
G75*
G02*
X138072000Y-95989600I100000J0D01*
G01*
X138272000Y-95989600D01*
G75*
G02*
X138372000Y-96089600I0J-100000D01*
G01*
X138372000Y-97464600D01*
G75*
G02*
X138272000Y-97564600I-100000J0D01*
G01*
X138072000Y-97564600D01*
G75*
G02*
X137972000Y-97464600I0J100000D01*
G01*
G37*
G36*
G01*
X137472000Y-97464600D02*
X137472000Y-96089600D01*
G75*
G02*
X137572000Y-95989600I100000J0D01*
G01*
X137772000Y-95989600D01*
G75*
G02*
X137872000Y-96089600I0J-100000D01*
G01*
X137872000Y-97464600D01*
G75*
G02*
X137772000Y-97564600I-100000J0D01*
G01*
X137572000Y-97564600D01*
G75*
G02*
X137472000Y-97464600I0J100000D01*
G01*
G37*
G36*
G01*
X136972000Y-97464600D02*
X136972000Y-96089600D01*
G75*
G02*
X137072000Y-95989600I100000J0D01*
G01*
X137272000Y-95989600D01*
G75*
G02*
X137372000Y-96089600I0J-100000D01*
G01*
X137372000Y-97464600D01*
G75*
G02*
X137272000Y-97564600I-100000J0D01*
G01*
X137072000Y-97564600D01*
G75*
G02*
X136972000Y-97464600I0J100000D01*
G01*
G37*
G36*
G01*
X136472000Y-97464600D02*
X136472000Y-96089600D01*
G75*
G02*
X136572000Y-95989600I100000J0D01*
G01*
X136772000Y-95989600D01*
G75*
G02*
X136872000Y-96089600I0J-100000D01*
G01*
X136872000Y-97464600D01*
G75*
G02*
X136772000Y-97564600I-100000J0D01*
G01*
X136572000Y-97564600D01*
G75*
G02*
X136472000Y-97464600I0J100000D01*
G01*
G37*
G36*
G01*
X135972000Y-97464600D02*
X135972000Y-96089600D01*
G75*
G02*
X136072000Y-95989600I100000J0D01*
G01*
X136272000Y-95989600D01*
G75*
G02*
X136372000Y-96089600I0J-100000D01*
G01*
X136372000Y-97464600D01*
G75*
G02*
X136272000Y-97564600I-100000J0D01*
G01*
X136072000Y-97564600D01*
G75*
G02*
X135972000Y-97464600I0J100000D01*
G01*
G37*
G36*
G01*
X135472000Y-97464600D02*
X135472000Y-96089600D01*
G75*
G02*
X135572000Y-95989600I100000J0D01*
G01*
X135772000Y-95989600D01*
G75*
G02*
X135872000Y-96089600I0J-100000D01*
G01*
X135872000Y-97464600D01*
G75*
G02*
X135772000Y-97564600I-100000J0D01*
G01*
X135572000Y-97564600D01*
G75*
G02*
X135472000Y-97464600I0J100000D01*
G01*
G37*
G36*
G01*
X134972000Y-97464600D02*
X134972000Y-96089600D01*
G75*
G02*
X135072000Y-95989600I100000J0D01*
G01*
X135272000Y-95989600D01*
G75*
G02*
X135372000Y-96089600I0J-100000D01*
G01*
X135372000Y-97464600D01*
G75*
G02*
X135272000Y-97564600I-100000J0D01*
G01*
X135072000Y-97564600D01*
G75*
G02*
X134972000Y-97464600I0J100000D01*
G01*
G37*
%TD*%
D15*
%TO.C,U2*%
X141798000Y-111742400D03*
X142748000Y-111742400D03*
X143698000Y-111742400D03*
X143698000Y-109542400D03*
X141798000Y-109542400D03*
%TD*%
D16*
%TO.C,Y1*%
X129387600Y-99902400D03*
X129387600Y-103602400D03*
%TD*%
M02*
