%TF.GenerationSoftware,KiCad,Pcbnew,(5.1.6)-1*%
%TF.CreationDate,2020-11-24T16:57:48+08:00*%
%TF.ProjectId,BCG_mini_c8t6,4243475f-6d69-46e6-995f-633874362e6b,rev?*%
%TF.SameCoordinates,Original*%
%TF.FileFunction,Paste,Bot*%
%TF.FilePolarity,Positive*%
%FSLAX46Y46*%
G04 Gerber Fmt 4.6, Leading zero omitted, Abs format (unit mm)*
G04 Created by KiCad (PCBNEW (5.1.6)-1) date 2020-11-24 16:57:48*
%MOMM*%
%LPD*%
G01*
G04 APERTURE LIST*
G04 APERTURE END LIST*
%TO.C,C1*%
G36*
G01*
X139299200Y-98803750D02*
X139299200Y-99316250D01*
G75*
G02*
X139080450Y-99535000I-218750J0D01*
G01*
X138642950Y-99535000D01*
G75*
G02*
X138424200Y-99316250I0J218750D01*
G01*
X138424200Y-98803750D01*
G75*
G02*
X138642950Y-98585000I218750J0D01*
G01*
X139080450Y-98585000D01*
G75*
G02*
X139299200Y-98803750I0J-218750D01*
G01*
G37*
G36*
G01*
X140874200Y-98803750D02*
X140874200Y-99316250D01*
G75*
G02*
X140655450Y-99535000I-218750J0D01*
G01*
X140217950Y-99535000D01*
G75*
G02*
X139999200Y-99316250I0J218750D01*
G01*
X139999200Y-98803750D01*
G75*
G02*
X140217950Y-98585000I218750J0D01*
G01*
X140655450Y-98585000D01*
G75*
G02*
X140874200Y-98803750I0J-218750D01*
G01*
G37*
%TD*%
%TO.C,C2*%
G36*
G01*
X135274600Y-102008650D02*
X135274600Y-101496150D01*
G75*
G02*
X135493350Y-101277400I218750J0D01*
G01*
X135930850Y-101277400D01*
G75*
G02*
X136149600Y-101496150I0J-218750D01*
G01*
X136149600Y-102008650D01*
G75*
G02*
X135930850Y-102227400I-218750J0D01*
G01*
X135493350Y-102227400D01*
G75*
G02*
X135274600Y-102008650I0J218750D01*
G01*
G37*
G36*
G01*
X136849600Y-102008650D02*
X136849600Y-101496150D01*
G75*
G02*
X137068350Y-101277400I218750J0D01*
G01*
X137505850Y-101277400D01*
G75*
G02*
X137724600Y-101496150I0J-218750D01*
G01*
X137724600Y-102008650D01*
G75*
G02*
X137505850Y-102227400I-218750J0D01*
G01*
X137068350Y-102227400D01*
G75*
G02*
X136849600Y-102008650I0J218750D01*
G01*
G37*
%TD*%
%TO.C,R2*%
G36*
G01*
X136595600Y-99316250D02*
X136595600Y-98803750D01*
G75*
G02*
X136814350Y-98585000I218750J0D01*
G01*
X137251850Y-98585000D01*
G75*
G02*
X137470600Y-98803750I0J-218750D01*
G01*
X137470600Y-99316250D01*
G75*
G02*
X137251850Y-99535000I-218750J0D01*
G01*
X136814350Y-99535000D01*
G75*
G02*
X136595600Y-99316250I0J218750D01*
G01*
G37*
G36*
G01*
X135020600Y-99316250D02*
X135020600Y-98803750D01*
G75*
G02*
X135239350Y-98585000I218750J0D01*
G01*
X135676850Y-98585000D01*
G75*
G02*
X135895600Y-98803750I0J-218750D01*
G01*
X135895600Y-99316250D01*
G75*
G02*
X135676850Y-99535000I-218750J0D01*
G01*
X135239350Y-99535000D01*
G75*
G02*
X135020600Y-99316250I0J218750D01*
G01*
G37*
%TD*%
M02*
