%TF.GenerationSoftware,KiCad,Pcbnew,(5.1.6)-1*%
%TF.CreationDate,2020-11-24T16:57:48+08:00*%
%TF.ProjectId,BCG_mini_c8t6,4243475f-6d69-46e6-995f-633874362e6b,rev?*%
%TF.SameCoordinates,Original*%
%TF.FileFunction,Legend,Top*%
%TF.FilePolarity,Positive*%
%FSLAX46Y46*%
G04 Gerber Fmt 4.6, Leading zero omitted, Abs format (unit mm)*
G04 Created by KiCad (PCBNEW (5.1.6)-1) date 2020-11-24 16:57:48*
%MOMM*%
%LPD*%
G01*
G04 APERTURE LIST*
%ADD10C,0.300000*%
%ADD11C,0.203200*%
%ADD12C,0.150000*%
%ADD13C,0.120000*%
G04 APERTURE END LIST*
D10*
X135927257Y-117766400D02*
X135784400Y-117694971D01*
X135570114Y-117694971D01*
X135355828Y-117766400D01*
X135212971Y-117909257D01*
X135141542Y-118052114D01*
X135070114Y-118337828D01*
X135070114Y-118552114D01*
X135141542Y-118837828D01*
X135212971Y-118980685D01*
X135355828Y-119123542D01*
X135570114Y-119194971D01*
X135712971Y-119194971D01*
X135927257Y-119123542D01*
X135998685Y-119052114D01*
X135998685Y-118552114D01*
X135712971Y-118552114D01*
D11*
X151087666Y-110632421D02*
X151384000Y-111775421D01*
X151680333Y-110632421D01*
D10*
X144733200Y-97757371D02*
X144233200Y-97043085D01*
X143876057Y-97757371D02*
X143876057Y-96257371D01*
X144447485Y-96257371D01*
X144590342Y-96328800D01*
X144661771Y-96400228D01*
X144733200Y-96543085D01*
X144733200Y-96757371D01*
X144661771Y-96900228D01*
X144590342Y-96971657D01*
X144447485Y-97043085D01*
X143876057Y-97043085D01*
X145233200Y-96257371D02*
X146233200Y-97757371D01*
X146233200Y-96257371D02*
X145233200Y-97757371D01*
X143891142Y-98695771D02*
X144748285Y-98695771D01*
X144319714Y-100195771D02*
X144319714Y-98695771D01*
X145105428Y-98695771D02*
X146105428Y-100195771D01*
X146105428Y-98695771D02*
X145105428Y-100195771D01*
D12*
X133729504Y-116478857D02*
X133872361Y-116550285D01*
X133919980Y-116621714D01*
X133967600Y-116764571D01*
X133967600Y-116978857D01*
X133919980Y-117121714D01*
X133872361Y-117193142D01*
X133777123Y-117264571D01*
X133396171Y-117264571D01*
X133396171Y-115764571D01*
X133729504Y-115764571D01*
X133824742Y-115836000D01*
X133872361Y-115907428D01*
X133919980Y-116050285D01*
X133919980Y-116193142D01*
X133872361Y-116336000D01*
X133824742Y-116407428D01*
X133729504Y-116478857D01*
X133396171Y-116478857D01*
X134348552Y-116836000D02*
X134824742Y-116836000D01*
X134253314Y-117264571D02*
X134586647Y-115764571D01*
X134919980Y-117264571D01*
X135110457Y-115764571D02*
X135681885Y-115764571D01*
X135396171Y-117264571D02*
X135396171Y-115764571D01*
D10*
X137603657Y-115886800D02*
X137460800Y-115815371D01*
X137246514Y-115815371D01*
X137032228Y-115886800D01*
X136889371Y-116029657D01*
X136817942Y-116172514D01*
X136746514Y-116458228D01*
X136746514Y-116672514D01*
X136817942Y-116958228D01*
X136889371Y-117101085D01*
X137032228Y-117243942D01*
X137246514Y-117315371D01*
X137389371Y-117315371D01*
X137603657Y-117243942D01*
X137675085Y-117172514D01*
X137675085Y-116672514D01*
X137389371Y-116672514D01*
D11*
X146668066Y-94576900D02*
X147091400Y-94576900D01*
X146583400Y-94903471D02*
X146879733Y-93760471D01*
X147176066Y-94903471D01*
X147938066Y-94903471D02*
X147430066Y-94903471D01*
X147684066Y-94903471D02*
X147684066Y-93760471D01*
X147599400Y-93923757D01*
X147514733Y-94032614D01*
X147430066Y-94087042D01*
X148784733Y-94903471D02*
X148276733Y-94903471D01*
X148530733Y-94903471D02*
X148530733Y-93760471D01*
X148446066Y-93923757D01*
X148361400Y-94032614D01*
X148276733Y-94087042D01*
X146515666Y-97167700D02*
X146939000Y-97167700D01*
X146431000Y-97494271D02*
X146727333Y-96351271D01*
X147023666Y-97494271D01*
X147785666Y-97494271D02*
X147277666Y-97494271D01*
X147531666Y-97494271D02*
X147531666Y-96351271D01*
X147447000Y-96514557D01*
X147362333Y-96623414D01*
X147277666Y-96677842D01*
X148336000Y-96351271D02*
X148420666Y-96351271D01*
X148505333Y-96405700D01*
X148547666Y-96460128D01*
X148590000Y-96568985D01*
X148632333Y-96786700D01*
X148632333Y-97058842D01*
X148590000Y-97276557D01*
X148547666Y-97385414D01*
X148505333Y-97439842D01*
X148420666Y-97494271D01*
X148336000Y-97494271D01*
X148251333Y-97439842D01*
X148209000Y-97385414D01*
X148166666Y-97276557D01*
X148124333Y-97058842D01*
X148124333Y-96786700D01*
X148166666Y-96568985D01*
X148209000Y-96460128D01*
X148251333Y-96405700D01*
X148336000Y-96351271D01*
X147193000Y-99707700D02*
X147616333Y-99707700D01*
X147108333Y-100034271D02*
X147404666Y-98891271D01*
X147701000Y-100034271D01*
X148039666Y-100034271D02*
X148209000Y-100034271D01*
X148293666Y-99979842D01*
X148336000Y-99925414D01*
X148420666Y-99762128D01*
X148463000Y-99544414D01*
X148463000Y-99108985D01*
X148420666Y-99000128D01*
X148378333Y-98945700D01*
X148293666Y-98891271D01*
X148124333Y-98891271D01*
X148039666Y-98945700D01*
X147997333Y-99000128D01*
X147955000Y-99108985D01*
X147955000Y-99381128D01*
X147997333Y-99489985D01*
X148039666Y-99544414D01*
X148124333Y-99598842D01*
X148293666Y-99598842D01*
X148378333Y-99544414D01*
X148420666Y-99489985D01*
X148463000Y-99381128D01*
X147396200Y-101942900D02*
X147819533Y-101942900D01*
X147311533Y-102269471D02*
X147607866Y-101126471D01*
X147904200Y-102269471D01*
X148327533Y-101616328D02*
X148242866Y-101561900D01*
X148200533Y-101507471D01*
X148158200Y-101398614D01*
X148158200Y-101344185D01*
X148200533Y-101235328D01*
X148242866Y-101180900D01*
X148327533Y-101126471D01*
X148496866Y-101126471D01*
X148581533Y-101180900D01*
X148623866Y-101235328D01*
X148666200Y-101344185D01*
X148666200Y-101398614D01*
X148623866Y-101507471D01*
X148581533Y-101561900D01*
X148496866Y-101616328D01*
X148327533Y-101616328D01*
X148242866Y-101670757D01*
X148200533Y-101725185D01*
X148158200Y-101834042D01*
X148158200Y-102051757D01*
X148200533Y-102160614D01*
X148242866Y-102215042D01*
X148327533Y-102269471D01*
X148496866Y-102269471D01*
X148581533Y-102215042D01*
X148623866Y-102160614D01*
X148666200Y-102051757D01*
X148666200Y-101834042D01*
X148623866Y-101725185D01*
X148581533Y-101670757D01*
X148496866Y-101616328D01*
X147905107Y-105024766D02*
X147959535Y-104897766D01*
X148013964Y-104855433D01*
X148122821Y-104813100D01*
X148286107Y-104813100D01*
X148394964Y-104855433D01*
X148449392Y-104897766D01*
X148503821Y-104982433D01*
X148503821Y-105321100D01*
X147360821Y-105321100D01*
X147360821Y-105024766D01*
X147415250Y-104940100D01*
X147469678Y-104897766D01*
X147578535Y-104855433D01*
X147687392Y-104855433D01*
X147796250Y-104897766D01*
X147850678Y-104940100D01*
X147905107Y-105024766D01*
X147905107Y-105321100D01*
X148503821Y-103966433D02*
X148503821Y-104474433D01*
X148503821Y-104220433D02*
X147360821Y-104220433D01*
X147524107Y-104305100D01*
X147632964Y-104389766D01*
X147687392Y-104474433D01*
X147360821Y-103162100D02*
X147360821Y-103585433D01*
X147905107Y-103627766D01*
X147850678Y-103585433D01*
X147796250Y-103500766D01*
X147796250Y-103289100D01*
X147850678Y-103204433D01*
X147905107Y-103162100D01*
X148013964Y-103119766D01*
X148286107Y-103119766D01*
X148394964Y-103162100D01*
X148449392Y-103204433D01*
X148503821Y-103289100D01*
X148503821Y-103500766D01*
X148449392Y-103585433D01*
X148394964Y-103627766D01*
X147905107Y-107666366D02*
X147959535Y-107539366D01*
X148013964Y-107497033D01*
X148122821Y-107454700D01*
X148286107Y-107454700D01*
X148394964Y-107497033D01*
X148449392Y-107539366D01*
X148503821Y-107624033D01*
X148503821Y-107962700D01*
X147360821Y-107962700D01*
X147360821Y-107666366D01*
X147415250Y-107581700D01*
X147469678Y-107539366D01*
X147578535Y-107497033D01*
X147687392Y-107497033D01*
X147796250Y-107539366D01*
X147850678Y-107581700D01*
X147905107Y-107666366D01*
X147905107Y-107962700D01*
X148503821Y-106608033D02*
X148503821Y-107116033D01*
X148503821Y-106862033D02*
X147360821Y-106862033D01*
X147524107Y-106946700D01*
X147632964Y-107031366D01*
X147687392Y-107116033D01*
X147741821Y-105846033D02*
X148503821Y-105846033D01*
X147306392Y-106057700D02*
X148122821Y-106269366D01*
X148122821Y-105719033D01*
X149534033Y-114123107D02*
X149661033Y-114177535D01*
X149703366Y-114231964D01*
X149745700Y-114340821D01*
X149745700Y-114504107D01*
X149703366Y-114612964D01*
X149661033Y-114667392D01*
X149576366Y-114721821D01*
X149237700Y-114721821D01*
X149237700Y-113578821D01*
X149534033Y-113578821D01*
X149618700Y-113633250D01*
X149661033Y-113687678D01*
X149703366Y-113796535D01*
X149703366Y-113905392D01*
X149661033Y-114014250D01*
X149618700Y-114068678D01*
X149534033Y-114123107D01*
X149237700Y-114123107D01*
X150592366Y-114721821D02*
X150084366Y-114721821D01*
X150338366Y-114721821D02*
X150338366Y-113578821D01*
X150253700Y-113742107D01*
X150169033Y-113850964D01*
X150084366Y-113905392D01*
X150888700Y-113578821D02*
X151439033Y-113578821D01*
X151142700Y-114014250D01*
X151269700Y-114014250D01*
X151354366Y-114068678D01*
X151396700Y-114123107D01*
X151439033Y-114231964D01*
X151439033Y-114504107D01*
X151396700Y-114612964D01*
X151354366Y-114667392D01*
X151269700Y-114721821D01*
X151015700Y-114721821D01*
X150931033Y-114667392D01*
X150888700Y-114612964D01*
X147349633Y-115443907D02*
X147476633Y-115498335D01*
X147518966Y-115552764D01*
X147561300Y-115661621D01*
X147561300Y-115824907D01*
X147518966Y-115933764D01*
X147476633Y-115988192D01*
X147391966Y-116042621D01*
X147053300Y-116042621D01*
X147053300Y-114899621D01*
X147349633Y-114899621D01*
X147434300Y-114954050D01*
X147476633Y-115008478D01*
X147518966Y-115117335D01*
X147518966Y-115226192D01*
X147476633Y-115335050D01*
X147434300Y-115389478D01*
X147349633Y-115443907D01*
X147053300Y-115443907D01*
X148407966Y-116042621D02*
X147899966Y-116042621D01*
X148153966Y-116042621D02*
X148153966Y-114899621D01*
X148069300Y-115062907D01*
X147984633Y-115171764D01*
X147899966Y-115226192D01*
X148746633Y-115008478D02*
X148788966Y-114954050D01*
X148873633Y-114899621D01*
X149085300Y-114899621D01*
X149169966Y-114954050D01*
X149212300Y-115008478D01*
X149254633Y-115117335D01*
X149254633Y-115226192D01*
X149212300Y-115389478D01*
X148704300Y-116042621D01*
X149254633Y-116042621D01*
X145216033Y-116713907D02*
X145343033Y-116768335D01*
X145385366Y-116822764D01*
X145427700Y-116931621D01*
X145427700Y-117094907D01*
X145385366Y-117203764D01*
X145343033Y-117258192D01*
X145258366Y-117312621D01*
X144919700Y-117312621D01*
X144919700Y-116169621D01*
X145216033Y-116169621D01*
X145300700Y-116224050D01*
X145343033Y-116278478D01*
X145385366Y-116387335D01*
X145385366Y-116496192D01*
X145343033Y-116605050D01*
X145300700Y-116659478D01*
X145216033Y-116713907D01*
X144919700Y-116713907D01*
X146274366Y-117312621D02*
X145766366Y-117312621D01*
X146020366Y-117312621D02*
X146020366Y-116169621D01*
X145935700Y-116332907D01*
X145851033Y-116441764D01*
X145766366Y-116496192D01*
X147121033Y-117312621D02*
X146613033Y-117312621D01*
X146867033Y-117312621D02*
X146867033Y-116169621D01*
X146782366Y-116332907D01*
X146697700Y-116441764D01*
X146613033Y-116496192D01*
X142879233Y-117983907D02*
X143006233Y-118038335D01*
X143048566Y-118092764D01*
X143090900Y-118201621D01*
X143090900Y-118364907D01*
X143048566Y-118473764D01*
X143006233Y-118528192D01*
X142921566Y-118582621D01*
X142582900Y-118582621D01*
X142582900Y-117439621D01*
X142879233Y-117439621D01*
X142963900Y-117494050D01*
X143006233Y-117548478D01*
X143048566Y-117657335D01*
X143048566Y-117766192D01*
X143006233Y-117875050D01*
X142963900Y-117929478D01*
X142879233Y-117983907D01*
X142582900Y-117983907D01*
X143937566Y-118582621D02*
X143429566Y-118582621D01*
X143683566Y-118582621D02*
X143683566Y-117439621D01*
X143598900Y-117602907D01*
X143514233Y-117711764D01*
X143429566Y-117766192D01*
X144487900Y-117439621D02*
X144572566Y-117439621D01*
X144657233Y-117494050D01*
X144699566Y-117548478D01*
X144741900Y-117657335D01*
X144784233Y-117875050D01*
X144784233Y-118147192D01*
X144741900Y-118364907D01*
X144699566Y-118473764D01*
X144657233Y-118528192D01*
X144572566Y-118582621D01*
X144487900Y-118582621D01*
X144403233Y-118528192D01*
X144360900Y-118473764D01*
X144318566Y-118364907D01*
X144276233Y-118147192D01*
X144276233Y-117875050D01*
X144318566Y-117657335D01*
X144360900Y-117548478D01*
X144403233Y-117494050D01*
X144487900Y-117439621D01*
X141118166Y-119406307D02*
X141245166Y-119460735D01*
X141287500Y-119515164D01*
X141329833Y-119624021D01*
X141329833Y-119787307D01*
X141287500Y-119896164D01*
X141245166Y-119950592D01*
X141160500Y-120005021D01*
X140821833Y-120005021D01*
X140821833Y-118862021D01*
X141118166Y-118862021D01*
X141202833Y-118916450D01*
X141245166Y-118970878D01*
X141287500Y-119079735D01*
X141287500Y-119188592D01*
X141245166Y-119297450D01*
X141202833Y-119351878D01*
X141118166Y-119406307D01*
X140821833Y-119406307D01*
X142176500Y-120005021D02*
X141668500Y-120005021D01*
X141922500Y-120005021D02*
X141922500Y-118862021D01*
X141837833Y-119025307D01*
X141753166Y-119134164D01*
X141668500Y-119188592D01*
X139136966Y-120422307D02*
X139263966Y-120476735D01*
X139306300Y-120531164D01*
X139348633Y-120640021D01*
X139348633Y-120803307D01*
X139306300Y-120912164D01*
X139263966Y-120966592D01*
X139179300Y-121021021D01*
X138840633Y-121021021D01*
X138840633Y-119878021D01*
X139136966Y-119878021D01*
X139221633Y-119932450D01*
X139263966Y-119986878D01*
X139306300Y-120095735D01*
X139306300Y-120204592D01*
X139263966Y-120313450D01*
X139221633Y-120367878D01*
X139136966Y-120422307D01*
X138840633Y-120422307D01*
X139898966Y-119878021D02*
X139983633Y-119878021D01*
X140068300Y-119932450D01*
X140110633Y-119986878D01*
X140152966Y-120095735D01*
X140195300Y-120313450D01*
X140195300Y-120585592D01*
X140152966Y-120803307D01*
X140110633Y-120912164D01*
X140068300Y-120966592D01*
X139983633Y-121021021D01*
X139898966Y-121021021D01*
X139814300Y-120966592D01*
X139771966Y-120912164D01*
X139729633Y-120803307D01*
X139687300Y-120585592D01*
X139687300Y-120313450D01*
X139729633Y-120095735D01*
X139771966Y-119986878D01*
X139814300Y-119932450D01*
X139898966Y-119878021D01*
X131343400Y-120332500D02*
X131766733Y-120332500D01*
X131258733Y-120659071D02*
X131555066Y-119516071D01*
X131851400Y-120659071D01*
X132063066Y-119516071D02*
X132655733Y-119516071D01*
X132274733Y-120659071D01*
X129006600Y-119316500D02*
X129429933Y-119316500D01*
X128921933Y-119643071D02*
X129218266Y-118500071D01*
X129514600Y-119643071D01*
X130191933Y-118500071D02*
X130022600Y-118500071D01*
X129937933Y-118554500D01*
X129895600Y-118608928D01*
X129810933Y-118772214D01*
X129768600Y-118989928D01*
X129768600Y-119425357D01*
X129810933Y-119534214D01*
X129853266Y-119588642D01*
X129937933Y-119643071D01*
X130107266Y-119643071D01*
X130191933Y-119588642D01*
X130234266Y-119534214D01*
X130276600Y-119425357D01*
X130276600Y-119153214D01*
X130234266Y-119044357D01*
X130191933Y-118989928D01*
X130107266Y-118935500D01*
X129937933Y-118935500D01*
X129853266Y-118989928D01*
X129810933Y-119044357D01*
X129768600Y-119153214D01*
X127025400Y-117843300D02*
X127448733Y-117843300D01*
X126940733Y-118169871D02*
X127237066Y-117026871D01*
X127533400Y-118169871D01*
X128253066Y-117026871D02*
X127829733Y-117026871D01*
X127787400Y-117571157D01*
X127829733Y-117516728D01*
X127914400Y-117462300D01*
X128126066Y-117462300D01*
X128210733Y-117516728D01*
X128253066Y-117571157D01*
X128295400Y-117680014D01*
X128295400Y-117952157D01*
X128253066Y-118061014D01*
X128210733Y-118115442D01*
X128126066Y-118169871D01*
X127914400Y-118169871D01*
X127829733Y-118115442D01*
X127787400Y-118061014D01*
X124790200Y-116370100D02*
X125213533Y-116370100D01*
X124705533Y-116696671D02*
X125001866Y-115553671D01*
X125298200Y-116696671D01*
X125975533Y-115934671D02*
X125975533Y-116696671D01*
X125763866Y-115499242D02*
X125552200Y-116315671D01*
X126102533Y-116315671D01*
X122453400Y-114896900D02*
X122876733Y-114896900D01*
X122368733Y-115223471D02*
X122665066Y-114080471D01*
X122961400Y-115223471D01*
X123173066Y-114080471D02*
X123723400Y-114080471D01*
X123427066Y-114515900D01*
X123554066Y-114515900D01*
X123638733Y-114570328D01*
X123681066Y-114624757D01*
X123723400Y-114733614D01*
X123723400Y-115005757D01*
X123681066Y-115114614D01*
X123638733Y-115169042D01*
X123554066Y-115223471D01*
X123300066Y-115223471D01*
X123215400Y-115169042D01*
X123173066Y-115114614D01*
X120726200Y-113220500D02*
X121149533Y-113220500D01*
X120641533Y-113547071D02*
X120937866Y-112404071D01*
X121234200Y-113547071D01*
X121488200Y-112512928D02*
X121530533Y-112458500D01*
X121615200Y-112404071D01*
X121826866Y-112404071D01*
X121911533Y-112458500D01*
X121953866Y-112512928D01*
X121996200Y-112621785D01*
X121996200Y-112730642D01*
X121953866Y-112893928D01*
X121445866Y-113547071D01*
X121996200Y-113547071D01*
X124129800Y-107124500D02*
X124553133Y-107124500D01*
X124045133Y-107451071D02*
X124341466Y-106308071D01*
X124637800Y-107451071D01*
X125399800Y-107451071D02*
X124891800Y-107451071D01*
X125145800Y-107451071D02*
X125145800Y-106308071D01*
X125061133Y-106471357D01*
X124976466Y-106580214D01*
X124891800Y-106634642D01*
X123926600Y-104533700D02*
X124349933Y-104533700D01*
X123841933Y-104860271D02*
X124138266Y-103717271D01*
X124434600Y-104860271D01*
X124900266Y-103717271D02*
X124984933Y-103717271D01*
X125069600Y-103771700D01*
X125111933Y-103826128D01*
X125154266Y-103934985D01*
X125196600Y-104152700D01*
X125196600Y-104424842D01*
X125154266Y-104642557D01*
X125111933Y-104751414D01*
X125069600Y-104805842D01*
X124984933Y-104860271D01*
X124900266Y-104860271D01*
X124815600Y-104805842D01*
X124773266Y-104751414D01*
X124730933Y-104642557D01*
X124688600Y-104424842D01*
X124688600Y-104152700D01*
X124730933Y-103934985D01*
X124773266Y-103826128D01*
X124815600Y-103771700D01*
X124900266Y-103717271D01*
X124142500Y-102363814D02*
X124100166Y-102418242D01*
X123973166Y-102472671D01*
X123888500Y-102472671D01*
X123761500Y-102418242D01*
X123676833Y-102309385D01*
X123634500Y-102200528D01*
X123592166Y-101982814D01*
X123592166Y-101819528D01*
X123634500Y-101601814D01*
X123676833Y-101492957D01*
X123761500Y-101384100D01*
X123888500Y-101329671D01*
X123973166Y-101329671D01*
X124100166Y-101384100D01*
X124142500Y-101438528D01*
X124989166Y-102472671D02*
X124481166Y-102472671D01*
X124735166Y-102472671D02*
X124735166Y-101329671D01*
X124650500Y-101492957D01*
X124565833Y-101601814D01*
X124481166Y-101656242D01*
X125793500Y-101329671D02*
X125370166Y-101329671D01*
X125327833Y-101873957D01*
X125370166Y-101819528D01*
X125454833Y-101765100D01*
X125666500Y-101765100D01*
X125751166Y-101819528D01*
X125793500Y-101873957D01*
X125835833Y-101982814D01*
X125835833Y-102254957D01*
X125793500Y-102363814D01*
X125751166Y-102418242D01*
X125666500Y-102472671D01*
X125454833Y-102472671D01*
X125370166Y-102418242D01*
X125327833Y-102363814D01*
X124091700Y-99773014D02*
X124049366Y-99827442D01*
X123922366Y-99881871D01*
X123837700Y-99881871D01*
X123710700Y-99827442D01*
X123626033Y-99718585D01*
X123583700Y-99609728D01*
X123541366Y-99392014D01*
X123541366Y-99228728D01*
X123583700Y-99011014D01*
X123626033Y-98902157D01*
X123710700Y-98793300D01*
X123837700Y-98738871D01*
X123922366Y-98738871D01*
X124049366Y-98793300D01*
X124091700Y-98847728D01*
X124938366Y-99881871D02*
X124430366Y-99881871D01*
X124684366Y-99881871D02*
X124684366Y-98738871D01*
X124599700Y-98902157D01*
X124515033Y-99011014D01*
X124430366Y-99065442D01*
X125700366Y-99119871D02*
X125700366Y-99881871D01*
X125488700Y-98684442D02*
X125277033Y-99500871D01*
X125827366Y-99500871D01*
X124244100Y-97182214D02*
X124201766Y-97236642D01*
X124074766Y-97291071D01*
X123990100Y-97291071D01*
X123863100Y-97236642D01*
X123778433Y-97127785D01*
X123736100Y-97018928D01*
X123693766Y-96801214D01*
X123693766Y-96637928D01*
X123736100Y-96420214D01*
X123778433Y-96311357D01*
X123863100Y-96202500D01*
X123990100Y-96148071D01*
X124074766Y-96148071D01*
X124201766Y-96202500D01*
X124244100Y-96256928D01*
X125090766Y-97291071D02*
X124582766Y-97291071D01*
X124836766Y-97291071D02*
X124836766Y-96148071D01*
X124752100Y-96311357D01*
X124667433Y-96420214D01*
X124582766Y-96474642D01*
X125387100Y-96148071D02*
X125937433Y-96148071D01*
X125641100Y-96583500D01*
X125768100Y-96583500D01*
X125852766Y-96637928D01*
X125895100Y-96692357D01*
X125937433Y-96801214D01*
X125937433Y-97073357D01*
X125895100Y-97182214D01*
X125852766Y-97236642D01*
X125768100Y-97291071D01*
X125514100Y-97291071D01*
X125429433Y-97236642D01*
X125387100Y-97182214D01*
X124251357Y-94482457D02*
X124414642Y-94553885D01*
X124469071Y-94625314D01*
X124523500Y-94768171D01*
X124523500Y-94982457D01*
X124469071Y-95125314D01*
X124414642Y-95196742D01*
X124305785Y-95268171D01*
X123870357Y-95268171D01*
X123870357Y-93768171D01*
X124251357Y-93768171D01*
X124360214Y-93839600D01*
X124414642Y-93911028D01*
X124469071Y-94053885D01*
X124469071Y-94196742D01*
X124414642Y-94339600D01*
X124360214Y-94411028D01*
X124251357Y-94482457D01*
X123870357Y-94482457D01*
X125067785Y-95268171D02*
X125285500Y-95268171D01*
X125394357Y-95196742D01*
X125448785Y-95125314D01*
X125557642Y-94911028D01*
X125612071Y-94625314D01*
X125612071Y-94053885D01*
X125557642Y-93911028D01*
X125503214Y-93839600D01*
X125394357Y-93768171D01*
X125176642Y-93768171D01*
X125067785Y-93839600D01*
X125013357Y-93911028D01*
X124958928Y-94053885D01*
X124958928Y-94411028D01*
X125013357Y-94553885D01*
X125067785Y-94625314D01*
X125176642Y-94696742D01*
X125394357Y-94696742D01*
X125503214Y-94625314D01*
X125557642Y-94553885D01*
X125612071Y-94411028D01*
X149174200Y-91482171D02*
X149555200Y-92982171D01*
X149936200Y-91482171D01*
D10*
X141820057Y-91909200D02*
X141677200Y-91837771D01*
X141462914Y-91837771D01*
X141248628Y-91909200D01*
X141105771Y-92052057D01*
X141034342Y-92194914D01*
X140962914Y-92480628D01*
X140962914Y-92694914D01*
X141034342Y-92980628D01*
X141105771Y-93123485D01*
X141248628Y-93266342D01*
X141462914Y-93337771D01*
X141605771Y-93337771D01*
X141820057Y-93266342D01*
X141891485Y-93194914D01*
X141891485Y-92694914D01*
X141605771Y-92694914D01*
D11*
X146269528Y-93286971D02*
X146269528Y-91786971D01*
X146541671Y-91786971D01*
X146704957Y-91858400D01*
X146813814Y-92001257D01*
X146868242Y-92144114D01*
X146922671Y-92429828D01*
X146922671Y-92644114D01*
X146868242Y-92929828D01*
X146813814Y-93072685D01*
X146704957Y-93215542D01*
X146541671Y-93286971D01*
X146269528Y-93286971D01*
X147630242Y-91786971D02*
X147847957Y-91786971D01*
X147956814Y-91858400D01*
X148065671Y-92001257D01*
X148120100Y-92286971D01*
X148120100Y-92786971D01*
X148065671Y-93072685D01*
X147956814Y-93215542D01*
X147847957Y-93286971D01*
X147630242Y-93286971D01*
X147521385Y-93215542D01*
X147412528Y-93072685D01*
X147358100Y-92786971D01*
X147358100Y-92286971D01*
X147412528Y-92001257D01*
X147521385Y-91858400D01*
X147630242Y-91786971D01*
X143540842Y-93093314D02*
X143486414Y-93164742D01*
X143323128Y-93236171D01*
X143214271Y-93236171D01*
X143050985Y-93164742D01*
X142942128Y-93021885D01*
X142887700Y-92879028D01*
X142833271Y-92593314D01*
X142833271Y-92379028D01*
X142887700Y-92093314D01*
X142942128Y-91950457D01*
X143050985Y-91807600D01*
X143214271Y-91736171D01*
X143323128Y-91736171D01*
X143486414Y-91807600D01*
X143540842Y-91879028D01*
X144574985Y-93236171D02*
X144030700Y-93236171D01*
X144030700Y-91736171D01*
X144955985Y-93236171D02*
X144955985Y-91736171D01*
X145609128Y-93236171D02*
X145119271Y-92379028D01*
X145609128Y-91736171D02*
X144955985Y-92593314D01*
X137002157Y-92653657D02*
X137165442Y-92725085D01*
X137219871Y-92796514D01*
X137274300Y-92939371D01*
X137274300Y-93153657D01*
X137219871Y-93296514D01*
X137165442Y-93367942D01*
X137056585Y-93439371D01*
X136621157Y-93439371D01*
X136621157Y-91939371D01*
X137002157Y-91939371D01*
X137111014Y-92010800D01*
X137165442Y-92082228D01*
X137219871Y-92225085D01*
X137219871Y-92367942D01*
X137165442Y-92510800D01*
X137111014Y-92582228D01*
X137002157Y-92653657D01*
X136621157Y-92653657D01*
X137655300Y-91939371D02*
X138362871Y-91939371D01*
X137981871Y-92510800D01*
X138145157Y-92510800D01*
X138254014Y-92582228D01*
X138308442Y-92653657D01*
X138362871Y-92796514D01*
X138362871Y-93153657D01*
X138308442Y-93296514D01*
X138254014Y-93367942D01*
X138145157Y-93439371D01*
X137818585Y-93439371D01*
X137709728Y-93367942D01*
X137655300Y-93296514D01*
X134411357Y-92552057D02*
X134574642Y-92623485D01*
X134629071Y-92694914D01*
X134683500Y-92837771D01*
X134683500Y-93052057D01*
X134629071Y-93194914D01*
X134574642Y-93266342D01*
X134465785Y-93337771D01*
X134030357Y-93337771D01*
X134030357Y-91837771D01*
X134411357Y-91837771D01*
X134520214Y-91909200D01*
X134574642Y-91980628D01*
X134629071Y-92123485D01*
X134629071Y-92266342D01*
X134574642Y-92409200D01*
X134520214Y-92480628D01*
X134411357Y-92552057D01*
X134030357Y-92552057D01*
X135663214Y-92337771D02*
X135663214Y-93337771D01*
X135391071Y-91766342D02*
X135118928Y-92837771D01*
X135826500Y-92837771D01*
X131769757Y-92602857D02*
X131933042Y-92674285D01*
X131987471Y-92745714D01*
X132041900Y-92888571D01*
X132041900Y-93102857D01*
X131987471Y-93245714D01*
X131933042Y-93317142D01*
X131824185Y-93388571D01*
X131388757Y-93388571D01*
X131388757Y-91888571D01*
X131769757Y-91888571D01*
X131878614Y-91960000D01*
X131933042Y-92031428D01*
X131987471Y-92174285D01*
X131987471Y-92317142D01*
X131933042Y-92460000D01*
X131878614Y-92531428D01*
X131769757Y-92602857D01*
X131388757Y-92602857D01*
X133076042Y-91888571D02*
X132531757Y-91888571D01*
X132477328Y-92602857D01*
X132531757Y-92531428D01*
X132640614Y-92460000D01*
X132912757Y-92460000D01*
X133021614Y-92531428D01*
X133076042Y-92602857D01*
X133130471Y-92745714D01*
X133130471Y-93102857D01*
X133076042Y-93245714D01*
X133021614Y-93317142D01*
X132912757Y-93388571D01*
X132640614Y-93388571D01*
X132531757Y-93317142D01*
X132477328Y-93245714D01*
X129229757Y-92602857D02*
X129393042Y-92674285D01*
X129447471Y-92745714D01*
X129501900Y-92888571D01*
X129501900Y-93102857D01*
X129447471Y-93245714D01*
X129393042Y-93317142D01*
X129284185Y-93388571D01*
X128848757Y-93388571D01*
X128848757Y-91888571D01*
X129229757Y-91888571D01*
X129338614Y-91960000D01*
X129393042Y-92031428D01*
X129447471Y-92174285D01*
X129447471Y-92317142D01*
X129393042Y-92460000D01*
X129338614Y-92531428D01*
X129229757Y-92602857D01*
X128848757Y-92602857D01*
X130481614Y-91888571D02*
X130263900Y-91888571D01*
X130155042Y-91960000D01*
X130100614Y-92031428D01*
X129991757Y-92245714D01*
X129937328Y-92531428D01*
X129937328Y-93102857D01*
X129991757Y-93245714D01*
X130046185Y-93317142D01*
X130155042Y-93388571D01*
X130372757Y-93388571D01*
X130481614Y-93317142D01*
X130536042Y-93245714D01*
X130590471Y-93102857D01*
X130590471Y-92745714D01*
X130536042Y-92602857D01*
X130481614Y-92531428D01*
X130372757Y-92460000D01*
X130155042Y-92460000D01*
X130046185Y-92531428D01*
X129991757Y-92602857D01*
X129937328Y-92745714D01*
X126689757Y-92552057D02*
X126853042Y-92623485D01*
X126907471Y-92694914D01*
X126961900Y-92837771D01*
X126961900Y-93052057D01*
X126907471Y-93194914D01*
X126853042Y-93266342D01*
X126744185Y-93337771D01*
X126308757Y-93337771D01*
X126308757Y-91837771D01*
X126689757Y-91837771D01*
X126798614Y-91909200D01*
X126853042Y-91980628D01*
X126907471Y-92123485D01*
X126907471Y-92266342D01*
X126853042Y-92409200D01*
X126798614Y-92480628D01*
X126689757Y-92552057D01*
X126308757Y-92552057D01*
X127342900Y-91837771D02*
X128104900Y-91837771D01*
X127615042Y-93337771D01*
X124302157Y-92552057D02*
X124465442Y-92623485D01*
X124519871Y-92694914D01*
X124574300Y-92837771D01*
X124574300Y-93052057D01*
X124519871Y-93194914D01*
X124465442Y-93266342D01*
X124356585Y-93337771D01*
X123921157Y-93337771D01*
X123921157Y-91837771D01*
X124302157Y-91837771D01*
X124411014Y-91909200D01*
X124465442Y-91980628D01*
X124519871Y-92123485D01*
X124519871Y-92266342D01*
X124465442Y-92409200D01*
X124411014Y-92480628D01*
X124302157Y-92552057D01*
X123921157Y-92552057D01*
X125227442Y-92480628D02*
X125118585Y-92409200D01*
X125064157Y-92337771D01*
X125009728Y-92194914D01*
X125009728Y-92123485D01*
X125064157Y-91980628D01*
X125118585Y-91909200D01*
X125227442Y-91837771D01*
X125445157Y-91837771D01*
X125554014Y-91909200D01*
X125608442Y-91980628D01*
X125662871Y-92123485D01*
X125662871Y-92194914D01*
X125608442Y-92337771D01*
X125554014Y-92409200D01*
X125445157Y-92480628D01*
X125227442Y-92480628D01*
X125118585Y-92552057D01*
X125064157Y-92623485D01*
X125009728Y-92766342D01*
X125009728Y-93052057D01*
X125064157Y-93194914D01*
X125118585Y-93266342D01*
X125227442Y-93337771D01*
X125445157Y-93337771D01*
X125554014Y-93266342D01*
X125608442Y-93194914D01*
X125662871Y-93052057D01*
X125662871Y-92766342D01*
X125608442Y-92623485D01*
X125554014Y-92552057D01*
X125445157Y-92480628D01*
D13*
%TO.C,J5*%
X148631600Y-92751600D02*
X149961600Y-92751600D01*
X148631600Y-94081600D02*
X148631600Y-92751600D01*
X148631600Y-95351600D02*
X151291600Y-95351600D01*
X151291600Y-95351600D02*
X151291600Y-108111600D01*
X148631600Y-95351600D02*
X148631600Y-108111600D01*
X148631600Y-108111600D02*
X151291600Y-108111600D01*
%TO.C,C3*%
X128077179Y-110386400D02*
X127751621Y-110386400D01*
X128077179Y-111406400D02*
X127751621Y-111406400D01*
%TO.C,C4*%
X139354779Y-108510800D02*
X139029221Y-108510800D01*
X139354779Y-107490800D02*
X139029221Y-107490800D01*
%TO.C,C5*%
X126748000Y-100035579D02*
X126748000Y-99710021D01*
X125728000Y-100035579D02*
X125728000Y-99710021D01*
%TO.C,C6*%
X126748000Y-103215221D02*
X126748000Y-103540779D01*
X125728000Y-103215221D02*
X125728000Y-103540779D01*
%TO.C,C7*%
X140565600Y-110682821D02*
X140565600Y-111008379D01*
X139545600Y-110682821D02*
X139545600Y-111008379D01*
%TO.C,C8*%
X137818400Y-110682821D02*
X137818400Y-111008379D01*
X138838400Y-110682821D02*
X138838400Y-111008379D01*
%TO.C,C9*%
X142483621Y-108206000D02*
X142809179Y-108206000D01*
X142483621Y-107186000D02*
X142809179Y-107186000D01*
%TO.C,C10*%
X145184400Y-108722379D02*
X145184400Y-108396821D01*
X146204400Y-108722379D02*
X146204400Y-108396821D01*
%TO.C,D1*%
X145619800Y-103848000D02*
X145619800Y-106133000D01*
X145619800Y-106133000D02*
X147089800Y-106133000D01*
X147089800Y-106133000D02*
X147089800Y-103848000D01*
%TO.C,F1*%
X135691378Y-111708000D02*
X135174222Y-111708000D01*
X135691378Y-110288000D02*
X135174222Y-110288000D01*
%TO.C,J1*%
X140605200Y-88890800D02*
X140605200Y-91550800D01*
X148285200Y-88890800D02*
X140605200Y-88890800D01*
X148285200Y-91550800D02*
X140605200Y-91550800D01*
X148285200Y-88890800D02*
X148285200Y-91550800D01*
X149555200Y-88890800D02*
X150885200Y-88890800D01*
X150885200Y-88890800D02*
X150885200Y-90220800D01*
%TO.C,J2*%
X121250400Y-92904000D02*
X122580400Y-92904000D01*
X121250400Y-94234000D02*
X121250400Y-92904000D01*
X121250400Y-95504000D02*
X123910400Y-95504000D01*
X123910400Y-95504000D02*
X123910400Y-108264000D01*
X121250400Y-95504000D02*
X121250400Y-108264000D01*
X121250400Y-108264000D02*
X123910400Y-108264000D01*
%TO.C,J3*%
X150991336Y-112704014D02*
X149661336Y-110400386D01*
X139940852Y-119084014D02*
X150991336Y-112704014D01*
X138610852Y-116780386D02*
X149661336Y-110400386D01*
X139940852Y-119084014D02*
X138610852Y-116780386D01*
X138841000Y-119719014D02*
X137689186Y-120384014D01*
X137689186Y-120384014D02*
X137024186Y-119232200D01*
%TO.C,J4*%
X122315353Y-109430450D02*
X120789640Y-111609395D01*
X132767734Y-116749286D02*
X122315353Y-109430450D01*
X131242020Y-118928230D02*
X120789640Y-111609395D01*
X132767734Y-116749286D02*
X131242020Y-118928230D01*
X133808057Y-117477728D02*
X134897529Y-118240584D01*
X134897529Y-118240584D02*
X134134672Y-119330057D01*
%TO.C,J6*%
X138642400Y-91601600D02*
X138642400Y-88941600D01*
X125882400Y-91601600D02*
X138642400Y-91601600D01*
X125882400Y-88941600D02*
X138642400Y-88941600D01*
X125882400Y-91601600D02*
X125882400Y-88941600D01*
X124612400Y-91601600D02*
X123282400Y-91601600D01*
X123282400Y-91601600D02*
X123282400Y-90271600D01*
%TO.C,J7*%
X138337600Y-115579200D02*
X138337600Y-112919200D01*
X135737600Y-115579200D02*
X138337600Y-115579200D01*
X135737600Y-112919200D02*
X138337600Y-112919200D01*
X135737600Y-115579200D02*
X135737600Y-112919200D01*
X134467600Y-115579200D02*
X133137600Y-115579200D01*
X133137600Y-115579200D02*
X133137600Y-114249200D01*
%TO.C,R1*%
X131155221Y-110386400D02*
X131480779Y-110386400D01*
X131155221Y-111406400D02*
X131480779Y-111406400D01*
%TO.C,R3*%
X136103579Y-107490800D02*
X135778021Y-107490800D01*
X136103579Y-108510800D02*
X135778021Y-108510800D01*
%TO.C,R4*%
X144132201Y-104828578D02*
X144132201Y-104503020D01*
X145152201Y-104828578D02*
X145152201Y-104503020D01*
%TO.C,SW1*%
X133198800Y-105642800D02*
X133198800Y-106292800D01*
X133198800Y-109342800D02*
X133198800Y-108692800D01*
X126998800Y-108692800D02*
X126998800Y-109342800D01*
X126998800Y-105642800D02*
X126998800Y-106292800D01*
X133198800Y-105642800D02*
X126998800Y-105642800D01*
X126998800Y-109342800D02*
X133198800Y-109342800D01*
%TO.C,U1*%
X141082000Y-104549600D02*
X141532000Y-104549600D01*
X141532000Y-104549600D02*
X141532000Y-104099600D01*
X134762000Y-104549600D02*
X134312000Y-104549600D01*
X134312000Y-104549600D02*
X134312000Y-104099600D01*
X141082000Y-97329600D02*
X141532000Y-97329600D01*
X141532000Y-97329600D02*
X141532000Y-97779600D01*
X134762000Y-97329600D02*
X134312000Y-97329600D01*
X134312000Y-97329600D02*
X134312000Y-97779600D01*
X134312000Y-97779600D02*
X133022000Y-97779600D01*
%TO.C,U2*%
X144358000Y-111542400D02*
X144358000Y-109742400D01*
X141138000Y-109742400D02*
X141138000Y-112192400D01*
%TO.C,Y1*%
X131187600Y-104452400D02*
X131187600Y-98702400D01*
X131187600Y-98702400D02*
X127587600Y-98702400D01*
X127587600Y-98702400D02*
X127587600Y-104452400D01*
%TO.C,J5*%
D12*
X151152266Y-91959180D02*
X151152266Y-92673466D01*
X151104647Y-92816323D01*
X151009409Y-92911561D01*
X150866552Y-92959180D01*
X150771314Y-92959180D01*
X152104647Y-91959180D02*
X151628457Y-91959180D01*
X151580838Y-92435371D01*
X151628457Y-92387752D01*
X151723695Y-92340133D01*
X151961790Y-92340133D01*
X152057028Y-92387752D01*
X152104647Y-92435371D01*
X152152266Y-92530609D01*
X152152266Y-92768704D01*
X152104647Y-92863942D01*
X152057028Y-92911561D01*
X151961790Y-92959180D01*
X151723695Y-92959180D01*
X151628457Y-92911561D01*
X151580838Y-92863942D01*
%TO.C,C3*%
X127798533Y-110186742D02*
X127750914Y-110234361D01*
X127608057Y-110281980D01*
X127512819Y-110281980D01*
X127369961Y-110234361D01*
X127274723Y-110139123D01*
X127227104Y-110043885D01*
X127179485Y-109853409D01*
X127179485Y-109710552D01*
X127227104Y-109520076D01*
X127274723Y-109424838D01*
X127369961Y-109329600D01*
X127512819Y-109281980D01*
X127608057Y-109281980D01*
X127750914Y-109329600D01*
X127798533Y-109377219D01*
X128131866Y-109281980D02*
X128750914Y-109281980D01*
X128417580Y-109662933D01*
X128560438Y-109662933D01*
X128655676Y-109710552D01*
X128703295Y-109758171D01*
X128750914Y-109853409D01*
X128750914Y-110091504D01*
X128703295Y-110186742D01*
X128655676Y-110234361D01*
X128560438Y-110281980D01*
X128274723Y-110281980D01*
X128179485Y-110234361D01*
X128131866Y-110186742D01*
%TO.C,C4*%
X139076133Y-107240342D02*
X139028514Y-107287961D01*
X138885657Y-107335580D01*
X138790419Y-107335580D01*
X138647561Y-107287961D01*
X138552323Y-107192723D01*
X138504704Y-107097485D01*
X138457085Y-106907009D01*
X138457085Y-106764152D01*
X138504704Y-106573676D01*
X138552323Y-106478438D01*
X138647561Y-106383200D01*
X138790419Y-106335580D01*
X138885657Y-106335580D01*
X139028514Y-106383200D01*
X139076133Y-106430819D01*
X139933276Y-106668914D02*
X139933276Y-107335580D01*
X139695180Y-106287961D02*
X139457085Y-107002247D01*
X140076133Y-107002247D01*
%TO.C,C5*%
X126223733Y-98248742D02*
X126176114Y-98296361D01*
X126033257Y-98343980D01*
X125938019Y-98343980D01*
X125795161Y-98296361D01*
X125699923Y-98201123D01*
X125652304Y-98105885D01*
X125604685Y-97915409D01*
X125604685Y-97772552D01*
X125652304Y-97582076D01*
X125699923Y-97486838D01*
X125795161Y-97391600D01*
X125938019Y-97343980D01*
X126033257Y-97343980D01*
X126176114Y-97391600D01*
X126223733Y-97439219D01*
X127128495Y-97343980D02*
X126652304Y-97343980D01*
X126604685Y-97820171D01*
X126652304Y-97772552D01*
X126747542Y-97724933D01*
X126985638Y-97724933D01*
X127080876Y-97772552D01*
X127128495Y-97820171D01*
X127176114Y-97915409D01*
X127176114Y-98153504D01*
X127128495Y-98248742D01*
X127080876Y-98296361D01*
X126985638Y-98343980D01*
X126747542Y-98343980D01*
X126652304Y-98296361D01*
X126604685Y-98248742D01*
%TO.C,C6*%
X126020533Y-105817942D02*
X125972914Y-105865561D01*
X125830057Y-105913180D01*
X125734819Y-105913180D01*
X125591961Y-105865561D01*
X125496723Y-105770323D01*
X125449104Y-105675085D01*
X125401485Y-105484609D01*
X125401485Y-105341752D01*
X125449104Y-105151276D01*
X125496723Y-105056038D01*
X125591961Y-104960800D01*
X125734819Y-104913180D01*
X125830057Y-104913180D01*
X125972914Y-104960800D01*
X126020533Y-105008419D01*
X126877676Y-104913180D02*
X126687200Y-104913180D01*
X126591961Y-104960800D01*
X126544342Y-105008419D01*
X126449104Y-105151276D01*
X126401485Y-105341752D01*
X126401485Y-105722704D01*
X126449104Y-105817942D01*
X126496723Y-105865561D01*
X126591961Y-105913180D01*
X126782438Y-105913180D01*
X126877676Y-105865561D01*
X126925295Y-105817942D01*
X126972914Y-105722704D01*
X126972914Y-105484609D01*
X126925295Y-105389371D01*
X126877676Y-105341752D01*
X126782438Y-105294133D01*
X126591961Y-105294133D01*
X126496723Y-105341752D01*
X126449104Y-105389371D01*
X126401485Y-105484609D01*
%TO.C,C7*%
X139939733Y-113285542D02*
X139892114Y-113333161D01*
X139749257Y-113380780D01*
X139654019Y-113380780D01*
X139511161Y-113333161D01*
X139415923Y-113237923D01*
X139368304Y-113142685D01*
X139320685Y-112952209D01*
X139320685Y-112809352D01*
X139368304Y-112618876D01*
X139415923Y-112523638D01*
X139511161Y-112428400D01*
X139654019Y-112380780D01*
X139749257Y-112380780D01*
X139892114Y-112428400D01*
X139939733Y-112476019D01*
X140273066Y-112380780D02*
X140939733Y-112380780D01*
X140511161Y-113380780D01*
%TO.C,C8*%
X138161733Y-113082342D02*
X138114114Y-113129961D01*
X137971257Y-113177580D01*
X137876019Y-113177580D01*
X137733161Y-113129961D01*
X137637923Y-113034723D01*
X137590304Y-112939485D01*
X137542685Y-112749009D01*
X137542685Y-112606152D01*
X137590304Y-112415676D01*
X137637923Y-112320438D01*
X137733161Y-112225200D01*
X137876019Y-112177580D01*
X137971257Y-112177580D01*
X138114114Y-112225200D01*
X138161733Y-112272819D01*
X138733161Y-112606152D02*
X138637923Y-112558533D01*
X138590304Y-112510914D01*
X138542685Y-112415676D01*
X138542685Y-112368057D01*
X138590304Y-112272819D01*
X138637923Y-112225200D01*
X138733161Y-112177580D01*
X138923638Y-112177580D01*
X139018876Y-112225200D01*
X139066495Y-112272819D01*
X139114114Y-112368057D01*
X139114114Y-112415676D01*
X139066495Y-112510914D01*
X139018876Y-112558533D01*
X138923638Y-112606152D01*
X138733161Y-112606152D01*
X138637923Y-112653771D01*
X138590304Y-112701390D01*
X138542685Y-112796628D01*
X138542685Y-112987104D01*
X138590304Y-113082342D01*
X138637923Y-113129961D01*
X138733161Y-113177580D01*
X138923638Y-113177580D01*
X139018876Y-113129961D01*
X139066495Y-113082342D01*
X139114114Y-112987104D01*
X139114114Y-112796628D01*
X139066495Y-112701390D01*
X139018876Y-112653771D01*
X138923638Y-112606152D01*
%TO.C,C9*%
X142428933Y-106783142D02*
X142381314Y-106830761D01*
X142238457Y-106878380D01*
X142143219Y-106878380D01*
X142000361Y-106830761D01*
X141905123Y-106735523D01*
X141857504Y-106640285D01*
X141809885Y-106449809D01*
X141809885Y-106306952D01*
X141857504Y-106116476D01*
X141905123Y-106021238D01*
X142000361Y-105926000D01*
X142143219Y-105878380D01*
X142238457Y-105878380D01*
X142381314Y-105926000D01*
X142428933Y-105973619D01*
X142905123Y-106878380D02*
X143095600Y-106878380D01*
X143190838Y-106830761D01*
X143238457Y-106783142D01*
X143333695Y-106640285D01*
X143381314Y-106449809D01*
X143381314Y-106068857D01*
X143333695Y-105973619D01*
X143286076Y-105926000D01*
X143190838Y-105878380D01*
X143000361Y-105878380D01*
X142905123Y-105926000D01*
X142857504Y-105973619D01*
X142809885Y-106068857D01*
X142809885Y-106306952D01*
X142857504Y-106402190D01*
X142905123Y-106449809D01*
X143000361Y-106497428D01*
X143190838Y-106497428D01*
X143286076Y-106449809D01*
X143333695Y-106402190D01*
X143381314Y-106306952D01*
%TO.C,C10*%
X147321542Y-109913657D02*
X147369161Y-109961276D01*
X147416780Y-110104133D01*
X147416780Y-110199371D01*
X147369161Y-110342228D01*
X147273923Y-110437466D01*
X147178685Y-110485085D01*
X146988209Y-110532704D01*
X146845352Y-110532704D01*
X146654876Y-110485085D01*
X146559638Y-110437466D01*
X146464400Y-110342228D01*
X146416780Y-110199371D01*
X146416780Y-110104133D01*
X146464400Y-109961276D01*
X146512019Y-109913657D01*
X147416780Y-108961276D02*
X147416780Y-109532704D01*
X147416780Y-109246990D02*
X146416780Y-109246990D01*
X146559638Y-109342228D01*
X146654876Y-109437466D01*
X146702495Y-109532704D01*
X146416780Y-108342228D02*
X146416780Y-108246990D01*
X146464400Y-108151752D01*
X146512019Y-108104133D01*
X146607257Y-108056514D01*
X146797733Y-108008895D01*
X147035828Y-108008895D01*
X147226304Y-108056514D01*
X147321542Y-108104133D01*
X147369161Y-108151752D01*
X147416780Y-108246990D01*
X147416780Y-108342228D01*
X147369161Y-108437466D01*
X147321542Y-108485085D01*
X147226304Y-108532704D01*
X147035828Y-108580323D01*
X146797733Y-108580323D01*
X146607257Y-108532704D01*
X146512019Y-108485085D01*
X146464400Y-108437466D01*
X146416780Y-108342228D01*
%TO.C,D1*%
X146807180Y-102998495D02*
X145807180Y-102998495D01*
X145807180Y-102760400D01*
X145854800Y-102617542D01*
X145950038Y-102522304D01*
X146045276Y-102474685D01*
X146235752Y-102427066D01*
X146378609Y-102427066D01*
X146569085Y-102474685D01*
X146664323Y-102522304D01*
X146759561Y-102617542D01*
X146807180Y-102760400D01*
X146807180Y-102998495D01*
X146807180Y-101474685D02*
X146807180Y-102046114D01*
X146807180Y-101760400D02*
X145807180Y-101760400D01*
X145950038Y-101855638D01*
X146045276Y-101950876D01*
X146092895Y-102046114D01*
%TO.C,F1*%
X135099466Y-112576571D02*
X134766133Y-112576571D01*
X134766133Y-113100380D02*
X134766133Y-112100380D01*
X135242323Y-112100380D01*
X136147085Y-113100380D02*
X135575657Y-113100380D01*
X135861371Y-113100380D02*
X135861371Y-112100380D01*
X135766133Y-112243238D01*
X135670895Y-112338476D01*
X135575657Y-112386095D01*
%TO.C,J1*%
X139253980Y-90706533D02*
X139968266Y-90706533D01*
X140111123Y-90754152D01*
X140206361Y-90849390D01*
X140253980Y-90992247D01*
X140253980Y-91087485D01*
X140253980Y-89706533D02*
X140253980Y-90277961D01*
X140253980Y-89992247D02*
X139253980Y-89992247D01*
X139396838Y-90087485D01*
X139492076Y-90182723D01*
X139539695Y-90277961D01*
%TO.C,J2*%
X121739066Y-91705180D02*
X121739066Y-92419466D01*
X121691447Y-92562323D01*
X121596209Y-92657561D01*
X121453352Y-92705180D01*
X121358114Y-92705180D01*
X122167638Y-91800419D02*
X122215257Y-91752800D01*
X122310495Y-91705180D01*
X122548590Y-91705180D01*
X122643828Y-91752800D01*
X122691447Y-91800419D01*
X122739066Y-91895657D01*
X122739066Y-91990895D01*
X122691447Y-92133752D01*
X122120019Y-92705180D01*
X122739066Y-92705180D01*
%TO.C,J3*%
X140718785Y-114194715D02*
X140100195Y-114551858D01*
X139952668Y-114582047D01*
X139822570Y-114547187D01*
X139709902Y-114447279D01*
X139662283Y-114364800D01*
X140909261Y-114524629D02*
X141218785Y-115060740D01*
X140722204Y-114962541D01*
X140793632Y-115086259D01*
X140800012Y-115192547D01*
X140782582Y-115257596D01*
X140723913Y-115346455D01*
X140517717Y-115465502D01*
X140411429Y-115471882D01*
X140346380Y-115454452D01*
X140257521Y-115395783D01*
X140114664Y-115148347D01*
X140108284Y-115042059D01*
X140125714Y-114977010D01*
%TO.C,J4*%
X128951024Y-113395349D02*
X129536133Y-113805046D01*
X129625841Y-113925993D01*
X129649229Y-114058634D01*
X129606297Y-114202969D01*
X129551671Y-114280983D01*
X129743025Y-112845403D02*
X130289126Y-113227788D01*
X129294401Y-112821934D02*
X129742944Y-113426668D01*
X130098015Y-112919574D01*
%TO.C,J6*%
X121931180Y-90757333D02*
X122645466Y-90757333D01*
X122788323Y-90804952D01*
X122883561Y-90900190D01*
X122931180Y-91043047D01*
X122931180Y-91138285D01*
X121931180Y-89852571D02*
X121931180Y-90043047D01*
X121978800Y-90138285D01*
X122026419Y-90185904D01*
X122169276Y-90281142D01*
X122359752Y-90328761D01*
X122740704Y-90328761D01*
X122835942Y-90281142D01*
X122883561Y-90233523D01*
X122931180Y-90138285D01*
X122931180Y-89947809D01*
X122883561Y-89852571D01*
X122835942Y-89804952D01*
X122740704Y-89757333D01*
X122502609Y-89757333D01*
X122407371Y-89804952D01*
X122359752Y-89852571D01*
X122312133Y-89947809D01*
X122312133Y-90138285D01*
X122359752Y-90233523D01*
X122407371Y-90281142D01*
X122502609Y-90328761D01*
%TO.C,J7*%
X131589980Y-114582533D02*
X132304266Y-114582533D01*
X132447123Y-114630152D01*
X132542361Y-114725390D01*
X132589980Y-114868247D01*
X132589980Y-114963485D01*
X131589980Y-114201580D02*
X131589980Y-113534914D01*
X132589980Y-113963485D01*
%TO.C,R1*%
X130998933Y-110281980D02*
X130665600Y-109805790D01*
X130427504Y-110281980D02*
X130427504Y-109281980D01*
X130808457Y-109281980D01*
X130903695Y-109329600D01*
X130951314Y-109377219D01*
X130998933Y-109472457D01*
X130998933Y-109615314D01*
X130951314Y-109710552D01*
X130903695Y-109758171D01*
X130808457Y-109805790D01*
X130427504Y-109805790D01*
X131951314Y-110281980D02*
X131379885Y-110281980D01*
X131665600Y-110281980D02*
X131665600Y-109281980D01*
X131570361Y-109424838D01*
X131475123Y-109520076D01*
X131379885Y-109567695D01*
%TO.C,R3*%
X135621733Y-107183180D02*
X135288400Y-106706990D01*
X135050304Y-107183180D02*
X135050304Y-106183180D01*
X135431257Y-106183180D01*
X135526495Y-106230800D01*
X135574114Y-106278419D01*
X135621733Y-106373657D01*
X135621733Y-106516514D01*
X135574114Y-106611752D01*
X135526495Y-106659371D01*
X135431257Y-106706990D01*
X135050304Y-106706990D01*
X135955066Y-106183180D02*
X136574114Y-106183180D01*
X136240780Y-106564133D01*
X136383638Y-106564133D01*
X136478876Y-106611752D01*
X136526495Y-106659371D01*
X136574114Y-106754609D01*
X136574114Y-106992704D01*
X136526495Y-107087942D01*
X136478876Y-107135561D01*
X136383638Y-107183180D01*
X136097923Y-107183180D01*
X136002685Y-107135561D01*
X135955066Y-107087942D01*
%TO.C,R4*%
X145079980Y-102477866D02*
X144603790Y-102811200D01*
X145079980Y-103049295D02*
X144079980Y-103049295D01*
X144079980Y-102668342D01*
X144127600Y-102573104D01*
X144175219Y-102525485D01*
X144270457Y-102477866D01*
X144413314Y-102477866D01*
X144508552Y-102525485D01*
X144556171Y-102573104D01*
X144603790Y-102668342D01*
X144603790Y-103049295D01*
X144413314Y-101620723D02*
X145079980Y-101620723D01*
X144032361Y-101858819D02*
X144746647Y-102096914D01*
X144746647Y-101477866D01*
%TO.C,SW1*%
X128613066Y-105763961D02*
X128755923Y-105811580D01*
X128994019Y-105811580D01*
X129089257Y-105763961D01*
X129136876Y-105716342D01*
X129184495Y-105621104D01*
X129184495Y-105525866D01*
X129136876Y-105430628D01*
X129089257Y-105383009D01*
X128994019Y-105335390D01*
X128803542Y-105287771D01*
X128708304Y-105240152D01*
X128660685Y-105192533D01*
X128613066Y-105097295D01*
X128613066Y-105002057D01*
X128660685Y-104906819D01*
X128708304Y-104859200D01*
X128803542Y-104811580D01*
X129041638Y-104811580D01*
X129184495Y-104859200D01*
X129517828Y-104811580D02*
X129755923Y-105811580D01*
X129946400Y-105097295D01*
X130136876Y-105811580D01*
X130374971Y-104811580D01*
X131279733Y-105811580D02*
X130708304Y-105811580D01*
X130994019Y-105811580D02*
X130994019Y-104811580D01*
X130898780Y-104954438D01*
X130803542Y-105049676D01*
X130708304Y-105097295D01*
%TO.C,U1*%
X132994495Y-96073980D02*
X132994495Y-96883504D01*
X133042114Y-96978742D01*
X133089733Y-97026361D01*
X133184971Y-97073980D01*
X133375447Y-97073980D01*
X133470685Y-97026361D01*
X133518304Y-96978742D01*
X133565923Y-96883504D01*
X133565923Y-96073980D01*
X134565923Y-97073980D02*
X133994495Y-97073980D01*
X134280209Y-97073980D02*
X134280209Y-96073980D01*
X134184971Y-96216838D01*
X134089733Y-96312076D01*
X133994495Y-96359695D01*
%TO.C,U2*%
X144170495Y-110297980D02*
X144170495Y-111107504D01*
X144218114Y-111202742D01*
X144265733Y-111250361D01*
X144360971Y-111297980D01*
X144551447Y-111297980D01*
X144646685Y-111250361D01*
X144694304Y-111202742D01*
X144741923Y-111107504D01*
X144741923Y-110297980D01*
X145170495Y-110393219D02*
X145218114Y-110345600D01*
X145313352Y-110297980D01*
X145551447Y-110297980D01*
X145646685Y-110345600D01*
X145694304Y-110393219D01*
X145741923Y-110488457D01*
X145741923Y-110583695D01*
X145694304Y-110726552D01*
X145122876Y-111297980D01*
X145741923Y-111297980D01*
%TO.C,Y1*%
X128962209Y-97969390D02*
X128962209Y-98445580D01*
X128628876Y-97445580D02*
X128962209Y-97969390D01*
X129295542Y-97445580D01*
X130152685Y-98445580D02*
X129581257Y-98445580D01*
X129866971Y-98445580D02*
X129866971Y-97445580D01*
X129771733Y-97588438D01*
X129676495Y-97683676D01*
X129581257Y-97731295D01*
%TD*%
M02*
