%TF.GenerationSoftware,KiCad,Pcbnew,(5.1.6)-1*%
%TF.CreationDate,2020-11-24T16:57:48+08:00*%
%TF.ProjectId,BCG_mini_c8t6,4243475f-6d69-46e6-995f-633874362e6b,rev?*%
%TF.SameCoordinates,Original*%
%TF.FileFunction,Soldermask,Bot*%
%TF.FilePolarity,Negative*%
%FSLAX46Y46*%
G04 Gerber Fmt 4.6, Leading zero omitted, Abs format (unit mm)*
G04 Created by KiCad (PCBNEW (5.1.6)-1) date 2020-11-24 16:57:48*
%MOMM*%
%LPD*%
G01*
G04 APERTURE LIST*
%ADD10O,1.800000X1.800000*%
%ADD11R,1.800000X1.800000*%
%ADD12C,0.100000*%
G04 APERTURE END LIST*
D10*
%TO.C,J5*%
X149961600Y-106781600D03*
X149961600Y-104241600D03*
X149961600Y-101701600D03*
X149961600Y-99161600D03*
X149961600Y-96621600D03*
D11*
X149961600Y-94081600D03*
%TD*%
%TO.C,C1*%
G36*
G01*
X139349200Y-98778750D02*
X139349200Y-99341250D01*
G75*
G02*
X139105450Y-99585000I-243750J0D01*
G01*
X138617950Y-99585000D01*
G75*
G02*
X138374200Y-99341250I0J243750D01*
G01*
X138374200Y-98778750D01*
G75*
G02*
X138617950Y-98535000I243750J0D01*
G01*
X139105450Y-98535000D01*
G75*
G02*
X139349200Y-98778750I0J-243750D01*
G01*
G37*
G36*
G01*
X140924200Y-98778750D02*
X140924200Y-99341250D01*
G75*
G02*
X140680450Y-99585000I-243750J0D01*
G01*
X140192950Y-99585000D01*
G75*
G02*
X139949200Y-99341250I0J243750D01*
G01*
X139949200Y-98778750D01*
G75*
G02*
X140192950Y-98535000I243750J0D01*
G01*
X140680450Y-98535000D01*
G75*
G02*
X140924200Y-98778750I0J-243750D01*
G01*
G37*
%TD*%
%TO.C,C2*%
G36*
G01*
X135224600Y-102033650D02*
X135224600Y-101471150D01*
G75*
G02*
X135468350Y-101227400I243750J0D01*
G01*
X135955850Y-101227400D01*
G75*
G02*
X136199600Y-101471150I0J-243750D01*
G01*
X136199600Y-102033650D01*
G75*
G02*
X135955850Y-102277400I-243750J0D01*
G01*
X135468350Y-102277400D01*
G75*
G02*
X135224600Y-102033650I0J243750D01*
G01*
G37*
G36*
G01*
X136799600Y-102033650D02*
X136799600Y-101471150D01*
G75*
G02*
X137043350Y-101227400I243750J0D01*
G01*
X137530850Y-101227400D01*
G75*
G02*
X137774600Y-101471150I0J-243750D01*
G01*
X137774600Y-102033650D01*
G75*
G02*
X137530850Y-102277400I-243750J0D01*
G01*
X137043350Y-102277400D01*
G75*
G02*
X136799600Y-102033650I0J243750D01*
G01*
G37*
%TD*%
%TO.C,J1*%
X149555200Y-90220800D03*
D10*
X147015200Y-90220800D03*
X144475200Y-90220800D03*
X141935200Y-90220800D03*
%TD*%
%TO.C,J2*%
X122580400Y-106934000D03*
X122580400Y-104394000D03*
X122580400Y-101854000D03*
X122580400Y-99314000D03*
X122580400Y-96774000D03*
D11*
X122580400Y-94234000D03*
%TD*%
D12*
%TO.C,J3*%
G36*
X139405423Y-118896623D02*
G01*
X137846577Y-119796623D01*
X136946577Y-118237777D01*
X138505423Y-117337777D01*
X139405423Y-118896623D01*
G37*
G36*
G01*
X140825705Y-118076623D02*
X140825705Y-118076623D01*
G75*
G02*
X139596282Y-117747200I-450000J779423D01*
G01*
X139596282Y-117747200D01*
G75*
G02*
X139925705Y-116517777I779423J450000D01*
G01*
X139925705Y-116517777D01*
G75*
G02*
X141155128Y-116847200I450000J-779423D01*
G01*
X141155128Y-116847200D01*
G75*
G02*
X140825705Y-118076623I-779423J-450000D01*
G01*
G37*
G36*
G01*
X143025409Y-116806623D02*
X143025409Y-116806623D01*
G75*
G02*
X141795986Y-116477200I-450000J779423D01*
G01*
X141795986Y-116477200D01*
G75*
G02*
X142125409Y-115247777I779423J450000D01*
G01*
X142125409Y-115247777D01*
G75*
G02*
X143354832Y-115577200I450000J-779423D01*
G01*
X143354832Y-115577200D01*
G75*
G02*
X143025409Y-116806623I-779423J-450000D01*
G01*
G37*
G36*
G01*
X145225114Y-115536623D02*
X145225114Y-115536623D01*
G75*
G02*
X143995691Y-115207200I-450000J779423D01*
G01*
X143995691Y-115207200D01*
G75*
G02*
X144325114Y-113977777I779423J450000D01*
G01*
X144325114Y-113977777D01*
G75*
G02*
X145554537Y-114307200I450000J-779423D01*
G01*
X145554537Y-114307200D01*
G75*
G02*
X145225114Y-115536623I-779423J-450000D01*
G01*
G37*
G36*
G01*
X147424818Y-114266623D02*
X147424818Y-114266623D01*
G75*
G02*
X146195395Y-113937200I-450000J779423D01*
G01*
X146195395Y-113937200D01*
G75*
G02*
X146524818Y-112707777I779423J450000D01*
G01*
X146524818Y-112707777D01*
G75*
G02*
X147754241Y-113037200I450000J-779423D01*
G01*
X147754241Y-113037200D01*
G75*
G02*
X147424818Y-114266623I-779423J-450000D01*
G01*
G37*
G36*
G01*
X149624523Y-112996623D02*
X149624523Y-112996623D01*
G75*
G02*
X148395100Y-112667200I-450000J779423D01*
G01*
X148395100Y-112667200D01*
G75*
G02*
X148724523Y-111437777I779423J450000D01*
G01*
X148724523Y-111437777D01*
G75*
G02*
X149953946Y-111767200I450000J-779423D01*
G01*
X149953946Y-111767200D01*
G75*
G02*
X149624523Y-112996623I-779423J-450000D01*
G01*
G37*
%TD*%
%TO.C,J4*%
G36*
X132824182Y-117313744D02*
G01*
X134298656Y-118346182D01*
X133266218Y-119820656D01*
X131791744Y-118788218D01*
X132824182Y-117313744D01*
G37*
G36*
G01*
X131480773Y-116373079D02*
X131480773Y-116373079D01*
G75*
G02*
X131701791Y-117626535I-516219J-737237D01*
G01*
X131701791Y-117626535D01*
G75*
G02*
X130448335Y-117847553I-737237J516219D01*
G01*
X130448335Y-117847553D01*
G75*
G02*
X130227317Y-116594097I516219J737237D01*
G01*
X130227317Y-116594097D01*
G75*
G02*
X131480773Y-116373079I737237J-516219D01*
G01*
G37*
G36*
G01*
X129400127Y-114916195D02*
X129400127Y-114916195D01*
G75*
G02*
X129621145Y-116169651I-516219J-737237D01*
G01*
X129621145Y-116169651D01*
G75*
G02*
X128367689Y-116390669I-737237J516219D01*
G01*
X128367689Y-116390669D01*
G75*
G02*
X128146671Y-115137213I516219J737237D01*
G01*
X128146671Y-115137213D01*
G75*
G02*
X129400127Y-114916195I737237J-516219D01*
G01*
G37*
G36*
G01*
X127319480Y-113459311D02*
X127319480Y-113459311D01*
G75*
G02*
X127540498Y-114712767I-516219J-737237D01*
G01*
X127540498Y-114712767D01*
G75*
G02*
X126287042Y-114933785I-737237J516219D01*
G01*
X126287042Y-114933785D01*
G75*
G02*
X126066024Y-113680329I516219J737237D01*
G01*
X126066024Y-113680329D01*
G75*
G02*
X127319480Y-113459311I737237J-516219D01*
G01*
G37*
G36*
G01*
X125238834Y-112002426D02*
X125238834Y-112002426D01*
G75*
G02*
X125459852Y-113255882I-516219J-737237D01*
G01*
X125459852Y-113255882D01*
G75*
G02*
X124206396Y-113476900I-737237J516219D01*
G01*
X124206396Y-113476900D01*
G75*
G02*
X123985378Y-112223444I516219J737237D01*
G01*
X123985378Y-112223444D01*
G75*
G02*
X125238834Y-112002426I737237J-516219D01*
G01*
G37*
G36*
G01*
X123158188Y-110545542D02*
X123158188Y-110545542D01*
G75*
G02*
X123379206Y-111798998I-516219J-737237D01*
G01*
X123379206Y-111798998D01*
G75*
G02*
X122125750Y-112020016I-737237J516219D01*
G01*
X122125750Y-112020016D01*
G75*
G02*
X121904732Y-110766560I516219J737237D01*
G01*
X121904732Y-110766560D01*
G75*
G02*
X123158188Y-110545542I737237J-516219D01*
G01*
G37*
%TD*%
D11*
%TO.C,J6*%
X124612400Y-90271600D03*
D10*
X127152400Y-90271600D03*
X129692400Y-90271600D03*
X132232400Y-90271600D03*
X134772400Y-90271600D03*
X137312400Y-90271600D03*
%TD*%
D11*
%TO.C,J7*%
X134467600Y-114249200D03*
D10*
X137007600Y-114249200D03*
%TD*%
%TO.C,R2*%
G36*
G01*
X136545600Y-99341250D02*
X136545600Y-98778750D01*
G75*
G02*
X136789350Y-98535000I243750J0D01*
G01*
X137276850Y-98535000D01*
G75*
G02*
X137520600Y-98778750I0J-243750D01*
G01*
X137520600Y-99341250D01*
G75*
G02*
X137276850Y-99585000I-243750J0D01*
G01*
X136789350Y-99585000D01*
G75*
G02*
X136545600Y-99341250I0J243750D01*
G01*
G37*
G36*
G01*
X134970600Y-99341250D02*
X134970600Y-98778750D01*
G75*
G02*
X135214350Y-98535000I243750J0D01*
G01*
X135701850Y-98535000D01*
G75*
G02*
X135945600Y-98778750I0J-243750D01*
G01*
X135945600Y-99341250D01*
G75*
G02*
X135701850Y-99585000I-243750J0D01*
G01*
X135214350Y-99585000D01*
G75*
G02*
X134970600Y-99341250I0J243750D01*
G01*
G37*
%TD*%
M02*
